<?xml version="1.0" encoding="UTF-8" standalone="no"?>
<!DOCTYPE svg PUBLIC "-//W3C//DTD SVG 1.1//EN"
 "http://www.w3.org/Graphics/SVG/1.1/DTD/svg11.dtd">
<!-- Generated by graphviz version 2.43.0 (0)
 -->
<!-- Title: include/Thoth/Http/NHeaders/Headers/_pch.hpp Pages: 1 -->
<svg width="1165pt" height="225pt"
 viewBox="0.00 0.00 1165.00 225.00" xmlns="http://www.w3.org/2000/svg" xmlns:xlink="http://www.w3.org/1999/xlink">
<g id="graph0" class="graph" transform="scale(1 1) rotate(0) translate(4 221)">
<title>include/Thoth/Http/NHeaders/Headers/_pch.hpp</title>
<!-- Node1 -->
<g id="Node000001" class="node">
<title>Node1</title>
<g id="a_Node000001"><a xlink:title=" ">
<polygon fill="#999999" stroke="#666666" points="662.5,-217 504.5,-217 504.5,-187 662.5,-187 662.5,-217"/>
<text text-anchor="start" x="512.5" y="-205" font-family="Helvetica,sans-Serif" font-size="10.00">include/Thoth/Http</text>
<text text-anchor="middle" x="583.5" y="-194" font-family="Helvetica,sans-Serif" font-size="10.00">/NHeaders/Headers/_pch.hpp</text>
</a>
</g>
</g>
<!-- Node2 -->
<g id="Node000002" class="node">
<title>Node2</title>
<g id="a_Node000002"><a xlink:href="_cache_control_8hpp.html" target="_top" xlink:title=" ">
<polygon fill="white" stroke="#666666" points="205,-151 56,-151 56,-121 205,-121 205,-151"/>
<text text-anchor="start" x="64" y="-139" font-family="Helvetica,sans-Serif" font-size="10.00">Thoth/Http/NHeaders</text>
<text text-anchor="middle" x="130.5" y="-128" font-family="Helvetica,sans-Serif" font-size="10.00">/Headers/CacheControl.hpp</text>
</a>
</g>
</g>
<!-- Node1&#45;&gt;Node2 -->
<g id="edge1_Node000001_Node000002" class="edge">
<title>Node1&#45;&gt;Node2</title>
<g id="a_edge1_Node000001_Node000002"><a xlink:title=" ">
<path fill="none" stroke="#63b8ff" d="M504.33,-189.82C423.38,-178.38 298.08,-160.68 215.18,-148.96"/>
<polygon fill="#63b8ff" stroke="#63b8ff" points="215.42,-145.46 205.03,-147.53 214.44,-152.39 215.42,-145.46"/>
</a>
</g>
</g>
<!-- Node6 -->
<g id="Node000006" class="node">
<title>Node6</title>
<g id="a_Node000006"><a xlink:href="_mime_type_8hpp.html" target="_top" xlink:title=" ">
<polygon fill="white" stroke="#666666" points="492.5,-151 358.5,-151 358.5,-121 492.5,-121 492.5,-151"/>
<text text-anchor="start" x="366.5" y="-139" font-family="Helvetica,sans-Serif" font-size="10.00">Thoth/Http/NHeaders</text>
<text text-anchor="middle" x="425.5" y="-128" font-family="Helvetica,sans-Serif" font-size="10.00">/Headers/MimeType.hpp</text>
</a>
</g>
</g>
<!-- Node1&#45;&gt;Node6 -->
<g id="edge5_Node000001_Node000006" class="edge">
<title>Node1&#45;&gt;Node6</title>
<g id="a_edge5_Node000001_Node000006"><a xlink:title=" ">
<path fill="none" stroke="#63b8ff" d="M548.83,-186.95C525.47,-177.49 494.46,-164.93 469.39,-154.78"/>
<polygon fill="#63b8ff" stroke="#63b8ff" points="470.68,-151.52 460.09,-151.01 468.05,-158.01 470.68,-151.52"/>
</a>
</g>
</g>
<!-- Node12 -->
<g id="Node000012" class="node">
<title>Node12</title>
<g id="a_Node000012"><a xlink:href="_content_encoding_enum_8hpp.html" target="_top" xlink:title=" ">
<polygon fill="white" stroke="#666666" points="901.5,-151 707.5,-151 707.5,-121 901.5,-121 901.5,-151"/>
<text text-anchor="start" x="715.5" y="-139" font-family="Helvetica,sans-Serif" font-size="10.00">Thoth/Http/NHeaders</text>
<text text-anchor="middle" x="804.5" y="-128" font-family="Helvetica,sans-Serif" font-size="10.00">/Headers/ContentEncodingEnum.hpp</text>
</a>
</g>
</g>
<!-- Node1&#45;&gt;Node12 -->
<g id="edge11_Node000001_Node000012" class="edge">
<title>Node1&#45;&gt;Node12</title>
<g id="a_edge11_Node000001_Node000012"><a xlink:title=" ">
<path fill="none" stroke="#63b8ff" d="M632,-186.95C665.68,-177.2 710.72,-164.16 746.34,-153.84"/>
<polygon fill="#63b8ff" stroke="#63b8ff" points="747.48,-157.16 756.11,-151.01 745.53,-150.43 747.48,-157.16"/>
</a>
</g>
</g>
<!-- Node14 -->
<g id="Node000014" class="node">
<title>Node14</title>
<g id="a_Node000014"><a xlink:href="_upgrade_8hpp.html" target="_top" xlink:title=" ">
<polygon fill="white" stroke="#666666" points="646,-151 521,-151 521,-121 646,-121 646,-151"/>
<text text-anchor="start" x="529" y="-139" font-family="Helvetica,sans-Serif" font-size="10.00">Thoth/Http/NHeaders</text>
<text text-anchor="middle" x="583.5" y="-128" font-family="Helvetica,sans-Serif" font-size="10.00">/Headers/Upgrade.hpp</text>
</a>
</g>
</g>
<!-- Node1&#45;&gt;Node14 -->
<g id="edge13_Node000001_Node000014" class="edge">
<title>Node1&#45;&gt;Node14</title>
<g id="a_edge13_Node000001_Node000014"><a xlink:title=" ">
<path fill="none" stroke="#63b8ff" d="M583.5,-186.8C583.5,-179.34 583.5,-169.99 583.5,-161.41"/>
<polygon fill="#63b8ff" stroke="#63b8ff" points="587,-161.16 583.5,-151.16 580,-161.16 587,-161.16"/>
</a>
</g>
</g>
<!-- Node16 -->
<g id="Node000016" class="node">
<title>Node16</title>
<g id="a_Node000016"><a xlink:href="_transfer_encoding_enum_8hpp.html" target="_top" xlink:title=" ">
<polygon fill="white" stroke="#666666" points="1136,-151 941,-151 941,-121 1136,-121 1136,-151"/>
<text text-anchor="start" x="949" y="-139" font-family="Helvetica,sans-Serif" font-size="10.00">Thoth/Http/NHeaders</text>
<text text-anchor="middle" x="1038.5" y="-128" font-family="Helvetica,sans-Serif" font-size="10.00">/Headers/TransferEncodingEnum.hpp</text>
</a>
</g>
</g>
<!-- Node1&#45;&gt;Node16 -->
<g id="edge17_Node000001_Node000016" class="edge">
<title>Node1&#45;&gt;Node16</title>
<g id="a_edge17_Node000001_Node000016"><a xlink:title=" ">
<path fill="none" stroke="#63b8ff" d="M662.75,-189.85C736.94,-179.42 848.36,-163.74 930.62,-152.17"/>
<polygon fill="#63b8ff" stroke="#63b8ff" points="931.35,-155.61 940.76,-150.75 930.37,-148.68 931.35,-155.61"/>
</a>
</g>
</g>
<!-- Node3 -->
<g id="Node000003" class="node">
<title>Node3</title>
<g id="a_Node000003"><a xlink:title=" ">
<polygon fill="#e0e0e0" stroke="#999999" points="51,-79.5 0,-79.5 0,-60.5 51,-60.5 51,-79.5"/>
<text text-anchor="middle" x="25.5" y="-67.5" font-family="Helvetica,sans-Serif" font-size="10.00">variant</text>
</a>
</g>
</g>
<!-- Node2&#45;&gt;Node3 -->
<g id="edge2_Node000002_Node000003" class="edge">
<title>Node2&#45;&gt;Node3</title>
<g id="a_edge2_Node000002_Node000003"><a xlink:title=" ">
<path fill="none" stroke="#63b8ff" d="M107.46,-120.95C89.94,-110.27 65.94,-95.65 48.44,-84.98"/>
<polygon fill="#63b8ff" stroke="#63b8ff" points="49.83,-81.73 39.47,-79.52 46.19,-87.71 49.83,-81.73"/>
</a>
</g>
</g>
<!-- Node4 -->
<g id="Node000004" class="node">
<title>Node4</title>
<g id="a_Node000004"><a xlink:title=" ">
<polygon fill="#e0e0e0" stroke="#999999" points="119.5,-79.5 69.5,-79.5 69.5,-60.5 119.5,-60.5 119.5,-79.5"/>
<text text-anchor="middle" x="94.5" y="-67.5" font-family="Helvetica,sans-Serif" font-size="10.00">chrono</text>
</a>
</g>
</g>
<!-- Node2&#45;&gt;Node4 -->
<g id="edge3_Node000002_Node000004" class="edge">
<title>Node2&#45;&gt;Node4</title>
<g id="a_edge3_Node000002_Node000004"><a xlink:title=" ">
<path fill="none" stroke="#63b8ff" d="M122.51,-120.8C117.17,-111.31 110.11,-98.76 104.42,-88.63"/>
<polygon fill="#63b8ff" stroke="#63b8ff" points="107.43,-86.84 99.47,-79.84 101.33,-90.28 107.43,-86.84"/>
</a>
</g>
</g>
<!-- Node5 -->
<g id="Node000005" class="node">
<title>Node5</title>
<g id="a_Node000005"><a xlink:title=" ">
<polygon fill="#e0e0e0" stroke="#999999" points="193.5,-79.5 137.5,-79.5 137.5,-60.5 193.5,-60.5 193.5,-79.5"/>
<text text-anchor="middle" x="165.5" y="-67.5" font-family="Helvetica,sans-Serif" font-size="10.00">numeric</text>
</a>
</g>
</g>
<!-- Node2&#45;&gt;Node5 -->
<g id="edge4_Node000002_Node000005" class="edge">
<title>Node2&#45;&gt;Node5</title>
<g id="a_edge4_Node000002_Node000005"><a xlink:title=" ">
<path fill="none" stroke="#63b8ff" d="M138.27,-120.8C143.46,-111.31 150.32,-98.76 155.86,-88.63"/>
<polygon fill="#63b8ff" stroke="#63b8ff" points="158.94,-90.3 160.66,-79.84 152.79,-86.94 158.94,-90.3"/>
</a>
</g>
</g>
<!-- Node7 -->
<g id="Node000007" class="node">
<title>Node7</title>
<g id="a_Node000007"><a xlink:title=" ">
<polygon fill="#e0e0e0" stroke="#999999" points="555.5,-79.5 499.5,-79.5 499.5,-60.5 555.5,-60.5 555.5,-79.5"/>
<text text-anchor="middle" x="527.5" y="-67.5" font-family="Helvetica,sans-Serif" font-size="10.00">optional</text>
</a>
</g>
</g>
<!-- Node6&#45;&gt;Node7 -->
<g id="edge6_Node000006_Node000007" class="edge">
<title>Node6&#45;&gt;Node7</title>
<g id="a_edge6_Node000006_Node000007"><a xlink:title=" ">
<path fill="none" stroke="#63b8ff" d="M447.88,-120.95C464.91,-110.27 488.21,-95.65 505.21,-84.98"/>
<polygon fill="#63b8ff" stroke="#63b8ff" points="507.32,-87.8 513.93,-79.52 503.59,-81.87 507.32,-87.8"/>
</a>
</g>
</g>
<!-- Node8 -->
<g id="Node000008" class="node">
<title>Node8</title>
<g id="a_Node000008"><a xlink:href="_http_2_n_headers_2__base_8hpp.html" target="_top" xlink:title=" ">
<polygon fill="white" stroke="#666666" points="331,-85 212,-85 212,-55 331,-55 331,-85"/>
<text text-anchor="start" x="220" y="-73" font-family="Helvetica,sans-Serif" font-size="10.00">Thoth/Http/NHeaders</text>
<text text-anchor="middle" x="271.5" y="-62" font-family="Helvetica,sans-Serif" font-size="10.00">/_base.hpp</text>
</a>
</g>
</g>
<!-- Node6&#45;&gt;Node8 -->
<g id="edge7_Node000006_Node000008" class="edge">
<title>Node6&#45;&gt;Node8</title>
<g id="a_edge7_Node000006_Node000008"><a xlink:title=" ">
<path fill="none" stroke="#63b8ff" d="M391.7,-120.95C369.04,-111.53 338.98,-99.04 314.6,-88.91"/>
<polygon fill="#63b8ff" stroke="#63b8ff" points="315.79,-85.62 305.22,-85.01 313.11,-92.08 315.79,-85.62"/>
</a>
</g>
</g>
<!-- Node11 -->
<g id="Node000011" class="node">
<title>Node11</title>
<g id="a_Node000011"><a xlink:title=" ">
<polygon fill="#e0e0e0" stroke="#999999" points="481.5,-85 349.5,-85 349.5,-55 481.5,-55 481.5,-85"/>
<text text-anchor="start" x="357.5" y="-73" font-family="Helvetica,sans-Serif" font-size="10.00">Thoth/Http/NHeaders</text>
<text text-anchor="middle" x="415.5" y="-62" font-family="Helvetica,sans-Serif" font-size="10.00">/Headers/MimeType.tpp</text>
</a>
</g>
</g>
<!-- Node6&#45;&gt;Node11 -->
<g id="edge10_Node000006_Node000011" class="edge">
<title>Node6&#45;&gt;Node11</title>
<g id="a_edge10_Node000006_Node000011"><a xlink:title=" ">
<path fill="none" stroke="#63b8ff" d="M423.28,-120.8C422.1,-113.26 420.62,-103.78 419.27,-95.13"/>
<polygon fill="#63b8ff" stroke="#63b8ff" points="422.72,-94.5 417.71,-85.16 415.8,-95.58 422.72,-94.5"/>
</a>
</g>
</g>
<!-- Node9 -->
<g id="Node000009" class="node">
<title>Node9</title>
<g id="a_Node000009"><a xlink:title=" ">
<polygon fill="#e0e0e0" stroke="#999999" points="481.5,-19 437.5,-19 437.5,0 481.5,0 481.5,-19"/>
<text text-anchor="middle" x="459.5" y="-7" font-family="Helvetica,sans-Serif" font-size="10.00">string</text>
</a>
</g>
</g>
<!-- Node8&#45;&gt;Node9 -->
<g id="edge8_Node000008_Node000009" class="edge">
<title>Node8&#45;&gt;Node9</title>
<g id="a_edge8_Node000008_Node000009"><a xlink:title=" ">
<path fill="none" stroke="#63b8ff" d="M316.53,-54.99C350.79,-44.33 397.08,-29.92 427.59,-20.43"/>
<polygon fill="#63b8ff" stroke="#63b8ff" points="428.78,-23.72 437.29,-17.41 426.7,-17.04 428.78,-23.72"/>
</a>
</g>
</g>
<!-- Node10 -->
<g id="Node000010" class="node">
<title>Node10</title>
<g id="a_Node000010"><a xlink:title=" ">
<polygon fill="#e0e0e0" stroke="#999999" points="295,-19 248,-19 248,0 295,0 295,-19"/>
<text text-anchor="middle" x="271.5" y="-7" font-family="Helvetica,sans-Serif" font-size="10.00">vector</text>
</a>
</g>
</g>
<!-- Node8&#45;&gt;Node10 -->
<g id="edge9_Node000008_Node000010" class="edge">
<title>Node8&#45;&gt;Node10</title>
<g id="a_edge9_Node000008_Node000010"><a xlink:title=" ">
<path fill="none" stroke="#63b8ff" d="M271.5,-54.84C271.5,-47.21 271.5,-37.7 271.5,-29.45"/>
<polygon fill="#63b8ff" stroke="#63b8ff" points="275,-29.27 271.5,-19.27 268,-29.27 275,-29.27"/>
</a>
</g>
</g>
<!-- Node13 -->
<g id="Node000013" class="node">
<title>Node13</title>
<g id="a_Node000013"><a xlink:title=" ">
<polygon fill="#e0e0e0" stroke="#999999" points="945.5,-85 753.5,-85 753.5,-55 945.5,-55 945.5,-85"/>
<text text-anchor="start" x="761.5" y="-73" font-family="Helvetica,sans-Serif" font-size="10.00">Thoth/Http/NHeaders</text>
<text text-anchor="middle" x="849.5" y="-62" font-family="Helvetica,sans-Serif" font-size="10.00">/Headers/ContentEncodingEnum.tpp</text>
</a>
</g>
</g>
<!-- Node12&#45;&gt;Node13 -->
<g id="edge12_Node000012_Node000013" class="edge">
<title>Node12&#45;&gt;Node13</title>
<g id="a_edge12_Node000012_Node000013"><a xlink:title=" ">
<path fill="none" stroke="#63b8ff" d="M814.49,-120.8C820.14,-112.76 827.33,-102.53 833.73,-93.43"/>
<polygon fill="#63b8ff" stroke="#63b8ff" points="836.65,-95.36 839.54,-85.16 830.93,-91.33 836.65,-95.36"/>
</a>
</g>
</g>
<!-- Node14&#45;&gt;Node7 -->
<g id="edge15_Node000014_Node000007" class="edge">
<title>Node14&#45;&gt;Node7</title>
<g id="a_edge15_Node000014_Node000007"><a xlink:title=" ">
<path fill="none" stroke="#63b8ff" d="M571.07,-120.8C562.43,-110.92 550.88,-97.72 541.84,-87.39"/>
<polygon fill="#63b8ff" stroke="#63b8ff" points="544.46,-85.07 535.24,-79.84 539.19,-89.67 544.46,-85.07"/>
</a>
</g>
</g>
<!-- Node14&#45;&gt;Node9 -->
<g id="edge14_Node000014_Node000009" class="edge">
<title>Node14&#45;&gt;Node9</title>
<g id="a_edge14_Node000014_Node000009"><a xlink:title=" ">
<path fill="none" stroke="#63b8ff" d="M583.82,-120.87C583.48,-103.42 580.35,-73.75 564.5,-55 546.13,-33.26 515.29,-21.91 491.77,-16.13"/>
<polygon fill="#63b8ff" stroke="#63b8ff" points="492.4,-12.68 481.88,-13.91 490.87,-19.51 492.4,-12.68"/>
</a>
</g>
</g>
<!-- Node15 -->
<g id="Node000015" class="node">
<title>Node15</title>
<g id="a_Node000015"><a xlink:title=" ">
<polygon fill="#e0e0e0" stroke="#999999" points="735,-85 612,-85 612,-55 735,-55 735,-85"/>
<text text-anchor="start" x="620" y="-73" font-family="Helvetica,sans-Serif" font-size="10.00">Thoth/Http/NHeaders</text>
<text text-anchor="middle" x="673.5" y="-62" font-family="Helvetica,sans-Serif" font-size="10.00">/Headers/Upgrade.tpp</text>
</a>
</g>
</g>
<!-- Node14&#45;&gt;Node15 -->
<g id="edge16_Node000014_Node000015" class="edge">
<title>Node14&#45;&gt;Node15</title>
<g id="a_edge16_Node000014_Node000015"><a xlink:title=" ">
<path fill="none" stroke="#63b8ff" d="M603.47,-120.8C615.71,-112.1 631.56,-100.82 645.09,-91.2"/>
<polygon fill="#63b8ff" stroke="#63b8ff" points="647.46,-93.81 653.58,-85.16 643.4,-88.11 647.46,-93.81"/>
</a>
</g>
</g>
<!-- Node17 -->
<g id="Node000017" class="node">
<title>Node17</title>
<g id="a_Node000017"><a xlink:title=" ">
<polygon fill="#e0e0e0" stroke="#999999" points="1157,-85 964,-85 964,-55 1157,-55 1157,-85"/>
<text text-anchor="start" x="972" y="-73" font-family="Helvetica,sans-Serif" font-size="10.00">Thoth/Http/NHeaders</text>
<text text-anchor="middle" x="1060.5" y="-62" font-family="Helvetica,sans-Serif" font-size="10.00">/Headers/TransferEncodingEnum.tpp</text>
</a>
</g>
</g>
<!-- Node16&#45;&gt;Node17 -->
<g id="edge18_Node000016_Node000017" class="edge">
<title>Node16&#45;&gt;Node17</title>
<g id="a_edge18_Node000016_Node000017"><a xlink:title=" ">
<path fill="none" stroke="#63b8ff" d="M1043.38,-120.8C1046,-113.17 1049.3,-103.57 1052.3,-94.84"/>
<polygon fill="#63b8ff" stroke="#63b8ff" points="1055.69,-95.76 1055.63,-85.16 1049.07,-93.48 1055.69,-95.76"/>
</a>
</g>
</g>
</g>
</svg>
