<?xml version="1.0" encoding="UTF-8" standalone="no"?>
<!DOCTYPE svg PUBLIC "-//W3C//DTD SVG 1.1//EN"
 "http://www.w3.org/Graphics/SVG/1.1/DTD/svg11.dtd">
<!-- Generated by graphviz version 2.43.0 (0)
 -->
<!-- Title: include/Thoth/Http/NHeaders/Headers/_pch.hpp Pages: 1 -->
<svg width="1204pt" height="225pt"
 viewBox="0.00 0.00 1203.50 225.00" xmlns="http://www.w3.org/2000/svg" xmlns:xlink="http://www.w3.org/1999/xlink">
<g id="graph0" class="graph" transform="scale(1 1) rotate(0) translate(4 221)">
<title>include/Thoth/Http/NHeaders/Headers/_pch.hpp</title>
<!-- Node1 -->
<g id="Node000001" class="node">
<title>Node1</title>
<g id="a_Node000001"><a xlink:title=" ">
<polygon fill="#999999" stroke="#666666" points="712,-217 554,-217 554,-187 712,-187 712,-217"/>
<text text-anchor="start" x="562" y="-205" font-family="Helvetica,sans-Serif" font-size="10.00">include/Thoth/Http</text>
<text text-anchor="middle" x="633" y="-194" font-family="Helvetica,sans-Serif" font-size="10.00">/NHeaders/Headers/_pch.hpp</text>
</a>
</g>
</g>
<!-- Node2 -->
<g id="Node000002" class="node">
<title>Node2</title>
<g id="a_Node000002"><a xlink:href="_cache_control_8hpp.html" target="_top" xlink:title=" ">
<polygon fill="white" stroke="#666666" points="209.5,-151 60.5,-151 60.5,-121 209.5,-121 209.5,-151"/>
<text text-anchor="start" x="68.5" y="-139" font-family="Helvetica,sans-Serif" font-size="10.00">Thoth/Http/NHeaders</text>
<text text-anchor="middle" x="135" y="-128" font-family="Helvetica,sans-Serif" font-size="10.00">/Headers/CacheControl.hpp</text>
</a>
</g>
</g>
<!-- Node1&#45;&gt;Node2 -->
<g id="edge1_Node000001_Node000002" class="edge">
<title>Node1&#45;&gt;Node2</title>
<g id="a_edge1_Node000001_Node000002"><a xlink:title=" ">
<path fill="none" stroke="#63b8ff" d="M553.82,-190.82C462.6,-179.1 313.3,-159.91 219.78,-147.9"/>
<polygon fill="#63b8ff" stroke="#63b8ff" points="220.15,-144.41 209.79,-146.61 219.26,-151.36 220.15,-144.41"/>
</a>
</g>
</g>
<!-- Node6 -->
<g id="Node000006" class="node">
<title>Node6</title>
<g id="a_Node000006"><a xlink:href="_mime_type_8hpp.html" target="_top" xlink:title=" ">
<polygon fill="white" stroke="#666666" points="552,-151 418,-151 418,-121 552,-121 552,-151"/>
<text text-anchor="start" x="426" y="-139" font-family="Helvetica,sans-Serif" font-size="10.00">Thoth/Http/NHeaders</text>
<text text-anchor="middle" x="485" y="-128" font-family="Helvetica,sans-Serif" font-size="10.00">/Headers/MimeType.hpp</text>
</a>
</g>
</g>
<!-- Node1&#45;&gt;Node6 -->
<g id="edge5_Node000001_Node000006" class="edge">
<title>Node1&#45;&gt;Node6</title>
<g id="a_edge5_Node000001_Node000006"><a xlink:title=" ">
<path fill="none" stroke="#63b8ff" d="M600.52,-186.95C578.83,-177.58 550.11,-165.16 526.73,-155.05"/>
<polygon fill="#63b8ff" stroke="#63b8ff" points="527.97,-151.77 517.4,-151.01 525.19,-158.19 527.97,-151.77"/>
</a>
</g>
</g>
<!-- Node12 -->
<g id="Node000012" class="node">
<title>Node12</title>
<g id="a_Node000012"><a xlink:href="_content_encoding_enum_8hpp.html" target="_top" xlink:title=" ">
<polygon fill="white" stroke="#666666" points="951,-151 757,-151 757,-121 951,-121 951,-151"/>
<text text-anchor="start" x="765" y="-139" font-family="Helvetica,sans-Serif" font-size="10.00">Thoth/Http/NHeaders</text>
<text text-anchor="middle" x="854" y="-128" font-family="Helvetica,sans-Serif" font-size="10.00">/Headers/ContentEncodingEnum.hpp</text>
</a>
</g>
</g>
<!-- Node1&#45;&gt;Node12 -->
<g id="edge12_Node000001_Node000012" class="edge">
<title>Node1&#45;&gt;Node12</title>
<g id="a_edge12_Node000001_Node000012"><a xlink:title=" ">
<path fill="none" stroke="#63b8ff" d="M681.5,-186.95C715.18,-177.2 760.22,-164.16 795.84,-153.84"/>
<polygon fill="#63b8ff" stroke="#63b8ff" points="796.98,-157.16 805.61,-151.01 795.03,-150.43 796.98,-157.16"/>
</a>
</g>
</g>
<!-- Node14 -->
<g id="Node000014" class="node">
<title>Node14</title>
<g id="a_Node000014"><a xlink:href="_upgrade_8hpp.html" target="_top" xlink:title=" ">
<polygon fill="white" stroke="#666666" points="695.5,-151 570.5,-151 570.5,-121 695.5,-121 695.5,-151"/>
<text text-anchor="start" x="578.5" y="-139" font-family="Helvetica,sans-Serif" font-size="10.00">Thoth/Http/NHeaders</text>
<text text-anchor="middle" x="633" y="-128" font-family="Helvetica,sans-Serif" font-size="10.00">/Headers/Upgrade.hpp</text>
</a>
</g>
</g>
<!-- Node1&#45;&gt;Node14 -->
<g id="edge14_Node000001_Node000014" class="edge">
<title>Node1&#45;&gt;Node14</title>
<g id="a_edge14_Node000001_Node000014"><a xlink:title=" ">
<path fill="none" stroke="#63b8ff" d="M633,-186.8C633,-179.34 633,-169.99 633,-161.41"/>
<polygon fill="#63b8ff" stroke="#63b8ff" points="636.5,-161.16 633,-151.16 629.5,-161.16 636.5,-161.16"/>
</a>
</g>
</g>
<!-- Node16 -->
<g id="Node000016" class="node">
<title>Node16</title>
<g id="a_Node000016"><a xlink:href="_transfer_encoding_enum_8hpp.html" target="_top" xlink:title=" ">
<polygon fill="white" stroke="#666666" points="1185.5,-151 990.5,-151 990.5,-121 1185.5,-121 1185.5,-151"/>
<text text-anchor="start" x="998.5" y="-139" font-family="Helvetica,sans-Serif" font-size="10.00">Thoth/Http/NHeaders</text>
<text text-anchor="middle" x="1088" y="-128" font-family="Helvetica,sans-Serif" font-size="10.00">/Headers/TransferEncodingEnum.hpp</text>
</a>
</g>
</g>
<!-- Node1&#45;&gt;Node16 -->
<g id="edge18_Node000001_Node000016" class="edge">
<title>Node1&#45;&gt;Node16</title>
<g id="a_edge18_Node000001_Node000016"><a xlink:title=" ">
<path fill="none" stroke="#63b8ff" d="M712.25,-189.85C786.44,-179.42 897.86,-163.74 980.12,-152.17"/>
<polygon fill="#63b8ff" stroke="#63b8ff" points="980.85,-155.61 990.26,-150.75 979.87,-148.68 980.85,-155.61"/>
</a>
</g>
</g>
<!-- Node3 -->
<g id="Node000003" class="node">
<title>Node3</title>
<g id="a_Node000003"><a xlink:title=" ">
<polygon fill="#e0e0e0" stroke="#999999" points="125.5,-79.5 74.5,-79.5 74.5,-60.5 125.5,-60.5 125.5,-79.5"/>
<text text-anchor="middle" x="100" y="-67.5" font-family="Helvetica,sans-Serif" font-size="10.00">variant</text>
</a>
</g>
</g>
<!-- Node2&#45;&gt;Node3 -->
<g id="edge2_Node000002_Node000003" class="edge">
<title>Node2&#45;&gt;Node3</title>
<g id="a_edge2_Node000002_Node000003"><a xlink:title=" ">
<path fill="none" stroke="#63b8ff" d="M127.23,-120.8C122.04,-111.31 115.18,-98.76 109.64,-88.63"/>
<polygon fill="#63b8ff" stroke="#63b8ff" points="112.71,-86.94 104.84,-79.84 106.56,-90.3 112.71,-86.94"/>
</a>
</g>
</g>
<!-- Node4 -->
<g id="Node000004" class="node">
<title>Node4</title>
<g id="a_Node000004"><a xlink:title=" ">
<polygon fill="#e0e0e0" stroke="#999999" points="194,-79.5 144,-79.5 144,-60.5 194,-60.5 194,-79.5"/>
<text text-anchor="middle" x="169" y="-67.5" font-family="Helvetica,sans-Serif" font-size="10.00">chrono</text>
</a>
</g>
</g>
<!-- Node2&#45;&gt;Node4 -->
<g id="edge3_Node000002_Node000004" class="edge">
<title>Node2&#45;&gt;Node4</title>
<g id="a_edge3_Node000002_Node000004"><a xlink:title=" ">
<path fill="none" stroke="#63b8ff" d="M142.55,-120.8C147.53,-111.41 154.12,-99.02 159.47,-88.95"/>
<polygon fill="#63b8ff" stroke="#63b8ff" points="162.7,-90.32 164.3,-79.84 156.52,-87.03 162.7,-90.32"/>
</a>
</g>
</g>
<!-- Node5 -->
<g id="Node000005" class="node">
<title>Node5</title>
<g id="a_Node000005"><a xlink:title=" ">
<polygon fill="#e0e0e0" stroke="#999999" points="56,-79.5 0,-79.5 0,-60.5 56,-60.5 56,-79.5"/>
<text text-anchor="middle" x="28" y="-67.5" font-family="Helvetica,sans-Serif" font-size="10.00">numeric</text>
</a>
</g>
</g>
<!-- Node2&#45;&gt;Node5 -->
<g id="edge4_Node000002_Node000005" class="edge">
<title>Node2&#45;&gt;Node5</title>
<g id="a_edge4_Node000002_Node000005"><a xlink:title=" ">
<path fill="none" stroke="#63b8ff" d="M111.52,-120.95C93.5,-110.18 68.76,-95.38 50.89,-84.69"/>
<polygon fill="#63b8ff" stroke="#63b8ff" points="52.62,-81.65 42.24,-79.52 49.03,-87.65 52.62,-81.65"/>
</a>
</g>
</g>
<!-- Node7 -->
<g id="Node000007" class="node">
<title>Node7</title>
<g id="a_Node000007"><a xlink:title=" ">
<polygon fill="#e0e0e0" stroke="#999999" points="532,-19 488,-19 488,0 532,0 532,-19"/>
<text text-anchor="middle" x="510" y="-7" font-family="Helvetica,sans-Serif" font-size="10.00">string</text>
</a>
</g>
</g>
<!-- Node6&#45;&gt;Node7 -->
<g id="edge6_Node000006_Node000007" class="edge">
<title>Node6&#45;&gt;Node7</title>
<g id="a_edge6_Node000006_Node000007"><a xlink:title=" ">
<path fill="none" stroke="#63b8ff" d="M487.87,-120.72C492.41,-98.12 501.24,-54.12 506.27,-29.09"/>
<polygon fill="#63b8ff" stroke="#63b8ff" points="509.74,-29.56 508.28,-19.07 502.88,-28.18 509.74,-29.56"/>
</a>
</g>
</g>
<!-- Node8 -->
<g id="Node000008" class="node">
<title>Node8</title>
<g id="a_Node000008"><a xlink:title=" ">
<polygon fill="#e0e0e0" stroke="#999999" points="594,-79.5 538,-79.5 538,-60.5 594,-60.5 594,-79.5"/>
<text text-anchor="middle" x="566" y="-67.5" font-family="Helvetica,sans-Serif" font-size="10.00">optional</text>
</a>
</g>
</g>
<!-- Node6&#45;&gt;Node8 -->
<g id="edge7_Node000006_Node000008" class="edge">
<title>Node6&#45;&gt;Node8</title>
<g id="a_edge7_Node000006_Node000008"><a xlink:title=" ">
<path fill="none" stroke="#63b8ff" d="M502.98,-120.8C515.98,-110.53 533.51,-96.67 546.79,-86.18"/>
<polygon fill="#63b8ff" stroke="#63b8ff" points="549.13,-88.79 554.81,-79.84 544.79,-83.3 549.13,-88.79"/>
</a>
</g>
</g>
<!-- Node9 -->
<g id="Node000009" class="node">
<title>Node9</title>
<g id="a_Node000009"><a xlink:href="_http_2_n_headers_2__base_8hpp.html" target="_top" xlink:title=" ">
<polygon fill="white" stroke="#666666" points="481.5,-85 362.5,-85 362.5,-55 481.5,-55 481.5,-85"/>
<text text-anchor="start" x="370.5" y="-73" font-family="Helvetica,sans-Serif" font-size="10.00">Thoth/Http/NHeaders</text>
<text text-anchor="middle" x="422" y="-62" font-family="Helvetica,sans-Serif" font-size="10.00">/_base.hpp</text>
</a>
</g>
</g>
<!-- Node6&#45;&gt;Node9 -->
<g id="edge8_Node000006_Node000009" class="edge">
<title>Node6&#45;&gt;Node9</title>
<g id="a_edge8_Node000006_Node000009"><a xlink:title=" ">
<path fill="none" stroke="#63b8ff" d="M471.02,-120.8C462.78,-112.43 452.2,-101.68 442.98,-92.31"/>
<polygon fill="#63b8ff" stroke="#63b8ff" points="445.45,-89.84 435.94,-85.16 440.46,-94.75 445.45,-89.84"/>
</a>
</g>
</g>
<!-- Node11 -->
<g id="Node000011" class="node">
<title>Node11</title>
<g id="a_Node000011"><a xlink:title=" ">
<polygon fill="#e0e0e0" stroke="#999999" points="344,-85 212,-85 212,-55 344,-55 344,-85"/>
<text text-anchor="start" x="220" y="-73" font-family="Helvetica,sans-Serif" font-size="10.00">Thoth/Http/NHeaders</text>
<text text-anchor="middle" x="278" y="-62" font-family="Helvetica,sans-Serif" font-size="10.00">/Headers/MimeType.tpp</text>
</a>
</g>
</g>
<!-- Node6&#45;&gt;Node11 -->
<g id="edge11_Node000006_Node000011" class="edge">
<title>Node6&#45;&gt;Node11</title>
<g id="a_edge11_Node000006_Node000011"><a xlink:title=" ">
<path fill="none" stroke="#63b8ff" d="M439.57,-120.95C408.16,-111.24 366.2,-98.27 332.91,-87.98"/>
<polygon fill="#63b8ff" stroke="#63b8ff" points="333.91,-84.62 323.32,-85.01 331.84,-91.31 333.91,-84.62"/>
</a>
</g>
</g>
<!-- Node9&#45;&gt;Node7 -->
<g id="edge9_Node000009_Node000007" class="edge">
<title>Node9&#45;&gt;Node7</title>
<g id="a_edge9_Node000009_Node000007"><a xlink:title=" ">
<path fill="none" stroke="#63b8ff" d="M443.3,-54.84C457.07,-45.68 474.93,-33.82 488.7,-24.66"/>
<polygon fill="#63b8ff" stroke="#63b8ff" points="490.68,-27.55 497.07,-19.09 486.81,-21.72 490.68,-27.55"/>
</a>
</g>
</g>
<!-- Node10 -->
<g id="Node000010" class="node">
<title>Node10</title>
<g id="a_Node000010"><a xlink:title=" ">
<polygon fill="#e0e0e0" stroke="#999999" points="445.5,-19 398.5,-19 398.5,0 445.5,0 445.5,-19"/>
<text text-anchor="middle" x="422" y="-7" font-family="Helvetica,sans-Serif" font-size="10.00">vector</text>
</a>
</g>
</g>
<!-- Node9&#45;&gt;Node10 -->
<g id="edge10_Node000009_Node000010" class="edge">
<title>Node9&#45;&gt;Node10</title>
<g id="a_edge10_Node000009_Node000010"><a xlink:title=" ">
<path fill="none" stroke="#63b8ff" d="M422,-54.84C422,-47.21 422,-37.7 422,-29.45"/>
<polygon fill="#63b8ff" stroke="#63b8ff" points="425.5,-29.27 422,-19.27 418.5,-29.27 425.5,-29.27"/>
</a>
</g>
</g>
<!-- Node13 -->
<g id="Node000013" class="node">
<title>Node13</title>
<g id="a_Node000013"><a xlink:title=" ">
<polygon fill="#e0e0e0" stroke="#999999" points="984,-85 792,-85 792,-55 984,-55 984,-85"/>
<text text-anchor="start" x="800" y="-73" font-family="Helvetica,sans-Serif" font-size="10.00">Thoth/Http/NHeaders</text>
<text text-anchor="middle" x="888" y="-62" font-family="Helvetica,sans-Serif" font-size="10.00">/Headers/ContentEncodingEnum.tpp</text>
</a>
</g>
</g>
<!-- Node12&#45;&gt;Node13 -->
<g id="edge13_Node000012_Node000013" class="edge">
<title>Node12&#45;&gt;Node13</title>
<g id="a_edge13_Node000012_Node000013"><a xlink:title=" ">
<path fill="none" stroke="#63b8ff" d="M861.55,-120.8C865.68,-113.01 870.92,-103.16 875.63,-94.28"/>
<polygon fill="#63b8ff" stroke="#63b8ff" points="878.87,-95.64 880.48,-85.16 872.69,-92.35 878.87,-95.64"/>
</a>
</g>
</g>
<!-- Node14&#45;&gt;Node7 -->
<g id="edge15_Node000014_Node000007" class="edge">
<title>Node14&#45;&gt;Node7</title>
<g id="a_edge15_Node000014_Node000007"><a xlink:title=" ">
<path fill="none" stroke="#63b8ff" d="M631,-120.89C627.85,-103.46 620.23,-73.81 603,-55 586.66,-37.16 561.65,-25.75 541.68,-18.96"/>
<polygon fill="#63b8ff" stroke="#63b8ff" points="542.64,-15.6 532.05,-15.9 540.52,-22.27 542.64,-15.6"/>
</a>
</g>
</g>
<!-- Node14&#45;&gt;Node8 -->
<g id="edge16_Node000014_Node000008" class="edge">
<title>Node14&#45;&gt;Node8</title>
<g id="a_edge16_Node000014_Node000008"><a xlink:title=" ">
<path fill="none" stroke="#63b8ff" d="M618.13,-120.8C607.58,-110.72 593.42,-97.19 582.52,-86.78"/>
<polygon fill="#63b8ff" stroke="#63b8ff" points="584.91,-84.22 575.26,-79.84 580.07,-89.28 584.91,-84.22"/>
</a>
</g>
</g>
<!-- Node15 -->
<g id="Node000015" class="node">
<title>Node15</title>
<g id="a_Node000015"><a xlink:title=" ">
<polygon fill="#e0e0e0" stroke="#999999" points="773.5,-85 650.5,-85 650.5,-55 773.5,-55 773.5,-85"/>
<text text-anchor="start" x="658.5" y="-73" font-family="Helvetica,sans-Serif" font-size="10.00">Thoth/Http/NHeaders</text>
<text text-anchor="middle" x="712" y="-62" font-family="Helvetica,sans-Serif" font-size="10.00">/Headers/Upgrade.tpp</text>
</a>
</g>
</g>
<!-- Node14&#45;&gt;Node15 -->
<g id="edge17_Node000014_Node000015" class="edge">
<title>Node14&#45;&gt;Node15</title>
<g id="a_edge17_Node000014_Node000015"><a xlink:title=" ">
<path fill="none" stroke="#63b8ff" d="M650.53,-120.8C661.17,-112.18 674.92,-101.04 686.72,-91.48"/>
<polygon fill="#63b8ff" stroke="#63b8ff" points="688.95,-94.18 694.52,-85.16 684.54,-88.74 688.95,-94.18"/>
</a>
</g>
</g>
<!-- Node17 -->
<g id="Node000017" class="node">
<title>Node17</title>
<g id="a_Node000017"><a xlink:title=" ">
<polygon fill="#e0e0e0" stroke="#999999" points="1195.5,-85 1002.5,-85 1002.5,-55 1195.5,-55 1195.5,-85"/>
<text text-anchor="start" x="1010.5" y="-73" font-family="Helvetica,sans-Serif" font-size="10.00">Thoth/Http/NHeaders</text>
<text text-anchor="middle" x="1099" y="-62" font-family="Helvetica,sans-Serif" font-size="10.00">/Headers/TransferEncodingEnum.tpp</text>
</a>
</g>
</g>
<!-- Node16&#45;&gt;Node17 -->
<g id="edge19_Node000016_Node000017" class="edge">
<title>Node16&#45;&gt;Node17</title>
<g id="a_edge19_Node000016_Node000017"><a xlink:title=" ">
<path fill="none" stroke="#63b8ff" d="M1090.44,-120.8C1091.74,-113.26 1093.37,-103.78 1094.85,-95.13"/>
<polygon fill="#63b8ff" stroke="#63b8ff" points="1098.32,-95.61 1096.57,-85.16 1091.42,-94.43 1098.32,-95.61"/>
</a>
</g>
</g>
</g>
</svg>
