<?xml version="1.0" encoding="UTF-8" standalone="no"?>
<!DOCTYPE svg PUBLIC "-//W3C//DTD SVG 1.1//EN"
 "http://www.w3.org/Graphics/SVG/1.1/DTD/svg11.dtd">
<!-- Generated by graphviz version 2.43.0 (0)
 -->
<!-- Title: include/Thoth/Http/NHeaders/Response/Headers/AcceptRanges.hpp Pages: 1 -->
<svg width="176pt" height="335pt"
 viewBox="0.00 0.00 176.00 335.00" xmlns="http://www.w3.org/2000/svg" xmlns:xlink="http://www.w3.org/1999/xlink">
<g id="graph0" class="graph" transform="scale(1 1) rotate(0) translate(4 331)">
<title>include/Thoth/Http/NHeaders/Response/Headers/AcceptRanges.hpp</title>
<!-- Node1 -->
<g id="Node000001" class="node">
<title>Node1</title>
<g id="a_Node000001"><a xlink:title=" ">
<polygon fill="#999999" stroke="#666666" points="164.5,-327 3.5,-327 3.5,-286 164.5,-286 164.5,-327"/>
<text text-anchor="start" x="11.5" y="-315" font-family="Helvetica,sans-Serif" font-size="10.00">include/Thoth/Http</text>
<text text-anchor="start" x="11.5" y="-304" font-family="Helvetica,sans-Serif" font-size="10.00">/NHeaders/Response/Headers</text>
<text text-anchor="middle" x="84" y="-293" font-family="Helvetica,sans-Serif" font-size="10.00">/AcceptRanges.hpp</text>
</a>
</g>
</g>
<!-- Node2 -->
<g id="Node000002" class="node">
<title>Node2</title>
<g id="a_Node000002"><a xlink:href="_response_2_headers_2__pch_8hpp.html" target="_top" xlink:title=" ">
<polygon fill="white" stroke="#666666" points="164.5,-250 3.5,-250 3.5,-209 164.5,-209 164.5,-250"/>
<text text-anchor="start" x="11.5" y="-238" font-family="Helvetica,sans-Serif" font-size="10.00">include/Thoth/Http</text>
<text text-anchor="start" x="11.5" y="-227" font-family="Helvetica,sans-Serif" font-size="10.00">/NHeaders/Response/Headers</text>
<text text-anchor="middle" x="84" y="-216" font-family="Helvetica,sans-Serif" font-size="10.00">/_pch.hpp</text>
</a>
</g>
</g>
<!-- Node1&#45;&gt;Node2 -->
<g id="edge1_Node000001_Node000002" class="edge">
<title>Node1&#45;&gt;Node2</title>
<g id="a_edge1_Node000001_Node000002"><a xlink:title=" ">
<path fill="none" stroke="#63b8ff" d="M84,-275.69C84,-267.08 84,-257.9 84,-250.07"/>
<polygon fill="#63b8ff" stroke="#63b8ff" points="80.5,-275.79 84,-285.79 87.5,-275.79 80.5,-275.79"/>
</a>
</g>
</g>
<!-- Node3 -->
<g id="Node000003" class="node">
<title>Node3</title>
<g id="a_Node000003"><a xlink:href="_response_headers_8hpp.html" target="_top" xlink:title=" ">
<polygon fill="white" stroke="#666666" points="168,-173 0,-173 0,-132 168,-132 168,-173"/>
<text text-anchor="start" x="8" y="-161" font-family="Helvetica,sans-Serif" font-size="10.00">include/Thoth/Http</text>
<text text-anchor="start" x="8" y="-150" font-family="Helvetica,sans-Serif" font-size="10.00">/NHeaders/Response/Response</text>
<text text-anchor="middle" x="84" y="-139" font-family="Helvetica,sans-Serif" font-size="10.00">Headers.hpp</text>
</a>
</g>
</g>
<!-- Node2&#45;&gt;Node3 -->
<g id="edge2_Node000002_Node000003" class="edge">
<title>Node2&#45;&gt;Node3</title>
<g id="a_edge2_Node000002_Node000003"><a xlink:title=" ">
<path fill="none" stroke="#63b8ff" d="M84,-198.69C84,-190.08 84,-180.9 84,-173.07"/>
<polygon fill="#63b8ff" stroke="#63b8ff" points="80.5,-198.79 84,-208.79 87.5,-198.79 80.5,-198.79"/>
</a>
</g>
</g>
<!-- Node4 -->
<g id="Node000004" class="node">
<title>Node4</title>
<g id="a_Node000004"><a xlink:href="_response_8hpp.html" target="_top" xlink:title=" ">
<polygon fill="white" stroke="#666666" points="153,-96 15,-96 15,-66 153,-66 153,-96"/>
<text text-anchor="start" x="23" y="-84" font-family="Helvetica,sans-Serif" font-size="10.00">include/Thoth/Http</text>
<text text-anchor="middle" x="84" y="-73" font-family="Helvetica,sans-Serif" font-size="10.00">/Response/Response.hpp</text>
</a>
</g>
</g>
<!-- Node3&#45;&gt;Node4 -->
<g id="edge3_Node000003_Node000004" class="edge">
<title>Node3&#45;&gt;Node4</title>
<g id="a_edge3_Node000003_Node000004"><a xlink:title=" ">
<path fill="none" stroke="#63b8ff" d="M84,-121.66C84,-112.76 84,-103.42 84,-96.04"/>
<polygon fill="#63b8ff" stroke="#63b8ff" points="80.5,-121.77 84,-131.77 87.5,-121.77 80.5,-121.77"/>
</a>
</g>
</g>
<!-- Node5 -->
<g id="Node000005" class="node">
<title>Node5</title>
<g id="a_Node000005"><a xlink:href="_client_8hpp.html" target="_top" xlink:title=" ">
<polygon fill="white" stroke="#666666" points="137.5,-30 30.5,-30 30.5,0 137.5,0 137.5,-30"/>
<text text-anchor="start" x="38.5" y="-18" font-family="Helvetica,sans-Serif" font-size="10.00">include/Thoth/Http</text>
<text text-anchor="middle" x="84" y="-7" font-family="Helvetica,sans-Serif" font-size="10.00">/Client.hpp</text>
</a>
</g>
</g>
<!-- Node4&#45;&gt;Node5 -->
<g id="edge4_Node000004_Node000005" class="edge">
<title>Node4&#45;&gt;Node5</title>
<g id="a_edge4_Node000004_Node000005"><a xlink:title=" ">
<path fill="none" stroke="#63b8ff" d="M84,-55.54C84,-46.96 84,-37.61 84,-30.16"/>
<polygon fill="#63b8ff" stroke="#63b8ff" points="80.5,-55.8 84,-65.8 87.5,-55.8 80.5,-55.8"/>
</a>
</g>
</g>
</g>
</svg>
