<?xml version="1.0" encoding="UTF-8" standalone="no"?>
<!DOCTYPE svg PUBLIC "-//W3C//DTD SVG 1.1//EN"
 "http://www.w3.org/Graphics/SVG/1.1/DTD/svg11.dtd">
<!-- Generated by graphviz version 2.43.0 (0)
 -->
<!-- Title: include/Thoth/Http/Client.hpp Pages: 1 -->
<svg width="864pt" height="489pt"
 viewBox="0.00 0.00 864.00 489.00" xmlns="http://www.w3.org/2000/svg" xmlns:xlink="http://www.w3.org/1999/xlink">
<g id="graph0" class="graph" transform="scale(1 1) rotate(0) translate(4 485)">
<title>include/Thoth/Http/Client.hpp</title>
<!-- Node1 -->
<g id="Node000001" class="node">
<title>Node1</title>
<g id="a_Node000001"><a xlink:title=" ">
<polygon fill="#999999" stroke="#666666" points="531,-481 424,-481 424,-451 531,-451 531,-481"/>
<text text-anchor="start" x="432" y="-469" font-family="Helvetica,sans-Serif" font-size="10.00">include/Thoth/Http</text>
<text text-anchor="middle" x="477.5" y="-458" font-family="Helvetica,sans-Serif" font-size="10.00">/Client.hpp</text>
</a>
</g>
</g>
<!-- Node2 -->
<g id="Node000002" class="node">
<title>Node2</title>
<g id="a_Node000002"><a xlink:title=" ">
<polygon fill="#e0e0e0" stroke="#999999" points="175,-343.5 0,-343.5 0,-324.5 175,-324.5 175,-343.5"/>
<text text-anchor="middle" x="87.5" y="-331.5" font-family="Helvetica,sans-Serif" font-size="10.00">Hermes/Socket/ClientSocket.hpp</text>
</a>
</g>
</g>
<!-- Node1&#45;&gt;Node2 -->
<g id="edge1_Node000001_Node000002" class="edge">
<title>Node1&#45;&gt;Node2</title>
<g id="a_edge1_Node000001_Node000002"><a xlink:title=" ">
<path fill="none" stroke="#63b8ff" d="M423.97,-457.04C377.11,-449.19 307.63,-435.38 249.5,-415 197.73,-396.84 141.08,-366.15 110.38,-348.53"/>
<polygon fill="#63b8ff" stroke="#63b8ff" points="112.13,-345.5 101.72,-343.51 108.62,-351.55 112.13,-345.5"/>
</a>
</g>
</g>
<!-- Node3 -->
<g id="Node000003" class="node">
<title>Node3</title>
<g id="a_Node000003"><a xlink:href="_request_8hpp.html" target="_top" xlink:title=" ">
<polygon fill="white" stroke="#666666" points="370,-415 259,-415 259,-385 370,-385 370,-415"/>
<text text-anchor="start" x="267" y="-403" font-family="Helvetica,sans-Serif" font-size="10.00">Thoth/Http/Request</text>
<text text-anchor="middle" x="314.5" y="-392" font-family="Helvetica,sans-Serif" font-size="10.00">/Request.hpp</text>
</a>
</g>
</g>
<!-- Node1&#45;&gt;Node3 -->
<g id="edge2_Node000001_Node000003" class="edge">
<title>Node1&#45;&gt;Node3</title>
<g id="a_edge2_Node000001_Node000003"><a xlink:title=" ">
<path fill="none" stroke="#63b8ff" d="M441.73,-450.95C417.63,-441.49 385.65,-428.93 359.77,-418.78"/>
<polygon fill="#63b8ff" stroke="#63b8ff" points="360.77,-415.41 350.19,-415.01 358.22,-421.93 360.77,-415.41"/>
</a>
</g>
</g>
<!-- Node28 -->
<g id="Node000028" class="node">
<title>Node28</title>
<g id="a_Node000028"><a xlink:title=" ">
<polygon fill="#e0e0e0" stroke="#999999" points="434.5,-409.5 388.5,-409.5 388.5,-390.5 434.5,-390.5 434.5,-409.5"/>
<text text-anchor="middle" x="411.5" y="-397.5" font-family="Helvetica,sans-Serif" font-size="10.00">future</text>
</a>
</g>
</g>
<!-- Node1&#45;&gt;Node28 -->
<g id="edge39_Node000001_Node000028" class="edge">
<title>Node1&#45;&gt;Node28</title>
<g id="a_edge39_Node000001_Node000028"><a xlink:title=" ">
<path fill="none" stroke="#63b8ff" d="M462.85,-450.8C452.56,-440.82 438.78,-427.46 428.09,-417.09"/>
<polygon fill="#63b8ff" stroke="#63b8ff" points="430.24,-414.29 420.62,-409.84 425.36,-419.32 430.24,-414.29"/>
</a>
</g>
</g>
<!-- Node29 -->
<g id="Node000029" class="node">
<title>Node29</title>
<g id="a_Node000029"><a xlink:title=" ">
<polygon fill="#e0e0e0" stroke="#999999" points="502.5,-409.5 452.5,-409.5 452.5,-390.5 502.5,-390.5 502.5,-409.5"/>
<text text-anchor="middle" x="477.5" y="-397.5" font-family="Helvetica,sans-Serif" font-size="10.00">chrono</text>
</a>
</g>
</g>
<!-- Node1&#45;&gt;Node29 -->
<g id="edge40_Node000001_Node000029" class="edge">
<title>Node1&#45;&gt;Node29</title>
<g id="a_edge40_Node000001_Node000029"><a xlink:title=" ">
<path fill="none" stroke="#63b8ff" d="M477.5,-450.8C477.5,-441.7 477.5,-429.79 477.5,-419.9"/>
<polygon fill="#63b8ff" stroke="#63b8ff" points="481,-419.84 477.5,-409.84 474,-419.84 481,-419.84"/>
</a>
</g>
</g>
<!-- Node30 -->
<g id="Node000030" class="node">
<title>Node30</title>
<g id="a_Node000030"><a xlink:title=" ">
<polygon fill="#e0e0e0" stroke="#999999" points="570.5,-409.5 520.5,-409.5 520.5,-390.5 570.5,-390.5 570.5,-409.5"/>
<text text-anchor="middle" x="545.5" y="-397.5" font-family="Helvetica,sans-Serif" font-size="10.00">atomic</text>
</a>
</g>
</g>
<!-- Node1&#45;&gt;Node30 -->
<g id="edge41_Node000001_Node000030" class="edge">
<title>Node1&#45;&gt;Node30</title>
<g id="a_edge41_Node000001_Node000030"><a xlink:title=" ">
<path fill="none" stroke="#63b8ff" d="M492.59,-450.8C503.3,-440.72 517.67,-427.19 528.73,-416.78"/>
<polygon fill="#63b8ff" stroke="#63b8ff" points="531.22,-419.25 536.1,-409.84 526.42,-414.15 531.22,-419.25"/>
</a>
</g>
</g>
<!-- Node31 -->
<g id="Node000031" class="node">
<title>Node31</title>
<g id="a_Node000031"><a xlink:title=" ">
<polygon fill="#e0e0e0" stroke="#999999" points="636.5,-409.5 588.5,-409.5 588.5,-390.5 636.5,-390.5 636.5,-409.5"/>
<text text-anchor="middle" x="612.5" y="-397.5" font-family="Helvetica,sans-Serif" font-size="10.00">mutex</text>
</a>
</g>
</g>
<!-- Node1&#45;&gt;Node31 -->
<g id="edge42_Node000001_Node000031" class="edge">
<title>Node1&#45;&gt;Node31</title>
<g id="a_edge42_Node000001_Node000031"><a xlink:title=" ">
<path fill="none" stroke="#63b8ff" d="M507.13,-450.95C530.49,-439.88 562.8,-424.56 585.47,-413.82"/>
<polygon fill="#63b8ff" stroke="#63b8ff" points="587,-416.96 594.53,-409.52 584,-410.64 587,-416.96"/>
</a>
</g>
</g>
<!-- Node32 -->
<g id="Node000032" class="node">
<title>Node32</title>
<g id="a_Node000032"><a xlink:title=" ">
<polygon fill="#e0e0e0" stroke="#999999" points="774,-409.5 655,-409.5 655,-390.5 774,-390.5 774,-409.5"/>
<text text-anchor="middle" x="714.5" y="-397.5" font-family="Helvetica,sans-Serif" font-size="10.00">Thoth/Http/Client.tpp</text>
</a>
</g>
</g>
<!-- Node1&#45;&gt;Node32 -->
<g id="edge43_Node000001_Node000032" class="edge">
<title>Node1&#45;&gt;Node32</title>
<g id="a_edge43_Node000001_Node000032"><a xlink:title=" ">
<path fill="none" stroke="#63b8ff" d="M529.51,-450.95C572.72,-439.29 633.37,-422.91 673.28,-412.13"/>
<polygon fill="#63b8ff" stroke="#63b8ff" points="674.22,-415.5 682.96,-409.52 672.39,-408.75 674.22,-415.5"/>
</a>
</g>
</g>
<!-- Node3&#45;&gt;Node2 -->
<g id="edge3_Node000003_Node000002" class="edge">
<title>Node3&#45;&gt;Node2</title>
<g id="a_edge3_Node000003_Node000002"><a xlink:title=" ">
<path fill="none" stroke="#63b8ff" d="M264.68,-384.95C223.47,-373.34 165.7,-357.05 127.46,-346.27"/>
<polygon fill="#63b8ff" stroke="#63b8ff" points="128.28,-342.86 117.71,-343.52 126.38,-349.6 128.28,-342.86"/>
</a>
</g>
</g>
<!-- Node4 -->
<g id="Node000004" class="node">
<title>Node4</title>
<g id="a_Node000004"><a xlink:href="_url_8hpp.html" target="_top" xlink:title=" ">
<polygon fill="white" stroke="#666666" points="650,-217 539,-217 539,-187 650,-187 650,-217"/>
<text text-anchor="start" x="547" y="-205" font-family="Helvetica,sans-Serif" font-size="10.00">Thoth/Http/Request</text>
<text text-anchor="middle" x="594.5" y="-194" font-family="Helvetica,sans-Serif" font-size="10.00">/Url.hpp</text>
</a>
</g>
</g>
<!-- Node3&#45;&gt;Node4 -->
<g id="edge4_Node000003_Node000004" class="edge">
<title>Node3&#45;&gt;Node4</title>
<g id="a_edge4_Node000003_Node000004"><a xlink:title=" ">
<path fill="none" stroke="#63b8ff" d="M370.15,-386.9C373.31,-386.25 376.44,-385.61 379.5,-385 466.36,-367.67 514.53,-413.24 575.5,-349 606.49,-316.35 603.83,-259.54 599.16,-227.25"/>
<polygon fill="#63b8ff" stroke="#63b8ff" points="602.6,-226.62 597.54,-217.31 595.69,-227.74 602.6,-226.62"/>
</a>
</g>
</g>
<!-- Node19 -->
<g id="Node000019" class="node">
<title>Node19</title>
<g id="a_Node000019"><a xlink:href="_get_method_8hpp.html" target="_top" xlink:title=" ">
<polygon fill="white" stroke="#666666" points="566,-349 453,-349 453,-319 566,-319 566,-349"/>
<text text-anchor="start" x="461" y="-337" font-family="Helvetica,sans-Serif" font-size="10.00">Thoth/Http/Methods</text>
<text text-anchor="middle" x="509.5" y="-326" font-family="Helvetica,sans-Serif" font-size="10.00">/GetMethod.hpp</text>
</a>
</g>
</g>
<!-- Node3&#45;&gt;Node19 -->
<g id="edge21_Node000003_Node000019" class="edge">
<title>Node3&#45;&gt;Node19</title>
<g id="a_edge21_Node000003_Node000019"><a xlink:title=" ">
<path fill="none" stroke="#63b8ff" d="M357.29,-384.95C386.63,-375.33 425.74,-362.49 456.97,-352.24"/>
<polygon fill="#63b8ff" stroke="#63b8ff" points="458.4,-355.46 466.81,-349.01 456.21,-348.81 458.4,-355.46"/>
</a>
</g>
</g>
<!-- Node26 -->
<g id="Node000026" class="node">
<title>Node26</title>
<g id="a_Node000026"><a xlink:href="_post_method_8hpp.html" target="_top" xlink:title=" ">
<polygon fill="white" stroke="#666666" points="306,-349 193,-349 193,-319 306,-319 306,-349"/>
<text text-anchor="start" x="201" y="-337" font-family="Helvetica,sans-Serif" font-size="10.00">Thoth/Http/Methods</text>
<text text-anchor="middle" x="249.5" y="-326" font-family="Helvetica,sans-Serif" font-size="10.00">/PostMethod.hpp</text>
</a>
</g>
</g>
<!-- Node3&#45;&gt;Node26 -->
<g id="edge36_Node000003_Node000026" class="edge">
<title>Node3&#45;&gt;Node26</title>
<g id="a_edge36_Node000003_Node000026"><a xlink:title=" ">
<path fill="none" stroke="#63b8ff" d="M300.07,-384.8C291.57,-376.43 280.66,-365.68 271.14,-356.31"/>
<polygon fill="#63b8ff" stroke="#63b8ff" points="273.47,-353.69 263.89,-349.16 268.56,-358.67 273.47,-353.69"/>
</a>
</g>
</g>
<!-- Node27 -->
<g id="Node000027" class="node">
<title>Node27</title>
<g id="a_Node000027"><a xlink:title=" ">
<polygon fill="#e0e0e0" stroke="#999999" points="435,-349 324,-349 324,-319 435,-319 435,-349"/>
<text text-anchor="start" x="332" y="-337" font-family="Helvetica,sans-Serif" font-size="10.00">Thoth/Http/Request</text>
<text text-anchor="middle" x="379.5" y="-326" font-family="Helvetica,sans-Serif" font-size="10.00">/Request.tpp</text>
</a>
</g>
</g>
<!-- Node3&#45;&gt;Node27 -->
<g id="edge38_Node000003_Node000027" class="edge">
<title>Node3&#45;&gt;Node27</title>
<g id="a_edge38_Node000003_Node000027"><a xlink:title=" ">
<path fill="none" stroke="#63b8ff" d="M328.93,-384.8C337.43,-376.43 348.34,-365.68 357.86,-356.31"/>
<polygon fill="#63b8ff" stroke="#63b8ff" points="360.44,-358.67 365.11,-349.16 355.53,-353.69 360.44,-358.67"/>
</a>
</g>
</g>
<!-- Node5 -->
<g id="Node000005" class="node">
<title>Node5</title>
<g id="a_Node000005"><a xlink:title=" ">
<polygon fill="#e0e0e0" stroke="#999999" points="400.5,-79.5 338.5,-79.5 338.5,-60.5 400.5,-60.5 400.5,-79.5"/>
<text text-anchor="middle" x="369.5" y="-67.5" font-family="Helvetica,sans-Serif" font-size="10.00">expected</text>
</a>
</g>
</g>
<!-- Node4&#45;&gt;Node5 -->
<g id="edge5_Node000004_Node000005" class="edge">
<title>Node4&#45;&gt;Node5</title>
<g id="a_edge5_Node000004_Node000005"><a xlink:title=" ">
<path fill="none" stroke="#63b8ff" d="M576.58,-186.99C547.69,-164.4 493.79,-122.33 491.5,-121 464.04,-105.11 430.55,-91.77 405.61,-82.87"/>
<polygon fill="#63b8ff" stroke="#63b8ff" points="406.76,-79.57 396.17,-79.57 404.45,-86.18 406.76,-79.57"/>
</a>
</g>
</g>
<!-- Node6 -->
<g id="Node000006" class="node">
<title>Node6</title>
<g id="a_Node000006"><a xlink:title=" ">
<polygon fill="#e0e0e0" stroke="#999999" points="789.5,-79.5 745.5,-79.5 745.5,-60.5 789.5,-60.5 789.5,-79.5"/>
<text text-anchor="middle" x="767.5" y="-67.5" font-family="Helvetica,sans-Serif" font-size="10.00">string</text>
</a>
</g>
</g>
<!-- Node4&#45;&gt;Node6 -->
<g id="edge6_Node000004_Node000006" class="edge">
<title>Node4&#45;&gt;Node6</title>
<g id="a_edge6_Node000004_Node000006"><a xlink:title=" ">
<path fill="none" stroke="#63b8ff" d="M629.3,-186.81C648.84,-178 673.11,-165.58 692.5,-151 717.25,-132.39 740.82,-105.14 754.73,-87.73"/>
<polygon fill="#63b8ff" stroke="#63b8ff" points="757.66,-89.66 761.07,-79.63 752.15,-85.34 757.66,-89.66"/>
</a>
</g>
</g>
<!-- Node7 -->
<g id="Node000007" class="node">
<title>Node7</title>
<g id="a_Node000007"><a xlink:href="_query_params_8hpp.html" target="_top" xlink:title=" ">
<polygon fill="white" stroke="#666666" points="650,-151 539,-151 539,-121 650,-121 650,-151"/>
<text text-anchor="start" x="547" y="-139" font-family="Helvetica,sans-Serif" font-size="10.00">Thoth/Http/Request</text>
<text text-anchor="middle" x="594.5" y="-128" font-family="Helvetica,sans-Serif" font-size="10.00">/QueryParams.hpp</text>
</a>
</g>
</g>
<!-- Node4&#45;&gt;Node7 -->
<g id="edge7_Node000004_Node000007" class="edge">
<title>Node4&#45;&gt;Node7</title>
<g id="a_edge7_Node000004_Node000007"><a xlink:title=" ">
<path fill="none" stroke="#63b8ff" d="M594.5,-186.8C594.5,-179.34 594.5,-169.99 594.5,-161.41"/>
<polygon fill="#63b8ff" stroke="#63b8ff" points="598,-161.16 594.5,-151.16 591,-161.16 598,-161.16"/>
</a>
</g>
</g>
<!-- Node18 -->
<g id="Node000018" class="node">
<title>Node18</title>
<g id="a_Node000018"><a xlink:title=" ">
<polygon fill="#e0e0e0" stroke="#999999" points="856,-151 745,-151 745,-121 856,-121 856,-151"/>
<text text-anchor="start" x="753" y="-139" font-family="Helvetica,sans-Serif" font-size="10.00">Thoth/Http/Request</text>
<text text-anchor="middle" x="800.5" y="-128" font-family="Helvetica,sans-Serif" font-size="10.00">/Url.tpp</text>
</a>
</g>
</g>
<!-- Node4&#45;&gt;Node18 -->
<g id="edge20_Node000004_Node000018" class="edge">
<title>Node4&#45;&gt;Node18</title>
<g id="a_edge20_Node000004_Node000018"><a xlink:title=" ">
<path fill="none" stroke="#63b8ff" d="M639.71,-186.95C670.83,-177.28 712.37,-164.38 745.43,-154.11"/>
<polygon fill="#63b8ff" stroke="#63b8ff" points="746.89,-157.32 755.4,-151.01 744.81,-150.64 746.89,-157.32"/>
</a>
</g>
</g>
<!-- Node7&#45;&gt;Node6 -->
<g id="edge11_Node000007_Node000006" class="edge">
<title>Node7&#45;&gt;Node6</title>
<g id="a_edge11_Node000007_Node000006"><a xlink:title=" ">
<path fill="none" stroke="#63b8ff" d="M637.42,-120.96C665.77,-111.42 703.63,-98.18 736.5,-85 737.67,-84.53 738.86,-84.04 740.06,-83.54"/>
<polygon fill="#63b8ff" stroke="#63b8ff" points="741.47,-86.74 749.25,-79.55 738.69,-80.32 741.47,-86.74"/>
</a>
</g>
</g>
<!-- Node8 -->
<g id="Node000008" class="node">
<title>Node8</title>
<g id="a_Node000008"><a xlink:title=" ">
<polygon fill="#e0e0e0" stroke="#999999" points="320.5,-79.5 264.5,-79.5 264.5,-60.5 320.5,-60.5 320.5,-79.5"/>
<text text-anchor="middle" x="292.5" y="-67.5" font-family="Helvetica,sans-Serif" font-size="10.00">optional</text>
</a>
</g>
</g>
<!-- Node7&#45;&gt;Node8 -->
<g id="edge8_Node000007_Node000008" class="edge">
<title>Node7&#45;&gt;Node8</title>
<g id="a_edge8_Node000007_Node000008"><a xlink:title=" ">
<path fill="none" stroke="#63b8ff" d="M538.78,-127.39C484.7,-119.33 400.6,-104.99 329.5,-85 327.35,-84.4 325.15,-83.72 322.95,-83"/>
<polygon fill="#63b8ff" stroke="#63b8ff" points="324.01,-79.66 313.42,-79.64 321.69,-86.27 324.01,-79.66"/>
</a>
</g>
</g>
<!-- Node9 -->
<g id="Node000009" class="node">
<title>Node9</title>
<g id="a_Node000009"><a xlink:title=" ">
<polygon fill="#e0e0e0" stroke="#999999" points="206.5,-79.5 156.5,-79.5 156.5,-60.5 206.5,-60.5 206.5,-79.5"/>
<text text-anchor="middle" x="181.5" y="-67.5" font-family="Helvetica,sans-Serif" font-size="10.00">format</text>
</a>
</g>
</g>
<!-- Node7&#45;&gt;Node9 -->
<g id="edge9_Node000007_Node000009" class="edge">
<title>Node7&#45;&gt;Node9</title>
<g id="a_edge9_Node000007_Node000009"><a xlink:title=" ">
<path fill="none" stroke="#63b8ff" d="M538.9,-127.5C471.66,-118.28 355.09,-101.76 255.5,-85 242.81,-82.86 228.93,-80.3 216.67,-77.95"/>
<polygon fill="#63b8ff" stroke="#63b8ff" points="217.28,-74.51 206.8,-76.05 215.95,-81.38 217.28,-74.51"/>
</a>
</g>
</g>
<!-- Node10 -->
<g id="Node000010" class="node">
<title>Node10</title>
<g id="a_Node000010"><a xlink:title=" ">
<polygon fill="#e0e0e0" stroke="#999999" points="338,-19 291,-19 291,0 338,0 338,-19"/>
<text text-anchor="middle" x="314.5" y="-7" font-family="Helvetica,sans-Serif" font-size="10.00">vector</text>
</a>
</g>
</g>
<!-- Node7&#45;&gt;Node10 -->
<g id="edge10_Node000007_Node000010" class="edge">
<title>Node7&#45;&gt;Node10</title>
<g id="a_edge10_Node000007_Node000010"><a xlink:title=" ">
<path fill="none" stroke="#63b8ff" d="M540.04,-120.95C511.81,-112.55 477.3,-100.46 448.5,-85 429.23,-74.65 428.18,-66.37 409.5,-55 389.1,-42.58 364.67,-31.21 345.69,-23.07"/>
<polygon fill="#63b8ff" stroke="#63b8ff" points="346.89,-19.77 336.32,-19.12 344.17,-26.23 346.89,-19.77"/>
</a>
</g>
</g>
<!-- Node11 -->
<g id="Node000011" class="node">
<title>Node11</title>
<g id="a_Node000011"><a xlink:href="_linear_map_8hpp.html" target="_top" xlink:title=" ">
<polygon fill="white" stroke="#666666" points="598,-79.5 457,-79.5 457,-60.5 598,-60.5 598,-79.5"/>
<text text-anchor="middle" x="527.5" y="-67.5" font-family="Helvetica,sans-Serif" font-size="10.00">Thoth/Dsa/LinearMap.hpp</text>
</a>
</g>
</g>
<!-- Node7&#45;&gt;Node11 -->
<g id="edge12_Node000007_Node000011" class="edge">
<title>Node7&#45;&gt;Node11</title>
<g id="a_edge12_Node000007_Node000011"><a xlink:title=" ">
<path fill="none" stroke="#63b8ff" d="M579.63,-120.8C569.08,-110.72 554.92,-97.19 544.02,-86.78"/>
<polygon fill="#63b8ff" stroke="#63b8ff" points="546.41,-84.22 536.76,-79.84 541.57,-89.28 546.41,-84.22"/>
</a>
</g>
</g>
<!-- Node17 -->
<g id="Node000017" class="node">
<title>Node17</title>
<g id="a_Node000017"><a xlink:title=" ">
<polygon fill="#e0e0e0" stroke="#999999" points="727,-85 616,-85 616,-55 727,-55 727,-85"/>
<text text-anchor="start" x="624" y="-73" font-family="Helvetica,sans-Serif" font-size="10.00">Thoth/Http/Request</text>
<text text-anchor="middle" x="671.5" y="-62" font-family="Helvetica,sans-Serif" font-size="10.00">/QueryParams.tpp</text>
</a>
</g>
</g>
<!-- Node7&#45;&gt;Node17 -->
<g id="edge19_Node000007_Node000017" class="edge">
<title>Node7&#45;&gt;Node17</title>
<g id="a_edge19_Node000007_Node000017"><a xlink:title=" ">
<path fill="none" stroke="#63b8ff" d="M611.59,-120.8C621.86,-112.26 635.1,-101.25 646.53,-91.75"/>
<polygon fill="#63b8ff" stroke="#63b8ff" points="649.01,-94.25 654.46,-85.16 644.53,-88.86 649.01,-94.25"/>
</a>
</g>
</g>
<!-- Node11&#45;&gt;Node10 -->
<g id="edge13_Node000011_Node000010" class="edge">
<title>Node11&#45;&gt;Node10</title>
<g id="a_edge13_Node000011_Node000010"><a xlink:title=" ">
<path fill="none" stroke="#63b8ff" d="M496.53,-60.49C456.96,-49.63 388.73,-30.89 347.99,-19.7"/>
<polygon fill="#63b8ff" stroke="#63b8ff" points="348.83,-16.3 338.26,-17.03 346.98,-23.05 348.83,-16.3"/>
</a>
</g>
</g>
<!-- Node12 -->
<g id="Node000012" class="node">
<title>Node12</title>
<g id="a_Node000012"><a xlink:title=" ">
<polygon fill="#e0e0e0" stroke="#999999" points="718,-19 673,-19 673,0 718,0 718,-19"/>
<text text-anchor="middle" x="695.5" y="-7" font-family="Helvetica,sans-Serif" font-size="10.00">utility</text>
</a>
</g>
</g>
<!-- Node11&#45;&gt;Node12 -->
<g id="edge14_Node000011_Node000012" class="edge">
<title>Node11&#45;&gt;Node12</title>
<g id="a_edge14_Node000011_Node000012"><a xlink:title=" ">
<path fill="none" stroke="#63b8ff" d="M551.93,-60.49C581.37,-50.24 630.93,-32.98 663.43,-21.67"/>
<polygon fill="#63b8ff" stroke="#63b8ff" points="664.63,-24.95 672.93,-18.36 662.33,-18.34 664.63,-24.95"/>
</a>
</g>
</g>
<!-- Node13 -->
<g id="Node000013" class="node">
<title>Node13</title>
<g id="a_Node000013"><a xlink:title=" ">
<polygon fill="#e0e0e0" stroke="#999999" points="796.5,-19 736.5,-19 736.5,0 796.5,0 796.5,-19"/>
<text text-anchor="middle" x="766.5" y="-7" font-family="Helvetica,sans-Serif" font-size="10.00">concepts</text>
</a>
</g>
</g>
<!-- Node11&#45;&gt;Node13 -->
<g id="edge15_Node000011_Node000013" class="edge">
<title>Node11&#45;&gt;Node13</title>
<g id="a_edge15_Node000011_Node000013"><a xlink:title=" ">
<path fill="none" stroke="#63b8ff" d="M562.25,-60.49C605.82,-49.83 680.36,-31.58 726.33,-20.33"/>
<polygon fill="#63b8ff" stroke="#63b8ff" points="727.37,-23.68 736.25,-17.9 725.7,-16.88 727.37,-23.68"/>
</a>
</g>
</g>
<!-- Node14 -->
<g id="Node000014" class="node">
<title>Node14</title>
<g id="a_Node000014"><a xlink:title=" ">
<polygon fill="#e0e0e0" stroke="#999999" points="421,-19 356,-19 356,0 421,0 421,-19"/>
<text text-anchor="middle" x="388.5" y="-7" font-family="Helvetica,sans-Serif" font-size="10.00">functional</text>
</a>
</g>
</g>
<!-- Node11&#45;&gt;Node14 -->
<g id="edge16_Node000011_Node000014" class="edge">
<title>Node11&#45;&gt;Node14</title>
<g id="a_edge16_Node000011_Node000014"><a xlink:title=" ">
<path fill="none" stroke="#63b8ff" d="M507.29,-60.49C483.82,-50.62 444.89,-34.23 418.04,-22.93"/>
<polygon fill="#63b8ff" stroke="#63b8ff" points="419.31,-19.67 408.74,-19.02 416.6,-26.12 419.31,-19.67"/>
</a>
</g>
</g>
<!-- Node15 -->
<g id="Node000015" class="node">
<title>Node15</title>
<g id="a_Node000015"><a xlink:title=" ">
<polygon fill="#e0e0e0" stroke="#999999" points="498,-19 439,-19 439,0 498,0 498,-19"/>
<text text-anchor="middle" x="468.5" y="-7" font-family="Helvetica,sans-Serif" font-size="10.00">compare</text>
</a>
</g>
</g>
<!-- Node11&#45;&gt;Node15 -->
<g id="edge17_Node000011_Node000015" class="edge">
<title>Node11&#45;&gt;Node15</title>
<g id="a_edge17_Node000011_Node000015"><a xlink:title=" ">
<path fill="none" stroke="#63b8ff" d="M518.79,-60.37C509.82,-51.47 495.62,-37.39 484.59,-26.45"/>
<polygon fill="#63b8ff" stroke="#63b8ff" points="486.81,-23.72 477.24,-19.17 481.88,-28.69 486.81,-23.72"/>
</a>
</g>
</g>
<!-- Node16 -->
<g id="Node000016" class="node">
<title>Node16</title>
<g id="a_Node000016"><a xlink:title=" ">
<polygon fill="#e0e0e0" stroke="#999999" points="655,-19 516,-19 516,0 655,0 655,-19"/>
<text text-anchor="middle" x="585.5" y="-7" font-family="Helvetica,sans-Serif" font-size="10.00">Thoth/Dsa/LinearMap.tpp</text>
</a>
</g>
</g>
<!-- Node11&#45;&gt;Node16 -->
<g id="edge18_Node000011_Node000016" class="edge">
<title>Node11&#45;&gt;Node16</title>
<g id="a_edge18_Node000011_Node000016"><a xlink:title=" ">
<path fill="none" stroke="#63b8ff" d="M536.06,-60.37C544.88,-51.47 558.84,-37.39 569.68,-26.45"/>
<polygon fill="#63b8ff" stroke="#63b8ff" points="572.35,-28.73 576.91,-19.17 567.38,-23.8 572.35,-28.73"/>
</a>
</g>
</g>
<!-- Node20 -->
<g id="Node000020" class="node">
<title>Node20</title>
<g id="a_Node000020"><a xlink:href="_method_concept_8hpp.html" target="_top" xlink:title=" ">
<polygon fill="white" stroke="#666666" points="462,-283 313,-283 313,-253 462,-253 462,-283"/>
<text text-anchor="start" x="321" y="-271" font-family="Helvetica,sans-Serif" font-size="10.00">Thoth/Http/Methods</text>
<text text-anchor="middle" x="387.5" y="-260" font-family="Helvetica,sans-Serif" font-size="10.00">/_base/MethodConcept.hpp</text>
</a>
</g>
</g>
<!-- Node19&#45;&gt;Node20 -->
<g id="edge22_Node000019_Node000020" class="edge">
<title>Node19&#45;&gt;Node20</title>
<g id="a_edge22_Node000019_Node000020"><a xlink:title=" ">
<path fill="none" stroke="#63b8ff" d="M482.73,-318.95C465.25,-309.78 442.22,-297.71 423.19,-287.72"/>
<polygon fill="#63b8ff" stroke="#63b8ff" points="424.69,-284.56 414.21,-283.01 421.44,-290.76 424.69,-284.56"/>
</a>
</g>
</g>
<!-- Node20&#45;&gt;Node4 -->
<g id="edge26_Node000020_Node000004" class="edge">
<title>Node20&#45;&gt;Node4</title>
<g id="a_edge26_Node000020_Node000004"><a xlink:title=" ">
<path fill="none" stroke="#63b8ff" d="M432.93,-252.95C464.34,-243.24 506.3,-230.27 539.59,-219.98"/>
<polygon fill="#63b8ff" stroke="#63b8ff" points="540.66,-223.31 549.18,-217.01 538.59,-216.62 540.66,-223.31"/>
</a>
</g>
</g>
<!-- Node21 -->
<g id="Node000021" class="node">
<title>Node21</title>
<g id="a_Node000021"><a xlink:href="_status_code_enum_8hpp.html" target="_top" xlink:title=" ">
<polygon fill="white" stroke="#666666" points="482.5,-151 358.5,-151 358.5,-121 482.5,-121 482.5,-151"/>
<text text-anchor="start" x="366.5" y="-139" font-family="Helvetica,sans-Serif" font-size="10.00">Thoth/Http/Response</text>
<text text-anchor="middle" x="420.5" y="-128" font-family="Helvetica,sans-Serif" font-size="10.00">/StatusCodeEnum.hpp</text>
</a>
</g>
</g>
<!-- Node20&#45;&gt;Node21 -->
<g id="edge23_Node000020_Node000021" class="edge">
<title>Node20&#45;&gt;Node21</title>
<g id="a_edge23_Node000020_Node000021"><a xlink:title=" ">
<path fill="none" stroke="#63b8ff" d="M391.29,-252.57C393.9,-242.59 397.44,-228.99 400.5,-217 405.27,-198.29 410.57,-177.09 414.51,-161.21"/>
<polygon fill="#63b8ff" stroke="#63b8ff" points="417.99,-161.72 417,-151.17 411.2,-160.04 417.99,-161.72"/>
</a>
</g>
</g>
<!-- Node22 -->
<g id="Node000022" class="node">
<title>Node22</title>
<g id="a_Node000022"><a xlink:href="_headers_8hpp.html" target="_top" xlink:title=" ">
<polygon fill="white" stroke="#666666" points="267,-211.5 134,-211.5 134,-192.5 267,-192.5 267,-211.5"/>
<text text-anchor="middle" x="200.5" y="-199.5" font-family="Helvetica,sans-Serif" font-size="10.00">Thoth/Http/Headers.hpp</text>
</a>
</g>
</g>
<!-- Node20&#45;&gt;Node22 -->
<g id="edge27_Node000020_Node000022" class="edge">
<title>Node20&#45;&gt;Node22</title>
<g id="a_edge27_Node000020_Node000022"><a xlink:title=" ">
<path fill="none" stroke="#63b8ff" d="M346.46,-252.95C313.09,-241.53 266.53,-225.6 235.04,-214.82"/>
<polygon fill="#63b8ff" stroke="#63b8ff" points="235.98,-211.44 225.39,-211.52 233.71,-218.07 235.98,-211.44"/>
</a>
</g>
</g>
<!-- Node25 -->
<g id="Node000025" class="node">
<title>Node25</title>
<g id="a_Node000025"><a xlink:title=" ">
<polygon fill="#e0e0e0" stroke="#999999" points="392,-211.5 319,-211.5 319,-192.5 392,-192.5 392,-211.5"/>
<text text-anchor="middle" x="355.5" y="-199.5" font-family="Helvetica,sans-Serif" font-size="10.00">string_view</text>
</a>
</g>
</g>
<!-- Node20&#45;&gt;Node25 -->
<g id="edge35_Node000020_Node000025" class="edge">
<title>Node20&#45;&gt;Node25</title>
<g id="a_edge35_Node000020_Node000025"><a xlink:title=" ">
<path fill="none" stroke="#63b8ff" d="M380.4,-252.8C375.7,-243.41 369.51,-231.02 364.47,-220.95"/>
<polygon fill="#63b8ff" stroke="#63b8ff" points="367.52,-219.22 359.92,-211.84 361.26,-222.35 367.52,-219.22"/>
</a>
</g>
</g>
<!-- Node21&#45;&gt;Node5 -->
<g id="edge24_Node000021_Node000005" class="edge">
<title>Node21&#45;&gt;Node5</title>
<g id="a_edge24_Node000021_Node000005"><a xlink:title=" ">
<path fill="none" stroke="#63b8ff" d="M409.18,-120.8C401.39,-111.01 391,-97.98 382.81,-87.7"/>
<polygon fill="#63b8ff" stroke="#63b8ff" points="385.52,-85.48 376.55,-79.84 380.04,-89.85 385.52,-85.48"/>
</a>
</g>
</g>
<!-- Node21&#45;&gt;Node8 -->
<g id="edge25_Node000021_Node000008" class="edge">
<title>Node21&#45;&gt;Node8</title>
<g id="a_edge25_Node000021_Node000008"><a xlink:title=" ">
<path fill="none" stroke="#63b8ff" d="M392.41,-120.95C370.46,-109.98 340.17,-94.83 318.71,-84.11"/>
<polygon fill="#63b8ff" stroke="#63b8ff" points="320.04,-80.86 309.53,-79.52 316.91,-87.12 320.04,-80.86"/>
</a>
</g>
</g>
<!-- Node22&#45;&gt;Node6 -->
<g id="edge32_Node000022_Node000006" class="edge">
<title>Node22&#45;&gt;Node6</title>
<g id="a_edge32_Node000022_Node000006"><a xlink:title=" ">
<path fill="none" stroke="#63b8ff" d="M264.73,-192.48C279.43,-190.6 295,-188.68 309.5,-187 464.84,-169.04 516.72,-214.79 659.5,-151 677.6,-142.91 676.88,-133.2 692.5,-121 709.25,-107.92 729.34,-94.65 744.51,-85.07"/>
<polygon fill="#63b8ff" stroke="#63b8ff" points="746.61,-87.88 753.24,-79.61 742.9,-81.94 746.61,-87.88"/>
</a>
</g>
</g>
<!-- Node22&#45;&gt;Node8 -->
<g id="edge29_Node000022_Node000008" class="edge">
<title>Node22&#45;&gt;Node8</title>
<g id="a_edge29_Node000022_Node000008"><a xlink:title=" ">
<path fill="none" stroke="#63b8ff" d="M183.31,-192.49C156.86,-178.25 111.27,-148.47 131.5,-121 146.13,-101.13 211.32,-85.75 254.13,-77.56"/>
<polygon fill="#63b8ff" stroke="#63b8ff" points="255.03,-80.95 264.22,-75.68 253.75,-74.07 255.03,-80.95"/>
</a>
</g>
</g>
<!-- Node22&#45;&gt;Node9 -->
<g id="edge30_Node000022_Node000009" class="edge">
<title>Node22&#45;&gt;Node9</title>
<g id="a_edge30_Node000022_Node000009"><a xlink:title=" ">
<path fill="none" stroke="#63b8ff" d="M160.81,-192.48C138.36,-185.41 112.12,-172.84 98.5,-151 91.45,-139.69 91.94,-132.61 98.5,-121 108.83,-102.71 128.84,-90.37 146.61,-82.52"/>
<polygon fill="#63b8ff" stroke="#63b8ff" points="148.25,-85.63 156.19,-78.61 145.61,-79.15 148.25,-85.63"/>
</a>
</g>
</g>
<!-- Node22&#45;&gt;Node10 -->
<g id="edge31_Node000022_Node000010" class="edge">
<title>Node22&#45;&gt;Node10</title>
<g id="a_edge31_Node000022_Node000010"><a xlink:title=" ">
<path fill="none" stroke="#63b8ff" d="M154.03,-192.47C130.43,-185.53 103.78,-173.1 89.5,-151 82.26,-139.8 84.8,-133.48 89.5,-121 103.27,-84.46 114.31,-75.58 147.5,-55 188.98,-29.28 245.18,-18.28 280.64,-13.67"/>
<polygon fill="#63b8ff" stroke="#63b8ff" points="281.42,-17.1 290.94,-12.44 280.59,-10.15 281.42,-17.1"/>
</a>
</g>
</g>
<!-- Node22&#45;&gt;Node21 -->
<g id="edge28_Node000022_Node000021" class="edge">
<title>Node22&#45;&gt;Node21</title>
<g id="a_edge28_Node000022_Node000021"><a xlink:title=" ">
<path fill="none" stroke="#63b8ff" d="M230.17,-192.37C263.9,-182.56 319.79,-166.3 362.3,-153.93"/>
<polygon fill="#63b8ff" stroke="#63b8ff" points="363.35,-157.27 371.98,-151.12 361.4,-150.55 363.35,-157.27"/>
</a>
</g>
</g>
<!-- Node23 -->
<g id="Node000023" class="node">
<title>Node23</title>
<g id="a_Node000023"><a xlink:title=" ">
<polygon fill="#e0e0e0" stroke="#999999" points="190.5,-145.5 140.5,-145.5 140.5,-126.5 190.5,-126.5 190.5,-145.5"/>
<text text-anchor="middle" x="165.5" y="-133.5" font-family="Helvetica,sans-Serif" font-size="10.00">ranges</text>
</a>
</g>
</g>
<!-- Node22&#45;&gt;Node23 -->
<g id="edge33_Node000022_Node000023" class="edge">
<title>Node22&#45;&gt;Node23</title>
<g id="a_edge33_Node000022_Node000023"><a xlink:title=" ">
<path fill="none" stroke="#63b8ff" d="M195.78,-192.37C190.54,-182.78 181.93,-167.05 175.23,-154.8"/>
<polygon fill="#63b8ff" stroke="#63b8ff" points="178.24,-153 170.37,-145.91 172.1,-156.36 178.24,-153"/>
</a>
</g>
</g>
<!-- Node24 -->
<g id="Node000024" class="node">
<title>Node24</title>
<g id="a_Node000024"><a xlink:title=" ">
<polygon fill="#e0e0e0" stroke="#999999" points="340,-145.5 209,-145.5 209,-126.5 340,-126.5 340,-145.5"/>
<text text-anchor="middle" x="274.5" y="-133.5" font-family="Helvetica,sans-Serif" font-size="10.00">Thoth/Http/Headers.tpp</text>
</a>
</g>
</g>
<!-- Node22&#45;&gt;Node24 -->
<g id="edge34_Node000022_Node000024" class="edge">
<title>Node22&#45;&gt;Node24</title>
<g id="a_edge34_Node000022_Node000024"><a xlink:title=" ">
<path fill="none" stroke="#63b8ff" d="M210.48,-192.37C222.22,-182.21 241.94,-165.16 256.4,-152.65"/>
<polygon fill="#63b8ff" stroke="#63b8ff" points="258.93,-155.09 264.2,-145.91 254.35,-149.8 258.93,-155.09"/>
</a>
</g>
</g>
<!-- Node26&#45;&gt;Node20 -->
<g id="edge37_Node000026_Node000020" class="edge">
<title>Node26&#45;&gt;Node20</title>
<g id="a_edge37_Node000026_Node000020"><a xlink:title=" ">
<path fill="none" stroke="#63b8ff" d="M279.78,-318.95C299.83,-309.66 326.31,-297.38 348.01,-287.32"/>
<polygon fill="#63b8ff" stroke="#63b8ff" points="349.69,-290.39 357.29,-283.01 346.74,-284.04 349.69,-290.39"/>
</a>
</g>
</g>
</g>
</svg>
