<?xml version="1.0" encoding="UTF-8" standalone="no"?>
<!DOCTYPE svg PUBLIC "-//W3C//DTD SVG 1.1//EN"
 "http://www.w3.org/Graphics/SVG/1.1/DTD/svg11.dtd">
<!-- Generated by graphviz version 2.43.0 (0)
 -->
<!-- Title: include/Thoth/Http/Client.hpp Pages: 1 -->
<svg width="966pt" height="489pt"
 viewBox="0.00 0.00 965.50 489.00" xmlns="http://www.w3.org/2000/svg" xmlns:xlink="http://www.w3.org/1999/xlink">
<g id="graph0" class="graph" transform="scale(1 1) rotate(0) translate(4 485)">
<title>include/Thoth/Http/Client.hpp</title>
<!-- Node1 -->
<g id="Node000001" class="node">
<title>Node1</title>
<g id="a_Node000001"><a xlink:title=" ">
<polygon fill="#999999" stroke="#666666" points="530,-481 423,-481 423,-451 530,-451 530,-481"/>
<text text-anchor="start" x="431" y="-469" font-family="Helvetica,sans-Serif" font-size="10.00">include/Thoth/Http</text>
<text text-anchor="middle" x="476.5" y="-458" font-family="Helvetica,sans-Serif" font-size="10.00">/Client.hpp</text>
</a>
</g>
</g>
<!-- Node2 -->
<g id="Node000002" class="node">
<title>Node2</title>
<g id="a_Node000002"><a xlink:title=" ">
<polygon fill="#e0e0e0" stroke="#999999" points="175,-343.5 0,-343.5 0,-324.5 175,-324.5 175,-343.5"/>
<text text-anchor="middle" x="87.5" y="-331.5" font-family="Helvetica,sans-Serif" font-size="10.00">Hermes/Socket/ClientSocket.hpp</text>
</a>
</g>
</g>
<!-- Node1&#45;&gt;Node2 -->
<g id="edge1_Node000001_Node000002" class="edge">
<title>Node1&#45;&gt;Node2</title>
<g id="a_edge1_Node000001_Node000002"><a xlink:title=" ">
<path fill="none" stroke="#63b8ff" d="M422.95,-457.08C376.09,-449.25 306.6,-435.46 248.5,-415 197.23,-396.95 141.21,-366.43 110.63,-348.77"/>
<polygon fill="#63b8ff" stroke="#63b8ff" points="112.03,-345.53 101.63,-343.52 108.5,-351.58 112.03,-345.53"/>
</a>
</g>
</g>
<!-- Node3 -->
<g id="Node000003" class="node">
<title>Node3</title>
<g id="a_Node000003"><a xlink:href="_request_8hpp.html" target="_top" xlink:title=" ">
<polygon fill="white" stroke="#666666" points="369,-415 258,-415 258,-385 369,-385 369,-415"/>
<text text-anchor="start" x="266" y="-403" font-family="Helvetica,sans-Serif" font-size="10.00">Thoth/Http/Request</text>
<text text-anchor="middle" x="313.5" y="-392" font-family="Helvetica,sans-Serif" font-size="10.00">/Request.hpp</text>
</a>
</g>
</g>
<!-- Node1&#45;&gt;Node3 -->
<g id="edge2_Node000001_Node000003" class="edge">
<title>Node1&#45;&gt;Node3</title>
<g id="a_edge2_Node000001_Node000003"><a xlink:title=" ">
<path fill="none" stroke="#63b8ff" d="M440.73,-450.95C416.63,-441.49 384.65,-428.93 358.77,-418.78"/>
<polygon fill="#63b8ff" stroke="#63b8ff" points="359.77,-415.41 349.19,-415.01 357.22,-421.93 359.77,-415.41"/>
</a>
</g>
</g>
<!-- Node28 -->
<g id="Node000028" class="node">
<title>Node28</title>
<g id="a_Node000028"><a xlink:title=" ">
<polygon fill="#e0e0e0" stroke="#999999" points="433.5,-409.5 387.5,-409.5 387.5,-390.5 433.5,-390.5 433.5,-409.5"/>
<text text-anchor="middle" x="410.5" y="-397.5" font-family="Helvetica,sans-Serif" font-size="10.00">future</text>
</a>
</g>
</g>
<!-- Node1&#45;&gt;Node28 -->
<g id="edge39_Node000001_Node000028" class="edge">
<title>Node1&#45;&gt;Node28</title>
<g id="a_edge39_Node000001_Node000028"><a xlink:title=" ">
<path fill="none" stroke="#63b8ff" d="M461.85,-450.8C451.56,-440.82 437.78,-427.46 427.09,-417.09"/>
<polygon fill="#63b8ff" stroke="#63b8ff" points="429.24,-414.29 419.62,-409.84 424.36,-419.32 429.24,-414.29"/>
</a>
</g>
</g>
<!-- Node29 -->
<g id="Node000029" class="node">
<title>Node29</title>
<g id="a_Node000029"><a xlink:title=" ">
<polygon fill="#e0e0e0" stroke="#999999" points="501.5,-409.5 451.5,-409.5 451.5,-390.5 501.5,-390.5 501.5,-409.5"/>
<text text-anchor="middle" x="476.5" y="-397.5" font-family="Helvetica,sans-Serif" font-size="10.00">chrono</text>
</a>
</g>
</g>
<!-- Node1&#45;&gt;Node29 -->
<g id="edge40_Node000001_Node000029" class="edge">
<title>Node1&#45;&gt;Node29</title>
<g id="a_edge40_Node000001_Node000029"><a xlink:title=" ">
<path fill="none" stroke="#63b8ff" d="M476.5,-450.8C476.5,-441.7 476.5,-429.79 476.5,-419.9"/>
<polygon fill="#63b8ff" stroke="#63b8ff" points="480,-419.84 476.5,-409.84 473,-419.84 480,-419.84"/>
</a>
</g>
</g>
<!-- Node30 -->
<g id="Node000030" class="node">
<title>Node30</title>
<g id="a_Node000030"><a xlink:title=" ">
<polygon fill="#e0e0e0" stroke="#999999" points="569.5,-409.5 519.5,-409.5 519.5,-390.5 569.5,-390.5 569.5,-409.5"/>
<text text-anchor="middle" x="544.5" y="-397.5" font-family="Helvetica,sans-Serif" font-size="10.00">atomic</text>
</a>
</g>
</g>
<!-- Node1&#45;&gt;Node30 -->
<g id="edge41_Node000001_Node000030" class="edge">
<title>Node1&#45;&gt;Node30</title>
<g id="a_edge41_Node000001_Node000030"><a xlink:title=" ">
<path fill="none" stroke="#63b8ff" d="M491.59,-450.8C502.3,-440.72 516.67,-427.19 527.73,-416.78"/>
<polygon fill="#63b8ff" stroke="#63b8ff" points="530.22,-419.25 535.1,-409.84 525.42,-414.15 530.22,-419.25"/>
</a>
</g>
</g>
<!-- Node31 -->
<g id="Node000031" class="node">
<title>Node31</title>
<g id="a_Node000031"><a xlink:title=" ">
<polygon fill="#e0e0e0" stroke="#999999" points="635.5,-409.5 587.5,-409.5 587.5,-390.5 635.5,-390.5 635.5,-409.5"/>
<text text-anchor="middle" x="611.5" y="-397.5" font-family="Helvetica,sans-Serif" font-size="10.00">mutex</text>
</a>
</g>
</g>
<!-- Node1&#45;&gt;Node31 -->
<g id="edge42_Node000001_Node000031" class="edge">
<title>Node1&#45;&gt;Node31</title>
<g id="a_edge42_Node000001_Node000031"><a xlink:title=" ">
<path fill="none" stroke="#63b8ff" d="M506.13,-450.95C529.49,-439.88 561.8,-424.56 584.47,-413.82"/>
<polygon fill="#63b8ff" stroke="#63b8ff" points="586,-416.96 593.53,-409.52 583,-410.64 586,-416.96"/>
</a>
</g>
</g>
<!-- Node32 -->
<g id="Node000032" class="node">
<title>Node32</title>
<g id="a_Node000032"><a xlink:title=" ">
<polygon fill="#e0e0e0" stroke="#999999" points="773,-409.5 654,-409.5 654,-390.5 773,-390.5 773,-409.5"/>
<text text-anchor="middle" x="713.5" y="-397.5" font-family="Helvetica,sans-Serif" font-size="10.00">Thoth/Http/Client.tpp</text>
</a>
</g>
</g>
<!-- Node1&#45;&gt;Node32 -->
<g id="edge43_Node000001_Node000032" class="edge">
<title>Node1&#45;&gt;Node32</title>
<g id="a_edge43_Node000001_Node000032"><a xlink:title=" ">
<path fill="none" stroke="#63b8ff" d="M528.51,-450.95C571.72,-439.29 632.37,-422.91 672.28,-412.13"/>
<polygon fill="#63b8ff" stroke="#63b8ff" points="673.22,-415.5 681.96,-409.52 671.39,-408.75 673.22,-415.5"/>
</a>
</g>
</g>
<!-- Node3&#45;&gt;Node2 -->
<g id="edge3_Node000003_Node000002" class="edge">
<title>Node3&#45;&gt;Node2</title>
<g id="a_edge3_Node000003_Node000002"><a xlink:title=" ">
<path fill="none" stroke="#63b8ff" d="M263.9,-384.95C222.87,-373.34 165.35,-357.05 127.29,-346.27"/>
<polygon fill="#63b8ff" stroke="#63b8ff" points="128.15,-342.87 117.58,-343.52 126.24,-349.61 128.15,-342.87"/>
</a>
</g>
</g>
<!-- Node4 -->
<g id="Node000004" class="node">
<title>Node4</title>
<g id="a_Node000004"><a xlink:href="_url_8hpp.html" target="_top" xlink:title=" ">
<polygon fill="white" stroke="#666666" points="731,-217 620,-217 620,-187 731,-187 731,-217"/>
<text text-anchor="start" x="628" y="-205" font-family="Helvetica,sans-Serif" font-size="10.00">Thoth/Http/Request</text>
<text text-anchor="middle" x="675.5" y="-194" font-family="Helvetica,sans-Serif" font-size="10.00">/Url.hpp</text>
</a>
</g>
</g>
<!-- Node3&#45;&gt;Node4 -->
<g id="edge4_Node000003_Node000004" class="edge">
<title>Node3&#45;&gt;Node4</title>
<g id="a_edge4_Node000003_Node000004"><a xlink:title=" ">
<path fill="none" stroke="#63b8ff" d="M369.15,-386.89C372.31,-386.24 375.44,-385.61 378.5,-385 465.79,-367.63 500.83,-397.44 575.5,-349 621.51,-319.15 651.98,-259.93 666.21,-226.82"/>
<polygon fill="#63b8ff" stroke="#63b8ff" points="669.5,-228.02 670.1,-217.44 663.04,-225.33 669.5,-228.02"/>
</a>
</g>
</g>
<!-- Node18 -->
<g id="Node000018" class="node">
<title>Node18</title>
<g id="a_Node000018"><a xlink:href="_get_method_8hpp.html" target="_top" xlink:title=" ">
<polygon fill="white" stroke="#666666" points="566,-349 453,-349 453,-319 566,-319 566,-349"/>
<text text-anchor="start" x="461" y="-337" font-family="Helvetica,sans-Serif" font-size="10.00">Thoth/Http/Methods</text>
<text text-anchor="middle" x="509.5" y="-326" font-family="Helvetica,sans-Serif" font-size="10.00">/GetMethod.hpp</text>
</a>
</g>
</g>
<!-- Node3&#45;&gt;Node18 -->
<g id="edge21_Node000003_Node000018" class="edge">
<title>Node3&#45;&gt;Node18</title>
<g id="a_edge21_Node000003_Node000018"><a xlink:title=" ">
<path fill="none" stroke="#63b8ff" d="M356.51,-384.95C386,-375.33 425.31,-362.49 456.7,-352.24"/>
<polygon fill="#63b8ff" stroke="#63b8ff" points="458.17,-355.44 466.59,-349.01 455.99,-348.79 458.17,-355.44"/>
</a>
</g>
</g>
<!-- Node26 -->
<g id="Node000026" class="node">
<title>Node26</title>
<g id="a_Node000026"><a xlink:href="_post_method_8hpp.html" target="_top" xlink:title=" ">
<polygon fill="white" stroke="#666666" points="435,-349 322,-349 322,-319 435,-319 435,-349"/>
<text text-anchor="start" x="330" y="-337" font-family="Helvetica,sans-Serif" font-size="10.00">Thoth/Http/Methods</text>
<text text-anchor="middle" x="378.5" y="-326" font-family="Helvetica,sans-Serif" font-size="10.00">/PostMethod.hpp</text>
</a>
</g>
</g>
<!-- Node3&#45;&gt;Node26 -->
<g id="edge36_Node000003_Node000026" class="edge">
<title>Node3&#45;&gt;Node26</title>
<g id="a_edge36_Node000003_Node000026"><a xlink:title=" ">
<path fill="none" stroke="#63b8ff" d="M327.93,-384.8C336.43,-376.43 347.34,-365.68 356.86,-356.31"/>
<polygon fill="#63b8ff" stroke="#63b8ff" points="359.44,-358.67 364.11,-349.16 354.53,-353.69 359.44,-358.67"/>
</a>
</g>
</g>
<!-- Node27 -->
<g id="Node000027" class="node">
<title>Node27</title>
<g id="a_Node000027"><a xlink:title=" ">
<polygon fill="#e0e0e0" stroke="#999999" points="304,-349 193,-349 193,-319 304,-319 304,-349"/>
<text text-anchor="start" x="201" y="-337" font-family="Helvetica,sans-Serif" font-size="10.00">Thoth/Http/Request</text>
<text text-anchor="middle" x="248.5" y="-326" font-family="Helvetica,sans-Serif" font-size="10.00">/Request.tpp</text>
</a>
</g>
</g>
<!-- Node3&#45;&gt;Node27 -->
<g id="edge38_Node000003_Node000027" class="edge">
<title>Node3&#45;&gt;Node27</title>
<g id="a_edge38_Node000003_Node000027"><a xlink:title=" ">
<path fill="none" stroke="#63b8ff" d="M299.07,-384.8C290.57,-376.43 279.66,-365.68 270.14,-356.31"/>
<polygon fill="#63b8ff" stroke="#63b8ff" points="272.47,-353.69 262.89,-349.16 267.56,-358.67 272.47,-353.69"/>
</a>
</g>
</g>
<!-- Node5 -->
<g id="Node000005" class="node">
<title>Node5</title>
<g id="a_Node000005"><a xlink:title=" ">
<polygon fill="#e0e0e0" stroke="#999999" points="500.5,-79.5 438.5,-79.5 438.5,-60.5 500.5,-60.5 500.5,-79.5"/>
<text text-anchor="middle" x="469.5" y="-67.5" font-family="Helvetica,sans-Serif" font-size="10.00">expected</text>
</a>
</g>
</g>
<!-- Node4&#45;&gt;Node5 -->
<g id="edge5_Node000004_Node000005" class="edge">
<title>Node4&#45;&gt;Node5</title>
<g id="a_edge5_Node000004_Node000005"><a xlink:title=" ">
<path fill="none" stroke="#63b8ff" d="M653.06,-186.84C613.38,-161.8 531.3,-110 491.76,-85.04"/>
<polygon fill="#63b8ff" stroke="#63b8ff" points="493.43,-81.96 483.11,-79.59 489.7,-87.88 493.43,-81.96"/>
</a>
</g>
</g>
<!-- Node6 -->
<g id="Node000006" class="node">
<title>Node6</title>
<g id="a_Node000006"><a xlink:title=" ">
<polygon fill="#e0e0e0" stroke="#999999" points="957.5,-79.5 913.5,-79.5 913.5,-60.5 957.5,-60.5 957.5,-79.5"/>
<text text-anchor="middle" x="935.5" y="-67.5" font-family="Helvetica,sans-Serif" font-size="10.00">string</text>
</a>
</g>
</g>
<!-- Node4&#45;&gt;Node6 -->
<g id="edge6_Node000004_Node000006" class="edge">
<title>Node4&#45;&gt;Node6</title>
<g id="a_edge6_Node000004_Node000006"><a xlink:title=" ">
<path fill="none" stroke="#63b8ff" d="M731.1,-196.99C795.66,-191.13 896.64,-177.88 922.5,-151 938.01,-134.88 939.27,-107.92 938,-89.81"/>
<polygon fill="#63b8ff" stroke="#63b8ff" points="941.48,-89.44 936.98,-79.85 934.51,-90.15 941.48,-89.44"/>
</a>
</g>
</g>
<!-- Node7 -->
<g id="Node000007" class="node">
<title>Node7</title>
<g id="a_Node000007"><a xlink:href="_query_params_8hpp.html" target="_top" xlink:title=" ">
<polygon fill="white" stroke="#666666" points="745,-151 634,-151 634,-121 745,-121 745,-151"/>
<text text-anchor="start" x="642" y="-139" font-family="Helvetica,sans-Serif" font-size="10.00">Thoth/Http/Request</text>
<text text-anchor="middle" x="689.5" y="-128" font-family="Helvetica,sans-Serif" font-size="10.00">/QueryParams.hpp</text>
</a>
</g>
</g>
<!-- Node4&#45;&gt;Node7 -->
<g id="edge7_Node000004_Node000007" class="edge">
<title>Node4&#45;&gt;Node7</title>
<g id="a_edge7_Node000004_Node000007"><a xlink:title=" ">
<path fill="none" stroke="#63b8ff" d="M678.61,-186.8C680.26,-179.26 682.33,-169.78 684.22,-161.13"/>
<polygon fill="#63b8ff" stroke="#63b8ff" points="687.68,-161.68 686.4,-151.16 680.85,-160.19 687.68,-161.68"/>
</a>
</g>
</g>
<!-- Node17 -->
<g id="Node000017" class="node">
<title>Node17</title>
<g id="a_Node000017"><a xlink:title=" ">
<polygon fill="#e0e0e0" stroke="#999999" points="913,-151 802,-151 802,-121 913,-121 913,-151"/>
<text text-anchor="start" x="810" y="-139" font-family="Helvetica,sans-Serif" font-size="10.00">Thoth/Http/Request</text>
<text text-anchor="middle" x="857.5" y="-128" font-family="Helvetica,sans-Serif" font-size="10.00">/Url.tpp</text>
</a>
</g>
</g>
<!-- Node4&#45;&gt;Node17 -->
<g id="edge20_Node000004_Node000017" class="edge">
<title>Node4&#45;&gt;Node17</title>
<g id="a_edge20_Node000004_Node000017"><a xlink:title=" ">
<path fill="none" stroke="#63b8ff" d="M715.44,-186.95C742.7,-177.37 779.01,-164.6 808.09,-154.37"/>
<polygon fill="#63b8ff" stroke="#63b8ff" points="809.38,-157.63 817.65,-151.01 807.06,-151.03 809.38,-157.63"/>
</a>
</g>
</g>
<!-- Node7&#45;&gt;Node5 -->
<g id="edge8_Node000007_Node000005" class="edge">
<title>Node7&#45;&gt;Node5</title>
<g id="a_edge8_Node000007_Node000005"><a xlink:title=" ">
<path fill="none" stroke="#63b8ff" d="M635.27,-120.93C599.41,-111.38 551.43,-98.15 509.5,-85 507.25,-84.29 504.93,-83.55 502.61,-82.78"/>
<polygon fill="#63b8ff" stroke="#63b8ff" points="503.7,-79.45 493.1,-79.55 501.45,-86.08 503.7,-79.45"/>
</a>
</g>
</g>
<!-- Node7&#45;&gt;Node6 -->
<g id="edge11_Node000007_Node000006" class="edge">
<title>Node7&#45;&gt;Node6</title>
<g id="a_edge11_Node000007_Node000006"><a xlink:title=" ">
<path fill="none" stroke="#63b8ff" d="M745.28,-123.33C798.74,-111.9 875.46,-94.83 904.5,-85 905.9,-84.53 907.32,-84.01 908.75,-83.47"/>
<polygon fill="#63b8ff" stroke="#63b8ff" points="910.15,-86.68 918.04,-79.61 907.46,-80.21 910.15,-86.68"/>
</a>
</g>
</g>
<!-- Node8 -->
<g id="Node000008" class="node">
<title>Node8</title>
<g id="a_Node000008"><a xlink:title=" ">
<polygon fill="#e0e0e0" stroke="#999999" points="568.5,-79.5 518.5,-79.5 518.5,-60.5 568.5,-60.5 568.5,-79.5"/>
<text text-anchor="middle" x="543.5" y="-67.5" font-family="Helvetica,sans-Serif" font-size="10.00">format</text>
</a>
</g>
</g>
<!-- Node7&#45;&gt;Node8 -->
<g id="edge9_Node000007_Node000008" class="edge">
<title>Node7&#45;&gt;Node8</title>
<g id="a_edge9_Node000007_Node000008"><a xlink:title=" ">
<path fill="none" stroke="#63b8ff" d="M657.46,-120.95C632.08,-109.83 596.94,-94.42 572.41,-83.67"/>
<polygon fill="#63b8ff" stroke="#63b8ff" points="573.49,-80.33 562.93,-79.52 570.68,-86.74 573.49,-80.33"/>
</a>
</g>
</g>
<!-- Node9 -->
<g id="Node000009" class="node">
<title>Node9</title>
<g id="a_Node000009"><a xlink:title=" ">
<polygon fill="#e0e0e0" stroke="#999999" points="476,-19 429,-19 429,0 476,0 476,-19"/>
<text text-anchor="middle" x="452.5" y="-7" font-family="Helvetica,sans-Serif" font-size="10.00">vector</text>
</a>
</g>
</g>
<!-- Node7&#45;&gt;Node9 -->
<g id="edge10_Node000007_Node000009" class="edge">
<title>Node7&#45;&gt;Node9</title>
<g id="a_edge10_Node000007_Node000009"><a xlink:title=" ">
<path fill="none" stroke="#63b8ff" d="M668.2,-120.86C653.53,-111.01 633.65,-97.46 616.5,-85 598.81,-72.15 596.7,-65.46 577.5,-55 548.03,-38.95 511.63,-26.75 485.72,-19.23"/>
<polygon fill="#63b8ff" stroke="#63b8ff" points="486.58,-15.83 476,-16.48 484.67,-22.57 486.58,-15.83"/>
</a>
</g>
</g>
<!-- Node10 -->
<g id="Node000010" class="node">
<title>Node10</title>
<g id="a_Node000010"><a xlink:href="_linear_map_8hpp.html" target="_top" xlink:title=" ">
<polygon fill="white" stroke="#666666" points="766,-79.5 625,-79.5 625,-60.5 766,-60.5 766,-79.5"/>
<text text-anchor="middle" x="695.5" y="-67.5" font-family="Helvetica,sans-Serif" font-size="10.00">Thoth/Dsa/LinearMap.hpp</text>
</a>
</g>
</g>
<!-- Node7&#45;&gt;Node10 -->
<g id="edge12_Node000007_Node000010" class="edge">
<title>Node7&#45;&gt;Node10</title>
<g id="a_edge12_Node000007_Node000010"><a xlink:title=" ">
<path fill="none" stroke="#63b8ff" d="M690.83,-120.8C691.68,-111.7 692.8,-99.79 693.73,-89.9"/>
<polygon fill="#63b8ff" stroke="#63b8ff" points="697.22,-90.13 694.67,-79.84 690.25,-89.47 697.22,-90.13"/>
</a>
</g>
</g>
<!-- Node16 -->
<g id="Node000016" class="node">
<title>Node16</title>
<g id="a_Node000016"><a xlink:title=" ">
<polygon fill="#e0e0e0" stroke="#999999" points="895,-85 784,-85 784,-55 895,-55 895,-85"/>
<text text-anchor="start" x="792" y="-73" font-family="Helvetica,sans-Serif" font-size="10.00">Thoth/Http/Request</text>
<text text-anchor="middle" x="839.5" y="-62" font-family="Helvetica,sans-Serif" font-size="10.00">/QueryParams.tpp</text>
</a>
</g>
</g>
<!-- Node7&#45;&gt;Node16 -->
<g id="edge19_Node000007_Node000016" class="edge">
<title>Node7&#45;&gt;Node16</title>
<g id="a_edge19_Node000007_Node000016"><a xlink:title=" ">
<path fill="none" stroke="#63b8ff" d="M722.42,-120.95C744.4,-111.58 773.51,-99.16 797.21,-89.05"/>
<polygon fill="#63b8ff" stroke="#63b8ff" points="798.83,-92.16 806.66,-85.01 796.09,-85.72 798.83,-92.16"/>
</a>
</g>
</g>
<!-- Node10&#45;&gt;Node9 -->
<g id="edge13_Node000010_Node000009" class="edge">
<title>Node10&#45;&gt;Node9</title>
<g id="a_edge13_Node000010_Node000009"><a xlink:title=" ">
<path fill="none" stroke="#63b8ff" d="M658.65,-60.44C618.65,-51.1 552.63,-35.55 486.1,-19.11"/>
<polygon fill="#63b8ff" stroke="#63b8ff" points="486.83,-15.69 476.28,-16.68 485.14,-22.48 486.83,-15.69"/>
</a>
</g>
</g>
<!-- Node11 -->
<g id="Node000011" class="node">
<title>Node11</title>
<g id="a_Node000011"><a xlink:title=" ">
<polygon fill="#e0e0e0" stroke="#999999" points="773,-19 728,-19 728,0 773,0 773,-19"/>
<text text-anchor="middle" x="750.5" y="-7" font-family="Helvetica,sans-Serif" font-size="10.00">utility</text>
</a>
</g>
</g>
<!-- Node10&#45;&gt;Node11 -->
<g id="edge14_Node000010_Node000011" class="edge">
<title>Node10&#45;&gt;Node11</title>
<g id="a_edge14_Node000010_Node000011"><a xlink:title=" ">
<path fill="none" stroke="#63b8ff" d="M703.62,-60.37C711.9,-51.55 724.97,-37.66 735.2,-26.77"/>
<polygon fill="#63b8ff" stroke="#63b8ff" points="738.05,-28.85 742.35,-19.17 732.95,-24.06 738.05,-28.85"/>
</a>
</g>
</g>
<!-- Node12 -->
<g id="Node000012" class="node">
<title>Node12</title>
<g id="a_Node000012"><a xlink:title=" ">
<polygon fill="#e0e0e0" stroke="#999999" points="851.5,-19 791.5,-19 791.5,0 851.5,0 851.5,-19"/>
<text text-anchor="middle" x="821.5" y="-7" font-family="Helvetica,sans-Serif" font-size="10.00">concepts</text>
</a>
</g>
</g>
<!-- Node10&#45;&gt;Node12 -->
<g id="edge15_Node000010_Node000012" class="edge">
<title>Node10&#45;&gt;Node12</title>
<g id="a_edge15_Node000010_Node000012"><a xlink:title=" ">
<path fill="none" stroke="#63b8ff" d="M713.82,-60.49C734.91,-50.7 769.76,-34.52 794.08,-23.23"/>
<polygon fill="#63b8ff" stroke="#63b8ff" points="795.56,-26.4 803.16,-19.02 792.61,-20.05 795.56,-26.4"/>
</a>
</g>
</g>
<!-- Node13 -->
<g id="Node000013" class="node">
<title>Node13</title>
<g id="a_Node000013"><a xlink:title=" ">
<polygon fill="#e0e0e0" stroke="#999999" points="935,-19 870,-19 870,0 935,0 935,-19"/>
<text text-anchor="middle" x="902.5" y="-7" font-family="Helvetica,sans-Serif" font-size="10.00">functional</text>
</a>
</g>
</g>
<!-- Node10&#45;&gt;Node13 -->
<g id="edge16_Node000010_Node000013" class="edge">
<title>Node10&#45;&gt;Node13</title>
<g id="a_edge16_Node000010_Node000013"><a xlink:title=" ">
<path fill="none" stroke="#63b8ff" d="M725.6,-60.49C761.78,-50.27 822.61,-33.08 862.66,-21.76"/>
<polygon fill="#63b8ff" stroke="#63b8ff" points="863.69,-25.1 872.36,-19.02 861.79,-18.37 863.69,-25.1"/>
</a>
</g>
</g>
<!-- Node14 -->
<g id="Node000014" class="node">
<title>Node14</title>
<g id="a_Node000014"><a xlink:title=" ">
<polygon fill="#e0e0e0" stroke="#999999" points="553,-19 494,-19 494,0 553,0 553,-19"/>
<text text-anchor="middle" x="523.5" y="-7" font-family="Helvetica,sans-Serif" font-size="10.00">compare</text>
</a>
</g>
</g>
<!-- Node10&#45;&gt;Node14 -->
<g id="edge17_Node000010_Node000014" class="edge">
<title>Node10&#45;&gt;Node14</title>
<g id="a_edge17_Node000010_Node000014"><a xlink:title=" ">
<path fill="none" stroke="#63b8ff" d="M670.49,-60.49C640.94,-50.44 591.59,-33.66 558.31,-22.34"/>
<polygon fill="#63b8ff" stroke="#63b8ff" points="559.13,-18.92 548.54,-19.02 556.88,-25.55 559.13,-18.92"/>
</a>
</g>
</g>
<!-- Node15 -->
<g id="Node000015" class="node">
<title>Node15</title>
<g id="a_Node000015"><a xlink:title=" ">
<polygon fill="#e0e0e0" stroke="#999999" points="710,-19 571,-19 571,0 710,0 710,-19"/>
<text text-anchor="middle" x="640.5" y="-7" font-family="Helvetica,sans-Serif" font-size="10.00">Thoth/Dsa/LinearMap.tpp</text>
</a>
</g>
</g>
<!-- Node10&#45;&gt;Node15 -->
<g id="edge18_Node000010_Node000015" class="edge">
<title>Node10&#45;&gt;Node15</title>
<g id="a_edge18_Node000010_Node000015"><a xlink:title=" ">
<path fill="none" stroke="#63b8ff" d="M687.38,-60.37C679.1,-51.55 666.03,-37.66 655.8,-26.77"/>
<polygon fill="#63b8ff" stroke="#63b8ff" points="658.05,-24.06 648.65,-19.17 652.95,-28.85 658.05,-24.06"/>
</a>
</g>
</g>
<!-- Node19 -->
<g id="Node000019" class="node">
<title>Node19</title>
<g id="a_Node000019"><a xlink:href="_method_concept_8hpp.html" target="_top" xlink:title=" ">
<polygon fill="white" stroke="#666666" points="453,-283 304,-283 304,-253 453,-253 453,-283"/>
<text text-anchor="start" x="312" y="-271" font-family="Helvetica,sans-Serif" font-size="10.00">Thoth/Http/Methods</text>
<text text-anchor="middle" x="378.5" y="-260" font-family="Helvetica,sans-Serif" font-size="10.00">/_base/MethodConcept.hpp</text>
</a>
</g>
</g>
<!-- Node18&#45;&gt;Node19 -->
<g id="edge22_Node000018_Node000019" class="edge">
<title>Node18&#45;&gt;Node19</title>
<g id="a_edge22_Node000018_Node000019"><a xlink:title=" ">
<path fill="none" stroke="#63b8ff" d="M480.75,-318.95C461.81,-309.7 436.81,-297.49 416.27,-287.45"/>
<polygon fill="#63b8ff" stroke="#63b8ff" points="417.7,-284.26 407.18,-283.01 414.63,-290.55 417.7,-284.26"/>
</a>
</g>
</g>
<!-- Node19&#45;&gt;Node4 -->
<g id="edge26_Node000019_Node000004" class="edge">
<title>Node19&#45;&gt;Node4</title>
<g id="a_edge26_Node000019_Node000004"><a xlink:title=" ">
<path fill="none" stroke="#63b8ff" d="M443.68,-252.95C493.04,-242.32 560.56,-227.77 610,-217.11"/>
<polygon fill="#63b8ff" stroke="#63b8ff" points="610.92,-220.5 619.95,-214.97 609.44,-213.65 610.92,-220.5"/>
</a>
</g>
</g>
<!-- Node20 -->
<g id="Node000020" class="node">
<title>Node20</title>
<g id="a_Node000020"><a xlink:href="_status_code_enum_8hpp.html" target="_top" xlink:title=" ">
<polygon fill="white" stroke="#666666" points="321.5,-151 197.5,-151 197.5,-121 321.5,-121 321.5,-151"/>
<text text-anchor="start" x="205.5" y="-139" font-family="Helvetica,sans-Serif" font-size="10.00">Thoth/Http/Response</text>
<text text-anchor="middle" x="259.5" y="-128" font-family="Helvetica,sans-Serif" font-size="10.00">/StatusCodeEnum.hpp</text>
</a>
</g>
</g>
<!-- Node19&#45;&gt;Node20 -->
<g id="edge23_Node000019_Node000020" class="edge">
<title>Node19&#45;&gt;Node20</title>
<g id="a_edge23_Node000019_Node000020"><a xlink:title=" ">
<path fill="none" stroke="#63b8ff" d="M350.37,-252.98C334.85,-244.22 316.04,-231.8 302.5,-217 287.28,-200.37 275.65,-177.37 268.35,-160.3"/>
<polygon fill="#63b8ff" stroke="#63b8ff" points="271.58,-158.95 264.55,-151.02 265.1,-161.6 271.58,-158.95"/>
</a>
</g>
</g>
<!-- Node22 -->
<g id="Node000022" class="node">
<title>Node22</title>
<g id="a_Node000022"><a xlink:href="_headers_8hpp.html" target="_top" xlink:title=" ">
<polygon fill="white" stroke="#666666" points="445,-211.5 312,-211.5 312,-192.5 445,-192.5 445,-211.5"/>
<text text-anchor="middle" x="378.5" y="-199.5" font-family="Helvetica,sans-Serif" font-size="10.00">Thoth/Http/Headers.hpp</text>
</a>
</g>
</g>
<!-- Node19&#45;&gt;Node22 -->
<g id="edge27_Node000019_Node000022" class="edge">
<title>Node19&#45;&gt;Node22</title>
<g id="a_edge27_Node000019_Node000022"><a xlink:title=" ">
<path fill="none" stroke="#63b8ff" d="M378.5,-252.8C378.5,-243.7 378.5,-231.79 378.5,-221.9"/>
<polygon fill="#63b8ff" stroke="#63b8ff" points="382,-221.84 378.5,-211.84 375,-221.84 382,-221.84"/>
</a>
</g>
</g>
<!-- Node25 -->
<g id="Node000025" class="node">
<title>Node25</title>
<g id="a_Node000025"><a xlink:title=" ">
<polygon fill="#e0e0e0" stroke="#999999" points="255,-211.5 182,-211.5 182,-192.5 255,-192.5 255,-211.5"/>
<text text-anchor="middle" x="218.5" y="-199.5" font-family="Helvetica,sans-Serif" font-size="10.00">string_view</text>
</a>
</g>
</g>
<!-- Node19&#45;&gt;Node25 -->
<g id="edge35_Node000019_Node000025" class="edge">
<title>Node19&#45;&gt;Node25</title>
<g id="a_edge35_Node000019_Node000025"><a xlink:title=" ">
<path fill="none" stroke="#63b8ff" d="M343.39,-252.95C315.2,-241.68 276.03,-226.01 249.11,-215.25"/>
<polygon fill="#63b8ff" stroke="#63b8ff" points="250.38,-211.98 239.79,-211.52 247.78,-218.48 250.38,-211.98"/>
</a>
</g>
</g>
<!-- Node20&#45;&gt;Node5 -->
<g id="edge24_Node000020_Node000005" class="edge">
<title>Node20&#45;&gt;Node5</title>
<g id="a_edge24_Node000020_Node000005"><a xlink:title=" ">
<path fill="none" stroke="#63b8ff" d="M305.59,-120.95C343.39,-109.43 396.25,-93.32 431.62,-82.54"/>
<polygon fill="#63b8ff" stroke="#63b8ff" points="433.01,-85.78 441.55,-79.52 430.97,-79.08 433.01,-85.78"/>
</a>
</g>
</g>
<!-- Node21 -->
<g id="Node000021" class="node">
<title>Node21</title>
<g id="a_Node000021"><a xlink:title=" ">
<polygon fill="#e0e0e0" stroke="#999999" points="251.5,-79.5 195.5,-79.5 195.5,-60.5 251.5,-60.5 251.5,-79.5"/>
<text text-anchor="middle" x="223.5" y="-67.5" font-family="Helvetica,sans-Serif" font-size="10.00">optional</text>
</a>
</g>
</g>
<!-- Node20&#45;&gt;Node21 -->
<g id="edge25_Node000020_Node000021" class="edge">
<title>Node20&#45;&gt;Node21</title>
<g id="a_edge25_Node000020_Node000021"><a xlink:title=" ">
<path fill="none" stroke="#63b8ff" d="M251.51,-120.8C246.17,-111.31 239.11,-98.76 233.42,-88.63"/>
<polygon fill="#63b8ff" stroke="#63b8ff" points="236.43,-86.84 228.47,-79.84 230.33,-90.28 236.43,-86.84"/>
</a>
</g>
</g>
<!-- Node22&#45;&gt;Node6 -->
<g id="edge32_Node000022_Node000006" class="edge">
<title>Node22&#45;&gt;Node6</title>
<g id="a_edge32_Node000022_Node000006"><a xlink:title=" ">
<path fill="none" stroke="#63b8ff" d="M445.32,-196.29C537.93,-189.05 700.08,-173.62 754.5,-151 774.69,-142.61 774.15,-131.19 793.5,-121 839.39,-96.84 856.13,-103.7 904.5,-85 905.68,-84.54 906.87,-84.07 908.08,-83.58"/>
<polygon fill="#63b8ff" stroke="#63b8ff" points="909.47,-86.79 917.28,-79.63 906.71,-80.35 909.47,-86.79"/>
</a>
</g>
</g>
<!-- Node22&#45;&gt;Node8 -->
<g id="edge30_Node000022_Node000008" class="edge">
<title>Node22&#45;&gt;Node8</title>
<g id="a_edge30_Node000022_Node000008"><a xlink:title=" ">
<path fill="none" stroke="#63b8ff" d="M431.63,-192.46C476.05,-184.12 534.35,-169.91 548.5,-151 561.69,-133.38 556.67,-106.99 550.91,-89.4"/>
<polygon fill="#63b8ff" stroke="#63b8ff" points="554.1,-87.93 547.38,-79.74 547.52,-90.33 554.1,-87.93"/>
</a>
</g>
</g>
<!-- Node22&#45;&gt;Node9 -->
<g id="edge31_Node000022_Node000009" class="edge">
<title>Node22&#45;&gt;Node9</title>
<g id="a_edge31_Node000022_Node000009"><a xlink:title=" ">
<path fill="none" stroke="#63b8ff" d="M311.82,-193.07C260.56,-185.43 195.82,-171.93 179.5,-151 167.18,-135.2 169.98,-72.54 186.5,-55 217.67,-21.9 354.61,-13.41 418.92,-11.24"/>
<polygon fill="#63b8ff" stroke="#63b8ff" points="419.06,-14.74 428.95,-10.93 418.85,-7.74 419.06,-14.74"/>
</a>
</g>
</g>
<!-- Node22&#45;&gt;Node20 -->
<g id="edge28_Node000022_Node000020" class="edge">
<title>Node22&#45;&gt;Node20</title>
<g id="a_edge28_Node000022_Node000020"><a xlink:title=" ">
<path fill="none" stroke="#63b8ff" d="M362.45,-192.37C345.17,-183.07 317.12,-167.99 294.67,-155.91"/>
<polygon fill="#63b8ff" stroke="#63b8ff" points="296.21,-152.77 285.75,-151.12 292.9,-158.93 296.21,-152.77"/>
</a>
</g>
</g>
<!-- Node22&#45;&gt;Node21 -->
<g id="edge29_Node000022_Node000021" class="edge">
<title>Node22&#45;&gt;Node21</title>
<g id="a_edge29_Node000022_Node000021"><a xlink:title=" ">
<path fill="none" stroke="#63b8ff" d="M313.81,-192.49C265.01,-184.58 203.91,-170.99 188.5,-151 173.39,-131.4 191.79,-104.25 207.1,-87.17"/>
<polygon fill="#63b8ff" stroke="#63b8ff" points="209.88,-89.33 214.21,-79.66 204.8,-84.51 209.88,-89.33"/>
</a>
</g>
</g>
<!-- Node23 -->
<g id="Node000023" class="node">
<title>Node23</title>
<g id="a_Node000023"><a xlink:title=" ">
<polygon fill="#e0e0e0" stroke="#999999" points="389.5,-145.5 339.5,-145.5 339.5,-126.5 389.5,-126.5 389.5,-145.5"/>
<text text-anchor="middle" x="364.5" y="-133.5" font-family="Helvetica,sans-Serif" font-size="10.00">ranges</text>
</a>
</g>
</g>
<!-- Node22&#45;&gt;Node23 -->
<g id="edge33_Node000022_Node000023" class="edge">
<title>Node22&#45;&gt;Node23</title>
<g id="a_edge33_Node000022_Node000023"><a xlink:title=" ">
<path fill="none" stroke="#63b8ff" d="M376.61,-192.37C374.58,-183.07 371.28,-167.98 368.63,-155.9"/>
<polygon fill="#63b8ff" stroke="#63b8ff" points="372,-154.93 366.45,-145.91 365.17,-156.42 372,-154.93"/>
</a>
</g>
</g>
<!-- Node24 -->
<g id="Node000024" class="node">
<title>Node24</title>
<g id="a_Node000024"><a xlink:title=" ">
<polygon fill="#e0e0e0" stroke="#999999" points="539,-145.5 408,-145.5 408,-126.5 539,-126.5 539,-145.5"/>
<text text-anchor="middle" x="473.5" y="-133.5" font-family="Helvetica,sans-Serif" font-size="10.00">Thoth/Http/Headers.tpp</text>
</a>
</g>
</g>
<!-- Node22&#45;&gt;Node24 -->
<g id="edge34_Node000022_Node000024" class="edge">
<title>Node22&#45;&gt;Node24</title>
<g id="a_edge34_Node000022_Node000024"><a xlink:title=" ">
<path fill="none" stroke="#63b8ff" d="M391.31,-192.37C406.89,-181.87 433.43,-164 452.12,-151.4"/>
<polygon fill="#63b8ff" stroke="#63b8ff" points="454.25,-154.19 460.59,-145.7 450.34,-148.38 454.25,-154.19"/>
</a>
</g>
</g>
<!-- Node26&#45;&gt;Node19 -->
<g id="edge37_Node000026_Node000019" class="edge">
<title>Node26&#45;&gt;Node19</title>
<g id="a_edge37_Node000026_Node000019"><a xlink:title=" ">
<path fill="none" stroke="#63b8ff" d="M378.5,-318.8C378.5,-311.34 378.5,-301.99 378.5,-293.41"/>
<polygon fill="#63b8ff" stroke="#63b8ff" points="382,-293.16 378.5,-283.16 375,-293.16 382,-293.16"/>
</a>
</g>
</g>
</g>
</svg>
