<?xml version="1.0" encoding="UTF-8" standalone="no"?>
<!DOCTYPE svg PUBLIC "-//W3C//DTD SVG 1.1//EN"
 "http://www.w3.org/Graphics/SVG/1.1/DTD/svg11.dtd">
<!-- Generated by graphviz version 2.43.0 (0)
 -->
<!-- Title: include/Thoth/Http/Client.hpp Pages: 1 -->
<svg width="1698pt" height="610pt"
 viewBox="0.00 0.00 1697.50 610.00" xmlns="http://www.w3.org/2000/svg" xmlns:xlink="http://www.w3.org/1999/xlink">
<g id="graph0" class="graph" transform="scale(1 1) rotate(0) translate(4 606)">
<title>include/Thoth/Http/Client.hpp</title>
<!-- Node1 -->
<g id="Node000001" class="node">
<title>Node1</title>
<g id="a_Node000001"><a xlink:title=" ">
<polygon fill="#999999" stroke="#666666" points="1297,-602 1190,-602 1190,-572 1297,-572 1297,-602"/>
<text text-anchor="start" x="1198" y="-590" font-family="Helvetica,sans-Serif" font-size="10.00">include/Thoth/Http</text>
<text text-anchor="middle" x="1243.5" y="-579" font-family="Helvetica,sans-Serif" font-size="10.00">/Client.hpp</text>
</a>
</g>
</g>
<!-- Node2 -->
<g id="Node000002" class="node">
<title>Node2</title>
<g id="a_Node000002"><a xlink:title=" ">
<polygon fill="#e0e0e0" stroke="#999999" points="701,-464.5 526,-464.5 526,-445.5 701,-445.5 701,-464.5"/>
<text text-anchor="middle" x="613.5" y="-452.5" font-family="Helvetica,sans-Serif" font-size="10.00">Hermes/Socket/ClientSocket.hpp</text>
</a>
</g>
</g>
<!-- Node1&#45;&gt;Node2 -->
<g id="edge1_Node000001_Node000002" class="edge">
<title>Node1&#45;&gt;Node2</title>
<g id="a_edge1_Node000001_Node000002"><a xlink:title=" ">
<path fill="none" stroke="#63b8ff" d="M1189.98,-584.22C1108.16,-580.49 947.53,-569.25 815.5,-536 750.19,-519.55 677.72,-487.13 639.85,-469.02"/>
<polygon fill="#63b8ff" stroke="#63b8ff" points="641.08,-465.73 630.55,-464.53 638.04,-472.03 641.08,-465.73"/>
</a>
</g>
</g>
<!-- Node3 -->
<g id="Node000003" class="node">
<title>Node3</title>
<g id="a_Node000003"><a xlink:href="_request_8hpp.html" target="_top" xlink:title=" ">
<polygon fill="white" stroke="#666666" points="935,-536 824,-536 824,-506 935,-506 935,-536"/>
<text text-anchor="start" x="832" y="-524" font-family="Helvetica,sans-Serif" font-size="10.00">Thoth/Http/Request</text>
<text text-anchor="middle" x="879.5" y="-513" font-family="Helvetica,sans-Serif" font-size="10.00">/Request.hpp</text>
</a>
</g>
</g>
<!-- Node1&#45;&gt;Node3 -->
<g id="edge2_Node000001_Node000003" class="edge">
<title>Node1&#45;&gt;Node3</title>
<g id="a_edge2_Node000001_Node000003"><a xlink:title=" ">
<path fill="none" stroke="#63b8ff" d="M1189.79,-576.56C1124.76,-565.12 1015.27,-545.87 945.26,-533.56"/>
<polygon fill="#63b8ff" stroke="#63b8ff" points="945.68,-530.08 935.22,-531.8 944.47,-536.98 945.68,-530.08"/>
</a>
</g>
</g>
<!-- Node16 -->
<g id="Node000016" class="node">
<title>Node16</title>
<g id="a_Node000016"><a xlink:href="_request_error_8hpp.html" target="_top" xlink:title=" ">
<polygon fill="white" stroke="#666666" points="1283,-200.5 1128,-200.5 1128,-181.5 1283,-181.5 1283,-200.5"/>
<text text-anchor="middle" x="1205.5" y="-188.5" font-family="Helvetica,sans-Serif" font-size="10.00">Thoth/Http/RequestError.hpp</text>
</a>
</g>
</g>
<!-- Node1&#45;&gt;Node16 -->
<g id="edge61_Node000001_Node000016" class="edge">
<title>Node1&#45;&gt;Node16</title>
<g id="a_edge61_Node000001_Node000016"><a xlink:title=" ">
<path fill="none" stroke="#63b8ff" d="M1217.45,-571.86C1203.89,-563.21 1188.17,-550.94 1178.5,-536 1158.65,-505.31 1159.5,-492.54 1159.5,-456 1159.5,-456 1159.5,-456 1159.5,-322 1159.5,-279.71 1181.41,-233.88 1194.98,-209.53"/>
<polygon fill="#63b8ff" stroke="#63b8ff" points="1198.08,-211.17 1200.04,-200.76 1192.02,-207.67 1198.08,-211.17"/>
</a>
</g>
</g>
<!-- Node39 -->
<g id="Node000039" class="node">
<title>Node39</title>
<g id="a_Node000039"><a xlink:title=" ">
<polygon fill="#e0e0e0" stroke="#999999" points="1233.5,-530.5 1187.5,-530.5 1187.5,-511.5 1233.5,-511.5 1233.5,-530.5"/>
<text text-anchor="middle" x="1210.5" y="-518.5" font-family="Helvetica,sans-Serif" font-size="10.00">future</text>
</a>
</g>
</g>
<!-- Node1&#45;&gt;Node39 -->
<g id="edge62_Node000001_Node000039" class="edge">
<title>Node1&#45;&gt;Node39</title>
<g id="a_edge62_Node000001_Node000039"><a xlink:title=" ">
<path fill="none" stroke="#63b8ff" d="M1236.18,-571.8C1231.33,-562.41 1224.95,-550.02 1219.75,-539.95"/>
<polygon fill="#63b8ff" stroke="#63b8ff" points="1222.75,-538.13 1215.06,-530.84 1216.53,-541.34 1222.75,-538.13"/>
</a>
</g>
</g>
<!-- Node40 -->
<g id="Node000040" class="node">
<title>Node40</title>
<g id="a_Node000040"><a xlink:title=" ">
<polygon fill="#e0e0e0" stroke="#999999" points="1301.5,-530.5 1251.5,-530.5 1251.5,-511.5 1301.5,-511.5 1301.5,-530.5"/>
<text text-anchor="middle" x="1276.5" y="-518.5" font-family="Helvetica,sans-Serif" font-size="10.00">chrono</text>
</a>
</g>
</g>
<!-- Node1&#45;&gt;Node40 -->
<g id="edge63_Node000001_Node000040" class="edge">
<title>Node1&#45;&gt;Node40</title>
<g id="a_edge63_Node000001_Node000040"><a xlink:title=" ">
<path fill="none" stroke="#63b8ff" d="M1250.82,-571.8C1255.67,-562.41 1262.05,-550.02 1267.25,-539.95"/>
<polygon fill="#63b8ff" stroke="#63b8ff" points="1270.47,-541.34 1271.94,-530.84 1264.25,-538.13 1270.47,-541.34"/>
</a>
</g>
</g>
<!-- Node41 -->
<g id="Node000041" class="node">
<title>Node41</title>
<g id="a_Node000041"><a xlink:title=" ">
<polygon fill="#e0e0e0" stroke="#999999" points="1369.5,-530.5 1319.5,-530.5 1319.5,-511.5 1369.5,-511.5 1369.5,-530.5"/>
<text text-anchor="middle" x="1344.5" y="-518.5" font-family="Helvetica,sans-Serif" font-size="10.00">atomic</text>
</a>
</g>
</g>
<!-- Node1&#45;&gt;Node41 -->
<g id="edge64_Node000001_Node000041" class="edge">
<title>Node1&#45;&gt;Node41</title>
<g id="a_edge64_Node000001_Node000041"><a xlink:title=" ">
<path fill="none" stroke="#63b8ff" d="M1265.92,-571.8C1282.69,-561.17 1305.51,-546.7 1322.25,-536.1"/>
<polygon fill="#63b8ff" stroke="#63b8ff" points="1324.26,-538.97 1330.84,-530.66 1320.52,-533.05 1324.26,-538.97"/>
</a>
</g>
</g>
<!-- Node42 -->
<g id="Node000042" class="node">
<title>Node42</title>
<g id="a_Node000042"><a xlink:title=" ">
<polygon fill="#e0e0e0" stroke="#999999" points="1435.5,-530.5 1387.5,-530.5 1387.5,-511.5 1435.5,-511.5 1435.5,-530.5"/>
<text text-anchor="middle" x="1411.5" y="-518.5" font-family="Helvetica,sans-Serif" font-size="10.00">mutex</text>
</a>
</g>
</g>
<!-- Node1&#45;&gt;Node42 -->
<g id="edge65_Node000001_Node000042" class="edge">
<title>Node1&#45;&gt;Node42</title>
<g id="a_edge65_Node000001_Node000042"><a xlink:title=" ">
<path fill="none" stroke="#63b8ff" d="M1282.97,-571.93C1309.98,-562.17 1346.56,-548.68 1378.5,-536 1379.7,-535.52 1380.93,-535.03 1382.17,-534.53"/>
<polygon fill="#63b8ff" stroke="#63b8ff" points="1383.77,-537.65 1391.67,-530.59 1381.09,-531.18 1383.77,-537.65"/>
</a>
</g>
</g>
<!-- Node43 -->
<g id="Node000043" class="node">
<title>Node43</title>
<g id="a_Node000043"><a xlink:title=" ">
<polygon fill="#e0e0e0" stroke="#999999" points="1573,-530.5 1454,-530.5 1454,-511.5 1573,-511.5 1573,-530.5"/>
<text text-anchor="middle" x="1513.5" y="-518.5" font-family="Helvetica,sans-Serif" font-size="10.00">Thoth/Http/Client.tpp</text>
</a>
</g>
</g>
<!-- Node1&#45;&gt;Node43 -->
<g id="edge66_Node000001_Node000043" class="edge">
<title>Node1&#45;&gt;Node43</title>
<g id="a_edge66_Node000001_Node000043"><a xlink:title=" ">
<path fill="none" stroke="#63b8ff" d="M1297.17,-573.28C1347.03,-561.46 1420.49,-544.05 1467.66,-532.86"/>
<polygon fill="#63b8ff" stroke="#63b8ff" points="1468.68,-536.22 1477.6,-530.51 1467.07,-529.41 1468.68,-536.22"/>
</a>
</g>
</g>
<!-- Node3&#45;&gt;Node2 -->
<g id="edge3_Node000003_Node000002" class="edge">
<title>Node3&#45;&gt;Node2</title>
<g id="a_edge3_Node000003_Node000002"><a xlink:title=" ">
<path fill="none" stroke="#63b8ff" d="M823.74,-506.58C774.73,-494.79 704.32,-477.85 658.74,-466.89"/>
<polygon fill="#63b8ff" stroke="#63b8ff" points="659.39,-463.44 648.85,-464.5 657.75,-470.25 659.39,-463.44"/>
</a>
</g>
</g>
<!-- Node4 -->
<g id="Node000004" class="node">
<title>Node4</title>
<g id="a_Node000004"><a xlink:href="_url_8hpp.html" target="_top" xlink:title=" ">
<polygon fill="white" stroke="#666666" points="685,-338 574,-338 574,-308 685,-308 685,-338"/>
<text text-anchor="start" x="582" y="-326" font-family="Helvetica,sans-Serif" font-size="10.00">Thoth/Http/Request</text>
<text text-anchor="middle" x="629.5" y="-315" font-family="Helvetica,sans-Serif" font-size="10.00">/Url.hpp</text>
</a>
</g>
</g>
<!-- Node3&#45;&gt;Node4 -->
<g id="edge4_Node000003_Node000004" class="edge">
<title>Node3&#45;&gt;Node4</title>
<g id="a_edge4_Node000003_Node000004"><a xlink:title=" ">
<path fill="none" stroke="#63b8ff" d="M824.06,-505.92C799.43,-497.95 770.99,-486.25 748.5,-470 701.22,-435.83 662.05,-378.39 642.64,-346.7"/>
<polygon fill="#63b8ff" stroke="#63b8ff" points="645.64,-344.88 637.49,-338.11 639.64,-348.49 645.64,-344.88"/>
</a>
</g>
</g>
<!-- Node31 -->
<g id="Node000031" class="node">
<title>Node31</title>
<g id="a_Node000031"><a xlink:href="_get_method_8hpp.html" target="_top" xlink:title=" ">
<polygon fill="white" stroke="#666666" points="871,-470 758,-470 758,-440 871,-440 871,-470"/>
<text text-anchor="start" x="766" y="-458" font-family="Helvetica,sans-Serif" font-size="10.00">Thoth/Http/Methods</text>
<text text-anchor="middle" x="814.5" y="-447" font-family="Helvetica,sans-Serif" font-size="10.00">/GetMethod.hpp</text>
</a>
</g>
</g>
<!-- Node3&#45;&gt;Node31 -->
<g id="edge43_Node000003_Node000031" class="edge">
<title>Node3&#45;&gt;Node31</title>
<g id="a_edge43_Node000003_Node000031"><a xlink:title=" ">
<path fill="none" stroke="#63b8ff" d="M865.07,-505.8C856.57,-497.43 845.66,-486.68 836.14,-477.31"/>
<polygon fill="#63b8ff" stroke="#63b8ff" points="838.47,-474.69 828.89,-470.16 833.56,-479.67 838.47,-474.69"/>
</a>
</g>
</g>
<!-- Node37 -->
<g id="Node000037" class="node">
<title>Node37</title>
<g id="a_Node000037"><a xlink:href="_post_method_8hpp.html" target="_top" xlink:title=" ">
<polygon fill="white" stroke="#666666" points="1002,-470 889,-470 889,-440 1002,-440 1002,-470"/>
<text text-anchor="start" x="897" y="-458" font-family="Helvetica,sans-Serif" font-size="10.00">Thoth/Http/Methods</text>
<text text-anchor="middle" x="945.5" y="-447" font-family="Helvetica,sans-Serif" font-size="10.00">/PostMethod.hpp</text>
</a>
</g>
</g>
<!-- Node3&#45;&gt;Node37 -->
<g id="edge58_Node000003_Node000037" class="edge">
<title>Node3&#45;&gt;Node37</title>
<g id="a_edge58_Node000003_Node000037"><a xlink:title=" ">
<path fill="none" stroke="#63b8ff" d="M894.15,-505.8C902.78,-497.43 913.86,-486.68 923.52,-477.31"/>
<polygon fill="#63b8ff" stroke="#63b8ff" points="926.15,-479.64 930.89,-470.16 921.28,-474.61 926.15,-479.64"/>
</a>
</g>
</g>
<!-- Node38 -->
<g id="Node000038" class="node">
<title>Node38</title>
<g id="a_Node000038"><a xlink:title=" ">
<polygon fill="#e0e0e0" stroke="#999999" points="1131,-470 1020,-470 1020,-440 1131,-440 1131,-470"/>
<text text-anchor="start" x="1028" y="-458" font-family="Helvetica,sans-Serif" font-size="10.00">Thoth/Http/Request</text>
<text text-anchor="middle" x="1075.5" y="-447" font-family="Helvetica,sans-Serif" font-size="10.00">/Request.tpp</text>
</a>
</g>
</g>
<!-- Node3&#45;&gt;Node38 -->
<g id="edge60_Node000003_Node000038" class="edge">
<title>Node3&#45;&gt;Node38</title>
<g id="a_edge60_Node000003_Node000038"><a xlink:title=" ">
<path fill="none" stroke="#63b8ff" d="M922.51,-505.95C952,-496.33 991.31,-483.49 1022.7,-473.24"/>
<polygon fill="#63b8ff" stroke="#63b8ff" points="1024.17,-476.44 1032.59,-470.01 1021.99,-469.79 1024.17,-476.44"/>
</a>
</g>
</g>
<!-- Node5 -->
<g id="Node000005" class="node">
<title>Node5</title>
<g id="a_Node000005"><a xlink:title=" ">
<polygon fill="#e0e0e0" stroke="#999999" points="894.5,-74 832.5,-74 832.5,-55 894.5,-55 894.5,-74"/>
<text text-anchor="middle" x="863.5" y="-62" font-family="Helvetica,sans-Serif" font-size="10.00">expected</text>
</a>
</g>
</g>
<!-- Node4&#45;&gt;Node5 -->
<g id="edge5_Node000004_Node000005" class="edge">
<title>Node4&#45;&gt;Node5</title>
<g id="a_edge5_Node000004_Node000005"><a xlink:title=" ">
<path fill="none" stroke="#63b8ff" d="M630.6,-307.74C634.29,-269.76 649.68,-165.25 709.5,-110 740.26,-81.6 788.05,-71.21 822.23,-67.47"/>
<polygon fill="#63b8ff" stroke="#63b8ff" points="822.74,-70.94 832.37,-66.51 822.08,-63.97 822.74,-70.94"/>
</a>
</g>
</g>
<!-- Node6 -->
<g id="Node000006" class="node">
<title>Node6</title>
<g id="a_Node000006"><a xlink:title=" ">
<polygon fill="#e0e0e0" stroke="#999999" points="656.5,-19 612.5,-19 612.5,0 656.5,0 656.5,-19"/>
<text text-anchor="middle" x="634.5" y="-7" font-family="Helvetica,sans-Serif" font-size="10.00">string</text>
</a>
</g>
</g>
<!-- Node4&#45;&gt;Node6 -->
<g id="edge6_Node000004_Node000006" class="edge">
<title>Node4&#45;&gt;Node6</title>
<g id="a_edge6_Node000004_Node000006"><a xlink:title=" ">
<path fill="none" stroke="#63b8ff" d="M573.77,-318.98C445.34,-310.52 139.5,-281 139.5,-192 139.5,-192 139.5,-192 139.5,-124 139.5,-88.33 150.39,-74.13 180.5,-55 250.58,-10.46 510.47,-9.03 602.19,-9.97"/>
<polygon fill="#63b8ff" stroke="#63b8ff" points="602.23,-13.47 612.28,-10.09 602.32,-6.47 602.23,-13.47"/>
</a>
</g>
</g>
<!-- Node7 -->
<g id="Node000007" class="node">
<title>Node7</title>
<g id="a_Node000007"><a xlink:href="_query_params_8hpp.html" target="_top" xlink:title=" ">
<polygon fill="white" stroke="#666666" points="582,-272 471,-272 471,-242 582,-242 582,-272"/>
<text text-anchor="start" x="479" y="-260" font-family="Helvetica,sans-Serif" font-size="10.00">Thoth/Http/Request</text>
<text text-anchor="middle" x="526.5" y="-249" font-family="Helvetica,sans-Serif" font-size="10.00">/QueryParams.hpp</text>
</a>
</g>
</g>
<!-- Node4&#45;&gt;Node7 -->
<g id="edge7_Node000004_Node000007" class="edge">
<title>Node4&#45;&gt;Node7</title>
<g id="a_edge7_Node000004_Node000007"><a xlink:title=" ">
<path fill="none" stroke="#63b8ff" d="M606.9,-307.95C592.54,-299.03 573.76,-287.36 557.95,-277.54"/>
<polygon fill="#63b8ff" stroke="#63b8ff" points="559.39,-274.32 549.05,-272.01 555.7,-280.26 559.39,-274.32"/>
</a>
</g>
</g>
<!-- Node30 -->
<g id="Node000030" class="node">
<title>Node30</title>
<g id="a_Node000030"><a xlink:title=" ">
<polygon fill="#e0e0e0" stroke="#999999" points="111,-272 0,-272 0,-242 111,-242 111,-272"/>
<text text-anchor="start" x="8" y="-260" font-family="Helvetica,sans-Serif" font-size="10.00">Thoth/Http/Request</text>
<text text-anchor="middle" x="55.5" y="-249" font-family="Helvetica,sans-Serif" font-size="10.00">/Url.tpp</text>
</a>
</g>
</g>
<!-- Node4&#45;&gt;Node30 -->
<g id="edge42_Node000004_Node000030" class="edge">
<title>Node4&#45;&gt;Node30</title>
<g id="a_edge42_Node000004_Node000030"><a xlink:title=" ">
<path fill="none" stroke="#63b8ff" d="M573.72,-318.27C480.54,-311.64 287.48,-296.17 125.5,-272 124.04,-271.78 122.57,-271.56 121.09,-271.32"/>
<polygon fill="#63b8ff" stroke="#63b8ff" points="121.64,-267.86 111.2,-269.65 120.48,-274.77 121.64,-267.86"/>
</a>
</g>
</g>
<!-- Node7&#45;&gt;Node5 -->
<g id="edge8_Node000007_Node000005" class="edge">
<title>Node7&#45;&gt;Node5</title>
<g id="a_edge8_Node000007_Node000005"><a xlink:title=" ">
<path fill="none" stroke="#63b8ff" d="M515.02,-241.66C508.17,-232.16 500.12,-219.07 496.5,-206 484.53,-162.79 491.32,-136.48 527.5,-110 550.92,-92.86 737.77,-75.71 822.26,-68.75"/>
<polygon fill="#63b8ff" stroke="#63b8ff" points="822.6,-72.23 832.28,-67.93 822.03,-65.25 822.6,-72.23"/>
</a>
</g>
</g>
<!-- Node7&#45;&gt;Node6 -->
<g id="edge11_Node000007_Node000006" class="edge">
<title>Node7&#45;&gt;Node6</title>
<g id="a_edge11_Node000007_Node000006"><a xlink:title=" ">
<path fill="none" stroke="#63b8ff" d="M470.96,-245.18C355.43,-220.4 107.12,-153.93 196.5,-55 223.63,-24.97 505.71,-14.17 602.28,-11.34"/>
<polygon fill="#63b8ff" stroke="#63b8ff" points="602.44,-14.83 612.33,-11.05 602.24,-7.84 602.44,-14.83"/>
</a>
</g>
</g>
<!-- Node8 -->
<g id="Node000008" class="node">
<title>Node8</title>
<g id="a_Node000008"><a xlink:title=" ">
<polygon fill="#e0e0e0" stroke="#999999" points="586.5,-134.5 536.5,-134.5 536.5,-115.5 586.5,-115.5 586.5,-134.5"/>
<text text-anchor="middle" x="561.5" y="-122.5" font-family="Helvetica,sans-Serif" font-size="10.00">format</text>
</a>
</g>
</g>
<!-- Node7&#45;&gt;Node8 -->
<g id="edge9_Node000007_Node000008" class="edge">
<title>Node7&#45;&gt;Node8</title>
<g id="a_edge9_Node000007_Node000008"><a xlink:title=" ">
<path fill="none" stroke="#63b8ff" d="M516.63,-241.96C506.45,-225.63 493.39,-198.07 503.5,-176 510.36,-161.02 524.17,-148.83 536.59,-140.23"/>
<polygon fill="#63b8ff" stroke="#63b8ff" points="538.78,-142.99 545.28,-134.62 534.98,-137.11 538.78,-142.99"/>
</a>
</g>
</g>
<!-- Node9 -->
<g id="Node000009" class="node">
<title>Node9</title>
<g id="a_Node000009"><a xlink:title=" ">
<polygon fill="#e0e0e0" stroke="#999999" points="710,-74 663,-74 663,-55 710,-55 710,-74"/>
<text text-anchor="middle" x="686.5" y="-62" font-family="Helvetica,sans-Serif" font-size="10.00">vector</text>
</a>
</g>
</g>
<!-- Node7&#45;&gt;Node9 -->
<g id="edge10_Node000007_Node000009" class="edge">
<title>Node7&#45;&gt;Node9</title>
<g id="a_edge10_Node000007_Node000009"><a xlink:title=" ">
<path fill="none" stroke="#63b8ff" d="M573.04,-241.91C610.31,-228.12 653.2,-204.99 632.5,-176 603.83,-135.86 556.17,-180.14 527.5,-140 519.75,-129.15 519.44,-120.62 527.5,-110 542.59,-90.1 610.79,-76.68 652.82,-70.13"/>
<polygon fill="#63b8ff" stroke="#63b8ff" points="653.52,-73.56 662.89,-68.61 652.48,-66.64 653.52,-73.56"/>
</a>
</g>
</g>
<!-- Node10 -->
<g id="Node000010" class="node">
<title>Node10</title>
<g id="a_Node000010"><a xlink:href="_linear_map_8hpp.html" target="_top" xlink:title=" ">
<polygon fill="white" stroke="#666666" points="442,-134.5 301,-134.5 301,-115.5 442,-115.5 442,-134.5"/>
<text text-anchor="middle" x="371.5" y="-122.5" font-family="Helvetica,sans-Serif" font-size="10.00">Thoth/Dsa/LinearMap.hpp</text>
</a>
</g>
</g>
<!-- Node7&#45;&gt;Node10 -->
<g id="edge12_Node000007_Node000010" class="edge">
<title>Node7&#45;&gt;Node10</title>
<g id="a_edge12_Node000007_Node000010"><a xlink:title=" ">
<path fill="none" stroke="#63b8ff" d="M491.68,-241.87C472.94,-233.23 450.11,-220.96 432.5,-206 411.05,-187.78 392.43,-160.8 381.58,-143.3"/>
<polygon fill="#63b8ff" stroke="#63b8ff" points="384.54,-141.44 376.38,-134.68 378.55,-145.05 384.54,-141.44"/>
</a>
</g>
</g>
<!-- Node7&#45;&gt;Node16 -->
<g id="edge19_Node000007_Node000016" class="edge">
<title>Node7&#45;&gt;Node16</title>
<g id="a_edge19_Node000007_Node000016"><a xlink:title=" ">
<path fill="none" stroke="#63b8ff" d="M582.07,-250.76C699.99,-239.65 976.07,-213.62 1117.94,-200.25"/>
<polygon fill="#63b8ff" stroke="#63b8ff" points="1118.29,-203.74 1127.92,-199.31 1117.63,-196.77 1118.29,-203.74"/>
</a>
</g>
</g>
<!-- Node29 -->
<g id="Node000029" class="node">
<title>Node29</title>
<g id="a_Node000029"><a xlink:title=" ">
<polygon fill="#e0e0e0" stroke="#999999" points="624,-206 513,-206 513,-176 624,-176 624,-206"/>
<text text-anchor="start" x="521" y="-194" font-family="Helvetica,sans-Serif" font-size="10.00">Thoth/Http/Request</text>
<text text-anchor="middle" x="568.5" y="-183" font-family="Helvetica,sans-Serif" font-size="10.00">/QueryParams.tpp</text>
</a>
</g>
</g>
<!-- Node7&#45;&gt;Node29 -->
<g id="edge41_Node000007_Node000029" class="edge">
<title>Node7&#45;&gt;Node29</title>
<g id="a_edge41_Node000007_Node000029"><a xlink:title=" ">
<path fill="none" stroke="#63b8ff" d="M535.82,-241.8C541.04,-233.84 547.67,-223.74 553.6,-214.71"/>
<polygon fill="#63b8ff" stroke="#63b8ff" points="556.64,-216.44 559.2,-206.16 550.79,-212.6 556.64,-216.44"/>
</a>
</g>
</g>
<!-- Node10&#45;&gt;Node9 -->
<g id="edge13_Node000010_Node000009" class="edge">
<title>Node10&#45;&gt;Node9</title>
<g id="a_edge13_Node000010_Node000009"><a xlink:title=" ">
<path fill="none" stroke="#63b8ff" d="M417.3,-115.49C481.4,-103.59 596.34,-82.24 653.02,-71.72"/>
<polygon fill="#63b8ff" stroke="#63b8ff" points="653.71,-75.15 662.9,-69.88 652.43,-68.27 653.71,-75.15"/>
</a>
</g>
</g>
<!-- Node11 -->
<g id="Node000011" class="node">
<title>Node11</title>
<g id="a_Node000011"><a xlink:title=" ">
<polygon fill="#e0e0e0" stroke="#999999" points="485,-74 440,-74 440,-55 485,-55 485,-74"/>
<text text-anchor="middle" x="462.5" y="-62" font-family="Helvetica,sans-Serif" font-size="10.00">utility</text>
</a>
</g>
</g>
<!-- Node10&#45;&gt;Node11 -->
<g id="edge14_Node000010_Node000011" class="edge">
<title>Node10&#45;&gt;Node11</title>
<g id="a_edge14_Node000010_Node000011"><a xlink:title=" ">
<path fill="none" stroke="#63b8ff" d="M384.93,-115.37C399.58,-105.95 423.26,-90.73 440.6,-79.58"/>
<polygon fill="#63b8ff" stroke="#63b8ff" points="442.5,-82.52 449.02,-74.17 438.71,-76.63 442.5,-82.52"/>
</a>
</g>
</g>
<!-- Node12 -->
<g id="Node000012" class="node">
<title>Node12</title>
<g id="a_Node000012"><a xlink:title=" ">
<polygon fill="#e0e0e0" stroke="#999999" points="1354.5,-19 1294.5,-19 1294.5,0 1354.5,0 1354.5,-19"/>
<text text-anchor="middle" x="1324.5" y="-7" font-family="Helvetica,sans-Serif" font-size="10.00">concepts</text>
</a>
</g>
</g>
<!-- Node10&#45;&gt;Node12 -->
<g id="edge15_Node000010_Node000012" class="edge">
<title>Node10&#45;&gt;Node12</title>
<g id="a_edge15_Node000010_Node000012"><a xlink:title=" ">
<path fill="none" stroke="#63b8ff" d="M406.69,-115.45C447.53,-105.51 516.91,-88.62 576.5,-74 610.73,-65.6 618.64,-60.25 653.5,-55 928.45,-13.61 1004.96,-56.06 1284.33,-18.92"/>
<polygon fill="#63b8ff" stroke="#63b8ff" points="1284.91,-22.37 1294.35,-17.56 1283.97,-15.43 1284.91,-22.37"/>
</a>
</g>
</g>
<!-- Node13 -->
<g id="Node000013" class="node">
<title>Node13</title>
<g id="a_Node000013"><a xlink:title=" ">
<polygon fill="#e0e0e0" stroke="#999999" points="568,-74 503,-74 503,-55 568,-55 568,-74"/>
<text text-anchor="middle" x="535.5" y="-62" font-family="Helvetica,sans-Serif" font-size="10.00">functional</text>
</a>
</g>
</g>
<!-- Node10&#45;&gt;Node13 -->
<g id="edge16_Node000010_Node000013" class="edge">
<title>Node10&#45;&gt;Node13</title>
<g id="a_edge16_Node000010_Node000013"><a xlink:title=" ">
<path fill="none" stroke="#63b8ff" d="M395.35,-115.49C423.4,-105.49 470.17,-88.8 501.9,-77.49"/>
<polygon fill="#63b8ff" stroke="#63b8ff" points="503.38,-80.67 511.62,-74.02 501.03,-74.08 503.38,-80.67"/>
</a>
</g>
</g>
<!-- Node14 -->
<g id="Node000014" class="node">
<title>Node14</title>
<g id="a_Node000014"><a xlink:title=" ">
<polygon fill="#e0e0e0" stroke="#999999" points="265,-74 206,-74 206,-55 265,-55 265,-74"/>
<text text-anchor="middle" x="235.5" y="-62" font-family="Helvetica,sans-Serif" font-size="10.00">compare</text>
</a>
</g>
</g>
<!-- Node10&#45;&gt;Node14 -->
<g id="edge17_Node000010_Node000014" class="edge">
<title>Node10&#45;&gt;Node14</title>
<g id="a_edge17_Node000010_Node000014"><a xlink:title=" ">
<path fill="none" stroke="#63b8ff" d="M351.72,-115.49C328.86,-105.66 291.01,-89.38 264.74,-78.08"/>
<polygon fill="#63b8ff" stroke="#63b8ff" points="265.87,-74.75 255.3,-74.02 263.1,-81.18 265.87,-74.75"/>
</a>
</g>
</g>
<!-- Node15 -->
<g id="Node000015" class="node">
<title>Node15</title>
<g id="a_Node000015"><a xlink:title=" ">
<polygon fill="#e0e0e0" stroke="#999999" points="422,-74 283,-74 283,-55 422,-55 422,-74"/>
<text text-anchor="middle" x="352.5" y="-62" font-family="Helvetica,sans-Serif" font-size="10.00">Thoth/Dsa/LinearMap.tpp</text>
</a>
</g>
</g>
<!-- Node10&#45;&gt;Node15 -->
<g id="edge18_Node000010_Node000015" class="edge">
<title>Node10&#45;&gt;Node15</title>
<g id="a_edge18_Node000010_Node000015"><a xlink:title=" ">
<path fill="none" stroke="#63b8ff" d="M368.7,-115.37C366,-107.07 361.85,-94.28 358.42,-83.72"/>
<polygon fill="#63b8ff" stroke="#63b8ff" points="361.73,-82.6 355.32,-74.17 355.08,-84.76 361.73,-82.6"/>
</a>
</g>
</g>
<!-- Node16&#45;&gt;Node9 -->
<g id="edge39_Node000016_Node000009" class="edge">
<title>Node16&#45;&gt;Node9</title>
<g id="a_edge39_Node000016_Node000009"><a xlink:title=" ">
<path fill="none" stroke="#63b8ff" d="M1164.04,-181.44C1122.89,-172.54 1058.22,-157.49 1003.5,-140 968.91,-128.95 962.41,-120.01 927.5,-110 854.88,-89.17 767.05,-75.83 720.05,-69.61"/>
<polygon fill="#63b8ff" stroke="#63b8ff" points="720.48,-66.13 710.11,-68.32 719.58,-73.07 720.48,-66.13"/>
</a>
</g>
</g>
<!-- Node17 -->
<g id="Node000017" class="node">
<title>Node17</title>
<g id="a_Node000017"><a xlink:title=" ">
<polygon fill="#e0e0e0" stroke="#999999" points="1662,-140 1495,-140 1495,-110 1662,-110 1662,-140"/>
<text text-anchor="start" x="1503" y="-128" font-family="Helvetica,sans-Serif" font-size="10.00">Hermes/_base/ConnectionError</text>
<text text-anchor="middle" x="1578.5" y="-117" font-family="Helvetica,sans-Serif" font-size="10.00">Enum.hpp</text>
</a>
</g>
</g>
<!-- Node16&#45;&gt;Node17 -->
<g id="edge20_Node000016_Node000017" class="edge">
<title>Node16&#45;&gt;Node17</title>
<g id="a_edge20_Node000016_Node000017"><a xlink:title=" ">
<path fill="none" stroke="#63b8ff" d="M1255.42,-181.44C1314.38,-171.32 1413.67,-154.28 1486.65,-141.76"/>
<polygon fill="#63b8ff" stroke="#63b8ff" points="1487.5,-145.17 1496.76,-140.02 1486.31,-138.27 1487.5,-145.17"/>
</a>
</g>
</g>
<!-- Node18 -->
<g id="Node000018" class="node">
<title>Node18</title>
<g id="a_Node000018"><a xlink:href="_definitions_8hpp.html" target="_top" xlink:title=" ">
<polygon fill="white" stroke="#666666" points="1476.5,-134.5 1324.5,-134.5 1324.5,-115.5 1476.5,-115.5 1476.5,-134.5"/>
<text text-anchor="middle" x="1400.5" y="-122.5" font-family="Helvetica,sans-Serif" font-size="10.00">Thoth/NJson/Definitions.hpp</text>
</a>
</g>
</g>
<!-- Node16&#45;&gt;Node18 -->
<g id="edge21_Node000016_Node000018" class="edge">
<title>Node16&#45;&gt;Node18</title>
<g id="a_edge21_Node000016_Node000018"><a xlink:title=" ">
<path fill="none" stroke="#63b8ff" d="M1231.8,-181.37C1266.06,-170.12 1326.11,-150.42 1364.55,-137.8"/>
<polygon fill="#63b8ff" stroke="#63b8ff" points="1365.9,-141.04 1374.31,-134.6 1363.71,-134.39 1365.9,-141.04"/>
</a>
</g>
</g>
<!-- Node28 -->
<g id="Node000028" class="node">
<title>Node28</title>
<g id="a_Node000028"><a xlink:title=" ">
<polygon fill="#e0e0e0" stroke="#999999" points="1306.5,-134.5 1154.5,-134.5 1154.5,-115.5 1306.5,-115.5 1306.5,-134.5"/>
<text text-anchor="middle" x="1230.5" y="-122.5" font-family="Helvetica,sans-Serif" font-size="10.00">Thoth/Http/RequestError.tpp</text>
</a>
</g>
</g>
<!-- Node16&#45;&gt;Node28 -->
<g id="edge40_Node000016_Node000028" class="edge">
<title>Node16&#45;&gt;Node28</title>
<g id="a_edge40_Node000016_Node000028"><a xlink:title=" ">
<path fill="none" stroke="#63b8ff" d="M1208.87,-181.37C1212.54,-171.97 1218.52,-156.67 1223.26,-144.53"/>
<polygon fill="#63b8ff" stroke="#63b8ff" points="1226.64,-145.49 1227.02,-134.91 1220.12,-142.95 1226.64,-145.49"/>
</a>
</g>
</g>
<!-- Node18&#45;&gt;Node5 -->
<g id="edge27_Node000018_Node000005" class="edge">
<title>Node18&#45;&gt;Node5</title>
<g id="a_edge27_Node000018_Node000005"><a xlink:title=" ">
<path fill="none" stroke="#63b8ff" d="M1352.04,-115.46C1340.11,-113.51 1327.36,-111.56 1315.5,-110 1164.55,-90.16 984.18,-74.93 904.63,-68.65"/>
<polygon fill="#63b8ff" stroke="#63b8ff" points="904.79,-65.15 894.54,-67.86 904.24,-72.13 904.79,-65.15"/>
</a>
</g>
</g>
<!-- Node18&#45;&gt;Node6 -->
<g id="edge25_Node000018_Node000006" class="edge">
<title>Node18&#45;&gt;Node6</title>
<g id="a_edge25_Node000018_Node000006"><a xlink:title=" ">
<path fill="none" stroke="#63b8ff" d="M1349.2,-115.45C1275.55,-103.06 1146.4,-80.85 1125.5,-74 1107.18,-68 1105.05,-60.25 1086.5,-55 933.91,-11.83 742.12,-9.02 666.88,-9.81"/>
<polygon fill="#63b8ff" stroke="#63b8ff" points="666.6,-6.31 656.65,-9.94 666.7,-13.31 666.6,-6.31"/>
</a>
</g>
</g>
<!-- Node18&#45;&gt;Node9 -->
<g id="edge24_Node000018_Node000009" class="edge">
<title>Node18&#45;&gt;Node9</title>
<g id="a_edge24_Node000018_Node000009"><a xlink:title=" ">
<path fill="none" stroke="#63b8ff" d="M1353.4,-115.44C1341.1,-113.43 1327.83,-111.45 1315.5,-110 1256.33,-103.05 843,-75.74 720.58,-67.73"/>
<polygon fill="#63b8ff" stroke="#63b8ff" points="720.52,-64.21 710.31,-67.05 720.06,-71.2 720.52,-64.21"/>
</a>
</g>
</g>
<!-- Node18&#45;&gt;Node12 -->
<g id="edge28_Node000018_Node000012" class="edge">
<title>Node18&#45;&gt;Node12</title>
<g id="a_edge28_Node000018_Node000012"><a xlink:title=" ">
<path fill="none" stroke="#63b8ff" d="M1393.47,-115.37C1385.61,-105.57 1372.64,-88.99 1362.5,-74 1352.29,-58.9 1341.73,-41.04 1334.34,-28.11"/>
<polygon fill="#63b8ff" stroke="#63b8ff" points="1337.33,-26.3 1329.37,-19.32 1331.24,-29.74 1337.33,-26.3"/>
</a>
</g>
</g>
<!-- Node19 -->
<g id="Node000019" class="node">
<title>Node19</title>
<g id="a_Node000019"><a xlink:title=" ">
<polygon fill="#e0e0e0" stroke="#999999" points="1641,-19 1590,-19 1590,0 1641,0 1641,-19"/>
<text text-anchor="middle" x="1615.5" y="-7" font-family="Helvetica,sans-Serif" font-size="10.00">variant</text>
</a>
</g>
</g>
<!-- Node18&#45;&gt;Node19 -->
<g id="edge22_Node000018_Node000019" class="edge">
<title>Node18&#45;&gt;Node19</title>
<g id="a_edge22_Node000018_Node000019"><a xlink:title=" ">
<path fill="none" stroke="#63b8ff" d="M1416.21,-115.39C1440.29,-102.23 1487.82,-76.36 1528.5,-55 1548.9,-44.28 1572.15,-32.41 1589.48,-23.63"/>
<polygon fill="#63b8ff" stroke="#63b8ff" points="1591.1,-26.73 1598.44,-19.09 1587.94,-20.48 1591.1,-26.73"/>
</a>
</g>
</g>
<!-- Node20 -->
<g id="Node000020" class="node">
<title>Node20</title>
<g id="a_Node000020"><a xlink:title=" ">
<polygon fill="#e0e0e0" stroke="#999999" points="1276.5,-19 1218.5,-19 1218.5,0 1276.5,0 1276.5,-19"/>
<text text-anchor="middle" x="1247.5" y="-7" font-family="Helvetica,sans-Serif" font-size="10.00">memory</text>
</a>
</g>
</g>
<!-- Node18&#45;&gt;Node20 -->
<g id="edge23_Node000018_Node000020" class="edge">
<title>Node18&#45;&gt;Node20</title>
<g id="a_edge23_Node000018_Node000020"><a xlink:title=" ">
<path fill="none" stroke="#63b8ff" d="M1389,-115.47C1363.08,-96.24 1299.85,-49.33 1267.41,-25.27"/>
<polygon fill="#63b8ff" stroke="#63b8ff" points="1269.25,-22.28 1259.13,-19.13 1265.08,-27.9 1269.25,-22.28"/>
</a>
</g>
</g>
<!-- Node21 -->
<g id="Node000021" class="node">
<title>Node21</title>
<g id="a_Node000021"><a xlink:title=" ">
<polygon fill="#e0e0e0" stroke="#999999" points="1077.5,-74 1021.5,-74 1021.5,-55 1077.5,-55 1077.5,-74"/>
<text text-anchor="middle" x="1049.5" y="-62" font-family="Helvetica,sans-Serif" font-size="10.00">optional</text>
</a>
</g>
</g>
<!-- Node18&#45;&gt;Node21 -->
<g id="edge26_Node000018_Node000021" class="edge">
<title>Node18&#45;&gt;Node21</title>
<g id="a_edge26_Node000018_Node000021"><a xlink:title=" ">
<path fill="none" stroke="#63b8ff" d="M1348.81,-115.45C1337.82,-113.65 1326.28,-111.75 1315.5,-110 1215.98,-93.81 1190.71,-92 1091.5,-74 1090.4,-73.8 1089.29,-73.6 1088.17,-73.39"/>
<polygon fill="#63b8ff" stroke="#63b8ff" points="1088.42,-69.87 1077.94,-71.42 1087.09,-76.74 1088.42,-69.87"/>
</a>
</g>
</g>
<!-- Node22 -->
<g id="Node000022" class="node">
<title>Node22</title>
<g id="a_Node000022"><a xlink:title=" ">
<polygon fill="#e0e0e0" stroke="#999999" points="1577.5,-74 1537.5,-74 1537.5,-55 1577.5,-55 1577.5,-74"/>
<text text-anchor="middle" x="1557.5" y="-62" font-family="Helvetica,sans-Serif" font-size="10.00">span</text>
</a>
</g>
</g>
<!-- Node18&#45;&gt;Node22 -->
<g id="edge29_Node000018_Node000022" class="edge">
<title>Node18&#45;&gt;Node22</title>
<g id="a_edge29_Node000018_Node000022"><a xlink:title=" ">
<path fill="none" stroke="#63b8ff" d="M1423.33,-115.49C1450.84,-105.24 1497.13,-87.99 1527.5,-76.68"/>
<polygon fill="#63b8ff" stroke="#63b8ff" points="1528.99,-79.86 1537.14,-73.09 1526.55,-73.3 1528.99,-79.86"/>
</a>
</g>
</g>
<!-- Node23 -->
<g id="Node000023" class="node">
<title>Node23</title>
<g id="a_Node000023"><a xlink:href="_cow_8hpp.html" target="_top" xlink:title=" ">
<polygon fill="white" stroke="#666666" points="1481.5,-74 1371.5,-74 1371.5,-55 1481.5,-55 1481.5,-74"/>
<text text-anchor="middle" x="1426.5" y="-62" font-family="Helvetica,sans-Serif" font-size="10.00">Thoth/Dsa/Cow.hpp</text>
</a>
</g>
</g>
<!-- Node18&#45;&gt;Node23 -->
<g id="edge30_Node000018_Node000023" class="edge">
<title>Node18&#45;&gt;Node23</title>
<g id="a_edge30_Node000018_Node000023"><a xlink:title=" ">
<path fill="none" stroke="#63b8ff" d="M1404.34,-115.37C1408.06,-106.99 1413.83,-94.01 1418.55,-83.39"/>
<polygon fill="#63b8ff" stroke="#63b8ff" points="1421.78,-84.73 1422.65,-74.17 1415.39,-81.88 1421.78,-84.73"/>
</a>
</g>
</g>
<!-- Node25 -->
<g id="Node000025" class="node">
<title>Node25</title>
<g id="a_Node000025"><a xlink:href="_string_ref_8hpp.html" target="_top" xlink:title=" ">
<polygon fill="white" stroke="#666666" points="1277,-74 1134,-74 1134,-55 1277,-55 1277,-74"/>
<text text-anchor="middle" x="1205.5" y="-62" font-family="Helvetica,sans-Serif" font-size="10.00">Thoth/NJson/StringRef.hpp</text>
</a>
</g>
</g>
<!-- Node18&#45;&gt;Node25 -->
<g id="edge34_Node000018_Node000025" class="edge">
<title>Node18&#45;&gt;Node25</title>
<g id="a_edge34_Node000018_Node000025"><a xlink:title=" ">
<path fill="none" stroke="#63b8ff" d="M1372.15,-115.49C1338.21,-105.31 1281.24,-88.22 1243.51,-76.9"/>
<polygon fill="#63b8ff" stroke="#63b8ff" points="1244.47,-73.54 1233.89,-74.02 1242.46,-80.24 1244.47,-73.54"/>
</a>
</g>
</g>
<!-- Node23&#45;&gt;Node12 -->
<g id="edge31_Node000023_Node000012" class="edge">
<title>Node23&#45;&gt;Node12</title>
<g id="a_edge31_Node000023_Node000012"><a xlink:title=" ">
<path fill="none" stroke="#63b8ff" d="M1410.11,-54.98C1393.93,-46.57 1368.93,-33.59 1350.12,-23.81"/>
<polygon fill="#63b8ff" stroke="#63b8ff" points="1351.67,-20.68 1341.19,-19.17 1348.45,-26.89 1351.67,-20.68"/>
</a>
</g>
</g>
<!-- Node23&#45;&gt;Node19 -->
<g id="edge32_Node000023_Node000019" class="edge">
<title>Node23&#45;&gt;Node19</title>
<g id="a_edge32_Node000023_Node000019"><a xlink:title=" ">
<path fill="none" stroke="#63b8ff" d="M1456.87,-54.98C1490.39,-45.58 1544.31,-30.46 1579.82,-20.51"/>
<polygon fill="#63b8ff" stroke="#63b8ff" points="1581.08,-23.79 1589.76,-17.72 1579.19,-17.05 1581.08,-23.79"/>
</a>
</g>
</g>
<!-- Node24 -->
<g id="Node000024" class="node">
<title>Node24</title>
<g id="a_Node000024"><a xlink:title=" ">
<polygon fill="#e0e0e0" stroke="#999999" points="1480.5,-19 1372.5,-19 1372.5,0 1480.5,0 1480.5,-19"/>
<text text-anchor="middle" x="1426.5" y="-7" font-family="Helvetica,sans-Serif" font-size="10.00">Thoth/Dsa/Cow.tpp</text>
</a>
</g>
</g>
<!-- Node23&#45;&gt;Node24 -->
<g id="edge33_Node000023_Node000024" class="edge">
<title>Node23&#45;&gt;Node24</title>
<g id="a_edge33_Node000023_Node000024"><a xlink:title=" ">
<path fill="none" stroke="#63b8ff" d="M1426.5,-54.75C1426.5,-47.8 1426.5,-37.85 1426.5,-29.13"/>
<polygon fill="#63b8ff" stroke="#63b8ff" points="1430,-29.09 1426.5,-19.09 1423,-29.09 1430,-29.09"/>
</a>
</g>
</g>
<!-- Node25&#45;&gt;Node6 -->
<g id="edge37_Node000025_Node000006" class="edge">
<title>Node25&#45;&gt;Node6</title>
<g id="a_edge37_Node000025_Node000006"><a xlink:title=" ">
<path fill="none" stroke="#63b8ff" d="M1133.71,-56.37C1128.9,-55.9 1124.13,-55.44 1119.5,-55 949.07,-38.76 744.84,-20.37 666.89,-13.39"/>
<polygon fill="#63b8ff" stroke="#63b8ff" points="667.01,-9.89 656.74,-12.48 666.39,-16.86 667.01,-9.89"/>
</a>
</g>
</g>
<!-- Node25&#45;&gt;Node20 -->
<g id="edge35_Node000025_Node000020" class="edge">
<title>Node25&#45;&gt;Node20</title>
<g id="a_edge35_Node000025_Node000020"><a xlink:title=" ">
<path fill="none" stroke="#63b8ff" d="M1212.44,-54.75C1218.37,-47.26 1227.07,-36.28 1234.32,-27.13"/>
<polygon fill="#63b8ff" stroke="#63b8ff" points="1237.23,-29.1 1240.69,-19.09 1231.74,-24.75 1237.23,-29.1"/>
</a>
</g>
</g>
<!-- Node26 -->
<g id="Node000026" class="node">
<title>Node26</title>
<g id="a_Node000026"><a xlink:title=" ">
<polygon fill="#e0e0e0" stroke="#999999" points="1572,-19 1499,-19 1499,0 1572,0 1572,-19"/>
<text text-anchor="middle" x="1535.5" y="-7" font-family="Helvetica,sans-Serif" font-size="10.00">string_view</text>
</a>
</g>
</g>
<!-- Node25&#45;&gt;Node26 -->
<g id="edge36_Node000025_Node000026" class="edge">
<title>Node25&#45;&gt;Node26</title>
<g id="a_edge36_Node000025_Node000026"><a xlink:title=" ">
<path fill="none" stroke="#63b8ff" d="M1262.96,-54.97C1318.2,-46.66 1404.29,-33.43 1488.83,-19.07"/>
<polygon fill="#63b8ff" stroke="#63b8ff" points="1489.59,-22.49 1498.86,-17.36 1488.41,-15.59 1489.59,-22.49"/>
</a>
</g>
</g>
<!-- Node27 -->
<g id="Node000027" class="node">
<title>Node27</title>
<g id="a_Node000027"><a xlink:title=" ">
<polygon fill="#e0e0e0" stroke="#999999" points="1200,-19 1059,-19 1059,0 1200,0 1200,-19"/>
<text text-anchor="middle" x="1129.5" y="-7" font-family="Helvetica,sans-Serif" font-size="10.00">Thoth/NJson/StringRef.tpp</text>
</a>
</g>
</g>
<!-- Node25&#45;&gt;Node27 -->
<g id="edge38_Node000025_Node000027" class="edge">
<title>Node25&#45;&gt;Node27</title>
<g id="a_edge38_Node000025_Node000027"><a xlink:title=" ">
<path fill="none" stroke="#63b8ff" d="M1193.29,-54.98C1181.72,-46.92 1164.12,-34.65 1150.34,-25.03"/>
<polygon fill="#63b8ff" stroke="#63b8ff" points="1152.14,-22.02 1141.93,-19.17 1148.13,-27.76 1152.14,-22.02"/>
</a>
</g>
</g>
<!-- Node32 -->
<g id="Node000032" class="node">
<title>Node32</title>
<g id="a_Node000032"><a xlink:href="_method_concept_8hpp.html" target="_top" xlink:title=" ">
<polygon fill="white" stroke="#666666" points="963,-404 814,-404 814,-374 963,-374 963,-404"/>
<text text-anchor="start" x="822" y="-392" font-family="Helvetica,sans-Serif" font-size="10.00">Thoth/Http/Methods</text>
<text text-anchor="middle" x="888.5" y="-381" font-family="Helvetica,sans-Serif" font-size="10.00">/_base/MethodConcept.hpp</text>
</a>
</g>
</g>
<!-- Node31&#45;&gt;Node32 -->
<g id="edge44_Node000031_Node000032" class="edge">
<title>Node31&#45;&gt;Node32</title>
<g id="a_edge44_Node000031_Node000032"><a xlink:title=" ">
<path fill="none" stroke="#63b8ff" d="M830.92,-439.8C840.79,-431.26 853.52,-420.25 864.5,-410.75"/>
<polygon fill="#63b8ff" stroke="#63b8ff" points="866.85,-413.35 872.12,-404.16 862.27,-408.06 866.85,-413.35"/>
</a>
</g>
</g>
<!-- Node32&#45;&gt;Node4 -->
<g id="edge48_Node000032_Node000004" class="edge">
<title>Node32&#45;&gt;Node4</title>
<g id="a_edge48_Node000032_Node000004"><a xlink:title=" ">
<path fill="none" stroke="#63b8ff" d="M831.66,-373.95C791.41,-364.01 737.3,-350.64 695.2,-340.23"/>
<polygon fill="#63b8ff" stroke="#63b8ff" points="695.86,-336.79 685.32,-337.79 694.18,-343.59 695.86,-336.79"/>
</a>
</g>
</g>
<!-- Node32&#45;&gt;Node26 -->
<g id="edge57_Node000032_Node000026" class="edge">
<title>Node32&#45;&gt;Node26</title>
<g id="a_edge57_Node000032_Node000026"><a xlink:title=" ">
<path fill="none" stroke="#63b8ff" d="M963.14,-383.68C1161.99,-371.2 1689.5,-331.17 1689.5,-258 1689.5,-258 1689.5,-258 1689.5,-124 1689.5,-68.77 1624.51,-37.4 1578.97,-22.2"/>
<polygon fill="#63b8ff" stroke="#63b8ff" points="1579.89,-18.81 1569.3,-19.11 1577.76,-25.48 1579.89,-18.81"/>
</a>
</g>
</g>
<!-- Node33 -->
<g id="Node000033" class="node">
<title>Node33</title>
<g id="a_Node000033"><a xlink:href="_status_code_enum_8hpp.html" target="_top" xlink:title=" ">
<polygon fill="white" stroke="#666666" points="1136.5,-140 1012.5,-140 1012.5,-110 1136.5,-110 1136.5,-140"/>
<text text-anchor="start" x="1020.5" y="-128" font-family="Helvetica,sans-Serif" font-size="10.00">Thoth/Http/Response</text>
<text text-anchor="middle" x="1074.5" y="-117" font-family="Helvetica,sans-Serif" font-size="10.00">/StatusCodeEnum.hpp</text>
</a>
</g>
</g>
<!-- Node32&#45;&gt;Node33 -->
<g id="edge45_Node000032_Node000033" class="edge">
<title>Node32&#45;&gt;Node33</title>
<g id="a_edge45_Node000032_Node000033"><a xlink:title=" ">
<path fill="none" stroke="#63b8ff" d="M898.5,-373.91C929.03,-330.91 1021.21,-201.06 1058.54,-148.47"/>
<polygon fill="#63b8ff" stroke="#63b8ff" points="1061.52,-150.34 1064.45,-140.16 1055.81,-146.28 1061.52,-150.34"/>
</a>
</g>
</g>
<!-- Node34 -->
<g id="Node000034" class="node">
<title>Node34</title>
<g id="a_Node000034"><a xlink:href="_headers_8hpp.html" target="_top" xlink:title=" ">
<polygon fill="white" stroke="#666666" points="906,-200.5 773,-200.5 773,-181.5 906,-181.5 906,-200.5"/>
<text text-anchor="middle" x="839.5" y="-188.5" font-family="Helvetica,sans-Serif" font-size="10.00">Thoth/Http/Headers.hpp</text>
</a>
</g>
</g>
<!-- Node32&#45;&gt;Node34 -->
<g id="edge49_Node000032_Node000034" class="edge">
<title>Node32&#45;&gt;Node34</title>
<g id="a_edge49_Node000032_Node000034"><a xlink:title=" ">
<path fill="none" stroke="#63b8ff" d="M884.98,-373.9C876.29,-339.16 853.85,-249.4 844.12,-210.47"/>
<polygon fill="#63b8ff" stroke="#63b8ff" points="847.5,-209.58 841.68,-200.73 840.71,-211.28 847.5,-209.58"/>
</a>
</g>
</g>
<!-- Node33&#45;&gt;Node5 -->
<g id="edge46_Node000033_Node000005" class="edge">
<title>Node33&#45;&gt;Node5</title>
<g id="a_edge46_Node000033_Node000005"><a xlink:title=" ">
<path fill="none" stroke="#63b8ff" d="M1023.96,-109.99C987.23,-99.8 938.17,-86.2 904.01,-76.73"/>
<polygon fill="#63b8ff" stroke="#63b8ff" points="904.92,-73.35 894.35,-74.05 903.05,-80.1 904.92,-73.35"/>
</a>
</g>
</g>
<!-- Node33&#45;&gt;Node21 -->
<g id="edge47_Node000033_Node000021" class="edge">
<title>Node33&#45;&gt;Node21</title>
<g id="a_edge47_Node000033_Node000021"><a xlink:title=" ">
<path fill="none" stroke="#63b8ff" d="M1068.45,-109.84C1065.08,-101.95 1060.85,-92.05 1057.24,-83.61"/>
<polygon fill="#63b8ff" stroke="#63b8ff" points="1060.39,-82.09 1053.25,-74.27 1053.96,-84.84 1060.39,-82.09"/>
</a>
</g>
</g>
<!-- Node34&#45;&gt;Node6 -->
<g id="edge54_Node000034_Node000006" class="edge">
<title>Node34&#45;&gt;Node6</title>
<g id="a_edge54_Node000034_Node000006"><a xlink:title=" ">
<path fill="none" stroke="#63b8ff" d="M782.9,-181.5C752.49,-174.55 715.92,-162.1 689.5,-140 655.25,-111.35 641.87,-57.58 637.02,-29.18"/>
<polygon fill="#63b8ff" stroke="#63b8ff" points="640.43,-28.37 635.47,-19.01 633.52,-29.43 640.43,-28.37"/>
</a>
</g>
</g>
<!-- Node34&#45;&gt;Node8 -->
<g id="edge52_Node000034_Node000008" class="edge">
<title>Node34&#45;&gt;Node8</title>
<g id="a_edge52_Node000034_Node000008"><a xlink:title=" ">
<path fill="none" stroke="#63b8ff" d="M788.65,-181.47C739.93,-172.81 664.55,-158.1 600.5,-140 598.08,-139.32 595.59,-138.56 593.1,-137.76"/>
<polygon fill="#63b8ff" stroke="#63b8ff" points="594.2,-134.43 583.6,-134.53 591.95,-141.06 594.2,-134.43"/>
</a>
</g>
</g>
<!-- Node34&#45;&gt;Node9 -->
<g id="edge53_Node000034_Node000009" class="edge">
<title>Node34&#45;&gt;Node9</title>
<g id="a_edge53_Node000034_Node000009"><a xlink:title=" ">
<path fill="none" stroke="#63b8ff" d="M788.43,-181.47C761.62,-174.52 730.14,-162.08 709.5,-140 695.23,-124.73 689.81,-100.79 687.75,-84.18"/>
<polygon fill="#63b8ff" stroke="#63b8ff" points="691.22,-83.68 686.8,-74.06 684.25,-84.34 691.22,-83.68"/>
</a>
</g>
</g>
<!-- Node34&#45;&gt;Node21 -->
<g id="edge51_Node000034_Node000021" class="edge">
<title>Node34&#45;&gt;Node21</title>
<g id="a_edge51_Node000034_Node000021"><a xlink:title=" ">
<path fill="none" stroke="#63b8ff" d="M854.85,-181.47C872.47,-171.64 902.22,-154.9 927.5,-140 962.58,-119.33 1002.79,-94.56 1027.16,-79.43"/>
<polygon fill="#63b8ff" stroke="#63b8ff" points="1029.04,-82.39 1035.68,-74.13 1025.34,-76.44 1029.04,-82.39"/>
</a>
</g>
</g>
<!-- Node34&#45;&gt;Node33 -->
<g id="edge50_Node000034_Node000033" class="edge">
<title>Node34&#45;&gt;Node33</title>
<g id="a_edge50_Node000034_Node000033"><a xlink:title=" ">
<path fill="none" stroke="#63b8ff" d="M871.19,-181.37C907.38,-171.51 967.43,-155.16 1012.91,-142.77"/>
<polygon fill="#63b8ff" stroke="#63b8ff" points="1013.94,-146.12 1022.67,-140.12 1012.1,-139.37 1013.94,-146.12"/>
</a>
</g>
</g>
<!-- Node35 -->
<g id="Node000035" class="node">
<title>Node35</title>
<g id="a_Node000035"><a xlink:title=" ">
<polygon fill="#e0e0e0" stroke="#999999" points="918.5,-134.5 868.5,-134.5 868.5,-115.5 918.5,-115.5 918.5,-134.5"/>
<text text-anchor="middle" x="893.5" y="-122.5" font-family="Helvetica,sans-Serif" font-size="10.00">ranges</text>
</a>
</g>
</g>
<!-- Node34&#45;&gt;Node35 -->
<g id="edge55_Node000034_Node000035" class="edge">
<title>Node34&#45;&gt;Node35</title>
<g id="a_edge55_Node000034_Node000035"><a xlink:title=" ">
<path fill="none" stroke="#63b8ff" d="M846.78,-181.37C855.11,-171.5 868.94,-155.11 879.39,-142.72"/>
<polygon fill="#63b8ff" stroke="#63b8ff" points="882.21,-144.81 885.99,-134.91 876.86,-140.29 882.21,-144.81"/>
</a>
</g>
</g>
<!-- Node36 -->
<g id="Node000036" class="node">
<title>Node36</title>
<g id="a_Node000036"><a xlink:title=" ">
<polygon fill="#e0e0e0" stroke="#999999" points="850,-134.5 719,-134.5 719,-115.5 850,-115.5 850,-134.5"/>
<text text-anchor="middle" x="784.5" y="-122.5" font-family="Helvetica,sans-Serif" font-size="10.00">Thoth/Http/Headers.tpp</text>
</a>
</g>
</g>
<!-- Node34&#45;&gt;Node36 -->
<g id="edge56_Node000034_Node000036" class="edge">
<title>Node34&#45;&gt;Node36</title>
<g id="a_edge56_Node000034_Node000036"><a xlink:title=" ">
<path fill="none" stroke="#63b8ff" d="M832.08,-181.37C823.6,-171.5 809.52,-155.11 798.87,-142.72"/>
<polygon fill="#63b8ff" stroke="#63b8ff" points="801.33,-140.21 792.15,-134.91 796.02,-144.77 801.33,-140.21"/>
</a>
</g>
</g>
<!-- Node37&#45;&gt;Node32 -->
<g id="edge59_Node000037_Node000032" class="edge">
<title>Node37&#45;&gt;Node32</title>
<g id="a_edge59_Node000037_Node000032"><a xlink:title=" ">
<path fill="none" stroke="#63b8ff" d="M932.85,-439.8C925.54,-431.59 916.2,-421.1 907.98,-411.87"/>
<polygon fill="#63b8ff" stroke="#63b8ff" points="910.38,-409.3 901.11,-404.16 905.15,-413.96 910.38,-409.3"/>
</a>
</g>
</g>
</g>
</svg>
