<?xml version="1.0" encoding="UTF-8" standalone="no"?>
<!DOCTYPE svg PUBLIC "-//W3C//DTD SVG 1.1//EN"
 "http://www.w3.org/Graphics/SVG/1.1/DTD/svg11.dtd">
<!-- Generated by graphviz version 2.43.0 (0)
 -->
<!-- Title: include/Thoth/Http/Client.hpp Pages: 1 -->
<svg width="939pt" height="489pt"
 viewBox="0.00 0.00 939.00 489.00" xmlns="http://www.w3.org/2000/svg" xmlns:xlink="http://www.w3.org/1999/xlink">
<g id="graph0" class="graph" transform="scale(1 1) rotate(0) translate(4 485)">
<title>include/Thoth/Http/Client.hpp</title>
<!-- Node1 -->
<g id="Node000001" class="node">
<title>Node1</title>
<g id="a_Node000001"><a xlink:title=" ">
<polygon fill="#999999" stroke="#666666" points="530,-481 423,-481 423,-451 530,-451 530,-481"/>
<text text-anchor="start" x="431" y="-469" font-family="Helvetica,sans-Serif" font-size="10.00">include/Thoth/Http</text>
<text text-anchor="middle" x="476.5" y="-458" font-family="Helvetica,sans-Serif" font-size="10.00">/Client.hpp</text>
</a>
</g>
</g>
<!-- Node2 -->
<g id="Node000002" class="node">
<title>Node2</title>
<g id="a_Node000002"><a xlink:title=" ">
<polygon fill="#e0e0e0" stroke="#999999" points="175,-343.5 0,-343.5 0,-324.5 175,-324.5 175,-343.5"/>
<text text-anchor="middle" x="87.5" y="-331.5" font-family="Helvetica,sans-Serif" font-size="10.00">Hermes/Socket/ClientSocket.hpp</text>
</a>
</g>
</g>
<!-- Node1&#45;&gt;Node2 -->
<g id="edge1_Node000001_Node000002" class="edge">
<title>Node1&#45;&gt;Node2</title>
<g id="a_edge1_Node000001_Node000002"><a xlink:title=" ">
<path fill="none" stroke="#63b8ff" d="M422.95,-457.08C376.09,-449.25 306.6,-435.46 248.5,-415 197.23,-396.95 141.21,-366.43 110.63,-348.77"/>
<polygon fill="#63b8ff" stroke="#63b8ff" points="112.03,-345.53 101.63,-343.52 108.5,-351.58 112.03,-345.53"/>
</a>
</g>
</g>
<!-- Node3 -->
<g id="Node000003" class="node">
<title>Node3</title>
<g id="a_Node000003"><a xlink:href="_request_8hpp.html" target="_top" xlink:title=" ">
<polygon fill="white" stroke="#666666" points="369,-415 258,-415 258,-385 369,-385 369,-415"/>
<text text-anchor="start" x="266" y="-403" font-family="Helvetica,sans-Serif" font-size="10.00">Thoth/Http/Request</text>
<text text-anchor="middle" x="313.5" y="-392" font-family="Helvetica,sans-Serif" font-size="10.00">/Request.hpp</text>
</a>
</g>
</g>
<!-- Node1&#45;&gt;Node3 -->
<g id="edge2_Node000001_Node000003" class="edge">
<title>Node1&#45;&gt;Node3</title>
<g id="a_edge2_Node000001_Node000003"><a xlink:title=" ">
<path fill="none" stroke="#63b8ff" d="M440.73,-450.95C416.63,-441.49 384.65,-428.93 358.77,-418.78"/>
<polygon fill="#63b8ff" stroke="#63b8ff" points="359.77,-415.41 349.19,-415.01 357.22,-421.93 359.77,-415.41"/>
</a>
</g>
</g>
<!-- Node29 -->
<g id="Node000029" class="node">
<title>Node29</title>
<g id="a_Node000029"><a xlink:title=" ">
<polygon fill="#e0e0e0" stroke="#999999" points="433.5,-409.5 387.5,-409.5 387.5,-390.5 433.5,-390.5 433.5,-409.5"/>
<text text-anchor="middle" x="410.5" y="-397.5" font-family="Helvetica,sans-Serif" font-size="10.00">future</text>
</a>
</g>
</g>
<!-- Node1&#45;&gt;Node29 -->
<g id="edge39_Node000001_Node000029" class="edge">
<title>Node1&#45;&gt;Node29</title>
<g id="a_edge39_Node000001_Node000029"><a xlink:title=" ">
<path fill="none" stroke="#63b8ff" d="M461.85,-450.8C451.56,-440.82 437.78,-427.46 427.09,-417.09"/>
<polygon fill="#63b8ff" stroke="#63b8ff" points="429.24,-414.29 419.62,-409.84 424.36,-419.32 429.24,-414.29"/>
</a>
</g>
</g>
<!-- Node30 -->
<g id="Node000030" class="node">
<title>Node30</title>
<g id="a_Node000030"><a xlink:title=" ">
<polygon fill="#e0e0e0" stroke="#999999" points="501.5,-409.5 451.5,-409.5 451.5,-390.5 501.5,-390.5 501.5,-409.5"/>
<text text-anchor="middle" x="476.5" y="-397.5" font-family="Helvetica,sans-Serif" font-size="10.00">chrono</text>
</a>
</g>
</g>
<!-- Node1&#45;&gt;Node30 -->
<g id="edge40_Node000001_Node000030" class="edge">
<title>Node1&#45;&gt;Node30</title>
<g id="a_edge40_Node000001_Node000030"><a xlink:title=" ">
<path fill="none" stroke="#63b8ff" d="M476.5,-450.8C476.5,-441.7 476.5,-429.79 476.5,-419.9"/>
<polygon fill="#63b8ff" stroke="#63b8ff" points="480,-419.84 476.5,-409.84 473,-419.84 480,-419.84"/>
</a>
</g>
</g>
<!-- Node31 -->
<g id="Node000031" class="node">
<title>Node31</title>
<g id="a_Node000031"><a xlink:title=" ">
<polygon fill="#e0e0e0" stroke="#999999" points="569.5,-409.5 519.5,-409.5 519.5,-390.5 569.5,-390.5 569.5,-409.5"/>
<text text-anchor="middle" x="544.5" y="-397.5" font-family="Helvetica,sans-Serif" font-size="10.00">atomic</text>
</a>
</g>
</g>
<!-- Node1&#45;&gt;Node31 -->
<g id="edge41_Node000001_Node000031" class="edge">
<title>Node1&#45;&gt;Node31</title>
<g id="a_edge41_Node000001_Node000031"><a xlink:title=" ">
<path fill="none" stroke="#63b8ff" d="M491.59,-450.8C502.3,-440.72 516.67,-427.19 527.73,-416.78"/>
<polygon fill="#63b8ff" stroke="#63b8ff" points="530.22,-419.25 535.1,-409.84 525.42,-414.15 530.22,-419.25"/>
</a>
</g>
</g>
<!-- Node32 -->
<g id="Node000032" class="node">
<title>Node32</title>
<g id="a_Node000032"><a xlink:title=" ">
<polygon fill="#e0e0e0" stroke="#999999" points="635.5,-409.5 587.5,-409.5 587.5,-390.5 635.5,-390.5 635.5,-409.5"/>
<text text-anchor="middle" x="611.5" y="-397.5" font-family="Helvetica,sans-Serif" font-size="10.00">mutex</text>
</a>
</g>
</g>
<!-- Node1&#45;&gt;Node32 -->
<g id="edge42_Node000001_Node000032" class="edge">
<title>Node1&#45;&gt;Node32</title>
<g id="a_edge42_Node000001_Node000032"><a xlink:title=" ">
<path fill="none" stroke="#63b8ff" d="M506.13,-450.95C529.49,-439.88 561.8,-424.56 584.47,-413.82"/>
<polygon fill="#63b8ff" stroke="#63b8ff" points="586,-416.96 593.53,-409.52 583,-410.64 586,-416.96"/>
</a>
</g>
</g>
<!-- Node33 -->
<g id="Node000033" class="node">
<title>Node33</title>
<g id="a_Node000033"><a xlink:title=" ">
<polygon fill="#e0e0e0" stroke="#999999" points="773,-409.5 654,-409.5 654,-390.5 773,-390.5 773,-409.5"/>
<text text-anchor="middle" x="713.5" y="-397.5" font-family="Helvetica,sans-Serif" font-size="10.00">Thoth/Http/Client.tpp</text>
</a>
</g>
</g>
<!-- Node1&#45;&gt;Node33 -->
<g id="edge43_Node000001_Node000033" class="edge">
<title>Node1&#45;&gt;Node33</title>
<g id="a_edge43_Node000001_Node000033"><a xlink:title=" ">
<path fill="none" stroke="#63b8ff" d="M528.51,-450.95C571.72,-439.29 632.37,-422.91 672.28,-412.13"/>
<polygon fill="#63b8ff" stroke="#63b8ff" points="673.22,-415.5 681.96,-409.52 671.39,-408.75 673.22,-415.5"/>
</a>
</g>
</g>
<!-- Node3&#45;&gt;Node2 -->
<g id="edge3_Node000003_Node000002" class="edge">
<title>Node3&#45;&gt;Node2</title>
<g id="a_edge3_Node000003_Node000002"><a xlink:title=" ">
<path fill="none" stroke="#63b8ff" d="M263.9,-384.95C222.87,-373.34 165.35,-357.05 127.29,-346.27"/>
<polygon fill="#63b8ff" stroke="#63b8ff" points="128.15,-342.87 117.58,-343.52 126.24,-349.61 128.15,-342.87"/>
</a>
</g>
</g>
<!-- Node4 -->
<g id="Node000004" class="node">
<title>Node4</title>
<g id="a_Node000004"><a xlink:href="_url_8hpp.html" target="_top" xlink:title=" ">
<polygon fill="white" stroke="#666666" points="650,-217 539,-217 539,-187 650,-187 650,-217"/>
<text text-anchor="start" x="547" y="-205" font-family="Helvetica,sans-Serif" font-size="10.00">Thoth/Http/Request</text>
<text text-anchor="middle" x="594.5" y="-194" font-family="Helvetica,sans-Serif" font-size="10.00">/Url.hpp</text>
</a>
</g>
</g>
<!-- Node3&#45;&gt;Node4 -->
<g id="edge4_Node000003_Node000004" class="edge">
<title>Node3&#45;&gt;Node4</title>
<g id="a_edge4_Node000003_Node000004"><a xlink:title=" ">
<path fill="none" stroke="#63b8ff" d="M369.15,-386.9C372.31,-386.25 375.44,-385.61 378.5,-385 465.36,-367.67 513.31,-413.04 574.5,-349 605.62,-316.43 603.39,-259.58 598.97,-227.27"/>
<polygon fill="#63b8ff" stroke="#63b8ff" points="602.42,-226.67 597.43,-217.33 595.5,-227.74 602.42,-226.67"/>
</a>
</g>
</g>
<!-- Node19 -->
<g id="Node000019" class="node">
<title>Node19</title>
<g id="a_Node000019"><a xlink:href="_get_method_8hpp.html" target="_top" xlink:title=" ">
<polygon fill="white" stroke="#666666" points="566,-349 453,-349 453,-319 566,-319 566,-349"/>
<text text-anchor="start" x="461" y="-337" font-family="Helvetica,sans-Serif" font-size="10.00">Thoth/Http/Methods</text>
<text text-anchor="middle" x="509.5" y="-326" font-family="Helvetica,sans-Serif" font-size="10.00">/GetMethod.hpp</text>
</a>
</g>
</g>
<!-- Node3&#45;&gt;Node19 -->
<g id="edge21_Node000003_Node000019" class="edge">
<title>Node3&#45;&gt;Node19</title>
<g id="a_edge21_Node000003_Node000019"><a xlink:title=" ">
<path fill="none" stroke="#63b8ff" d="M356.51,-384.95C386,-375.33 425.31,-362.49 456.7,-352.24"/>
<polygon fill="#63b8ff" stroke="#63b8ff" points="458.17,-355.44 466.59,-349.01 455.99,-348.79 458.17,-355.44"/>
</a>
</g>
</g>
<!-- Node27 -->
<g id="Node000027" class="node">
<title>Node27</title>
<g id="a_Node000027"><a xlink:href="_post_method_8hpp.html" target="_top" xlink:title=" ">
<polygon fill="white" stroke="#666666" points="435,-349 322,-349 322,-319 435,-319 435,-349"/>
<text text-anchor="start" x="330" y="-337" font-family="Helvetica,sans-Serif" font-size="10.00">Thoth/Http/Methods</text>
<text text-anchor="middle" x="378.5" y="-326" font-family="Helvetica,sans-Serif" font-size="10.00">/PostMethod.hpp</text>
</a>
</g>
</g>
<!-- Node3&#45;&gt;Node27 -->
<g id="edge36_Node000003_Node000027" class="edge">
<title>Node3&#45;&gt;Node27</title>
<g id="a_edge36_Node000003_Node000027"><a xlink:title=" ">
<path fill="none" stroke="#63b8ff" d="M327.93,-384.8C336.43,-376.43 347.34,-365.68 356.86,-356.31"/>
<polygon fill="#63b8ff" stroke="#63b8ff" points="359.44,-358.67 364.11,-349.16 354.53,-353.69 359.44,-358.67"/>
</a>
</g>
</g>
<!-- Node28 -->
<g id="Node000028" class="node">
<title>Node28</title>
<g id="a_Node000028"><a xlink:title=" ">
<polygon fill="#e0e0e0" stroke="#999999" points="304,-349 193,-349 193,-319 304,-319 304,-349"/>
<text text-anchor="start" x="201" y="-337" font-family="Helvetica,sans-Serif" font-size="10.00">Thoth/Http/Request</text>
<text text-anchor="middle" x="248.5" y="-326" font-family="Helvetica,sans-Serif" font-size="10.00">/Request.tpp</text>
</a>
</g>
</g>
<!-- Node3&#45;&gt;Node28 -->
<g id="edge38_Node000003_Node000028" class="edge">
<title>Node3&#45;&gt;Node28</title>
<g id="a_edge38_Node000003_Node000028"><a xlink:title=" ">
<path fill="none" stroke="#63b8ff" d="M299.07,-384.8C290.57,-376.43 279.66,-365.68 270.14,-356.31"/>
<polygon fill="#63b8ff" stroke="#63b8ff" points="272.47,-353.69 262.89,-349.16 267.56,-358.67 272.47,-353.69"/>
</a>
</g>
</g>
<!-- Node5 -->
<g id="Node000005" class="node">
<title>Node5</title>
<g id="a_Node000005"><a xlink:title=" ">
<polygon fill="#e0e0e0" stroke="#999999" points="868.5,-79.5 824.5,-79.5 824.5,-60.5 868.5,-60.5 868.5,-79.5"/>
<text text-anchor="middle" x="846.5" y="-67.5" font-family="Helvetica,sans-Serif" font-size="10.00">string</text>
</a>
</g>
</g>
<!-- Node4&#45;&gt;Node5 -->
<g id="edge5_Node000004_Node000005" class="edge">
<title>Node4&#45;&gt;Node5</title>
<g id="a_edge5_Node000004_Node000005"><a xlink:title=" ">
<path fill="none" stroke="#63b8ff" d="M650.16,-195.75C710.58,-188.91 801.78,-174.93 826.5,-151 842.86,-135.17 846.61,-108.14 847.11,-89.93"/>
<polygon fill="#63b8ff" stroke="#63b8ff" points="850.61,-89.91 847.08,-79.92 843.61,-89.93 850.61,-89.91"/>
</a>
</g>
</g>
<!-- Node6 -->
<g id="Node000006" class="node">
<title>Node6</title>
<g id="a_Node000006"><a xlink:href="_query_params_8hpp.html" target="_top" xlink:title=" ">
<polygon fill="white" stroke="#666666" points="650,-151 539,-151 539,-121 650,-121 650,-151"/>
<text text-anchor="start" x="547" y="-139" font-family="Helvetica,sans-Serif" font-size="10.00">Thoth/Http/Request</text>
<text text-anchor="middle" x="594.5" y="-128" font-family="Helvetica,sans-Serif" font-size="10.00">/QueryParams.hpp</text>
</a>
</g>
</g>
<!-- Node4&#45;&gt;Node6 -->
<g id="edge6_Node000004_Node000006" class="edge">
<title>Node4&#45;&gt;Node6</title>
<g id="a_edge6_Node000004_Node000006"><a xlink:title=" ">
<path fill="none" stroke="#63b8ff" d="M594.5,-186.8C594.5,-179.34 594.5,-169.99 594.5,-161.41"/>
<polygon fill="#63b8ff" stroke="#63b8ff" points="598,-161.16 594.5,-151.16 591,-161.16 598,-161.16"/>
</a>
</g>
</g>
<!-- Node18 -->
<g id="Node000018" class="node">
<title>Node18</title>
<g id="a_Node000018"><a xlink:title=" ">
<polygon fill="#e0e0e0" stroke="#999999" points="818,-151 707,-151 707,-121 818,-121 818,-151"/>
<text text-anchor="start" x="715" y="-139" font-family="Helvetica,sans-Serif" font-size="10.00">Thoth/Http/Request</text>
<text text-anchor="middle" x="762.5" y="-128" font-family="Helvetica,sans-Serif" font-size="10.00">/Url.tpp</text>
</a>
</g>
</g>
<!-- Node4&#45;&gt;Node18 -->
<g id="edge20_Node000004_Node000018" class="edge">
<title>Node4&#45;&gt;Node18</title>
<g id="a_edge20_Node000004_Node000018"><a xlink:title=" ">
<path fill="none" stroke="#63b8ff" d="M631.37,-186.95C656.32,-177.45 689.46,-164.82 716.19,-154.64"/>
<polygon fill="#63b8ff" stroke="#63b8ff" points="717.62,-157.84 725.72,-151.01 715.13,-151.3 717.62,-157.84"/>
</a>
</g>
</g>
<!-- Node6&#45;&gt;Node5 -->
<g id="edge10_Node000006_Node000005" class="edge">
<title>Node6&#45;&gt;Node5</title>
<g id="a_edge10_Node000006_Node000005"><a xlink:title=" ">
<path fill="none" stroke="#63b8ff" d="M650.04,-123.77C705.06,-112.4 785.33,-95.11 815.5,-85 816.9,-84.53 818.32,-84.02 819.75,-83.48"/>
<polygon fill="#63b8ff" stroke="#63b8ff" points="821.15,-86.69 829.04,-79.62 818.46,-80.22 821.15,-86.69"/>
</a>
</g>
</g>
<!-- Node7 -->
<g id="Node000007" class="node">
<title>Node7</title>
<g id="a_Node000007"><a xlink:title=" ">
<polygon fill="#e0e0e0" stroke="#999999" points="355.5,-79.5 299.5,-79.5 299.5,-60.5 355.5,-60.5 355.5,-79.5"/>
<text text-anchor="middle" x="327.5" y="-67.5" font-family="Helvetica,sans-Serif" font-size="10.00">optional</text>
</a>
</g>
</g>
<!-- Node6&#45;&gt;Node7 -->
<g id="edge7_Node000006_Node000007" class="edge">
<title>Node6&#45;&gt;Node7</title>
<g id="a_edge7_Node000006_Node000007"><a xlink:title=" ">
<path fill="none" stroke="#63b8ff" d="M538.62,-125.25C491.68,-116.48 423.08,-102.35 364.5,-85 362.36,-84.37 360.17,-83.67 357.97,-82.93"/>
<polygon fill="#63b8ff" stroke="#63b8ff" points="359.04,-79.6 348.45,-79.54 356.69,-86.19 359.04,-79.6"/>
</a>
</g>
</g>
<!-- Node8 -->
<g id="Node000008" class="node">
<title>Node8</title>
<g id="a_Node000008"><a xlink:title=" ">
<polygon fill="#e0e0e0" stroke="#999999" points="423.5,-79.5 373.5,-79.5 373.5,-60.5 423.5,-60.5 423.5,-79.5"/>
<text text-anchor="middle" x="398.5" y="-67.5" font-family="Helvetica,sans-Serif" font-size="10.00">format</text>
</a>
</g>
</g>
<!-- Node6&#45;&gt;Node8 -->
<g id="edge8_Node000006_Node000008" class="edge">
<title>Node6&#45;&gt;Node8</title>
<g id="a_edge8_Node000006_Node000008"><a xlink:title=" ">
<path fill="none" stroke="#63b8ff" d="M549.01,-120.99C517.59,-111.2 474.89,-97.66 437.5,-85 435.61,-84.36 433.67,-83.69 431.72,-83.02"/>
<polygon fill="#63b8ff" stroke="#63b8ff" points="432.56,-79.6 421.96,-79.58 430.23,-86.2 432.56,-79.6"/>
</a>
</g>
</g>
<!-- Node9 -->
<g id="Node000009" class="node">
<title>Node9</title>
<g id="a_Node000009"><a xlink:title=" ">
<polygon fill="#e0e0e0" stroke="#999999" points="472,-19 425,-19 425,0 472,0 472,-19"/>
<text text-anchor="middle" x="448.5" y="-7" font-family="Helvetica,sans-Serif" font-size="10.00">vector</text>
</a>
</g>
</g>
<!-- Node6&#45;&gt;Node9 -->
<g id="edge9_Node000006_Node000009" class="edge">
<title>Node6&#45;&gt;Node9</title>
<g id="a_edge9_Node000006_Node000009"><a xlink:title=" ">
<path fill="none" stroke="#63b8ff" d="M538.79,-124C514.83,-116.65 488.29,-104.59 470.5,-85 456.5,-69.59 451.39,-45.67 449.53,-29.11"/>
<polygon fill="#63b8ff" stroke="#63b8ff" points="453.01,-28.7 448.7,-19.02 446.03,-29.27 453.01,-28.7"/>
</a>
</g>
</g>
<!-- Node10 -->
<g id="Node000010" class="node">
<title>Node10</title>
<g id="a_Node000010"><a xlink:title=" ">
<polygon fill="#e0e0e0" stroke="#999999" points="806.5,-79.5 768.5,-79.5 768.5,-60.5 806.5,-60.5 806.5,-79.5"/>
<text text-anchor="middle" x="787.5" y="-67.5" font-family="Helvetica,sans-Serif" font-size="10.00">map</text>
</a>
</g>
</g>
<!-- Node6&#45;&gt;Node10 -->
<g id="edge11_Node000006_Node000010" class="edge">
<title>Node6&#45;&gt;Node10</title>
<g id="a_edge11_Node000006_Node000010"><a xlink:title=" ">
<path fill="none" stroke="#63b8ff" d="M648.02,-120.93C680.41,-111.87 722.32,-99.15 758.5,-85 759.52,-84.6 760.54,-84.19 761.58,-83.75"/>
<polygon fill="#63b8ff" stroke="#63b8ff" points="763.14,-86.89 770.83,-79.59 760.27,-80.5 763.14,-86.89"/>
</a>
</g>
</g>
<!-- Node11 -->
<g id="Node000011" class="node">
<title>Node11</title>
<g id="a_Node000011"><a xlink:href="_linear_map_8hpp.html" target="_top" xlink:title=" ">
<polygon fill="white" stroke="#666666" points="750,-79.5 609,-79.5 609,-60.5 750,-60.5 750,-79.5"/>
<text text-anchor="middle" x="679.5" y="-67.5" font-family="Helvetica,sans-Serif" font-size="10.00">Thoth/Dsa/LinearMap.hpp</text>
</a>
</g>
</g>
<!-- Node6&#45;&gt;Node11 -->
<g id="edge12_Node000006_Node000011" class="edge">
<title>Node6&#45;&gt;Node11</title>
<g id="a_edge12_Node000006_Node000011"><a xlink:title=" ">
<path fill="none" stroke="#63b8ff" d="M613.36,-120.8C627.14,-110.43 645.76,-96.4 659.74,-85.88"/>
<polygon fill="#63b8ff" stroke="#63b8ff" points="661.87,-88.66 667.75,-79.84 657.66,-83.06 661.87,-88.66"/>
</a>
</g>
</g>
<!-- Node17 -->
<g id="Node000017" class="node">
<title>Node17</title>
<g id="a_Node000017"><a xlink:title=" ">
<polygon fill="#e0e0e0" stroke="#999999" points="591,-85 480,-85 480,-55 591,-55 591,-85"/>
<text text-anchor="start" x="488" y="-73" font-family="Helvetica,sans-Serif" font-size="10.00">Thoth/Http/Request</text>
<text text-anchor="middle" x="535.5" y="-62" font-family="Helvetica,sans-Serif" font-size="10.00">/QueryParams.tpp</text>
</a>
</g>
</g>
<!-- Node6&#45;&gt;Node17 -->
<g id="edge19_Node000006_Node000017" class="edge">
<title>Node6&#45;&gt;Node17</title>
<g id="a_edge19_Node000006_Node000017"><a xlink:title=" ">
<path fill="none" stroke="#63b8ff" d="M581.41,-120.8C573.77,-112.51 563.98,-101.89 555.4,-92.59"/>
<polygon fill="#63b8ff" stroke="#63b8ff" points="557.91,-90.14 548.56,-85.16 552.76,-94.89 557.91,-90.14"/>
</a>
</g>
</g>
<!-- Node11&#45;&gt;Node9 -->
<g id="edge13_Node000011_Node000009" class="edge">
<title>Node11&#45;&gt;Node9</title>
<g id="a_edge13_Node000011_Node000009"><a xlink:title=" ">
<path fill="none" stroke="#63b8ff" d="M645.5,-60.47C607.98,-51.04 545.52,-35.31 482.07,-19.14"/>
<polygon fill="#63b8ff" stroke="#63b8ff" points="482.84,-15.72 472.29,-16.64 481.11,-22.5 482.84,-15.72"/>
</a>
</g>
</g>
<!-- Node12 -->
<g id="Node000012" class="node">
<title>Node12</title>
<g id="a_Node000012"><a xlink:title=" ">
<polygon fill="#e0e0e0" stroke="#999999" points="931,-19 886,-19 886,0 931,0 931,-19"/>
<text text-anchor="middle" x="908.5" y="-7" font-family="Helvetica,sans-Serif" font-size="10.00">utility</text>
</a>
</g>
</g>
<!-- Node11&#45;&gt;Node12 -->
<g id="edge14_Node000011_Node000012" class="edge">
<title>Node11&#45;&gt;Node12</title>
<g id="a_edge14_Node000011_Node000012"><a xlink:title=" ">
<path fill="none" stroke="#63b8ff" d="M714.25,-60.45C751.82,-51.16 813.72,-35.7 875.86,-19.4"/>
<polygon fill="#63b8ff" stroke="#63b8ff" points="877.05,-22.7 885.83,-16.77 875.27,-15.93 877.05,-22.7"/>
</a>
</g>
</g>
<!-- Node13 -->
<g id="Node000013" class="node">
<title>Node13</title>
<g id="a_Node000013"><a xlink:title=" ">
<polygon fill="#e0e0e0" stroke="#999999" points="550.5,-19 490.5,-19 490.5,0 550.5,0 550.5,-19"/>
<text text-anchor="middle" x="520.5" y="-7" font-family="Helvetica,sans-Serif" font-size="10.00">concepts</text>
</a>
</g>
</g>
<!-- Node11&#45;&gt;Node13 -->
<g id="edge15_Node000011_Node000013" class="edge">
<title>Node11&#45;&gt;Node13</title>
<g id="a_edge15_Node000011_Node000013"><a xlink:title=" ">
<path fill="none" stroke="#63b8ff" d="M656.38,-60.49C629.18,-50.49 583.83,-33.8 553.08,-22.49"/>
<polygon fill="#63b8ff" stroke="#63b8ff" points="554.24,-19.18 543.65,-19.02 551.82,-25.75 554.24,-19.18"/>
</a>
</g>
</g>
<!-- Node14 -->
<g id="Node000014" class="node">
<title>Node14</title>
<g id="a_Node000014"><a xlink:title=" ">
<polygon fill="#e0e0e0" stroke="#999999" points="634,-19 569,-19 569,0 634,0 634,-19"/>
<text text-anchor="middle" x="601.5" y="-7" font-family="Helvetica,sans-Serif" font-size="10.00">functional</text>
</a>
</g>
</g>
<!-- Node11&#45;&gt;Node14 -->
<g id="edge16_Node000011_Node000014" class="edge">
<title>Node11&#45;&gt;Node14</title>
<g id="a_edge16_Node000011_Node000014"><a xlink:title=" ">
<path fill="none" stroke="#63b8ff" d="M667.99,-60.37C655.66,-51.12 635.88,-36.28 621.09,-25.19"/>
<polygon fill="#63b8ff" stroke="#63b8ff" points="623.16,-22.37 613.06,-19.17 618.96,-27.97 623.16,-22.37"/>
</a>
</g>
</g>
<!-- Node15 -->
<g id="Node000015" class="node">
<title>Node15</title>
<g id="a_Node000015"><a xlink:title=" ">
<polygon fill="#e0e0e0" stroke="#999999" points="711,-19 652,-19 652,0 711,0 711,-19"/>
<text text-anchor="middle" x="681.5" y="-7" font-family="Helvetica,sans-Serif" font-size="10.00">compare</text>
</a>
</g>
</g>
<!-- Node11&#45;&gt;Node15 -->
<g id="edge17_Node000011_Node000015" class="edge">
<title>Node11&#45;&gt;Node15</title>
<g id="a_edge17_Node000011_Node000015"><a xlink:title=" ">
<path fill="none" stroke="#63b8ff" d="M679.8,-60.37C680.07,-52.25 680.5,-39.81 680.85,-29.39"/>
<polygon fill="#63b8ff" stroke="#63b8ff" points="684.36,-29.28 681.2,-19.17 677.36,-29.04 684.36,-29.28"/>
</a>
</g>
</g>
<!-- Node16 -->
<g id="Node000016" class="node">
<title>Node16</title>
<g id="a_Node000016"><a xlink:title=" ">
<polygon fill="#e0e0e0" stroke="#999999" points="868,-19 729,-19 729,0 868,0 868,-19"/>
<text text-anchor="middle" x="798.5" y="-7" font-family="Helvetica,sans-Serif" font-size="10.00">Thoth/Dsa/LinearMap.tpp</text>
</a>
</g>
</g>
<!-- Node11&#45;&gt;Node16 -->
<g id="edge18_Node000011_Node000016" class="edge">
<title>Node11&#45;&gt;Node16</title>
<g id="a_edge18_Node000011_Node000016"><a xlink:title=" ">
<path fill="none" stroke="#63b8ff" d="M696.8,-60.49C716.55,-50.79 749.05,-34.81 771.99,-23.53"/>
<polygon fill="#63b8ff" stroke="#63b8ff" points="773.75,-26.57 781.18,-19.02 770.66,-20.29 773.75,-26.57"/>
</a>
</g>
</g>
<!-- Node20 -->
<g id="Node000020" class="node">
<title>Node20</title>
<g id="a_Node000020"><a xlink:href="_method_concept_8hpp.html" target="_top" xlink:title=" ">
<polygon fill="white" stroke="#666666" points="453,-283 304,-283 304,-253 453,-253 453,-283"/>
<text text-anchor="start" x="312" y="-271" font-family="Helvetica,sans-Serif" font-size="10.00">Thoth/Http/Methods</text>
<text text-anchor="middle" x="378.5" y="-260" font-family="Helvetica,sans-Serif" font-size="10.00">/_base/MethodConcept.hpp</text>
</a>
</g>
</g>
<!-- Node19&#45;&gt;Node20 -->
<g id="edge22_Node000019_Node000020" class="edge">
<title>Node19&#45;&gt;Node20</title>
<g id="a_edge22_Node000019_Node000020"><a xlink:title=" ">
<path fill="none" stroke="#63b8ff" d="M480.75,-318.95C461.81,-309.7 436.81,-297.49 416.27,-287.45"/>
<polygon fill="#63b8ff" stroke="#63b8ff" points="417.7,-284.26 407.18,-283.01 414.63,-290.55 417.7,-284.26"/>
</a>
</g>
</g>
<!-- Node20&#45;&gt;Node4 -->
<g id="edge26_Node000020_Node000004" class="edge">
<title>Node20&#45;&gt;Node4</title>
<g id="a_edge26_Node000020_Node000004"><a xlink:title=" ">
<path fill="none" stroke="#63b8ff" d="M425.9,-252.95C458.68,-243.24 502.47,-230.27 537.21,-219.98"/>
<polygon fill="#63b8ff" stroke="#63b8ff" points="538.61,-223.21 547.21,-217.01 536.63,-216.5 538.61,-223.21"/>
</a>
</g>
</g>
<!-- Node21 -->
<g id="Node000021" class="node">
<title>Node21</title>
<g id="a_Node000021"><a xlink:href="_status_code_enum_8hpp.html" target="_top" xlink:title=" ">
<polygon fill="white" stroke="#666666" points="188.5,-151 64.5,-151 64.5,-121 188.5,-121 188.5,-151"/>
<text text-anchor="start" x="72.5" y="-139" font-family="Helvetica,sans-Serif" font-size="10.00">Thoth/Http/Response</text>
<text text-anchor="middle" x="126.5" y="-128" font-family="Helvetica,sans-Serif" font-size="10.00">/StatusCodeEnum.hpp</text>
</a>
</g>
</g>
<!-- Node20&#45;&gt;Node21 -->
<g id="edge23_Node000020_Node000021" class="edge">
<title>Node20&#45;&gt;Node21</title>
<g id="a_edge23_Node000020_Node000021"><a xlink:title=" ">
<path fill="none" stroke="#63b8ff" d="M356.26,-252.98C340.95,-243.18 320.25,-229.64 302.5,-217 284.69,-204.32 282.66,-197.54 263.5,-187 239.12,-173.59 210.42,-162.48 185.6,-154.16"/>
<polygon fill="#63b8ff" stroke="#63b8ff" points="186.54,-150.79 175.94,-151 184.36,-157.44 186.54,-150.79"/>
</a>
</g>
</g>
<!-- Node23 -->
<g id="Node000023" class="node">
<title>Node23</title>
<g id="a_Node000023"><a xlink:href="_headers_8hpp.html" target="_top" xlink:title=" ">
<polygon fill="white" stroke="#666666" points="445,-211.5 312,-211.5 312,-192.5 445,-192.5 445,-211.5"/>
<text text-anchor="middle" x="378.5" y="-199.5" font-family="Helvetica,sans-Serif" font-size="10.00">Thoth/Http/Headers.hpp</text>
</a>
</g>
</g>
<!-- Node20&#45;&gt;Node23 -->
<g id="edge27_Node000020_Node000023" class="edge">
<title>Node20&#45;&gt;Node23</title>
<g id="a_edge27_Node000020_Node000023"><a xlink:title=" ">
<path fill="none" stroke="#63b8ff" d="M378.5,-252.8C378.5,-243.7 378.5,-231.79 378.5,-221.9"/>
<polygon fill="#63b8ff" stroke="#63b8ff" points="382,-221.84 378.5,-211.84 375,-221.84 382,-221.84"/>
</a>
</g>
</g>
<!-- Node26 -->
<g id="Node000026" class="node">
<title>Node26</title>
<g id="a_Node000026"><a xlink:title=" ">
<polygon fill="#e0e0e0" stroke="#999999" points="255,-211.5 182,-211.5 182,-192.5 255,-192.5 255,-211.5"/>
<text text-anchor="middle" x="218.5" y="-199.5" font-family="Helvetica,sans-Serif" font-size="10.00">string_view</text>
</a>
</g>
</g>
<!-- Node20&#45;&gt;Node26 -->
<g id="edge35_Node000020_Node000026" class="edge">
<title>Node20&#45;&gt;Node26</title>
<g id="a_edge35_Node000020_Node000026"><a xlink:title=" ">
<path fill="none" stroke="#63b8ff" d="M343.39,-252.95C315.2,-241.68 276.03,-226.01 249.11,-215.25"/>
<polygon fill="#63b8ff" stroke="#63b8ff" points="250.38,-211.98 239.79,-211.52 247.78,-218.48 250.38,-211.98"/>
</a>
</g>
</g>
<!-- Node21&#45;&gt;Node7 -->
<g id="edge25_Node000021_Node000007" class="edge">
<title>Node21&#45;&gt;Node7</title>
<g id="a_edge25_Node000021_Node000007"><a xlink:title=" ">
<path fill="none" stroke="#63b8ff" d="M170.61,-120.95C206.64,-109.48 256.96,-93.46 290.81,-82.68"/>
<polygon fill="#63b8ff" stroke="#63b8ff" points="292.28,-85.89 300.75,-79.52 290.16,-79.22 292.28,-85.89"/>
</a>
</g>
</g>
<!-- Node22 -->
<g id="Node000022" class="node">
<title>Node22</title>
<g id="a_Node000022"><a xlink:title=" ">
<polygon fill="#e0e0e0" stroke="#999999" points="157.5,-79.5 95.5,-79.5 95.5,-60.5 157.5,-60.5 157.5,-79.5"/>
<text text-anchor="middle" x="126.5" y="-67.5" font-family="Helvetica,sans-Serif" font-size="10.00">expected</text>
</a>
</g>
</g>
<!-- Node21&#45;&gt;Node22 -->
<g id="edge24_Node000021_Node000022" class="edge">
<title>Node21&#45;&gt;Node22</title>
<g id="a_edge24_Node000021_Node000022"><a xlink:title=" ">
<path fill="none" stroke="#63b8ff" d="M126.5,-120.8C126.5,-111.7 126.5,-99.79 126.5,-89.9"/>
<polygon fill="#63b8ff" stroke="#63b8ff" points="130,-89.84 126.5,-79.84 123,-89.84 130,-89.84"/>
</a>
</g>
</g>
<!-- Node23&#45;&gt;Node5 -->
<g id="edge32_Node000023_Node000005" class="edge">
<title>Node23&#45;&gt;Node5</title>
<g id="a_edge32_Node000023_Node000005"><a xlink:title=" ">
<path fill="none" stroke="#63b8ff" d="M445.04,-192.82C515.37,-183.53 621.18,-167.5 658.5,-151 678.5,-142.16 678.06,-131.02 697.5,-121 746.24,-95.88 764.19,-104.32 815.5,-85 816.71,-84.54 817.94,-84.06 819.18,-83.56"/>
<polygon fill="#63b8ff" stroke="#63b8ff" points="820.8,-86.68 828.63,-79.54 818.06,-80.24 820.8,-86.68"/>
</a>
</g>
</g>
<!-- Node23&#45;&gt;Node7 -->
<g id="edge29_Node000023_Node000007" class="edge">
<title>Node23&#45;&gt;Node7</title>
<g id="a_edge29_Node000023_Node000007"><a xlink:title=" ">
<path fill="none" stroke="#63b8ff" d="M401.51,-192.47C419,-184.63 441.81,-171.13 452.5,-151 458.75,-139.22 459.98,-132.04 452.5,-121 451.1,-118.94 396.14,-97.45 359.57,-83.32"/>
<polygon fill="#63b8ff" stroke="#63b8ff" points="360.39,-79.89 349.8,-79.56 357.87,-86.42 360.39,-79.89"/>
</a>
</g>
</g>
<!-- Node23&#45;&gt;Node8 -->
<g id="edge30_Node000023_Node000008" class="edge">
<title>Node23&#45;&gt;Node8</title>
<g id="a_edge30_Node000023_Node000008"><a xlink:title=" ">
<path fill="none" stroke="#63b8ff" d="M422.64,-192.47C445.89,-185.49 472.43,-173.02 486.5,-151 493.68,-139.76 493.21,-132.52 486.5,-121 479.89,-109.64 450.94,-94.48 428.03,-83.84"/>
<polygon fill="#63b8ff" stroke="#63b8ff" points="429.21,-80.53 418.66,-79.58 426.32,-86.91 429.21,-80.53"/>
</a>
</g>
</g>
<!-- Node23&#45;&gt;Node9 -->
<g id="edge31_Node000023_Node000009" class="edge">
<title>Node23&#45;&gt;Node9</title>
<g id="a_edge31_Node000023_Node000009"><a xlink:title=" ">
<path fill="none" stroke="#63b8ff" d="M338.39,-192.42C300.49,-183.4 247.68,-168.16 235.5,-151 227.78,-140.13 230.96,-133.54 235.5,-121 248.5,-85.1 258.46,-75.77 290.5,-55 328.69,-30.24 380.73,-19.05 414.47,-14.14"/>
<polygon fill="#63b8ff" stroke="#63b8ff" points="415.29,-17.56 424.74,-12.76 414.36,-10.62 415.29,-17.56"/>
</a>
</g>
</g>
<!-- Node23&#45;&gt;Node21 -->
<g id="edge28_Node000023_Node000021" class="edge">
<title>Node23&#45;&gt;Node21</title>
<g id="a_edge28_Node000023_Node000021"><a xlink:title=" ">
<path fill="none" stroke="#63b8ff" d="M344.78,-192.44C305.75,-182.52 240.59,-165.98 191.6,-153.53"/>
<polygon fill="#63b8ff" stroke="#63b8ff" points="192.28,-150.09 181.72,-151.02 190.55,-156.88 192.28,-150.09"/>
</a>
</g>
</g>
<!-- Node24 -->
<g id="Node000024" class="node">
<title>Node24</title>
<g id="a_Node000024"><a xlink:title=" ">
<polygon fill="#e0e0e0" stroke="#999999" points="294.5,-145.5 244.5,-145.5 244.5,-126.5 294.5,-126.5 294.5,-145.5"/>
<text text-anchor="middle" x="269.5" y="-133.5" font-family="Helvetica,sans-Serif" font-size="10.00">ranges</text>
</a>
</g>
</g>
<!-- Node23&#45;&gt;Node24 -->
<g id="edge33_Node000023_Node000024" class="edge">
<title>Node23&#45;&gt;Node24</title>
<g id="a_edge33_Node000023_Node000024"><a xlink:title=" ">
<path fill="none" stroke="#63b8ff" d="M363.8,-192.37C345.68,-181.73 314.65,-163.51 293.16,-150.89"/>
<polygon fill="#63b8ff" stroke="#63b8ff" points="294.71,-147.74 284.32,-145.7 291.17,-153.78 294.71,-147.74"/>
</a>
</g>
</g>
<!-- Node25 -->
<g id="Node000025" class="node">
<title>Node25</title>
<g id="a_Node000025"><a xlink:title=" ">
<polygon fill="#e0e0e0" stroke="#999999" points="444,-145.5 313,-145.5 313,-126.5 444,-126.5 444,-145.5"/>
<text text-anchor="middle" x="378.5" y="-133.5" font-family="Helvetica,sans-Serif" font-size="10.00">Thoth/Http/Headers.tpp</text>
</a>
</g>
</g>
<!-- Node23&#45;&gt;Node25 -->
<g id="edge34_Node000023_Node000025" class="edge">
<title>Node23&#45;&gt;Node25</title>
<g id="a_edge34_Node000023_Node000025"><a xlink:title=" ">
<path fill="none" stroke="#63b8ff" d="M378.5,-192.37C378.5,-183.16 378.5,-168.29 378.5,-156.27"/>
<polygon fill="#63b8ff" stroke="#63b8ff" points="382,-155.91 378.5,-145.91 375,-155.91 382,-155.91"/>
</a>
</g>
</g>
<!-- Node27&#45;&gt;Node20 -->
<g id="edge37_Node000027_Node000020" class="edge">
<title>Node27&#45;&gt;Node20</title>
<g id="a_edge37_Node000027_Node000020"><a xlink:title=" ">
<path fill="none" stroke="#63b8ff" d="M378.5,-318.8C378.5,-311.34 378.5,-301.99 378.5,-293.41"/>
<polygon fill="#63b8ff" stroke="#63b8ff" points="382,-293.16 378.5,-283.16 375,-293.16 382,-293.16"/>
</a>
</g>
</g>
</g>
</svg>
