<?xml version="1.0" encoding="UTF-8" standalone="no"?>
<!DOCTYPE svg PUBLIC "-//W3C//DTD SVG 1.1//EN"
 "http://www.w3.org/Graphics/SVG/1.1/DTD/svg11.dtd">
<!-- Generated by graphviz version 2.43.0 (0)
 -->
<!-- Title: include/Thoth/Dsa/Cow.hpp Pages: 1 -->
<svg width="1590pt" height="687pt"
 viewBox="0.00 0.00 1590.00 687.00" xmlns="http://www.w3.org/2000/svg" xmlns:xlink="http://www.w3.org/1999/xlink">
<g id="graph0" class="graph" transform="scale(1 1) rotate(0) translate(4 683)">
<title>include/Thoth/Dsa/Cow.hpp</title>
<!-- Node1 -->
<g id="Node000001" class="node">
<title>Node1</title>
<g id="a_Node000001"><a xlink:title=" ">
<polygon fill="#999999" stroke="#666666" points="863.5,-679 714.5,-679 714.5,-660 863.5,-660 863.5,-679"/>
<text text-anchor="middle" x="789" y="-667" font-family="Helvetica,sans-Serif" font-size="10.00">include/Thoth/Dsa/Cow.hpp</text>
</a>
</g>
</g>
<!-- Node2 -->
<g id="Node000002" class="node">
<title>Node2</title>
<g id="a_Node000002"><a xlink:href="_definitions_8hpp.html" target="_top" xlink:title=" ">
<polygon fill="white" stroke="#666666" points="845.5,-624 732.5,-624 732.5,-594 845.5,-594 845.5,-624"/>
<text text-anchor="start" x="740.5" y="-612" font-family="Helvetica,sans-Serif" font-size="10.00">include/Thoth/NJson</text>
<text text-anchor="middle" x="789" y="-601" font-family="Helvetica,sans-Serif" font-size="10.00">/Definitions.hpp</text>
</a>
</g>
</g>
<!-- Node1&#45;&gt;Node2 -->
<g id="edge1_Node000001_Node000002" class="edge">
<title>Node1&#45;&gt;Node2</title>
<g id="a_edge1_Node000001_Node000002"><a xlink:title=" ">
<path fill="none" stroke="#63b8ff" d="M789,-649.65C789,-641.36 789,-631.78 789,-624.11"/>
<polygon fill="#63b8ff" stroke="#63b8ff" points="785.5,-649.87 789,-659.87 792.5,-649.87 785.5,-649.87"/>
</a>
</g>
</g>
<!-- Node3 -->
<g id="Node000003" class="node">
<title>Node3</title>
<g id="a_Node000003"><a xlink:href="_request_error_8hpp.html" target="_top" xlink:title=" ">
<polygon fill="white" stroke="#666666" points="801.5,-558 694.5,-558 694.5,-528 801.5,-528 801.5,-558"/>
<text text-anchor="start" x="702.5" y="-546" font-family="Helvetica,sans-Serif" font-size="10.00">include/Thoth/Http</text>
<text text-anchor="middle" x="748" y="-535" font-family="Helvetica,sans-Serif" font-size="10.00">/RequestError.hpp</text>
</a>
</g>
</g>
<!-- Node2&#45;&gt;Node3 -->
<g id="edge2_Node000002_Node000003" class="edge">
<title>Node2&#45;&gt;Node3</title>
<g id="a_edge2_Node000002_Node000003"><a xlink:title=" ">
<path fill="none" stroke="#63b8ff" d="M774.42,-585.24C768.64,-576.21 762.16,-566.11 757.07,-558.16"/>
<polygon fill="#63b8ff" stroke="#63b8ff" points="771.56,-587.26 779.9,-593.8 777.45,-583.49 771.56,-587.26"/>
</a>
</g>
</g>
<!-- Node22 -->
<g id="Node000022" class="node">
<title>Node22</title>
<g id="a_Node000022"><a xlink:href="_json_8hpp.html" target="_top" xlink:title=" ">
<polygon fill="white" stroke="#666666" points="920.5,-492 807.5,-492 807.5,-462 920.5,-462 920.5,-492"/>
<text text-anchor="start" x="815.5" y="-480" font-family="Helvetica,sans-Serif" font-size="10.00">include/Thoth/NJson</text>
<text text-anchor="middle" x="864" y="-469" font-family="Helvetica,sans-Serif" font-size="10.00">/Json.hpp</text>
</a>
</g>
</g>
<!-- Node2&#45;&gt;Node22 -->
<g id="edge30_Node000002_Node000022" class="edge">
<title>Node2&#45;&gt;Node22</title>
<g id="a_edge30_Node000002_Node000022"><a xlink:title=" ">
<path fill="none" stroke="#63b8ff" d="M802.21,-585.1C817.72,-558.23 842.94,-514.5 855.84,-492.14"/>
<polygon fill="#63b8ff" stroke="#63b8ff" points="799.13,-583.43 797.17,-593.84 805.2,-586.93 799.13,-583.43"/>
</a>
</g>
</g>
<!-- Node4 -->
<g id="Node000004" class="node">
<title>Node4</title>
<g id="a_Node000004"><a xlink:href="_client_8hpp.html" target="_top" xlink:title=" ">
<polygon fill="white" stroke="#666666" points="187.5,-30 80.5,-30 80.5,0 187.5,0 187.5,-30"/>
<text text-anchor="start" x="88.5" y="-18" font-family="Helvetica,sans-Serif" font-size="10.00">include/Thoth/Http</text>
<text text-anchor="middle" x="134" y="-7" font-family="Helvetica,sans-Serif" font-size="10.00">/Client.hpp</text>
</a>
</g>
</g>
<!-- Node3&#45;&gt;Node4 -->
<g id="edge3_Node000003_Node000004" class="edge">
<title>Node3&#45;&gt;Node4</title>
<g id="a_edge3_Node000003_Node000004"><a xlink:title=" ">
<path fill="none" stroke="#63b8ff" d="M684.03,-537.6C502.98,-524.32 0,-481.17 0,-412 0,-412 0,-412 0,-146 0,-89.6 61.9,-49.81 101.56,-30.11"/>
<polygon fill="#63b8ff" stroke="#63b8ff" points="683.98,-541.11 694.21,-538.34 684.49,-534.13 683.98,-541.11"/>
</a>
</g>
</g>
<!-- Node5 -->
<g id="Node000005" class="node">
<title>Node5</title>
<g id="a_Node000005"><a xlink:href="_query_params_8hpp.html" target="_top" xlink:title=" ">
<polygon fill="white" stroke="#666666" points="789.5,-492 640.5,-492 640.5,-462 789.5,-462 789.5,-492"/>
<text text-anchor="start" x="648.5" y="-480" font-family="Helvetica,sans-Serif" font-size="10.00">include/Thoth/Http</text>
<text text-anchor="middle" x="715" y="-469" font-family="Helvetica,sans-Serif" font-size="10.00">/Request/QueryParams.hpp</text>
</a>
</g>
</g>
<!-- Node3&#45;&gt;Node5 -->
<g id="edge4_Node000003_Node000005" class="edge">
<title>Node3&#45;&gt;Node5</title>
<g id="a_edge4_Node000003_Node000005"><a xlink:title=" ">
<path fill="none" stroke="#63b8ff" d="M735.98,-518.68C731.39,-509.79 726.32,-499.95 722.3,-492.16"/>
<polygon fill="#63b8ff" stroke="#63b8ff" points="732.98,-520.51 740.68,-527.8 739.2,-517.3 732.98,-520.51"/>
</a>
</g>
</g>
<!-- Node3&#45;&gt;Node22 -->
<g id="edge28_Node000003_Node000022" class="edge">
<title>Node3&#45;&gt;Node22</title>
<g id="a_edge28_Node000003_Node000022"><a xlink:title=" ">
<path fill="none" stroke="#63b8ff" d="M782.49,-522.97C800.5,-513.03 822.15,-501.09 838.6,-492.01"/>
<polygon fill="#63b8ff" stroke="#63b8ff" points="780.52,-520.06 773.46,-527.95 783.9,-526.19 780.52,-520.06"/>
</a>
</g>
</g>
<!-- Node6 -->
<g id="Node000006" class="node">
<title>Node6</title>
<g id="a_Node000006"><a xlink:href="_url_8hpp.html" target="_top" xlink:title=" ">
<polygon fill="white" stroke="#666666" points="768.5,-426 661.5,-426 661.5,-396 768.5,-396 768.5,-426"/>
<text text-anchor="start" x="669.5" y="-414" font-family="Helvetica,sans-Serif" font-size="10.00">include/Thoth/Http</text>
<text text-anchor="middle" x="715" y="-403" font-family="Helvetica,sans-Serif" font-size="10.00">/Request/Url.hpp</text>
</a>
</g>
</g>
<!-- Node5&#45;&gt;Node6 -->
<g id="edge5_Node000005_Node000006" class="edge">
<title>Node5&#45;&gt;Node6</title>
<g id="a_edge5_Node000005_Node000006"><a xlink:title=" ">
<path fill="none" stroke="#63b8ff" d="M715,-451.54C715,-442.96 715,-433.61 715,-426.16"/>
<polygon fill="#63b8ff" stroke="#63b8ff" points="711.5,-451.8 715,-461.8 718.5,-451.8 711.5,-451.8"/>
</a>
</g>
</g>
<!-- Node7 -->
<g id="Node000007" class="node">
<title>Node7</title>
<g id="a_Node000007"><a xlink:href="_method_concept_8hpp.html" target="_top" xlink:title=" ">
<polygon fill="white" stroke="#666666" points="812,-294 618,-294 618,-264 812,-264 812,-294"/>
<text text-anchor="start" x="626" y="-282" font-family="Helvetica,sans-Serif" font-size="10.00">include/Thoth/Http</text>
<text text-anchor="middle" x="715" y="-271" font-family="Helvetica,sans-Serif" font-size="10.00">/Methods/_base/MethodConcept.hpp</text>
</a>
</g>
</g>
<!-- Node6&#45;&gt;Node7 -->
<g id="edge6_Node000006_Node000007" class="edge">
<title>Node6&#45;&gt;Node7</title>
<g id="a_edge6_Node000006_Node000007"><a xlink:title=" ">
<path fill="none" stroke="#63b8ff" d="M715,-385.68C715,-358.7 715,-316.11 715,-294.14"/>
<polygon fill="#63b8ff" stroke="#63b8ff" points="711.5,-385.84 715,-395.84 718.5,-385.84 711.5,-385.84"/>
</a>
</g>
</g>
<!-- Node11 -->
<g id="Node000011" class="node">
<title>Node11</title>
<g id="a_Node000011"><a xlink:href="_request_8hpp.html" target="_top" xlink:title=" ">
<polygon fill="white" stroke="#666666" points="197.5,-162 74.5,-162 74.5,-132 197.5,-132 197.5,-162"/>
<text text-anchor="start" x="82.5" y="-150" font-family="Helvetica,sans-Serif" font-size="10.00">include/Thoth/Http</text>
<text text-anchor="middle" x="136" y="-139" font-family="Helvetica,sans-Serif" font-size="10.00">/Request/Request.hpp</text>
</a>
</g>
</g>
<!-- Node6&#45;&gt;Node11 -->
<g id="edge27_Node000006_Node000011" class="edge">
<title>Node6&#45;&gt;Node11</title>
<g id="a_edge27_Node000006_Node000011"><a xlink:title=" ">
<path fill="none" stroke="#63b8ff" d="M651.35,-402.13C500.77,-382.06 129.84,-323.72 57,-228 48.93,-217.39 50.57,-209.68 57,-198 65.92,-181.79 82.57,-170.1 98.28,-162.12"/>
<polygon fill="#63b8ff" stroke="#63b8ff" points="651,-405.61 661.37,-403.45 651.92,-398.67 651,-405.61"/>
</a>
</g>
</g>
<!-- Node19 -->
<g id="Node000019" class="node">
<title>Node19</title>
<g id="a_Node000019"><a xlink:href="_headers_8hpp.html" target="_top" xlink:title=" ">
<polygon fill="white" stroke="#666666" points="927,-360 795,-360 795,-330 927,-330 927,-360"/>
<text text-anchor="start" x="803" y="-348" font-family="Helvetica,sans-Serif" font-size="10.00">include/Thoth/Http</text>
<text text-anchor="middle" x="861" y="-337" font-family="Helvetica,sans-Serif" font-size="10.00">/NHeaders/Headers.hpp</text>
</a>
</g>
</g>
<!-- Node6&#45;&gt;Node19 -->
<g id="edge23_Node000006_Node000019" class="edge">
<title>Node6&#45;&gt;Node19</title>
<g id="a_edge23_Node000006_Node000019"><a xlink:title=" ">
<path fill="none" stroke="#63b8ff" d="M756.25,-391.92C779.32,-381.8 807.66,-369.38 829.03,-360.01"/>
<polygon fill="#63b8ff" stroke="#63b8ff" points="754.79,-388.73 747.04,-395.95 757.6,-395.15 754.79,-388.73"/>
</a>
</g>
</g>
<!-- Node8 -->
<g id="Node000008" class="node">
<title>Node8</title>
<g id="a_Node000008"><a xlink:href="_connect_method_8hpp.html" target="_top" xlink:title=" ">
<polygon fill="white" stroke="#666666" points="708,-228 546,-228 546,-198 708,-198 708,-228"/>
<text text-anchor="start" x="554" y="-216" font-family="Helvetica,sans-Serif" font-size="10.00">include/Thoth/Http</text>
<text text-anchor="middle" x="627" y="-205" font-family="Helvetica,sans-Serif" font-size="10.00">/Methods/ConnectMethod.hpp</text>
</a>
</g>
</g>
<!-- Node7&#45;&gt;Node8 -->
<g id="edge7_Node000007_Node000008" class="edge">
<title>Node7&#45;&gt;Node8</title>
<g id="a_edge7_Node000007_Node000008"><a xlink:title=" ">
<path fill="none" stroke="#63b8ff" d="M687.16,-257.75C673.93,-248.13 658.43,-236.86 646.48,-228.16"/>
<polygon fill="#63b8ff" stroke="#63b8ff" points="685.32,-260.75 695.47,-263.8 689.44,-255.08 685.32,-260.75"/>
</a>
</g>
</g>
<!-- Node9 -->
<g id="Node000009" class="node">
<title>Node9</title>
<g id="a_Node000009"><a xlink:href="_delete_method_8hpp.html" target="_top" xlink:title=" ">
<polygon fill="white" stroke="#666666" points="881.5,-228 726.5,-228 726.5,-198 881.5,-198 881.5,-228"/>
<text text-anchor="start" x="734.5" y="-216" font-family="Helvetica,sans-Serif" font-size="10.00">include/Thoth/Http</text>
<text text-anchor="middle" x="804" y="-205" font-family="Helvetica,sans-Serif" font-size="10.00">/Methods/DeleteMethod.hpp</text>
</a>
</g>
</g>
<!-- Node7&#45;&gt;Node9 -->
<g id="edge8_Node000007_Node000009" class="edge">
<title>Node7&#45;&gt;Node9</title>
<g id="a_edge8_Node000007_Node000009"><a xlink:title=" ">
<path fill="none" stroke="#63b8ff" d="M743.16,-257.75C756.54,-248.13 772.22,-236.86 784.3,-228.16"/>
<polygon fill="#63b8ff" stroke="#63b8ff" points="740.83,-255.12 734.75,-263.8 744.91,-260.8 740.83,-255.12"/>
</a>
</g>
</g>
<!-- Node10 -->
<g id="Node000010" class="node">
<title>Node10</title>
<g id="a_Node000010"><a xlink:href="_get_method_8hpp.html" target="_top" xlink:title=" ">
<polygon fill="white" stroke="#666666" points="206,-228 66,-228 66,-198 206,-198 206,-228"/>
<text text-anchor="start" x="74" y="-216" font-family="Helvetica,sans-Serif" font-size="10.00">include/Thoth/Http</text>
<text text-anchor="middle" x="136" y="-205" font-family="Helvetica,sans-Serif" font-size="10.00">/Methods/GetMethod.hpp</text>
</a>
</g>
</g>
<!-- Node7&#45;&gt;Node10 -->
<g id="edge9_Node000007_Node000010" class="edge">
<title>Node7&#45;&gt;Node10</title>
<g id="a_edge9_Node000007_Node000010"><a xlink:title=" ">
<path fill="none" stroke="#63b8ff" d="M607.7,-269.64C506.26,-261.17 349.93,-246.67 215,-228 212.1,-227.6 209.15,-227.17 206.17,-226.72"/>
<polygon fill="#63b8ff" stroke="#63b8ff" points="607.7,-273.15 617.95,-270.49 608.28,-266.17 607.7,-273.15"/>
</a>
</g>
</g>
<!-- Node13 -->
<g id="Node000013" class="node">
<title>Node13</title>
<g id="a_Node000013"><a xlink:href="_head_method_8hpp.html" target="_top" xlink:title=" ">
<polygon fill="white" stroke="#666666" points="1209,-228 1061,-228 1061,-198 1209,-198 1209,-228"/>
<text text-anchor="start" x="1069" y="-216" font-family="Helvetica,sans-Serif" font-size="10.00">include/Thoth/Http</text>
<text text-anchor="middle" x="1135" y="-205" font-family="Helvetica,sans-Serif" font-size="10.00">/Methods/HeadMethod.hpp</text>
</a>
</g>
</g>
<!-- Node7&#45;&gt;Node13 -->
<g id="edge15_Node000007_Node000013" class="edge">
<title>Node7&#45;&gt;Node13</title>
<g id="a_edge15_Node000007_Node000013"><a xlink:title=" ">
<path fill="none" stroke="#63b8ff" d="M822.08,-262.66C888.36,-253.04 975.18,-240.18 1052,-228 1054.89,-227.54 1057.83,-227.07 1060.8,-226.59"/>
<polygon fill="#63b8ff" stroke="#63b8ff" points="821.44,-259.22 812.04,-264.12 822.44,-266.15 821.44,-259.22"/>
</a>
</g>
</g>
<!-- Node14 -->
<g id="Node000014" class="node">
<title>Node14</title>
<g id="a_Node000014"><a xlink:href="_options_method_8hpp.html" target="_top" xlink:title=" ">
<polygon fill="white" stroke="#666666" points="1387,-228 1227,-228 1227,-198 1387,-198 1387,-228"/>
<text text-anchor="start" x="1235" y="-216" font-family="Helvetica,sans-Serif" font-size="10.00">include/Thoth/Http</text>
<text text-anchor="middle" x="1307" y="-205" font-family="Helvetica,sans-Serif" font-size="10.00">/Methods/OptionsMethod.hpp</text>
</a>
</g>
</g>
<!-- Node7&#45;&gt;Node14 -->
<g id="edge16_Node000007_Node000014" class="edge">
<title>Node7&#45;&gt;Node14</title>
<g id="a_edge16_Node000007_Node000014"><a xlink:title=" ">
<path fill="none" stroke="#63b8ff" d="M822.18,-263.9C998.8,-244.59 1045.44,-249.37 1218,-228 1220.95,-227.63 1223.95,-227.25 1226.98,-226.84"/>
<polygon fill="#63b8ff" stroke="#63b8ff" points="821.58,-260.45 812.03,-265.02 822.35,-267.4 821.58,-260.45"/>
</a>
</g>
</g>
<!-- Node15 -->
<g id="Node000015" class="node">
<title>Node15</title>
<g id="a_Node000015"><a xlink:href="_patch_method_8hpp.html" target="_top" xlink:title=" ">
<polygon fill="white" stroke="#666666" points="1554.5,-228 1405.5,-228 1405.5,-198 1554.5,-198 1554.5,-228"/>
<text text-anchor="start" x="1413.5" y="-216" font-family="Helvetica,sans-Serif" font-size="10.00">include/Thoth/Http</text>
<text text-anchor="middle" x="1480" y="-205" font-family="Helvetica,sans-Serif" font-size="10.00">/Methods/PatchMethod.hpp</text>
</a>
</g>
</g>
<!-- Node7&#45;&gt;Node15 -->
<g id="edge17_Node000007_Node000015" class="edge">
<title>Node7&#45;&gt;Node15</title>
<g id="a_edge17_Node000007_Node000015"><a xlink:title=" ">
<path fill="none" stroke="#63b8ff" d="M822.35,-263.92C1077.62,-239.68 1144.96,-256.7 1396,-228 1399.08,-227.65 1402.23,-227.26 1405.4,-226.84"/>
<polygon fill="#63b8ff" stroke="#63b8ff" points="821.63,-260.47 812.02,-264.92 822.3,-267.44 821.63,-260.47"/>
</a>
</g>
</g>
<!-- Node16 -->
<g id="Node000016" class="node">
<title>Node16</title>
<g id="a_Node000016"><a xlink:href="_post_method_8hpp.html" target="_top" xlink:title=" ">
<polygon fill="white" stroke="#666666" points="1042.5,-228 899.5,-228 899.5,-198 1042.5,-198 1042.5,-228"/>
<text text-anchor="start" x="907.5" y="-216" font-family="Helvetica,sans-Serif" font-size="10.00">include/Thoth/Http</text>
<text text-anchor="middle" x="971" y="-205" font-family="Helvetica,sans-Serif" font-size="10.00">/Methods/PostMethod.hpp</text>
</a>
</g>
</g>
<!-- Node7&#45;&gt;Node16 -->
<g id="edge18_Node000007_Node000016" class="edge">
<title>Node7&#45;&gt;Node16</title>
<g id="a_edge18_Node000007_Node000016"><a xlink:title=" ">
<path fill="none" stroke="#63b8ff" d="M780.93,-261.52C822.45,-251.14 875.47,-237.88 914.95,-228.01"/>
<polygon fill="#63b8ff" stroke="#63b8ff" points="780.03,-258.13 771.18,-263.95 781.73,-264.92 780.03,-258.13"/>
</a>
</g>
</g>
<!-- Node17 -->
<g id="Node000017" class="node">
<title>Node17</title>
<g id="a_Node000017"><a xlink:href="_put_method_8hpp.html" target="_top" xlink:title=" ">
<polygon fill="white" stroke="#666666" points="362,-228 224,-228 224,-198 362,-198 362,-228"/>
<text text-anchor="start" x="232" y="-216" font-family="Helvetica,sans-Serif" font-size="10.00">include/Thoth/Http</text>
<text text-anchor="middle" x="293" y="-205" font-family="Helvetica,sans-Serif" font-size="10.00">/Methods/PutMethod.hpp</text>
</a>
</g>
</g>
<!-- Node7&#45;&gt;Node17 -->
<g id="edge21_Node000007_Node000017" class="edge">
<title>Node7&#45;&gt;Node17</title>
<g id="a_edge21_Node000007_Node000017"><a xlink:title=" ">
<path fill="none" stroke="#63b8ff" d="M607.46,-263.31C539.56,-253.8 450.04,-240.83 371,-228 368.15,-227.54 365.24,-227.06 362.3,-226.56"/>
<polygon fill="#63b8ff" stroke="#63b8ff" points="607.36,-266.83 617.75,-264.74 608.33,-259.89 607.36,-266.83"/>
</a>
</g>
</g>
<!-- Node18 -->
<g id="Node000018" class="node">
<title>Node18</title>
<g id="a_Node000018"><a xlink:href="_trace_method_8hpp.html" target="_top" xlink:title=" ">
<polygon fill="white" stroke="#666666" points="528,-228 380,-228 380,-198 528,-198 528,-228"/>
<text text-anchor="start" x="388" y="-216" font-family="Helvetica,sans-Serif" font-size="10.00">include/Thoth/Http</text>
<text text-anchor="middle" x="454" y="-205" font-family="Helvetica,sans-Serif" font-size="10.00">/Methods/TraceMethod.hpp</text>
</a>
</g>
</g>
<!-- Node7&#45;&gt;Node18 -->
<g id="edge22_Node000007_Node000018" class="edge">
<title>Node7&#45;&gt;Node18</title>
<g id="a_edge22_Node000007_Node000018"><a xlink:title=" ">
<path fill="none" stroke="#63b8ff" d="M647.78,-261.52C605.45,-251.14 551.4,-237.88 511.14,-228.01"/>
<polygon fill="#63b8ff" stroke="#63b8ff" points="647.18,-264.97 657.72,-263.95 648.84,-258.17 647.18,-264.97"/>
</a>
</g>
</g>
<!-- Node10&#45;&gt;Node11 -->
<g id="edge10_Node000010_Node000011" class="edge">
<title>Node10&#45;&gt;Node11</title>
<g id="a_edge10_Node000010_Node000011"><a xlink:title=" ">
<path fill="none" stroke="#63b8ff" d="M136,-187.54C136,-178.96 136,-169.61 136,-162.16"/>
<polygon fill="#63b8ff" stroke="#63b8ff" points="132.5,-187.8 136,-197.8 139.5,-187.8 132.5,-187.8"/>
</a>
</g>
</g>
<!-- Node12 -->
<g id="Node000012" class="node">
<title>Node12</title>
<g id="a_Node000012"><a xlink:href="_response_8hpp.html" target="_top" xlink:title=" ">
<polygon fill="white" stroke="#666666" points="300,-96 162,-96 162,-66 300,-66 300,-96"/>
<text text-anchor="start" x="170" y="-84" font-family="Helvetica,sans-Serif" font-size="10.00">include/Thoth/Http</text>
<text text-anchor="middle" x="231" y="-73" font-family="Helvetica,sans-Serif" font-size="10.00">/Response/Response.hpp</text>
</a>
</g>
</g>
<!-- Node10&#45;&gt;Node12 -->
<g id="edge14_Node000010_Node000012" class="edge">
<title>Node10&#45;&gt;Node12</title>
<g id="a_edge14_Node000010_Node000012"><a xlink:title=" ">
<path fill="none" stroke="#63b8ff" d="M172.33,-192.54C184.5,-184.49 197.19,-174.17 206,-162 220.51,-141.96 226.77,-113.26 229.34,-96.24"/>
<polygon fill="#63b8ff" stroke="#63b8ff" points="170.24,-189.72 163.63,-198 173.96,-195.65 170.24,-189.72"/>
</a>
</g>
</g>
<!-- Node11&#45;&gt;Node4 -->
<g id="edge11_Node000011_Node000004" class="edge">
<title>Node11&#45;&gt;Node4</title>
<g id="a_edge11_Node000011_Node000004"><a xlink:title=" ">
<path fill="none" stroke="#63b8ff" d="M135.63,-121.68C135.21,-94.7 134.56,-52.11 134.22,-30.14"/>
<polygon fill="#63b8ff" stroke="#63b8ff" points="132.13,-121.9 135.78,-131.84 139.13,-121.79 132.13,-121.9"/>
</a>
</g>
</g>
<!-- Node11&#45;&gt;Node12 -->
<g id="edge12_Node000011_Node000012" class="edge">
<title>Node11&#45;&gt;Node12</title>
<g id="a_edge12_Node000011_Node000012"><a xlink:title=" ">
<path fill="none" stroke="#63b8ff" d="M165.65,-126.03C180.02,-116.34 196.95,-104.94 209.98,-96.16"/>
<polygon fill="#63b8ff" stroke="#63b8ff" points="163.42,-123.31 157.08,-131.8 167.33,-129.11 163.42,-123.31"/>
</a>
</g>
</g>
<!-- Node12&#45;&gt;Node4 -->
<g id="edge13_Node000012_Node000004" class="edge">
<title>Node12&#45;&gt;Node4</title>
<g id="a_edge13_Node000012_Node000004"><a xlink:title=" ">
<path fill="none" stroke="#63b8ff" d="M200.73,-60.03C186.05,-50.34 168.77,-38.94 155.47,-30.16"/>
<polygon fill="#63b8ff" stroke="#63b8ff" points="199.2,-63.21 209.47,-65.8 203.05,-57.37 199.2,-63.21"/>
</a>
</g>
</g>
<!-- Node16&#45;&gt;Node11 -->
<g id="edge19_Node000016_Node000011" class="edge">
<title>Node16&#45;&gt;Node11</title>
<g id="a_edge19_Node000016_Node000011"><a xlink:title=" ">
<path fill="none" stroke="#63b8ff" d="M888.95,-197.97C626.25,-167.14 325.13,-154.3 197.78,-149.9"/>
<polygon fill="#63b8ff" stroke="#63b8ff" points="888.73,-201.46 899.07,-199.16 889.55,-194.51 888.73,-201.46"/>
</a>
</g>
</g>
<!-- Node16&#45;&gt;Node12 -->
<g id="edge20_Node000016_Node000012" class="edge">
<title>Node16&#45;&gt;Node12</title>
<g id="a_edge20_Node000016_Node000012"><a xlink:title=" ">
<path fill="none" stroke="#63b8ff" d="M889.09,-197.61C742.36,-171.83 437.24,-118.23 300.23,-94.16"/>
<polygon fill="#63b8ff" stroke="#63b8ff" points="888.92,-201.13 899.37,-199.42 890.13,-194.24 888.92,-201.13"/>
</a>
</g>
</g>
<!-- Node19&#45;&gt;Node7 -->
<g id="edge24_Node000019_Node000007" class="edge">
<title>Node19&#45;&gt;Node7</title>
<g id="a_edge24_Node000019_Node000007"><a xlink:title=" ">
<path fill="none" stroke="#63b8ff" d="M819.75,-325.92C796.68,-315.8 768.34,-303.38 746.97,-294.01"/>
<polygon fill="#63b8ff" stroke="#63b8ff" points="818.4,-329.15 828.96,-329.95 821.21,-322.73 818.4,-329.15"/>
</a>
</g>
</g>
<!-- Node20 -->
<g id="Node000020" class="node">
<title>Node20</title>
<g id="a_Node000020"><a xlink:href="_list_proxy_8hpp.html" target="_top" xlink:title=" ">
<polygon fill="white" stroke="#666666" points="996,-294 830,-294 830,-264 996,-264 996,-294"/>
<text text-anchor="start" x="838" y="-282" font-family="Helvetica,sans-Serif" font-size="10.00">include/Thoth/Http</text>
<text text-anchor="middle" x="913" y="-271" font-family="Helvetica,sans-Serif" font-size="10.00">/NHeaders/Proxy/ListProxy.hpp</text>
</a>
</g>
</g>
<!-- Node19&#45;&gt;Node20 -->
<g id="edge25_Node000019_Node000020" class="edge">
<title>Node19&#45;&gt;Node20</title>
<g id="a_edge25_Node000019_Node000020"><a xlink:title=" ">
<path fill="none" stroke="#63b8ff" d="M879.03,-321.81C886.48,-312.64 894.9,-302.28 901.49,-294.16"/>
<polygon fill="#63b8ff" stroke="#63b8ff" points="876.13,-319.83 872.54,-329.8 881.56,-324.24 876.13,-319.83"/>
</a>
</g>
</g>
<!-- Node21 -->
<g id="Node000021" class="node">
<title>Node21</title>
<g id="a_Node000021"><a xlink:href="_value_proxy_8hpp.html" target="_top" xlink:title=" ">
<polygon fill="white" stroke="#666666" points="1190,-294 1014,-294 1014,-264 1190,-264 1190,-294"/>
<text text-anchor="start" x="1022" y="-282" font-family="Helvetica,sans-Serif" font-size="10.00">include/Thoth/Http</text>
<text text-anchor="middle" x="1102" y="-271" font-family="Helvetica,sans-Serif" font-size="10.00">/NHeaders/Proxy/ValueProxy.hpp</text>
</a>
</g>
</g>
<!-- Node19&#45;&gt;Node21 -->
<g id="edge26_Node000019_Node000021" class="edge">
<title>Node19&#45;&gt;Node21</title>
<g id="a_edge26_Node000019_Node000021"><a xlink:title=" ">
<path fill="none" stroke="#63b8ff" d="M923.56,-327.39C962.58,-317.03 1012.22,-303.84 1049.23,-294.01"/>
<polygon fill="#63b8ff" stroke="#63b8ff" points="922.66,-324.01 913.89,-329.95 924.45,-330.77 922.66,-324.01"/>
</a>
</g>
</g>
<!-- Node22&#45;&gt;Node12 -->
<g id="edge29_Node000022_Node000012" class="edge">
<title>Node22&#45;&gt;Node12</title>
<g id="a_edge29_Node000022_Node000012"><a xlink:title=" ">
<path fill="none" stroke="#63b8ff" d="M930.67,-470.92C1108.74,-456.45 1582,-411.82 1582,-346 1582,-346 1582,-346 1582,-212 1582,-81.89 576.3,-79.52 300.32,-81.32"/>
<polygon fill="#63b8ff" stroke="#63b8ff" points="930.33,-467.43 920.64,-471.73 930.89,-474.41 930.33,-467.43"/>
</a>
</g>
</g>
</g>
</svg>
