<?xml version="1.0" encoding="UTF-8" standalone="no"?>
<!DOCTYPE svg PUBLIC "-//W3C//DTD SVG 1.1//EN"
 "http://www.w3.org/Graphics/SVG/1.1/DTD/svg11.dtd">
<!-- Generated by graphviz version 2.43.0 (0)
 -->
<!-- Title: include/Thoth/NJson/Definitions.hpp Pages: 1 -->
<svg width="1591pt" height="500pt"
 viewBox="0.00 0.00 1591.00 500.00" xmlns="http://www.w3.org/2000/svg" xmlns:xlink="http://www.w3.org/1999/xlink">
<g id="graph0" class="graph" transform="scale(1 1) rotate(0) translate(4 496)">
<title>include/Thoth/NJson/Definitions.hpp</title>
<!-- Node1 -->
<g id="Node000001" class="node">
<title>Node1</title>
<g id="a_Node000001"><a xlink:title=" ">
<polygon fill="#999999" stroke="#666666" points="506.5,-492 393.5,-492 393.5,-462 506.5,-462 506.5,-492"/>
<text text-anchor="start" x="401.5" y="-480" font-family="Helvetica,sans-Serif" font-size="10.00">include/Thoth/NJson</text>
<text text-anchor="middle" x="450" y="-469" font-family="Helvetica,sans-Serif" font-size="10.00">/Definitions.hpp</text>
</a>
</g>
</g>
<!-- Node2 -->
<g id="Node000002" class="node">
<title>Node2</title>
<g id="a_Node000002"><a xlink:href="_request_error_8hpp.html" target="_top" xlink:title=" ">
<polygon fill="white" stroke="#666666" points="462.5,-426 355.5,-426 355.5,-396 462.5,-396 462.5,-426"/>
<text text-anchor="start" x="363.5" y="-414" font-family="Helvetica,sans-Serif" font-size="10.00">include/Thoth/Http</text>
<text text-anchor="middle" x="409" y="-403" font-family="Helvetica,sans-Serif" font-size="10.00">/RequestError.hpp</text>
</a>
</g>
</g>
<!-- Node1&#45;&gt;Node2 -->
<g id="edge1_Node000001_Node000002" class="edge">
<title>Node1&#45;&gt;Node2</title>
<g id="a_edge1_Node000001_Node000002"><a xlink:title=" ">
<path fill="none" stroke="#63b8ff" d="M435.42,-453.24C429.64,-444.21 423.16,-434.11 418.07,-426.16"/>
<polygon fill="#63b8ff" stroke="#63b8ff" points="432.56,-455.26 440.9,-461.8 438.45,-451.49 432.56,-455.26"/>
</a>
</g>
</g>
<!-- Node18 -->
<g id="Node000018" class="node">
<title>Node18</title>
<g id="a_Node000018"><a xlink:href="_json_8hpp.html" target="_top" xlink:title=" ">
<polygon fill="white" stroke="#666666" points="581.5,-360 468.5,-360 468.5,-330 581.5,-330 581.5,-360"/>
<text text-anchor="start" x="476.5" y="-348" font-family="Helvetica,sans-Serif" font-size="10.00">include/Thoth/NJson</text>
<text text-anchor="middle" x="525" y="-337" font-family="Helvetica,sans-Serif" font-size="10.00">/Json.hpp</text>
</a>
</g>
</g>
<!-- Node1&#45;&gt;Node18 -->
<g id="edge24_Node000001_Node000018" class="edge">
<title>Node1&#45;&gt;Node18</title>
<g id="a_edge24_Node000001_Node000018"><a xlink:title=" ">
<path fill="none" stroke="#63b8ff" d="M463.21,-453.1C478.72,-426.23 503.94,-382.5 516.84,-360.14"/>
<polygon fill="#63b8ff" stroke="#63b8ff" points="460.13,-451.43 458.17,-461.84 466.2,-454.93 460.13,-451.43"/>
</a>
</g>
</g>
<!-- Node3 -->
<g id="Node000003" class="node">
<title>Node3</title>
<g id="a_Node000003"><a xlink:href="_client_8hpp.html" target="_top" xlink:title=" ">
<polygon fill="white" stroke="#666666" points="304.5,-30 197.5,-30 197.5,0 304.5,0 304.5,-30"/>
<text text-anchor="start" x="205.5" y="-18" font-family="Helvetica,sans-Serif" font-size="10.00">include/Thoth/Http</text>
<text text-anchor="middle" x="251" y="-7" font-family="Helvetica,sans-Serif" font-size="10.00">/Client.hpp</text>
</a>
</g>
</g>
<!-- Node2&#45;&gt;Node3 -->
<g id="edge2_Node000002_Node000003" class="edge">
<title>Node2&#45;&gt;Node3</title>
<g id="a_edge2_Node000002_Node000003"><a xlink:title=" ">
<path fill="none" stroke="#63b8ff" d="M345.02,-403.09C229.96,-388.87 0,-351.51 0,-280 0,-280 0,-280 0,-146 0,-57.79 123.75,-29.36 197.46,-20.25"/>
<polygon fill="#63b8ff" stroke="#63b8ff" points="344.76,-406.58 355.11,-404.31 345.6,-399.63 344.76,-406.58"/>
</a>
</g>
</g>
<!-- Node4 -->
<g id="Node000004" class="node">
<title>Node4</title>
<g id="a_Node000004"><a xlink:href="_query_params_8hpp.html" target="_top" xlink:title=" ">
<polygon fill="white" stroke="#666666" points="450.5,-360 301.5,-360 301.5,-330 450.5,-330 450.5,-360"/>
<text text-anchor="start" x="309.5" y="-348" font-family="Helvetica,sans-Serif" font-size="10.00">include/Thoth/Http</text>
<text text-anchor="middle" x="376" y="-337" font-family="Helvetica,sans-Serif" font-size="10.00">/Request/QueryParams.hpp</text>
</a>
</g>
</g>
<!-- Node2&#45;&gt;Node4 -->
<g id="edge3_Node000002_Node000004" class="edge">
<title>Node2&#45;&gt;Node4</title>
<g id="a_edge3_Node000002_Node000004"><a xlink:title=" ">
<path fill="none" stroke="#63b8ff" d="M396.98,-386.68C392.39,-377.79 387.32,-367.95 383.3,-360.16"/>
<polygon fill="#63b8ff" stroke="#63b8ff" points="393.98,-388.51 401.68,-395.8 400.2,-385.3 393.98,-388.51"/>
</a>
</g>
</g>
<!-- Node2&#45;&gt;Node18 -->
<g id="edge22_Node000002_Node000018" class="edge">
<title>Node2&#45;&gt;Node18</title>
<g id="a_edge22_Node000002_Node000018"><a xlink:title=" ">
<path fill="none" stroke="#63b8ff" d="M443.49,-390.97C461.5,-381.03 483.15,-369.09 499.6,-360.01"/>
<polygon fill="#63b8ff" stroke="#63b8ff" points="441.52,-388.06 434.46,-395.95 444.9,-394.19 441.52,-388.06"/>
</a>
</g>
</g>
<!-- Node5 -->
<g id="Node000005" class="node">
<title>Node5</title>
<g id="a_Node000005"><a xlink:href="_url_8hpp.html" target="_top" xlink:title=" ">
<polygon fill="white" stroke="#666666" points="429.5,-294 322.5,-294 322.5,-264 429.5,-264 429.5,-294"/>
<text text-anchor="start" x="330.5" y="-282" font-family="Helvetica,sans-Serif" font-size="10.00">include/Thoth/Http</text>
<text text-anchor="middle" x="376" y="-271" font-family="Helvetica,sans-Serif" font-size="10.00">/Request/Url.hpp</text>
</a>
</g>
</g>
<!-- Node4&#45;&gt;Node5 -->
<g id="edge4_Node000004_Node000005" class="edge">
<title>Node4&#45;&gt;Node5</title>
<g id="a_edge4_Node000004_Node000005"><a xlink:title=" ">
<path fill="none" stroke="#63b8ff" d="M376,-319.54C376,-310.96 376,-301.61 376,-294.16"/>
<polygon fill="#63b8ff" stroke="#63b8ff" points="372.5,-319.8 376,-329.8 379.5,-319.8 372.5,-319.8"/>
</a>
</g>
</g>
<!-- Node6 -->
<g id="Node000006" class="node">
<title>Node6</title>
<g id="a_Node000006"><a xlink:href="_method_concept_8hpp.html" target="_top" xlink:title=" ">
<polygon fill="white" stroke="#666666" points="829,-228 635,-228 635,-198 829,-198 829,-228"/>
<text text-anchor="start" x="643" y="-216" font-family="Helvetica,sans-Serif" font-size="10.00">include/Thoth/Http</text>
<text text-anchor="middle" x="732" y="-205" font-family="Helvetica,sans-Serif" font-size="10.00">/Methods/_base/MethodConcept.hpp</text>
</a>
</g>
</g>
<!-- Node5&#45;&gt;Node6 -->
<g id="edge5_Node000005_Node000006" class="edge">
<title>Node5&#45;&gt;Node6</title>
<g id="a_edge5_Node000005_Node000006"><a xlink:title=" ">
<path fill="none" stroke="#63b8ff" d="M439.79,-266.53C499.82,-255.74 589.84,-239.56 654.09,-228.01"/>
<polygon fill="#63b8ff" stroke="#63b8ff" points="438.91,-263.14 429.68,-268.35 440.14,-270.02 438.91,-263.14"/>
</a>
</g>
</g>
<!-- Node10 -->
<g id="Node000010" class="node">
<title>Node10</title>
<g id="a_Node000010"><a xlink:href="_request_8hpp.html" target="_top" xlink:title=" ">
<polygon fill="white" stroke="#666666" points="552.5,-96 429.5,-96 429.5,-66 552.5,-66 552.5,-96"/>
<text text-anchor="start" x="437.5" y="-84" font-family="Helvetica,sans-Serif" font-size="10.00">include/Thoth/Http</text>
<text text-anchor="middle" x="491" y="-73" font-family="Helvetica,sans-Serif" font-size="10.00">/Request/Request.hpp</text>
</a>
</g>
</g>
<!-- Node5&#45;&gt;Node10 -->
<g id="edge21_Node000005_Node000010" class="edge">
<title>Node5&#45;&gt;Node10</title>
<g id="a_edge21_Node000005_Node000010"><a xlink:title=" ">
<path fill="none" stroke="#63b8ff" d="M312.35,-271.65C198.54,-257.95 -20.99,-219.49 57,-132 81.32,-104.72 315.05,-90.17 429.07,-84.65"/>
<polygon fill="#63b8ff" stroke="#63b8ff" points="312.02,-275.13 322.36,-272.82 312.83,-268.18 312.02,-275.13"/>
</a>
</g>
</g>
<!-- Node7 -->
<g id="Node000007" class="node">
<title>Node7</title>
<g id="a_Node000007"><a xlink:href="_connect_method_8hpp.html" target="_top" xlink:title=" ">
<polygon fill="white" stroke="#666666" points="228,-162 66,-162 66,-132 228,-132 228,-162"/>
<text text-anchor="start" x="74" y="-150" font-family="Helvetica,sans-Serif" font-size="10.00">include/Thoth/Http</text>
<text text-anchor="middle" x="147" y="-139" font-family="Helvetica,sans-Serif" font-size="10.00">/Methods/ConnectMethod.hpp</text>
</a>
</g>
</g>
<!-- Node6&#45;&gt;Node7 -->
<g id="edge6_Node000006_Node000007" class="edge">
<title>Node6&#45;&gt;Node7</title>
<g id="a_edge6_Node000006_Node000007"><a xlink:title=" ">
<path fill="none" stroke="#63b8ff" d="M624.46,-202.81C524.06,-193.84 370.15,-179.07 237,-162 234.18,-161.64 231.31,-161.26 228.41,-160.86"/>
<polygon fill="#63b8ff" stroke="#63b8ff" points="624.34,-206.32 634.61,-203.72 624.96,-199.34 624.34,-206.32"/>
</a>
</g>
</g>
<!-- Node8 -->
<g id="Node000008" class="node">
<title>Node8</title>
<g id="a_Node000008"><a xlink:href="_delete_method_8hpp.html" target="_top" xlink:title=" ">
<polygon fill="white" stroke="#666666" points="401.5,-162 246.5,-162 246.5,-132 401.5,-132 401.5,-162"/>
<text text-anchor="start" x="254.5" y="-150" font-family="Helvetica,sans-Serif" font-size="10.00">include/Thoth/Http</text>
<text text-anchor="middle" x="324" y="-139" font-family="Helvetica,sans-Serif" font-size="10.00">/Methods/DeleteMethod.hpp</text>
</a>
</g>
</g>
<!-- Node6&#45;&gt;Node8 -->
<g id="edge7_Node000006_Node000008" class="edge">
<title>Node6&#45;&gt;Node8</title>
<g id="a_edge7_Node000006_Node000008"><a xlink:title=" ">
<path fill="none" stroke="#63b8ff" d="M630.37,-196.41C566.98,-186.64 483.72,-173.72 410,-162 407.31,-161.57 404.57,-161.14 401.81,-160.69"/>
<polygon fill="#63b8ff" stroke="#63b8ff" points="629.95,-199.89 640.37,-197.95 631.02,-192.97 629.95,-199.89"/>
</a>
</g>
</g>
<!-- Node9 -->
<g id="Node000009" class="node">
<title>Node9</title>
<g id="a_Node000009"><a xlink:href="_get_method_8hpp.html" target="_top" xlink:title=" ">
<polygon fill="white" stroke="#666666" points="721,-162 581,-162 581,-132 721,-132 721,-162"/>
<text text-anchor="start" x="589" y="-150" font-family="Helvetica,sans-Serif" font-size="10.00">include/Thoth/Http</text>
<text text-anchor="middle" x="651" y="-139" font-family="Helvetica,sans-Serif" font-size="10.00">/Methods/GetMethod.hpp</text>
</a>
</g>
</g>
<!-- Node6&#45;&gt;Node9 -->
<g id="edge8_Node000006_Node000009" class="edge">
<title>Node6&#45;&gt;Node9</title>
<g id="a_edge8_Node000006_Node000009"><a xlink:title=" ">
<path fill="none" stroke="#63b8ff" d="M706.03,-191.48C693.92,-181.91 679.82,-170.77 668.93,-162.16"/>
<polygon fill="#63b8ff" stroke="#63b8ff" points="704.01,-194.34 714.02,-197.8 708.35,-188.85 704.01,-194.34"/>
</a>
</g>
</g>
<!-- Node12 -->
<g id="Node000012" class="node">
<title>Node12</title>
<g id="a_Node000012"><a xlink:href="_head_method_8hpp.html" target="_top" xlink:title=" ">
<polygon fill="white" stroke="#666666" points="887,-162 739,-162 739,-132 887,-132 887,-162"/>
<text text-anchor="start" x="747" y="-150" font-family="Helvetica,sans-Serif" font-size="10.00">include/Thoth/Http</text>
<text text-anchor="middle" x="813" y="-139" font-family="Helvetica,sans-Serif" font-size="10.00">/Methods/HeadMethod.hpp</text>
</a>
</g>
</g>
<!-- Node6&#45;&gt;Node12 -->
<g id="edge13_Node000006_Node000012" class="edge">
<title>Node6&#45;&gt;Node12</title>
<g id="a_edge13_Node000006_Node000012"><a xlink:title=" ">
<path fill="none" stroke="#63b8ff" d="M757.97,-191.48C770.08,-181.91 784.18,-170.77 795.07,-162.16"/>
<polygon fill="#63b8ff" stroke="#63b8ff" points="755.65,-188.85 749.98,-197.8 759.99,-194.34 755.65,-188.85"/>
</a>
</g>
</g>
<!-- Node13 -->
<g id="Node000013" class="node">
<title>Node13</title>
<g id="a_Node000013"><a xlink:href="_options_method_8hpp.html" target="_top" xlink:title=" ">
<polygon fill="white" stroke="#666666" points="1065,-162 905,-162 905,-132 1065,-132 1065,-162"/>
<text text-anchor="start" x="913" y="-150" font-family="Helvetica,sans-Serif" font-size="10.00">include/Thoth/Http</text>
<text text-anchor="middle" x="985" y="-139" font-family="Helvetica,sans-Serif" font-size="10.00">/Methods/OptionsMethod.hpp</text>
</a>
</g>
</g>
<!-- Node6&#45;&gt;Node13 -->
<g id="edge14_Node000006_Node000013" class="edge">
<title>Node6&#45;&gt;Node13</title>
<g id="a_edge14_Node000006_Node000013"><a xlink:title=" ">
<path fill="none" stroke="#63b8ff" d="M797.42,-195.45C838.41,-185.08 890.67,-171.86 929.61,-162.01"/>
<polygon fill="#63b8ff" stroke="#63b8ff" points="796.36,-192.11 787.52,-197.95 798.07,-198.9 796.36,-192.11"/>
</a>
</g>
</g>
<!-- Node14 -->
<g id="Node000014" class="node">
<title>Node14</title>
<g id="a_Node000014"><a xlink:href="_patch_method_8hpp.html" target="_top" xlink:title=" ">
<polygon fill="white" stroke="#666666" points="1232.5,-162 1083.5,-162 1083.5,-132 1232.5,-132 1232.5,-162"/>
<text text-anchor="start" x="1091.5" y="-150" font-family="Helvetica,sans-Serif" font-size="10.00">include/Thoth/Http</text>
<text text-anchor="middle" x="1158" y="-139" font-family="Helvetica,sans-Serif" font-size="10.00">/Methods/PatchMethod.hpp</text>
</a>
</g>
</g>
<!-- Node6&#45;&gt;Node14 -->
<g id="edge15_Node000006_Node000014" class="edge">
<title>Node6&#45;&gt;Node14</title>
<g id="a_edge15_Node000006_Node000014"><a xlink:title=" ">
<path fill="none" stroke="#63b8ff" d="M839.22,-196.89C906.66,-187.24 995.48,-174.28 1074,-162 1077.07,-161.52 1080.2,-161.02 1083.36,-160.52"/>
<polygon fill="#63b8ff" stroke="#63b8ff" points="838.41,-193.47 829,-198.34 839.4,-200.4 838.41,-193.47"/>
</a>
</g>
</g>
<!-- Node15 -->
<g id="Node000015" class="node">
<title>Node15</title>
<g id="a_Node000015"><a xlink:href="_post_method_8hpp.html" target="_top" xlink:title=" ">
<polygon fill="white" stroke="#666666" points="562.5,-162 419.5,-162 419.5,-132 562.5,-132 562.5,-162"/>
<text text-anchor="start" x="427.5" y="-150" font-family="Helvetica,sans-Serif" font-size="10.00">include/Thoth/Http</text>
<text text-anchor="middle" x="491" y="-139" font-family="Helvetica,sans-Serif" font-size="10.00">/Methods/PostMethod.hpp</text>
</a>
</g>
</g>
<!-- Node6&#45;&gt;Node15 -->
<g id="edge16_Node000006_Node000015" class="edge">
<title>Node6&#45;&gt;Node15</title>
<g id="a_edge16_Node000006_Node000015"><a xlink:title=" ">
<path fill="none" stroke="#63b8ff" d="M669.44,-195.39C630.42,-185.03 580.78,-171.84 543.77,-162.01"/>
<polygon fill="#63b8ff" stroke="#63b8ff" points="668.55,-198.77 679.11,-197.95 670.34,-192.01 668.55,-198.77"/>
</a>
</g>
</g>
<!-- Node16 -->
<g id="Node000016" class="node">
<title>Node16</title>
<g id="a_Node000016"><a xlink:href="_put_method_8hpp.html" target="_top" xlink:title=" ">
<polygon fill="white" stroke="#666666" points="1389,-162 1251,-162 1251,-132 1389,-132 1389,-162"/>
<text text-anchor="start" x="1259" y="-150" font-family="Helvetica,sans-Serif" font-size="10.00">include/Thoth/Http</text>
<text text-anchor="middle" x="1320" y="-139" font-family="Helvetica,sans-Serif" font-size="10.00">/Methods/PutMethod.hpp</text>
</a>
</g>
</g>
<!-- Node6&#45;&gt;Node16 -->
<g id="edge19_Node000006_Node000016" class="edge">
<title>Node6&#45;&gt;Node16</title>
<g id="a_edge19_Node000006_Node000016"><a xlink:title=" ">
<path fill="none" stroke="#63b8ff" d="M839.23,-203.99C942.63,-195.68 1103.41,-181.2 1242,-162 1244.86,-161.6 1247.78,-161.18 1250.72,-160.73"/>
<polygon fill="#63b8ff" stroke="#63b8ff" points="838.78,-200.52 829.09,-204.8 839.34,-207.49 838.78,-200.52"/>
</a>
</g>
</g>
<!-- Node17 -->
<g id="Node000017" class="node">
<title>Node17</title>
<g id="a_Node000017"><a xlink:href="_trace_method_8hpp.html" target="_top" xlink:title=" ">
<polygon fill="white" stroke="#666666" points="1555,-162 1407,-162 1407,-132 1555,-132 1555,-162"/>
<text text-anchor="start" x="1415" y="-150" font-family="Helvetica,sans-Serif" font-size="10.00">include/Thoth/Http</text>
<text text-anchor="middle" x="1481" y="-139" font-family="Helvetica,sans-Serif" font-size="10.00">/Methods/TraceMethod.hpp</text>
</a>
</g>
</g>
<!-- Node6&#45;&gt;Node17 -->
<g id="edge20_Node000006_Node000017" class="edge">
<title>Node6&#45;&gt;Node17</title>
<g id="a_edge20_Node000006_Node000017"><a xlink:title=" ">
<path fill="none" stroke="#63b8ff" d="M839.16,-207C971.01,-200.15 1201.55,-185.89 1398,-162 1400.9,-161.65 1403.86,-161.26 1406.84,-160.86"/>
<polygon fill="#63b8ff" stroke="#63b8ff" points="838.86,-203.51 829.06,-207.52 839.22,-210.5 838.86,-203.51"/>
</a>
</g>
</g>
<!-- Node9&#45;&gt;Node10 -->
<g id="edge9_Node000009_Node000010" class="edge">
<title>Node9&#45;&gt;Node10</title>
<g id="a_edge9_Node000009_Node000010"><a xlink:title=" ">
<path fill="none" stroke="#63b8ff" d="M606.47,-128.19C581.06,-118.02 549.67,-105.47 526.03,-96.01"/>
<polygon fill="#63b8ff" stroke="#63b8ff" points="605.3,-131.49 615.89,-131.95 607.9,-124.99 605.3,-131.49"/>
</a>
</g>
</g>
<!-- Node11 -->
<g id="Node000011" class="node">
<title>Node11</title>
<g id="a_Node000011"><a xlink:href="_response_8hpp.html" target="_top" xlink:title=" ">
<polygon fill="white" stroke="#666666" points="689,-30 551,-30 551,0 689,0 689,-30"/>
<text text-anchor="start" x="559" y="-18" font-family="Helvetica,sans-Serif" font-size="10.00">include/Thoth/Http</text>
<text text-anchor="middle" x="620" y="-7" font-family="Helvetica,sans-Serif" font-size="10.00">/Response/Response.hpp</text>
</a>
</g>
</g>
<!-- Node9&#45;&gt;Node11 -->
<g id="edge12_Node000009_Node000011" class="edge">
<title>Node9&#45;&gt;Node11</title>
<g id="a_edge12_Node000009_Node000011"><a xlink:title=" ">
<path fill="none" stroke="#63b8ff" d="M645.29,-122.04C638.86,-95.08 628.63,-52.21 623.37,-30.14"/>
<polygon fill="#63b8ff" stroke="#63b8ff" points="641.9,-122.92 647.62,-131.84 648.71,-121.3 641.9,-122.92"/>
</a>
</g>
</g>
<!-- Node10&#45;&gt;Node3 -->
<g id="edge10_Node000010_Node000003" class="edge">
<title>Node10&#45;&gt;Node3</title>
<g id="a_edge10_Node000010_Node000003"><a xlink:title=" ">
<path fill="none" stroke="#63b8ff" d="M428.2,-63.25C389.43,-52.91 340.25,-39.8 303.55,-30.01"/>
<polygon fill="#63b8ff" stroke="#63b8ff" points="427.77,-66.76 438.33,-65.95 429.57,-60 427.77,-66.76"/>
</a>
</g>
</g>
<!-- Node10&#45;&gt;Node11 -->
<g id="edge11_Node000010_Node000011" class="edge">
<title>Node10&#45;&gt;Node11</title>
<g id="a_edge11_Node000010_Node000011"><a xlink:title=" ">
<path fill="none" stroke="#63b8ff" d="M528.54,-61.38C548.72,-51.36 573.2,-39.22 591.76,-30.01"/>
<polygon fill="#63b8ff" stroke="#63b8ff" points="526.71,-58.38 519.31,-65.95 529.82,-64.65 526.71,-58.38"/>
</a>
</g>
</g>
<!-- Node15&#45;&gt;Node10 -->
<g id="edge17_Node000015_Node000010" class="edge">
<title>Node15&#45;&gt;Node10</title>
<g id="a_edge17_Node000015_Node000010"><a xlink:title=" ">
<path fill="none" stroke="#63b8ff" d="M491,-121.54C491,-112.96 491,-103.61 491,-96.16"/>
<polygon fill="#63b8ff" stroke="#63b8ff" points="487.5,-121.8 491,-131.8 494.5,-121.8 487.5,-121.8"/>
</a>
</g>
</g>
<!-- Node15&#45;&gt;Node11 -->
<g id="edge18_Node000015_Node000011" class="edge">
<title>Node15&#45;&gt;Node11</title>
<g id="a_edge18_Node000015_Node000011"><a xlink:title=" ">
<path fill="none" stroke="#63b8ff" d="M522.88,-126.36C535.45,-117.84 549.59,-107.24 561,-96 581.9,-75.41 601.06,-46.89 611.58,-30.05"/>
<polygon fill="#63b8ff" stroke="#63b8ff" points="520.89,-123.48 514.47,-131.91 524.75,-129.32 520.89,-123.48"/>
</a>
</g>
</g>
<!-- Node18&#45;&gt;Node11 -->
<g id="edge23_Node000018_Node000011" class="edge">
<title>Node18&#45;&gt;Node11</title>
<g id="a_edge23_Node000018_Node000011"><a xlink:title=" ">
<path fill="none" stroke="#63b8ff" d="M591.85,-342.84C824.25,-337.95 1583,-314.3 1583,-214 1583,-214 1583,-214 1583,-146 1583,-55.74 910.06,-25.54 689.26,-18.06"/>
<polygon fill="#63b8ff" stroke="#63b8ff" points="591.43,-339.35 581.51,-343.06 591.58,-346.35 591.43,-339.35"/>
</a>
</g>
</g>
</g>
</svg>
