<?xml version="1.0" encoding="UTF-8" standalone="no"?>
<!DOCTYPE svg PUBLIC "-//W3C//DTD SVG 1.1//EN"
 "http://www.w3.org/Graphics/SVG/1.1/DTD/svg11.dtd">
<!-- Generated by graphviz version 2.43.0 (0)
 -->
<!-- Title: include/Thoth/NJson/Definitions.hpp Pages: 1 -->
<svg width="1994pt" height="709pt"
 viewBox="0.00 0.00 1993.59 709.00" xmlns="http://www.w3.org/2000/svg" xmlns:xlink="http://www.w3.org/1999/xlink">
<g id="graph0" class="graph" transform="scale(1 1) rotate(0) translate(4 705)">
<title>include/Thoth/NJson/Definitions.hpp</title>
<!-- Node1 -->
<g id="Node000001" class="node">
<title>Node1</title>
<g id="a_Node000001"><a xlink:title=" ">
<polygon fill="#999999" stroke="#666666" points="1942.59,-701 1829.59,-701 1829.59,-671 1942.59,-671 1942.59,-701"/>
<text text-anchor="start" x="1837.59" y="-689" font-family="Helvetica,sans-Serif" font-size="10.00">include/Thoth/NJson</text>
<text text-anchor="middle" x="1886.09" y="-678" font-family="Helvetica,sans-Serif" font-size="10.00">/Definitions.hpp</text>
</a>
</g>
</g>
<!-- Node2 -->
<g id="Node000002" class="node">
<title>Node2</title>
<g id="a_Node000002"><a xlink:href="_request_error_8hpp.html" target="_top" xlink:title=" ">
<polygon fill="white" stroke="#666666" points="1898.59,-635 1791.59,-635 1791.59,-605 1898.59,-605 1898.59,-635"/>
<text text-anchor="start" x="1799.59" y="-623" font-family="Helvetica,sans-Serif" font-size="10.00">include/Thoth/Http</text>
<text text-anchor="middle" x="1845.09" y="-612" font-family="Helvetica,sans-Serif" font-size="10.00">/RequestError.hpp</text>
</a>
</g>
</g>
<!-- Node1&#45;&gt;Node2 -->
<g id="edge1_Node000001_Node000002" class="edge">
<title>Node1&#45;&gt;Node2</title>
<g id="a_edge1_Node000001_Node000002"><a xlink:title=" ">
<path fill="none" stroke="#63b8ff" d="M1871.51,-662.24C1865.72,-653.21 1859.25,-643.11 1854.16,-635.16"/>
<polygon fill="#63b8ff" stroke="#63b8ff" points="1868.64,-664.26 1876.99,-670.8 1874.54,-660.49 1868.64,-664.26"/>
</a>
</g>
</g>
<!-- Node24 -->
<g id="Node000024" class="node">
<title>Node24</title>
<g id="a_Node000024"><a xlink:href="_json_8hpp.html" target="_top" xlink:title=" ">
<polygon fill="white" stroke="#666666" points="1985.59,-569 1872.59,-569 1872.59,-539 1985.59,-539 1985.59,-569"/>
<text text-anchor="start" x="1880.59" y="-557" font-family="Helvetica,sans-Serif" font-size="10.00">include/Thoth/NJson</text>
<text text-anchor="middle" x="1929.09" y="-546" font-family="Helvetica,sans-Serif" font-size="10.00">/Json.hpp</text>
</a>
</g>
</g>
<!-- Node1&#45;&gt;Node24 -->
<g id="edge35_Node000001_Node000024" class="edge">
<title>Node1&#45;&gt;Node24</title>
<g id="a_edge35_Node000001_Node000024"><a xlink:title=" ">
<path fill="none" stroke="#63b8ff" d="M1896.75,-661.36C1900.28,-653.11 1904.07,-643.73 1907.09,-635 1914.95,-612.27 1921.92,-585.15 1925.81,-569.04"/>
<polygon fill="#63b8ff" stroke="#63b8ff" points="1893.45,-660.19 1892.65,-670.75 1899.86,-662.99 1893.45,-660.19"/>
</a>
</g>
</g>
<!-- Node3 -->
<g id="Node000003" class="node">
<title>Node3</title>
<g id="a_Node000003"><a xlink:href="_client_8hpp.html" target="_top" xlink:title=" ">
<polygon fill="white" stroke="#666666" points="1673.59,-30 1566.59,-30 1566.59,0 1673.59,0 1673.59,-30"/>
<text text-anchor="start" x="1574.59" y="-18" font-family="Helvetica,sans-Serif" font-size="10.00">include/Thoth/Http</text>
<text text-anchor="middle" x="1620.09" y="-7" font-family="Helvetica,sans-Serif" font-size="10.00">/Client.hpp</text>
</a>
</g>
</g>
<!-- Node2&#45;&gt;Node3 -->
<g id="edge2_Node000002_Node000003" class="edge">
<title>Node2&#45;&gt;Node3</title>
<g id="a_edge2_Node000002_Node000003"><a xlink:title=" ">
<path fill="none" stroke="#63b8ff" d="M1844.79,-594.86C1844.49,-568.76 1844.09,-525.93 1844.09,-489 1844.09,-489 1844.09,-489 1844.09,-146 1844.09,-67.54 1740.01,-35.64 1673.74,-23.28"/>
<polygon fill="#63b8ff" stroke="#63b8ff" points="1841.29,-595 1844.91,-604.96 1848.29,-594.92 1841.29,-595"/>
</a>
</g>
</g>
<!-- Node4 -->
<g id="Node000004" class="node">
<title>Node4</title>
<g id="a_Node000004"><a xlink:href="_query_params_8hpp.html" target="_top" xlink:title=" ">
<polygon fill="white" stroke="#666666" points="1593.59,-569 1444.59,-569 1444.59,-539 1593.59,-539 1593.59,-569"/>
<text text-anchor="start" x="1452.59" y="-557" font-family="Helvetica,sans-Serif" font-size="10.00">include/Thoth/Http</text>
<text text-anchor="middle" x="1519.09" y="-546" font-family="Helvetica,sans-Serif" font-size="10.00">/Request/QueryParams.hpp</text>
</a>
</g>
</g>
<!-- Node2&#45;&gt;Node4 -->
<g id="edge3_Node000002_Node000004" class="edge">
<title>Node2&#45;&gt;Node4</title>
<g id="a_edge3_Node000002_Node000004"><a xlink:title=" ">
<path fill="none" stroke="#63b8ff" d="M1781.3,-606.48C1726.44,-595.71 1647.37,-580.19 1590.42,-569"/>
<polygon fill="#63b8ff" stroke="#63b8ff" points="1780.77,-609.94 1791.25,-608.43 1782.11,-603.07 1780.77,-609.94"/>
</a>
</g>
</g>
<!-- Node2&#45;&gt;Node24 -->
<g id="edge33_Node000002_Node000024" class="edge">
<title>Node2&#45;&gt;Node24</title>
<g id="a_edge33_Node000002_Node000024"><a xlink:title=" ">
<path fill="none" stroke="#63b8ff" d="M1872.02,-598.48C1884.57,-588.91 1899.2,-577.77 1910.5,-569.16"/>
<polygon fill="#63b8ff" stroke="#63b8ff" points="1869.56,-595.95 1863.73,-604.8 1873.8,-601.52 1869.56,-595.95"/>
</a>
</g>
</g>
<!-- Node5 -->
<g id="Node000005" class="node">
<title>Node5</title>
<g id="a_Node000005"><a xlink:href="_url_8hpp.html" target="_top" xlink:title=" ">
<polygon fill="white" stroke="#666666" points="1219.59,-503 1112.59,-503 1112.59,-473 1219.59,-473 1219.59,-503"/>
<text text-anchor="start" x="1120.59" y="-491" font-family="Helvetica,sans-Serif" font-size="10.00">include/Thoth/Http</text>
<text text-anchor="middle" x="1166.09" y="-480" font-family="Helvetica,sans-Serif" font-size="10.00">/Request/Url.hpp</text>
</a>
</g>
</g>
<!-- Node4&#45;&gt;Node5 -->
<g id="edge4_Node000004_Node000005" class="edge">
<title>Node4&#45;&gt;Node5</title>
<g id="a_edge4_Node000004_Node000005"><a xlink:title=" ">
<path fill="none" stroke="#63b8ff" d="M1434.14,-537.6C1367.41,-525.5 1276.52,-509.02 1219.59,-498.7"/>
<polygon fill="#63b8ff" stroke="#63b8ff" points="1433.76,-541.09 1444.22,-539.43 1435.01,-534.2 1433.76,-541.09"/>
</a>
</g>
</g>
<!-- Node6 -->
<g id="Node000006" class="node">
<title>Node6</title>
<g id="a_Node000006"><a xlink:href="_method_concept_8hpp.html" target="_top" xlink:title=" ">
<polygon fill="white" stroke="#666666" points="1039.09,-371 845.09,-371 845.09,-341 1039.09,-341 1039.09,-371"/>
<text text-anchor="start" x="853.09" y="-359" font-family="Helvetica,sans-Serif" font-size="10.00">include/Thoth/Http</text>
<text text-anchor="middle" x="942.09" y="-348" font-family="Helvetica,sans-Serif" font-size="10.00">/Methods/_base/MethodConcept.hpp</text>
</a>
</g>
</g>
<!-- Node5&#45;&gt;Node6 -->
<g id="edge5_Node000005_Node000006" class="edge">
<title>Node5&#45;&gt;Node6</title>
<g id="a_edge5_Node000005_Node000006"><a xlink:title=" ">
<path fill="none" stroke="#63b8ff" d="M1132.81,-467.69C1087.31,-441.28 1006.74,-394.53 966.45,-371.14"/>
<polygon fill="#63b8ff" stroke="#63b8ff" points="1131.28,-470.85 1141.69,-472.84 1134.8,-464.79 1131.28,-470.85"/>
</a>
</g>
</g>
<!-- Node10 -->
<g id="Node000010" class="node">
<title>Node10</title>
<g id="a_Node000010"><a xlink:href="_request_8hpp.html" target="_top" xlink:title=" ">
<polygon fill="white" stroke="#666666" points="1493.59,-233.5 1370.59,-233.5 1370.59,-203.5 1493.59,-203.5 1493.59,-233.5"/>
<text text-anchor="start" x="1378.59" y="-221.5" font-family="Helvetica,sans-Serif" font-size="10.00">include/Thoth/Http</text>
<text text-anchor="middle" x="1432.09" y="-210.5" font-family="Helvetica,sans-Serif" font-size="10.00">/Request/Request.hpp</text>
</a>
</g>
</g>
<!-- Node5&#45;&gt;Node10 -->
<g id="edge32_Node000005_Node000010" class="edge">
<title>Node5&#45;&gt;Node10</title>
<g id="a_edge32_Node000005_Node000010"><a xlink:title=" ">
<path fill="none" stroke="#63b8ff" d="M1102.09,-485.35C838.91,-477.51 -138.91,-437.24 17.09,-275 64.61,-225.57 1104.2,-220.14 1370.43,-219.57"/>
<polygon fill="#63b8ff" stroke="#63b8ff" points="1102.15,-488.86 1112.25,-485.65 1102.36,-481.86 1102.15,-488.86"/>
</a>
</g>
</g>
<!-- Node19 -->
<g id="Node000019" class="node">
<title>Node19</title>
<g id="a_Node000019"><a xlink:href="_headers_8hpp.html" target="_top" xlink:title=" ">
<polygon fill="white" stroke="#666666" points="1456.09,-437 1324.09,-437 1324.09,-407 1456.09,-407 1456.09,-437"/>
<text text-anchor="start" x="1332.09" y="-425" font-family="Helvetica,sans-Serif" font-size="10.00">include/Thoth/Http</text>
<text text-anchor="middle" x="1390.09" y="-414" font-family="Helvetica,sans-Serif" font-size="10.00">/NHeaders/Headers.hpp</text>
</a>
</g>
</g>
<!-- Node5&#45;&gt;Node19 -->
<g id="edge23_Node000005_Node000019" class="edge">
<title>Node5&#45;&gt;Node19</title>
<g id="a_edge23_Node000005_Node000019"><a xlink:title=" ">
<path fill="none" stroke="#63b8ff" d="M1225.16,-470.12C1261.28,-459.8 1306.93,-446.76 1341.04,-437.01"/>
<polygon fill="#63b8ff" stroke="#63b8ff" points="1223.9,-466.84 1215.24,-472.95 1225.82,-473.57 1223.9,-466.84"/>
</a>
</g>
</g>
<!-- Node7 -->
<g id="Node000007" class="node">
<title>Node7</title>
<g id="a_Node000007"><a xlink:href="_connect_method_8hpp.html" target="_top" xlink:title=" ">
<polygon fill="white" stroke="#666666" points="1196.09,-305 1034.09,-305 1034.09,-275 1196.09,-275 1196.09,-305"/>
<text text-anchor="start" x="1042.09" y="-293" font-family="Helvetica,sans-Serif" font-size="10.00">include/Thoth/Http</text>
<text text-anchor="middle" x="1115.09" y="-282" font-family="Helvetica,sans-Serif" font-size="10.00">/Methods/ConnectMethod.hpp</text>
</a>
</g>
</g>
<!-- Node6&#45;&gt;Node7 -->
<g id="edge6_Node000006_Node000007" class="edge">
<title>Node6&#45;&gt;Node7</title>
<g id="a_edge6_Node000006_Node000007"><a xlink:title=" ">
<path fill="none" stroke="#63b8ff" d="M989.51,-337.46C1017.11,-327.25 1051.43,-314.55 1077.21,-305.01"/>
<polygon fill="#63b8ff" stroke="#63b8ff" points="988.22,-334.2 980.05,-340.95 990.64,-340.77 988.22,-334.2"/>
</a>
</g>
</g>
<!-- Node8 -->
<g id="Node000008" class="node">
<title>Node8</title>
<g id="a_Node000008"><a xlink:href="_delete_method_8hpp.html" target="_top" xlink:title=" ">
<polygon fill="white" stroke="#666666" points="181.59,-305 26.59,-305 26.59,-275 181.59,-275 181.59,-305"/>
<text text-anchor="start" x="34.59" y="-293" font-family="Helvetica,sans-Serif" font-size="10.00">include/Thoth/Http</text>
<text text-anchor="middle" x="104.09" y="-282" font-family="Helvetica,sans-Serif" font-size="10.00">/Methods/DeleteMethod.hpp</text>
</a>
</g>
</g>
<!-- Node6&#45;&gt;Node8 -->
<g id="edge7_Node000006_Node000008" class="edge">
<title>Node6&#45;&gt;Node8</title>
<g id="a_edge7_Node000006_Node000008"><a xlink:title=" ">
<path fill="none" stroke="#63b8ff" d="M834.61,-350.99C688.58,-344.83 419.47,-330.92 191.09,-305 188.05,-304.65 184.95,-304.28 181.82,-303.88"/>
<polygon fill="#63b8ff" stroke="#63b8ff" points="834.77,-354.5 844.91,-351.42 835.06,-347.51 834.77,-354.5"/>
</a>
</g>
</g>
<!-- Node9 -->
<g id="Node000009" class="node">
<title>Node9</title>
<g id="a_Node000009"><a xlink:href="_get_method_8hpp.html" target="_top" xlink:title=" ">
<polygon fill="white" stroke="#666666" points="1354.09,-305 1214.09,-305 1214.09,-275 1354.09,-275 1354.09,-305"/>
<text text-anchor="start" x="1222.09" y="-293" font-family="Helvetica,sans-Serif" font-size="10.00">include/Thoth/Http</text>
<text text-anchor="middle" x="1284.09" y="-282" font-family="Helvetica,sans-Serif" font-size="10.00">/Methods/GetMethod.hpp</text>
</a>
</g>
</g>
<!-- Node6&#45;&gt;Node9 -->
<g id="edge8_Node000006_Node000009" class="edge">
<title>Node6&#45;&gt;Node9</title>
<g id="a_edge8_Node000006_Node000009"><a xlink:title=" ">
<path fill="none" stroke="#63b8ff" d="M1027.3,-339.05C1084.81,-328.29 1159.8,-314.26 1213.87,-304.14"/>
<polygon fill="#63b8ff" stroke="#63b8ff" points="1026.32,-335.68 1017.14,-340.95 1027.61,-342.56 1026.32,-335.68"/>
</a>
</g>
</g>
<!-- Node13 -->
<g id="Node000013" class="node">
<title>Node13</title>
<g id="a_Node000013"><a xlink:href="_head_method_8hpp.html" target="_top" xlink:title=" ">
<polygon fill="white" stroke="#666666" points="348.09,-305 200.09,-305 200.09,-275 348.09,-275 348.09,-305"/>
<text text-anchor="start" x="208.09" y="-293" font-family="Helvetica,sans-Serif" font-size="10.00">include/Thoth/Http</text>
<text text-anchor="middle" x="274.09" y="-282" font-family="Helvetica,sans-Serif" font-size="10.00">/Methods/HeadMethod.hpp</text>
</a>
</g>
</g>
<!-- Node6&#45;&gt;Node13 -->
<g id="edge15_Node000006_Node000013" class="edge">
<title>Node6&#45;&gt;Node13</title>
<g id="a_edge15_Node000006_Node000013"><a xlink:title=" ">
<path fill="none" stroke="#63b8ff" d="M834.97,-348.48C717.45,-340.72 523.39,-326.1 357.09,-305 354.19,-304.63 351.23,-304.24 348.25,-303.82"/>
<polygon fill="#63b8ff" stroke="#63b8ff" points="834.84,-351.98 845.04,-349.15 835.3,-345 834.84,-351.98"/>
</a>
</g>
</g>
<!-- Node14 -->
<g id="Node000014" class="node">
<title>Node14</title>
<g id="a_Node000014"><a xlink:href="_options_method_8hpp.html" target="_top" xlink:title=" ">
<polygon fill="white" stroke="#666666" points="526.09,-305 366.09,-305 366.09,-275 526.09,-275 526.09,-305"/>
<text text-anchor="start" x="374.09" y="-293" font-family="Helvetica,sans-Serif" font-size="10.00">include/Thoth/Http</text>
<text text-anchor="middle" x="446.09" y="-282" font-family="Helvetica,sans-Serif" font-size="10.00">/Methods/OptionsMethod.hpp</text>
</a>
</g>
</g>
<!-- Node6&#45;&gt;Node14 -->
<g id="edge16_Node000006_Node000014" class="edge">
<title>Node6&#45;&gt;Node14</title>
<g id="a_edge16_Node000006_Node000014"><a xlink:title=" ">
<path fill="none" stroke="#63b8ff" d="M834.83,-342.83C752.69,-333.26 636.61,-319.22 535.09,-305 532.14,-304.59 529.15,-304.16 526.12,-303.72"/>
<polygon fill="#63b8ff" stroke="#63b8ff" points="834.59,-346.32 844.93,-344 835.4,-339.37 834.59,-346.32"/>
</a>
</g>
</g>
<!-- Node15 -->
<g id="Node000015" class="node">
<title>Node15</title>
<g id="a_Node000015"><a xlink:href="_patch_method_8hpp.html" target="_top" xlink:title=" ">
<polygon fill="white" stroke="#666666" points="693.59,-305 544.59,-305 544.59,-275 693.59,-275 693.59,-305"/>
<text text-anchor="start" x="552.59" y="-293" font-family="Helvetica,sans-Serif" font-size="10.00">include/Thoth/Http</text>
<text text-anchor="middle" x="619.09" y="-282" font-family="Helvetica,sans-Serif" font-size="10.00">/Methods/PatchMethod.hpp</text>
</a>
</g>
</g>
<!-- Node6&#45;&gt;Node15 -->
<g id="edge17_Node000006_Node000015" class="edge">
<title>Node6&#45;&gt;Node15</title>
<g id="a_edge17_Node000006_Node000015"><a xlink:title=" ">
<path fill="none" stroke="#63b8ff" d="M861.21,-338.98C808.49,-328.53 740.36,-315.03 689.8,-305.01"/>
<polygon fill="#63b8ff" stroke="#63b8ff" points="860.71,-342.44 871.2,-340.95 862.07,-335.58 860.71,-342.44"/>
</a>
</g>
</g>
<!-- Node16 -->
<g id="Node000016" class="node">
<title>Node16</title>
<g id="a_Node000016"><a xlink:href="_post_method_8hpp.html" target="_top" xlink:title=" ">
<polygon fill="white" stroke="#666666" points="1553.59,-305 1410.59,-305 1410.59,-275 1553.59,-275 1553.59,-305"/>
<text text-anchor="start" x="1418.59" y="-293" font-family="Helvetica,sans-Serif" font-size="10.00">include/Thoth/Http</text>
<text text-anchor="middle" x="1482.09" y="-282" font-family="Helvetica,sans-Serif" font-size="10.00">/Methods/PostMethod.hpp</text>
</a>
</g>
</g>
<!-- Node6&#45;&gt;Node16 -->
<g id="edge18_Node000006_Node000016" class="edge">
<title>Node6&#45;&gt;Node16</title>
<g id="a_edge18_Node000006_Node000016"><a xlink:title=" ">
<path fill="none" stroke="#63b8ff" d="M1049.43,-342.28C1156.47,-329.59 1317.86,-310.46 1410.28,-299.51"/>
<polygon fill="#63b8ff" stroke="#63b8ff" points="1048.77,-338.83 1039.25,-343.48 1049.59,-345.78 1048.77,-338.83"/>
</a>
</g>
</g>
<!-- Node17 -->
<g id="Node000017" class="node">
<title>Node17</title>
<g id="a_Node000017"><a xlink:href="_put_method_8hpp.html" target="_top" xlink:title=" ">
<polygon fill="white" stroke="#666666" points="850.09,-305 712.09,-305 712.09,-275 850.09,-275 850.09,-305"/>
<text text-anchor="start" x="720.09" y="-293" font-family="Helvetica,sans-Serif" font-size="10.00">include/Thoth/Http</text>
<text text-anchor="middle" x="781.09" y="-282" font-family="Helvetica,sans-Serif" font-size="10.00">/Methods/PutMethod.hpp</text>
</a>
</g>
</g>
<!-- Node6&#45;&gt;Node17 -->
<g id="edge21_Node000006_Node000017" class="edge">
<title>Node6&#45;&gt;Node17</title>
<g id="a_edge21_Node000006_Node000017"><a xlink:title=" ">
<path fill="none" stroke="#63b8ff" d="M897.28,-337.19C871.71,-327.02 840.12,-314.47 816.34,-305.01"/>
<polygon fill="#63b8ff" stroke="#63b8ff" points="896.17,-340.51 906.75,-340.95 898.75,-334.01 896.17,-340.51"/>
</a>
</g>
</g>
<!-- Node18 -->
<g id="Node000018" class="node">
<title>Node18</title>
<g id="a_Node000018"><a xlink:href="_trace_method_8hpp.html" target="_top" xlink:title=" ">
<polygon fill="white" stroke="#666666" points="1016.09,-305 868.09,-305 868.09,-275 1016.09,-275 1016.09,-305"/>
<text text-anchor="start" x="876.09" y="-293" font-family="Helvetica,sans-Serif" font-size="10.00">include/Thoth/Http</text>
<text text-anchor="middle" x="942.09" y="-282" font-family="Helvetica,sans-Serif" font-size="10.00">/Methods/TraceMethod.hpp</text>
</a>
</g>
</g>
<!-- Node6&#45;&gt;Node18 -->
<g id="edge22_Node000006_Node000018" class="edge">
<title>Node6&#45;&gt;Node18</title>
<g id="a_edge22_Node000006_Node000018"><a xlink:title=" ">
<path fill="none" stroke="#63b8ff" d="M942.09,-330.54C942.09,-321.96 942.09,-312.61 942.09,-305.16"/>
<polygon fill="#63b8ff" stroke="#63b8ff" points="938.59,-330.8 942.09,-340.8 945.59,-330.8 938.59,-330.8"/>
</a>
</g>
</g>
<!-- Node9&#45;&gt;Node10 -->
<g id="edge9_Node000009_Node000010" class="edge">
<title>Node9&#45;&gt;Node10</title>
<g id="a_edge9_Node000009_Node000010"><a xlink:title=" ">
<path fill="none" stroke="#63b8ff" d="M1323.16,-270.65C1347.91,-259.03 1379.42,-244.23 1402.18,-233.54"/>
<polygon fill="#63b8ff" stroke="#63b8ff" points="1321.6,-267.52 1314.04,-274.94 1324.57,-273.85 1321.6,-267.52"/>
</a>
</g>
</g>
<!-- Node12 -->
<g id="Node000012" class="node">
<title>Node12</title>
<g id="a_Node000012"><a xlink:href="_response_8hpp.html" target="_top" xlink:title=" ">
<polygon fill="white" stroke="#666666" points="1689.09,-96 1551.09,-96 1551.09,-66 1689.09,-66 1689.09,-96"/>
<text text-anchor="start" x="1559.09" y="-84" font-family="Helvetica,sans-Serif" font-size="10.00">include/Thoth/Http</text>
<text text-anchor="middle" x="1620.09" y="-73" font-family="Helvetica,sans-Serif" font-size="10.00">/Response/Response.hpp</text>
</a>
</g>
</g>
<!-- Node9&#45;&gt;Node12 -->
<g id="edge14_Node000009_Node000012" class="edge">
<title>Node9&#45;&gt;Node12</title>
<g id="a_edge14_Node000009_Node000012"><a xlink:title=" ">
<path fill="none" stroke="#63b8ff" d="M1297.43,-265.7C1318.59,-230.95 1363.23,-166 1419.09,-132 1459.02,-107.69 1510.22,-95.18 1550.96,-88.75"/>
<polygon fill="#63b8ff" stroke="#63b8ff" points="1294.21,-264.27 1292.1,-274.65 1300.22,-267.85 1294.21,-264.27"/>
</a>
</g>
</g>
<!-- Node10&#45;&gt;Node3 -->
<g id="edge10_Node000010_Node000003" class="edge">
<title>Node10&#45;&gt;Node3</title>
<g id="a_edge10_Node000010_Node000003"><a xlink:title=" ">
<path fill="none" stroke="#63b8ff" d="M1420.87,-194.21C1413.89,-176.11 1408.13,-150.98 1419.09,-132 1450.72,-77.22 1519.15,-46 1567.35,-30.05"/>
<polygon fill="#63b8ff" stroke="#63b8ff" points="1417.66,-195.61 1424.78,-203.46 1424.11,-192.88 1417.66,-195.61"/>
</a>
</g>
</g>
<!-- Node11 -->
<g id="Node000011" class="node">
<title>Node11</title>
<g id="a_Node000011"><a xlink:href="_response_head_8hpp.html" target="_top" xlink:title=" ">
<polygon fill="white" stroke="#666666" points="1592.09,-162 1428.09,-162 1428.09,-132 1592.09,-132 1592.09,-162"/>
<text text-anchor="start" x="1436.09" y="-150" font-family="Helvetica,sans-Serif" font-size="10.00">include/Thoth/Http</text>
<text text-anchor="middle" x="1510.09" y="-139" font-family="Helvetica,sans-Serif" font-size="10.00">/Response/ResponseHead.hpp</text>
</a>
</g>
</g>
<!-- Node10&#45;&gt;Node11 -->
<g id="edge11_Node000010_Node000011" class="edge">
<title>Node10&#45;&gt;Node11</title>
<g id="a_edge11_Node000010_Node000011"><a xlink:title=" ">
<path fill="none" stroke="#63b8ff" d="M1455.66,-196.49C1468.18,-185.34 1483.23,-171.93 1494.32,-162.04"/>
<polygon fill="#63b8ff" stroke="#63b8ff" points="1453.01,-194.17 1447.87,-203.44 1457.66,-199.4 1453.01,-194.17"/>
</a>
</g>
</g>
<!-- Node11&#45;&gt;Node12 -->
<g id="edge12_Node000011_Node000012" class="edge">
<title>Node11&#45;&gt;Node12</title>
<g id="a_edge12_Node000011_Node000012"><a xlink:title=" ">
<path fill="none" stroke="#63b8ff" d="M1543.27,-126.69C1560.25,-116.82 1580.54,-105.01 1596,-96.01"/>
<polygon fill="#63b8ff" stroke="#63b8ff" points="1541.11,-123.9 1534.23,-131.95 1544.63,-129.95 1541.11,-123.9"/>
</a>
</g>
</g>
<!-- Node12&#45;&gt;Node3 -->
<g id="edge13_Node000012_Node000003" class="edge">
<title>Node12&#45;&gt;Node3</title>
<g id="a_edge13_Node000012_Node000003"><a xlink:title=" ">
<path fill="none" stroke="#63b8ff" d="M1620.09,-55.54C1620.09,-46.96 1620.09,-37.61 1620.09,-30.16"/>
<polygon fill="#63b8ff" stroke="#63b8ff" points="1616.59,-55.8 1620.09,-65.8 1623.59,-55.8 1616.59,-55.8"/>
</a>
</g>
</g>
<!-- Node16&#45;&gt;Node10 -->
<g id="edge19_Node000016_Node000010" class="edge">
<title>Node16&#45;&gt;Node10</title>
<g id="a_edge19_Node000016_Node000010"><a xlink:title=" ">
<path fill="none" stroke="#63b8ff" d="M1466.05,-266.71C1458.21,-255.82 1449.03,-243.05 1442.19,-233.54"/>
<polygon fill="#63b8ff" stroke="#63b8ff" points="1463.29,-268.86 1471.97,-274.94 1468.97,-264.77 1463.29,-268.86"/>
</a>
</g>
</g>
<!-- Node16&#45;&gt;Node12 -->
<g id="edge20_Node000016_Node000012" class="edge">
<title>Node16&#45;&gt;Node12</title>
<g id="a_edge20_Node000016_Node000012"><a xlink:title=" ">
<path fill="none" stroke="#63b8ff" d="M1508.5,-268.13C1535.84,-245.07 1577.76,-205.42 1601.09,-162 1612.5,-140.75 1617.13,-112.69 1618.95,-96.08"/>
<polygon fill="#63b8ff" stroke="#63b8ff" points="1505.99,-265.66 1500.52,-274.73 1510.45,-271.05 1505.99,-265.66"/>
</a>
</g>
</g>
<!-- Node19&#45;&gt;Node6 -->
<g id="edge24_Node000019_Node000006" class="edge">
<title>Node19&#45;&gt;Node6</title>
<g id="a_edge24_Node000019_Node000006"><a xlink:title=" ">
<path fill="none" stroke="#63b8ff" d="M1314.03,-410.13C1238.23,-399.31 1121.54,-382.64 1039.11,-370.86"/>
<polygon fill="#63b8ff" stroke="#63b8ff" points="1313.59,-413.61 1323.98,-411.56 1314.58,-406.68 1313.59,-413.61"/>
</a>
</g>
</g>
<!-- Node19&#45;&gt;Node11 -->
<g id="edge31_Node000019_Node000011" class="edge">
<title>Node19&#45;&gt;Node11</title>
<g id="a_edge31_Node000019_Node000011"><a xlink:title=" ">
<path fill="none" stroke="#63b8ff" d="M1389.47,-396.53C1390.38,-378.78 1394.61,-355.45 1409.09,-341 1458.53,-291.66 1518.71,-359.76 1562.09,-305 1597.2,-260.66 1547.48,-191.59 1522.69,-162.11"/>
<polygon fill="#63b8ff" stroke="#63b8ff" points="1385.97,-396.66 1389.27,-406.73 1392.97,-396.8 1385.97,-396.66"/>
</a>
</g>
</g>
<!-- Node20 -->
<g id="Node000020" class="node">
<title>Node20</title>
<g id="a_Node000020"><a xlink:href="_list_proxy_8hpp.html" target="_top" xlink:title=" ">
<polygon fill="white" stroke="#666666" points="1584.09,-371 1418.09,-371 1418.09,-341 1584.09,-341 1584.09,-371"/>
<text text-anchor="start" x="1426.09" y="-359" font-family="Helvetica,sans-Serif" font-size="10.00">include/Thoth/Http</text>
<text text-anchor="middle" x="1501.09" y="-348" font-family="Helvetica,sans-Serif" font-size="10.00">/NHeaders/Proxy/ListProxy.hpp</text>
</a>
</g>
</g>
<!-- Node19&#45;&gt;Node20 -->
<g id="edge25_Node000019_Node000020" class="edge">
<title>Node19&#45;&gt;Node20</title>
<g id="a_edge25_Node000019_Node000020"><a xlink:title=" ">
<path fill="none" stroke="#63b8ff" d="M1423.57,-401.69C1440.7,-391.82 1461.18,-380.01 1476.78,-371.01"/>
<polygon fill="#63b8ff" stroke="#63b8ff" points="1421.36,-398.93 1414.44,-406.95 1424.86,-404.99 1421.36,-398.93"/>
</a>
</g>
</g>
<!-- Node21 -->
<g id="Node000021" class="node">
<title>Node21</title>
<g id="a_Node000021"><a xlink:href="_value_proxy_8hpp.html" target="_top" xlink:title=" ">
<polygon fill="white" stroke="#666666" points="1778.09,-371 1602.09,-371 1602.09,-341 1778.09,-341 1778.09,-371"/>
<text text-anchor="start" x="1610.09" y="-359" font-family="Helvetica,sans-Serif" font-size="10.00">include/Thoth/Http</text>
<text text-anchor="middle" x="1690.09" y="-348" font-family="Helvetica,sans-Serif" font-size="10.00">/NHeaders/Proxy/ValueProxy.hpp</text>
</a>
</g>
</g>
<!-- Node19&#45;&gt;Node21 -->
<g id="edge26_Node000019_Node000021" class="edge">
<title>Node19&#45;&gt;Node21</title>
<g id="a_edge26_Node000019_Node000021"><a xlink:title=" ">
<path fill="none" stroke="#63b8ff" d="M1465.81,-404.84C1514.69,-394.42 1577.64,-380.99 1624.4,-371.01"/>
<polygon fill="#63b8ff" stroke="#63b8ff" points="1464.97,-401.45 1455.92,-406.95 1466.43,-408.29 1464.97,-401.45"/>
</a>
</g>
</g>
<!-- Node22 -->
<g id="Node000022" class="node">
<title>Node22</title>
<g id="a_Node000022"><a xlink:href="_request_headers_8hpp.html" target="_top" xlink:title=" ">
<polygon fill="white" stroke="#666666" points="1361.59,-371 1146.59,-371 1146.59,-341 1361.59,-341 1361.59,-371"/>
<text text-anchor="start" x="1154.59" y="-359" font-family="Helvetica,sans-Serif" font-size="10.00">include/Thoth/Http</text>
<text text-anchor="middle" x="1254.09" y="-348" font-family="Helvetica,sans-Serif" font-size="10.00">/NHeaders/Request/RequestHeaders.hpp</text>
</a>
</g>
</g>
<!-- Node19&#45;&gt;Node22 -->
<g id="edge27_Node000019_Node000022" class="edge">
<title>Node19&#45;&gt;Node22</title>
<g id="a_edge27_Node000019_Node000022"><a xlink:title=" ">
<path fill="none" stroke="#63b8ff" d="M1351.09,-402.65C1329.7,-392.58 1303.6,-380.3 1283.86,-371.01"/>
<polygon fill="#63b8ff" stroke="#63b8ff" points="1349.7,-405.86 1360.24,-406.95 1352.68,-399.53 1349.7,-405.86"/>
</a>
</g>
</g>
<!-- Node23 -->
<g id="Node000023" class="node">
<title>Node23</title>
<g id="a_Node000023"><a xlink:href="_response_headers_8hpp.html" target="_top" xlink:title=" ">
<polygon fill="white" stroke="#666666" points="1816.09,-239 1648.09,-239 1648.09,-198 1816.09,-198 1816.09,-239"/>
<text text-anchor="start" x="1656.09" y="-227" font-family="Helvetica,sans-Serif" font-size="10.00">include/Thoth/Http</text>
<text text-anchor="start" x="1656.09" y="-216" font-family="Helvetica,sans-Serif" font-size="10.00">/NHeaders/Response/Response</text>
<text text-anchor="middle" x="1732.09" y="-205" font-family="Helvetica,sans-Serif" font-size="10.00">Headers.hpp</text>
</a>
</g>
</g>
<!-- Node19&#45;&gt;Node23 -->
<g id="edge29_Node000019_Node000023" class="edge">
<title>Node19&#45;&gt;Node23</title>
<g id="a_edge29_Node000019_Node000023"><a xlink:title=" ">
<path fill="none" stroke="#63b8ff" d="M1466.38,-416.75C1575.73,-409.87 1766.25,-394.62 1787.09,-371 1821.33,-332.18 1777.36,-270.35 1750.33,-239.04"/>
<polygon fill="#63b8ff" stroke="#63b8ff" points="1466.14,-413.26 1456.38,-417.37 1466.58,-420.24 1466.14,-413.26"/>
</a>
</g>
</g>
<!-- Node22&#45;&gt;Node10 -->
<g id="edge28_Node000022_Node000010" class="edge">
<title>Node22&#45;&gt;Node10</title>
<g id="a_edge28_Node000022_Node000010"><a xlink:title=" ">
<path fill="none" stroke="#63b8ff" d="M1305.69,-337.09C1324.82,-329.02 1346,-318.28 1363.09,-305 1389.44,-284.51 1412,-252.08 1423.65,-233.61"/>
<polygon fill="#63b8ff" stroke="#63b8ff" points="1304.14,-333.95 1296.2,-340.96 1306.78,-340.43 1304.14,-333.95"/>
</a>
</g>
</g>
<!-- Node23&#45;&gt;Node12 -->
<g id="edge30_Node000023_Node000012" class="edge">
<title>Node23&#45;&gt;Node12</title>
<g id="a_edge30_Node000023_Node000012"><a xlink:title=" ">
<path fill="none" stroke="#63b8ff" d="M1709.24,-189.86C1685.8,-161.5 1650.25,-118.5 1631.93,-96.33"/>
<polygon fill="#63b8ff" stroke="#63b8ff" points="1706.73,-192.32 1715.8,-197.8 1712.13,-187.86 1706.73,-192.32"/>
</a>
</g>
</g>
<!-- Node24&#45;&gt;Node12 -->
<g id="edge34_Node000024_Node000012" class="edge">
<title>Node24&#45;&gt;Node12</title>
<g id="a_edge34_Node000024_Node000012"><a xlink:title=" ">
<path fill="none" stroke="#63b8ff" d="M1915.25,-529.97C1901.38,-504.66 1882.09,-462.37 1882.09,-423 1882.09,-423 1882.09,-423 1882.09,-289 1882.09,-181.61 1744.89,-121.25 1669.06,-96.09"/>
<polygon fill="#63b8ff" stroke="#63b8ff" points="1912.27,-531.82 1920.25,-538.79 1918.36,-528.37 1912.27,-531.82"/>
</a>
</g>
</g>
</g>
</svg>
