<?xml version="1.0" encoding="UTF-8" standalone="no"?>
<!DOCTYPE svg PUBLIC "-//W3C//DTD SVG 1.1//EN"
 "http://www.w3.org/Graphics/SVG/1.1/DTD/svg11.dtd">
<!-- Generated by graphviz version 2.43.0 (0)
 -->
<!-- Title: include/Thoth/NJson/Definitions.hpp Pages: 1 -->
<svg width="1900pt" height="709pt"
 viewBox="0.00 0.00 1900.19 709.00" xmlns="http://www.w3.org/2000/svg" xmlns:xlink="http://www.w3.org/1999/xlink">
<g id="graph0" class="graph" transform="scale(1 1) rotate(0) translate(4 705)">
<title>include/Thoth/NJson/Definitions.hpp</title>
<!-- Node1 -->
<g id="Node000001" class="node">
<title>Node1</title>
<g id="a_Node000001"><a xlink:title=" ">
<polygon fill="#999999" stroke="#666666" points="975.69,-701 862.69,-701 862.69,-671 975.69,-671 975.69,-701"/>
<text text-anchor="start" x="870.69" y="-689" font-family="Helvetica,sans-Serif" font-size="10.00">include/Thoth/NJson</text>
<text text-anchor="middle" x="919.19" y="-678" font-family="Helvetica,sans-Serif" font-size="10.00">/Definitions.hpp</text>
</a>
</g>
</g>
<!-- Node2 -->
<g id="Node000002" class="node">
<title>Node2</title>
<g id="a_Node000002"><a xlink:href="_request_error_8hpp.html" target="_top" xlink:title=" ">
<polygon fill="white" stroke="#666666" points="1030.69,-635 923.69,-635 923.69,-605 1030.69,-605 1030.69,-635"/>
<text text-anchor="start" x="931.69" y="-623" font-family="Helvetica,sans-Serif" font-size="10.00">include/Thoth/Http</text>
<text text-anchor="middle" x="977.19" y="-612" font-family="Helvetica,sans-Serif" font-size="10.00">/RequestError.hpp</text>
</a>
</g>
</g>
<!-- Node1&#45;&gt;Node2 -->
<g id="edge1_Node000001_Node000002" class="edge">
<title>Node1&#45;&gt;Node2</title>
<g id="a_edge1_Node000001_Node000002"><a xlink:title=" ">
<path fill="none" stroke="#63b8ff" d="M938.8,-663.37C947.23,-654.06 956.86,-643.44 964.36,-635.16"/>
<polygon fill="#63b8ff" stroke="#63b8ff" points="936.19,-661.04 932.07,-670.8 941.37,-665.74 936.19,-661.04"/>
</a>
</g>
</g>
<!-- Node25 -->
<g id="Node000025" class="node">
<title>Node25</title>
<g id="a_Node000025"><a xlink:href="_json_8hpp.html" target="_top" xlink:title=" ">
<polygon fill="white" stroke="#666666" points="901.69,-569 788.69,-569 788.69,-539 901.69,-539 901.69,-569"/>
<text text-anchor="start" x="796.69" y="-557" font-family="Helvetica,sans-Serif" font-size="10.00">include/Thoth/NJson</text>
<text text-anchor="middle" x="845.19" y="-546" font-family="Helvetica,sans-Serif" font-size="10.00">/Json.hpp</text>
</a>
</g>
</g>
<!-- Node1&#45;&gt;Node25 -->
<g id="edge38_Node000001_Node000025" class="edge">
<title>Node1&#45;&gt;Node25</title>
<g id="a_edge38_Node000001_Node000025"><a xlink:title=" ">
<path fill="none" stroke="#63b8ff" d="M906.16,-662.1C890.86,-635.23 865.97,-591.5 853.24,-569.14"/>
<polygon fill="#63b8ff" stroke="#63b8ff" points="903.14,-663.88 911.13,-670.84 909.23,-660.42 903.14,-663.88"/>
</a>
</g>
</g>
<!-- Node3 -->
<g id="Node000003" class="node">
<title>Node3</title>
<g id="a_Node000003"><a xlink:href="_client_8hpp.html" target="_top" xlink:title=" ">
<polygon fill="white" stroke="#666666" points="651.69,-30 544.69,-30 544.69,0 651.69,0 651.69,-30"/>
<text text-anchor="start" x="552.69" y="-18" font-family="Helvetica,sans-Serif" font-size="10.00">include/Thoth/Http</text>
<text text-anchor="middle" x="598.19" y="-7" font-family="Helvetica,sans-Serif" font-size="10.00">/Client.hpp</text>
</a>
</g>
</g>
<!-- Node2&#45;&gt;Node3 -->
<g id="edge2_Node000002_Node000003" class="edge">
<title>Node2&#45;&gt;Node3</title>
<g id="a_edge2_Node000002_Node000003"><a xlink:title=" ">
<path fill="none" stroke="#63b8ff" d="M1041.17,-616.66C1249.05,-608.2 1892.19,-575.09 1892.19,-489 1892.19,-489 1892.19,-489 1892.19,-151.5 1892.19,-24.65 895.94,-16.09 651.74,-15.89"/>
<polygon fill="#63b8ff" stroke="#63b8ff" points="1040.87,-613.17 1031.01,-617.06 1041.15,-620.16 1040.87,-613.17"/>
</a>
</g>
</g>
<!-- Node4 -->
<g id="Node000004" class="node">
<title>Node4</title>
<g id="a_Node000004"><a xlink:href="_query_params_8hpp.html" target="_top" xlink:title=" ">
<polygon fill="white" stroke="#666666" points="1068.69,-569 919.69,-569 919.69,-539 1068.69,-539 1068.69,-569"/>
<text text-anchor="start" x="927.69" y="-557" font-family="Helvetica,sans-Serif" font-size="10.00">include/Thoth/Http</text>
<text text-anchor="middle" x="994.19" y="-546" font-family="Helvetica,sans-Serif" font-size="10.00">/Request/QueryParams.hpp</text>
</a>
</g>
</g>
<!-- Node2&#45;&gt;Node4 -->
<g id="edge3_Node000002_Node000004" class="edge">
<title>Node2&#45;&gt;Node4</title>
<g id="a_edge3_Node000002_Node000004"><a xlink:title=" ">
<path fill="none" stroke="#63b8ff" d="M983.54,-595.11C985.86,-586.38 988.41,-576.78 990.43,-569.16"/>
<polygon fill="#63b8ff" stroke="#63b8ff" points="980.15,-594.23 980.97,-604.8 986.92,-596.03 980.15,-594.23"/>
</a>
</g>
</g>
<!-- Node2&#45;&gt;Node25 -->
<g id="edge36_Node000002_Node000025" class="edge">
<title>Node2&#45;&gt;Node25</title>
<g id="a_edge36_Node000002_Node000025"><a xlink:title=" ">
<path fill="none" stroke="#63b8ff" d="M939.06,-600.51C918.36,-590.47 893.16,-578.26 874.09,-569.01"/>
<polygon fill="#63b8ff" stroke="#63b8ff" points="937.7,-603.74 948.23,-604.95 940.75,-597.44 937.7,-603.74"/>
</a>
</g>
</g>
<!-- Node5 -->
<g id="Node000005" class="node">
<title>Node5</title>
<g id="a_Node000005"><a xlink:href="_url_8hpp.html" target="_top" xlink:title=" ">
<polygon fill="white" stroke="#666666" points="1047.69,-503 940.69,-503 940.69,-473 1047.69,-473 1047.69,-503"/>
<text text-anchor="start" x="948.69" y="-491" font-family="Helvetica,sans-Serif" font-size="10.00">include/Thoth/Http</text>
<text text-anchor="middle" x="994.19" y="-480" font-family="Helvetica,sans-Serif" font-size="10.00">/Url/Url.hpp</text>
</a>
</g>
</g>
<!-- Node4&#45;&gt;Node5 -->
<g id="edge4_Node000004_Node000005" class="edge">
<title>Node4&#45;&gt;Node5</title>
<g id="a_edge4_Node000004_Node000005"><a xlink:title=" ">
<path fill="none" stroke="#63b8ff" d="M994.19,-528.54C994.19,-519.96 994.19,-510.61 994.19,-503.16"/>
<polygon fill="#63b8ff" stroke="#63b8ff" points="990.69,-528.8 994.19,-538.8 997.69,-528.8 990.69,-528.8"/>
</a>
</g>
</g>
<!-- Node6 -->
<g id="Node000006" class="node">
<title>Node6</title>
<g id="a_Node000006"><a xlink:href="_method_concept_8hpp.html" target="_top" xlink:title=" ">
<polygon fill="white" stroke="#666666" points="1091.19,-371 897.19,-371 897.19,-341 1091.19,-341 1091.19,-371"/>
<text text-anchor="start" x="905.19" y="-359" font-family="Helvetica,sans-Serif" font-size="10.00">include/Thoth/Http</text>
<text text-anchor="middle" x="994.19" y="-348" font-family="Helvetica,sans-Serif" font-size="10.00">/Methods/_base/MethodConcept.hpp</text>
</a>
</g>
</g>
<!-- Node5&#45;&gt;Node6 -->
<g id="edge5_Node000005_Node000006" class="edge">
<title>Node5&#45;&gt;Node6</title>
<g id="a_edge5_Node000005_Node000006"><a xlink:title=" ">
<path fill="none" stroke="#63b8ff" d="M994.19,-462.68C994.19,-435.7 994.19,-393.11 994.19,-371.14"/>
<polygon fill="#63b8ff" stroke="#63b8ff" points="990.69,-462.84 994.19,-472.84 997.69,-462.84 990.69,-462.84"/>
</a>
</g>
</g>
<!-- Node10 -->
<g id="Node000010" class="node">
<title>Node10</title>
<g id="a_Node000010"><a xlink:href="_request_8hpp.html" target="_top" xlink:title=" ">
<polygon fill="white" stroke="#666666" points="531.69,-239 408.69,-239 408.69,-209 531.69,-209 531.69,-239"/>
<text text-anchor="start" x="416.69" y="-227" font-family="Helvetica,sans-Serif" font-size="10.00">include/Thoth/Http</text>
<text text-anchor="middle" x="470.19" y="-216" font-family="Helvetica,sans-Serif" font-size="10.00">/Request/Request.hpp</text>
</a>
</g>
</g>
<!-- Node5&#45;&gt;Node10 -->
<g id="edge35_Node000005_Node000010" class="edge">
<title>Node5&#45;&gt;Node10</title>
<g id="a_edge35_Node000005_Node000010"><a xlink:title=" ">
<path fill="none" stroke="#63b8ff" d="M1058.09,-487.24C1260.12,-486.06 1861.16,-466.75 1677.19,-275 1657.17,-254.13 775.19,-232.1 531.82,-226.4"/>
<polygon fill="#63b8ff" stroke="#63b8ff" points="1057.9,-483.74 1047.92,-487.28 1057.93,-490.74 1057.9,-483.74"/>
</a>
</g>
</g>
<!-- Node19 -->
<g id="Node000019" class="node">
<title>Node19</title>
<g id="a_Node000019"><a xlink:href="_headers_8hpp.html" target="_top" xlink:title=" ">
<polygon fill="white" stroke="#666666" points="500.19,-437 368.19,-437 368.19,-407 500.19,-407 500.19,-437"/>
<text text-anchor="start" x="376.19" y="-425" font-family="Helvetica,sans-Serif" font-size="10.00">include/Thoth/Http</text>
<text text-anchor="middle" x="434.19" y="-414" font-family="Helvetica,sans-Serif" font-size="10.00">/NHeaders/Headers.hpp</text>
</a>
</g>
</g>
<!-- Node5&#45;&gt;Node19 -->
<g id="edge23_Node000005_Node000019" class="edge">
<title>Node5&#45;&gt;Node19</title>
<g id="a_edge23_Node000005_Node000019"><a xlink:title=" ">
<path fill="none" stroke="#63b8ff" d="M930.5,-479.72C823.63,-467.51 609.26,-443.01 500.6,-430.59"/>
<polygon fill="#63b8ff" stroke="#63b8ff" points="930.17,-483.21 940.5,-480.86 930.96,-476.25 930.17,-483.21"/>
</a>
</g>
</g>
<!-- Node7 -->
<g id="Node000007" class="node">
<title>Node7</title>
<g id="a_Node000007"><a xlink:href="_connect_method_8hpp.html" target="_top" xlink:title=" ">
<polygon fill="white" stroke="#666666" points="1328.19,-305 1166.19,-305 1166.19,-275 1328.19,-275 1328.19,-305"/>
<text text-anchor="start" x="1174.19" y="-293" font-family="Helvetica,sans-Serif" font-size="10.00">include/Thoth/Http</text>
<text text-anchor="middle" x="1247.19" y="-282" font-family="Helvetica,sans-Serif" font-size="10.00">/Methods/ConnectMethod.hpp</text>
</a>
</g>
</g>
<!-- Node6&#45;&gt;Node7 -->
<g id="edge6_Node000006_Node000007" class="edge">
<title>Node6&#45;&gt;Node7</title>
<g id="a_edge6_Node000006_Node000007"><a xlink:title=" ">
<path fill="none" stroke="#63b8ff" d="M1059.61,-338.45C1100.61,-328.08 1152.86,-314.86 1191.8,-305.01"/>
<polygon fill="#63b8ff" stroke="#63b8ff" points="1058.55,-335.11 1049.72,-340.95 1060.27,-341.9 1058.55,-335.11"/>
</a>
</g>
</g>
<!-- Node8 -->
<g id="Node000008" class="node">
<title>Node8</title>
<g id="a_Node000008"><a xlink:href="_delete_method_8hpp.html" target="_top" xlink:title=" ">
<polygon fill="white" stroke="#666666" points="1501.69,-305 1346.69,-305 1346.69,-275 1501.69,-275 1501.69,-305"/>
<text text-anchor="start" x="1354.69" y="-293" font-family="Helvetica,sans-Serif" font-size="10.00">include/Thoth/Http</text>
<text text-anchor="middle" x="1424.19" y="-282" font-family="Helvetica,sans-Serif" font-size="10.00">/Methods/DeleteMethod.hpp</text>
</a>
</g>
</g>
<!-- Node6&#45;&gt;Node8 -->
<g id="edge7_Node000006_Node000008" class="edge">
<title>Node6&#45;&gt;Node8</title>
<g id="a_edge7_Node000006_Node000008"><a xlink:title=" ">
<path fill="none" stroke="#63b8ff" d="M1101.7,-339.74C1169.33,-330.05 1258.41,-317.08 1337.19,-305 1340.22,-304.54 1343.3,-304.06 1346.41,-303.57"/>
<polygon fill="#63b8ff" stroke="#63b8ff" points="1100.86,-336.33 1091.46,-341.21 1101.85,-343.26 1100.86,-336.33"/>
</a>
</g>
</g>
<!-- Node9 -->
<g id="Node000009" class="node">
<title>Node9</title>
<g id="a_Node000009"><a xlink:href="_get_method_8hpp.html" target="_top" xlink:title=" ">
<polygon fill="white" stroke="#666666" points="1864.19,-305 1724.19,-305 1724.19,-275 1864.19,-275 1864.19,-305"/>
<text text-anchor="start" x="1732.19" y="-293" font-family="Helvetica,sans-Serif" font-size="10.00">include/Thoth/Http</text>
<text text-anchor="middle" x="1794.19" y="-282" font-family="Helvetica,sans-Serif" font-size="10.00">/Methods/GetMethod.hpp</text>
</a>
</g>
</g>
<!-- Node6&#45;&gt;Node9 -->
<g id="edge8_Node000006_Node000009" class="edge">
<title>Node6&#45;&gt;Node9</title>
<g id="a_edge8_Node000006_Node000009"><a xlink:title=" ">
<path fill="none" stroke="#63b8ff" d="M1101.61,-348.67C1236.26,-340.38 1474.05,-324.58 1677.19,-305 1692.36,-303.54 1708.61,-301.74 1724.03,-299.93"/>
<polygon fill="#63b8ff" stroke="#63b8ff" points="1101.07,-345.2 1091.3,-349.3 1101.5,-352.18 1101.07,-345.2"/>
</a>
</g>
</g>
<!-- Node13 -->
<g id="Node000013" class="node">
<title>Node13</title>
<g id="a_Node000013"><a xlink:href="_head_method_8hpp.html" target="_top" xlink:title=" ">
<polygon fill="white" stroke="#666666" points="1668.19,-305 1520.19,-305 1520.19,-275 1668.19,-275 1668.19,-305"/>
<text text-anchor="start" x="1528.19" y="-293" font-family="Helvetica,sans-Serif" font-size="10.00">include/Thoth/Http</text>
<text text-anchor="middle" x="1594.19" y="-282" font-family="Helvetica,sans-Serif" font-size="10.00">/Methods/HeadMethod.hpp</text>
</a>
</g>
</g>
<!-- Node6&#45;&gt;Node13 -->
<g id="edge15_Node000006_Node000013" class="edge">
<title>Node6&#45;&gt;Node13</title>
<g id="a_edge15_Node000006_Node000013"><a xlink:title=" ">
<path fill="none" stroke="#63b8ff" d="M1101.89,-346.82C1206.64,-338.33 1370.18,-323.69 1511.19,-305 1514.09,-304.62 1517.04,-304.21 1520.02,-303.78"/>
<polygon fill="#63b8ff" stroke="#63b8ff" points="1101.31,-343.35 1091.62,-347.64 1101.87,-350.33 1101.31,-343.35"/>
</a>
</g>
</g>
<!-- Node14 -->
<g id="Node000014" class="node">
<title>Node14</title>
<g id="a_Node000014"><a xlink:href="_options_method_8hpp.html" target="_top" xlink:title=" ">
<polygon fill="white" stroke="#666666" points="658.19,-305 498.19,-305 498.19,-275 658.19,-275 658.19,-305"/>
<text text-anchor="start" x="506.19" y="-293" font-family="Helvetica,sans-Serif" font-size="10.00">include/Thoth/Http</text>
<text text-anchor="middle" x="578.19" y="-282" font-family="Helvetica,sans-Serif" font-size="10.00">/Methods/OptionsMethod.hpp</text>
</a>
</g>
</g>
<!-- Node6&#45;&gt;Node14 -->
<g id="edge16_Node000006_Node000014" class="edge">
<title>Node6&#45;&gt;Node14</title>
<g id="a_edge16_Node000006_Node000014"><a xlink:title=" ">
<path fill="none" stroke="#63b8ff" d="M891.69,-339.44C827.24,-329.63 742.34,-316.66 667.19,-305 664.26,-304.54 661.27,-304.08 658.24,-303.61"/>
<polygon fill="#63b8ff" stroke="#63b8ff" points="891.44,-342.94 901.86,-340.99 892.5,-336.02 891.44,-342.94"/>
</a>
</g>
</g>
<!-- Node15 -->
<g id="Node000015" class="node">
<title>Node15</title>
<g id="a_Node000015"><a xlink:href="_patch_method_8hpp.html" target="_top" xlink:title=" ">
<polygon fill="white" stroke="#666666" points="825.69,-305 676.69,-305 676.69,-275 825.69,-275 825.69,-305"/>
<text text-anchor="start" x="684.69" y="-293" font-family="Helvetica,sans-Serif" font-size="10.00">include/Thoth/Http</text>
<text text-anchor="middle" x="751.19" y="-282" font-family="Helvetica,sans-Serif" font-size="10.00">/Methods/PatchMethod.hpp</text>
</a>
</g>
</g>
<!-- Node6&#45;&gt;Node15 -->
<g id="edge17_Node000006_Node000015" class="edge">
<title>Node6&#45;&gt;Node15</title>
<g id="a_edge17_Node000006_Node000015"><a xlink:title=" ">
<path fill="none" stroke="#63b8ff" d="M931.11,-338.39C891.77,-328.03 841.72,-314.84 804.4,-305.01"/>
<polygon fill="#63b8ff" stroke="#63b8ff" points="930.3,-341.79 940.87,-340.95 932.09,-335.02 930.3,-341.79"/>
</a>
</g>
</g>
<!-- Node16 -->
<g id="Node000016" class="node">
<title>Node16</title>
<g id="a_Node000016"><a xlink:href="_post_method_8hpp.html" target="_top" xlink:title=" ">
<polygon fill="white" stroke="#666666" points="441.69,-305 298.69,-305 298.69,-275 441.69,-275 441.69,-305"/>
<text text-anchor="start" x="306.69" y="-293" font-family="Helvetica,sans-Serif" font-size="10.00">include/Thoth/Http</text>
<text text-anchor="middle" x="370.19" y="-282" font-family="Helvetica,sans-Serif" font-size="10.00">/Methods/PostMethod.hpp</text>
</a>
</g>
</g>
<!-- Node6&#45;&gt;Node16 -->
<g id="edge18_Node000006_Node000016" class="edge">
<title>Node6&#45;&gt;Node16</title>
<g id="a_edge18_Node000006_Node000016"><a xlink:title=" ">
<path fill="none" stroke="#63b8ff" d="M886.83,-344.95C784.56,-335.24 626.3,-319.85 489.19,-305 473.89,-303.34 457.49,-301.47 441.91,-299.65"/>
<polygon fill="#63b8ff" stroke="#63b8ff" points="886.57,-348.44 896.86,-345.9 887.23,-341.47 886.57,-348.44"/>
</a>
</g>
</g>
<!-- Node17 -->
<g id="Node000017" class="node">
<title>Node17</title>
<g id="a_Node000017"><a xlink:href="_put_method_8hpp.html" target="_top" xlink:title=" ">
<polygon fill="white" stroke="#666666" points="982.19,-305 844.19,-305 844.19,-275 982.19,-275 982.19,-305"/>
<text text-anchor="start" x="852.19" y="-293" font-family="Helvetica,sans-Serif" font-size="10.00">include/Thoth/Http</text>
<text text-anchor="middle" x="913.19" y="-282" font-family="Helvetica,sans-Serif" font-size="10.00">/Methods/PutMethod.hpp</text>
</a>
</g>
</g>
<!-- Node6&#45;&gt;Node17 -->
<g id="edge21_Node000006_Node000017" class="edge">
<title>Node6&#45;&gt;Node17</title>
<g id="a_edge21_Node000006_Node000017"><a xlink:title=" ">
<path fill="none" stroke="#63b8ff" d="M968.22,-334.48C956.12,-324.91 942.02,-313.77 931.12,-305.16"/>
<polygon fill="#63b8ff" stroke="#63b8ff" points="966.2,-337.34 976.22,-340.8 970.54,-331.85 966.2,-337.34"/>
</a>
</g>
</g>
<!-- Node18 -->
<g id="Node000018" class="node">
<title>Node18</title>
<g id="a_Node000018"><a xlink:href="_trace_method_8hpp.html" target="_top" xlink:title=" ">
<polygon fill="white" stroke="#666666" points="1148.19,-305 1000.19,-305 1000.19,-275 1148.19,-275 1148.19,-305"/>
<text text-anchor="start" x="1008.19" y="-293" font-family="Helvetica,sans-Serif" font-size="10.00">include/Thoth/Http</text>
<text text-anchor="middle" x="1074.19" y="-282" font-family="Helvetica,sans-Serif" font-size="10.00">/Methods/TraceMethod.hpp</text>
</a>
</g>
</g>
<!-- Node6&#45;&gt;Node18 -->
<g id="edge22_Node000006_Node000018" class="edge">
<title>Node6&#45;&gt;Node18</title>
<g id="a_edge22_Node000006_Node000018"><a xlink:title=" ">
<path fill="none" stroke="#63b8ff" d="M1019.85,-334.48C1031.8,-324.91 1045.73,-313.77 1056.49,-305.16"/>
<polygon fill="#63b8ff" stroke="#63b8ff" points="1017.57,-331.82 1011.95,-340.8 1021.94,-337.28 1017.57,-331.82"/>
</a>
</g>
</g>
<!-- Node9&#45;&gt;Node10 -->
<g id="edge9_Node000009_Node000010" class="edge">
<title>Node9&#45;&gt;Node10</title>
<g id="a_edge9_Node000009_Node000010"><a xlink:title=" ">
<path fill="none" stroke="#63b8ff" d="M1714.07,-275.4C1712.77,-275.26 1711.48,-275.13 1710.19,-275 1195.1,-224.34 1060.84,-294.04 546.19,-239 541.52,-238.5 536.71,-237.88 531.88,-237.17"/>
<polygon fill="#63b8ff" stroke="#63b8ff" points="1713.82,-278.9 1724.16,-276.61 1714.65,-271.94 1713.82,-278.9"/>
</a>
</g>
</g>
<!-- Node12 -->
<g id="Node000012" class="node">
<title>Node12</title>
<g id="a_Node000012"><a xlink:href="_response_8hpp.html" target="_top" xlink:title=" ">
<polygon fill="white" stroke="#666666" points="399.19,-96 261.19,-96 261.19,-66 399.19,-66 399.19,-96"/>
<text text-anchor="start" x="269.19" y="-84" font-family="Helvetica,sans-Serif" font-size="10.00">include/Thoth/Http</text>
<text text-anchor="middle" x="330.19" y="-73" font-family="Helvetica,sans-Serif" font-size="10.00">/Response/Response.hpp</text>
</a>
</g>
</g>
<!-- Node9&#45;&gt;Node12 -->
<g id="edge14_Node000009_Node000012" class="edge">
<title>Node9&#45;&gt;Node12</title>
<g id="a_edge14_Node000009_Node000012"><a xlink:title=" ">
<path fill="none" stroke="#63b8ff" d="M1714.05,-275.59C1712.75,-275.39 1711.47,-275.2 1710.19,-275 1208.03,-198.05 601.11,-117.47 399.21,-91"/>
<polygon fill="#63b8ff" stroke="#63b8ff" points="1713.67,-279.08 1724.09,-277.17 1714.75,-272.16 1713.67,-279.08"/>
</a>
</g>
</g>
<!-- Node10&#45;&gt;Node3 -->
<g id="edge10_Node000010_Node000003" class="edge">
<title>Node10&#45;&gt;Node3</title>
<g id="a_edge10_Node000010_Node000003"><a xlink:title=" ">
<path fill="none" stroke="#63b8ff" d="M500.58,-202.76C511.29,-194.49 522.76,-184.23 531.19,-173 566.06,-126.54 586.81,-59.19 594.62,-30.17"/>
<polygon fill="#63b8ff" stroke="#63b8ff" points="498.18,-200.18 492.21,-208.93 502.34,-205.81 498.18,-200.18"/>
</a>
</g>
</g>
<!-- Node11 -->
<g id="Node000011" class="node">
<title>Node11</title>
<g id="a_Node000011"><a xlink:href="_response_head_8hpp.html" target="_top" xlink:title=" ">
<polygon fill="white" stroke="#666666" points="522.19,-167.5 358.19,-167.5 358.19,-137.5 522.19,-137.5 522.19,-167.5"/>
<text text-anchor="start" x="366.19" y="-155.5" font-family="Helvetica,sans-Serif" font-size="10.00">include/Thoth/Http</text>
<text text-anchor="middle" x="440.19" y="-144.5" font-family="Helvetica,sans-Serif" font-size="10.00">/Response/ResponseHead.hpp</text>
</a>
</g>
</g>
<!-- Node10&#45;&gt;Node11 -->
<g id="edge11_Node000010_Node000011" class="edge">
<title>Node10&#45;&gt;Node11</title>
<g id="a_edge11_Node000010_Node000011"><a xlink:title=" ">
<path fill="none" stroke="#63b8ff" d="M460.15,-199.73C455.54,-189.06 450.24,-176.77 446.26,-167.54"/>
<polygon fill="#63b8ff" stroke="#63b8ff" points="456.95,-201.14 464.12,-208.94 463.37,-198.37 456.95,-201.14"/>
</a>
</g>
</g>
<!-- Node11&#45;&gt;Node12 -->
<g id="edge12_Node000011_Node000012" class="edge">
<title>Node11&#45;&gt;Node12</title>
<g id="a_edge12_Node000011_Node000012"><a xlink:title=" ">
<path fill="none" stroke="#63b8ff" d="M409.44,-132.07C391.32,-120.62 368.81,-106.4 352.42,-96.04"/>
<polygon fill="#63b8ff" stroke="#63b8ff" points="407.61,-135.05 417.93,-137.44 411.35,-129.14 407.61,-135.05"/>
</a>
</g>
</g>
<!-- Node12&#45;&gt;Node3 -->
<g id="edge13_Node000012_Node000003" class="edge">
<title>Node12&#45;&gt;Node3</title>
<g id="a_edge13_Node000012_Node000003"><a xlink:title=" ">
<path fill="none" stroke="#63b8ff" d="M398.76,-63.63C444.07,-52.81 502.61,-38.83 544.52,-28.82"/>
<polygon fill="#63b8ff" stroke="#63b8ff" points="397.92,-60.23 389.01,-65.95 399.55,-67.04 397.92,-60.23"/>
</a>
</g>
</g>
<!-- Node16&#45;&gt;Node10 -->
<g id="edge19_Node000016_Node000010" class="edge">
<title>Node16&#45;&gt;Node10</title>
<g id="a_edge19_Node000016_Node000010"><a xlink:title=" ">
<path fill="none" stroke="#63b8ff" d="M400.97,-269.3C416.2,-259.56 434.22,-248.02 448.06,-239.16"/>
<polygon fill="#63b8ff" stroke="#63b8ff" points="398.92,-266.46 392.39,-274.8 402.7,-272.35 398.92,-266.46"/>
</a>
</g>
</g>
<!-- Node16&#45;&gt;Node12 -->
<g id="edge20_Node000016_Node000012" class="edge">
<title>Node16&#45;&gt;Node12</title>
<g id="a_edge20_Node000016_Node000012"><a xlink:title=" ">
<path fill="none" stroke="#63b8ff" d="M365.51,-264.76C357.08,-221.15 339.63,-130.81 332.91,-96.05"/>
<polygon fill="#63b8ff" stroke="#63b8ff" points="362.11,-265.62 367.44,-274.77 368.98,-264.29 362.11,-265.62"/>
</a>
</g>
</g>
<!-- Node19&#45;&gt;Node6 -->
<g id="edge27_Node000019_Node000006" class="edge">
<title>Node19&#45;&gt;Node6</title>
<g id="a_edge27_Node000019_Node000006"><a xlink:title=" ">
<path fill="none" stroke="#63b8ff" d="M510.42,-412.29C610.74,-400.82 787.2,-380.66 897.01,-368.11"/>
<polygon fill="#63b8ff" stroke="#63b8ff" points="509.89,-408.83 500.36,-413.44 510.69,-415.78 509.89,-408.83"/>
</a>
</g>
</g>
<!-- Node19&#45;&gt;Node11 -->
<g id="edge34_Node000019_Node000011" class="edge">
<title>Node19&#45;&gt;Node11</title>
<g id="a_edge34_Node000019_Node000011"><a xlink:title=" ">
<path fill="none" stroke="#63b8ff" d="M457.1,-399.52C472.54,-382.45 487.67,-358.59 473.19,-341 420.23,-276.67 342.16,-369.33 289.19,-305 244.35,-250.53 349.25,-193.46 406.32,-167.66"/>
<polygon fill="#63b8ff" stroke="#63b8ff" points="454.48,-397.2 450.09,-406.85 459.54,-402.04 454.48,-397.2"/>
</a>
</g>
</g>
<!-- Node20 -->
<g id="Node000020" class="node">
<title>Node20</title>
<g id="a_Node000020"><a xlink:href="_file_output_range_8hpp.html" target="_top" xlink:title=" ">
<polygon fill="white" stroke="#666666" points="224.19,-239 66.19,-239 66.19,-209 224.19,-209 224.19,-239"/>
<text text-anchor="start" x="74.19" y="-227" font-family="Helvetica,sans-Serif" font-size="10.00">include/Thoth/Dsa/FileOutput</text>
<text text-anchor="middle" x="145.19" y="-216" font-family="Helvetica,sans-Serif" font-size="10.00">Range.hpp</text>
</a>
</g>
</g>
<!-- Node19&#45;&gt;Node20 -->
<g id="edge24_Node000019_Node000020" class="edge">
<title>Node19&#45;&gt;Node20</title>
<g id="a_edge24_Node000019_Node000020"><a xlink:title=" ">
<path fill="none" stroke="#63b8ff" d="M357.75,-420.85C268.38,-418.87 128.42,-409.48 95.19,-371 61.05,-331.45 107.93,-267.44 132.21,-239.18"/>
<polygon fill="#63b8ff" stroke="#63b8ff" points="357.78,-424.36 367.85,-421.05 357.92,-417.36 357.78,-424.36"/>
</a>
</g>
</g>
<!-- Node21 -->
<g id="Node000021" class="node">
<title>Node21</title>
<g id="a_Node000021"><a xlink:href="_list_proxy_8hpp.html" target="_top" xlink:title=" ">
<polygon fill="white" stroke="#666666" points="270.19,-371 104.19,-371 104.19,-341 270.19,-341 270.19,-371"/>
<text text-anchor="start" x="112.19" y="-359" font-family="Helvetica,sans-Serif" font-size="10.00">include/Thoth/Http</text>
<text text-anchor="middle" x="187.19" y="-348" font-family="Helvetica,sans-Serif" font-size="10.00">/NHeaders/Proxy/ListProxy.hpp</text>
</a>
</g>
</g>
<!-- Node19&#45;&gt;Node21 -->
<g id="edge28_Node000019_Node000021" class="edge">
<title>Node19&#45;&gt;Node21</title>
<g id="a_edge28_Node000019_Node000021"><a xlink:title=" ">
<path fill="none" stroke="#63b8ff" d="M370.07,-404.39C330.09,-394.03 279.21,-380.84 241.27,-371.01"/>
<polygon fill="#63b8ff" stroke="#63b8ff" points="369.43,-407.83 379.99,-406.95 371.19,-401.06 369.43,-407.83"/>
</a>
</g>
</g>
<!-- Node22 -->
<g id="Node000022" class="node">
<title>Node22</title>
<g id="a_Node000022"><a xlink:href="_value_proxy_8hpp.html" target="_top" xlink:title=" ">
<polygon fill="white" stroke="#666666" points="464.19,-371 288.19,-371 288.19,-341 464.19,-341 464.19,-371"/>
<text text-anchor="start" x="296.19" y="-359" font-family="Helvetica,sans-Serif" font-size="10.00">include/Thoth/Http</text>
<text text-anchor="middle" x="376.19" y="-348" font-family="Helvetica,sans-Serif" font-size="10.00">/NHeaders/Proxy/ValueProxy.hpp</text>
</a>
</g>
</g>
<!-- Node19&#45;&gt;Node22 -->
<g id="edge29_Node000019_Node000022" class="edge">
<title>Node19&#45;&gt;Node22</title>
<g id="a_edge29_Node000019_Node000022"><a xlink:title=" ">
<path fill="none" stroke="#63b8ff" d="M414.59,-399.37C406.15,-390.06 396.53,-379.44 389.03,-371.16"/>
<polygon fill="#63b8ff" stroke="#63b8ff" points="412.01,-401.74 421.32,-406.8 417.2,-397.04 412.01,-401.74"/>
</a>
</g>
</g>
<!-- Node23 -->
<g id="Node000023" class="node">
<title>Node23</title>
<g id="a_Node000023"><a xlink:href="_request_headers_8hpp.html" target="_top" xlink:title=" ">
<polygon fill="white" stroke="#666666" points="735.69,-371 520.69,-371 520.69,-341 735.69,-341 735.69,-371"/>
<text text-anchor="start" x="528.69" y="-359" font-family="Helvetica,sans-Serif" font-size="10.00">include/Thoth/Http</text>
<text text-anchor="middle" x="628.19" y="-348" font-family="Helvetica,sans-Serif" font-size="10.00">/NHeaders/Request/RequestHeaders.hpp</text>
</a>
</g>
</g>
<!-- Node19&#45;&gt;Node23 -->
<g id="edge30_Node000019_Node000023" class="edge">
<title>Node19&#45;&gt;Node23</title>
<g id="a_edge30_Node000019_Node000023"><a xlink:title=" ">
<path fill="none" stroke="#63b8ff" d="M486.56,-403.72C517.65,-393.47 556.55,-380.63 585.72,-371.01"/>
<polygon fill="#63b8ff" stroke="#63b8ff" points="485.17,-400.5 476.77,-406.95 487.36,-407.15 485.17,-400.5"/>
</a>
</g>
</g>
<!-- Node24 -->
<g id="Node000024" class="node">
<title>Node24</title>
<g id="a_Node000024"><a xlink:href="_response_headers_8hpp.html" target="_top" xlink:title=" ">
<polygon fill="white" stroke="#666666" points="206.19,-173 38.19,-173 38.19,-132 206.19,-132 206.19,-173"/>
<text text-anchor="start" x="46.19" y="-161" font-family="Helvetica,sans-Serif" font-size="10.00">include/Thoth/Http</text>
<text text-anchor="start" x="46.19" y="-150" font-family="Helvetica,sans-Serif" font-size="10.00">/NHeaders/Response/Response</text>
<text text-anchor="middle" x="122.19" y="-139" font-family="Helvetica,sans-Serif" font-size="10.00">Headers.hpp</text>
</a>
</g>
</g>
<!-- Node19&#45;&gt;Node24 -->
<g id="edge32_Node000019_Node000024" class="edge">
<title>Node19&#45;&gt;Node24</title>
<g id="a_edge32_Node000019_Node000024"><a xlink:title=" ">
<path fill="none" stroke="#63b8ff" d="M357.72,-420.39C265.66,-417.97 118.61,-408.19 80.19,-371 27.95,-320.41 26.74,-275.04 57.19,-209 63.9,-194.45 76.52,-182.3 88.87,-173.11"/>
<polygon fill="#63b8ff" stroke="#63b8ff" points="357.75,-423.89 367.83,-420.63 357.92,-416.89 357.75,-423.89"/>
</a>
</g>
</g>
<!-- Node20&#45;&gt;Node12 -->
<g id="edge26_Node000020_Node000012" class="edge">
<title>Node20&#45;&gt;Node12</title>
<g id="a_edge26_Node000020_Node000012"><a xlink:title=" ">
<path fill="none" stroke="#63b8ff" d="M173.99,-202.91C186.72,-193.91 201.81,-183.07 215.19,-173 250.39,-146.53 290.54,-114.28 312.87,-96.15"/>
<polygon fill="#63b8ff" stroke="#63b8ff" points="171.76,-200.2 165.6,-208.82 175.79,-205.92 171.76,-200.2"/>
</a>
</g>
</g>
<!-- Node20&#45;&gt;Node20 -->
<g id="edge25_Node000020_Node000020" class="edge">
<title>Node20&#45;&gt;Node20</title>
<g id="a_edge25_Node000020_Node000020"><a xlink:title=" ">
<path fill="none" stroke="#63b8ff" d="M234.35,-232.29C239.27,-230.27 242.19,-227.51 242.19,-224 242.19,-218.52 235.06,-214.86 224.36,-213.02"/>
<polygon fill="#63b8ff" stroke="#63b8ff" points="233.1,-229 224.36,-234.98 234.92,-235.76 233.1,-229"/>
</a>
</g>
</g>
<!-- Node23&#45;&gt;Node10 -->
<g id="edge31_Node000023_Node000010" class="edge">
<title>Node23&#45;&gt;Node10</title>
<g id="a_edge31_Node000023_Node000010"><a xlink:title=" ">
<path fill="none" stroke="#63b8ff" d="M538.65,-337.44C520.17,-330.11 502.35,-319.72 489.19,-305 472.83,-286.69 469.88,-256.87 469.7,-239.27"/>
<polygon fill="#63b8ff" stroke="#63b8ff" points="537.46,-340.73 548.05,-340.9 539.88,-334.17 537.46,-340.73"/>
</a>
</g>
</g>
<!-- Node24&#45;&gt;Node12 -->
<g id="edge33_Node000024_Node000012" class="edge">
<title>Node24&#45;&gt;Node12</title>
<g id="a_edge33_Node000024_Node000012"><a xlink:title=" ">
<path fill="none" stroke="#63b8ff" d="M190.52,-128.67C222.79,-117.89 260.27,-105.36 288.28,-96"/>
<polygon fill="#63b8ff" stroke="#63b8ff" points="189.06,-125.47 180.69,-131.96 191.28,-132.11 189.06,-125.47"/>
</a>
</g>
</g>
<!-- Node25&#45;&gt;Node12 -->
<g id="edge37_Node000025_Node000012" class="edge">
<title>Node25&#45;&gt;Node12</title>
<g id="a_edge37_Node000025_Node000012"><a xlink:title=" ">
<path fill="none" stroke="#63b8ff" d="M778.37,-549.74C578.69,-539.13 0.19,-501.6 0.19,-423 0.19,-423 0.19,-423 0.19,-223 0.19,-180.55 -2.9,-159.78 29.19,-132 62.99,-102.75 183.02,-90.34 260.91,-85.27"/>
<polygon fill="#63b8ff" stroke="#63b8ff" points="778.27,-553.24 788.44,-550.27 778.64,-546.25 778.27,-553.24"/>
</a>
</g>
</g>
</g>
</svg>
