<?xml version="1.0" encoding="UTF-8" standalone="no"?>
<!DOCTYPE svg PUBLIC "-//W3C//DTD SVG 1.1//EN"
 "http://www.w3.org/Graphics/SVG/1.1/DTD/svg11.dtd">
<!-- Generated by graphviz version 2.43.0 (0)
 -->
<!-- Title: include/Thoth/Http/Methods/DeleteMethod.hpp Pages: 1 -->
<svg width="1856pt" height="478pt"
 viewBox="0.00 0.00 1855.69 478.00" xmlns="http://www.w3.org/2000/svg" xmlns:xlink="http://www.w3.org/1999/xlink">
<g id="graph0" class="graph" transform="scale(1 1) rotate(0) translate(4 474)">
<title>include/Thoth/Http/Methods/DeleteMethod.hpp</title>
<!-- Node1 -->
<g id="Node000001" class="node">
<title>Node1</title>
<g id="a_Node000001"><a xlink:title=" ">
<polygon fill="#999999" stroke="#666666" points="429.69,-470 274.69,-470 274.69,-440 429.69,-440 429.69,-470"/>
<text text-anchor="start" x="282.69" y="-458" font-family="Helvetica,sans-Serif" font-size="10.00">include/Thoth/Http</text>
<text text-anchor="middle" x="352.19" y="-447" font-family="Helvetica,sans-Serif" font-size="10.00">/Methods/DeleteMethod.hpp</text>
</a>
</g>
</g>
<!-- Node2 -->
<g id="Node000002" class="node">
<title>Node2</title>
<g id="a_Node000002"><a xlink:href="_method_concept_8hpp.html" target="_top" xlink:title=" ">
<polygon fill="white" stroke="#666666" points="426.69,-404 277.69,-404 277.69,-374 426.69,-374 426.69,-404"/>
<text text-anchor="start" x="285.69" y="-392" font-family="Helvetica,sans-Serif" font-size="10.00">Thoth/Http/Methods</text>
<text text-anchor="middle" x="352.19" y="-381" font-family="Helvetica,sans-Serif" font-size="10.00">/_base/MethodConcept.hpp</text>
</a>
</g>
</g>
<!-- Node1&#45;&gt;Node2 -->
<g id="edge1_Node000001_Node000002" class="edge">
<title>Node1&#45;&gt;Node2</title>
<g id="a_edge1_Node000001_Node000002"><a xlink:title=" ">
<path fill="none" stroke="#63b8ff" d="M352.19,-439.8C352.19,-432.34 352.19,-422.99 352.19,-414.41"/>
<polygon fill="#63b8ff" stroke="#63b8ff" points="355.69,-414.16 352.19,-404.16 348.69,-414.16 355.69,-414.16"/>
</a>
</g>
</g>
<!-- Node3 -->
<g id="Node000003" class="node">
<title>Node3</title>
<g id="a_Node000003"><a xlink:href="_status_code_enum_8hpp.html" target="_top" xlink:title=" ">
<polygon fill="white" stroke="#666666" points="370.19,-140 246.19,-140 246.19,-110 370.19,-110 370.19,-140"/>
<text text-anchor="start" x="254.19" y="-128" font-family="Helvetica,sans-Serif" font-size="10.00">Thoth/Http/Response</text>
<text text-anchor="middle" x="308.19" y="-117" font-family="Helvetica,sans-Serif" font-size="10.00">/StatusCodeEnum.hpp</text>
</a>
</g>
</g>
<!-- Node2&#45;&gt;Node3 -->
<g id="edge2_Node000002_Node000003" class="edge">
<title>Node2&#45;&gt;Node3</title>
<g id="a_edge2_Node000002_Node000003"><a xlink:title=" ">
<path fill="none" stroke="#63b8ff" d="M340.92,-373.68C325.25,-352.76 297.63,-311.98 287.19,-272 276.19,-229.85 289.08,-179.25 298.97,-150.04"/>
<polygon fill="#63b8ff" stroke="#63b8ff" points="302.38,-150.9 302.43,-140.3 295.78,-148.56 302.38,-150.9"/>
</a>
</g>
</g>
<!-- Node6 -->
<g id="Node000006" class="node">
<title>Node6</title>
<g id="a_Node000006"><a xlink:href="_url_8hpp.html" target="_top" xlink:title=" ">
<polygon fill="white" stroke="#666666" points="491.69,-338 380.69,-338 380.69,-308 491.69,-308 491.69,-338"/>
<text text-anchor="start" x="388.69" y="-326" font-family="Helvetica,sans-Serif" font-size="10.00">Thoth/Http/Request</text>
<text text-anchor="middle" x="436.19" y="-315" font-family="Helvetica,sans-Serif" font-size="10.00">/Url.hpp</text>
</a>
</g>
</g>
<!-- Node2&#45;&gt;Node6 -->
<g id="edge5_Node000002_Node000006" class="edge">
<title>Node2&#45;&gt;Node6</title>
<g id="a_edge5_Node000002_Node000006"><a xlink:title=" ">
<path fill="none" stroke="#63b8ff" d="M370.83,-373.8C382.14,-365.18 396.77,-354.04 409.31,-344.48"/>
<polygon fill="#63b8ff" stroke="#63b8ff" points="411.77,-347.01 417.6,-338.16 407.52,-341.44 411.77,-347.01"/>
</a>
</g>
</g>
<!-- Node26 -->
<g id="Node000026" class="node">
<title>Node26</title>
<g id="a_Node000026"><a xlink:title=" ">
<polygon fill="#e0e0e0" stroke="#999999" points="1223.69,-19 1150.69,-19 1150.69,0 1223.69,0 1223.69,-19"/>
<text text-anchor="middle" x="1187.19" y="-7" font-family="Helvetica,sans-Serif" font-size="10.00">string_view</text>
</a>
</g>
</g>
<!-- Node2&#45;&gt;Node26 -->
<g id="edge52_Node000002_Node000026" class="edge">
<title>Node2&#45;&gt;Node26</title>
<g id="a_edge52_Node000002_Node000026"><a xlink:title=" ">
<path fill="none" stroke="#63b8ff" d="M427.02,-385.09C643.85,-375.67 1257.19,-341.63 1257.19,-258 1257.19,-258 1257.19,-258 1257.19,-190 1257.19,-129.14 1262.87,-108.68 1234.19,-55 1227.96,-43.35 1217.54,-33.01 1208.1,-25.24"/>
<polygon fill="#63b8ff" stroke="#63b8ff" points="1210.22,-22.46 1200.17,-19.11 1205.93,-28 1210.22,-22.46"/>
</a>
</g>
</g>
<!-- Node31 -->
<g id="Node000031" class="node">
<title>Node31</title>
<g id="a_Node000031"><a xlink:href="_headers_8hpp.html" target="_top" xlink:title=" ">
<polygon fill="white" stroke="#666666" points="234.69,-200.5 101.69,-200.5 101.69,-181.5 234.69,-181.5 234.69,-200.5"/>
<text text-anchor="middle" x="168.19" y="-188.5" font-family="Helvetica,sans-Serif" font-size="10.00">Thoth/Http/Headers.hpp</text>
</a>
</g>
</g>
<!-- Node2&#45;&gt;Node31 -->
<g id="edge44_Node000002_Node000031" class="edge">
<title>Node2&#45;&gt;Node31</title>
<g id="a_edge44_Node000002_Node000031"><a xlink:title=" ">
<path fill="none" stroke="#63b8ff" d="M312.73,-373.96C293.46,-365.68 270.88,-353.71 254.19,-338 214.31,-300.47 186.96,-240.33 175,-210.3"/>
<polygon fill="#63b8ff" stroke="#63b8ff" points="178.16,-208.77 171.29,-200.7 171.63,-211.28 178.16,-208.77"/>
</a>
</g>
</g>
<!-- Node4 -->
<g id="Node000004" class="node">
<title>Node4</title>
<g id="a_Node000004"><a xlink:title=" ">
<polygon fill="#e0e0e0" stroke="#999999" points="526.19,-74 464.19,-74 464.19,-55 526.19,-55 526.19,-74"/>
<text text-anchor="middle" x="495.19" y="-62" font-family="Helvetica,sans-Serif" font-size="10.00">expected</text>
</a>
</g>
</g>
<!-- Node3&#45;&gt;Node4 -->
<g id="edge3_Node000003_Node000004" class="edge">
<title>Node3&#45;&gt;Node4</title>
<g id="a_edge3_Node000003_Node000004"><a xlink:title=" ">
<path fill="none" stroke="#63b8ff" d="M352.98,-109.99C385.11,-99.94 427.89,-86.55 458.11,-77.1"/>
<polygon fill="#63b8ff" stroke="#63b8ff" points="459.35,-80.38 467.85,-74.05 457.26,-73.7 459.35,-80.38"/>
</a>
</g>
</g>
<!-- Node5 -->
<g id="Node000005" class="node">
<title>Node5</title>
<g id="a_Node000005"><a xlink:title=" ">
<polygon fill="#e0e0e0" stroke="#999999" points="336.19,-74 280.19,-74 280.19,-55 336.19,-55 336.19,-74"/>
<text text-anchor="middle" x="308.19" y="-62" font-family="Helvetica,sans-Serif" font-size="10.00">optional</text>
</a>
</g>
</g>
<!-- Node3&#45;&gt;Node5 -->
<g id="edge4_Node000003_Node000005" class="edge">
<title>Node3&#45;&gt;Node5</title>
<g id="a_edge4_Node000003_Node000005"><a xlink:title=" ">
<path fill="none" stroke="#63b8ff" d="M308.19,-109.84C308.19,-102.21 308.19,-92.7 308.19,-84.45"/>
<polygon fill="#63b8ff" stroke="#63b8ff" points="311.69,-84.27 308.19,-74.27 304.69,-84.27 311.69,-84.27"/>
</a>
</g>
</g>
<!-- Node6&#45;&gt;Node4 -->
<g id="edge6_Node000006_Node000004" class="edge">
<title>Node6&#45;&gt;Node4</title>
<g id="a_edge6_Node000006_Node000004"><a xlink:title=" ">
<path fill="none" stroke="#63b8ff" d="M440.46,-307.62C443.35,-297.66 447.19,-284.07 450.19,-272 467.29,-203.24 484.2,-120.72 491.47,-84.32"/>
<polygon fill="#63b8ff" stroke="#63b8ff" points="494.97,-84.69 493.48,-74.2 488.1,-83.32 494.97,-84.69"/>
</a>
</g>
</g>
<!-- Node7 -->
<g id="Node000007" class="node">
<title>Node7</title>
<g id="a_Node000007"><a xlink:title=" ">
<polygon fill="#e0e0e0" stroke="#999999" points="576.19,-19 532.19,-19 532.19,0 576.19,0 576.19,-19"/>
<text text-anchor="middle" x="554.19" y="-7" font-family="Helvetica,sans-Serif" font-size="10.00">string</text>
</a>
</g>
</g>
<!-- Node6&#45;&gt;Node7 -->
<g id="edge7_Node000006_Node000007" class="edge">
<title>Node6&#45;&gt;Node7</title>
<g id="a_edge7_Node000006_Node000007"><a xlink:title=" ">
<path fill="none" stroke="#63b8ff" d="M436.19,-307.96C436.19,-284.12 436.19,-234.2 436.19,-192 436.19,-192 436.19,-192 436.19,-124 436.19,-92.19 434.49,-79.15 455.19,-55 472.34,-34.99 500.3,-23.56 522.13,-17.31"/>
<polygon fill="#63b8ff" stroke="#63b8ff" points="523.2,-20.65 531.98,-14.72 521.42,-13.88 523.2,-20.65"/>
</a>
</g>
</g>
<!-- Node8 -->
<g id="Node000008" class="node">
<title>Node8</title>
<g id="a_Node000008"><a xlink:href="_query_params_8hpp.html" target="_top" xlink:title=" ">
<polygon fill="white" stroke="#666666" points="731.69,-272 620.69,-272 620.69,-242 731.69,-242 731.69,-272"/>
<text text-anchor="start" x="628.69" y="-260" font-family="Helvetica,sans-Serif" font-size="10.00">Thoth/Http/Request</text>
<text text-anchor="middle" x="676.19" y="-249" font-family="Helvetica,sans-Serif" font-size="10.00">/QueryParams.hpp</text>
</a>
</g>
</g>
<!-- Node6&#45;&gt;Node8 -->
<g id="edge8_Node000006_Node000008" class="edge">
<title>Node6&#45;&gt;Node8</title>
<g id="a_edge8_Node000006_Node000008"><a xlink:title=" ">
<path fill="none" stroke="#63b8ff" d="M488.86,-307.95C525.59,-298.16 574.77,-285.05 613.52,-274.71"/>
<polygon fill="#63b8ff" stroke="#63b8ff" points="614.88,-277.97 623.64,-272.01 613.08,-271.21 614.88,-277.97"/>
</a>
</g>
</g>
<!-- Node30 -->
<g id="Node000030" class="node">
<title>Node30</title>
<g id="a_Node000030"><a xlink:title=" ">
<polygon fill="#e0e0e0" stroke="#999999" points="407.69,-272 296.69,-272 296.69,-242 407.69,-242 407.69,-272"/>
<text text-anchor="start" x="304.69" y="-260" font-family="Helvetica,sans-Serif" font-size="10.00">Thoth/Http/Request</text>
<text text-anchor="middle" x="352.19" y="-249" font-family="Helvetica,sans-Serif" font-size="10.00">/Url.tpp</text>
</a>
</g>
</g>
<!-- Node6&#45;&gt;Node30 -->
<g id="edge43_Node000006_Node000030" class="edge">
<title>Node6&#45;&gt;Node30</title>
<g id="a_edge43_Node000006_Node000030"><a xlink:title=" ">
<path fill="none" stroke="#63b8ff" d="M417.55,-307.8C406.24,-299.18 391.61,-288.04 379.07,-278.48"/>
<polygon fill="#63b8ff" stroke="#63b8ff" points="380.85,-275.44 370.78,-272.16 376.61,-281.01 380.85,-275.44"/>
</a>
</g>
</g>
<!-- Node8&#45;&gt;Node4 -->
<g id="edge9_Node000008_Node000004" class="edge">
<title>Node8&#45;&gt;Node4</title>
<g id="a_edge9_Node000008_Node000004"><a xlink:title=" ">
<path fill="none" stroke="#63b8ff" d="M620.42,-248.4C591.67,-241.75 558.14,-229.29 536.19,-206 504.03,-171.88 496.93,-113.96 495.47,-84.27"/>
<polygon fill="#63b8ff" stroke="#63b8ff" points="498.96,-83.94 495.14,-74.06 491.97,-84.17 498.96,-83.94"/>
</a>
</g>
</g>
<!-- Node8&#45;&gt;Node7 -->
<g id="edge12_Node000008_Node000007" class="edge">
<title>Node8&#45;&gt;Node7</title>
<g id="a_edge12_Node000008_Node000007"><a xlink:title=" ">
<path fill="none" stroke="#63b8ff" d="M620.65,-242.23C601.61,-234.69 582.12,-223.23 570.19,-206 532.4,-151.46 542.87,-66.69 550.02,-29.3"/>
<polygon fill="#63b8ff" stroke="#63b8ff" points="553.49,-29.81 552.08,-19.31 546.64,-28.4 553.49,-29.81"/>
</a>
</g>
</g>
<!-- Node9 -->
<g id="Node000009" class="node">
<title>Node9</title>
<g id="a_Node000009"><a xlink:title=" ">
<polygon fill="#e0e0e0" stroke="#999999" points="628.19,-134.5 578.19,-134.5 578.19,-115.5 628.19,-115.5 628.19,-134.5"/>
<text text-anchor="middle" x="603.19" y="-122.5" font-family="Helvetica,sans-Serif" font-size="10.00">format</text>
</a>
</g>
</g>
<!-- Node8&#45;&gt;Node9 -->
<g id="edge10_Node000008_Node000009" class="edge">
<title>Node8&#45;&gt;Node9</title>
<g id="a_edge10_Node000008_Node000009"><a xlink:title=" ">
<path fill="none" stroke="#63b8ff" d="M686.74,-241.8C697.78,-225.06 711.86,-196.88 699.19,-176 691.88,-163.94 660.14,-148.84 635.14,-138.4"/>
<polygon fill="#63b8ff" stroke="#63b8ff" points="636.19,-135.05 625.61,-134.51 633.54,-141.53 636.19,-135.05"/>
</a>
</g>
</g>
<!-- Node10 -->
<g id="Node000010" class="node">
<title>Node10</title>
<g id="a_Node000010"><a xlink:title=" ">
<polygon fill="#e0e0e0" stroke="#999999" points="890.69,-74 843.69,-74 843.69,-55 890.69,-55 890.69,-74"/>
<text text-anchor="middle" x="867.19" y="-62" font-family="Helvetica,sans-Serif" font-size="10.00">vector</text>
</a>
</g>
</g>
<!-- Node8&#45;&gt;Node10 -->
<g id="edge11_Node000008_Node000010" class="edge">
<title>Node8&#45;&gt;Node10</title>
<g id="a_edge11_Node000008_Node000010"><a xlink:title=" ">
<path fill="none" stroke="#63b8ff" d="M691.45,-241.84C700.24,-232.61 710.46,-219.74 715.19,-206 719.52,-193.39 720.61,-188.18 715.19,-176 705.46,-154.15 684.92,-161.85 675.19,-140 669.76,-127.82 666.89,-120.44 675.19,-110 694.62,-85.55 783.94,-73.35 833.61,-68.35"/>
<polygon fill="#63b8ff" stroke="#63b8ff" points="833.96,-71.84 843.57,-67.39 833.28,-64.87 833.96,-71.84"/>
</a>
</g>
</g>
<!-- Node11 -->
<g id="Node000011" class="node">
<title>Node11</title>
<g id="a_Node000011"><a xlink:href="_linear_map_8hpp.html" target="_top" xlink:title=" ">
<polygon fill="white" stroke="#666666" points="1625.69,-134.5 1484.69,-134.5 1484.69,-115.5 1625.69,-115.5 1625.69,-134.5"/>
<text text-anchor="middle" x="1555.19" y="-122.5" font-family="Helvetica,sans-Serif" font-size="10.00">Thoth/Dsa/LinearMap.hpp</text>
</a>
</g>
</g>
<!-- Node8&#45;&gt;Node11 -->
<g id="edge13_Node000008_Node000011" class="edge">
<title>Node8&#45;&gt;Node11</title>
<g id="a_edge13_Node000008_Node000011"><a xlink:title=" ">
<path fill="none" stroke="#63b8ff" d="M731.72,-248.42C801.78,-238.8 925.98,-221.58 1032.19,-206 1197.65,-181.73 1392.28,-151.52 1490.91,-136.09"/>
<polygon fill="#63b8ff" stroke="#63b8ff" points="1491.67,-139.51 1501.01,-134.51 1490.59,-132.6 1491.67,-139.51"/>
</a>
</g>
</g>
<!-- Node17 -->
<g id="Node000017" class="node">
<title>Node17</title>
<g id="a_Node000017"><a xlink:href="_request_error_8hpp.html" target="_top" xlink:title=" ">
<polygon fill="white" stroke="#666666" points="1022.69,-200.5 867.69,-200.5 867.69,-181.5 1022.69,-181.5 1022.69,-200.5"/>
<text text-anchor="middle" x="945.19" y="-188.5" font-family="Helvetica,sans-Serif" font-size="10.00">Thoth/Http/RequestError.hpp</text>
</a>
</g>
</g>
<!-- Node8&#45;&gt;Node17 -->
<g id="edge20_Node000008_Node000017" class="edge">
<title>Node8&#45;&gt;Node17</title>
<g id="a_edge20_Node000008_Node000017"><a xlink:title=" ">
<path fill="none" stroke="#63b8ff" d="M731.93,-242.74C781.53,-230.94 853.21,-213.88 899.5,-202.87"/>
<polygon fill="#63b8ff" stroke="#63b8ff" points="900.35,-206.27 909.26,-200.55 898.73,-199.46 900.35,-206.27"/>
</a>
</g>
</g>
<!-- Node29 -->
<g id="Node000029" class="node">
<title>Node29</title>
<g id="a_Node000029"><a xlink:title=" ">
<polygon fill="#e0e0e0" stroke="#999999" points="689.69,-206 578.69,-206 578.69,-176 689.69,-176 689.69,-206"/>
<text text-anchor="start" x="586.69" y="-194" font-family="Helvetica,sans-Serif" font-size="10.00">Thoth/Http/Request</text>
<text text-anchor="middle" x="634.19" y="-183" font-family="Helvetica,sans-Serif" font-size="10.00">/QueryParams.tpp</text>
</a>
</g>
</g>
<!-- Node8&#45;&gt;Node29 -->
<g id="edge42_Node000008_Node000029" class="edge">
<title>Node8&#45;&gt;Node29</title>
<g id="a_edge42_Node000008_Node000029"><a xlink:title=" ">
<path fill="none" stroke="#63b8ff" d="M666.87,-241.8C661.65,-233.84 655.02,-223.74 649.09,-214.71"/>
<polygon fill="#63b8ff" stroke="#63b8ff" points="651.9,-212.6 643.48,-206.16 646.04,-216.44 651.9,-212.6"/>
</a>
</g>
</g>
<!-- Node11&#45;&gt;Node10 -->
<g id="edge14_Node000011_Node000010" class="edge">
<title>Node11&#45;&gt;Node10</title>
<g id="a_edge14_Node000011_Node000010"><a xlink:title=" ">
<path fill="none" stroke="#63b8ff" d="M1484.44,-119.1C1369.81,-110.97 1136.44,-93.64 939.19,-74 926.69,-72.76 913,-71.19 900.94,-69.74"/>
<polygon fill="#63b8ff" stroke="#63b8ff" points="901.19,-66.25 890.84,-68.51 900.34,-73.2 901.19,-66.25"/>
</a>
</g>
</g>
<!-- Node12 -->
<g id="Node000012" class="node">
<title>Node12</title>
<g id="a_Node000012"><a xlink:title=" ">
<polygon fill="#e0e0e0" stroke="#999999" points="1687.69,-74 1642.69,-74 1642.69,-55 1687.69,-55 1687.69,-74"/>
<text text-anchor="middle" x="1665.19" y="-62" font-family="Helvetica,sans-Serif" font-size="10.00">utility</text>
</a>
</g>
</g>
<!-- Node11&#45;&gt;Node12 -->
<g id="edge15_Node000011_Node000012" class="edge">
<title>Node11&#45;&gt;Node12</title>
<g id="a_edge15_Node000011_Node000012"><a xlink:title=" ">
<path fill="none" stroke="#63b8ff" d="M1571.42,-115.37C1589.46,-105.78 1618.81,-90.17 1639.87,-78.97"/>
<polygon fill="#63b8ff" stroke="#63b8ff" points="1641.71,-81.95 1648.89,-74.17 1638.42,-75.77 1641.71,-81.95"/>
</a>
</g>
</g>
<!-- Node13 -->
<g id="Node000013" class="node">
<title>Node13</title>
<g id="a_Node000013"><a xlink:title=" ">
<polygon fill="#e0e0e0" stroke="#999999" points="1302.19,-19 1242.19,-19 1242.19,0 1302.19,0 1302.19,-19"/>
<text text-anchor="middle" x="1272.19" y="-7" font-family="Helvetica,sans-Serif" font-size="10.00">concepts</text>
</a>
</g>
</g>
<!-- Node11&#45;&gt;Node13 -->
<g id="edge16_Node000011_Node000013" class="edge">
<title>Node11&#45;&gt;Node13</title>
<g id="a_edge16_Node000011_Node000013"><a xlink:title=" ">
<path fill="none" stroke="#63b8ff" d="M1484.59,-115.99C1422.48,-107.81 1337.77,-93.54 1310.19,-74 1294.5,-62.88 1284.17,-43.06 1278.29,-28.51"/>
<polygon fill="#63b8ff" stroke="#63b8ff" points="1281.54,-27.21 1274.79,-19.05 1274.98,-29.64 1281.54,-27.21"/>
</a>
</g>
</g>
<!-- Node14 -->
<g id="Node000014" class="node">
<title>Node14</title>
<g id="a_Node000014"><a xlink:title=" ">
<polygon fill="#e0e0e0" stroke="#999999" points="1770.69,-74 1705.69,-74 1705.69,-55 1770.69,-55 1770.69,-74"/>
<text text-anchor="middle" x="1738.19" y="-62" font-family="Helvetica,sans-Serif" font-size="10.00">functional</text>
</a>
</g>
</g>
<!-- Node11&#45;&gt;Node14 -->
<g id="edge17_Node000011_Node000014" class="edge">
<title>Node11&#45;&gt;Node14</title>
<g id="a_edge17_Node000011_Node000014"><a xlink:title=" ">
<path fill="none" stroke="#63b8ff" d="M1581.8,-115.49C1613.38,-105.4 1666.2,-88.51 1701.61,-77.19"/>
<polygon fill="#63b8ff" stroke="#63b8ff" points="1703.09,-80.4 1711.55,-74.02 1700.96,-73.73 1703.09,-80.4"/>
</a>
</g>
</g>
<!-- Node15 -->
<g id="Node000015" class="node">
<title>Node15</title>
<g id="a_Node000015"><a xlink:title=" ">
<polygon fill="#e0e0e0" stroke="#999999" points="1847.69,-74 1788.69,-74 1788.69,-55 1847.69,-55 1847.69,-74"/>
<text text-anchor="middle" x="1818.19" y="-62" font-family="Helvetica,sans-Serif" font-size="10.00">compare</text>
</a>
</g>
</g>
<!-- Node11&#45;&gt;Node15 -->
<g id="edge18_Node000011_Node000015" class="edge">
<title>Node11&#45;&gt;Node15</title>
<g id="a_edge18_Node000011_Node000015"><a xlink:title=" ">
<path fill="none" stroke="#63b8ff" d="M1593.81,-115.43C1636.62,-105.94 1707.99,-90.09 1778.39,-74.4"/>
<polygon fill="#63b8ff" stroke="#63b8ff" points="1779.32,-77.78 1788.32,-72.19 1777.8,-70.95 1779.32,-77.78"/>
</a>
</g>
</g>
<!-- Node16 -->
<g id="Node000016" class="node">
<title>Node16</title>
<g id="a_Node000016"><a xlink:title=" ">
<polygon fill="#e0e0e0" stroke="#999999" points="1624.69,-74 1485.69,-74 1485.69,-55 1624.69,-55 1624.69,-74"/>
<text text-anchor="middle" x="1555.19" y="-62" font-family="Helvetica,sans-Serif" font-size="10.00">Thoth/Dsa/LinearMap.tpp</text>
</a>
</g>
</g>
<!-- Node11&#45;&gt;Node16 -->
<g id="edge19_Node000011_Node000016" class="edge">
<title>Node11&#45;&gt;Node16</title>
<g id="a_edge19_Node000011_Node000016"><a xlink:title=" ">
<path fill="none" stroke="#63b8ff" d="M1555.19,-115.37C1555.19,-107.25 1555.19,-94.81 1555.19,-84.39"/>
<polygon fill="#63b8ff" stroke="#63b8ff" points="1558.69,-84.17 1555.19,-74.17 1551.69,-84.17 1558.69,-84.17"/>
</a>
</g>
</g>
<!-- Node17&#45;&gt;Node10 -->
<g id="edge40_Node000017_Node000010" class="edge">
<title>Node17&#45;&gt;Node10</title>
<g id="a_edge40_Node000017_Node000010"><a xlink:title=" ">
<path fill="none" stroke="#63b8ff" d="M973.98,-181.48C993.64,-173.99 1018.2,-160.95 1030.19,-140 1036.81,-128.43 1038.28,-120.6 1030.19,-110 1026.19,-104.76 947.32,-84.91 900.78,-73.57"/>
<polygon fill="#63b8ff" stroke="#63b8ff" points="901.37,-70.11 890.82,-71.15 899.71,-76.91 901.37,-70.11"/>
</a>
</g>
</g>
<!-- Node18 -->
<g id="Node000018" class="node">
<title>Node18</title>
<g id="a_Node000018"><a xlink:title=" ">
<polygon fill="#e0e0e0" stroke="#999999" points="850.69,-140 683.69,-140 683.69,-110 850.69,-110 850.69,-140"/>
<text text-anchor="start" x="691.69" y="-128" font-family="Helvetica,sans-Serif" font-size="10.00">Hermes/_base/ConnectionError</text>
<text text-anchor="middle" x="767.19" y="-117" font-family="Helvetica,sans-Serif" font-size="10.00">Enum.hpp</text>
</a>
</g>
</g>
<!-- Node17&#45;&gt;Node18 -->
<g id="edge21_Node000017_Node000018" class="edge">
<title>Node17&#45;&gt;Node18</title>
<g id="a_edge21_Node000017_Node000018"><a xlink:title=" ">
<path fill="none" stroke="#63b8ff" d="M921.18,-181.37C894.41,-171.74 850.38,-155.91 816.24,-143.64"/>
<polygon fill="#63b8ff" stroke="#63b8ff" points="817.04,-140.21 806.45,-140.12 814.67,-146.79 817.04,-140.21"/>
</a>
</g>
</g>
<!-- Node19 -->
<g id="Node000019" class="node">
<title>Node19</title>
<g id="a_Node000019"><a xlink:href="_definitions_8hpp.html" target="_top" xlink:title=" ">
<polygon fill="white" stroke="#666666" points="1229.19,-134.5 1077.19,-134.5 1077.19,-115.5 1229.19,-115.5 1229.19,-134.5"/>
<text text-anchor="middle" x="1153.19" y="-122.5" font-family="Helvetica,sans-Serif" font-size="10.00">Thoth/NJson/Definitions.hpp</text>
</a>
</g>
</g>
<!-- Node17&#45;&gt;Node19 -->
<g id="edge22_Node000017_Node000019" class="edge">
<title>Node17&#45;&gt;Node19</title>
<g id="a_edge22_Node000017_Node000019"><a xlink:title=" ">
<path fill="none" stroke="#63b8ff" d="M973.24,-181.37C1010.02,-170.05 1074.65,-150.16 1115.63,-137.56"/>
<polygon fill="#63b8ff" stroke="#63b8ff" points="1116.72,-140.88 1125.25,-134.6 1114.66,-134.19 1116.72,-140.88"/>
</a>
</g>
</g>
<!-- Node28 -->
<g id="Node000028" class="node">
<title>Node28</title>
<g id="a_Node000028"><a xlink:title=" ">
<polygon fill="#e0e0e0" stroke="#999999" points="1021.19,-134.5 869.19,-134.5 869.19,-115.5 1021.19,-115.5 1021.19,-134.5"/>
<text text-anchor="middle" x="945.19" y="-122.5" font-family="Helvetica,sans-Serif" font-size="10.00">Thoth/Http/RequestError.tpp</text>
</a>
</g>
</g>
<!-- Node17&#45;&gt;Node28 -->
<g id="edge41_Node000017_Node000028" class="edge">
<title>Node17&#45;&gt;Node28</title>
<g id="a_edge41_Node000017_Node000028"><a xlink:title=" ">
<path fill="none" stroke="#63b8ff" d="M945.19,-181.37C945.19,-172.16 945.19,-157.29 945.19,-145.27"/>
<polygon fill="#63b8ff" stroke="#63b8ff" points="948.69,-144.91 945.19,-134.91 941.69,-144.91 948.69,-144.91"/>
</a>
</g>
</g>
<!-- Node19&#45;&gt;Node4 -->
<g id="edge28_Node000019_Node000004" class="edge">
<title>Node19&#45;&gt;Node4</title>
<g id="a_edge28_Node000019_Node000004"><a xlink:title=" ">
<path fill="none" stroke="#63b8ff" d="M1081.68,-115.49C1064.81,-113.58 1046.87,-111.64 1030.19,-110 846.17,-91.88 626.06,-75.12 536.31,-68.49"/>
<polygon fill="#63b8ff" stroke="#63b8ff" points="536.51,-65 526.28,-67.75 535.99,-71.98 536.51,-65"/>
</a>
</g>
</g>
<!-- Node19&#45;&gt;Node5 -->
<g id="edge27_Node000019_Node000005" class="edge">
<title>Node19&#45;&gt;Node5</title>
<g id="a_edge27_Node000019_Node000005"><a xlink:title=" ">
<path fill="none" stroke="#63b8ff" d="M1083.97,-115.49C1066.44,-113.5 1047.64,-111.53 1030.19,-110 961.99,-104.02 486.08,-75.94 346.55,-67.75"/>
<polygon fill="#63b8ff" stroke="#63b8ff" points="346.53,-64.24 336.34,-67.15 346.12,-71.23 346.53,-64.24"/>
</a>
</g>
</g>
<!-- Node19&#45;&gt;Node7 -->
<g id="edge26_Node000019_Node000007" class="edge">
<title>Node19&#45;&gt;Node7</title>
<g id="a_edge26_Node000019_Node000007"><a xlink:title=" ">
<path fill="none" stroke="#63b8ff" d="M1102.55,-115.48C1058.6,-107.31 993.65,-93.35 939.19,-74 921.02,-67.54 918.66,-60.52 900.19,-55 788.52,-21.6 649.22,-13.27 586.93,-11.19"/>
<polygon fill="#63b8ff" stroke="#63b8ff" points="586.67,-7.68 576.57,-10.88 586.46,-14.68 586.67,-7.68"/>
</a>
</g>
</g>
<!-- Node19&#45;&gt;Node10 -->
<g id="edge25_Node000019_Node000010" class="edge">
<title>Node19&#45;&gt;Node10</title>
<g id="a_edge25_Node000019_Node000010"><a xlink:title=" ">
<path fill="none" stroke="#63b8ff" d="M1109.23,-115.43C1059.61,-105.69 976.51,-89.16 905.19,-74 903.74,-73.69 902.27,-73.38 900.77,-73.05"/>
<polygon fill="#63b8ff" stroke="#63b8ff" points="901.41,-69.61 890.89,-70.88 899.91,-76.45 901.41,-69.61"/>
</a>
</g>
</g>
<!-- Node19&#45;&gt;Node13 -->
<g id="edge29_Node000019_Node000013" class="edge">
<title>Node19&#45;&gt;Node13</title>
<g id="a_edge29_Node000019_Node000013"><a xlink:title=" ">
<path fill="none" stroke="#63b8ff" d="M1153.9,-115.27C1155.49,-101 1160.54,-72.51 1176.19,-55 1190.89,-38.55 1212.91,-27.74 1232.16,-20.9"/>
<polygon fill="#63b8ff" stroke="#63b8ff" points="1233.53,-24.14 1241.92,-17.68 1231.33,-17.49 1233.53,-24.14"/>
</a>
</g>
</g>
<!-- Node20 -->
<g id="Node000020" class="node">
<title>Node20</title>
<g id="a_Node000020"><a xlink:title=" ">
<polygon fill="#e0e0e0" stroke="#999999" points="1497.69,-19 1446.69,-19 1446.69,0 1497.69,0 1497.69,-19"/>
<text text-anchor="middle" x="1472.19" y="-7" font-family="Helvetica,sans-Serif" font-size="10.00">variant</text>
</a>
</g>
</g>
<!-- Node19&#45;&gt;Node20 -->
<g id="edge23_Node000019_Node000020" class="edge">
<title>Node19&#45;&gt;Node20</title>
<g id="a_edge23_Node000019_Node000020"><a xlink:title=" ">
<path fill="none" stroke="#63b8ff" d="M1229.29,-118.15C1302.12,-111.24 1405.58,-97.6 1438.19,-74 1453.2,-63.13 1462.23,-43.56 1467.17,-29.01"/>
<polygon fill="#63b8ff" stroke="#63b8ff" points="1470.62,-29.67 1470.18,-19.09 1463.93,-27.64 1470.62,-29.67"/>
</a>
</g>
</g>
<!-- Node21 -->
<g id="Node000021" class="node">
<title>Node21</title>
<g id="a_Node000021"><a xlink:title=" ">
<polygon fill="#e0e0e0" stroke="#999999" points="1132.19,-19 1074.19,-19 1074.19,0 1132.19,0 1132.19,-19"/>
<text text-anchor="middle" x="1103.19" y="-7" font-family="Helvetica,sans-Serif" font-size="10.00">memory</text>
</a>
</g>
</g>
<!-- Node19&#45;&gt;Node21 -->
<g id="edge24_Node000019_Node000021" class="edge">
<title>Node19&#45;&gt;Node21</title>
<g id="a_edge24_Node000019_Node000021"><a xlink:title=" ">
<path fill="none" stroke="#63b8ff" d="M1149.43,-115.47C1141.32,-97.06 1122.04,-53.29 1111.11,-28.48"/>
<polygon fill="#63b8ff" stroke="#63b8ff" points="1114.23,-26.87 1106.99,-19.13 1107.82,-29.69 1114.23,-26.87"/>
</a>
</g>
</g>
<!-- Node22 -->
<g id="Node000022" class="node">
<title>Node22</title>
<g id="a_Node000022"><a xlink:title=" ">
<polygon fill="#e0e0e0" stroke="#999999" points="1225.19,-74 1185.19,-74 1185.19,-55 1225.19,-55 1225.19,-74"/>
<text text-anchor="middle" x="1205.19" y="-62" font-family="Helvetica,sans-Serif" font-size="10.00">span</text>
</a>
</g>
</g>
<!-- Node19&#45;&gt;Node22 -->
<g id="edge30_Node000019_Node000022" class="edge">
<title>Node19&#45;&gt;Node22</title>
<g id="a_edge30_Node000019_Node000022"><a xlink:title=" ">
<path fill="none" stroke="#63b8ff" d="M1160.86,-115.37C1168.7,-106.55 1181.05,-92.66 1190.73,-81.77"/>
<polygon fill="#63b8ff" stroke="#63b8ff" points="1193.46,-83.97 1197.48,-74.17 1188.23,-79.32 1193.46,-83.97"/>
</a>
</g>
</g>
<!-- Node23 -->
<g id="Node000023" class="node">
<title>Node23</title>
<g id="a_Node000023"><a xlink:href="_cow_8hpp.html" target="_top" xlink:title=" ">
<polygon fill="white" stroke="#666666" points="1429.19,-74 1319.19,-74 1319.19,-55 1429.19,-55 1429.19,-74"/>
<text text-anchor="middle" x="1374.19" y="-62" font-family="Helvetica,sans-Serif" font-size="10.00">Thoth/Dsa/Cow.hpp</text>
</a>
</g>
</g>
<!-- Node19&#45;&gt;Node23 -->
<g id="edge31_Node000019_Node000023" class="edge">
<title>Node19&#45;&gt;Node23</title>
<g id="a_edge31_Node000019_Node000023"><a xlink:title=" ">
<path fill="none" stroke="#63b8ff" d="M1185.32,-115.49C1224.11,-105.23 1289.45,-87.93 1332.2,-76.62"/>
<polygon fill="#63b8ff" stroke="#63b8ff" points="1333.24,-79.96 1342.01,-74.02 1331.45,-73.19 1333.24,-79.96"/>
</a>
</g>
</g>
<!-- Node25 -->
<g id="Node000025" class="node">
<title>Node25</title>
<g id="a_Node000025"><a xlink:href="_string_ref_8hpp.html" target="_top" xlink:title=" ">
<polygon fill="white" stroke="#666666" points="1090.69,-74 947.69,-74 947.69,-55 1090.69,-55 1090.69,-74"/>
<text text-anchor="middle" x="1019.19" y="-62" font-family="Helvetica,sans-Serif" font-size="10.00">Thoth/NJson/StringRef.hpp</text>
</a>
</g>
</g>
<!-- Node19&#45;&gt;Node25 -->
<g id="edge35_Node000019_Node000025" class="edge">
<title>Node19&#45;&gt;Node25</title>
<g id="a_edge35_Node000019_Node000025"><a xlink:title=" ">
<path fill="none" stroke="#63b8ff" d="M1133.7,-115.49C1111.18,-105.66 1073.88,-89.38 1048,-78.08"/>
<polygon fill="#63b8ff" stroke="#63b8ff" points="1049.26,-74.81 1038.7,-74.02 1046.46,-81.23 1049.26,-74.81"/>
</a>
</g>
</g>
<!-- Node23&#45;&gt;Node13 -->
<g id="edge32_Node000023_Node000013" class="edge">
<title>Node23&#45;&gt;Node13</title>
<g id="a_edge32_Node000023_Node000013"><a xlink:title=" ">
<path fill="none" stroke="#63b8ff" d="M1357.8,-54.98C1341.61,-46.57 1316.62,-33.59 1297.81,-23.81"/>
<polygon fill="#63b8ff" stroke="#63b8ff" points="1299.36,-20.68 1288.88,-19.17 1296.14,-26.89 1299.36,-20.68"/>
</a>
</g>
</g>
<!-- Node23&#45;&gt;Node20 -->
<g id="edge33_Node000023_Node000020" class="edge">
<title>Node23&#45;&gt;Node20</title>
<g id="a_edge33_Node000023_Node000020"><a xlink:title=" ">
<path fill="none" stroke="#63b8ff" d="M1389.93,-54.98C1405.42,-46.61 1429.28,-33.7 1447.33,-23.95"/>
<polygon fill="#63b8ff" stroke="#63b8ff" points="1449.03,-27.01 1456.16,-19.17 1445.7,-20.85 1449.03,-27.01"/>
</a>
</g>
</g>
<!-- Node24 -->
<g id="Node000024" class="node">
<title>Node24</title>
<g id="a_Node000024"><a xlink:title=" ">
<polygon fill="#e0e0e0" stroke="#999999" points="1428.19,-19 1320.19,-19 1320.19,0 1428.19,0 1428.19,-19"/>
<text text-anchor="middle" x="1374.19" y="-7" font-family="Helvetica,sans-Serif" font-size="10.00">Thoth/Dsa/Cow.tpp</text>
</a>
</g>
</g>
<!-- Node23&#45;&gt;Node24 -->
<g id="edge34_Node000023_Node000024" class="edge">
<title>Node23&#45;&gt;Node24</title>
<g id="a_edge34_Node000023_Node000024"><a xlink:title=" ">
<path fill="none" stroke="#63b8ff" d="M1374.19,-54.75C1374.19,-47.8 1374.19,-37.85 1374.19,-29.13"/>
<polygon fill="#63b8ff" stroke="#63b8ff" points="1377.69,-29.09 1374.19,-19.09 1370.69,-29.09 1377.69,-29.09"/>
</a>
</g>
</g>
<!-- Node25&#45;&gt;Node7 -->
<g id="edge38_Node000025_Node000007" class="edge">
<title>Node25&#45;&gt;Node7</title>
<g id="a_edge38_Node000025_Node000007"><a xlink:title=" ">
<path fill="none" stroke="#63b8ff" d="M947.55,-55.33C845.08,-43.66 660.85,-22.66 586.55,-14.19"/>
<polygon fill="#63b8ff" stroke="#63b8ff" points="586.75,-10.69 576.41,-13.03 585.95,-17.64 586.75,-10.69"/>
</a>
</g>
</g>
<!-- Node25&#45;&gt;Node21 -->
<g id="edge36_Node000025_Node000021" class="edge">
<title>Node25&#45;&gt;Node21</title>
<g id="a_edge36_Node000025_Node000021"><a xlink:title=" ">
<path fill="none" stroke="#63b8ff" d="M1032.69,-54.98C1045.59,-46.84 1065.29,-34.41 1080.59,-24.76"/>
<polygon fill="#63b8ff" stroke="#63b8ff" points="1082.86,-27.47 1089.45,-19.17 1079.12,-21.55 1082.86,-27.47"/>
</a>
</g>
</g>
<!-- Node25&#45;&gt;Node26 -->
<g id="edge37_Node000025_Node000026" class="edge">
<title>Node25&#45;&gt;Node26</title>
<g id="a_edge37_Node000025_Node000026"><a xlink:title=" ">
<path fill="none" stroke="#63b8ff" d="M1046.18,-54.98C1074.39,-46.09 1118.83,-32.07 1150.27,-22.15"/>
<polygon fill="#63b8ff" stroke="#63b8ff" points="1151.5,-25.43 1159.99,-19.08 1149.4,-18.75 1151.5,-25.43"/>
</a>
</g>
</g>
<!-- Node27 -->
<g id="Node000027" class="node">
<title>Node27</title>
<g id="a_Node000027"><a xlink:title=" ">
<polygon fill="#e0e0e0" stroke="#999999" points="1055.69,-19 914.69,-19 914.69,0 1055.69,0 1055.69,-19"/>
<text text-anchor="middle" x="985.19" y="-7" font-family="Helvetica,sans-Serif" font-size="10.00">Thoth/NJson/StringRef.tpp</text>
</a>
</g>
</g>
<!-- Node25&#45;&gt;Node27 -->
<g id="edge39_Node000025_Node000027" class="edge">
<title>Node25&#45;&gt;Node27</title>
<g id="a_edge39_Node000025_Node000027"><a xlink:title=" ">
<path fill="none" stroke="#63b8ff" d="M1013.57,-54.75C1008.87,-47.42 1002.02,-36.73 996.22,-27.7"/>
<polygon fill="#63b8ff" stroke="#63b8ff" points="999.04,-25.62 990.7,-19.09 993.15,-29.4 999.04,-25.62"/>
</a>
</g>
</g>
<!-- Node31&#45;&gt;Node3 -->
<g id="edge45_Node000031_Node000003" class="edge">
<title>Node31&#45;&gt;Node3</title>
<g id="a_edge45_Node000031_Node000003"><a xlink:title=" ">
<path fill="none" stroke="#63b8ff" d="M187.07,-181.37C207.68,-171.95 241.28,-156.59 267.87,-144.43"/>
<polygon fill="#63b8ff" stroke="#63b8ff" points="269.67,-147.46 277.31,-140.12 266.76,-141.09 269.67,-147.46"/>
</a>
</g>
</g>
<!-- Node31&#45;&gt;Node5 -->
<g id="edge46_Node000031_Node000005" class="edge">
<title>Node31&#45;&gt;Node5</title>
<g id="a_edge46_Node000031_Node000005"><a xlink:title=" ">
<path fill="none" stroke="#63b8ff" d="M116.09,-181.41C61.28,-170.19 -12.93,-147.44 19.19,-110 51.02,-72.89 198.55,-66.43 269.66,-65.51"/>
<polygon fill="#63b8ff" stroke="#63b8ff" points="270.02,-69.01 279.98,-65.41 269.95,-62.01 270.02,-69.01"/>
</a>
</g>
</g>
<!-- Node31&#45;&gt;Node7 -->
<g id="edge49_Node000031_Node000007" class="edge">
<title>Node31&#45;&gt;Node7</title>
<g id="a_edge49_Node000031_Node000007"><a xlink:title=" ">
<path fill="none" stroke="#63b8ff" d="M107.01,-181.45C49.41,-170.85 -23.64,-149.17 8.19,-110 73.54,-29.57 414.58,-14.05 521.85,-11.15"/>
<polygon fill="#63b8ff" stroke="#63b8ff" points="522.15,-14.64 532.06,-10.89 521.97,-7.64 522.15,-14.64"/>
</a>
</g>
</g>
<!-- Node31&#45;&gt;Node9 -->
<g id="edge47_Node000031_Node000009" class="edge">
<title>Node31&#45;&gt;Node9</title>
<g id="a_edge47_Node000031_Node000009"><a xlink:title=" ">
<path fill="none" stroke="#63b8ff" d="M226.4,-181.44C317.98,-167.96 492.94,-142.22 567.79,-131.21"/>
<polygon fill="#63b8ff" stroke="#63b8ff" points="568.7,-134.61 578.09,-129.69 567.68,-127.69 568.7,-134.61"/>
</a>
</g>
</g>
<!-- Node31&#45;&gt;Node10 -->
<g id="edge48_Node000031_Node000010" class="edge">
<title>Node31&#45;&gt;Node10</title>
<g id="a_edge48_Node000031_Node000010"><a xlink:title=" ">
<path fill="none" stroke="#63b8ff" d="M207.63,-181.47C279.37,-166.1 436.14,-133.19 569.19,-110 664.8,-93.33 778.36,-77.45 833.62,-69.97"/>
<polygon fill="#63b8ff" stroke="#63b8ff" points="834.12,-73.43 843.56,-68.63 833.18,-66.5 834.12,-73.43"/>
</a>
</g>
</g>
<!-- Node32 -->
<g id="Node000032" class="node">
<title>Node32</title>
<g id="a_Node000032"><a xlink:title=" ">
<polygon fill="#e0e0e0" stroke="#999999" points="78.19,-134.5 28.19,-134.5 28.19,-115.5 78.19,-115.5 78.19,-134.5"/>
<text text-anchor="middle" x="53.19" y="-122.5" font-family="Helvetica,sans-Serif" font-size="10.00">ranges</text>
</a>
</g>
</g>
<!-- Node31&#45;&gt;Node32 -->
<g id="edge50_Node000031_Node000032" class="edge">
<title>Node31&#45;&gt;Node32</title>
<g id="a_edge50_Node000031_Node000032"><a xlink:title=" ">
<path fill="none" stroke="#63b8ff" d="M152.68,-181.37C133.47,-170.68 100.53,-152.35 77.84,-139.72"/>
<polygon fill="#63b8ff" stroke="#63b8ff" points="79.26,-136.5 68.82,-134.7 75.86,-142.62 79.26,-136.5"/>
</a>
</g>
</g>
<!-- Node33 -->
<g id="Node000033" class="node">
<title>Node33</title>
<g id="a_Node000033"><a xlink:title=" ">
<polygon fill="#e0e0e0" stroke="#999999" points="227.69,-134.5 96.69,-134.5 96.69,-115.5 227.69,-115.5 227.69,-134.5"/>
<text text-anchor="middle" x="162.19" y="-122.5" font-family="Helvetica,sans-Serif" font-size="10.00">Thoth/Http/Headers.tpp</text>
</a>
</g>
</g>
<!-- Node31&#45;&gt;Node33 -->
<g id="edge51_Node000031_Node000033" class="edge">
<title>Node31&#45;&gt;Node33</title>
<g id="a_edge51_Node000031_Node000033"><a xlink:title=" ">
<path fill="none" stroke="#63b8ff" d="M167.38,-181.37C166.51,-172.07 165.09,-156.98 163.96,-144.9"/>
<polygon fill="#63b8ff" stroke="#63b8ff" points="167.44,-144.53 163.02,-134.91 160.47,-145.19 167.44,-144.53"/>
</a>
</g>
</g>
</g>
</svg>
