<?xml version="1.0" encoding="UTF-8" standalone="no"?>
<!DOCTYPE svg PUBLIC "-//W3C//DTD SVG 1.1//EN"
 "http://www.w3.org/Graphics/SVG/1.1/DTD/svg11.dtd">
<!-- Generated by graphviz version 2.43.0 (0)
 -->
<!-- Title: include/Thoth/Http/NHeaders/Headers/EntityTag.hpp Pages: 1 -->
<svg width="214pt" height="104pt"
 viewBox="0.00 0.00 213.50 104.00" xmlns="http://www.w3.org/2000/svg" xmlns:xlink="http://www.w3.org/1999/xlink">
<g id="graph0" class="graph" transform="scale(1 1) rotate(0) translate(4 100)">
<title>include/Thoth/Http/NHeaders/Headers/EntityTag.hpp</title>
<!-- Node1 -->
<g id="Node000001" class="node">
<title>Node1</title>
<g id="a_Node000001"><a xlink:title=" ">
<polygon fill="#999999" stroke="#666666" points="180,-96 0,-96 0,-66 180,-66 180,-96"/>
<text text-anchor="start" x="8" y="-84" font-family="Helvetica,sans-Serif" font-size="10.00">include/Thoth/Http</text>
<text text-anchor="middle" x="90" y="-73" font-family="Helvetica,sans-Serif" font-size="10.00">/NHeaders/Headers/EntityTag.hpp</text>
</a>
</g>
</g>
<!-- Node2 -->
<g id="Node000002" class="node">
<title>Node2</title>
<g id="a_Node000002"><a xlink:title=" ">
<polygon fill="#e0e0e0" stroke="#999999" points="60,-24.5 16,-24.5 16,-5.5 60,-5.5 60,-24.5"/>
<text text-anchor="middle" x="38" y="-12.5" font-family="Helvetica,sans-Serif" font-size="10.00">string</text>
</a>
</g>
</g>
<!-- Node1&#45;&gt;Node2 -->
<g id="edge1_Node000001_Node000002" class="edge">
<title>Node1&#45;&gt;Node2</title>
<g id="a_edge1_Node000001_Node000002"><a xlink:title=" ">
<path fill="none" stroke="#63b8ff" d="M78.46,-65.8C70.51,-56.01 59.92,-42.98 51.57,-32.7"/>
<polygon fill="#63b8ff" stroke="#63b8ff" points="54.21,-30.4 45.19,-24.84 48.78,-34.81 54.21,-30.4"/>
</a>
</g>
</g>
<!-- Node3 -->
<g id="Node000003" class="node">
<title>Node3</title>
<g id="a_Node000003"><a xlink:title=" ">
<polygon fill="#e0e0e0" stroke="#999999" points="205.5,-30 78.5,-30 78.5,0 205.5,0 205.5,-30"/>
<text text-anchor="start" x="86.5" y="-18" font-family="Helvetica,sans-Serif" font-size="10.00">Thoth/Http/NHeaders</text>
<text text-anchor="middle" x="142" y="-7" font-family="Helvetica,sans-Serif" font-size="10.00">/Headers/EntityTag.tpp</text>
</a>
</g>
</g>
<!-- Node1&#45;&gt;Node3 -->
<g id="edge2_Node000001_Node000003" class="edge">
<title>Node1&#45;&gt;Node3</title>
<g id="a_edge2_Node000001_Node000003"><a xlink:title=" ">
<path fill="none" stroke="#63b8ff" d="M101.54,-65.8C108.14,-57.68 116.56,-47.31 124,-38.15"/>
<polygon fill="#63b8ff" stroke="#63b8ff" points="126.9,-40.13 130.49,-30.16 121.47,-35.72 126.9,-40.13"/>
</a>
</g>
</g>
</g>
</svg>
