<?xml version="1.0" encoding="UTF-8" standalone="no"?>
<!DOCTYPE svg PUBLIC "-//W3C//DTD SVG 1.1//EN"
 "http://www.w3.org/Graphics/SVG/1.1/DTD/svg11.dtd">
<!-- Generated by graphviz version 2.43.0 (0)
 -->
<!-- Title: include/Thoth/Http/NHeaders/Headers/EntityTag.hpp Pages: 1 -->
<svg width="1835pt" height="577pt"
 viewBox="0.00 0.00 1834.88 577.00" xmlns="http://www.w3.org/2000/svg" xmlns:xlink="http://www.w3.org/1999/xlink">
<g id="graph0" class="graph" transform="scale(1 1) rotate(0) translate(4 573)">
<title>include/Thoth/Http/NHeaders/Headers/EntityTag.hpp</title>
<!-- Node1 -->
<g id="Node000001" class="node">
<title>Node1</title>
<g id="a_Node000001"><a xlink:title=" ">
<polygon fill="#999999" stroke="#666666" points="912,-569 732,-569 732,-539 912,-539 912,-569"/>
<text text-anchor="start" x="740" y="-557" font-family="Helvetica,sans-Serif" font-size="10.00">include/Thoth/Http</text>
<text text-anchor="middle" x="822" y="-546" font-family="Helvetica,sans-Serif" font-size="10.00">/NHeaders/Headers/EntityTag.hpp</text>
</a>
</g>
</g>
<!-- Node2 -->
<g id="Node000002" class="node">
<title>Node2</title>
<g id="a_Node000002"><a xlink:href="_headers_2__pch_8hpp.html" target="_top" xlink:title=" ">
<polygon fill="white" stroke="#666666" points="848,-503 690,-503 690,-473 848,-473 848,-503"/>
<text text-anchor="start" x="698" y="-491" font-family="Helvetica,sans-Serif" font-size="10.00">include/Thoth/Http</text>
<text text-anchor="middle" x="769" y="-480" font-family="Helvetica,sans-Serif" font-size="10.00">/NHeaders/Headers/_pch.hpp</text>
</a>
</g>
</g>
<!-- Node1&#45;&gt;Node2 -->
<g id="edge1_Node000001_Node000002" class="edge">
<title>Node1&#45;&gt;Node2</title>
<g id="a_edge1_Node000001_Node000002"><a xlink:title=" ">
<path fill="none" stroke="#63b8ff" d="M803.85,-531.09C796.2,-521.85 787.52,-511.36 780.73,-503.16"/>
<polygon fill="#63b8ff" stroke="#63b8ff" points="801.16,-533.33 810.24,-538.8 806.56,-528.86 801.16,-533.33"/>
</a>
</g>
</g>
<!-- Node21 -->
<g id="Node000021" class="node">
<title>Node21</title>
<g id="a_Node000021"><a xlink:href="_request_headers_8hpp.html" target="_top" xlink:title=" ">
<polygon fill="white" stroke="#666666" points="1237.5,-371 1022.5,-371 1022.5,-341 1237.5,-341 1237.5,-371"/>
<text text-anchor="start" x="1030.5" y="-359" font-family="Helvetica,sans-Serif" font-size="10.00">include/Thoth/Http</text>
<text text-anchor="middle" x="1130" y="-348" font-family="Helvetica,sans-Serif" font-size="10.00">/NHeaders/Request/RequestHeaders.hpp</text>
</a>
</g>
</g>
<!-- Node1&#45;&gt;Node21 -->
<g id="edge31_Node000001_Node000021" class="edge">
<title>Node1&#45;&gt;Node21</title>
<g id="a_edge31_Node000001_Node000021"><a xlink:title=" ">
<path fill="none" stroke="#63b8ff" d="M852.72,-533.45C914.69,-494.02 1053.38,-405.76 1107.64,-371.23"/>
<polygon fill="#63b8ff" stroke="#63b8ff" points="850.71,-530.58 844.15,-538.9 854.47,-536.49 850.71,-530.58"/>
</a>
</g>
</g>
<!-- Node3 -->
<g id="Node000003" class="node">
<title>Node3</title>
<g id="a_Node000003"><a xlink:href="_headers_8hpp.html" target="_top" xlink:title=" ">
<polygon fill="white" stroke="#666666" points="523,-437 391,-437 391,-407 523,-407 523,-437"/>
<text text-anchor="start" x="399" y="-425" font-family="Helvetica,sans-Serif" font-size="10.00">include/Thoth/Http</text>
<text text-anchor="middle" x="457" y="-414" font-family="Helvetica,sans-Serif" font-size="10.00">/NHeaders/Headers.hpp</text>
</a>
</g>
</g>
<!-- Node2&#45;&gt;Node3 -->
<g id="edge2_Node000002_Node000003" class="edge">
<title>Node2&#45;&gt;Node3</title>
<g id="a_edge2_Node000002_Node000003"><a xlink:title=" ">
<path fill="none" stroke="#63b8ff" d="M690.42,-470.88C638.81,-460.3 572.06,-446.6 523.17,-436.57"/>
<polygon fill="#63b8ff" stroke="#63b8ff" points="690.03,-474.37 700.53,-472.95 691.44,-467.52 690.03,-474.37"/>
</a>
</g>
</g>
<!-- Node4 -->
<g id="Node000004" class="node">
<title>Node4</title>
<g id="a_Node000004"><a xlink:href="_file_output_range_8hpp.html" target="_top" xlink:title=" ">
<polygon fill="white" stroke="#666666" points="247,-239 89,-239 89,-209 247,-209 247,-239"/>
<text text-anchor="start" x="97" y="-227" font-family="Helvetica,sans-Serif" font-size="10.00">include/Thoth/Dsa/FileOutput</text>
<text text-anchor="middle" x="168" y="-216" font-family="Helvetica,sans-Serif" font-size="10.00">Range.hpp</text>
</a>
</g>
</g>
<!-- Node3&#45;&gt;Node4 -->
<g id="edge3_Node000003_Node000004" class="edge">
<title>Node3&#45;&gt;Node4</title>
<g id="a_edge3_Node000003_Node000004"><a xlink:title=" ">
<path fill="none" stroke="#63b8ff" d="M380.56,-420.85C291.19,-418.87 151.22,-409.48 118,-371 83.86,-331.45 130.74,-267.44 155.02,-239.18"/>
<polygon fill="#63b8ff" stroke="#63b8ff" points="380.59,-424.36 390.65,-421.05 380.73,-417.36 380.59,-424.36"/>
</a>
</g>
</g>
<!-- Node7 -->
<g id="Node000007" class="node">
<title>Node7</title>
<g id="a_Node000007"><a xlink:href="_method_concept_8hpp.html" target="_top" xlink:title=" ">
<polygon fill="white" stroke="#666666" points="1004,-371 810,-371 810,-341 1004,-341 1004,-371"/>
<text text-anchor="start" x="818" y="-359" font-family="Helvetica,sans-Serif" font-size="10.00">include/Thoth/Http</text>
<text text-anchor="middle" x="907" y="-348" font-family="Helvetica,sans-Serif" font-size="10.00">/Methods/_base/MethodConcept.hpp</text>
</a>
</g>
</g>
<!-- Node3&#45;&gt;Node7 -->
<g id="edge7_Node000003_Node000007" class="edge">
<title>Node3&#45;&gt;Node7</title>
<g id="a_edge7_Node000003_Node000007"><a xlink:title=" ">
<path fill="none" stroke="#63b8ff" d="M533.42,-410.13C609.68,-399.28 727.14,-382.58 809.96,-370.8"/>
<polygon fill="#63b8ff" stroke="#63b8ff" points="532.81,-406.68 523.4,-411.56 533.79,-413.61 532.81,-406.68"/>
</a>
</g>
</g>
<!-- Node12 -->
<g id="Node000012" class="node">
<title>Node12</title>
<g id="a_Node000012"><a xlink:href="_response_head_8hpp.html" target="_top" xlink:title=" ">
<polygon fill="white" stroke="#666666" points="562,-167.5 398,-167.5 398,-137.5 562,-137.5 562,-167.5"/>
<text text-anchor="start" x="406" y="-155.5" font-family="Helvetica,sans-Serif" font-size="10.00">include/Thoth/Http</text>
<text text-anchor="middle" x="480" y="-144.5" font-family="Helvetica,sans-Serif" font-size="10.00">/Response/ResponseHead.hpp</text>
</a>
</g>
</g>
<!-- Node3&#45;&gt;Node12 -->
<g id="edge30_Node000003_Node000012" class="edge">
<title>Node3&#45;&gt;Node12</title>
<g id="a_edge30_Node000003_Node000012"><a xlink:title=" ">
<path fill="none" stroke="#63b8ff" d="M479.9,-399.53C495.34,-382.45 510.47,-358.59 496,-341 441.08,-274.22 273.77,-352.05 313,-275 340.41,-221.16 404.09,-185.56 444.41,-167.51"/>
<polygon fill="#63b8ff" stroke="#63b8ff" points="477.28,-397.21 472.9,-406.85 482.34,-402.05 477.28,-397.21"/>
</a>
</g>
</g>
<!-- Node19 -->
<g id="Node000019" class="node">
<title>Node19</title>
<g id="a_Node000019"><a xlink:href="_list_proxy_8hpp.html" target="_top" xlink:title=" ">
<polygon fill="white" stroke="#666666" points="293,-371 127,-371 127,-341 293,-341 293,-371"/>
<text text-anchor="start" x="135" y="-359" font-family="Helvetica,sans-Serif" font-size="10.00">include/Thoth/Http</text>
<text text-anchor="middle" x="210" y="-348" font-family="Helvetica,sans-Serif" font-size="10.00">/NHeaders/Proxy/ListProxy.hpp</text>
</a>
</g>
</g>
<!-- Node3&#45;&gt;Node19 -->
<g id="edge24_Node000003_Node000019" class="edge">
<title>Node3&#45;&gt;Node19</title>
<g id="a_edge24_Node000003_Node000019"><a xlink:title=" ">
<path fill="none" stroke="#63b8ff" d="M392.88,-404.39C352.9,-394.03 302.02,-380.84 264.08,-371.01"/>
<polygon fill="#63b8ff" stroke="#63b8ff" points="392.24,-407.83 402.79,-406.95 393.99,-401.06 392.24,-407.83"/>
</a>
</g>
</g>
<!-- Node20 -->
<g id="Node000020" class="node">
<title>Node20</title>
<g id="a_Node000020"><a xlink:href="_value_proxy_8hpp.html" target="_top" xlink:title=" ">
<polygon fill="white" stroke="#666666" points="487,-371 311,-371 311,-341 487,-341 487,-371"/>
<text text-anchor="start" x="319" y="-359" font-family="Helvetica,sans-Serif" font-size="10.00">include/Thoth/Http</text>
<text text-anchor="middle" x="399" y="-348" font-family="Helvetica,sans-Serif" font-size="10.00">/NHeaders/Proxy/ValueProxy.hpp</text>
</a>
</g>
</g>
<!-- Node3&#45;&gt;Node20 -->
<g id="edge25_Node000003_Node000020" class="edge">
<title>Node3&#45;&gt;Node20</title>
<g id="a_edge25_Node000003_Node000020"><a xlink:title=" ">
<path fill="none" stroke="#63b8ff" d="M437.4,-399.37C428.96,-390.06 419.34,-379.44 411.84,-371.16"/>
<polygon fill="#63b8ff" stroke="#63b8ff" points="434.82,-401.74 444.13,-406.8 440.01,-397.04 434.82,-401.74"/>
</a>
</g>
</g>
<!-- Node3&#45;&gt;Node21 -->
<g id="edge26_Node000003_Node000021" class="edge">
<title>Node3&#45;&gt;Node21</title>
<g id="a_edge26_Node000003_Node000021"><a xlink:title=" ">
<path fill="none" stroke="#63b8ff" d="M533.47,-414.84C640.72,-406.04 841.89,-388.93 1013,-371 1016.05,-370.68 1019.15,-370.35 1022.27,-370.01"/>
<polygon fill="#63b8ff" stroke="#63b8ff" points="533.07,-411.36 523.39,-415.66 533.64,-418.34 533.07,-411.36"/>
</a>
</g>
</g>
<!-- Node22 -->
<g id="Node000022" class="node">
<title>Node22</title>
<g id="a_Node000022"><a xlink:href="_response_headers_8hpp.html" target="_top" xlink:title=" ">
<polygon fill="white" stroke="#666666" points="168,-173 0,-173 0,-132 168,-132 168,-173"/>
<text text-anchor="start" x="8" y="-161" font-family="Helvetica,sans-Serif" font-size="10.00">include/Thoth/Http</text>
<text text-anchor="start" x="8" y="-150" font-family="Helvetica,sans-Serif" font-size="10.00">/NHeaders/Response/Response</text>
<text text-anchor="middle" x="84" y="-139" font-family="Helvetica,sans-Serif" font-size="10.00">Headers.hpp</text>
</a>
</g>
</g>
<!-- Node3&#45;&gt;Node22 -->
<g id="edge28_Node000003_Node000022" class="edge">
<title>Node3&#45;&gt;Node22</title>
<g id="a_edge28_Node000003_Node000022"><a xlink:title=" ">
<path fill="none" stroke="#63b8ff" d="M380.52,-420.39C288.46,-417.97 141.41,-408.19 103,-371 48.81,-318.53 67.39,-216.21 78.35,-173.24"/>
<polygon fill="#63b8ff" stroke="#63b8ff" points="380.56,-423.89 390.64,-420.63 380.72,-416.89 380.56,-423.89"/>
</a>
</g>
</g>
<!-- Node4&#45;&gt;Node4 -->
<g id="edge4_Node000004_Node000004" class="edge">
<title>Node4&#45;&gt;Node4</title>
<g id="a_edge4_Node000004_Node000004"><a xlink:title=" ">
<path fill="none" stroke="#63b8ff" d="M257.16,-232.29C262.07,-230.27 265,-227.51 265,-224 265,-218.52 257.87,-214.86 247.16,-213.02"/>
<polygon fill="#63b8ff" stroke="#63b8ff" points="255.91,-229 247.16,-234.98 257.73,-235.76 255.91,-229"/>
</a>
</g>
</g>
<!-- Node5 -->
<g id="Node000005" class="node">
<title>Node5</title>
<g id="a_Node000005"><a xlink:href="_response_8hpp.html" target="_top" xlink:title=" ">
<polygon fill="white" stroke="#666666" points="494,-96 356,-96 356,-66 494,-66 494,-96"/>
<text text-anchor="start" x="364" y="-84" font-family="Helvetica,sans-Serif" font-size="10.00">include/Thoth/Http</text>
<text text-anchor="middle" x="425" y="-73" font-family="Helvetica,sans-Serif" font-size="10.00">/Response/Response.hpp</text>
</a>
</g>
</g>
<!-- Node4&#45;&gt;Node5 -->
<g id="edge5_Node000004_Node000005" class="edge">
<title>Node4&#45;&gt;Node5</title>
<g id="a_edge5_Node000004_Node000005"><a xlink:title=" ">
<path fill="none" stroke="#63b8ff" d="M202.47,-204.09C254.66,-175.45 352.58,-121.73 399.14,-96.19"/>
<polygon fill="#63b8ff" stroke="#63b8ff" points="200.67,-201.09 193.58,-208.96 204.03,-207.22 200.67,-201.09"/>
</a>
</g>
</g>
<!-- Node6 -->
<g id="Node000006" class="node">
<title>Node6</title>
<g id="a_Node000006"><a xlink:href="_client_8hpp.html" target="_top" xlink:title=" ">
<polygon fill="white" stroke="#666666" points="533.5,-30 426.5,-30 426.5,0 533.5,0 533.5,-30"/>
<text text-anchor="start" x="434.5" y="-18" font-family="Helvetica,sans-Serif" font-size="10.00">include/Thoth/Http</text>
<text text-anchor="middle" x="480" y="-7" font-family="Helvetica,sans-Serif" font-size="10.00">/Client.hpp</text>
</a>
</g>
</g>
<!-- Node5&#45;&gt;Node6 -->
<g id="edge6_Node000005_Node000006" class="edge">
<title>Node5&#45;&gt;Node6</title>
<g id="a_edge6_Node000005_Node000006"><a xlink:title=" ">
<path fill="none" stroke="#63b8ff" d="M443.83,-58.09C451.77,-48.85 460.78,-38.36 467.83,-30.16"/>
<polygon fill="#63b8ff" stroke="#63b8ff" points="441.07,-55.93 437.21,-65.8 446.38,-60.49 441.07,-55.93"/>
</a>
</g>
</g>
<!-- Node8 -->
<g id="Node000008" class="node">
<title>Node8</title>
<g id="a_Node000008"><a xlink:href="_connect_method_8hpp.html" target="_top" xlink:title=" ">
<polygon fill="white" stroke="#666666" points="811,-305 649,-305 649,-275 811,-275 811,-305"/>
<text text-anchor="start" x="657" y="-293" font-family="Helvetica,sans-Serif" font-size="10.00">include/Thoth/Http</text>
<text text-anchor="middle" x="730" y="-282" font-family="Helvetica,sans-Serif" font-size="10.00">/Methods/ConnectMethod.hpp</text>
</a>
</g>
</g>
<!-- Node7&#45;&gt;Node8 -->
<g id="edge8_Node000007_Node000008" class="edge">
<title>Node7&#45;&gt;Node8</title>
<g id="a_edge8_Node000007_Node000008"><a xlink:title=" ">
<path fill="none" stroke="#63b8ff" d="M858.48,-337.46C830.24,-327.25 795.13,-314.55 768.75,-305.01"/>
<polygon fill="#63b8ff" stroke="#63b8ff" points="857.56,-340.85 868.16,-340.95 859.94,-334.26 857.56,-340.85"/>
</a>
</g>
</g>
<!-- Node9 -->
<g id="Node000009" class="node">
<title>Node9</title>
<g id="a_Node000009"><a xlink:href="_delete_method_8hpp.html" target="_top" xlink:title=" ">
<polygon fill="white" stroke="#666666" points="984.5,-305 829.5,-305 829.5,-275 984.5,-275 984.5,-305"/>
<text text-anchor="start" x="837.5" y="-293" font-family="Helvetica,sans-Serif" font-size="10.00">include/Thoth/Http</text>
<text text-anchor="middle" x="907" y="-282" font-family="Helvetica,sans-Serif" font-size="10.00">/Methods/DeleteMethod.hpp</text>
</a>
</g>
</g>
<!-- Node7&#45;&gt;Node9 -->
<g id="edge9_Node000007_Node000009" class="edge">
<title>Node7&#45;&gt;Node9</title>
<g id="a_edge9_Node000007_Node000009"><a xlink:title=" ">
<path fill="none" stroke="#63b8ff" d="M907,-330.54C907,-321.96 907,-312.61 907,-305.16"/>
<polygon fill="#63b8ff" stroke="#63b8ff" points="903.5,-330.8 907,-340.8 910.5,-330.8 903.5,-330.8"/>
</a>
</g>
</g>
<!-- Node10 -->
<g id="Node000010" class="node">
<title>Node10</title>
<g id="a_Node000010"><a xlink:href="_get_method_8hpp.html" target="_top" xlink:title=" ">
<polygon fill="white" stroke="#666666" points="1811,-305 1671,-305 1671,-275 1811,-275 1811,-305"/>
<text text-anchor="start" x="1679" y="-293" font-family="Helvetica,sans-Serif" font-size="10.00">include/Thoth/Http</text>
<text text-anchor="middle" x="1741" y="-282" font-family="Helvetica,sans-Serif" font-size="10.00">/Methods/GetMethod.hpp</text>
</a>
</g>
</g>
<!-- Node7&#45;&gt;Node10 -->
<g id="edge10_Node000007_Node000010" class="edge">
<title>Node7&#45;&gt;Node10</title>
<g id="a_edge10_Node000007_Node000010"><a xlink:title=" ">
<path fill="none" stroke="#63b8ff" d="M1014.42,-341.03C1302.97,-314.82 1378.83,-337.84 1662,-305 1664.91,-304.66 1667.87,-304.29 1670.85,-303.88"/>
<polygon fill="#63b8ff" stroke="#63b8ff" points="1013.71,-337.58 1004.07,-341.98 1014.35,-344.55 1013.71,-337.58"/>
</a>
</g>
</g>
<!-- Node13 -->
<g id="Node000013" class="node">
<title>Node13</title>
<g id="a_Node000013"><a xlink:href="_head_method_8hpp.html" target="_top" xlink:title=" ">
<polygon fill="white" stroke="#666666" points="1151,-305 1003,-305 1003,-275 1151,-275 1151,-305"/>
<text text-anchor="start" x="1011" y="-293" font-family="Helvetica,sans-Serif" font-size="10.00">include/Thoth/Http</text>
<text text-anchor="middle" x="1077" y="-282" font-family="Helvetica,sans-Serif" font-size="10.00">/Methods/HeadMethod.hpp</text>
</a>
</g>
</g>
<!-- Node7&#45;&gt;Node13 -->
<g id="edge16_Node000007_Node000013" class="edge">
<title>Node7&#45;&gt;Node13</title>
<g id="a_edge16_Node000007_Node000013"><a xlink:title=" ">
<path fill="none" stroke="#63b8ff" d="M953.96,-337.32C981.01,-327.14 1014.55,-314.51 1039.78,-305.01"/>
<polygon fill="#63b8ff" stroke="#63b8ff" points="952.43,-334.16 944.31,-340.95 954.9,-340.71 952.43,-334.16"/>
</a>
</g>
</g>
<!-- Node14 -->
<g id="Node000014" class="node">
<title>Node14</title>
<g id="a_Node000014"><a xlink:href="_options_method_8hpp.html" target="_top" xlink:title=" ">
<polygon fill="white" stroke="#666666" points="1329,-305 1169,-305 1169,-275 1329,-275 1329,-305"/>
<text text-anchor="start" x="1177" y="-293" font-family="Helvetica,sans-Serif" font-size="10.00">include/Thoth/Http</text>
<text text-anchor="middle" x="1249" y="-282" font-family="Helvetica,sans-Serif" font-size="10.00">/Methods/OptionsMethod.hpp</text>
</a>
</g>
</g>
<!-- Node7&#45;&gt;Node14 -->
<g id="edge17_Node000007_Node000014" class="edge">
<title>Node7&#45;&gt;Node14</title>
<g id="a_edge17_Node000007_Node000014"><a xlink:title=" ">
<path fill="none" stroke="#63b8ff" d="M991.94,-339.11C1047.85,-328.64 1120.37,-315.07 1174.12,-305.01"/>
<polygon fill="#63b8ff" stroke="#63b8ff" points="991.24,-335.68 982.05,-340.95 992.53,-342.56 991.24,-335.68"/>
</a>
</g>
</g>
<!-- Node15 -->
<g id="Node000015" class="node">
<title>Node15</title>
<g id="a_Node000015"><a xlink:href="_patch_method_8hpp.html" target="_top" xlink:title=" ">
<polygon fill="white" stroke="#666666" points="1496.5,-305 1347.5,-305 1347.5,-275 1496.5,-275 1496.5,-305"/>
<text text-anchor="start" x="1355.5" y="-293" font-family="Helvetica,sans-Serif" font-size="10.00">include/Thoth/Http</text>
<text text-anchor="middle" x="1422" y="-282" font-family="Helvetica,sans-Serif" font-size="10.00">/Methods/PatchMethod.hpp</text>
</a>
</g>
</g>
<!-- Node7&#45;&gt;Node15 -->
<g id="edge18_Node000007_Node000015" class="edge">
<title>Node7&#45;&gt;Node15</title>
<g id="a_edge18_Node000007_Node000015"><a xlink:title=" ">
<path fill="none" stroke="#63b8ff" d="M1014.28,-340.99C1159.54,-323.65 1197.71,-324.47 1338,-305 1341.08,-304.57 1344.21,-304.12 1347.38,-303.65"/>
<polygon fill="#63b8ff" stroke="#63b8ff" points="1013.6,-337.54 1004.09,-342.21 1014.44,-344.49 1013.6,-337.54"/>
</a>
</g>
</g>
<!-- Node16 -->
<g id="Node000016" class="node">
<title>Node16</title>
<g id="a_Node000016"><a xlink:href="_post_method_8hpp.html" target="_top" xlink:title=" ">
<polygon fill="white" stroke="#666666" points="464.5,-305 321.5,-305 321.5,-275 464.5,-275 464.5,-305"/>
<text text-anchor="start" x="329.5" y="-293" font-family="Helvetica,sans-Serif" font-size="10.00">include/Thoth/Http</text>
<text text-anchor="middle" x="393" y="-282" font-family="Helvetica,sans-Serif" font-size="10.00">/Methods/PostMethod.hpp</text>
</a>
</g>
</g>
<!-- Node7&#45;&gt;Node16 -->
<g id="edge19_Node000007_Node000016" class="edge">
<title>Node7&#45;&gt;Node16</title>
<g id="a_edge19_Node000007_Node000016"><a xlink:title=" ">
<path fill="none" stroke="#63b8ff" d="M799.67,-344.3C711.91,-335.15 584.71,-320.95 474,-305 470.89,-304.55 467.72,-304.08 464.52,-303.59"/>
<polygon fill="#63b8ff" stroke="#63b8ff" points="799.33,-347.78 809.63,-345.34 800.05,-340.82 799.33,-347.78"/>
</a>
</g>
</g>
<!-- Node17 -->
<g id="Node000017" class="node">
<title>Node17</title>
<g id="a_Node000017"><a xlink:href="_put_method_8hpp.html" target="_top" xlink:title=" ">
<polygon fill="white" stroke="#666666" points="1653,-305 1515,-305 1515,-275 1653,-275 1653,-305"/>
<text text-anchor="start" x="1523" y="-293" font-family="Helvetica,sans-Serif" font-size="10.00">include/Thoth/Http</text>
<text text-anchor="middle" x="1584" y="-282" font-family="Helvetica,sans-Serif" font-size="10.00">/Methods/PutMethod.hpp</text>
</a>
</g>
</g>
<!-- Node7&#45;&gt;Node17 -->
<g id="edge22_Node000007_Node000017" class="edge">
<title>Node7&#45;&gt;Node17</title>
<g id="a_edge22_Node000007_Node000017"><a xlink:title=" ">
<path fill="none" stroke="#63b8ff" d="M1014.31,-341.02C1233.86,-319.17 1291.76,-331.99 1506,-305 1508.87,-304.64 1511.79,-304.24 1514.74,-303.82"/>
<polygon fill="#63b8ff" stroke="#63b8ff" points="1013.67,-337.57 1004.08,-342.05 1014.38,-344.53 1013.67,-337.57"/>
</a>
</g>
</g>
<!-- Node18 -->
<g id="Node000018" class="node">
<title>Node18</title>
<g id="a_Node000018"><a xlink:href="_trace_method_8hpp.html" target="_top" xlink:title=" ">
<polygon fill="white" stroke="#666666" points="631,-305 483,-305 483,-275 631,-275 631,-305"/>
<text text-anchor="start" x="491" y="-293" font-family="Helvetica,sans-Serif" font-size="10.00">include/Thoth/Http</text>
<text text-anchor="middle" x="557" y="-282" font-family="Helvetica,sans-Serif" font-size="10.00">/Methods/TraceMethod.hpp</text>
</a>
</g>
</g>
<!-- Node7&#45;&gt;Node18 -->
<g id="edge23_Node000007_Node000018" class="edge">
<title>Node7&#45;&gt;Node18</title>
<g id="a_edge23_Node000007_Node000018"><a xlink:title=" ">
<path fill="none" stroke="#63b8ff" d="M820.29,-339.15C762.21,-328.52 686.53,-314.69 631.23,-304.57"/>
<polygon fill="#63b8ff" stroke="#63b8ff" points="819.72,-342.6 830.19,-340.95 820.98,-335.71 819.72,-342.6"/>
</a>
</g>
</g>
<!-- Node10&#45;&gt;Node5 -->
<g id="edge15_Node000010_Node000005" class="edge">
<title>Node10&#45;&gt;Node5</title>
<g id="a_edge15_Node000010_Node000005"><a xlink:title=" ">
<path fill="none" stroke="#63b8ff" d="M1660.83,-274.82C1209.83,-199.79 680.66,-120.11 494.15,-92.28"/>
<polygon fill="#63b8ff" stroke="#63b8ff" points="1660.36,-278.29 1670.8,-276.48 1661.51,-271.39 1660.36,-278.29"/>
</a>
</g>
</g>
<!-- Node11 -->
<g id="Node000011" class="node">
<title>Node11</title>
<g id="a_Node000011"><a xlink:href="_request_8hpp.html" target="_top" xlink:title=" ">
<polygon fill="white" stroke="#666666" points="651.5,-239 528.5,-239 528.5,-209 651.5,-209 651.5,-239"/>
<text text-anchor="start" x="536.5" y="-227" font-family="Helvetica,sans-Serif" font-size="10.00">include/Thoth/Http</text>
<text text-anchor="middle" x="590" y="-216" font-family="Helvetica,sans-Serif" font-size="10.00">/Request/Request.hpp</text>
</a>
</g>
</g>
<!-- Node10&#45;&gt;Node11 -->
<g id="edge11_Node000010_Node000011" class="edge">
<title>Node10&#45;&gt;Node11</title>
<g id="a_edge11_Node000010_Node000011"><a xlink:title=" ">
<path fill="none" stroke="#63b8ff" d="M1660.81,-274.97C1271.5,-232.25 814.65,-225.97 651.55,-225.1"/>
<polygon fill="#63b8ff" stroke="#63b8ff" points="1660.53,-278.46 1670.86,-276.09 1661.3,-271.51 1660.53,-278.46"/>
</a>
</g>
</g>
<!-- Node11&#45;&gt;Node6 -->
<g id="edge12_Node000011_Node000006" class="edge">
<title>Node11&#45;&gt;Node6</title>
<g id="a_edge12_Node000011_Node000006"><a xlink:title=" ">
<path fill="none" stroke="#63b8ff" d="M587.97,-198.65C585.69,-179.76 580.9,-153.28 571,-132 551.78,-90.69 515.29,-50.75 494.84,-30.24"/>
<polygon fill="#63b8ff" stroke="#63b8ff" points="584.51,-199.23 589.05,-208.81 591.47,-198.5 584.51,-199.23"/>
</a>
</g>
</g>
<!-- Node11&#45;&gt;Node12 -->
<g id="edge13_Node000011_Node000012" class="edge">
<title>Node11&#45;&gt;Node12</title>
<g id="a_edge13_Node000011_Node000012"><a xlink:title=" ">
<path fill="none" stroke="#63b8ff" d="M559.24,-203.57C541.13,-192.12 518.62,-177.9 502.23,-167.54"/>
<polygon fill="#63b8ff" stroke="#63b8ff" points="557.42,-206.55 567.74,-208.94 561.16,-200.64 557.42,-206.55"/>
</a>
</g>
</g>
<!-- Node12&#45;&gt;Node5 -->
<g id="edge14_Node000012_Node000005" class="edge">
<title>Node12&#45;&gt;Node5</title>
<g id="a_edge14_Node000012_Node000005"><a xlink:title=" ">
<path fill="none" stroke="#63b8ff" d="M462.61,-129.53C453.94,-118.57 443.71,-105.65 436.11,-96.04"/>
<polygon fill="#63b8ff" stroke="#63b8ff" points="459.92,-131.77 468.87,-137.44 465.41,-127.42 459.92,-131.77"/>
</a>
</g>
</g>
<!-- Node16&#45;&gt;Node5 -->
<g id="edge21_Node000016_Node000005" class="edge">
<title>Node16&#45;&gt;Node5</title>
<g id="a_edge21_Node000016_Node000005"><a xlink:title=" ">
<path fill="none" stroke="#63b8ff" d="M387.5,-264.64C381.48,-233.16 374.47,-177.03 389,-132 393.33,-118.56 402.77,-105.69 410.89,-96.37"/>
<polygon fill="#63b8ff" stroke="#63b8ff" points="384.12,-265.59 389.55,-274.69 390.98,-264.19 384.12,-265.59"/>
</a>
</g>
</g>
<!-- Node16&#45;&gt;Node11 -->
<g id="edge20_Node000016_Node000011" class="edge">
<title>Node16&#45;&gt;Node11</title>
<g id="a_edge20_Node000016_Node000011"><a xlink:title=" ">
<path fill="none" stroke="#63b8ff" d="M445.77,-271.86C477.4,-261.58 517.12,-248.68 546.87,-239.01"/>
<polygon fill="#63b8ff" stroke="#63b8ff" points="444.66,-268.54 436.23,-274.95 446.82,-275.19 444.66,-268.54"/>
</a>
</g>
</g>
<!-- Node21&#45;&gt;Node11 -->
<g id="edge27_Node000021_Node000011" class="edge">
<title>Node21&#45;&gt;Node11</title>
<g id="a_edge27_Node000021_Node000011"><a xlink:title=" ">
<path fill="none" stroke="#63b8ff" d="M1247.79,-355C1434.67,-353.76 1781.95,-345.91 1820,-305 1829.08,-295.24 1829.23,-284.62 1820,-275 1779.18,-232.49 895.16,-226.11 651.63,-225.16"/>
<polygon fill="#63b8ff" stroke="#63b8ff" points="1247.62,-351.5 1237.65,-355.07 1247.67,-358.5 1247.62,-351.5"/>
</a>
</g>
</g>
<!-- Node22&#45;&gt;Node5 -->
<g id="edge29_Node000022_Node000005" class="edge">
<title>Node22&#45;&gt;Node5</title>
<g id="a_edge29_Node000022_Node000005"><a xlink:title=" ">
<path fill="none" stroke="#63b8ff" d="M178.29,-132.28C234.7,-120.78 305.13,-106.43 356.27,-96.01"/>
<polygon fill="#63b8ff" stroke="#63b8ff" points="177.39,-128.89 168.29,-134.32 178.79,-135.75 177.39,-128.89"/>
</a>
</g>
</g>
</g>
</svg>
