<?xml version="1.0" encoding="UTF-8" standalone="no"?>
<!DOCTYPE svg PUBLIC "-//W3C//DTD SVG 1.1//EN"
 "http://www.w3.org/Graphics/SVG/1.1/DTD/svg11.dtd">
<!-- Generated by graphviz version 2.43.0 (0)
 -->
<!-- Title: include/Thoth/Http/NHeaders/Headers/EntityTag.hpp Pages: 1 -->
<svg width="1742pt" height="577pt"
 viewBox="0.00 0.00 1741.81 577.00" xmlns="http://www.w3.org/2000/svg" xmlns:xlink="http://www.w3.org/1999/xlink">
<g id="graph0" class="graph" transform="scale(1 1) rotate(0) translate(4 573)">
<title>include/Thoth/Http/NHeaders/Headers/EntityTag.hpp</title>
<!-- Node1 -->
<g id="Node000001" class="node">
<title>Node1</title>
<g id="a_Node000001"><a xlink:title=" ">
<polygon fill="#999999" stroke="#666666" points="1321.31,-569 1141.31,-569 1141.31,-539 1321.31,-539 1321.31,-569"/>
<text text-anchor="start" x="1149.31" y="-557" font-family="Helvetica,sans-Serif" font-size="10.00">include/Thoth/Http</text>
<text text-anchor="middle" x="1231.31" y="-546" font-family="Helvetica,sans-Serif" font-size="10.00">/NHeaders/Headers/EntityTag.hpp</text>
</a>
</g>
</g>
<!-- Node2 -->
<g id="Node000002" class="node">
<title>Node2</title>
<g id="a_Node000002"><a xlink:href="_headers_2__pch_8hpp.html" target="_top" xlink:title=" ">
<polygon fill="white" stroke="#666666" points="1257.31,-503 1099.31,-503 1099.31,-473 1257.31,-473 1257.31,-503"/>
<text text-anchor="start" x="1107.31" y="-491" font-family="Helvetica,sans-Serif" font-size="10.00">include/Thoth/Http</text>
<text text-anchor="middle" x="1178.31" y="-480" font-family="Helvetica,sans-Serif" font-size="10.00">/NHeaders/Headers/_pch.hpp</text>
</a>
</g>
</g>
<!-- Node1&#45;&gt;Node2 -->
<g id="edge1_Node000001_Node000002" class="edge">
<title>Node1&#45;&gt;Node2</title>
<g id="a_edge1_Node000001_Node000002"><a xlink:title=" ">
<path fill="none" stroke="#63b8ff" d="M1213.16,-531.09C1205.51,-521.85 1196.82,-511.36 1190.03,-503.16"/>
<polygon fill="#63b8ff" stroke="#63b8ff" points="1210.47,-533.33 1219.54,-538.8 1215.86,-528.86 1210.47,-533.33"/>
</a>
</g>
</g>
<!-- Node20 -->
<g id="Node000020" class="node">
<title>Node20</title>
<g id="a_Node000020"><a xlink:href="_request_headers_8hpp.html" target="_top" xlink:title=" ">
<polygon fill="white" stroke="#666666" points="1733.81,-371 1518.81,-371 1518.81,-341 1733.81,-341 1733.81,-371"/>
<text text-anchor="start" x="1526.81" y="-359" font-family="Helvetica,sans-Serif" font-size="10.00">include/Thoth/Http</text>
<text text-anchor="middle" x="1626.31" y="-348" font-family="Helvetica,sans-Serif" font-size="10.00">/NHeaders/Request/RequestHeaders.hpp</text>
</a>
</g>
</g>
<!-- Node1&#45;&gt;Node20 -->
<g id="edge28_Node000001_Node000020" class="edge">
<title>Node1&#45;&gt;Node20</title>
<g id="a_edge28_Node000001_Node000020"><a xlink:title=" ">
<path fill="none" stroke="#63b8ff" d="M1268.78,-534.41C1347.37,-495.41 1527.93,-405.81 1597.89,-371.1"/>
<polygon fill="#63b8ff" stroke="#63b8ff" points="1267.11,-531.32 1259.71,-538.9 1270.23,-537.59 1267.11,-531.32"/>
</a>
</g>
</g>
<!-- Node3 -->
<g id="Node000003" class="node">
<title>Node3</title>
<g id="a_Node000003"><a xlink:href="_headers_8hpp.html" target="_top" xlink:title=" ">
<polygon fill="white" stroke="#666666" points="990.31,-437 858.31,-437 858.31,-407 990.31,-407 990.31,-437"/>
<text text-anchor="start" x="866.31" y="-425" font-family="Helvetica,sans-Serif" font-size="10.00">include/Thoth/Http</text>
<text text-anchor="middle" x="924.31" y="-414" font-family="Helvetica,sans-Serif" font-size="10.00">/NHeaders/Headers.hpp</text>
</a>
</g>
</g>
<!-- Node2&#45;&gt;Node3 -->
<g id="edge2_Node000002_Node000003" class="edge">
<title>Node2&#45;&gt;Node3</title>
<g id="a_edge2_Node000002_Node000003"><a xlink:title=" ">
<path fill="none" stroke="#63b8ff" d="M1112.63,-470.45C1071.47,-460.08 1019.01,-446.86 979.92,-437.01"/>
<polygon fill="#63b8ff" stroke="#63b8ff" points="1112.01,-473.91 1122.56,-472.95 1113.72,-467.12 1112.01,-473.91"/>
</a>
</g>
</g>
<!-- Node4 -->
<g id="Node000004" class="node">
<title>Node4</title>
<g id="a_Node000004"><a xlink:href="_method_concept_8hpp.html" target="_top" xlink:title=" ">
<polygon fill="white" stroke="#666666" points="1021.31,-371 827.31,-371 827.31,-341 1021.31,-341 1021.31,-371"/>
<text text-anchor="start" x="835.31" y="-359" font-family="Helvetica,sans-Serif" font-size="10.00">include/Thoth/Http</text>
<text text-anchor="middle" x="924.31" y="-348" font-family="Helvetica,sans-Serif" font-size="10.00">/Methods/_base/MethodConcept.hpp</text>
</a>
</g>
</g>
<!-- Node3&#45;&gt;Node4 -->
<g id="edge3_Node000003_Node000004" class="edge">
<title>Node3&#45;&gt;Node4</title>
<g id="a_edge3_Node000003_Node000004"><a xlink:title=" ">
<path fill="none" stroke="#63b8ff" d="M924.31,-396.54C924.31,-387.96 924.31,-378.61 924.31,-371.16"/>
<polygon fill="#63b8ff" stroke="#63b8ff" points="920.81,-396.8 924.31,-406.8 927.81,-396.8 920.81,-396.8"/>
</a>
</g>
</g>
<!-- Node10 -->
<g id="Node000010" class="node">
<title>Node10</title>
<g id="a_Node000010"><a xlink:href="_response_head_8hpp.html" target="_top" xlink:title=" ">
<polygon fill="white" stroke="#666666" points="1466.31,-162 1302.31,-162 1302.31,-132 1466.31,-132 1466.31,-162"/>
<text text-anchor="start" x="1310.31" y="-150" font-family="Helvetica,sans-Serif" font-size="10.00">include/Thoth/Http</text>
<text text-anchor="middle" x="1384.31" y="-139" font-family="Helvetica,sans-Serif" font-size="10.00">/Response/ResponseHead.hpp</text>
</a>
</g>
</g>
<!-- Node3&#45;&gt;Node10 -->
<g id="edge27_Node000003_Node000010" class="edge">
<title>Node3&#45;&gt;Node10</title>
<g id="a_edge27_Node000003_Node000010"><a xlink:title=" ">
<path fill="none" stroke="#63b8ff" d="M1000.6,-417.78C1146.24,-409.86 1455.24,-383.94 1520.31,-305 1535.2,-286.93 1533.79,-228.2 1510.31,-198 1496.94,-180.82 1476.78,-169.52 1456.49,-162.11"/>
<polygon fill="#63b8ff" stroke="#63b8ff" points="1000.2,-414.3 990.4,-418.32 1000.57,-421.29 1000.2,-414.3"/>
</a>
</g>
</g>
<!-- Node18 -->
<g id="Node000018" class="node">
<title>Node18</title>
<g id="a_Node000018"><a xlink:href="_list_proxy_8hpp.html" target="_top" xlink:title=" ">
<polygon fill="white" stroke="#666666" points="615.31,-371 449.31,-371 449.31,-341 615.31,-341 615.31,-371"/>
<text text-anchor="start" x="457.31" y="-359" font-family="Helvetica,sans-Serif" font-size="10.00">include/Thoth/Http</text>
<text text-anchor="middle" x="532.31" y="-348" font-family="Helvetica,sans-Serif" font-size="10.00">/NHeaders/Proxy/ListProxy.hpp</text>
</a>
</g>
</g>
<!-- Node3&#45;&gt;Node18 -->
<g id="edge21_Node000003_Node000018" class="edge">
<title>Node3&#45;&gt;Node18</title>
<g id="a_edge21_Node000003_Node000018"><a xlink:title=" ">
<path fill="none" stroke="#63b8ff" d="M848.2,-408.57C781.33,-397.66 684.22,-381.8 615.36,-370.56"/>
<polygon fill="#63b8ff" stroke="#63b8ff" points="847.82,-412.06 858.25,-410.22 848.95,-405.15 847.82,-412.06"/>
</a>
</g>
</g>
<!-- Node19 -->
<g id="Node000019" class="node">
<title>Node19</title>
<g id="a_Node000019"><a xlink:href="_value_proxy_8hpp.html" target="_top" xlink:title=" ">
<polygon fill="white" stroke="#666666" points="809.31,-371 633.31,-371 633.31,-341 809.31,-341 809.31,-371"/>
<text text-anchor="start" x="641.31" y="-359" font-family="Helvetica,sans-Serif" font-size="10.00">include/Thoth/Http</text>
<text text-anchor="middle" x="721.31" y="-348" font-family="Helvetica,sans-Serif" font-size="10.00">/NHeaders/Proxy/ValueProxy.hpp</text>
</a>
</g>
</g>
<!-- Node3&#45;&gt;Node19 -->
<g id="edge22_Node000003_Node000019" class="edge">
<title>Node3&#45;&gt;Node19</title>
<g id="a_edge22_Node000003_Node000019"><a xlink:title=" ">
<path fill="none" stroke="#63b8ff" d="M869.93,-403.86C837.33,-393.58 796.4,-380.68 765.75,-371.01"/>
<polygon fill="#63b8ff" stroke="#63b8ff" points="869.17,-407.29 879.76,-406.95 871.27,-400.61 869.17,-407.29"/>
</a>
</g>
</g>
<!-- Node3&#45;&gt;Node20 -->
<g id="edge23_Node000003_Node000020" class="edge">
<title>Node3&#45;&gt;Node20</title>
<g id="a_edge23_Node000003_Node000020"><a xlink:title=" ">
<path fill="none" stroke="#63b8ff" d="M1000.56,-415.12C1111.51,-406.4 1323.9,-389.12 1504.31,-371 1508.97,-370.53 1513.74,-370.04 1518.55,-369.53"/>
<polygon fill="#63b8ff" stroke="#63b8ff" points="1000.16,-411.64 990.47,-415.91 1000.71,-418.62 1000.16,-411.64"/>
</a>
</g>
</g>
<!-- Node21 -->
<g id="Node000021" class="node">
<title>Node21</title>
<g id="a_Node000021"><a xlink:href="_response_headers_8hpp.html" target="_top" xlink:title=" ">
<polygon fill="white" stroke="#666666" points="360.31,-239 192.31,-239 192.31,-198 360.31,-198 360.31,-239"/>
<text text-anchor="start" x="200.31" y="-227" font-family="Helvetica,sans-Serif" font-size="10.00">include/Thoth/Http</text>
<text text-anchor="start" x="200.31" y="-216" font-family="Helvetica,sans-Serif" font-size="10.00">/NHeaders/Response/Response</text>
<text text-anchor="middle" x="276.31" y="-205" font-family="Helvetica,sans-Serif" font-size="10.00">Headers.hpp</text>
</a>
</g>
</g>
<!-- Node3&#45;&gt;Node21 -->
<g id="edge25_Node000003_Node000021" class="edge">
<title>Node3&#45;&gt;Node21</title>
<g id="a_edge25_Node000003_Node000021"><a xlink:title=" ">
<path fill="none" stroke="#63b8ff" d="M847.98,-417.06C638.5,-405.46 66.52,-368.22 12.31,-305 -41.64,-242.1 96.08,-225.13 192.26,-220.76"/>
<polygon fill="#63b8ff" stroke="#63b8ff" points="847.8,-420.55 857.98,-417.61 848.18,-413.56 847.8,-420.55"/>
</a>
</g>
</g>
<!-- Node5 -->
<g id="Node000005" class="node">
<title>Node5</title>
<g id="a_Node000005"><a xlink:href="_connect_method_8hpp.html" target="_top" xlink:title=" ">
<polygon fill="white" stroke="#666666" points="1005.31,-305 843.31,-305 843.31,-275 1005.31,-275 1005.31,-305"/>
<text text-anchor="start" x="851.31" y="-293" font-family="Helvetica,sans-Serif" font-size="10.00">include/Thoth/Http</text>
<text text-anchor="middle" x="924.31" y="-282" font-family="Helvetica,sans-Serif" font-size="10.00">/Methods/ConnectMethod.hpp</text>
</a>
</g>
</g>
<!-- Node4&#45;&gt;Node5 -->
<g id="edge4_Node000004_Node000005" class="edge">
<title>Node4&#45;&gt;Node5</title>
<g id="a_edge4_Node000004_Node000005"><a xlink:title=" ">
<path fill="none" stroke="#63b8ff" d="M924.31,-330.54C924.31,-321.96 924.31,-312.61 924.31,-305.16"/>
<polygon fill="#63b8ff" stroke="#63b8ff" points="920.81,-330.8 924.31,-340.8 927.81,-330.8 920.81,-330.8"/>
</a>
</g>
</g>
<!-- Node6 -->
<g id="Node000006" class="node">
<title>Node6</title>
<g id="a_Node000006"><a xlink:href="_delete_method_8hpp.html" target="_top" xlink:title=" ">
<polygon fill="white" stroke="#666666" points="824.81,-305 669.81,-305 669.81,-275 824.81,-275 824.81,-305"/>
<text text-anchor="start" x="677.81" y="-293" font-family="Helvetica,sans-Serif" font-size="10.00">include/Thoth/Http</text>
<text text-anchor="middle" x="747.31" y="-282" font-family="Helvetica,sans-Serif" font-size="10.00">/Methods/DeleteMethod.hpp</text>
</a>
</g>
</g>
<!-- Node4&#45;&gt;Node6 -->
<g id="edge5_Node000004_Node000006" class="edge">
<title>Node4&#45;&gt;Node6</title>
<g id="a_edge5_Node000004_Node000006"><a xlink:title=" ">
<path fill="none" stroke="#63b8ff" d="M875.79,-337.46C847.55,-327.25 812.44,-314.55 786.06,-305.01"/>
<polygon fill="#63b8ff" stroke="#63b8ff" points="874.87,-340.85 885.46,-340.95 877.25,-334.26 874.87,-340.85"/>
</a>
</g>
</g>
<!-- Node7 -->
<g id="Node000007" class="node">
<title>Node7</title>
<g id="a_Node000007"><a xlink:href="_get_method_8hpp.html" target="_top" xlink:title=" ">
<polygon fill="white" stroke="#666666" points="161.31,-305 21.31,-305 21.31,-275 161.31,-275 161.31,-305"/>
<text text-anchor="start" x="29.31" y="-293" font-family="Helvetica,sans-Serif" font-size="10.00">include/Thoth/Http</text>
<text text-anchor="middle" x="91.31" y="-282" font-family="Helvetica,sans-Serif" font-size="10.00">/Methods/GetMethod.hpp</text>
</a>
</g>
</g>
<!-- Node4&#45;&gt;Node7 -->
<g id="edge6_Node000004_Node000007" class="edge">
<title>Node4&#45;&gt;Node7</title>
<g id="a_edge6_Node000004_Node000007"><a xlink:title=" ">
<path fill="none" stroke="#63b8ff" d="M816.97,-340.93C529.35,-314.65 453.47,-337.84 170.31,-305 167.4,-304.66 164.44,-304.29 161.45,-303.88"/>
<polygon fill="#63b8ff" stroke="#63b8ff" points="817.01,-344.45 827.29,-341.89 817.66,-337.48 817.01,-344.45"/>
</a>
</g>
</g>
<!-- Node12 -->
<g id="Node000012" class="node">
<title>Node12</title>
<g id="a_Node000012"><a xlink:href="_head_method_8hpp.html" target="_top" xlink:title=" ">
<polygon fill="white" stroke="#666666" points="1171.31,-305 1023.31,-305 1023.31,-275 1171.31,-275 1171.31,-305"/>
<text text-anchor="start" x="1031.31" y="-293" font-family="Helvetica,sans-Serif" font-size="10.00">include/Thoth/Http</text>
<text text-anchor="middle" x="1097.31" y="-282" font-family="Helvetica,sans-Serif" font-size="10.00">/Methods/HeadMethod.hpp</text>
</a>
</g>
</g>
<!-- Node4&#45;&gt;Node12 -->
<g id="edge13_Node000004_Node000012" class="edge">
<title>Node4&#45;&gt;Node12</title>
<g id="a_edge13_Node000004_Node000012"><a xlink:title=" ">
<path fill="none" stroke="#63b8ff" d="M971.73,-337.46C999.33,-327.25 1033.65,-314.55 1059.43,-305.01"/>
<polygon fill="#63b8ff" stroke="#63b8ff" points="970.44,-334.2 962.27,-340.95 972.86,-340.77 970.44,-334.2"/>
</a>
</g>
</g>
<!-- Node13 -->
<g id="Node000013" class="node">
<title>Node13</title>
<g id="a_Node000013"><a xlink:href="_options_method_8hpp.html" target="_top" xlink:title=" ">
<polygon fill="white" stroke="#666666" points="1349.31,-305 1189.31,-305 1189.31,-275 1349.31,-275 1349.31,-305"/>
<text text-anchor="start" x="1197.31" y="-293" font-family="Helvetica,sans-Serif" font-size="10.00">include/Thoth/Http</text>
<text text-anchor="middle" x="1269.31" y="-282" font-family="Helvetica,sans-Serif" font-size="10.00">/Methods/OptionsMethod.hpp</text>
</a>
</g>
</g>
<!-- Node4&#45;&gt;Node13 -->
<g id="edge14_Node000004_Node000013" class="edge">
<title>Node4&#45;&gt;Node13</title>
<g id="a_edge14_Node000004_Node000013"><a xlink:title=" ">
<path fill="none" stroke="#63b8ff" d="M1009.99,-339.11C1066.39,-328.64 1139.55,-315.07 1193.77,-305.01"/>
<polygon fill="#63b8ff" stroke="#63b8ff" points="1009.21,-335.69 1000.02,-340.95 1010.49,-342.57 1009.21,-335.69"/>
</a>
</g>
</g>
<!-- Node14 -->
<g id="Node000014" class="node">
<title>Node14</title>
<g id="a_Node000014"><a xlink:href="_patch_method_8hpp.html" target="_top" xlink:title=" ">
<polygon fill="white" stroke="#666666" points="328.81,-305 179.81,-305 179.81,-275 328.81,-275 328.81,-305"/>
<text text-anchor="start" x="187.81" y="-293" font-family="Helvetica,sans-Serif" font-size="10.00">include/Thoth/Http</text>
<text text-anchor="middle" x="254.31" y="-282" font-family="Helvetica,sans-Serif" font-size="10.00">/Methods/PatchMethod.hpp</text>
</a>
</g>
</g>
<!-- Node4&#45;&gt;Node14 -->
<g id="edge15_Node000004_Node000014" class="edge">
<title>Node4&#45;&gt;Node14</title>
<g id="a_edge15_Node000004_Node000014"><a xlink:title=" ">
<path fill="none" stroke="#63b8ff" d="M817.33,-340.94C603.81,-319.33 547.48,-330.22 338.31,-305 335.22,-304.63 332.08,-304.22 328.91,-303.79"/>
<polygon fill="#63b8ff" stroke="#63b8ff" points="816.98,-344.43 827.29,-341.96 817.69,-337.46 816.98,-344.43"/>
</a>
</g>
</g>
<!-- Node15 -->
<g id="Node000015" class="node">
<title>Node15</title>
<g id="a_Node000015"><a xlink:href="_post_method_8hpp.html" target="_top" xlink:title=" ">
<polygon fill="white" stroke="#666666" points="1510.81,-305 1367.81,-305 1367.81,-275 1510.81,-275 1510.81,-305"/>
<text text-anchor="start" x="1375.81" y="-293" font-family="Helvetica,sans-Serif" font-size="10.00">include/Thoth/Http</text>
<text text-anchor="middle" x="1439.31" y="-282" font-family="Helvetica,sans-Serif" font-size="10.00">/Methods/PostMethod.hpp</text>
</a>
</g>
</g>
<!-- Node4&#45;&gt;Node15 -->
<g id="edge16_Node000004_Node000015" class="edge">
<title>Node4&#45;&gt;Node15</title>
<g id="a_edge16_Node000004_Node000015"><a xlink:title=" ">
<path fill="none" stroke="#63b8ff" d="M1031.46,-344.36C1119.43,-335.21 1247.16,-320.99 1358.31,-305 1361.41,-304.55 1364.58,-304.08 1367.79,-303.59"/>
<polygon fill="#63b8ff" stroke="#63b8ff" points="1031.05,-340.88 1021.47,-345.39 1031.77,-347.84 1031.05,-340.88"/>
</a>
</g>
</g>
<!-- Node16 -->
<g id="Node000016" class="node">
<title>Node16</title>
<g id="a_Node000016"><a xlink:href="_put_method_8hpp.html" target="_top" xlink:title=" ">
<polygon fill="white" stroke="#666666" points="485.31,-305 347.31,-305 347.31,-275 485.31,-275 485.31,-305"/>
<text text-anchor="start" x="355.31" y="-293" font-family="Helvetica,sans-Serif" font-size="10.00">include/Thoth/Http</text>
<text text-anchor="middle" x="416.31" y="-282" font-family="Helvetica,sans-Serif" font-size="10.00">/Methods/PutMethod.hpp</text>
</a>
</g>
</g>
<!-- Node4&#45;&gt;Node16 -->
<g id="edge19_Node000004_Node000016" class="edge">
<title>Node4&#45;&gt;Node16</title>
<g id="a_edge19_Node000004_Node000016"><a xlink:title=" ">
<path fill="none" stroke="#63b8ff" d="M817.15,-340.88C672.77,-323.6 634.47,-325.34 494.31,-305 491.45,-304.59 488.53,-304.14 485.59,-303.68"/>
<polygon fill="#63b8ff" stroke="#63b8ff" points="816.92,-344.38 827.27,-342.1 817.76,-337.43 816.92,-344.38"/>
</a>
</g>
</g>
<!-- Node17 -->
<g id="Node000017" class="node">
<title>Node17</title>
<g id="a_Node000017"><a xlink:href="_trace_method_8hpp.html" target="_top" xlink:title=" ">
<polygon fill="white" stroke="#666666" points="651.31,-305 503.31,-305 503.31,-275 651.31,-275 651.31,-305"/>
<text text-anchor="start" x="511.31" y="-293" font-family="Helvetica,sans-Serif" font-size="10.00">include/Thoth/Http</text>
<text text-anchor="middle" x="577.31" y="-282" font-family="Helvetica,sans-Serif" font-size="10.00">/Methods/TraceMethod.hpp</text>
</a>
</g>
</g>
<!-- Node4&#45;&gt;Node17 -->
<g id="edge20_Node000004_Node000017" class="edge">
<title>Node4&#45;&gt;Node17</title>
<g id="a_edge20_Node000004_Node000017"><a xlink:title=" ">
<path fill="none" stroke="#63b8ff" d="M838.02,-339.09C780.68,-328.51 706.17,-314.77 651.49,-304.68"/>
<polygon fill="#63b8ff" stroke="#63b8ff" points="837.69,-342.58 848.15,-340.95 838.96,-335.7 837.69,-342.58"/>
</a>
</g>
</g>
<!-- Node8 -->
<g id="Node000008" class="node">
<title>Node8</title>
<g id="a_Node000008"><a xlink:href="_request_8hpp.html" target="_top" xlink:title=" ">
<polygon fill="white" stroke="#666666" points="1500.81,-233.5 1377.81,-233.5 1377.81,-203.5 1500.81,-203.5 1500.81,-233.5"/>
<text text-anchor="start" x="1385.81" y="-221.5" font-family="Helvetica,sans-Serif" font-size="10.00">include/Thoth/Http</text>
<text text-anchor="middle" x="1439.31" y="-210.5" font-family="Helvetica,sans-Serif" font-size="10.00">/Request/Request.hpp</text>
</a>
</g>
</g>
<!-- Node7&#45;&gt;Node8 -->
<g id="edge7_Node000007_Node000008" class="edge">
<title>Node7&#45;&gt;Node8</title>
<g id="a_edge7_Node000007_Node000008"><a xlink:title=" ">
<path fill="none" stroke="#63b8ff" d="M171.62,-275.3C280.79,-268.29 1138.44,-232.13 1377.61,-222.09"/>
<polygon fill="#63b8ff" stroke="#63b8ff" points="171.15,-271.82 161.45,-276.08 171.68,-278.8 171.15,-271.82"/>
</a>
</g>
</g>
<!-- Node11 -->
<g id="Node000011" class="node">
<title>Node11</title>
<g id="a_Node000011"><a xlink:href="_response_8hpp.html" target="_top" xlink:title=" ">
<polygon fill="white" stroke="#666666" points="1343.31,-96 1205.31,-96 1205.31,-66 1343.31,-66 1343.31,-96"/>
<text text-anchor="start" x="1213.31" y="-84" font-family="Helvetica,sans-Serif" font-size="10.00">include/Thoth/Http</text>
<text text-anchor="middle" x="1274.31" y="-73" font-family="Helvetica,sans-Serif" font-size="10.00">/Response/Response.hpp</text>
</a>
</g>
</g>
<!-- Node7&#45;&gt;Node11 -->
<g id="edge12_Node000007_Node000011" class="edge">
<title>Node7&#45;&gt;Node11</title>
<g id="a_edge12_Node000007_Node000011"><a xlink:title=" ">
<path fill="none" stroke="#63b8ff" d="M171.49,-274.79C569.48,-204.75 1032.76,-124.04 1205.19,-94.03"/>
<polygon fill="#63b8ff" stroke="#63b8ff" points="170.76,-271.37 161.51,-276.55 171.97,-278.26 170.76,-271.37"/>
</a>
</g>
</g>
<!-- Node9 -->
<g id="Node000009" class="node">
<title>Node9</title>
<g id="a_Node000009"><a xlink:href="_client_8hpp.html" target="_top" xlink:title=" ">
<polygon fill="white" stroke="#666666" points="1437.81,-30 1330.81,-30 1330.81,0 1437.81,0 1437.81,-30"/>
<text text-anchor="start" x="1338.81" y="-18" font-family="Helvetica,sans-Serif" font-size="10.00">include/Thoth/Http</text>
<text text-anchor="middle" x="1384.31" y="-7" font-family="Helvetica,sans-Serif" font-size="10.00">/Client.hpp</text>
</a>
</g>
</g>
<!-- Node8&#45;&gt;Node9 -->
<g id="edge8_Node000008_Node000009" class="edge">
<title>Node8&#45;&gt;Node9</title>
<g id="a_edge8_Node000008_Node000009"><a xlink:title=" ">
<path fill="none" stroke="#63b8ff" d="M1458.54,-194.98C1470.7,-177.92 1482.83,-153.78 1475.31,-132 1460.51,-89.18 1422.67,-50.12 1400.73,-30.09"/>
<polygon fill="#63b8ff" stroke="#63b8ff" points="1455.55,-193.13 1452.27,-203.2 1461.12,-197.37 1455.55,-193.13"/>
</a>
</g>
</g>
<!-- Node8&#45;&gt;Node10 -->
<g id="edge9_Node000008_Node000010" class="edge">
<title>Node8&#45;&gt;Node10</title>
<g id="a_edge9_Node000008_Node000010"><a xlink:title=" ">
<path fill="none" stroke="#63b8ff" d="M1421.92,-195.53C1413.25,-184.57 1403.02,-171.65 1395.42,-162.04"/>
<polygon fill="#63b8ff" stroke="#63b8ff" points="1419.22,-197.77 1428.18,-203.44 1424.71,-193.42 1419.22,-197.77"/>
</a>
</g>
</g>
<!-- Node10&#45;&gt;Node11 -->
<g id="edge10_Node000010_Node000011" class="edge">
<title>Node10&#45;&gt;Node11</title>
<g id="a_edge10_Node000010_Node000011"><a xlink:title=" ">
<path fill="none" stroke="#63b8ff" d="M1351.12,-126.69C1334.14,-116.82 1313.85,-105.01 1298.39,-96.01"/>
<polygon fill="#63b8ff" stroke="#63b8ff" points="1349.76,-129.95 1360.17,-131.95 1353.28,-123.9 1349.76,-129.95"/>
</a>
</g>
</g>
<!-- Node11&#45;&gt;Node9 -->
<g id="edge11_Node000011_Node000009" class="edge">
<title>Node11&#45;&gt;Node9</title>
<g id="a_edge11_Node000011_Node000009"><a xlink:title=" ">
<path fill="none" stroke="#63b8ff" d="M1307.49,-60.69C1324.47,-50.82 1344.76,-39.01 1360.22,-30.01"/>
<polygon fill="#63b8ff" stroke="#63b8ff" points="1305.33,-57.9 1298.45,-65.95 1308.85,-63.95 1305.33,-57.9"/>
</a>
</g>
</g>
<!-- Node15&#45;&gt;Node8 -->
<g id="edge17_Node000015_Node000008" class="edge">
<title>Node15&#45;&gt;Node8</title>
<g id="a_edge17_Node000015_Node000008"><a xlink:title=" ">
<path fill="none" stroke="#63b8ff" d="M1439.31,-264.75C1439.31,-254.31 1439.31,-242.49 1439.31,-233.54"/>
<polygon fill="#63b8ff" stroke="#63b8ff" points="1435.81,-264.94 1439.31,-274.94 1442.81,-264.94 1435.81,-264.94"/>
</a>
</g>
</g>
<!-- Node15&#45;&gt;Node11 -->
<g id="edge18_Node000015_Node000011" class="edge">
<title>Node15&#45;&gt;Node11</title>
<g id="a_edge18_Node000015_Node000011"><a xlink:title=" ">
<path fill="none" stroke="#63b8ff" d="M1405.33,-269.5C1371.04,-247.89 1319.53,-209.7 1293.31,-162 1281.68,-140.86 1277.12,-112.77 1275.37,-96.11"/>
<polygon fill="#63b8ff" stroke="#63b8ff" points="1403.73,-272.63 1414.08,-274.9 1407.4,-266.67 1403.73,-272.63"/>
</a>
</g>
</g>
<!-- Node20&#45;&gt;Node8 -->
<g id="edge24_Node000020_Node000008" class="edge">
<title>Node20&#45;&gt;Node8</title>
<g id="a_edge24_Node000020_Node000008"><a xlink:title=" ">
<path fill="none" stroke="#63b8ff" d="M1600.17,-334.75C1578.87,-318.37 1547.9,-294.85 1520.31,-275 1500.24,-260.57 1476.92,-244.68 1460.47,-233.61"/>
<polygon fill="#63b8ff" stroke="#63b8ff" points="1598.05,-337.54 1608.11,-340.87 1602.33,-331.99 1598.05,-337.54"/>
</a>
</g>
</g>
<!-- Node21&#45;&gt;Node11 -->
<g id="edge26_Node000021_Node000011" class="edge">
<title>Node21&#45;&gt;Node11</title>
<g id="a_edge26_Node000021_Node000011"><a xlink:title=" ">
<path fill="none" stroke="#63b8ff" d="M370.7,-204.68C570.12,-177.61 1030.32,-115.13 1205.18,-91.38"/>
<polygon fill="#63b8ff" stroke="#63b8ff" points="369.97,-201.25 360.53,-206.06 370.91,-208.19 369.97,-201.25"/>
</a>
</g>
</g>
</g>
</svg>
