<?xml version="1.0" encoding="UTF-8" standalone="no"?>
<!DOCTYPE svg PUBLIC "-//W3C//DTD SVG 1.1//EN"
 "http://www.w3.org/Graphics/SVG/1.1/DTD/svg11.dtd">
<!-- Generated by graphviz version 2.43.0 (0)
 -->
<!-- Title: include/Thoth/Http/NHeaders/Headers/_pch.hpp Pages: 1 -->
<svg width="1592pt" height="225pt"
 viewBox="0.00 0.00 1592.00 225.00" xmlns="http://www.w3.org/2000/svg" xmlns:xlink="http://www.w3.org/1999/xlink">
<g id="graph0" class="graph" transform="scale(1 1) rotate(0) translate(4 221)">
<title>include/Thoth/Http/NHeaders/Headers/_pch.hpp</title>
<!-- Node1 -->
<g id="Node000001" class="node">
<title>Node1</title>
<g id="a_Node000001"><a xlink:title=" ">
<polygon fill="#999999" stroke="#666666" points="905.5,-217 747.5,-217 747.5,-187 905.5,-187 905.5,-217"/>
<text text-anchor="start" x="755.5" y="-205" font-family="Helvetica,sans-Serif" font-size="10.00">include/Thoth/Http</text>
<text text-anchor="middle" x="826.5" y="-194" font-family="Helvetica,sans-Serif" font-size="10.00">/NHeaders/Headers/_pch.hpp</text>
</a>
</g>
</g>
<!-- Node2 -->
<g id="Node000002" class="node">
<title>Node2</title>
<g id="a_Node000002"><a xlink:href="_accept_encoding_enum_8hpp.html" target="_top" xlink:title=" ">
<polygon fill="white" stroke="#666666" points="211,-151 22,-151 22,-121 211,-121 211,-151"/>
<text text-anchor="start" x="30" y="-139" font-family="Helvetica,sans-Serif" font-size="10.00">Thoth/Http/NHeaders</text>
<text text-anchor="middle" x="116.5" y="-128" font-family="Helvetica,sans-Serif" font-size="10.00">/Headers/AcceptEncodingEnum.hpp</text>
</a>
</g>
</g>
<!-- Node1&#45;&gt;Node2 -->
<g id="edge1_Node000001_Node000002" class="edge">
<title>Node1&#45;&gt;Node2</title>
<g id="a_edge1_Node000001_Node000002"><a xlink:title=" ">
<path fill="none" stroke="#63b8ff" d="M747.38,-194.1C638.58,-184.58 436.67,-166.8 264.5,-151 250.51,-149.72 235.78,-148.34 221.25,-146.98"/>
<polygon fill="#63b8ff" stroke="#63b8ff" points="221.52,-143.49 211.24,-146.04 220.87,-150.46 221.52,-143.49"/>
</a>
</g>
</g>
<!-- Node4 -->
<g id="Node000004" class="node">
<title>Node4</title>
<g id="a_Node000004"><a xlink:href="_cache_control_8hpp.html" target="_top" xlink:title=" ">
<polygon fill="white" stroke="#666666" points="423,-151 274,-151 274,-121 423,-121 423,-151"/>
<text text-anchor="start" x="282" y="-139" font-family="Helvetica,sans-Serif" font-size="10.00">Thoth/Http/NHeaders</text>
<text text-anchor="middle" x="348.5" y="-128" font-family="Helvetica,sans-Serif" font-size="10.00">/Headers/CacheControl.hpp</text>
</a>
</g>
</g>
<!-- Node1&#45;&gt;Node4 -->
<g id="edge3_Node000001_Node000004" class="edge">
<title>Node1&#45;&gt;Node4</title>
<g id="a_edge3_Node000001_Node000004"><a xlink:title=" ">
<path fill="none" stroke="#63b8ff" d="M747.3,-190.4C660.57,-178.78 522.02,-160.23 433.17,-148.34"/>
<polygon fill="#63b8ff" stroke="#63b8ff" points="433.5,-144.85 423.13,-146.99 432.57,-151.79 433.5,-144.85"/>
</a>
</g>
</g>
<!-- Node8 -->
<g id="Node000008" class="node">
<title>Node8</title>
<g id="a_Node000008"><a xlink:href="_mime_type_8hpp.html" target="_top" xlink:title=" ">
<polygon fill="white" stroke="#666666" points="725.5,-151 591.5,-151 591.5,-121 725.5,-121 725.5,-151"/>
<text text-anchor="start" x="599.5" y="-139" font-family="Helvetica,sans-Serif" font-size="10.00">Thoth/Http/NHeaders</text>
<text text-anchor="middle" x="658.5" y="-128" font-family="Helvetica,sans-Serif" font-size="10.00">/Headers/MimeType.hpp</text>
</a>
</g>
</g>
<!-- Node1&#45;&gt;Node8 -->
<g id="edge7_Node000001_Node000008" class="edge">
<title>Node1&#45;&gt;Node8</title>
<g id="a_edge7_Node000001_Node000008"><a xlink:title=" ">
<path fill="none" stroke="#63b8ff" d="M789.63,-186.95C764.68,-177.45 731.54,-164.82 704.81,-154.64"/>
<polygon fill="#63b8ff" stroke="#63b8ff" points="705.87,-151.3 695.28,-151.01 703.38,-157.84 705.87,-151.3"/>
</a>
</g>
</g>
<!-- Node14 -->
<g id="Node000014" class="node">
<title>Node14</title>
<g id="a_Node000014"><a xlink:href="_content_encoding_enum_8hpp.html" target="_top" xlink:title=" ">
<polygon fill="white" stroke="#666666" points="1327.5,-151 1133.5,-151 1133.5,-121 1327.5,-121 1327.5,-151"/>
<text text-anchor="start" x="1141.5" y="-139" font-family="Helvetica,sans-Serif" font-size="10.00">Thoth/Http/NHeaders</text>
<text text-anchor="middle" x="1230.5" y="-128" font-family="Helvetica,sans-Serif" font-size="10.00">/Headers/ContentEncodingEnum.hpp</text>
</a>
</g>
</g>
<!-- Node1&#45;&gt;Node14 -->
<g id="edge14_Node000001_Node000014" class="edge">
<title>Node1&#45;&gt;Node14</title>
<g id="a_edge14_Node000001_Node000014"><a xlink:title=" ">
<path fill="none" stroke="#63b8ff" d="M905.84,-188.43C970.56,-178.18 1062.32,-163.64 1131.78,-152.64"/>
<polygon fill="#63b8ff" stroke="#63b8ff" points="1132.54,-156.06 1141.87,-151.04 1131.44,-149.15 1132.54,-156.06"/>
</a>
</g>
</g>
<!-- Node16 -->
<g id="Node000016" class="node">
<title>Node16</title>
<g id="a_Node000016"><a xlink:href="_upgrade_8hpp.html" target="_top" xlink:title=" ">
<polygon fill="white" stroke="#666666" points="889,-151 764,-151 764,-121 889,-121 889,-151"/>
<text text-anchor="start" x="772" y="-139" font-family="Helvetica,sans-Serif" font-size="10.00">Thoth/Http/NHeaders</text>
<text text-anchor="middle" x="826.5" y="-128" font-family="Helvetica,sans-Serif" font-size="10.00">/Headers/Upgrade.hpp</text>
</a>
</g>
</g>
<!-- Node1&#45;&gt;Node16 -->
<g id="edge16_Node000001_Node000016" class="edge">
<title>Node1&#45;&gt;Node16</title>
<g id="a_edge16_Node000001_Node000016"><a xlink:title=" ">
<path fill="none" stroke="#63b8ff" d="M826.5,-186.8C826.5,-179.34 826.5,-169.99 826.5,-161.41"/>
<polygon fill="#63b8ff" stroke="#63b8ff" points="830,-161.16 826.5,-151.16 823,-161.16 830,-161.16"/>
</a>
</g>
</g>
<!-- Node18 -->
<g id="Node000018" class="node">
<title>Node18</title>
<g id="a_Node000018"><a xlink:href="_entity_tag_8hpp.html" target="_top" xlink:title=" ">
<polygon fill="white" stroke="#666666" points="1071,-151 942,-151 942,-121 1071,-121 1071,-151"/>
<text text-anchor="start" x="950" y="-139" font-family="Helvetica,sans-Serif" font-size="10.00">Thoth/Http/NHeaders</text>
<text text-anchor="middle" x="1006.5" y="-128" font-family="Helvetica,sans-Serif" font-size="10.00">/Headers/EntityTag.hpp</text>
</a>
</g>
</g>
<!-- Node1&#45;&gt;Node18 -->
<g id="edge20_Node000001_Node000018" class="edge">
<title>Node1&#45;&gt;Node18</title>
<g id="a_edge20_Node000001_Node000018"><a xlink:title=" ">
<path fill="none" stroke="#63b8ff" d="M866,-186.95C892.97,-177.37 928.87,-164.6 957.63,-154.37"/>
<polygon fill="#63b8ff" stroke="#63b8ff" points="958.84,-157.66 967.09,-151.01 956.5,-151.06 958.84,-157.66"/>
</a>
</g>
</g>
<!-- Node20 -->
<g id="Node000020" class="node">
<title>Node20</title>
<g id="a_Node000020"><a xlink:href="_transfer_encoding_enum_8hpp.html" target="_top" xlink:title=" ">
<polygon fill="white" stroke="#666666" points="1562,-151 1367,-151 1367,-121 1562,-121 1562,-151"/>
<text text-anchor="start" x="1375" y="-139" font-family="Helvetica,sans-Serif" font-size="10.00">Thoth/Http/NHeaders</text>
<text text-anchor="middle" x="1464.5" y="-128" font-family="Helvetica,sans-Serif" font-size="10.00">/Headers/TransferEncodingEnum.hpp</text>
</a>
</g>
</g>
<!-- Node1&#45;&gt;Node20 -->
<g id="edge23_Node000001_Node000020" class="edge">
<title>Node1&#45;&gt;Node20</title>
<g id="a_edge23_Node000001_Node000020"><a xlink:title=" ">
<path fill="none" stroke="#63b8ff" d="M905.6,-193.52C1005.88,-183.98 1184.07,-166.81 1336.5,-151 1343.07,-150.32 1349.84,-149.61 1356.66,-148.88"/>
<polygon fill="#63b8ff" stroke="#63b8ff" points="1357.1,-152.36 1366.67,-147.81 1356.36,-145.4 1357.1,-152.36"/>
</a>
</g>
</g>
<!-- Node3 -->
<g id="Node000003" class="node">
<title>Node3</title>
<g id="a_Node000003"><a xlink:title=" ">
<polygon fill="#e0e0e0" stroke="#999999" points="187,-85 0,-85 0,-55 187,-55 187,-85"/>
<text text-anchor="start" x="8" y="-73" font-family="Helvetica,sans-Serif" font-size="10.00">Thoth/Http/NHeaders</text>
<text text-anchor="middle" x="93.5" y="-62" font-family="Helvetica,sans-Serif" font-size="10.00">/Headers/AcceptEncodingEnum.tpp</text>
</a>
</g>
</g>
<!-- Node2&#45;&gt;Node3 -->
<g id="edge2_Node000002_Node000003" class="edge">
<title>Node2&#45;&gt;Node3</title>
<g id="a_edge2_Node000002_Node000003"><a xlink:title=" ">
<path fill="none" stroke="#63b8ff" d="M111.4,-120.8C108.66,-113.17 105.21,-103.57 102.07,-94.84"/>
<polygon fill="#63b8ff" stroke="#63b8ff" points="105.27,-93.39 98.59,-85.16 98.68,-95.76 105.27,-93.39"/>
</a>
</g>
</g>
<!-- Node5 -->
<g id="Node000005" class="node">
<title>Node5</title>
<g id="a_Node000005"><a xlink:title=" ">
<polygon fill="#e0e0e0" stroke="#999999" points="256,-79.5 205,-79.5 205,-60.5 256,-60.5 256,-79.5"/>
<text text-anchor="middle" x="230.5" y="-67.5" font-family="Helvetica,sans-Serif" font-size="10.00">variant</text>
</a>
</g>
</g>
<!-- Node4&#45;&gt;Node5 -->
<g id="edge4_Node000004_Node000005" class="edge">
<title>Node4&#45;&gt;Node5</title>
<g id="a_edge4_Node000004_Node000005"><a xlink:title=" ">
<path fill="none" stroke="#63b8ff" d="M322.6,-120.95C302.55,-110.08 274.95,-95.11 255.2,-84.4"/>
<polygon fill="#63b8ff" stroke="#63b8ff" points="256.66,-81.21 246.2,-79.52 253.33,-87.36 256.66,-81.21"/>
</a>
</g>
</g>
<!-- Node6 -->
<g id="Node000006" class="node">
<title>Node6</title>
<g id="a_Node000006"><a xlink:title=" ">
<polygon fill="#e0e0e0" stroke="#999999" points="324.5,-79.5 274.5,-79.5 274.5,-60.5 324.5,-60.5 324.5,-79.5"/>
<text text-anchor="middle" x="299.5" y="-67.5" font-family="Helvetica,sans-Serif" font-size="10.00">chrono</text>
</a>
</g>
</g>
<!-- Node4&#45;&gt;Node6 -->
<g id="edge5_Node000004_Node000006" class="edge">
<title>Node4&#45;&gt;Node6</title>
<g id="a_edge5_Node000004_Node000006"><a xlink:title=" ">
<path fill="none" stroke="#63b8ff" d="M337.63,-120.8C330.21,-111.11 320.36,-98.24 312.52,-88.01"/>
<polygon fill="#63b8ff" stroke="#63b8ff" points="315.13,-85.66 306.27,-79.84 309.57,-89.91 315.13,-85.66"/>
</a>
</g>
</g>
<!-- Node7 -->
<g id="Node000007" class="node">
<title>Node7</title>
<g id="a_Node000007"><a xlink:title=" ">
<polygon fill="#e0e0e0" stroke="#999999" points="398.5,-79.5 342.5,-79.5 342.5,-60.5 398.5,-60.5 398.5,-79.5"/>
<text text-anchor="middle" x="370.5" y="-67.5" font-family="Helvetica,sans-Serif" font-size="10.00">numeric</text>
</a>
</g>
</g>
<!-- Node4&#45;&gt;Node7 -->
<g id="edge6_Node000004_Node000007" class="edge">
<title>Node4&#45;&gt;Node7</title>
<g id="a_edge6_Node000004_Node000007"><a xlink:title=" ">
<path fill="none" stroke="#63b8ff" d="M353.38,-120.8C356.54,-111.6 360.69,-99.53 364.11,-89.58"/>
<polygon fill="#63b8ff" stroke="#63b8ff" points="367.52,-90.44 367.46,-79.84 360.9,-88.16 367.52,-90.44"/>
</a>
</g>
</g>
<!-- Node9 -->
<g id="Node000009" class="node">
<title>Node9</title>
<g id="a_Node000009"><a xlink:title=" ">
<polygon fill="#e0e0e0" stroke="#999999" points="717.5,-19 673.5,-19 673.5,0 717.5,0 717.5,-19"/>
<text text-anchor="middle" x="695.5" y="-7" font-family="Helvetica,sans-Serif" font-size="10.00">string</text>
</a>
</g>
</g>
<!-- Node8&#45;&gt;Node9 -->
<g id="edge8_Node000008_Node000009" class="edge">
<title>Node8&#45;&gt;Node9</title>
<g id="a_edge8_Node000008_Node000009"><a xlink:title=" ">
<path fill="none" stroke="#63b8ff" d="M623.43,-120.85C608.27,-112.77 592.07,-101 583.5,-85 577.21,-73.24 576.01,-66.03 583.5,-55 601.24,-28.87 637,-18.08 663.37,-13.63"/>
<polygon fill="#63b8ff" stroke="#63b8ff" points="663.92,-17.08 673.3,-12.17 662.9,-10.16 663.92,-17.08"/>
</a>
</g>
</g>
<!-- Node10 -->
<g id="Node000010" class="node">
<title>Node10</title>
<g id="a_Node000010"><a xlink:title=" ">
<polygon fill="#e0e0e0" stroke="#999999" points="798.5,-79.5 742.5,-79.5 742.5,-60.5 798.5,-60.5 798.5,-79.5"/>
<text text-anchor="middle" x="770.5" y="-67.5" font-family="Helvetica,sans-Serif" font-size="10.00">optional</text>
</a>
</g>
</g>
<!-- Node8&#45;&gt;Node10 -->
<g id="edge9_Node000008_Node000010" class="edge">
<title>Node8&#45;&gt;Node10</title>
<g id="a_edge9_Node000008_Node000010"><a xlink:title=" ">
<path fill="none" stroke="#63b8ff" d="M683.08,-120.95C702.03,-110.13 728.08,-95.24 746.8,-84.54"/>
<polygon fill="#63b8ff" stroke="#63b8ff" points="748.65,-87.52 755.59,-79.52 745.18,-81.44 748.65,-87.52"/>
</a>
</g>
</g>
<!-- Node11 -->
<g id="Node000011" class="node">
<title>Node11</title>
<g id="a_Node000011"><a xlink:href="_http_2_n_headers_2__base_8hpp.html" target="_top" xlink:title=" ">
<polygon fill="white" stroke="#666666" points="536,-85 417,-85 417,-55 536,-55 536,-85"/>
<text text-anchor="start" x="425" y="-73" font-family="Helvetica,sans-Serif" font-size="10.00">Thoth/Http/NHeaders</text>
<text text-anchor="middle" x="476.5" y="-62" font-family="Helvetica,sans-Serif" font-size="10.00">/_base.hpp</text>
</a>
</g>
</g>
<!-- Node8&#45;&gt;Node11 -->
<g id="edge10_Node000008_Node000011" class="edge">
<title>Node8&#45;&gt;Node11</title>
<g id="a_edge10_Node000008_Node000011"><a xlink:title=" ">
<path fill="none" stroke="#63b8ff" d="M618.56,-120.95C591.3,-111.37 554.99,-98.6 525.91,-88.37"/>
<polygon fill="#63b8ff" stroke="#63b8ff" points="526.94,-85.03 516.35,-85.01 524.62,-91.63 526.94,-85.03"/>
</a>
</g>
</g>
<!-- Node13 -->
<g id="Node000013" class="node">
<title>Node13</title>
<g id="a_Node000013"><a xlink:title=" ">
<polygon fill="#e0e0e0" stroke="#999999" points="724.5,-85 592.5,-85 592.5,-55 724.5,-55 724.5,-85"/>
<text text-anchor="start" x="600.5" y="-73" font-family="Helvetica,sans-Serif" font-size="10.00">Thoth/Http/NHeaders</text>
<text text-anchor="middle" x="658.5" y="-62" font-family="Helvetica,sans-Serif" font-size="10.00">/Headers/MimeType.tpp</text>
</a>
</g>
</g>
<!-- Node8&#45;&gt;Node13 -->
<g id="edge13_Node000008_Node000013" class="edge">
<title>Node8&#45;&gt;Node13</title>
<g id="a_edge13_Node000008_Node000013"><a xlink:title=" ">
<path fill="none" stroke="#63b8ff" d="M658.5,-120.8C658.5,-113.34 658.5,-103.99 658.5,-95.41"/>
<polygon fill="#63b8ff" stroke="#63b8ff" points="662,-95.16 658.5,-85.16 655,-95.16 662,-95.16"/>
</a>
</g>
</g>
<!-- Node11&#45;&gt;Node9 -->
<g id="edge11_Node000011_Node000009" class="edge">
<title>Node11&#45;&gt;Node9</title>
<g id="a_edge11_Node000011_Node000009"><a xlink:title=" ">
<path fill="none" stroke="#63b8ff" d="M528.96,-54.99C570.88,-43.79 628.28,-28.46 663.57,-19.03"/>
<polygon fill="#63b8ff" stroke="#63b8ff" points="664.59,-22.38 673.34,-16.42 662.78,-15.62 664.59,-22.38"/>
</a>
</g>
</g>
<!-- Node12 -->
<g id="Node000012" class="node">
<title>Node12</title>
<g id="a_Node000012"><a xlink:title=" ">
<polygon fill="#e0e0e0" stroke="#999999" points="500,-19 453,-19 453,0 500,0 500,-19"/>
<text text-anchor="middle" x="476.5" y="-7" font-family="Helvetica,sans-Serif" font-size="10.00">vector</text>
</a>
</g>
</g>
<!-- Node11&#45;&gt;Node12 -->
<g id="edge12_Node000011_Node000012" class="edge">
<title>Node11&#45;&gt;Node12</title>
<g id="a_edge12_Node000011_Node000012"><a xlink:title=" ">
<path fill="none" stroke="#63b8ff" d="M476.5,-54.84C476.5,-47.21 476.5,-37.7 476.5,-29.45"/>
<polygon fill="#63b8ff" stroke="#63b8ff" points="480,-29.27 476.5,-19.27 473,-29.27 480,-29.27"/>
</a>
</g>
</g>
<!-- Node15 -->
<g id="Node000015" class="node">
<title>Node15</title>
<g id="a_Node000015"><a xlink:title=" ">
<polygon fill="#e0e0e0" stroke="#999999" points="1372.5,-85 1180.5,-85 1180.5,-55 1372.5,-55 1372.5,-85"/>
<text text-anchor="start" x="1188.5" y="-73" font-family="Helvetica,sans-Serif" font-size="10.00">Thoth/Http/NHeaders</text>
<text text-anchor="middle" x="1276.5" y="-62" font-family="Helvetica,sans-Serif" font-size="10.00">/Headers/ContentEncodingEnum.tpp</text>
</a>
</g>
</g>
<!-- Node14&#45;&gt;Node15 -->
<g id="edge15_Node000014_Node000015" class="edge">
<title>Node14&#45;&gt;Node15</title>
<g id="a_edge15_Node000014_Node000015"><a xlink:title=" ">
<path fill="none" stroke="#63b8ff" d="M1240.71,-120.8C1246.49,-112.76 1253.84,-102.53 1260.38,-93.43"/>
<polygon fill="#63b8ff" stroke="#63b8ff" points="1263.33,-95.33 1266.32,-85.16 1257.64,-91.24 1263.33,-95.33"/>
</a>
</g>
</g>
<!-- Node16&#45;&gt;Node9 -->
<g id="edge17_Node000016_Node000009" class="edge">
<title>Node16&#45;&gt;Node9</title>
<g id="a_edge17_Node000016_Node000009"><a xlink:title=" ">
<path fill="none" stroke="#63b8ff" d="M826.89,-120.81C826.62,-103.3 823.56,-73.57 807.5,-55 787.17,-31.49 752.73,-20.28 727.39,-15.01"/>
<polygon fill="#63b8ff" stroke="#63b8ff" points="727.98,-11.56 717.5,-13.16 726.68,-18.44 727.98,-11.56"/>
</a>
</g>
</g>
<!-- Node16&#45;&gt;Node10 -->
<g id="edge18_Node000016_Node000010" class="edge">
<title>Node16&#45;&gt;Node10</title>
<g id="a_edge18_Node000016_Node000010"><a xlink:title=" ">
<path fill="none" stroke="#63b8ff" d="M814.07,-120.8C805.43,-110.92 793.88,-97.72 784.84,-87.39"/>
<polygon fill="#63b8ff" stroke="#63b8ff" points="787.46,-85.07 778.24,-79.84 782.19,-89.67 787.46,-85.07"/>
</a>
</g>
</g>
<!-- Node17 -->
<g id="Node000017" class="node">
<title>Node17</title>
<g id="a_Node000017"><a xlink:title=" ">
<polygon fill="#e0e0e0" stroke="#999999" points="978,-85 855,-85 855,-55 978,-55 978,-85"/>
<text text-anchor="start" x="863" y="-73" font-family="Helvetica,sans-Serif" font-size="10.00">Thoth/Http/NHeaders</text>
<text text-anchor="middle" x="916.5" y="-62" font-family="Helvetica,sans-Serif" font-size="10.00">/Headers/Upgrade.tpp</text>
</a>
</g>
</g>
<!-- Node16&#45;&gt;Node17 -->
<g id="edge19_Node000016_Node000017" class="edge">
<title>Node16&#45;&gt;Node17</title>
<g id="a_edge19_Node000016_Node000017"><a xlink:title=" ">
<path fill="none" stroke="#63b8ff" d="M846.47,-120.8C858.71,-112.1 874.56,-100.82 888.09,-91.2"/>
<polygon fill="#63b8ff" stroke="#63b8ff" points="890.46,-93.81 896.58,-85.16 886.4,-88.11 890.46,-93.81"/>
</a>
</g>
</g>
<!-- Node18&#45;&gt;Node9 -->
<g id="edge21_Node000018_Node000009" class="edge">
<title>Node18&#45;&gt;Node9</title>
<g id="a_edge21_Node000018_Node000009"><a xlink:title=" ">
<path fill="none" stroke="#63b8ff" d="M1007.33,-120.8C1007.54,-102.7 1004.92,-71.77 986.5,-55 949.11,-20.94 795.61,-12.95 727.87,-11.07"/>
<polygon fill="#63b8ff" stroke="#63b8ff" points="727.85,-7.57 717.77,-10.82 727.68,-14.57 727.85,-7.57"/>
</a>
</g>
</g>
<!-- Node19 -->
<g id="Node000019" class="node">
<title>Node19</title>
<g id="a_Node000019"><a xlink:title=" ">
<polygon fill="#e0e0e0" stroke="#999999" points="1162,-85 1035,-85 1035,-55 1162,-55 1162,-85"/>
<text text-anchor="start" x="1043" y="-73" font-family="Helvetica,sans-Serif" font-size="10.00">Thoth/Http/NHeaders</text>
<text text-anchor="middle" x="1098.5" y="-62" font-family="Helvetica,sans-Serif" font-size="10.00">/Headers/EntityTag.tpp</text>
</a>
</g>
</g>
<!-- Node18&#45;&gt;Node19 -->
<g id="edge22_Node000018_Node000019" class="edge">
<title>Node18&#45;&gt;Node19</title>
<g id="a_edge22_Node000018_Node000019"><a xlink:title=" ">
<path fill="none" stroke="#63b8ff" d="M1026.92,-120.8C1039.54,-112.01 1055.94,-100.61 1069.85,-90.93"/>
<polygon fill="#63b8ff" stroke="#63b8ff" points="1071.93,-93.75 1078.14,-85.16 1067.93,-88 1071.93,-93.75"/>
</a>
</g>
</g>
<!-- Node21 -->
<g id="Node000021" class="node">
<title>Node21</title>
<g id="a_Node000021"><a xlink:title=" ">
<polygon fill="#e0e0e0" stroke="#999999" points="1584,-85 1391,-85 1391,-55 1584,-55 1584,-85"/>
<text text-anchor="start" x="1399" y="-73" font-family="Helvetica,sans-Serif" font-size="10.00">Thoth/Http/NHeaders</text>
<text text-anchor="middle" x="1487.5" y="-62" font-family="Helvetica,sans-Serif" font-size="10.00">/Headers/TransferEncodingEnum.tpp</text>
</a>
</g>
</g>
<!-- Node20&#45;&gt;Node21 -->
<g id="edge24_Node000020_Node000021" class="edge">
<title>Node20&#45;&gt;Node21</title>
<g id="a_edge24_Node000020_Node000021"><a xlink:title=" ">
<path fill="none" stroke="#63b8ff" d="M1469.6,-120.8C1472.34,-113.17 1475.79,-103.57 1478.93,-94.84"/>
<polygon fill="#63b8ff" stroke="#63b8ff" points="1482.32,-95.76 1482.41,-85.16 1475.73,-93.39 1482.32,-95.76"/>
</a>
</g>
</g>
</g>
</svg>
