<?xml version="1.0" encoding="UTF-8" standalone="no"?>
<!DOCTYPE svg PUBLIC "-//W3C//DTD SVG 1.1//EN"
 "http://www.w3.org/Graphics/SVG/1.1/DTD/svg11.dtd">
<!-- Generated by graphviz version 2.43.0 (0)
 -->
<!-- Title: include/Thoth/Http/Headers.hpp Pages: 1 -->
<svg width="1516pt" height="368pt"
 viewBox="0.00 0.00 1515.84 368.00" xmlns="http://www.w3.org/2000/svg" xmlns:xlink="http://www.w3.org/1999/xlink">
<g id="graph0" class="graph" transform="scale(1 1) rotate(0) translate(4 364)">
<title>include/Thoth/Http/Headers.hpp</title>
<!-- Node1 -->
<g id="Node000001" class="node">
<title>Node1</title>
<g id="a_Node000001"><a xlink:title=" ">
<polygon fill="#999999" stroke="#666666" points="347.34,-360 240.34,-360 240.34,-330 347.34,-330 347.34,-360"/>
<text text-anchor="start" x="248.34" y="-348" font-family="Helvetica,sans-Serif" font-size="10.00">include/Thoth/Http</text>
<text text-anchor="middle" x="293.84" y="-337" font-family="Helvetica,sans-Serif" font-size="10.00">/Headers.hpp</text>
</a>
</g>
</g>
<!-- Node2 -->
<g id="Node000002" class="node">
<title>Node2</title>
<g id="a_Node000002"><a xlink:href="_method_concept_8hpp.html" target="_top" xlink:title=" ">
<polygon fill="white" stroke="#666666" points="776.84,-294 582.84,-294 582.84,-264 776.84,-264 776.84,-294"/>
<text text-anchor="start" x="590.84" y="-282" font-family="Helvetica,sans-Serif" font-size="10.00">include/Thoth/Http</text>
<text text-anchor="middle" x="679.84" y="-271" font-family="Helvetica,sans-Serif" font-size="10.00">/Methods/_base/MethodConcept.hpp</text>
</a>
</g>
</g>
<!-- Node1&#45;&gt;Node2 -->
<g id="edge1_Node000001_Node000002" class="edge">
<title>Node1&#45;&gt;Node2</title>
<g id="a_edge1_Node000001_Node000002"><a xlink:title=" ">
<path fill="none" stroke="#63b8ff" d="M357.61,-333.43C422.51,-322.67 523.49,-305.92 595.09,-294.05"/>
<polygon fill="#63b8ff" stroke="#63b8ff" points="356.8,-330.01 347.51,-335.1 357.95,-336.92 356.8,-330.01"/>
</a>
</g>
</g>
<!-- Node8 -->
<g id="Node000008" class="node">
<title>Node8</title>
<g id="a_Node000008"><a xlink:href="_response_8hpp.html" target="_top" xlink:title=" ">
<polygon fill="white" stroke="#666666" points="158.84,-96 20.84,-96 20.84,-66 158.84,-66 158.84,-96"/>
<text text-anchor="start" x="28.84" y="-84" font-family="Helvetica,sans-Serif" font-size="10.00">include/Thoth/Http</text>
<text text-anchor="middle" x="89.84" y="-73" font-family="Helvetica,sans-Serif" font-size="10.00">/Response/Response.hpp</text>
</a>
</g>
</g>
<!-- Node1&#45;&gt;Node8 -->
<g id="edge18_Node000001_Node000008" class="edge">
<title>Node1&#45;&gt;Node8</title>
<g id="a_edge18_Node000001_Node000008"><a xlink:title=" ">
<path fill="none" stroke="#63b8ff" d="M230.09,-338.18C162.24,-328.19 58.04,-301.15 8.84,-228 -22.22,-181.82 38.87,-122.79 71.36,-96.15"/>
<polygon fill="#63b8ff" stroke="#63b8ff" points="229.85,-341.68 240.24,-339.58 230.81,-334.74 229.85,-341.68"/>
</a>
</g>
</g>
<!-- Node3 -->
<g id="Node000003" class="node">
<title>Node3</title>
<g id="a_Node000003"><a xlink:href="_connect_method_8hpp.html" target="_top" xlink:title=" ">
<polygon fill="white" stroke="#666666" points="1175.84,-228 1013.84,-228 1013.84,-198 1175.84,-198 1175.84,-228"/>
<text text-anchor="start" x="1021.84" y="-216" font-family="Helvetica,sans-Serif" font-size="10.00">include/Thoth/Http</text>
<text text-anchor="middle" x="1094.84" y="-205" font-family="Helvetica,sans-Serif" font-size="10.00">/Methods/ConnectMethod.hpp</text>
</a>
</g>
</g>
<!-- Node2&#45;&gt;Node3 -->
<g id="edge2_Node000002_Node000003" class="edge">
<title>Node2&#45;&gt;Node3</title>
<g id="a_edge2_Node000002_Node000003"><a xlink:title=" ">
<path fill="none" stroke="#63b8ff" d="M781.36,-262.43C845.46,-252.58 930,-239.58 1004.84,-228 1007.65,-227.56 1010.51,-227.12 1013.4,-226.67"/>
<polygon fill="#63b8ff" stroke="#63b8ff" points="780.6,-259 771.25,-263.98 781.67,-265.92 780.6,-259"/>
</a>
</g>
</g>
<!-- Node4 -->
<g id="Node000004" class="node">
<title>Node4</title>
<g id="a_Node000004"><a xlink:href="_delete_method_8hpp.html" target="_top" xlink:title=" ">
<polygon fill="white" stroke="#666666" points="1349.34,-228 1194.34,-228 1194.34,-198 1349.34,-198 1349.34,-228"/>
<text text-anchor="start" x="1202.34" y="-216" font-family="Helvetica,sans-Serif" font-size="10.00">include/Thoth/Http</text>
<text text-anchor="middle" x="1271.84" y="-205" font-family="Helvetica,sans-Serif" font-size="10.00">/Methods/DeleteMethod.hpp</text>
</a>
</g>
</g>
<!-- Node2&#45;&gt;Node4 -->
<g id="edge3_Node000002_Node000004" class="edge">
<title>Node2&#45;&gt;Node4</title>
<g id="a_edge3_Node000002_Node000004"><a xlink:title=" ">
<path fill="none" stroke="#63b8ff" d="M786.89,-269.3C889.26,-260.54 1047.86,-245.79 1184.84,-228 1187.87,-227.61 1190.96,-227.19 1194.08,-226.75"/>
<polygon fill="#63b8ff" stroke="#63b8ff" points="786.52,-265.82 776.85,-270.16 787.11,-272.8 786.52,-265.82"/>
</a>
</g>
</g>
<!-- Node5 -->
<g id="Node000005" class="node">
<title>Node5</title>
<g id="a_Node000005"><a xlink:href="_get_method_8hpp.html" target="_top" xlink:title=" ">
<polygon fill="white" stroke="#666666" points="1507.84,-228 1367.84,-228 1367.84,-198 1507.84,-198 1507.84,-228"/>
<text text-anchor="start" x="1375.84" y="-216" font-family="Helvetica,sans-Serif" font-size="10.00">include/Thoth/Http</text>
<text text-anchor="middle" x="1437.84" y="-205" font-family="Helvetica,sans-Serif" font-size="10.00">/Methods/GetMethod.hpp</text>
</a>
</g>
</g>
<!-- Node2&#45;&gt;Node5 -->
<g id="edge4_Node000002_Node000005" class="edge">
<title>Node2&#45;&gt;Node5</title>
<g id="a_edge4_Node000002_Node000005"><a xlink:title=" ">
<path fill="none" stroke="#63b8ff" d="M787.12,-273.48C921.23,-267.06 1157.65,-253.17 1358.84,-228 1361.74,-227.64 1364.7,-227.24 1367.68,-226.81"/>
<polygon fill="#63b8ff" stroke="#63b8ff" points="786.67,-270 776.84,-273.97 787,-276.99 786.67,-270"/>
</a>
</g>
</g>
<!-- Node9 -->
<g id="Node000009" class="node">
<title>Node9</title>
<g id="a_Node000009"><a xlink:href="_head_method_8hpp.html" target="_top" xlink:title=" ">
<polygon fill="white" stroke="#666666" points="327.84,-228 179.84,-228 179.84,-198 327.84,-198 327.84,-228"/>
<text text-anchor="start" x="187.84" y="-216" font-family="Helvetica,sans-Serif" font-size="10.00">include/Thoth/Http</text>
<text text-anchor="middle" x="253.84" y="-205" font-family="Helvetica,sans-Serif" font-size="10.00">/Methods/HeadMethod.hpp</text>
</a>
</g>
</g>
<!-- Node2&#45;&gt;Node9 -->
<g id="edge10_Node000002_Node000009" class="edge">
<title>Node2&#45;&gt;Node9</title>
<g id="a_edge10_Node000002_Node000009"><a xlink:title=" ">
<path fill="none" stroke="#63b8ff" d="M572.3,-262.95C504.66,-253.33 415.58,-240.38 336.84,-228 333.95,-227.55 331.01,-227.08 328.04,-226.6"/>
<polygon fill="#63b8ff" stroke="#63b8ff" points="572.15,-266.47 582.54,-264.41 573.13,-259.54 572.15,-266.47"/>
</a>
</g>
</g>
<!-- Node10 -->
<g id="Node000010" class="node">
<title>Node10</title>
<g id="a_Node000010"><a xlink:href="_options_method_8hpp.html" target="_top" xlink:title=" ">
<polygon fill="white" stroke="#666666" points="505.84,-228 345.84,-228 345.84,-198 505.84,-198 505.84,-228"/>
<text text-anchor="start" x="353.84" y="-216" font-family="Helvetica,sans-Serif" font-size="10.00">include/Thoth/Http</text>
<text text-anchor="middle" x="425.84" y="-205" font-family="Helvetica,sans-Serif" font-size="10.00">/Methods/OptionsMethod.hpp</text>
</a>
</g>
</g>
<!-- Node2&#45;&gt;Node10 -->
<g id="edge11_Node000002_Node000010" class="edge">
<title>Node2&#45;&gt;Node10</title>
<g id="a_edge11_Node000002_Node000010"><a xlink:title=" ">
<path fill="none" stroke="#63b8ff" d="M614.16,-261.45C573,-251.08 520.54,-237.86 481.45,-228.01"/>
<polygon fill="#63b8ff" stroke="#63b8ff" points="613.54,-264.91 624.1,-263.95 615.25,-258.12 613.54,-264.91"/>
</a>
</g>
</g>
<!-- Node11 -->
<g id="Node000011" class="node">
<title>Node11</title>
<g id="a_Node000011"><a xlink:href="_patch_method_8hpp.html" target="_top" xlink:title=" ">
<polygon fill="white" stroke="#666666" points="673.34,-228 524.34,-228 524.34,-198 673.34,-198 673.34,-228"/>
<text text-anchor="start" x="532.34" y="-216" font-family="Helvetica,sans-Serif" font-size="10.00">include/Thoth/Http</text>
<text text-anchor="middle" x="598.84" y="-205" font-family="Helvetica,sans-Serif" font-size="10.00">/Methods/PatchMethod.hpp</text>
</a>
</g>
</g>
<!-- Node2&#45;&gt;Node11 -->
<g id="edge12_Node000002_Node000011" class="edge">
<title>Node2&#45;&gt;Node11</title>
<g id="a_edge12_Node000002_Node000011"><a xlink:title=" ">
<path fill="none" stroke="#63b8ff" d="M653.86,-257.48C641.76,-247.91 627.66,-236.77 616.76,-228.16"/>
<polygon fill="#63b8ff" stroke="#63b8ff" points="651.85,-260.34 661.86,-263.8 656.18,-254.85 651.85,-260.34"/>
</a>
</g>
</g>
<!-- Node12 -->
<g id="Node000012" class="node">
<title>Node12</title>
<g id="a_Node000012"><a xlink:href="_post_method_8hpp.html" target="_top" xlink:title=" ">
<polygon fill="white" stroke="#666666" points="161.34,-228 18.34,-228 18.34,-198 161.34,-198 161.34,-228"/>
<text text-anchor="start" x="26.34" y="-216" font-family="Helvetica,sans-Serif" font-size="10.00">include/Thoth/Http</text>
<text text-anchor="middle" x="89.84" y="-205" font-family="Helvetica,sans-Serif" font-size="10.00">/Methods/PostMethod.hpp</text>
</a>
</g>
</g>
<!-- Node2&#45;&gt;Node12 -->
<g id="edge13_Node000002_Node000012" class="edge">
<title>Node2&#45;&gt;Node12</title>
<g id="a_edge13_Node000002_Node000012"><a xlink:title=" ">
<path fill="none" stroke="#63b8ff" d="M572.37,-269.74C469.17,-261.27 309,-246.7 170.84,-228 167.73,-227.58 164.55,-227.13 161.35,-226.65"/>
<polygon fill="#63b8ff" stroke="#63b8ff" points="572.24,-273.24 582.49,-270.57 572.81,-266.27 572.24,-273.24"/>
</a>
</g>
</g>
<!-- Node13 -->
<g id="Node000013" class="node">
<title>Node13</title>
<g id="a_Node000013"><a xlink:href="_put_method_8hpp.html" target="_top" xlink:title=" ">
<polygon fill="white" stroke="#666666" points="829.84,-228 691.84,-228 691.84,-198 829.84,-198 829.84,-228"/>
<text text-anchor="start" x="699.84" y="-216" font-family="Helvetica,sans-Serif" font-size="10.00">include/Thoth/Http</text>
<text text-anchor="middle" x="760.84" y="-205" font-family="Helvetica,sans-Serif" font-size="10.00">/Methods/PutMethod.hpp</text>
</a>
</g>
</g>
<!-- Node2&#45;&gt;Node13 -->
<g id="edge16_Node000002_Node000013" class="edge">
<title>Node2&#45;&gt;Node13</title>
<g id="a_edge16_Node000002_Node000013"><a xlink:title=" ">
<path fill="none" stroke="#63b8ff" d="M705.81,-257.48C717.92,-247.91 732.02,-236.77 742.91,-228.16"/>
<polygon fill="#63b8ff" stroke="#63b8ff" points="703.49,-254.85 697.81,-263.8 707.83,-260.34 703.49,-254.85"/>
</a>
</g>
</g>
<!-- Node14 -->
<g id="Node000014" class="node">
<title>Node14</title>
<g id="a_Node000014"><a xlink:href="_trace_method_8hpp.html" target="_top" xlink:title=" ">
<polygon fill="white" stroke="#666666" points="995.84,-228 847.84,-228 847.84,-198 995.84,-198 995.84,-228"/>
<text text-anchor="start" x="855.84" y="-216" font-family="Helvetica,sans-Serif" font-size="10.00">include/Thoth/Http</text>
<text text-anchor="middle" x="921.84" y="-205" font-family="Helvetica,sans-Serif" font-size="10.00">/Methods/TraceMethod.hpp</text>
</a>
</g>
</g>
<!-- Node2&#45;&gt;Node14 -->
<g id="edge17_Node000002_Node000014" class="edge">
<title>Node2&#45;&gt;Node14</title>
<g id="a_edge17_Node000002_Node000014"><a xlink:title=" ">
<path fill="none" stroke="#63b8ff" d="M742.66,-261.39C781.84,-251.03 831.69,-237.84 868.85,-228.01"/>
<polygon fill="#63b8ff" stroke="#63b8ff" points="741.72,-258.01 732.95,-263.95 743.51,-264.78 741.72,-258.01"/>
</a>
</g>
</g>
<!-- Node6 -->
<g id="Node000006" class="node">
<title>Node6</title>
<g id="a_Node000006"><a xlink:href="_request_8hpp.html" target="_top" xlink:title=" ">
<polygon fill="white" stroke="#666666" points="245.34,-162 122.34,-162 122.34,-132 245.34,-132 245.34,-162"/>
<text text-anchor="start" x="130.34" y="-150" font-family="Helvetica,sans-Serif" font-size="10.00">include/Thoth/Http</text>
<text text-anchor="middle" x="183.84" y="-139" font-family="Helvetica,sans-Serif" font-size="10.00">/Request/Request.hpp</text>
</a>
</g>
</g>
<!-- Node5&#45;&gt;Node6 -->
<g id="edge5_Node000005_Node000006" class="edge">
<title>Node5&#45;&gt;Node6</title>
<g id="a_edge5_Node000005_Node000006"><a xlink:title=" ">
<path fill="none" stroke="#63b8ff" d="M1357.75,-198.01C1120.6,-173.51 452.45,-154.88 245.61,-149.54"/>
<polygon fill="#63b8ff" stroke="#63b8ff" points="1357.38,-201.49 1367.7,-199.07 1358.12,-194.53 1357.38,-201.49"/>
</a>
</g>
</g>
<!-- Node5&#45;&gt;Node8 -->
<g id="edge9_Node000005_Node000008" class="edge">
<title>Node5&#45;&gt;Node8</title>
<g id="a_edge9_Node000005_Node000008"><a xlink:title=" ">
<path fill="none" stroke="#63b8ff" d="M1357.45,-197.88C894.68,-136.29 348.67,-98.4 158.85,-86.26"/>
<polygon fill="#63b8ff" stroke="#63b8ff" points="1357.3,-201.39 1367.67,-199.25 1358.23,-194.46 1357.3,-201.39"/>
</a>
</g>
</g>
<!-- Node7 -->
<g id="Node000007" class="node">
<title>Node7</title>
<g id="a_Node000007"><a xlink:href="_client_8hpp.html" target="_top" xlink:title=" ">
<polygon fill="white" stroke="#666666" points="191.34,-30 84.34,-30 84.34,0 191.34,0 191.34,-30"/>
<text text-anchor="start" x="92.34" y="-18" font-family="Helvetica,sans-Serif" font-size="10.00">include/Thoth/Http</text>
<text text-anchor="middle" x="137.84" y="-7" font-family="Helvetica,sans-Serif" font-size="10.00">/Client.hpp</text>
</a>
</g>
</g>
<!-- Node6&#45;&gt;Node7 -->
<g id="edge6_Node000006_Node000007" class="edge">
<title>Node6&#45;&gt;Node7</title>
<g id="a_edge6_Node000006_Node000007"><a xlink:title=" ">
<path fill="none" stroke="#63b8ff" d="M181.15,-121.48C178.85,-105.32 174.77,-83.93 167.84,-66 162.87,-53.16 154.72,-39.85 148.16,-30.19"/>
<polygon fill="#63b8ff" stroke="#63b8ff" points="177.72,-122.25 182.47,-131.72 184.66,-121.35 177.72,-122.25"/>
</a>
</g>
</g>
<!-- Node6&#45;&gt;Node8 -->
<g id="edge7_Node000006_Node000008" class="edge">
<title>Node6&#45;&gt;Node8</title>
<g id="a_edge7_Node000006_Node000008"><a xlink:title=" ">
<path fill="none" stroke="#63b8ff" d="M154.5,-126.03C140.28,-116.34 123.53,-104.94 110.64,-96.16"/>
<polygon fill="#63b8ff" stroke="#63b8ff" points="152.74,-129.06 162.98,-131.8 156.68,-123.28 152.74,-129.06"/>
</a>
</g>
</g>
<!-- Node8&#45;&gt;Node7 -->
<g id="edge8_Node000008_Node000007" class="edge">
<title>Node8&#45;&gt;Node7</title>
<g id="a_edge8_Node000008_Node000007"><a xlink:title=" ">
<path fill="none" stroke="#63b8ff" d="M106.69,-57.53C113.52,-48.43 121.19,-38.19 127.21,-30.16"/>
<polygon fill="#63b8ff" stroke="#63b8ff" points="103.69,-55.7 100.49,-65.8 109.29,-59.9 103.69,-55.7"/>
</a>
</g>
</g>
<!-- Node12&#45;&gt;Node6 -->
<g id="edge14_Node000012_Node000006" class="edge">
<title>Node12&#45;&gt;Node6</title>
<g id="a_edge14_Node000012_Node000006"><a xlink:title=" ">
<path fill="none" stroke="#63b8ff" d="M119.17,-192.03C133.4,-182.34 150.15,-170.94 163.03,-162.16"/>
<polygon fill="#63b8ff" stroke="#63b8ff" points="117,-189.28 110.7,-197.8 120.94,-195.06 117,-189.28"/>
</a>
</g>
</g>
<!-- Node12&#45;&gt;Node8 -->
<g id="edge15_Node000012_Node000008" class="edge">
<title>Node12&#45;&gt;Node8</title>
<g id="a_edge15_Node000012_Node000008"><a xlink:title=" ">
<path fill="none" stroke="#63b8ff" d="M89.84,-187.68C89.84,-160.7 89.84,-118.11 89.84,-96.14"/>
<polygon fill="#63b8ff" stroke="#63b8ff" points="86.34,-187.84 89.84,-197.84 93.34,-187.84 86.34,-187.84"/>
</a>
</g>
</g>
</g>
</svg>
