<?xml version="1.0" encoding="UTF-8" standalone="no"?>
<!DOCTYPE svg PUBLIC "-//W3C//DTD SVG 1.1//EN"
 "http://www.w3.org/Graphics/SVG/1.1/DTD/svg11.dtd">
<!-- Generated by graphviz version 2.43.0 (0)
 -->
<!-- Title: include/Thoth/Http/NHeaders/Proxy/_base.hpp Pages: 1 -->
<svg width="750pt" height="148pt"
 viewBox="0.00 0.00 749.50 148.00" xmlns="http://www.w3.org/2000/svg" xmlns:xlink="http://www.w3.org/1999/xlink">
<g id="graph0" class="graph" transform="scale(1 1) rotate(0) translate(4 144)">
<title>include/Thoth/Http/NHeaders/Proxy/_base.hpp</title>
<!-- Node1 -->
<g id="Node000001" class="node">
<title>Node1</title>
<g id="a_Node000001"><a xlink:title=" ">
<polygon fill="#999999" stroke="#666666" points="447,-140 296,-140 296,-110 447,-110 447,-140"/>
<text text-anchor="start" x="304" y="-128" font-family="Helvetica,sans-Serif" font-size="10.00">include/Thoth/Http</text>
<text text-anchor="middle" x="371.5" y="-117" font-family="Helvetica,sans-Serif" font-size="10.00">/NHeaders/Proxy/_base.hpp</text>
</a>
</g>
</g>
<!-- Node2 -->
<g id="Node000002" class="node">
<title>Node2</title>
<g id="a_Node000002"><a xlink:title=" ">
<polygon fill="#e0e0e0" stroke="#999999" points="73,-19 0,-19 0,0 73,0 73,-19"/>
<text text-anchor="middle" x="36.5" y="-7" font-family="Helvetica,sans-Serif" font-size="10.00">string_view</text>
</a>
</g>
</g>
<!-- Node1&#45;&gt;Node2 -->
<g id="edge1_Node000001_Node000002" class="edge">
<title>Node1&#45;&gt;Node2</title>
<g id="a_edge1_Node000001_Node000002"><a xlink:title=" ">
<path fill="none" stroke="#63b8ff" d="M295.94,-120.07C241.74,-114.8 168.23,-102.53 109.5,-74 86.01,-62.59 64.12,-41.61 50.56,-26.9"/>
<polygon fill="#63b8ff" stroke="#63b8ff" points="52.85,-24.22 43.59,-19.08 47.63,-28.88 52.85,-24.22"/>
</a>
</g>
</g>
<!-- Node3 -->
<g id="Node000003" class="node">
<title>Node3</title>
<g id="a_Node000003"><a xlink:title=" ">
<polygon fill="#e0e0e0" stroke="#999999" points="327.5,-74 271.5,-74 271.5,-55 327.5,-55 327.5,-74"/>
<text text-anchor="middle" x="299.5" y="-62" font-family="Helvetica,sans-Serif" font-size="10.00">optional</text>
</a>
</g>
</g>
<!-- Node1&#45;&gt;Node3 -->
<g id="edge2_Node000001_Node000003" class="edge">
<title>Node1&#45;&gt;Node3</title>
<g id="a_edge2_Node000001_Node000003"><a xlink:title=" ">
<path fill="none" stroke="#63b8ff" d="M354.07,-109.84C343.19,-101 329.2,-89.63 318.11,-80.62"/>
<polygon fill="#63b8ff" stroke="#63b8ff" points="320.26,-77.86 310.29,-74.27 315.84,-83.29 320.26,-77.86"/>
</a>
</g>
</g>
<!-- Node4 -->
<g id="Node000004" class="node">
<title>Node4</title>
<g id="a_Node000004"><a xlink:title=" ">
<polygon fill="#e0e0e0" stroke="#999999" points="397,-74 346,-74 346,-55 397,-55 397,-74"/>
<text text-anchor="middle" x="371.5" y="-62" font-family="Helvetica,sans-Serif" font-size="10.00">variant</text>
</a>
</g>
</g>
<!-- Node1&#45;&gt;Node4 -->
<g id="edge3_Node000001_Node000004" class="edge">
<title>Node1&#45;&gt;Node4</title>
<g id="a_edge3_Node000001_Node000004"><a xlink:title=" ">
<path fill="none" stroke="#63b8ff" d="M371.5,-109.84C371.5,-102.21 371.5,-92.7 371.5,-84.45"/>
<polygon fill="#63b8ff" stroke="#63b8ff" points="375,-84.27 371.5,-74.27 368,-84.27 375,-84.27"/>
</a>
</g>
</g>
<!-- Node5 -->
<g id="Node000005" class="node">
<title>Node5</title>
<g id="a_Node000005"><a xlink:title=" ">
<polygon fill="#e0e0e0" stroke="#999999" points="471.5,-74 415.5,-74 415.5,-55 471.5,-55 471.5,-74"/>
<text text-anchor="middle" x="443.5" y="-62" font-family="Helvetica,sans-Serif" font-size="10.00">iomanip</text>
</a>
</g>
</g>
<!-- Node1&#45;&gt;Node5 -->
<g id="edge4_Node000001_Node000005" class="edge">
<title>Node1&#45;&gt;Node5</title>
<g id="a_edge4_Node000001_Node000005"><a xlink:title=" ">
<path fill="none" stroke="#63b8ff" d="M388.93,-109.84C399.81,-101 413.8,-89.63 424.89,-80.62"/>
<polygon fill="#63b8ff" stroke="#63b8ff" points="427.16,-83.29 432.71,-74.27 422.74,-77.86 427.16,-83.29"/>
</a>
</g>
</g>
<!-- Node6 -->
<g id="Node000006" class="node">
<title>Node6</title>
<g id="a_Node000006"><a xlink:title=" ">
<polygon fill="#e0e0e0" stroke="#999999" points="637.5,-19 587.5,-19 587.5,0 637.5,0 637.5,-19"/>
<text text-anchor="middle" x="612.5" y="-7" font-family="Helvetica,sans-Serif" font-size="10.00">format</text>
</a>
</g>
</g>
<!-- Node1&#45;&gt;Node6 -->
<g id="edge5_Node000001_Node000006" class="edge">
<title>Node1&#45;&gt;Node6</title>
<g id="a_edge5_Node000001_Node000006"><a xlink:title=" ">
<path fill="none" stroke="#63b8ff" d="M447.13,-120.69C519.04,-115.78 619.78,-103.66 644.5,-74 656.53,-59.57 642.96,-39.87 629.97,-26.25"/>
<polygon fill="#63b8ff" stroke="#63b8ff" points="632.18,-23.52 622.58,-19.02 627.28,-28.52 632.18,-23.52"/>
</a>
</g>
</g>
<!-- Node7 -->
<g id="Node000007" class="node">
<title>Node7</title>
<g id="a_Node000007"><a xlink:title=" ">
<polygon fill="#e0e0e0" stroke="#999999" points="741.5,-74 691.5,-74 691.5,-55 741.5,-55 741.5,-74"/>
<text text-anchor="middle" x="716.5" y="-62" font-family="Helvetica,sans-Serif" font-size="10.00">chrono</text>
</a>
</g>
</g>
<!-- Node1&#45;&gt;Node7 -->
<g id="edge6_Node000001_Node000007" class="edge">
<title>Node1&#45;&gt;Node7</title>
<g id="a_edge6_Node000001_Node000007"><a xlink:title=" ">
<path fill="none" stroke="#63b8ff" d="M447.15,-112.77C509.19,-103.29 599.24,-88.91 677.5,-74 678.76,-73.76 680.05,-73.51 681.35,-73.25"/>
<polygon fill="#63b8ff" stroke="#63b8ff" points="682.28,-76.63 691.36,-71.18 680.86,-69.78 682.28,-76.63"/>
</a>
</g>
</g>
<!-- Node8 -->
<g id="Node000008" class="node">
<title>Node8</title>
<g id="a_Node000008"><a xlink:title=" ">
<polygon fill="#e0e0e0" stroke="#999999" points="135.5,-19 91.5,-19 91.5,0 135.5,0 135.5,-19"/>
<text text-anchor="middle" x="113.5" y="-7" font-family="Helvetica,sans-Serif" font-size="10.00">string</text>
</a>
</g>
</g>
<!-- Node1&#45;&gt;Node8 -->
<g id="edge7_Node000001_Node000008" class="edge">
<title>Node1&#45;&gt;Node8</title>
<g id="a_edge7_Node000001_Node000008"><a xlink:title=" ">
<path fill="none" stroke="#63b8ff" d="M295.83,-118.3C231.46,-111.81 145.85,-98.73 122.5,-74 111.4,-62.25 110,-43.4 110.86,-29.29"/>
<polygon fill="#63b8ff" stroke="#63b8ff" points="114.36,-29.51 111.9,-19.21 107.39,-28.8 114.36,-29.51"/>
</a>
</g>
</g>
<!-- Node9 -->
<g id="Node000009" class="node">
<title>Node9</title>
<g id="a_Node000009"><a xlink:href="_string_2_utils_8hpp.html" target="_top" xlink:title=" ">
<polygon fill="white" stroke="#666666" points="253.5,-74 131.5,-74 131.5,-55 253.5,-55 253.5,-74"/>
<text text-anchor="middle" x="192.5" y="-62" font-family="Helvetica,sans-Serif" font-size="10.00">Thoth/String/Utils.hpp</text>
</a>
</g>
</g>
<!-- Node1&#45;&gt;Node9 -->
<g id="edge8_Node000001_Node000009" class="edge">
<title>Node1&#45;&gt;Node9</title>
<g id="a_edge8_Node000001_Node000009"><a xlink:title=" ">
<path fill="none" stroke="#63b8ff" d="M328.63,-109.99C298,-99.98 257.27,-86.67 228.37,-77.22"/>
<polygon fill="#63b8ff" stroke="#63b8ff" points="229.27,-73.83 218.67,-74.05 227.09,-80.49 229.27,-73.83"/>
</a>
</g>
</g>
<!-- Node12 -->
<g id="Node000012" class="node">
<title>Node12</title>
<g id="a_Node000012"><a xlink:href="_monostate_8hpp.html" target="_top" xlink:title=" ">
<polygon fill="white" stroke="#666666" points="635.5,-74 489.5,-74 489.5,-55 635.5,-55 635.5,-74"/>
<text text-anchor="middle" x="562.5" y="-62" font-family="Helvetica,sans-Serif" font-size="10.00">Thoth/Utils/Monostate.hpp</text>
</a>
</g>
</g>
<!-- Node1&#45;&gt;Node12 -->
<g id="edge13_Node000001_Node000012" class="edge">
<title>Node1&#45;&gt;Node12</title>
<g id="a_edge13_Node000001_Node000012"><a xlink:title=" ">
<path fill="none" stroke="#63b8ff" d="M417.25,-109.99C450.07,-99.94 493.77,-86.55 524.63,-77.1"/>
<polygon fill="#63b8ff" stroke="#63b8ff" points="526.04,-80.33 534.57,-74.05 523.99,-73.64 526.04,-80.33"/>
</a>
</g>
</g>
<!-- Node9&#45;&gt;Node2 -->
<g id="edge10_Node000009_Node000002" class="edge">
<title>Node9&#45;&gt;Node2</title>
<g id="a_edge10_Node000009_Node000002"><a xlink:title=" ">
<path fill="none" stroke="#63b8ff" d="M167.44,-54.98C141.47,-46.16 100.69,-32.31 71.54,-22.41"/>
<polygon fill="#63b8ff" stroke="#63b8ff" points="72.35,-18.99 61.76,-19.08 70.1,-25.61 72.35,-18.99"/>
</a>
</g>
</g>
<!-- Node9&#45;&gt;Node8 -->
<g id="edge11_Node000009_Node000008" class="edge">
<title>Node9&#45;&gt;Node8</title>
<g id="a_edge11_Node000009_Node000008"><a xlink:title=" ">
<path fill="none" stroke="#63b8ff" d="M179.81,-54.98C167.67,-46.84 149.14,-34.41 134.75,-24.76"/>
<polygon fill="#63b8ff" stroke="#63b8ff" points="136.68,-21.84 126.42,-19.17 132.78,-27.65 136.68,-21.84"/>
</a>
</g>
</g>
<!-- Node10 -->
<g id="Node000010" class="node">
<title>Node10</title>
<g id="a_Node000010"><a xlink:title=" ">
<polygon fill="#e0e0e0" stroke="#999999" points="335.5,-19 291.5,-19 291.5,0 335.5,0 335.5,-19"/>
<text text-anchor="middle" x="313.5" y="-7" font-family="Helvetica,sans-Serif" font-size="10.00">bitset</text>
</a>
</g>
</g>
<!-- Node9&#45;&gt;Node10 -->
<g id="edge9_Node000009_Node000010" class="edge">
<title>Node9&#45;&gt;Node10</title>
<g id="a_edge9_Node000009_Node000010"><a xlink:title=" ">
<path fill="none" stroke="#63b8ff" d="M211.94,-54.98C231.49,-46.42 261.88,-33.11 284.32,-23.28"/>
<polygon fill="#63b8ff" stroke="#63b8ff" points="285.95,-26.39 293.71,-19.17 283.14,-19.98 285.95,-26.39"/>
</a>
</g>
</g>
<!-- Node11 -->
<g id="Node000011" class="node">
<title>Node11</title>
<g id="a_Node000011"><a xlink:title=" ">
<polygon fill="#e0e0e0" stroke="#999999" points="273.5,-19 153.5,-19 153.5,0 273.5,0 273.5,-19"/>
<text text-anchor="middle" x="213.5" y="-7" font-family="Helvetica,sans-Serif" font-size="10.00">Thoth/String/Utils.tpp</text>
</a>
</g>
</g>
<!-- Node9&#45;&gt;Node11 -->
<g id="edge12_Node000009_Node000011" class="edge">
<title>Node9&#45;&gt;Node11</title>
<g id="a_edge12_Node000009_Node000011"><a xlink:title=" ">
<path fill="none" stroke="#63b8ff" d="M195.97,-54.75C198.78,-47.65 202.84,-37.4 206.35,-28.56"/>
<polygon fill="#63b8ff" stroke="#63b8ff" points="209.67,-29.68 210.1,-19.09 203.16,-27.1 209.67,-29.68"/>
</a>
</g>
</g>
<!-- Node12&#45;&gt;Node6 -->
<g id="edge14_Node000012_Node000006" class="edge">
<title>Node12&#45;&gt;Node6</title>
<g id="a_edge14_Node000012_Node000006"><a xlink:title=" ">
<path fill="none" stroke="#63b8ff" d="M570.76,-54.75C577.96,-47.11 588.61,-35.82 597.35,-26.56"/>
<polygon fill="#63b8ff" stroke="#63b8ff" points="600.08,-28.76 604.4,-19.09 594.99,-23.96 600.08,-28.76"/>
</a>
</g>
</g>
</g>
</svg>
