<?xml version="1.0" encoding="UTF-8" standalone="no"?>
<!DOCTYPE svg PUBLIC "-//W3C//DTD SVG 1.1//EN"
 "http://www.w3.org/Graphics/SVG/1.1/DTD/svg11.dtd">
<!-- Generated by graphviz version 2.43.0 (0)
 -->
<!-- Title: include/Thoth/Http/NHeaders/Proxy/_base.hpp Pages: 1 -->
<svg width="1498pt" height="434pt"
 viewBox="0.00 0.00 1498.00 434.00" xmlns="http://www.w3.org/2000/svg" xmlns:xlink="http://www.w3.org/1999/xlink">
<g id="graph0" class="graph" transform="scale(1 1) rotate(0) translate(4 430)">
<title>include/Thoth/Http/NHeaders/Proxy/_base.hpp</title>
<!-- Node1 -->
<g id="Node000001" class="node">
<title>Node1</title>
<g id="a_Node000001"><a xlink:title=" ">
<polygon fill="#999999" stroke="#666666" points="823.5,-426 672.5,-426 672.5,-396 823.5,-396 823.5,-426"/>
<text text-anchor="start" x="680.5" y="-414" font-family="Helvetica,sans-Serif" font-size="10.00">include/Thoth/Http</text>
<text text-anchor="middle" x="748" y="-403" font-family="Helvetica,sans-Serif" font-size="10.00">/NHeaders/Proxy/_base.hpp</text>
</a>
</g>
</g>
<!-- Node2 -->
<g id="Node000002" class="node">
<title>Node2</title>
<g id="a_Node000002"><a xlink:href="_headers_8hpp.html" target="_top" xlink:title=" ">
<polygon fill="white" stroke="#666666" points="814,-360 682,-360 682,-330 814,-330 814,-360"/>
<text text-anchor="start" x="690" y="-348" font-family="Helvetica,sans-Serif" font-size="10.00">include/Thoth/Http</text>
<text text-anchor="middle" x="748" y="-337" font-family="Helvetica,sans-Serif" font-size="10.00">/NHeaders/Headers.hpp</text>
</a>
</g>
</g>
<!-- Node1&#45;&gt;Node2 -->
<g id="edge1_Node000001_Node000002" class="edge">
<title>Node1&#45;&gt;Node2</title>
<g id="a_edge1_Node000001_Node000002"><a xlink:title=" ">
<path fill="none" stroke="#63b8ff" d="M748,-385.54C748,-376.96 748,-367.61 748,-360.16"/>
<polygon fill="#63b8ff" stroke="#63b8ff" points="744.5,-385.8 748,-395.8 751.5,-385.8 744.5,-385.8"/>
</a>
</g>
</g>
<!-- Node16 -->
<g id="Node000016" class="node">
<title>Node16</title>
<g id="a_Node000016"><a xlink:href="_list_proxy_8hpp.html" target="_top" xlink:title=" ">
<polygon fill="white" stroke="#666666" points="633,-294 467,-294 467,-264 633,-264 633,-294"/>
<text text-anchor="start" x="475" y="-282" font-family="Helvetica,sans-Serif" font-size="10.00">include/Thoth/Http</text>
<text text-anchor="middle" x="550" y="-271" font-family="Helvetica,sans-Serif" font-size="10.00">/NHeaders/Proxy/ListProxy.hpp</text>
</a>
</g>
</g>
<!-- Node1&#45;&gt;Node16 -->
<g id="edge21_Node000001_Node000016" class="edge">
<title>Node1&#45;&gt;Node16</title>
<g id="a_edge21_Node000001_Node000016"><a xlink:title=" ">
<path fill="none" stroke="#63b8ff" d="M717.82,-390.19C677.48,-363.7 606.93,-317.38 571.54,-294.14"/>
<polygon fill="#63b8ff" stroke="#63b8ff" points="716.15,-393.28 726.43,-395.84 720,-387.43 716.15,-393.28"/>
</a>
</g>
</g>
<!-- Node17 -->
<g id="Node000017" class="node">
<title>Node17</title>
<g id="a_Node000017"><a xlink:href="_value_proxy_8hpp.html" target="_top" xlink:title=" ">
<polygon fill="white" stroke="#666666" points="1039,-294 863,-294 863,-264 1039,-264 1039,-294"/>
<text text-anchor="start" x="871" y="-282" font-family="Helvetica,sans-Serif" font-size="10.00">include/Thoth/Http</text>
<text text-anchor="middle" x="951" y="-271" font-family="Helvetica,sans-Serif" font-size="10.00">/NHeaders/Proxy/ValueProxy.hpp</text>
</a>
</g>
</g>
<!-- Node1&#45;&gt;Node17 -->
<g id="edge22_Node000001_Node000017" class="edge">
<title>Node1&#45;&gt;Node17</title>
<g id="a_edge22_Node000001_Node000017"><a xlink:title=" ">
<path fill="none" stroke="#63b8ff" d="M778.68,-390.35C820,-363.89 892.55,-317.43 928.92,-294.14"/>
<polygon fill="#63b8ff" stroke="#63b8ff" points="776.64,-387.5 770.11,-395.84 780.42,-393.39 776.64,-387.5"/>
</a>
</g>
</g>
<!-- Node3 -->
<g id="Node000003" class="node">
<title>Node3</title>
<g id="a_Node000003"><a xlink:href="_method_concept_8hpp.html" target="_top" xlink:title=" ">
<polygon fill="white" stroke="#666666" points="845,-294 651,-294 651,-264 845,-264 845,-294"/>
<text text-anchor="start" x="659" y="-282" font-family="Helvetica,sans-Serif" font-size="10.00">include/Thoth/Http</text>
<text text-anchor="middle" x="748" y="-271" font-family="Helvetica,sans-Serif" font-size="10.00">/Methods/_base/MethodConcept.hpp</text>
</a>
</g>
</g>
<!-- Node2&#45;&gt;Node3 -->
<g id="edge2_Node000002_Node000003" class="edge">
<title>Node2&#45;&gt;Node3</title>
<g id="a_edge2_Node000002_Node000003"><a xlink:title=" ">
<path fill="none" stroke="#63b8ff" d="M748,-319.54C748,-310.96 748,-301.61 748,-294.16"/>
<polygon fill="#63b8ff" stroke="#63b8ff" points="744.5,-319.8 748,-329.8 751.5,-319.8 744.5,-319.8"/>
</a>
</g>
</g>
<!-- Node2&#45;&gt;Node16 -->
<g id="edge19_Node000002_Node000016" class="edge">
<title>Node2&#45;&gt;Node16</title>
<g id="a_edge19_Node000002_Node000016"><a xlink:title=" ">
<path fill="none" stroke="#63b8ff" d="M694.96,-326.86C663.17,-316.58 623.25,-303.68 593.35,-294.01"/>
<polygon fill="#63b8ff" stroke="#63b8ff" points="693.96,-330.21 704.55,-329.95 696.11,-323.55 693.96,-330.21"/>
</a>
</g>
</g>
<!-- Node2&#45;&gt;Node17 -->
<g id="edge20_Node000002_Node000017" class="edge">
<title>Node2&#45;&gt;Node17</title>
<g id="a_edge20_Node000002_Node000017"><a xlink:title=" ">
<path fill="none" stroke="#63b8ff" d="M802.38,-326.86C834.97,-316.58 875.9,-303.68 906.55,-294.01"/>
<polygon fill="#63b8ff" stroke="#63b8ff" points="801.03,-323.61 792.55,-329.95 803.14,-330.29 801.03,-323.61"/>
</a>
</g>
</g>
<!-- Node4 -->
<g id="Node000004" class="node">
<title>Node4</title>
<g id="a_Node000004"><a xlink:href="_connect_method_8hpp.html" target="_top" xlink:title=" ">
<polygon fill="white" stroke="#666666" points="162,-228 0,-228 0,-198 162,-198 162,-228"/>
<text text-anchor="start" x="8" y="-216" font-family="Helvetica,sans-Serif" font-size="10.00">include/Thoth/Http</text>
<text text-anchor="middle" x="81" y="-205" font-family="Helvetica,sans-Serif" font-size="10.00">/Methods/ConnectMethod.hpp</text>
</a>
</g>
</g>
<!-- Node3&#45;&gt;Node4 -->
<g id="edge3_Node000003_Node000004" class="edge">
<title>Node3&#45;&gt;Node4</title>
<g id="a_edge3_Node000003_Node000004"><a xlink:title=" ">
<path fill="none" stroke="#63b8ff" d="M640.89,-263.93C431.47,-242.55 376.29,-251.78 171,-228 168.17,-227.67 165.3,-227.32 162.4,-226.95"/>
<polygon fill="#63b8ff" stroke="#63b8ff" points="640.67,-267.42 650.98,-264.97 641.39,-260.46 640.67,-267.42"/>
</a>
</g>
</g>
<!-- Node5 -->
<g id="Node000005" class="node">
<title>Node5</title>
<g id="a_Node000005"><a xlink:href="_delete_method_8hpp.html" target="_top" xlink:title=" ">
<polygon fill="white" stroke="#666666" points="335.5,-228 180.5,-228 180.5,-198 335.5,-198 335.5,-228"/>
<text text-anchor="start" x="188.5" y="-216" font-family="Helvetica,sans-Serif" font-size="10.00">include/Thoth/Http</text>
<text text-anchor="middle" x="258" y="-205" font-family="Helvetica,sans-Serif" font-size="10.00">/Methods/DeleteMethod.hpp</text>
</a>
</g>
</g>
<!-- Node3&#45;&gt;Node5 -->
<g id="edge4_Node000003_Node000005" class="edge">
<title>Node3&#45;&gt;Node5</title>
<g id="a_edge4_Node000003_Node000005"><a xlink:title=" ">
<path fill="none" stroke="#63b8ff" d="M640.83,-263.86C508.4,-247.25 473.45,-246.11 345,-228 341.97,-227.57 338.88,-227.13 335.77,-226.67"/>
<polygon fill="#63b8ff" stroke="#63b8ff" points="640.6,-267.36 650.96,-265.14 641.48,-260.42 640.6,-267.36"/>
</a>
</g>
</g>
<!-- Node6 -->
<g id="Node000006" class="node">
<title>Node6</title>
<g id="a_Node000006"><a xlink:href="_get_method_8hpp.html" target="_top" xlink:title=" ">
<polygon fill="white" stroke="#666666" points="494,-228 354,-228 354,-198 494,-198 494,-228"/>
<text text-anchor="start" x="362" y="-216" font-family="Helvetica,sans-Serif" font-size="10.00">include/Thoth/Http</text>
<text text-anchor="middle" x="424" y="-205" font-family="Helvetica,sans-Serif" font-size="10.00">/Methods/GetMethod.hpp</text>
</a>
</g>
</g>
<!-- Node3&#45;&gt;Node6 -->
<g id="edge5_Node000003_Node000006" class="edge">
<title>Node3&#45;&gt;Node6</title>
<g id="a_edge5_Node000003_Node000006"><a xlink:title=" ">
<path fill="none" stroke="#63b8ff" d="M666.82,-261.96C613.66,-251.46 544.88,-237.88 494.1,-227.85"/>
<polygon fill="#63b8ff" stroke="#63b8ff" points="666.41,-265.45 676.9,-263.95 667.76,-258.58 666.41,-265.45"/>
</a>
</g>
</g>
<!-- Node10 -->
<g id="Node000010" class="node">
<title>Node10</title>
<g id="a_Node000010"><a xlink:href="_head_method_8hpp.html" target="_top" xlink:title=" ">
<polygon fill="white" stroke="#666666" points="822,-228 674,-228 674,-198 822,-198 822,-228"/>
<text text-anchor="start" x="682" y="-216" font-family="Helvetica,sans-Serif" font-size="10.00">include/Thoth/Http</text>
<text text-anchor="middle" x="748" y="-205" font-family="Helvetica,sans-Serif" font-size="10.00">/Methods/HeadMethod.hpp</text>
</a>
</g>
</g>
<!-- Node3&#45;&gt;Node10 -->
<g id="edge11_Node000003_Node000010" class="edge">
<title>Node3&#45;&gt;Node10</title>
<g id="a_edge11_Node000003_Node000010"><a xlink:title=" ">
<path fill="none" stroke="#63b8ff" d="M748,-253.54C748,-244.96 748,-235.61 748,-228.16"/>
<polygon fill="#63b8ff" stroke="#63b8ff" points="744.5,-253.8 748,-263.8 751.5,-253.8 744.5,-253.8"/>
</a>
</g>
</g>
<!-- Node11 -->
<g id="Node000011" class="node">
<title>Node11</title>
<g id="a_Node000011"><a xlink:href="_options_method_8hpp.html" target="_top" xlink:title=" ">
<polygon fill="white" stroke="#666666" points="1000,-228 840,-228 840,-198 1000,-198 1000,-228"/>
<text text-anchor="start" x="848" y="-216" font-family="Helvetica,sans-Serif" font-size="10.00">include/Thoth/Http</text>
<text text-anchor="middle" x="920" y="-205" font-family="Helvetica,sans-Serif" font-size="10.00">/Methods/OptionsMethod.hpp</text>
</a>
</g>
</g>
<!-- Node3&#45;&gt;Node11 -->
<g id="edge12_Node000003_Node000011" class="edge">
<title>Node3&#45;&gt;Node11</title>
<g id="a_edge12_Node000003_Node000011"><a xlink:title=" ">
<path fill="none" stroke="#63b8ff" d="M795.15,-260.46C822.59,-250.25 856.71,-237.55 882.34,-228.01"/>
<polygon fill="#63b8ff" stroke="#63b8ff" points="793.9,-257.19 785.75,-263.95 796.34,-263.75 793.9,-257.19"/>
</a>
</g>
</g>
<!-- Node12 -->
<g id="Node000012" class="node">
<title>Node12</title>
<g id="a_Node000012"><a xlink:href="_patch_method_8hpp.html" target="_top" xlink:title=" ">
<polygon fill="white" stroke="#666666" points="1167.5,-228 1018.5,-228 1018.5,-198 1167.5,-198 1167.5,-228"/>
<text text-anchor="start" x="1026.5" y="-216" font-family="Helvetica,sans-Serif" font-size="10.00">include/Thoth/Http</text>
<text text-anchor="middle" x="1093" y="-205" font-family="Helvetica,sans-Serif" font-size="10.00">/Methods/PatchMethod.hpp</text>
</a>
</g>
</g>
<!-- Node3&#45;&gt;Node12 -->
<g id="edge13_Node000003_Node000012" class="edge">
<title>Node3&#45;&gt;Node12</title>
<g id="a_edge13_Node000003_Node000012"><a xlink:title=" ">
<path fill="none" stroke="#63b8ff" d="M833.74,-262.1C890.44,-251.58 964.06,-237.92 1018.36,-227.85"/>
<polygon fill="#63b8ff" stroke="#63b8ff" points="832.91,-258.69 823.71,-263.95 834.18,-265.57 832.91,-258.69"/>
</a>
</g>
</g>
<!-- Node13 -->
<g id="Node000013" class="node">
<title>Node13</title>
<g id="a_Node000013"><a xlink:href="_post_method_8hpp.html" target="_top" xlink:title=" ">
<polygon fill="white" stroke="#666666" points="655.5,-228 512.5,-228 512.5,-198 655.5,-198 655.5,-228"/>
<text text-anchor="start" x="520.5" y="-216" font-family="Helvetica,sans-Serif" font-size="10.00">include/Thoth/Http</text>
<text text-anchor="middle" x="584" y="-205" font-family="Helvetica,sans-Serif" font-size="10.00">/Methods/PostMethod.hpp</text>
</a>
</g>
</g>
<!-- Node3&#45;&gt;Node13 -->
<g id="edge14_Node000003_Node000013" class="edge">
<title>Node3&#45;&gt;Node13</title>
<g id="a_edge14_Node000003_Node000013"><a xlink:title=" ">
<path fill="none" stroke="#63b8ff" d="M702.36,-260.19C676.31,-250.02 644.13,-237.47 619.91,-228.01"/>
<polygon fill="#63b8ff" stroke="#63b8ff" points="701.42,-263.58 712.01,-263.95 703.97,-257.06 701.42,-263.58"/>
</a>
</g>
</g>
<!-- Node14 -->
<g id="Node000014" class="node">
<title>Node14</title>
<g id="a_Node000014"><a xlink:href="_put_method_8hpp.html" target="_top" xlink:title=" ">
<polygon fill="white" stroke="#666666" points="1324,-228 1186,-228 1186,-198 1324,-198 1324,-228"/>
<text text-anchor="start" x="1194" y="-216" font-family="Helvetica,sans-Serif" font-size="10.00">include/Thoth/Http</text>
<text text-anchor="middle" x="1255" y="-205" font-family="Helvetica,sans-Serif" font-size="10.00">/Methods/PutMethod.hpp</text>
</a>
</g>
</g>
<!-- Node3&#45;&gt;Node14 -->
<g id="edge17_Node000003_Node000014" class="edge">
<title>Node3&#45;&gt;Node14</title>
<g id="a_edge17_Node000003_Node000014"><a xlink:title=" ">
<path fill="none" stroke="#63b8ff" d="M855.13,-263.88C999.09,-246.63 1037.27,-248.3 1177,-228 1179.86,-227.58 1182.77,-227.14 1185.72,-226.68"/>
<polygon fill="#63b8ff" stroke="#63b8ff" points="854.54,-260.43 845.04,-265.1 855.38,-267.38 854.54,-260.43"/>
</a>
</g>
</g>
<!-- Node15 -->
<g id="Node000015" class="node">
<title>Node15</title>
<g id="a_Node000015"><a xlink:href="_trace_method_8hpp.html" target="_top" xlink:title=" ">
<polygon fill="white" stroke="#666666" points="1490,-228 1342,-228 1342,-198 1490,-198 1490,-228"/>
<text text-anchor="start" x="1350" y="-216" font-family="Helvetica,sans-Serif" font-size="10.00">include/Thoth/Http</text>
<text text-anchor="middle" x="1416" y="-205" font-family="Helvetica,sans-Serif" font-size="10.00">/Methods/TraceMethod.hpp</text>
</a>
</g>
</g>
<!-- Node3&#45;&gt;Node15 -->
<g id="edge18_Node000003_Node000015" class="edge">
<title>Node3&#45;&gt;Node15</title>
<g id="a_edge18_Node000003_Node000015"><a xlink:title=" ">
<path fill="none" stroke="#63b8ff" d="M855.27,-263.91C1068.1,-242.37 1124.38,-253.38 1333,-228 1335.9,-227.65 1338.86,-227.26 1341.84,-226.86"/>
<polygon fill="#63b8ff" stroke="#63b8ff" points="854.61,-260.46 845.02,-264.96 855.32,-267.43 854.61,-260.46"/>
</a>
</g>
</g>
<!-- Node7 -->
<g id="Node000007" class="node">
<title>Node7</title>
<g id="a_Node000007"><a xlink:href="_request_8hpp.html" target="_top" xlink:title=" ">
<polygon fill="white" stroke="#666666" points="565.5,-162 442.5,-162 442.5,-132 565.5,-132 565.5,-162"/>
<text text-anchor="start" x="450.5" y="-150" font-family="Helvetica,sans-Serif" font-size="10.00">include/Thoth/Http</text>
<text text-anchor="middle" x="504" y="-139" font-family="Helvetica,sans-Serif" font-size="10.00">/Request/Request.hpp</text>
</a>
</g>
</g>
<!-- Node6&#45;&gt;Node7 -->
<g id="edge6_Node000006_Node000007" class="edge">
<title>Node6&#45;&gt;Node7</title>
<g id="a_edge6_Node000006_Node000007"><a xlink:title=" ">
<path fill="none" stroke="#63b8ff" d="M449.65,-191.48C461.61,-181.91 475.53,-170.77 486.3,-162.16"/>
<polygon fill="#63b8ff" stroke="#63b8ff" points="447.38,-188.82 441.75,-197.8 451.75,-194.28 447.38,-188.82"/>
</a>
</g>
</g>
<!-- Node9 -->
<g id="Node000009" class="node">
<title>Node9</title>
<g id="a_Node000009"><a xlink:href="_response_8hpp.html" target="_top" xlink:title=" ">
<polygon fill="white" stroke="#666666" points="528,-96 390,-96 390,-66 528,-66 528,-96"/>
<text text-anchor="start" x="398" y="-84" font-family="Helvetica,sans-Serif" font-size="10.00">include/Thoth/Http</text>
<text text-anchor="middle" x="459" y="-73" font-family="Helvetica,sans-Serif" font-size="10.00">/Response/Response.hpp</text>
</a>
</g>
</g>
<!-- Node6&#45;&gt;Node9 -->
<g id="edge10_Node000006_Node000009" class="edge">
<title>Node6&#45;&gt;Node9</title>
<g id="a_edge10_Node000006_Node000009"><a xlink:title=" ">
<path fill="none" stroke="#63b8ff" d="M424.43,-187.62C425.28,-171.53 427.47,-150.14 433,-132 436.88,-119.27 443.97,-105.96 449.77,-96.27"/>
<polygon fill="#63b8ff" stroke="#63b8ff" points="420.93,-187.68 424.04,-197.81 427.92,-187.95 420.93,-187.68"/>
</a>
</g>
</g>
<!-- Node8 -->
<g id="Node000008" class="node">
<title>Node8</title>
<g id="a_Node000008"><a xlink:href="_client_8hpp.html" target="_top" xlink:title=" ">
<polygon fill="white" stroke="#666666" points="560.5,-30 453.5,-30 453.5,0 560.5,0 560.5,-30"/>
<text text-anchor="start" x="461.5" y="-18" font-family="Helvetica,sans-Serif" font-size="10.00">include/Thoth/Http</text>
<text text-anchor="middle" x="507" y="-7" font-family="Helvetica,sans-Serif" font-size="10.00">/Client.hpp</text>
</a>
</g>
</g>
<!-- Node7&#45;&gt;Node8 -->
<g id="edge7_Node000007_Node000008" class="edge">
<title>Node7&#45;&gt;Node8</title>
<g id="a_edge7_Node000007_Node000008"><a xlink:title=" ">
<path fill="none" stroke="#63b8ff" d="M522.77,-123.63C528.5,-115.46 534.06,-105.8 537,-96 540.83,-83.23 540.56,-78.85 537,-66 533.38,-52.93 525.33,-39.84 518.48,-30.34"/>
<polygon fill="#63b8ff" stroke="#63b8ff" points="519.81,-121.75 516.61,-131.85 525.41,-125.95 519.81,-121.75"/>
</a>
</g>
</g>
<!-- Node7&#45;&gt;Node9 -->
<g id="edge8_Node000007_Node000009" class="edge">
<title>Node7&#45;&gt;Node9</title>
<g id="a_edge8_Node000007_Node000009"><a xlink:title=" ">
<path fill="none" stroke="#63b8ff" d="M488.2,-123.53C481.8,-114.43 474.61,-104.19 468.96,-96.16"/>
<polygon fill="#63b8ff" stroke="#63b8ff" points="485.4,-125.63 494.01,-131.8 491.12,-121.6 485.4,-125.63"/>
</a>
</g>
</g>
<!-- Node9&#45;&gt;Node8 -->
<g id="edge9_Node000009_Node000008" class="edge">
<title>Node9&#45;&gt;Node8</title>
<g id="a_edge9_Node000009_Node000008"><a xlink:title=" ">
<path fill="none" stroke="#63b8ff" d="M475.86,-57.53C482.68,-48.43 490.35,-38.19 496.38,-30.16"/>
<polygon fill="#63b8ff" stroke="#63b8ff" points="472.85,-55.7 469.65,-65.8 478.45,-59.9 472.85,-55.7"/>
</a>
</g>
</g>
<!-- Node13&#45;&gt;Node7 -->
<g id="edge15_Node000013_Node000007" class="edge">
<title>Node13&#45;&gt;Node7</title>
<g id="a_edge15_Node000013_Node000007"><a xlink:title=" ">
<path fill="none" stroke="#63b8ff" d="M558.35,-191.48C546.39,-181.91 532.47,-170.77 521.7,-162.16"/>
<polygon fill="#63b8ff" stroke="#63b8ff" points="556.25,-194.28 566.25,-197.8 560.62,-188.82 556.25,-194.28"/>
</a>
</g>
</g>
<!-- Node13&#45;&gt;Node9 -->
<g id="edge16_Node000013_Node000009" class="edge">
<title>Node13&#45;&gt;Node9</title>
<g id="a_edge16_Node000013_Node000009"><a xlink:title=" ">
<path fill="none" stroke="#63b8ff" d="M586.93,-187.37C587.64,-170.23 585.76,-147.72 574,-132 561.22,-114.92 541.37,-103.59 521.74,-96.11"/>
<polygon fill="#63b8ff" stroke="#63b8ff" points="583.41,-187.51 586.17,-197.74 590.39,-188.02 583.41,-187.51"/>
</a>
</g>
</g>
</g>
</svg>
