<?xml version="1.0" encoding="UTF-8" standalone="no"?>
<!DOCTYPE svg PUBLIC "-//W3C//DTD SVG 1.1//EN"
 "http://www.w3.org/Graphics/SVG/1.1/DTD/svg11.dtd">
<!-- Generated by graphviz version 2.43.0 (0)
 -->
<!-- Title: include/Thoth/Http/NHeaders/_base.hpp Pages: 1 -->
<svg width="2139pt" height="643pt"
 viewBox="0.00 0.00 2139.00 643.00" xmlns="http://www.w3.org/2000/svg" xmlns:xlink="http://www.w3.org/1999/xlink">
<g id="graph0" class="graph" transform="scale(1 1) rotate(0) translate(4 639)">
<title>include/Thoth/Http/NHeaders/_base.hpp</title>
<!-- Node1 -->
<g id="Node000001" class="node">
<title>Node1</title>
<g id="a_Node000001"><a xlink:title=" ">
<polygon fill="#999999" stroke="#666666" points="599,-635 479,-635 479,-605 599,-605 599,-635"/>
<text text-anchor="start" x="487" y="-623" font-family="Helvetica,sans-Serif" font-size="10.00">include/Thoth/Http</text>
<text text-anchor="middle" x="539" y="-612" font-family="Helvetica,sans-Serif" font-size="10.00">/NHeaders/_base.hpp</text>
</a>
</g>
</g>
<!-- Node2 -->
<g id="Node000002" class="node">
<title>Node2</title>
<g id="a_Node000002"><a xlink:href="_headers_8hpp.html" target="_top" xlink:title=" ">
<polygon fill="white" stroke="#666666" points="624,-437 492,-437 492,-407 624,-407 624,-437"/>
<text text-anchor="start" x="500" y="-425" font-family="Helvetica,sans-Serif" font-size="10.00">include/Thoth/Http</text>
<text text-anchor="middle" x="558" y="-414" font-family="Helvetica,sans-Serif" font-size="10.00">/NHeaders/Headers.hpp</text>
</a>
</g>
</g>
<!-- Node1&#45;&gt;Node2 -->
<g id="edge1_Node000001_Node000002" class="edge">
<title>Node1&#45;&gt;Node2</title>
<g id="a_edge1_Node000001_Node000002"><a xlink:title=" ">
<path fill="none" stroke="#63b8ff" d="M561.9,-597.71C569.13,-589.52 576.22,-579.57 580,-569 596.57,-522.66 575.91,-463.7 564.54,-437.12"/>
<polygon fill="#63b8ff" stroke="#63b8ff" points="559.35,-595.32 555.03,-604.99 564.44,-600.12 559.35,-595.32"/>
</a>
</g>
</g>
<!-- Node17 -->
<g id="Node000017" class="node">
<title>Node17</title>
<g id="a_Node000017"><a xlink:href="_list_proxy_8hpp.html" target="_top" xlink:title=" ">
<polygon fill="white" stroke="#666666" points="166,-365.5 0,-365.5 0,-335.5 166,-335.5 166,-365.5"/>
<text text-anchor="start" x="8" y="-353.5" font-family="Helvetica,sans-Serif" font-size="10.00">include/Thoth/Http</text>
<text text-anchor="middle" x="83" y="-342.5" font-family="Helvetica,sans-Serif" font-size="10.00">/NHeaders/Proxy/ListProxy.hpp</text>
</a>
</g>
</g>
<!-- Node1&#45;&gt;Node17 -->
<g id="edge28_Node000001_Node000017" class="edge">
<title>Node1&#45;&gt;Node17</title>
<g id="a_edge28_Node000001_Node000017"><a xlink:title=" ">
<path fill="none" stroke="#63b8ff" d="M469,-602.75C439.98,-594.63 406.51,-583.42 378,-569 260.18,-509.41 139.55,-403.53 98.07,-365.55"/>
<polygon fill="#63b8ff" stroke="#63b8ff" points="468.08,-606.13 478.65,-605.39 469.93,-599.38 468.08,-606.13"/>
</a>
</g>
</g>
<!-- Node18 -->
<g id="Node000018" class="node">
<title>Node18</title>
<g id="a_Node000018"><a xlink:href="_value_proxy_8hpp.html" target="_top" xlink:title=" ">
<polygon fill="white" stroke="#666666" points="1430,-365.5 1254,-365.5 1254,-335.5 1430,-335.5 1430,-365.5"/>
<text text-anchor="start" x="1262" y="-353.5" font-family="Helvetica,sans-Serif" font-size="10.00">include/Thoth/Http</text>
<text text-anchor="middle" x="1342" y="-342.5" font-family="Helvetica,sans-Serif" font-size="10.00">/NHeaders/Proxy/ValueProxy.hpp</text>
</a>
</g>
</g>
<!-- Node1&#45;&gt;Node18 -->
<g id="edge29_Node000001_Node000018" class="edge">
<title>Node1&#45;&gt;Node18</title>
<g id="a_edge29_Node000001_Node000018"><a xlink:title=" ">
<path fill="none" stroke="#63b8ff" d="M590.83,-601.73C739.33,-552.27 1164.31,-410.69 1299.89,-365.53"/>
<polygon fill="#63b8ff" stroke="#63b8ff" points="589.42,-598.51 581.04,-604.99 591.64,-605.15 589.42,-598.51"/>
</a>
</g>
</g>
<!-- Node21 -->
<g id="Node000021" class="node">
<title>Node21</title>
<g id="a_Node000021"><a xlink:href="_mime_type_8hpp.html" target="_top" xlink:title=" ">
<polygon fill="white" stroke="#666666" points="571.5,-569 386.5,-569 386.5,-539 571.5,-539 571.5,-569"/>
<text text-anchor="start" x="394.5" y="-557" font-family="Helvetica,sans-Serif" font-size="10.00">include/Thoth/Http</text>
<text text-anchor="middle" x="479" y="-546" font-family="Helvetica,sans-Serif" font-size="10.00">/NHeaders/Headers/MimeType.hpp</text>
</a>
</g>
</g>
<!-- Node1&#45;&gt;Node21 -->
<g id="edge25_Node000001_Node000021" class="edge">
<title>Node1&#45;&gt;Node21</title>
<g id="a_edge25_Node000001_Node000021"><a xlink:title=" ">
<path fill="none" stroke="#63b8ff" d="M518.72,-597.37C509.99,-588.06 500.04,-577.44 492.28,-569.16"/>
<polygon fill="#63b8ff" stroke="#63b8ff" points="516.29,-599.89 525.68,-604.8 521.4,-595.11 516.29,-599.89"/>
</a>
</g>
</g>
<!-- Node3 -->
<g id="Node000003" class="node">
<title>Node3</title>
<g id="a_Node000003"><a xlink:href="_method_concept_8hpp.html" target="_top" xlink:title=" ">
<polygon fill="white" stroke="#666666" points="1236,-365.5 1042,-365.5 1042,-335.5 1236,-335.5 1236,-365.5"/>
<text text-anchor="start" x="1050" y="-353.5" font-family="Helvetica,sans-Serif" font-size="10.00">include/Thoth/Http</text>
<text text-anchor="middle" x="1139" y="-342.5" font-family="Helvetica,sans-Serif" font-size="10.00">/Methods/_base/MethodConcept.hpp</text>
</a>
</g>
</g>
<!-- Node2&#45;&gt;Node3 -->
<g id="edge2_Node000002_Node000003" class="edge">
<title>Node2&#45;&gt;Node3</title>
<g id="a_edge2_Node000002_Node000003"><a xlink:title=" ">
<path fill="none" stroke="#63b8ff" d="M634.13,-410.7C643.85,-409.43 653.65,-408.17 663,-407 794.06,-390.62 945.62,-373.22 1041.85,-362.35"/>
<polygon fill="#63b8ff" stroke="#63b8ff" points="633.53,-407.25 624.07,-412.02 634.44,-414.19 633.53,-407.25"/>
</a>
</g>
</g>
<!-- Node9 -->
<g id="Node000009" class="node">
<title>Node9</title>
<g id="a_Node000009"><a xlink:href="_response_head_8hpp.html" target="_top" xlink:title=" ">
<polygon fill="white" stroke="#666666" points="1031,-162 867,-162 867,-132 1031,-132 1031,-162"/>
<text text-anchor="start" x="875" y="-150" font-family="Helvetica,sans-Serif" font-size="10.00">include/Thoth/Http</text>
<text text-anchor="middle" x="949" y="-139" font-family="Helvetica,sans-Serif" font-size="10.00">/Response/ResponseHead.hpp</text>
</a>
</g>
</g>
<!-- Node2&#45;&gt;Node9 -->
<g id="edge24_Node000002_Node000009" class="edge">
<title>Node2&#45;&gt;Node9</title>
<g id="a_edge24_Node000002_Node000009"><a xlink:title=" ">
<path fill="none" stroke="#63b8ff" d="M576.44,-399.04C582.9,-390.64 589.82,-380.72 595,-371 618.71,-326.45 597.5,-299.87 633,-264 695.79,-200.55 796.15,-171.52 866.9,-158.42"/>
<polygon fill="#63b8ff" stroke="#63b8ff" points="573.69,-396.88 570.22,-406.89 579.18,-401.23 573.69,-396.88"/>
</a>
</g>
</g>
<!-- Node2&#45;&gt;Node17 -->
<g id="edge20_Node000002_Node000017" class="edge">
<title>Node2&#45;&gt;Node17</title>
<g id="a_edge20_Node000002_Node000017"><a xlink:title=" ">
<path fill="none" stroke="#63b8ff" d="M481.52,-412.82C404.02,-404.1 280.8,-389.09 175,-371 165.67,-369.4 155.84,-367.53 146.22,-365.59"/>
<polygon fill="#63b8ff" stroke="#63b8ff" points="481.35,-416.32 491.68,-413.95 482.13,-409.36 481.35,-416.32"/>
</a>
</g>
</g>
<!-- Node2&#45;&gt;Node18 -->
<g id="edge21_Node000002_Node000018" class="edge">
<title>Node2&#45;&gt;Node18</title>
<g id="a_edge21_Node000002_Node000018"><a xlink:title=" ">
<path fill="none" stroke="#63b8ff" d="M634.08,-410.21C643.8,-409.02 653.63,-407.91 663,-407 920.94,-381.86 988.03,-404.62 1245,-371 1255.9,-369.57 1267.41,-367.64 1278.55,-365.55"/>
<polygon fill="#63b8ff" stroke="#63b8ff" points="633.5,-406.76 624.01,-411.47 634.37,-413.7 633.5,-406.76"/>
</a>
</g>
</g>
<!-- Node19 -->
<g id="Node000019" class="node">
<title>Node19</title>
<g id="a_Node000019"><a xlink:href="_request_headers_8hpp.html" target="_top" xlink:title=" ">
<polygon fill="white" stroke="#666666" points="399.5,-365.5 184.5,-365.5 184.5,-335.5 399.5,-335.5 399.5,-365.5"/>
<text text-anchor="start" x="192.5" y="-353.5" font-family="Helvetica,sans-Serif" font-size="10.00">include/Thoth/Http</text>
<text text-anchor="middle" x="292" y="-342.5" font-family="Helvetica,sans-Serif" font-size="10.00">/NHeaders/Request/RequestHeaders.hpp</text>
</a>
</g>
</g>
<!-- Node2&#45;&gt;Node19 -->
<g id="edge22_Node000002_Node000019" class="edge">
<title>Node2&#45;&gt;Node19</title>
<g id="a_edge22_Node000002_Node000019"><a xlink:title=" ">
<path fill="none" stroke="#63b8ff" d="M494.44,-404.39C449.07,-392.54 388.72,-376.77 345.75,-365.54"/>
<polygon fill="#63b8ff" stroke="#63b8ff" points="493.61,-407.79 504.17,-406.94 495.38,-401.02 493.61,-407.79"/>
</a>
</g>
</g>
<!-- Node20 -->
<g id="Node000020" class="node">
<title>Node20</title>
<g id="a_Node000020"><a xlink:href="_response_headers_8hpp.html" target="_top" xlink:title=" ">
<polygon fill="white" stroke="#666666" points="586,-371 418,-371 418,-330 586,-330 586,-371"/>
<text text-anchor="start" x="426" y="-359" font-family="Helvetica,sans-Serif" font-size="10.00">include/Thoth/Http</text>
<text text-anchor="start" x="426" y="-348" font-family="Helvetica,sans-Serif" font-size="10.00">/NHeaders/Response/Response</text>
<text text-anchor="middle" x="502" y="-337" font-family="Helvetica,sans-Serif" font-size="10.00">Headers.hpp</text>
</a>
</g>
</g>
<!-- Node2&#45;&gt;Node20 -->
<g id="edge23_Node000002_Node000020" class="edge">
<title>Node2&#45;&gt;Node20</title>
<g id="a_edge23_Node000002_Node000020"><a xlink:title=" ">
<path fill="none" stroke="#63b8ff" d="M540.39,-399.14C533.14,-390.15 524.81,-379.81 517.77,-371.07"/>
<polygon fill="#63b8ff" stroke="#63b8ff" points="537.67,-401.34 546.67,-406.94 543.12,-396.95 537.67,-401.34"/>
</a>
</g>
</g>
<!-- Node4 -->
<g id="Node000004" class="node">
<title>Node4</title>
<g id="a_Node000004"><a xlink:href="_connect_method_8hpp.html" target="_top" xlink:title=" ">
<polygon fill="white" stroke="#666666" points="1633,-294 1471,-294 1471,-264 1633,-264 1633,-294"/>
<text text-anchor="start" x="1479" y="-282" font-family="Helvetica,sans-Serif" font-size="10.00">include/Thoth/Http</text>
<text text-anchor="middle" x="1552" y="-271" font-family="Helvetica,sans-Serif" font-size="10.00">/Methods/ConnectMethod.hpp</text>
</a>
</g>
</g>
<!-- Node3&#45;&gt;Node4 -->
<g id="edge3_Node000003_Node000004" class="edge">
<title>Node3&#45;&gt;Node4</title>
<g id="a_edge3_Node000003_Node000004"><a xlink:title=" ">
<path fill="none" stroke="#63b8ff" d="M1224.43,-333.63C1231.39,-332.38 1238.31,-331.16 1245,-330 1321.48,-316.74 1408.87,-302.6 1470.8,-292.76"/>
<polygon fill="#63b8ff" stroke="#63b8ff" points="1223.47,-330.25 1214.24,-335.46 1224.71,-337.13 1223.47,-330.25"/>
</a>
</g>
</g>
<!-- Node5 -->
<g id="Node000005" class="node">
<title>Node5</title>
<g id="a_Node000005"><a xlink:href="_delete_method_8hpp.html" target="_top" xlink:title=" ">
<polygon fill="white" stroke="#666666" points="1964.5,-294 1809.5,-294 1809.5,-264 1964.5,-264 1964.5,-294"/>
<text text-anchor="start" x="1817.5" y="-282" font-family="Helvetica,sans-Serif" font-size="10.00">include/Thoth/Http</text>
<text text-anchor="middle" x="1887" y="-271" font-family="Helvetica,sans-Serif" font-size="10.00">/Methods/DeleteMethod.hpp</text>
</a>
</g>
</g>
<!-- Node3&#45;&gt;Node5 -->
<g id="edge4_Node000003_Node000005" class="edge">
<title>Node3&#45;&gt;Node5</title>
<g id="a_edge4_Node000003_Node000005"><a xlink:title=" ">
<path fill="none" stroke="#63b8ff" d="M1218.64,-333.81C1227.51,-332.37 1236.43,-331.06 1245,-330 1490.31,-299.59 1554.37,-321.67 1800,-294 1803.04,-293.66 1806.14,-293.28 1809.26,-292.88"/>
<polygon fill="#63b8ff" stroke="#63b8ff" points="1217.95,-330.38 1208.67,-335.48 1219.11,-337.28 1217.95,-330.38"/>
</a>
</g>
</g>
<!-- Node6 -->
<g id="Node000006" class="node">
<title>Node6</title>
<g id="a_Node000006"><a xlink:href="_get_method_8hpp.html" target="_top" xlink:title=" ">
<polygon fill="white" stroke="#666666" points="1791,-294 1651,-294 1651,-264 1791,-264 1791,-294"/>
<text text-anchor="start" x="1659" y="-282" font-family="Helvetica,sans-Serif" font-size="10.00">include/Thoth/Http</text>
<text text-anchor="middle" x="1721" y="-271" font-family="Helvetica,sans-Serif" font-size="10.00">/Methods/GetMethod.hpp</text>
</a>
</g>
</g>
<!-- Node3&#45;&gt;Node6 -->
<g id="edge5_Node000003_Node000006" class="edge">
<title>Node3&#45;&gt;Node6</title>
<g id="a_edge5_Node000003_Node000006"><a xlink:title=" ">
<path fill="none" stroke="#63b8ff" d="M1219.99,-333.81C1228.42,-332.42 1236.87,-331.11 1245,-330 1420.53,-305.95 1466.39,-317.48 1642,-294 1644.9,-293.61 1647.85,-293.19 1650.84,-292.75"/>
<polygon fill="#63b8ff" stroke="#63b8ff" points="1219.4,-330.36 1210.13,-335.49 1220.57,-337.27 1219.4,-330.36"/>
</a>
</g>
</g>
<!-- Node11 -->
<g id="Node000011" class="node">
<title>Node11</title>
<g id="a_Node000011"><a xlink:href="_head_method_8hpp.html" target="_top" xlink:title=" ">
<polygon fill="white" stroke="#666666" points="2131,-294 1983,-294 1983,-264 2131,-264 2131,-294"/>
<text text-anchor="start" x="1991" y="-282" font-family="Helvetica,sans-Serif" font-size="10.00">include/Thoth/Http</text>
<text text-anchor="middle" x="2057" y="-271" font-family="Helvetica,sans-Serif" font-size="10.00">/Methods/HeadMethod.hpp</text>
</a>
</g>
</g>
<!-- Node3&#45;&gt;Node11 -->
<g id="edge12_Node000003_Node000011" class="edge">
<title>Node3&#45;&gt;Node11</title>
<g id="a_edge12_Node000003_Node000011"><a xlink:title=" ">
<path fill="none" stroke="#63b8ff" d="M1217.7,-333.83C1226.88,-332.35 1236.13,-331.03 1245,-330 1567.23,-292.57 1651.5,-329.04 1974,-294 1976.91,-293.68 1979.86,-293.33 1982.85,-292.95"/>
<polygon fill="#63b8ff" stroke="#63b8ff" points="1217.08,-330.38 1207.79,-335.48 1218.23,-337.29 1217.08,-330.38"/>
</a>
</g>
</g>
<!-- Node12 -->
<g id="Node000012" class="node">
<title>Node12</title>
<g id="a_Node000012"><a xlink:href="_options_method_8hpp.html" target="_top" xlink:title=" ">
<polygon fill="white" stroke="#666666" points="802,-294 642,-294 642,-264 802,-264 802,-294"/>
<text text-anchor="start" x="650" y="-282" font-family="Helvetica,sans-Serif" font-size="10.00">include/Thoth/Http</text>
<text text-anchor="middle" x="722" y="-271" font-family="Helvetica,sans-Serif" font-size="10.00">/Methods/OptionsMethod.hpp</text>
</a>
</g>
</g>
<!-- Node3&#45;&gt;Node12 -->
<g id="edge13_Node000003_Node000012" class="edge">
<title>Node3&#45;&gt;Node12</title>
<g id="a_edge13_Node000003_Node000012"><a xlink:title=" ">
<path fill="none" stroke="#63b8ff" d="M1044.73,-333.79C971.62,-321.6 871.39,-304.9 802.11,-293.35"/>
<polygon fill="#63b8ff" stroke="#63b8ff" points="1044.43,-337.29 1054.86,-335.48 1045.58,-330.38 1044.43,-337.29"/>
</a>
</g>
</g>
<!-- Node13 -->
<g id="Node000013" class="node">
<title>Node13</title>
<g id="a_Node000013"><a xlink:href="_patch_method_8hpp.html" target="_top" xlink:title=" ">
<polygon fill="white" stroke="#666666" points="969.5,-294 820.5,-294 820.5,-264 969.5,-264 969.5,-294"/>
<text text-anchor="start" x="828.5" y="-282" font-family="Helvetica,sans-Serif" font-size="10.00">include/Thoth/Http</text>
<text text-anchor="middle" x="895" y="-271" font-family="Helvetica,sans-Serif" font-size="10.00">/Methods/PatchMethod.hpp</text>
</a>
</g>
</g>
<!-- Node3&#45;&gt;Node13 -->
<g id="edge14_Node000003_Node000013" class="edge">
<title>Node3&#45;&gt;Node13</title>
<g id="a_edge14_Node000003_Node000013"><a xlink:title=" ">
<path fill="none" stroke="#63b8ff" d="M1079.91,-332.67C1038.38,-320.84 983.47,-305.2 944.3,-294.04"/>
<polygon fill="#63b8ff" stroke="#63b8ff" points="1079.05,-336.06 1089.62,-335.44 1080.96,-329.33 1079.05,-336.06"/>
</a>
</g>
</g>
<!-- Node14 -->
<g id="Node000014" class="node">
<title>Node14</title>
<g id="a_Node000014"><a xlink:href="_post_method_8hpp.html" target="_top" xlink:title=" ">
<polygon fill="white" stroke="#666666" points="1130.5,-294 987.5,-294 987.5,-264 1130.5,-264 1130.5,-294"/>
<text text-anchor="start" x="995.5" y="-282" font-family="Helvetica,sans-Serif" font-size="10.00">include/Thoth/Http</text>
<text text-anchor="middle" x="1059" y="-271" font-family="Helvetica,sans-Serif" font-size="10.00">/Methods/PostMethod.hpp</text>
</a>
</g>
</g>
<!-- Node3&#45;&gt;Node14 -->
<g id="edge15_Node000003_Node000014" class="edge">
<title>Node3&#45;&gt;Node14</title>
<g id="a_edge15_Node000003_Node000014"><a xlink:title=" ">
<path fill="none" stroke="#63b8ff" d="M1115.18,-328.81C1102.27,-317.59 1086.65,-304.02 1075.17,-294.04"/>
<polygon fill="#63b8ff" stroke="#63b8ff" points="1112.97,-331.52 1122.81,-335.44 1117.56,-326.24 1112.97,-331.52"/>
</a>
</g>
</g>
<!-- Node15 -->
<g id="Node000015" class="node">
<title>Node15</title>
<g id="a_Node000015"><a xlink:href="_put_method_8hpp.html" target="_top" xlink:title=" ">
<polygon fill="white" stroke="#666666" points="1287,-294 1149,-294 1149,-264 1287,-264 1287,-294"/>
<text text-anchor="start" x="1157" y="-282" font-family="Helvetica,sans-Serif" font-size="10.00">include/Thoth/Http</text>
<text text-anchor="middle" x="1218" y="-271" font-family="Helvetica,sans-Serif" font-size="10.00">/Methods/PutMethod.hpp</text>
</a>
</g>
</g>
<!-- Node3&#45;&gt;Node15 -->
<g id="edge18_Node000003_Node000015" class="edge">
<title>Node3&#45;&gt;Node15</title>
<g id="a_edge18_Node000003_Node000015"><a xlink:title=" ">
<path fill="none" stroke="#63b8ff" d="M1162.52,-328.81C1175.27,-317.59 1190.69,-304.02 1202.04,-294.04"/>
<polygon fill="#63b8ff" stroke="#63b8ff" points="1160.18,-326.2 1154.99,-335.44 1164.81,-331.46 1160.18,-326.2"/>
</a>
</g>
</g>
<!-- Node16 -->
<g id="Node000016" class="node">
<title>Node16</title>
<g id="a_Node000016"><a xlink:href="_trace_method_8hpp.html" target="_top" xlink:title=" ">
<polygon fill="white" stroke="#666666" points="1453,-294 1305,-294 1305,-264 1453,-264 1453,-294"/>
<text text-anchor="start" x="1313" y="-282" font-family="Helvetica,sans-Serif" font-size="10.00">include/Thoth/Http</text>
<text text-anchor="middle" x="1379" y="-271" font-family="Helvetica,sans-Serif" font-size="10.00">/Methods/TraceMethod.hpp</text>
</a>
</g>
</g>
<!-- Node3&#45;&gt;Node16 -->
<g id="edge19_Node000003_Node000016" class="edge">
<title>Node3&#45;&gt;Node16</title>
<g id="a_edge19_Node000003_Node000016"><a xlink:title=" ">
<path fill="none" stroke="#63b8ff" d="M1197.38,-332.59C1238.19,-320.78 1292.06,-305.18 1330.5,-294.04"/>
<polygon fill="#63b8ff" stroke="#63b8ff" points="1196.2,-329.29 1187.57,-335.44 1198.15,-336.02 1196.2,-329.29"/>
</a>
</g>
</g>
<!-- Node7 -->
<g id="Node000007" class="node">
<title>Node7</title>
<g id="a_Node000007"><a xlink:href="_request_8hpp.html" target="_top" xlink:title=" ">
<polygon fill="white" stroke="#666666" points="1212.5,-228 1089.5,-228 1089.5,-198 1212.5,-198 1212.5,-228"/>
<text text-anchor="start" x="1097.5" y="-216" font-family="Helvetica,sans-Serif" font-size="10.00">include/Thoth/Http</text>
<text text-anchor="middle" x="1151" y="-205" font-family="Helvetica,sans-Serif" font-size="10.00">/Request/Request.hpp</text>
</a>
</g>
</g>
<!-- Node6&#45;&gt;Node7 -->
<g id="edge6_Node000006_Node000007" class="edge">
<title>Node6&#45;&gt;Node7</title>
<g id="a_edge6_Node000006_Node000007"><a xlink:title=" ">
<path fill="none" stroke="#63b8ff" d="M1640.8,-263.9C1480.75,-241.91 1304.14,-226.26 1212.8,-218.82"/>
<polygon fill="#63b8ff" stroke="#63b8ff" points="1640.45,-267.38 1650.83,-265.29 1641.41,-260.45 1640.45,-267.38"/>
</a>
</g>
</g>
<!-- Node10 -->
<g id="Node000010" class="node">
<title>Node10</title>
<g id="a_Node000010"><a xlink:href="_response_8hpp.html" target="_top" xlink:title=" ">
<polygon fill="white" stroke="#666666" points="1125,-96 987,-96 987,-66 1125,-66 1125,-96"/>
<text text-anchor="start" x="995" y="-84" font-family="Helvetica,sans-Serif" font-size="10.00">include/Thoth/Http</text>
<text text-anchor="middle" x="1056" y="-73" font-family="Helvetica,sans-Serif" font-size="10.00">/Response/Response.hpp</text>
</a>
</g>
</g>
<!-- Node6&#45;&gt;Node10 -->
<g id="edge11_Node000006_Node000010" class="edge">
<title>Node6&#45;&gt;Node10</title>
<g id="a_edge11_Node000006_Node000010"><a xlink:title=" ">
<path fill="none" stroke="#63b8ff" d="M1663.74,-261.12C1534.76,-223.11 1223.47,-131.36 1103.89,-96.11"/>
<polygon fill="#63b8ff" stroke="#63b8ff" points="1662.86,-264.51 1673.44,-263.98 1664.84,-257.8 1662.86,-264.51"/>
</a>
</g>
</g>
<!-- Node8 -->
<g id="Node000008" class="node">
<title>Node8</title>
<g id="a_Node000008"><a xlink:href="_client_8hpp.html" target="_top" xlink:title=" ">
<polygon fill="white" stroke="#666666" points="1157.5,-30 1050.5,-30 1050.5,0 1157.5,0 1157.5,-30"/>
<text text-anchor="start" x="1058.5" y="-18" font-family="Helvetica,sans-Serif" font-size="10.00">include/Thoth/Http</text>
<text text-anchor="middle" x="1104" y="-7" font-family="Helvetica,sans-Serif" font-size="10.00">/Client.hpp</text>
</a>
</g>
</g>
<!-- Node7&#45;&gt;Node8 -->
<g id="edge7_Node000007_Node000008" class="edge">
<title>Node7&#45;&gt;Node8</title>
<g id="a_edge7_Node000007_Node000008"><a xlink:title=" ">
<path fill="none" stroke="#63b8ff" d="M1151.27,-187.67C1150.9,-158.12 1148,-107.13 1134,-66 1129.56,-52.97 1121.37,-39.67 1114.67,-30.07"/>
<polygon fill="#63b8ff" stroke="#63b8ff" points="1147.77,-187.9 1151.3,-197.88 1154.77,-187.87 1147.77,-187.9"/>
</a>
</g>
</g>
<!-- Node7&#45;&gt;Node9 -->
<g id="edge8_Node000007_Node000009" class="edge">
<title>Node7&#45;&gt;Node9</title>
<g id="a_edge8_Node000007_Node000009"><a xlink:title=" ">
<path fill="none" stroke="#63b8ff" d="M1096.89,-194.86C1064.45,-184.58 1023.73,-171.68 993.23,-162.01"/>
<polygon fill="#63b8ff" stroke="#63b8ff" points="1096.08,-198.27 1106.67,-197.95 1098.19,-191.6 1096.08,-198.27"/>
</a>
</g>
</g>
<!-- Node9&#45;&gt;Node10 -->
<g id="edge9_Node000009_Node000010" class="edge">
<title>Node9&#45;&gt;Node10</title>
<g id="a_edge9_Node000009_Node000010"><a xlink:title=" ">
<path fill="none" stroke="#63b8ff" d="M981.28,-126.69C997.79,-116.82 1017.53,-105.01 1032.57,-96.01"/>
<polygon fill="#63b8ff" stroke="#63b8ff" points="979.27,-123.82 972.48,-131.95 982.86,-129.83 979.27,-123.82"/>
</a>
</g>
</g>
<!-- Node10&#45;&gt;Node8 -->
<g id="edge10_Node000010_Node000008" class="edge">
<title>Node10&#45;&gt;Node8</title>
<g id="a_edge10_Node000010_Node000008"><a xlink:title=" ">
<path fill="none" stroke="#63b8ff" d="M1072.86,-57.53C1079.68,-48.43 1087.35,-38.19 1093.38,-30.16"/>
<polygon fill="#63b8ff" stroke="#63b8ff" points="1069.85,-55.7 1066.65,-65.8 1075.45,-59.9 1069.85,-55.7"/>
</a>
</g>
</g>
<!-- Node14&#45;&gt;Node7 -->
<g id="edge16_Node000014_Node000007" class="edge">
<title>Node14&#45;&gt;Node7</title>
<g id="a_edge16_Node000014_Node000007"><a xlink:title=" ">
<path fill="none" stroke="#63b8ff" d="M1087.71,-258.03C1101.63,-248.34 1118.03,-236.94 1130.64,-228.16"/>
<polygon fill="#63b8ff" stroke="#63b8ff" points="1085.63,-255.21 1079.42,-263.8 1089.63,-260.96 1085.63,-255.21"/>
</a>
</g>
</g>
<!-- Node14&#45;&gt;Node10 -->
<g id="edge17_Node000014_Node000010" class="edge">
<title>Node14&#45;&gt;Node10</title>
<g id="a_edge17_Node000014_Node000010"><a xlink:title=" ">
<path fill="none" stroke="#63b8ff" d="M1058.63,-253.89C1058,-212.58 1056.73,-129.48 1056.22,-96.23"/>
<polygon fill="#63b8ff" stroke="#63b8ff" points="1055.13,-253.96 1058.78,-263.9 1062.13,-253.85 1055.13,-253.96"/>
</a>
</g>
</g>
<!-- Node22 -->
<g id="Node000022" class="node">
<title>Node22</title>
<g id="a_Node000022"><a xlink:href="__pch_8hpp.html" target="_top" xlink:title=" ">
<polygon fill="white" stroke="#666666" points="565,-503 407,-503 407,-473 565,-473 565,-503"/>
<text text-anchor="start" x="415" y="-491" font-family="Helvetica,sans-Serif" font-size="10.00">include/Thoth/Http</text>
<text text-anchor="middle" x="486" y="-480" font-family="Helvetica,sans-Serif" font-size="10.00">/NHeaders/Headers/_pch.hpp</text>
</a>
</g>
</g>
<!-- Node21&#45;&gt;Node22 -->
<g id="edge26_Node000021_Node000022" class="edge">
<title>Node21&#45;&gt;Node22</title>
<g id="a_edge26_Node000021_Node000022"><a xlink:title=" ">
<path fill="none" stroke="#63b8ff" d="M481.64,-528.83C482.59,-520.17 483.63,-510.7 484.45,-503.16"/>
<polygon fill="#63b8ff" stroke="#63b8ff" points="478.16,-528.48 480.55,-538.8 485.12,-529.24 478.16,-528.48"/>
</a>
</g>
</g>
<!-- Node22&#45;&gt;Node2 -->
<g id="edge27_Node000022_Node000002" class="edge">
<title>Node22&#45;&gt;Node2</title>
<g id="a_edge27_Node000022_Node000002"><a xlink:title=" ">
<path fill="none" stroke="#63b8ff" d="M509.71,-465.92C520.33,-456.49 532.57,-445.61 542.07,-437.16"/>
<polygon fill="#63b8ff" stroke="#63b8ff" points="507.13,-463.54 501.98,-472.8 511.78,-468.77 507.13,-463.54"/>
</a>
</g>
</g>
</g>
</svg>
