<?xml version="1.0" encoding="UTF-8" standalone="no"?>
<!DOCTYPE svg PUBLIC "-//W3C//DTD SVG 1.1//EN"
 "http://www.w3.org/Graphics/SVG/1.1/DTD/svg11.dtd">
<!-- Generated by graphviz version 2.43.0 (0)
 -->
<!-- Title: include/Thoth/Http/NHeaders/_base.hpp Pages: 1 -->
<svg width="1806pt" height="643pt"
 viewBox="0.00 0.00 1806.00 643.00" xmlns="http://www.w3.org/2000/svg" xmlns:xlink="http://www.w3.org/1999/xlink">
<g id="graph0" class="graph" transform="scale(1 1) rotate(0) translate(4 639)">
<title>include/Thoth/Http/NHeaders/_base.hpp</title>
<!-- Node1 -->
<g id="Node000001" class="node">
<title>Node1</title>
<g id="a_Node000001"><a xlink:title=" ">
<polygon fill="#999999" stroke="#666666" points="1529,-635 1409,-635 1409,-605 1529,-605 1529,-635"/>
<text text-anchor="start" x="1417" y="-623" font-family="Helvetica,sans-Serif" font-size="10.00">include/Thoth/Http</text>
<text text-anchor="middle" x="1469" y="-612" font-family="Helvetica,sans-Serif" font-size="10.00">/NHeaders/_base.hpp</text>
</a>
</g>
</g>
<!-- Node2 -->
<g id="Node000002" class="node">
<title>Node2</title>
<g id="a_Node000002"><a xlink:href="_headers_8hpp.html" target="_top" xlink:title=" ">
<polygon fill="white" stroke="#666666" points="1554,-437 1422,-437 1422,-407 1554,-407 1554,-437"/>
<text text-anchor="start" x="1430" y="-425" font-family="Helvetica,sans-Serif" font-size="10.00">include/Thoth/Http</text>
<text text-anchor="middle" x="1488" y="-414" font-family="Helvetica,sans-Serif" font-size="10.00">/NHeaders/Headers.hpp</text>
</a>
</g>
</g>
<!-- Node1&#45;&gt;Node2 -->
<g id="edge1_Node000001_Node000002" class="edge">
<title>Node1&#45;&gt;Node2</title>
<g id="a_edge1_Node000001_Node000002"><a xlink:title=" ">
<path fill="none" stroke="#63b8ff" d="M1491.9,-597.71C1499.13,-589.52 1506.22,-579.57 1510,-569 1526.57,-522.66 1505.91,-463.7 1494.54,-437.12"/>
<polygon fill="#63b8ff" stroke="#63b8ff" points="1489.35,-595.32 1485.03,-604.99 1494.44,-600.12 1489.35,-595.32"/>
</a>
</g>
</g>
<!-- Node17 -->
<g id="Node000017" class="node">
<title>Node17</title>
<g id="a_Node000017"><a xlink:href="_list_proxy_8hpp.html" target="_top" xlink:title=" ">
<polygon fill="white" stroke="#666666" points="876,-371 710,-371 710,-341 876,-341 876,-371"/>
<text text-anchor="start" x="718" y="-359" font-family="Helvetica,sans-Serif" font-size="10.00">include/Thoth/Http</text>
<text text-anchor="middle" x="793" y="-348" font-family="Helvetica,sans-Serif" font-size="10.00">/NHeaders/Proxy/ListProxy.hpp</text>
</a>
</g>
</g>
<!-- Node1&#45;&gt;Node17 -->
<g id="edge30_Node000001_Node000017" class="edge">
<title>Node1&#45;&gt;Node17</title>
<g id="a_edge30_Node000001_Node000017"><a xlink:title=" ">
<path fill="none" stroke="#63b8ff" d="M1409.98,-602.05C1379.34,-592.9 1341.42,-581.04 1308,-569 1121.75,-501.9 903.99,-406.52 824.26,-371.02"/>
<polygon fill="#63b8ff" stroke="#63b8ff" points="1409.07,-605.43 1419.65,-604.92 1411.06,-598.72 1409.07,-605.43"/>
</a>
</g>
</g>
<!-- Node18 -->
<g id="Node000018" class="node">
<title>Node18</title>
<g id="a_Node000018"><a xlink:href="_value_proxy_8hpp.html" target="_top" xlink:title=" ">
<polygon fill="white" stroke="#666666" points="1798,-371 1622,-371 1622,-341 1798,-341 1798,-371"/>
<text text-anchor="start" x="1630" y="-359" font-family="Helvetica,sans-Serif" font-size="10.00">include/Thoth/Http</text>
<text text-anchor="middle" x="1710" y="-348" font-family="Helvetica,sans-Serif" font-size="10.00">/NHeaders/Proxy/ValueProxy.hpp</text>
</a>
</g>
</g>
<!-- Node1&#45;&gt;Node18 -->
<g id="edge31_Node000001_Node000018" class="edge">
<title>Node1&#45;&gt;Node18</title>
<g id="a_edge31_Node000001_Node000018"><a xlink:title=" ">
<path fill="none" stroke="#63b8ff" d="M1494.04,-598.32C1504.24,-589.57 1515.96,-579.09 1526,-569 1595.94,-498.69 1670.96,-406.2 1698.78,-371.22"/>
<polygon fill="#63b8ff" stroke="#63b8ff" points="1491.62,-595.78 1486.25,-604.92 1496.15,-601.12 1491.62,-595.78"/>
</a>
</g>
</g>
<!-- Node21 -->
<g id="Node000021" class="node">
<title>Node21</title>
<g id="a_Node000021"><a xlink:href="_mime_type_8hpp.html" target="_top" xlink:title=" ">
<polygon fill="white" stroke="#666666" points="1501.5,-569 1316.5,-569 1316.5,-539 1501.5,-539 1501.5,-569"/>
<text text-anchor="start" x="1324.5" y="-557" font-family="Helvetica,sans-Serif" font-size="10.00">include/Thoth/Http</text>
<text text-anchor="middle" x="1409" y="-546" font-family="Helvetica,sans-Serif" font-size="10.00">/NHeaders/Headers/MimeType.hpp</text>
</a>
</g>
</g>
<!-- Node1&#45;&gt;Node21 -->
<g id="edge27_Node000001_Node000021" class="edge">
<title>Node1&#45;&gt;Node21</title>
<g id="a_edge27_Node000001_Node000021"><a xlink:title=" ">
<path fill="none" stroke="#63b8ff" d="M1448.72,-597.37C1439.99,-588.06 1430.04,-577.44 1422.28,-569.16"/>
<polygon fill="#63b8ff" stroke="#63b8ff" points="1446.29,-599.89 1455.68,-604.8 1451.4,-595.11 1446.29,-599.89"/>
</a>
</g>
</g>
<!-- Node3 -->
<g id="Node000003" class="node">
<title>Node3</title>
<g id="a_Node000003"><a xlink:href="_method_concept_8hpp.html" target="_top" xlink:title=" ">
<polygon fill="white" stroke="#666666" points="1088,-371 894,-371 894,-341 1088,-341 1088,-371"/>
<text text-anchor="start" x="902" y="-359" font-family="Helvetica,sans-Serif" font-size="10.00">include/Thoth/Http</text>
<text text-anchor="middle" x="991" y="-348" font-family="Helvetica,sans-Serif" font-size="10.00">/Methods/_base/MethodConcept.hpp</text>
</a>
</g>
</g>
<!-- Node2&#45;&gt;Node3 -->
<g id="edge2_Node000002_Node000003" class="edge">
<title>Node2&#45;&gt;Node3</title>
<g id="a_edge2_Node000002_Node000003"><a xlink:title=" ">
<path fill="none" stroke="#63b8ff" d="M1411.71,-411.18C1324.94,-400 1183.08,-381.74 1088.4,-369.54"/>
<polygon fill="#63b8ff" stroke="#63b8ff" points="1411.38,-414.66 1421.75,-412.47 1412.27,-407.72 1411.38,-414.66"/>
</a>
</g>
</g>
<!-- Node9 -->
<g id="Node000009" class="node">
<title>Node9</title>
<g id="a_Node000009"><a xlink:href="_response_head_8hpp.html" target="_top" xlink:title=" ">
<polygon fill="white" stroke="#666666" points="1568,-162 1404,-162 1404,-132 1568,-132 1568,-162"/>
<text text-anchor="start" x="1412" y="-150" font-family="Helvetica,sans-Serif" font-size="10.00">include/Thoth/Http</text>
<text text-anchor="middle" x="1486" y="-139" font-family="Helvetica,sans-Serif" font-size="10.00">/Response/ResponseHead.hpp</text>
</a>
</g>
</g>
<!-- Node2&#45;&gt;Node9 -->
<g id="edge26_Node000002_Node000009" class="edge">
<title>Node2&#45;&gt;Node9</title>
<g id="a_edge26_Node000002_Node000009"><a xlink:title=" ">
<path fill="none" stroke="#63b8ff" d="M1515.81,-399.97C1524.26,-391.94 1532.5,-382.03 1537,-371 1566.06,-299.82 1566.78,-268.89 1537,-198 1530.85,-183.37 1518.1,-170.87 1506.89,-162.03"/>
<polygon fill="#63b8ff" stroke="#63b8ff" points="1513.26,-397.56 1508.09,-406.8 1517.9,-402.8 1513.26,-397.56"/>
</a>
</g>
</g>
<!-- Node2&#45;&gt;Node17 -->
<g id="edge20_Node000002_Node000017" class="edge">
<title>Node2&#45;&gt;Node17</title>
<g id="a_edge20_Node000002_Node000017"><a xlink:title=" ">
<path fill="none" stroke="#63b8ff" d="M1411.75,-416.35C1297.17,-408.99 1073.88,-393.18 885,-371 882.11,-370.66 879.17,-370.3 876.21,-369.92"/>
<polygon fill="#63b8ff" stroke="#63b8ff" points="1411.62,-419.85 1421.82,-417 1412.07,-412.87 1411.62,-419.85"/>
</a>
</g>
</g>
<!-- Node2&#45;&gt;Node18 -->
<g id="edge21_Node000002_Node000018" class="edge">
<title>Node2&#45;&gt;Node18</title>
<g id="a_edge21_Node000002_Node000018"><a xlink:title=" ">
<path fill="none" stroke="#63b8ff" d="M1546.55,-404.12C1582.34,-393.8 1627.59,-380.76 1661.39,-371.01"/>
<polygon fill="#63b8ff" stroke="#63b8ff" points="1545.36,-400.82 1536.72,-406.95 1547.3,-407.55 1545.36,-400.82"/>
</a>
</g>
</g>
<!-- Node19 -->
<g id="Node000019" class="node">
<title>Node19</title>
<g id="a_Node000019"><a xlink:href="_request_headers_8hpp.html" target="_top" xlink:title=" ">
<polygon fill="white" stroke="#666666" points="1527.5,-371 1312.5,-371 1312.5,-341 1527.5,-341 1527.5,-371"/>
<text text-anchor="start" x="1320.5" y="-359" font-family="Helvetica,sans-Serif" font-size="10.00">include/Thoth/Http</text>
<text text-anchor="middle" x="1420" y="-348" font-family="Helvetica,sans-Serif" font-size="10.00">/NHeaders/Request/RequestHeaders.hpp</text>
</a>
</g>
</g>
<!-- Node2&#45;&gt;Node19 -->
<g id="edge22_Node000002_Node000019" class="edge">
<title>Node2&#45;&gt;Node19</title>
<g id="a_edge22_Node000002_Node000019"><a xlink:title=" ">
<path fill="none" stroke="#63b8ff" d="M1465.61,-399.92C1455.58,-390.49 1444.02,-379.61 1435.05,-371.16"/>
<polygon fill="#63b8ff" stroke="#63b8ff" points="1463.23,-402.49 1472.91,-406.8 1468.03,-397.39 1463.23,-402.49"/>
</a>
</g>
</g>
<!-- Node20 -->
<g id="Node000020" class="node">
<title>Node20</title>
<g id="a_Node000020"><a xlink:href="_response_headers_8hpp.html" target="_top" xlink:title=" ">
<polygon fill="white" stroke="#666666" points="1752,-239 1584,-239 1584,-198 1752,-198 1752,-239"/>
<text text-anchor="start" x="1592" y="-227" font-family="Helvetica,sans-Serif" font-size="10.00">include/Thoth/Http</text>
<text text-anchor="start" x="1592" y="-216" font-family="Helvetica,sans-Serif" font-size="10.00">/NHeaders/Response/Response</text>
<text text-anchor="middle" x="1668" y="-205" font-family="Helvetica,sans-Serif" font-size="10.00">Headers.hpp</text>
</a>
</g>
</g>
<!-- Node2&#45;&gt;Node20 -->
<g id="edge24_Node000002_Node000020" class="edge">
<title>Node2&#45;&gt;Node20</title>
<g id="a_edge24_Node000002_Node000020"><a xlink:title=" ">
<path fill="none" stroke="#63b8ff" d="M1526.77,-402.12C1541.36,-393.85 1557.44,-383.23 1570,-371 1611.3,-330.79 1643.86,-270.12 1658.9,-239.17"/>
<polygon fill="#63b8ff" stroke="#63b8ff" points="1525.02,-399.09 1517.92,-406.96 1528.38,-405.23 1525.02,-399.09"/>
</a>
</g>
</g>
<!-- Node4 -->
<g id="Node000004" class="node">
<title>Node4</title>
<g id="a_Node000004"><a xlink:href="_connect_method_8hpp.html" target="_top" xlink:title=" ">
<polygon fill="white" stroke="#666666" points="810,-305 648,-305 648,-275 810,-275 810,-305"/>
<text text-anchor="start" x="656" y="-293" font-family="Helvetica,sans-Serif" font-size="10.00">include/Thoth/Http</text>
<text text-anchor="middle" x="729" y="-282" font-family="Helvetica,sans-Serif" font-size="10.00">/Methods/ConnectMethod.hpp</text>
</a>
</g>
</g>
<!-- Node3&#45;&gt;Node4 -->
<g id="edge3_Node000003_Node000004" class="edge">
<title>Node3&#45;&gt;Node4</title>
<g id="a_edge3_Node000003_Node000004"><a xlink:title=" ">
<path fill="none" stroke="#63b8ff" d="M923.52,-338.52C881.03,-328.14 826.77,-314.88 786.36,-305.01"/>
<polygon fill="#63b8ff" stroke="#63b8ff" points="922.96,-341.98 933.5,-340.95 924.62,-335.18 922.96,-341.98"/>
</a>
</g>
</g>
<!-- Node5 -->
<g id="Node000005" class="node">
<title>Node5</title>
<g id="a_Node000005"><a xlink:href="_delete_method_8hpp.html" target="_top" xlink:title=" ">
<polygon fill="white" stroke="#666666" points="983.5,-305 828.5,-305 828.5,-275 983.5,-275 983.5,-305"/>
<text text-anchor="start" x="836.5" y="-293" font-family="Helvetica,sans-Serif" font-size="10.00">include/Thoth/Http</text>
<text text-anchor="middle" x="906" y="-282" font-family="Helvetica,sans-Serif" font-size="10.00">/Methods/DeleteMethod.hpp</text>
</a>
</g>
</g>
<!-- Node3&#45;&gt;Node5 -->
<g id="edge4_Node000003_Node000005" class="edge">
<title>Node3&#45;&gt;Node5</title>
<g id="a_edge4_Node000003_Node000005"><a xlink:title=" ">
<path fill="none" stroke="#63b8ff" d="M964.11,-334.75C951.33,-325.13 936.36,-313.86 924.81,-305.16"/>
<polygon fill="#63b8ff" stroke="#63b8ff" points="962.04,-337.58 972.14,-340.8 966.25,-331.99 962.04,-337.58"/>
</a>
</g>
</g>
<!-- Node6 -->
<g id="Node000006" class="node">
<title>Node6</title>
<g id="a_Node000006"><a xlink:href="_get_method_8hpp.html" target="_top" xlink:title=" ">
<polygon fill="white" stroke="#666666" points="140,-305 0,-305 0,-275 140,-275 140,-305"/>
<text text-anchor="start" x="8" y="-293" font-family="Helvetica,sans-Serif" font-size="10.00">include/Thoth/Http</text>
<text text-anchor="middle" x="70" y="-282" font-family="Helvetica,sans-Serif" font-size="10.00">/Methods/GetMethod.hpp</text>
</a>
</g>
</g>
<!-- Node3&#45;&gt;Node6 -->
<g id="edge5_Node000003_Node000006" class="edge">
<title>Node3&#45;&gt;Node6</title>
<g id="a_edge5_Node000003_Node000006"><a xlink:title=" ">
<path fill="none" stroke="#63b8ff" d="M883.76,-340.95C557.07,-312.14 471.11,-341.27 149,-305 146.09,-304.67 143.13,-304.3 140.14,-303.91"/>
<polygon fill="#63b8ff" stroke="#63b8ff" points="883.72,-344.46 893.99,-341.86 884.34,-337.49 883.72,-344.46"/>
</a>
</g>
</g>
<!-- Node11 -->
<g id="Node000011" class="node">
<title>Node11</title>
<g id="a_Node000011"><a xlink:href="_head_method_8hpp.html" target="_top" xlink:title=" ">
<polygon fill="white" stroke="#666666" points="1150,-305 1002,-305 1002,-275 1150,-275 1150,-305"/>
<text text-anchor="start" x="1010" y="-293" font-family="Helvetica,sans-Serif" font-size="10.00">include/Thoth/Http</text>
<text text-anchor="middle" x="1076" y="-282" font-family="Helvetica,sans-Serif" font-size="10.00">/Methods/HeadMethod.hpp</text>
</a>
</g>
</g>
<!-- Node3&#45;&gt;Node11 -->
<g id="edge12_Node000003_Node000011" class="edge">
<title>Node3&#45;&gt;Node11</title>
<g id="a_edge12_Node000003_Node000011"><a xlink:title=" ">
<path fill="none" stroke="#63b8ff" d="M1017.89,-334.75C1030.67,-325.13 1045.64,-313.86 1057.19,-305.16"/>
<polygon fill="#63b8ff" stroke="#63b8ff" points="1015.75,-331.99 1009.86,-340.8 1019.96,-337.58 1015.75,-331.99"/>
</a>
</g>
</g>
<!-- Node12 -->
<g id="Node000012" class="node">
<title>Node12</title>
<g id="a_Node000012"><a xlink:href="_options_method_8hpp.html" target="_top" xlink:title=" ">
<polygon fill="white" stroke="#666666" points="1328,-305 1168,-305 1168,-275 1328,-275 1328,-305"/>
<text text-anchor="start" x="1176" y="-293" font-family="Helvetica,sans-Serif" font-size="10.00">include/Thoth/Http</text>
<text text-anchor="middle" x="1248" y="-282" font-family="Helvetica,sans-Serif" font-size="10.00">/Methods/OptionsMethod.hpp</text>
</a>
</g>
</g>
<!-- Node3&#45;&gt;Node12 -->
<g id="edge13_Node000003_Node000012" class="edge">
<title>Node3&#45;&gt;Node12</title>
<g id="a_edge13_Node000003_Node000012"><a xlink:title=" ">
<path fill="none" stroke="#63b8ff" d="M1057.19,-338.52C1098.87,-328.14 1152.09,-314.88 1191.73,-305.01"/>
<polygon fill="#63b8ff" stroke="#63b8ff" points="1056.26,-335.14 1047.4,-340.95 1057.95,-341.93 1056.26,-335.14"/>
</a>
</g>
</g>
<!-- Node13 -->
<g id="Node000013" class="node">
<title>Node13</title>
<g id="a_Node000013"><a xlink:href="_patch_method_8hpp.html" target="_top" xlink:title=" ">
<polygon fill="white" stroke="#666666" points="307.5,-305 158.5,-305 158.5,-275 307.5,-275 307.5,-305"/>
<text text-anchor="start" x="166.5" y="-293" font-family="Helvetica,sans-Serif" font-size="10.00">include/Thoth/Http</text>
<text text-anchor="middle" x="233" y="-282" font-family="Helvetica,sans-Serif" font-size="10.00">/Methods/PatchMethod.hpp</text>
</a>
</g>
</g>
<!-- Node3&#45;&gt;Node13 -->
<g id="edge14_Node000003_Node000013" class="edge">
<title>Node3&#45;&gt;Node13</title>
<g id="a_edge14_Node000003_Node000013"><a xlink:title=" ">
<path fill="none" stroke="#63b8ff" d="M883.77,-340.93C631.5,-316.88 564.99,-333.45 317,-305 313.92,-304.65 310.77,-304.26 307.6,-303.84"/>
<polygon fill="#63b8ff" stroke="#63b8ff" points="883.69,-344.44 893.98,-341.92 884.37,-337.47 883.69,-344.44"/>
</a>
</g>
</g>
<!-- Node14 -->
<g id="Node000014" class="node">
<title>Node14</title>
<g id="a_Node000014"><a xlink:href="_post_method_8hpp.html" target="_top" xlink:title=" ">
<polygon fill="white" stroke="#666666" points="1489.5,-305 1346.5,-305 1346.5,-275 1489.5,-275 1489.5,-305"/>
<text text-anchor="start" x="1354.5" y="-293" font-family="Helvetica,sans-Serif" font-size="10.00">include/Thoth/Http</text>
<text text-anchor="middle" x="1418" y="-282" font-family="Helvetica,sans-Serif" font-size="10.00">/Methods/PostMethod.hpp</text>
</a>
</g>
</g>
<!-- Node3&#45;&gt;Node14 -->
<g id="edge15_Node000003_Node000014" class="edge">
<title>Node3&#45;&gt;Node14</title>
<g id="a_edge15_Node000003_Node000014"><a xlink:title=" ">
<path fill="none" stroke="#63b8ff" d="M1097.98,-340.32C1166.41,-330.73 1257.01,-317.69 1337,-305 1340.1,-304.51 1343.27,-304 1346.46,-303.47"/>
<polygon fill="#63b8ff" stroke="#63b8ff" points="1097.47,-336.86 1088.05,-341.71 1098.44,-343.79 1097.47,-336.86"/>
</a>
</g>
</g>
<!-- Node15 -->
<g id="Node000015" class="node">
<title>Node15</title>
<g id="a_Node000015"><a xlink:href="_put_method_8hpp.html" target="_top" xlink:title=" ">
<polygon fill="white" stroke="#666666" points="464,-305 326,-305 326,-275 464,-275 464,-305"/>
<text text-anchor="start" x="334" y="-293" font-family="Helvetica,sans-Serif" font-size="10.00">include/Thoth/Http</text>
<text text-anchor="middle" x="395" y="-282" font-family="Helvetica,sans-Serif" font-size="10.00">/Methods/PutMethod.hpp</text>
</a>
</g>
</g>
<!-- Node3&#45;&gt;Node15 -->
<g id="edge18_Node000003_Node000015" class="edge">
<title>Node3&#45;&gt;Node15</title>
<g id="a_edge18_Node000003_Node000015"><a xlink:title=" ">
<path fill="none" stroke="#63b8ff" d="M884,-340.93C700.59,-321.24 652,-328.83 473,-305 470.14,-304.62 467.22,-304.21 464.27,-303.77"/>
<polygon fill="#63b8ff" stroke="#63b8ff" points="883.66,-344.41 893.97,-342.01 884.41,-337.45 883.66,-344.41"/>
</a>
</g>
</g>
<!-- Node16 -->
<g id="Node000016" class="node">
<title>Node16</title>
<g id="a_Node000016"><a xlink:href="_trace_method_8hpp.html" target="_top" xlink:title=" ">
<polygon fill="white" stroke="#666666" points="630,-305 482,-305 482,-275 630,-275 630,-305"/>
<text text-anchor="start" x="490" y="-293" font-family="Helvetica,sans-Serif" font-size="10.00">include/Thoth/Http</text>
<text text-anchor="middle" x="556" y="-282" font-family="Helvetica,sans-Serif" font-size="10.00">/Methods/TraceMethod.hpp</text>
</a>
</g>
</g>
<!-- Node3&#45;&gt;Node16 -->
<g id="edge19_Node000003_Node000016" class="edge">
<title>Node3&#45;&gt;Node16</title>
<g id="a_edge19_Node000003_Node000016"><a xlink:title=" ">
<path fill="none" stroke="#63b8ff" d="M883.66,-340.49C813.88,-330.88 720.97,-317.73 639,-305 636.11,-304.55 633.17,-304.09 630.2,-303.61"/>
<polygon fill="#63b8ff" stroke="#63b8ff" points="883.4,-343.99 893.78,-341.88 884.35,-337.05 883.4,-343.99"/>
</a>
</g>
</g>
<!-- Node7 -->
<g id="Node000007" class="node">
<title>Node7</title>
<g id="a_Node000007"><a xlink:href="_request_8hpp.html" target="_top" xlink:title=" ">
<polygon fill="white" stroke="#666666" points="1527.5,-233.5 1404.5,-233.5 1404.5,-203.5 1527.5,-203.5 1527.5,-233.5"/>
<text text-anchor="start" x="1412.5" y="-221.5" font-family="Helvetica,sans-Serif" font-size="10.00">include/Thoth/Http</text>
<text text-anchor="middle" x="1466" y="-210.5" font-family="Helvetica,sans-Serif" font-size="10.00">/Request/Request.hpp</text>
</a>
</g>
</g>
<!-- Node6&#45;&gt;Node7 -->
<g id="edge6_Node000006_Node000007" class="edge">
<title>Node6&#45;&gt;Node7</title>
<g id="a_edge6_Node000006_Node000007"><a xlink:title=" ">
<path fill="none" stroke="#63b8ff" d="M150.39,-274.98C682.87,-221.09 823.13,-291.89 1352,-239 1369.08,-237.29 1387.47,-234.55 1404.39,-231.65"/>
<polygon fill="#63b8ff" stroke="#63b8ff" points="149.73,-271.53 140.14,-276.02 150.44,-278.49 149.73,-271.53"/>
</a>
</g>
</g>
<!-- Node10 -->
<g id="Node000010" class="node">
<title>Node10</title>
<g id="a_Node000010"><a xlink:href="_response_8hpp.html" target="_top" xlink:title=" ">
<polygon fill="white" stroke="#666666" points="1466,-96 1328,-96 1328,-66 1466,-66 1466,-96"/>
<text text-anchor="start" x="1336" y="-84" font-family="Helvetica,sans-Serif" font-size="10.00">include/Thoth/Http</text>
<text text-anchor="middle" x="1397" y="-73" font-family="Helvetica,sans-Serif" font-size="10.00">/Response/Response.hpp</text>
</a>
</g>
</g>
<!-- Node6&#45;&gt;Node10 -->
<g id="edge11_Node000006_Node000010" class="edge">
<title>Node6&#45;&gt;Node10</title>
<g id="a_edge11_Node000006_Node000010"><a xlink:title=" ">
<path fill="none" stroke="#63b8ff" d="M150.27,-274.81C605.7,-199.36 1140.35,-119.78 1327.92,-92.14"/>
<polygon fill="#63b8ff" stroke="#63b8ff" points="149.49,-271.39 140.2,-276.48 150.64,-278.29 149.49,-271.39"/>
</a>
</g>
</g>
<!-- Node8 -->
<g id="Node000008" class="node">
<title>Node8</title>
<g id="a_Node000008"><a xlink:href="_client_8hpp.html" target="_top" xlink:title=" ">
<polygon fill="white" stroke="#666666" points="1401.5,-30 1294.5,-30 1294.5,0 1401.5,0 1401.5,-30"/>
<text text-anchor="start" x="1302.5" y="-18" font-family="Helvetica,sans-Serif" font-size="10.00">include/Thoth/Http</text>
<text text-anchor="middle" x="1348" y="-7" font-family="Helvetica,sans-Serif" font-size="10.00">/Client.hpp</text>
</a>
</g>
</g>
<!-- Node7&#45;&gt;Node8 -->
<g id="edge7_Node000007_Node000008" class="edge">
<title>Node7&#45;&gt;Node8</title>
<g id="a_edge7_Node000007_Node000008"><a xlink:title=" ">
<path fill="none" stroke="#63b8ff" d="M1427.02,-198.43C1391.25,-178.47 1340.63,-143.43 1319,-96 1308.76,-73.55 1324.22,-46.35 1336.21,-30.15"/>
<polygon fill="#63b8ff" stroke="#63b8ff" points="1425.77,-201.73 1436.23,-203.41 1429.1,-195.57 1425.77,-201.73"/>
</a>
</g>
</g>
<!-- Node7&#45;&gt;Node9 -->
<g id="edge8_Node000007_Node000009" class="edge">
<title>Node7&#45;&gt;Node9</title>
<g id="a_edge8_Node000007_Node000009"><a xlink:title=" ">
<path fill="none" stroke="#63b8ff" d="M1472.88,-193.58C1475.91,-183.06 1479.36,-171.08 1481.96,-162.04"/>
<polygon fill="#63b8ff" stroke="#63b8ff" points="1469.45,-192.86 1470.05,-203.44 1476.18,-194.79 1469.45,-192.86"/>
</a>
</g>
</g>
<!-- Node9&#45;&gt;Node10 -->
<g id="edge9_Node000009_Node000010" class="edge">
<title>Node9&#45;&gt;Node10</title>
<g id="a_edge9_Node000009_Node000010"><a xlink:title=" ">
<path fill="none" stroke="#63b8ff" d="M1457.84,-125.75C1444.46,-116.13 1428.78,-104.86 1416.7,-96.16"/>
<polygon fill="#63b8ff" stroke="#63b8ff" points="1456.09,-128.8 1466.25,-131.8 1460.17,-123.12 1456.09,-128.8"/>
</a>
</g>
</g>
<!-- Node10&#45;&gt;Node8 -->
<g id="edge10_Node000010_Node000008" class="edge">
<title>Node10&#45;&gt;Node8</title>
<g id="a_edge10_Node000010_Node000008"><a xlink:title=" ">
<path fill="none" stroke="#63b8ff" d="M1380.01,-57.81C1372.99,-48.64 1365.06,-38.28 1358.84,-30.16"/>
<polygon fill="#63b8ff" stroke="#63b8ff" points="1377.27,-59.98 1386.13,-65.8 1382.83,-55.73 1377.27,-59.98"/>
</a>
</g>
</g>
<!-- Node14&#45;&gt;Node7 -->
<g id="edge16_Node000014_Node000007" class="edge">
<title>Node14&#45;&gt;Node7</title>
<g id="a_edge16_Node000014_Node000007"><a xlink:title=" ">
<path fill="none" stroke="#63b8ff" d="M1433.4,-266.71C1440.92,-255.82 1449.73,-243.05 1456.3,-233.54"/>
<polygon fill="#63b8ff" stroke="#63b8ff" points="1430.52,-264.72 1427.71,-274.94 1436.28,-268.7 1430.52,-264.72"/>
</a>
</g>
</g>
<!-- Node14&#45;&gt;Node10 -->
<g id="edge17_Node000014_Node000010" class="edge">
<title>Node14&#45;&gt;Node10</title>
<g id="a_edge17_Node000014_Node000010"><a xlink:title=" ">
<path fill="none" stroke="#63b8ff" d="M1405.3,-265.42C1401.56,-257.29 1397.95,-247.96 1396,-239 1384.78,-187.32 1391.14,-123.81 1394.88,-96.07"/>
<polygon fill="#63b8ff" stroke="#63b8ff" points="1402.29,-267.21 1409.83,-274.65 1408.57,-264.13 1402.29,-267.21"/>
</a>
</g>
</g>
<!-- Node19&#45;&gt;Node7 -->
<g id="edge23_Node000019_Node000007" class="edge">
<title>Node19&#45;&gt;Node7</title>
<g id="a_edge23_Node000019_Node000007"><a xlink:title=" ">
<path fill="none" stroke="#63b8ff" d="M1466.6,-335.99C1479.4,-328.36 1491.75,-318.17 1499,-305 1512.12,-281.17 1492.99,-251.02 1478.84,-233.64"/>
<polygon fill="#63b8ff" stroke="#63b8ff" points="1464.79,-332.99 1457.72,-340.88 1468.17,-339.12 1464.79,-332.99"/>
</a>
</g>
</g>
<!-- Node20&#45;&gt;Node10 -->
<g id="edge25_Node000020_Node000010" class="edge">
<title>Node20&#45;&gt;Node10</title>
<g id="a_edge25_Node000020_Node000010"><a xlink:title=" ">
<path fill="none" stroke="#63b8ff" d="M1645.49,-190.27C1628.49,-171.36 1603.61,-146.98 1577,-132 1542.94,-112.83 1501.06,-100.63 1466.28,-93.09"/>
<polygon fill="#63b8ff" stroke="#63b8ff" points="1643.04,-192.78 1652.27,-197.99 1648.3,-188.16 1643.04,-192.78"/>
</a>
</g>
</g>
<!-- Node22 -->
<g id="Node000022" class="node">
<title>Node22</title>
<g id="a_Node000022"><a xlink:href="_headers_2__pch_8hpp.html" target="_top" xlink:title=" ">
<polygon fill="white" stroke="#666666" points="1495,-503 1337,-503 1337,-473 1495,-473 1495,-503"/>
<text text-anchor="start" x="1345" y="-491" font-family="Helvetica,sans-Serif" font-size="10.00">include/Thoth/Http</text>
<text text-anchor="middle" x="1416" y="-480" font-family="Helvetica,sans-Serif" font-size="10.00">/NHeaders/Headers/_pch.hpp</text>
</a>
</g>
</g>
<!-- Node21&#45;&gt;Node22 -->
<g id="edge28_Node000021_Node000022" class="edge">
<title>Node21&#45;&gt;Node22</title>
<g id="a_edge28_Node000021_Node000022"><a xlink:title=" ">
<path fill="none" stroke="#63b8ff" d="M1411.64,-528.83C1412.59,-520.17 1413.63,-510.7 1414.45,-503.16"/>
<polygon fill="#63b8ff" stroke="#63b8ff" points="1408.16,-528.48 1410.55,-538.8 1415.12,-529.24 1408.16,-528.48"/>
</a>
</g>
</g>
<!-- Node22&#45;&gt;Node2 -->
<g id="edge29_Node000022_Node000002" class="edge">
<title>Node22&#45;&gt;Node2</title>
<g id="a_edge29_Node000022_Node000002"><a xlink:title=" ">
<path fill="none" stroke="#63b8ff" d="M1439.71,-465.92C1450.33,-456.49 1462.57,-445.61 1472.07,-437.16"/>
<polygon fill="#63b8ff" stroke="#63b8ff" points="1437.13,-463.54 1431.98,-472.8 1441.78,-468.77 1437.13,-463.54"/>
</a>
</g>
</g>
</g>
</svg>
