<?xml version="1.0" encoding="UTF-8" standalone="no"?>
<!DOCTYPE svg PUBLIC "-//W3C//DTD SVG 1.1//EN"
 "http://www.w3.org/Graphics/SVG/1.1/DTD/svg11.dtd">
<!-- Generated by graphviz version 2.43.0 (0)
 -->
<!-- Title: include/Thoth/Http/NHeaders/Proxy/_base.hpp Pages: 1 -->
<svg width="2013pt" height="511pt"
 viewBox="0.00 0.00 2012.61 511.00" xmlns="http://www.w3.org/2000/svg" xmlns:xlink="http://www.w3.org/1999/xlink">
<g id="graph0" class="graph" transform="scale(1 1) rotate(0) translate(4 507)">
<title>include/Thoth/Http/NHeaders/Proxy/_base.hpp</title>
<!-- Node1 -->
<g id="Node000001" class="node">
<title>Node1</title>
<g id="a_Node000001"><a xlink:title=" ">
<polygon fill="#999999" stroke="#666666" points="1803.11,-503 1652.11,-503 1652.11,-473 1803.11,-473 1803.11,-503"/>
<text text-anchor="start" x="1660.11" y="-491" font-family="Helvetica,sans-Serif" font-size="10.00">include/Thoth/Http</text>
<text text-anchor="middle" x="1727.61" y="-480" font-family="Helvetica,sans-Serif" font-size="10.00">/NHeaders/Proxy/_base.hpp</text>
</a>
</g>
</g>
<!-- Node2 -->
<g id="Node000002" class="node">
<title>Node2</title>
<g id="a_Node000002"><a xlink:href="_headers_8hpp.html" target="_top" xlink:title=" ">
<polygon fill="white" stroke="#666666" points="1663.61,-437 1531.61,-437 1531.61,-407 1663.61,-407 1663.61,-437"/>
<text text-anchor="start" x="1539.61" y="-425" font-family="Helvetica,sans-Serif" font-size="10.00">include/Thoth/Http</text>
<text text-anchor="middle" x="1597.61" y="-414" font-family="Helvetica,sans-Serif" font-size="10.00">/NHeaders/Headers.hpp</text>
</a>
</g>
</g>
<!-- Node1&#45;&gt;Node2 -->
<g id="edge1_Node000001_Node000002" class="edge">
<title>Node1&#45;&gt;Node2</title>
<g id="a_edge1_Node000001_Node000002"><a xlink:title=" ">
<path fill="none" stroke="#63b8ff" d="M1690.06,-468.51C1669.67,-458.47 1644.86,-446.26 1626.08,-437.01"/>
<polygon fill="#63b8ff" stroke="#63b8ff" points="1688.57,-471.68 1699.08,-472.95 1691.66,-465.4 1688.57,-471.68"/>
</a>
</g>
</g>
<!-- Node18 -->
<g id="Node000018" class="node">
<title>Node18</title>
<g id="a_Node000018"><a xlink:href="_list_proxy_8hpp.html" target="_top" xlink:title=" ">
<polygon fill="white" stroke="#666666" points="1810.61,-371 1644.61,-371 1644.61,-341 1810.61,-341 1810.61,-371"/>
<text text-anchor="start" x="1652.61" y="-359" font-family="Helvetica,sans-Serif" font-size="10.00">include/Thoth/Http</text>
<text text-anchor="middle" x="1727.61" y="-348" font-family="Helvetica,sans-Serif" font-size="10.00">/NHeaders/Proxy/ListProxy.hpp</text>
</a>
</g>
</g>
<!-- Node1&#45;&gt;Node18 -->
<g id="edge30_Node000001_Node000018" class="edge">
<title>Node1&#45;&gt;Node18</title>
<g id="a_edge30_Node000001_Node000018"><a xlink:title=" ">
<path fill="none" stroke="#63b8ff" d="M1727.61,-462.68C1727.61,-435.7 1727.61,-393.11 1727.61,-371.14"/>
<polygon fill="#63b8ff" stroke="#63b8ff" points="1724.11,-462.84 1727.61,-472.84 1731.11,-462.84 1724.11,-462.84"/>
</a>
</g>
</g>
<!-- Node19 -->
<g id="Node000019" class="node">
<title>Node19</title>
<g id="a_Node000019"><a xlink:href="_value_proxy_8hpp.html" target="_top" xlink:title=" ">
<polygon fill="white" stroke="#666666" points="2004.61,-371 1828.61,-371 1828.61,-341 2004.61,-341 2004.61,-371"/>
<text text-anchor="start" x="1836.61" y="-359" font-family="Helvetica,sans-Serif" font-size="10.00">include/Thoth/Http</text>
<text text-anchor="middle" x="1916.61" y="-348" font-family="Helvetica,sans-Serif" font-size="10.00">/NHeaders/Proxy/ValueProxy.hpp</text>
</a>
</g>
</g>
<!-- Node1&#45;&gt;Node19 -->
<g id="edge31_Node000001_Node000019" class="edge">
<title>Node1&#45;&gt;Node19</title>
<g id="a_edge31_Node000001_Node000019"><a xlink:title=" ">
<path fill="none" stroke="#63b8ff" d="M1756.9,-466.85C1795.5,-440.31 1862.41,-394.28 1896.05,-371.14"/>
<polygon fill="#63b8ff" stroke="#63b8ff" points="1754.46,-464.29 1748.2,-472.84 1758.42,-470.06 1754.46,-464.29"/>
</a>
</g>
</g>
<!-- Node3 -->
<g id="Node000003" class="node">
<title>Node3</title>
<g id="a_Node000003"><a xlink:href="_file_output_range_8hpp.html" target="_top" xlink:title=" ">
<polygon fill="white" stroke="#666666" points="1764.61,-239 1606.61,-239 1606.61,-209 1764.61,-209 1764.61,-239"/>
<text text-anchor="start" x="1614.61" y="-227" font-family="Helvetica,sans-Serif" font-size="10.00">include/Thoth/Dsa/FileOutput</text>
<text text-anchor="middle" x="1685.61" y="-216" font-family="Helvetica,sans-Serif" font-size="10.00">Range.hpp</text>
</a>
</g>
</g>
<!-- Node2&#45;&gt;Node3 -->
<g id="edge2_Node000002_Node000003" class="edge">
<title>Node2&#45;&gt;Node3</title>
<g id="a_edge2_Node000002_Node000003"><a xlink:title=" ">
<path fill="none" stroke="#63b8ff" d="M1608.08,-397.68C1626.51,-356.64 1664.2,-272.7 1679.22,-239.23"/>
<polygon fill="#63b8ff" stroke="#63b8ff" points="1604.85,-396.35 1603.94,-406.9 1611.23,-399.22 1604.85,-396.35"/>
</a>
</g>
</g>
<!-- Node6 -->
<g id="Node000006" class="node">
<title>Node6</title>
<g id="a_Node000006"><a xlink:href="_method_concept_8hpp.html" target="_top" xlink:title=" ">
<polygon fill="white" stroke="#666666" points="952.61,-371 758.61,-371 758.61,-341 952.61,-341 952.61,-371"/>
<text text-anchor="start" x="766.61" y="-359" font-family="Helvetica,sans-Serif" font-size="10.00">include/Thoth/Http</text>
<text text-anchor="middle" x="855.61" y="-348" font-family="Helvetica,sans-Serif" font-size="10.00">/Methods/_base/MethodConcept.hpp</text>
</a>
</g>
</g>
<!-- Node2&#45;&gt;Node6 -->
<g id="edge6_Node000002_Node000006" class="edge">
<title>Node2&#45;&gt;Node6</title>
<g id="a_edge6_Node000002_Node000006"><a xlink:title=" ">
<path fill="none" stroke="#63b8ff" d="M1521.13,-414.4C1385.26,-402.68 1102.11,-378.26 952.72,-365.38"/>
<polygon fill="#63b8ff" stroke="#63b8ff" points="1521.18,-417.92 1531.44,-415.29 1521.78,-410.95 1521.18,-417.92"/>
</a>
</g>
</g>
<!-- Node11 -->
<g id="Node000011" class="node">
<title>Node11</title>
<g id="a_Node000011"><a xlink:href="_response_head_8hpp.html" target="_top" xlink:title=" ">
<polygon fill="white" stroke="#666666" points="1416.61,-167.5 1252.61,-167.5 1252.61,-137.5 1416.61,-137.5 1416.61,-167.5"/>
<text text-anchor="start" x="1260.61" y="-155.5" font-family="Helvetica,sans-Serif" font-size="10.00">include/Thoth/Http</text>
<text text-anchor="middle" x="1334.61" y="-144.5" font-family="Helvetica,sans-Serif" font-size="10.00">/Response/ResponseHead.hpp</text>
</a>
</g>
</g>
<!-- Node2&#45;&gt;Node11 -->
<g id="edge29_Node000002_Node000011" class="edge">
<title>Node2&#45;&gt;Node11</title>
<g id="a_edge29_Node000002_Node000011"><a xlink:title=" ">
<path fill="none" stroke="#63b8ff" d="M1589.56,-397.15C1578.22,-366.21 1555.1,-311.87 1521.61,-275 1476.33,-225.13 1406.21,-186.92 1365.94,-167.56"/>
<polygon fill="#63b8ff" stroke="#63b8ff" points="1586.31,-398.43 1592.96,-406.68 1592.9,-396.08 1586.31,-398.43"/>
</a>
</g>
</g>
<!-- Node2&#45;&gt;Node18 -->
<g id="edge23_Node000002_Node000018" class="edge">
<title>Node2&#45;&gt;Node18</title>
<g id="a_edge23_Node000002_Node000018"><a xlink:title=" ">
<path fill="none" stroke="#63b8ff" d="M1635.16,-402.51C1655.56,-392.47 1680.37,-380.26 1699.15,-371.01"/>
<polygon fill="#63b8ff" stroke="#63b8ff" points="1633.57,-399.4 1626.14,-406.95 1636.66,-405.68 1633.57,-399.4"/>
</a>
</g>
</g>
<!-- Node2&#45;&gt;Node19 -->
<g id="edge24_Node000002_Node000019" class="edge">
<title>Node2&#45;&gt;Node19</title>
<g id="a_edge24_Node000002_Node000019"><a xlink:title=" ">
<path fill="none" stroke="#63b8ff" d="M1673.65,-405.74C1726.2,-395.2 1795.57,-381.28 1846.73,-371.02"/>
<polygon fill="#63b8ff" stroke="#63b8ff" points="1672.83,-402.34 1663.71,-407.74 1674.2,-409.2 1672.83,-402.34"/>
</a>
</g>
</g>
<!-- Node20 -->
<g id="Node000020" class="node">
<title>Node20</title>
<g id="a_Node000020"><a xlink:href="_request_headers_8hpp.html" target="_top" xlink:title=" ">
<polygon fill="white" stroke="#666666" points="379.11,-371 164.11,-371 164.11,-341 379.11,-341 379.11,-371"/>
<text text-anchor="start" x="172.11" y="-359" font-family="Helvetica,sans-Serif" font-size="10.00">include/Thoth/Http</text>
<text text-anchor="middle" x="271.61" y="-348" font-family="Helvetica,sans-Serif" font-size="10.00">/NHeaders/Request/RequestHeaders.hpp</text>
</a>
</g>
</g>
<!-- Node2&#45;&gt;Node20 -->
<g id="edge25_Node000002_Node000020" class="edge">
<title>Node2&#45;&gt;Node20</title>
<g id="a_edge25_Node000002_Node000020"><a xlink:title=" ">
<path fill="none" stroke="#63b8ff" d="M1521.38,-417.32C1297.23,-406.5 639.77,-374.77 379.49,-362.21"/>
<polygon fill="#63b8ff" stroke="#63b8ff" points="1521.25,-420.82 1531.4,-417.8 1521.58,-413.83 1521.25,-420.82"/>
</a>
</g>
</g>
<!-- Node21 -->
<g id="Node000021" class="node">
<title>Node21</title>
<g id="a_Node000021"><a xlink:href="_response_headers_8hpp.html" target="_top" xlink:title=" ">
<polygon fill="white" stroke="#666666" points="1643.61,-173 1475.61,-173 1475.61,-132 1643.61,-132 1643.61,-173"/>
<text text-anchor="start" x="1483.61" y="-161" font-family="Helvetica,sans-Serif" font-size="10.00">include/Thoth/Http</text>
<text text-anchor="start" x="1483.61" y="-150" font-family="Helvetica,sans-Serif" font-size="10.00">/NHeaders/Response/Response</text>
<text text-anchor="middle" x="1559.61" y="-139" font-family="Helvetica,sans-Serif" font-size="10.00">Headers.hpp</text>
</a>
</g>
</g>
<!-- Node2&#45;&gt;Node21 -->
<g id="edge27_Node000002_Node000021" class="edge">
<title>Node2&#45;&gt;Node21</title>
<g id="a_edge27_Node000002_Node000021"><a xlink:title=" ">
<path fill="none" stroke="#63b8ff" d="M1594.2,-396.97C1586.77,-344.69 1569.27,-221.46 1562.42,-173.29"/>
<polygon fill="#63b8ff" stroke="#63b8ff" points="1590.75,-397.59 1595.62,-406.99 1597.68,-396.6 1590.75,-397.59"/>
</a>
</g>
</g>
<!-- Node3&#45;&gt;Node3 -->
<g id="edge3_Node000003_Node000003" class="edge">
<title>Node3&#45;&gt;Node3</title>
<g id="a_edge3_Node000003_Node000003"><a xlink:title=" ">
<path fill="none" stroke="#63b8ff" d="M1774.77,-232.29C1779.69,-230.27 1782.61,-227.51 1782.61,-224 1782.61,-218.52 1775.48,-214.86 1764.78,-213.02"/>
<polygon fill="#63b8ff" stroke="#63b8ff" points="1773.52,-229 1764.78,-234.98 1775.34,-235.76 1773.52,-229"/>
</a>
</g>
</g>
<!-- Node4 -->
<g id="Node000004" class="node">
<title>Node4</title>
<g id="a_Node000004"><a xlink:href="_response_8hpp.html" target="_top" xlink:title=" ">
<polygon fill="white" stroke="#666666" points="1458.61,-96 1320.61,-96 1320.61,-66 1458.61,-66 1458.61,-96"/>
<text text-anchor="start" x="1328.61" y="-84" font-family="Helvetica,sans-Serif" font-size="10.00">include/Thoth/Http</text>
<text text-anchor="middle" x="1389.61" y="-73" font-family="Helvetica,sans-Serif" font-size="10.00">/Response/Response.hpp</text>
</a>
</g>
</g>
<!-- Node3&#45;&gt;Node4 -->
<g id="edge4_Node000003_Node000004" class="edge">
<title>Node3&#45;&gt;Node4</title>
<g id="a_edge4_Node000003_Node000004"><a xlink:title=" ">
<path fill="none" stroke="#63b8ff" d="M1683.41,-198.87C1680.18,-178.03 1672.23,-148.7 1652.61,-132 1624,-107.63 1526.55,-94.09 1458.67,-87.43"/>
<polygon fill="#63b8ff" stroke="#63b8ff" points="1679.95,-199.42 1684.7,-208.89 1686.89,-198.52 1679.95,-199.42"/>
</a>
</g>
</g>
<!-- Node5 -->
<g id="Node000005" class="node">
<title>Node5</title>
<g id="a_Node000005"><a xlink:href="_client_8hpp.html" target="_top" xlink:title=" ">
<polygon fill="white" stroke="#666666" points="1333.11,-30 1226.11,-30 1226.11,0 1333.11,0 1333.11,-30"/>
<text text-anchor="start" x="1234.11" y="-18" font-family="Helvetica,sans-Serif" font-size="10.00">include/Thoth/Http</text>
<text text-anchor="middle" x="1279.61" y="-7" font-family="Helvetica,sans-Serif" font-size="10.00">/Client.hpp</text>
</a>
</g>
</g>
<!-- Node4&#45;&gt;Node5 -->
<g id="edge5_Node000004_Node000005" class="edge">
<title>Node4&#45;&gt;Node5</title>
<g id="a_edge5_Node000004_Node000005"><a xlink:title=" ">
<path fill="none" stroke="#63b8ff" d="M1356.43,-60.69C1339.45,-50.82 1319.16,-39.01 1303.7,-30.01"/>
<polygon fill="#63b8ff" stroke="#63b8ff" points="1355.07,-63.95 1365.47,-65.95 1358.59,-57.9 1355.07,-63.95"/>
</a>
</g>
</g>
<!-- Node7 -->
<g id="Node000007" class="node">
<title>Node7</title>
<g id="a_Node000007"><a xlink:href="_connect_method_8hpp.html" target="_top" xlink:title=" ">
<polygon fill="white" stroke="#666666" points="674.61,-305 512.61,-305 512.61,-275 674.61,-275 674.61,-305"/>
<text text-anchor="start" x="520.61" y="-293" font-family="Helvetica,sans-Serif" font-size="10.00">include/Thoth/Http</text>
<text text-anchor="middle" x="593.61" y="-282" font-family="Helvetica,sans-Serif" font-size="10.00">/Methods/ConnectMethod.hpp</text>
</a>
</g>
</g>
<!-- Node6&#45;&gt;Node7 -->
<g id="edge7_Node000006_Node000007" class="edge">
<title>Node6&#45;&gt;Node7</title>
<g id="a_edge7_Node000006_Node000007"><a xlink:title=" ">
<path fill="none" stroke="#63b8ff" d="M788.14,-338.52C745.64,-328.14 691.39,-314.88 650.98,-305.01"/>
<polygon fill="#63b8ff" stroke="#63b8ff" points="787.57,-341.98 798.12,-340.95 789.23,-335.18 787.57,-341.98"/>
</a>
</g>
</g>
<!-- Node8 -->
<g id="Node000008" class="node">
<title>Node8</title>
<g id="a_Node000008"><a xlink:href="_delete_method_8hpp.html" target="_top" xlink:title=" ">
<polygon fill="white" stroke="#666666" points="848.11,-305 693.11,-305 693.11,-275 848.11,-275 848.11,-305"/>
<text text-anchor="start" x="701.11" y="-293" font-family="Helvetica,sans-Serif" font-size="10.00">include/Thoth/Http</text>
<text text-anchor="middle" x="770.61" y="-282" font-family="Helvetica,sans-Serif" font-size="10.00">/Methods/DeleteMethod.hpp</text>
</a>
</g>
</g>
<!-- Node6&#45;&gt;Node8 -->
<g id="edge8_Node000006_Node000008" class="edge">
<title>Node6&#45;&gt;Node8</title>
<g id="a_edge8_Node000006_Node000008"><a xlink:title=" ">
<path fill="none" stroke="#63b8ff" d="M828.72,-334.75C815.94,-325.13 800.97,-313.86 789.43,-305.16"/>
<polygon fill="#63b8ff" stroke="#63b8ff" points="826.66,-337.58 836.75,-340.8 830.87,-331.99 826.66,-337.58"/>
</a>
</g>
</g>
<!-- Node9 -->
<g id="Node000009" class="node">
<title>Node9</title>
<g id="a_Node000009"><a xlink:href="_get_method_8hpp.html" target="_top" xlink:title=" ">
<polygon fill="white" stroke="#666666" points="1512.61,-305 1372.61,-305 1372.61,-275 1512.61,-275 1512.61,-305"/>
<text text-anchor="start" x="1380.61" y="-293" font-family="Helvetica,sans-Serif" font-size="10.00">include/Thoth/Http</text>
<text text-anchor="middle" x="1442.61" y="-282" font-family="Helvetica,sans-Serif" font-size="10.00">/Methods/GetMethod.hpp</text>
</a>
</g>
</g>
<!-- Node6&#45;&gt;Node9 -->
<g id="edge9_Node000006_Node000009" class="edge">
<title>Node6&#45;&gt;Node9</title>
<g id="a_edge9_Node000006_Node000009"><a xlink:title=" ">
<path fill="none" stroke="#63b8ff" d="M962.89,-346.86C1065.9,-338.48 1225.76,-323.97 1363.61,-305 1366.51,-304.6 1369.47,-304.17 1372.45,-303.72"/>
<polygon fill="#63b8ff" stroke="#63b8ff" points="962.47,-343.39 952.79,-347.68 963.04,-350.36 962.47,-343.39"/>
</a>
</g>
</g>
<!-- Node12 -->
<g id="Node000012" class="node">
<title>Node12</title>
<g id="a_Node000012"><a xlink:href="_head_method_8hpp.html" target="_top" xlink:title=" ">
<polygon fill="white" stroke="#666666" points="1014.61,-305 866.61,-305 866.61,-275 1014.61,-275 1014.61,-305"/>
<text text-anchor="start" x="874.61" y="-293" font-family="Helvetica,sans-Serif" font-size="10.00">include/Thoth/Http</text>
<text text-anchor="middle" x="940.61" y="-282" font-family="Helvetica,sans-Serif" font-size="10.00">/Methods/HeadMethod.hpp</text>
</a>
</g>
</g>
<!-- Node6&#45;&gt;Node12 -->
<g id="edge15_Node000006_Node000012" class="edge">
<title>Node6&#45;&gt;Node12</title>
<g id="a_edge15_Node000006_Node000012"><a xlink:title=" ">
<path fill="none" stroke="#63b8ff" d="M882.5,-334.75C895.29,-325.13 910.26,-313.86 921.8,-305.16"/>
<polygon fill="#63b8ff" stroke="#63b8ff" points="880.36,-331.99 874.48,-340.8 884.57,-337.58 880.36,-331.99"/>
</a>
</g>
</g>
<!-- Node13 -->
<g id="Node000013" class="node">
<title>Node13</title>
<g id="a_Node000013"><a xlink:href="_options_method_8hpp.html" target="_top" xlink:title=" ">
<polygon fill="white" stroke="#666666" points="1354.61,-305 1194.61,-305 1194.61,-275 1354.61,-275 1354.61,-305"/>
<text text-anchor="start" x="1202.61" y="-293" font-family="Helvetica,sans-Serif" font-size="10.00">include/Thoth/Http</text>
<text text-anchor="middle" x="1274.61" y="-282" font-family="Helvetica,sans-Serif" font-size="10.00">/Methods/OptionsMethod.hpp</text>
</a>
</g>
</g>
<!-- Node6&#45;&gt;Node13 -->
<g id="edge16_Node000006_Node000013" class="edge">
<title>Node6&#45;&gt;Node13</title>
<g id="a_edge16_Node000006_Node000013"><a xlink:title=" ">
<path fill="none" stroke="#63b8ff" d="M958.74,-339.42C1023.59,-329.6 1109,-316.63 1184.61,-305 1187.74,-304.52 1190.93,-304.03 1194.15,-303.53"/>
<polygon fill="#63b8ff" stroke="#63b8ff" points="957.88,-336.01 948.51,-340.97 958.92,-342.93 957.88,-336.01"/>
</a>
</g>
</g>
<!-- Node14 -->
<g id="Node000014" class="node">
<title>Node14</title>
<g id="a_Node000014"><a xlink:href="_patch_method_8hpp.html" target="_top" xlink:title=" ">
<polygon fill="white" stroke="#666666" points="172.11,-305 23.11,-305 23.11,-275 172.11,-275 172.11,-305"/>
<text text-anchor="start" x="31.11" y="-293" font-family="Helvetica,sans-Serif" font-size="10.00">include/Thoth/Http</text>
<text text-anchor="middle" x="97.61" y="-282" font-family="Helvetica,sans-Serif" font-size="10.00">/Methods/PatchMethod.hpp</text>
</a>
</g>
</g>
<!-- Node6&#45;&gt;Node14 -->
<g id="edge17_Node000006_Node000014" class="edge">
<title>Node6&#45;&gt;Node14</title>
<g id="a_edge17_Node000006_Node000014"><a xlink:title=" ">
<path fill="none" stroke="#63b8ff" d="M748.32,-350.06C615.08,-343.23 381.02,-328.96 181.61,-305 178.53,-304.63 175.39,-304.23 172.22,-303.8"/>
<polygon fill="#63b8ff" stroke="#63b8ff" points="748.36,-353.57 758.52,-350.58 748.71,-346.58 748.36,-353.57"/>
</a>
</g>
</g>
<!-- Node15 -->
<g id="Node000015" class="node">
<title>Node15</title>
<g id="a_Node000015"><a xlink:href="_post_method_8hpp.html" target="_top" xlink:title=" ">
<polygon fill="white" stroke="#666666" points="1176.11,-305 1033.11,-305 1033.11,-275 1176.11,-275 1176.11,-305"/>
<text text-anchor="start" x="1041.11" y="-293" font-family="Helvetica,sans-Serif" font-size="10.00">include/Thoth/Http</text>
<text text-anchor="middle" x="1104.61" y="-282" font-family="Helvetica,sans-Serif" font-size="10.00">/Methods/PostMethod.hpp</text>
</a>
</g>
</g>
<!-- Node6&#45;&gt;Node15 -->
<g id="edge18_Node000006_Node000015" class="edge">
<title>Node6&#45;&gt;Node15</title>
<g id="a_edge18_Node000006_Node000015"><a xlink:title=" ">
<path fill="none" stroke="#63b8ff" d="M920,-338.45C960.34,-328.08 1011.77,-314.86 1050.1,-305.01"/>
<polygon fill="#63b8ff" stroke="#63b8ff" points="919.07,-335.08 910.26,-340.95 920.81,-341.86 919.07,-335.08"/>
</a>
</g>
</g>
<!-- Node16 -->
<g id="Node000016" class="node">
<title>Node16</title>
<g id="a_Node000016"><a xlink:href="_put_method_8hpp.html" target="_top" xlink:title=" ">
<polygon fill="white" stroke="#666666" points="328.61,-305 190.61,-305 190.61,-275 328.61,-275 328.61,-305"/>
<text text-anchor="start" x="198.61" y="-293" font-family="Helvetica,sans-Serif" font-size="10.00">include/Thoth/Http</text>
<text text-anchor="middle" x="259.61" y="-282" font-family="Helvetica,sans-Serif" font-size="10.00">/Methods/PutMethod.hpp</text>
</a>
</g>
</g>
<!-- Node6&#45;&gt;Node16 -->
<g id="edge21_Node000006_Node000016" class="edge">
<title>Node6&#45;&gt;Node16</title>
<g id="a_edge21_Node000006_Node000016"><a xlink:title=" ">
<path fill="none" stroke="#63b8ff" d="M748.15,-347.19C643.18,-338.96 479.02,-324.48 337.61,-305 334.75,-304.61 331.83,-304.18 328.89,-303.74"/>
<polygon fill="#63b8ff" stroke="#63b8ff" points="748.2,-350.71 758.44,-347.99 748.74,-343.73 748.2,-350.71"/>
</a>
</g>
</g>
<!-- Node17 -->
<g id="Node000017" class="node">
<title>Node17</title>
<g id="a_Node000017"><a xlink:href="_trace_method_8hpp.html" target="_top" xlink:title=" ">
<polygon fill="white" stroke="#666666" points="494.61,-305 346.61,-305 346.61,-275 494.61,-275 494.61,-305"/>
<text text-anchor="start" x="354.61" y="-293" font-family="Helvetica,sans-Serif" font-size="10.00">include/Thoth/Http</text>
<text text-anchor="middle" x="420.61" y="-282" font-family="Helvetica,sans-Serif" font-size="10.00">/Methods/TraceMethod.hpp</text>
</a>
</g>
</g>
<!-- Node6&#45;&gt;Node17 -->
<g id="edge22_Node000006_Node000017" class="edge">
<title>Node6&#45;&gt;Node17</title>
<g id="a_edge22_Node000006_Node000017"><a xlink:title=" ">
<path fill="none" stroke="#63b8ff" d="M748.27,-340.49C678.5,-330.88 585.58,-317.73 503.61,-305 500.73,-304.55 497.78,-304.09 494.81,-303.61"/>
<polygon fill="#63b8ff" stroke="#63b8ff" points="748.01,-343.99 758.4,-341.88 748.97,-337.05 748.01,-343.99"/>
</a>
</g>
</g>
<!-- Node9&#45;&gt;Node4 -->
<g id="edge14_Node000009_Node000004" class="edge">
<title>Node9&#45;&gt;Node4</title>
<g id="a_edge14_Node000009_Node000004"><a xlink:title=" ">
<path fill="none" stroke="#63b8ff" d="M1443.76,-264.45C1444.39,-232.77 1442.64,-176.43 1425.61,-132 1420.48,-118.62 1410.86,-105.54 1402.85,-96.12"/>
<polygon fill="#63b8ff" stroke="#63b8ff" points="1440.26,-264.47 1443.45,-274.57 1447.25,-264.68 1440.26,-264.47"/>
</a>
</g>
</g>
<!-- Node10 -->
<g id="Node000010" class="node">
<title>Node10</title>
<g id="a_Node000010"><a xlink:href="_request_8hpp.html" target="_top" xlink:title=" ">
<polygon fill="white" stroke="#666666" points="1286.11,-239 1163.11,-239 1163.11,-209 1286.11,-209 1286.11,-239"/>
<text text-anchor="start" x="1171.11" y="-227" font-family="Helvetica,sans-Serif" font-size="10.00">include/Thoth/Http</text>
<text text-anchor="middle" x="1224.61" y="-216" font-family="Helvetica,sans-Serif" font-size="10.00">/Request/Request.hpp</text>
</a>
</g>
</g>
<!-- Node9&#45;&gt;Node10 -->
<g id="edge10_Node000009_Node000010" class="edge">
<title>Node9&#45;&gt;Node10</title>
<g id="a_edge10_Node000009_Node000010"><a xlink:title=" ">
<path fill="none" stroke="#63b8ff" d="M1385.12,-272.12C1349.97,-261.8 1305.54,-248.76 1272.34,-239.01"/>
<polygon fill="#63b8ff" stroke="#63b8ff" points="1384.19,-275.5 1394.77,-274.95 1386.16,-268.78 1384.19,-275.5"/>
</a>
</g>
</g>
<!-- Node10&#45;&gt;Node5 -->
<g id="edge11_Node000010_Node000005" class="edge">
<title>Node10&#45;&gt;Node5</title>
<g id="a_edge11_Node000010_Node000005"><a xlink:title=" ">
<path fill="none" stroke="#63b8ff" d="M1229.01,-198.82C1232.52,-180.4 1237.8,-154.46 1243.61,-132 1253.23,-94.85 1267.37,-51.89 1274.74,-30.16"/>
<polygon fill="#63b8ff" stroke="#63b8ff" points="1225.56,-198.24 1227.16,-208.72 1232.44,-199.53 1225.56,-198.24"/>
</a>
</g>
</g>
<!-- Node10&#45;&gt;Node11 -->
<g id="edge12_Node000010_Node000011" class="edge">
<title>Node10&#45;&gt;Node11</title>
<g id="a_edge12_Node000010_Node000011"><a xlink:title=" ">
<path fill="none" stroke="#63b8ff" d="M1255.37,-203.57C1273.49,-192.12 1295.99,-177.9 1312.39,-167.54"/>
<polygon fill="#63b8ff" stroke="#63b8ff" points="1253.46,-200.64 1246.87,-208.94 1257.2,-206.55 1253.46,-200.64"/>
</a>
</g>
</g>
<!-- Node11&#45;&gt;Node4 -->
<g id="edge13_Node000011_Node000004" class="edge">
<title>Node11&#45;&gt;Node4</title>
<g id="a_edge13_Node000011_Node000004"><a xlink:title=" ">
<path fill="none" stroke="#63b8ff" d="M1352,-129.53C1360.67,-118.57 1370.9,-105.65 1378.5,-96.04"/>
<polygon fill="#63b8ff" stroke="#63b8ff" points="1349.2,-127.42 1345.74,-137.44 1354.69,-131.77 1349.2,-127.42"/>
</a>
</g>
</g>
<!-- Node15&#45;&gt;Node4 -->
<g id="edge20_Node000015_Node000004" class="edge">
<title>Node15&#45;&gt;Node4</title>
<g id="a_edge20_Node000015_Node000004"><a xlink:title=" ">
<path fill="none" stroke="#63b8ff" d="M1116.32,-265.75C1125.31,-249.05 1138.68,-226.5 1153.61,-209 1187.78,-168.95 1197.9,-158.1 1243.61,-132 1271.3,-116.19 1304.8,-104.27 1332.72,-96.05"/>
<polygon fill="#63b8ff" stroke="#63b8ff" points="1113.11,-264.34 1111.55,-274.82 1119.3,-267.59 1113.11,-264.34"/>
</a>
</g>
</g>
<!-- Node15&#45;&gt;Node10 -->
<g id="edge19_Node000015_Node000010" class="edge">
<title>Node15&#45;&gt;Node10</title>
<g id="a_edge19_Node000015_Node000010"><a xlink:title=" ">
<path fill="none" stroke="#63b8ff" d="M1139.79,-270.24C1158.51,-260.25 1181.16,-248.18 1198.34,-239.01"/>
<polygon fill="#63b8ff" stroke="#63b8ff" points="1138.12,-267.16 1130.95,-274.95 1141.42,-273.34 1138.12,-267.16"/>
</a>
</g>
</g>
<!-- Node20&#45;&gt;Node10 -->
<g id="edge26_Node000020_Node000010" class="edge">
<title>Node20&#45;&gt;Node10</title>
<g id="a_edge26_Node000020_Node000010"><a xlink:title=" ">
<path fill="none" stroke="#63b8ff" d="M153.7,-351.56C64.22,-344.95 -35.68,-326.37 13.61,-275 53.72,-233.2 921.2,-226.32 1162.71,-225.21"/>
<polygon fill="#63b8ff" stroke="#63b8ff" points="153.49,-355.05 163.71,-352.25 153.97,-348.07 153.49,-355.05"/>
</a>
</g>
</g>
<!-- Node21&#45;&gt;Node4 -->
<g id="edge28_Node000021_Node000004" class="edge">
<title>Node21&#45;&gt;Node4</title>
<g id="a_edge28_Node000021_Node000004"><a xlink:title=" ">
<path fill="none" stroke="#63b8ff" d="M1502.4,-128.11C1476.34,-117.46 1446.36,-105.2 1423.87,-96"/>
<polygon fill="#63b8ff" stroke="#63b8ff" points="1501.23,-131.41 1511.81,-131.96 1503.87,-124.93 1501.23,-131.41"/>
</a>
</g>
</g>
</g>
</svg>
