<?xml version="1.0" encoding="UTF-8" standalone="no"?>
<!DOCTYPE svg PUBLIC "-//W3C//DTD SVG 1.1//EN"
 "http://www.w3.org/Graphics/SVG/1.1/DTD/svg11.dtd">
<!-- Generated by graphviz version 2.43.0 (0)
 -->
<!-- Title: include/Thoth/Http/NHeaders/Proxy/_base.hpp Pages: 1 -->
<svg width="1806pt" height="511pt"
 viewBox="0.00 0.00 1806.00 511.00" xmlns="http://www.w3.org/2000/svg" xmlns:xlink="http://www.w3.org/1999/xlink">
<g id="graph0" class="graph" transform="scale(1 1) rotate(0) translate(4 507)">
<title>include/Thoth/Http/NHeaders/Proxy/_base.hpp</title>
<!-- Node1 -->
<g id="Node000001" class="node">
<title>Node1</title>
<g id="a_Node000001"><a xlink:title=" ">
<polygon fill="#999999" stroke="#666666" points="1544.5,-503 1393.5,-503 1393.5,-473 1544.5,-473 1544.5,-503"/>
<text text-anchor="start" x="1401.5" y="-491" font-family="Helvetica,sans-Serif" font-size="10.00">include/Thoth/Http</text>
<text text-anchor="middle" x="1469" y="-480" font-family="Helvetica,sans-Serif" font-size="10.00">/NHeaders/Proxy/_base.hpp</text>
</a>
</g>
</g>
<!-- Node2 -->
<g id="Node000002" class="node">
<title>Node2</title>
<g id="a_Node000002"><a xlink:href="_headers_8hpp.html" target="_top" xlink:title=" ">
<polygon fill="white" stroke="#666666" points="1535,-437 1403,-437 1403,-407 1535,-407 1535,-437"/>
<text text-anchor="start" x="1411" y="-425" font-family="Helvetica,sans-Serif" font-size="10.00">include/Thoth/Http</text>
<text text-anchor="middle" x="1469" y="-414" font-family="Helvetica,sans-Serif" font-size="10.00">/NHeaders/Headers.hpp</text>
</a>
</g>
</g>
<!-- Node1&#45;&gt;Node2 -->
<g id="edge1_Node000001_Node000002" class="edge">
<title>Node1&#45;&gt;Node2</title>
<g id="a_edge1_Node000001_Node000002"><a xlink:title=" ">
<path fill="none" stroke="#63b8ff" d="M1469,-462.54C1469,-453.96 1469,-444.61 1469,-437.16"/>
<polygon fill="#63b8ff" stroke="#63b8ff" points="1465.5,-462.8 1469,-472.8 1472.5,-462.8 1465.5,-462.8"/>
</a>
</g>
</g>
<!-- Node17 -->
<g id="Node000017" class="node">
<title>Node17</title>
<g id="a_Node000017"><a xlink:href="_list_proxy_8hpp.html" target="_top" xlink:title=" ">
<polygon fill="white" stroke="#666666" points="876,-371 710,-371 710,-341 876,-341 876,-371"/>
<text text-anchor="start" x="718" y="-359" font-family="Helvetica,sans-Serif" font-size="10.00">include/Thoth/Http</text>
<text text-anchor="middle" x="793" y="-348" font-family="Helvetica,sans-Serif" font-size="10.00">/NHeaders/Proxy/ListProxy.hpp</text>
</a>
</g>
</g>
<!-- Node1&#45;&gt;Node17 -->
<g id="edge27_Node000001_Node000017" class="edge">
<title>Node1&#45;&gt;Node17</title>
<g id="a_edge27_Node000001_Node000017"><a xlink:title=" ">
<path fill="none" stroke="#63b8ff" d="M1385.85,-471.01C1252.4,-445.35 992.59,-395.38 865.94,-371.03"/>
<polygon fill="#63b8ff" stroke="#63b8ff" points="1385.53,-474.51 1396.01,-472.96 1386.85,-467.64 1385.53,-474.51"/>
</a>
</g>
</g>
<!-- Node18 -->
<g id="Node000018" class="node">
<title>Node18</title>
<g id="a_Node000018"><a xlink:href="_value_proxy_8hpp.html" target="_top" xlink:title=" ">
<polygon fill="white" stroke="#666666" points="1798,-371 1622,-371 1622,-341 1798,-341 1798,-371"/>
<text text-anchor="start" x="1630" y="-359" font-family="Helvetica,sans-Serif" font-size="10.00">include/Thoth/Http</text>
<text text-anchor="middle" x="1710" y="-348" font-family="Helvetica,sans-Serif" font-size="10.00">/NHeaders/Proxy/ValueProxy.hpp</text>
</a>
</g>
</g>
<!-- Node1&#45;&gt;Node18 -->
<g id="edge28_Node000001_Node000018" class="edge">
<title>Node1&#45;&gt;Node18</title>
<g id="a_edge28_Node000001_Node000018"><a xlink:title=" ">
<path fill="none" stroke="#63b8ff" d="M1504.19,-468.02C1553.03,-441.67 1640.25,-394.62 1683.78,-371.14"/>
<polygon fill="#63b8ff" stroke="#63b8ff" points="1502.39,-465.01 1495.25,-472.84 1505.71,-471.17 1502.39,-465.01"/>
</a>
</g>
</g>
<!-- Node3 -->
<g id="Node000003" class="node">
<title>Node3</title>
<g id="a_Node000003"><a xlink:href="_method_concept_8hpp.html" target="_top" xlink:title=" ">
<polygon fill="white" stroke="#666666" points="1088,-371 894,-371 894,-341 1088,-341 1088,-371"/>
<text text-anchor="start" x="902" y="-359" font-family="Helvetica,sans-Serif" font-size="10.00">include/Thoth/Http</text>
<text text-anchor="middle" x="991" y="-348" font-family="Helvetica,sans-Serif" font-size="10.00">/Methods/_base/MethodConcept.hpp</text>
</a>
</g>
</g>
<!-- Node2&#45;&gt;Node3 -->
<g id="edge2_Node000002_Node000003" class="edge">
<title>Node2&#45;&gt;Node3</title>
<g id="a_edge2_Node000002_Node000003"><a xlink:title=" ">
<path fill="none" stroke="#63b8ff" d="M1392.71,-410.79C1310.06,-399.72 1177.98,-382.03 1088.01,-369.99"/>
<polygon fill="#63b8ff" stroke="#63b8ff" points="1392.41,-414.28 1402.79,-412.13 1393.34,-407.34 1392.41,-414.28"/>
</a>
</g>
</g>
<!-- Node9 -->
<g id="Node000009" class="node">
<title>Node9</title>
<g id="a_Node000009"><a xlink:href="_response_head_8hpp.html" target="_top" xlink:title=" ">
<polygon fill="white" stroke="#666666" points="1568,-162 1404,-162 1404,-132 1568,-132 1568,-162"/>
<text text-anchor="start" x="1412" y="-150" font-family="Helvetica,sans-Serif" font-size="10.00">include/Thoth/Http</text>
<text text-anchor="middle" x="1486" y="-139" font-family="Helvetica,sans-Serif" font-size="10.00">/Response/ResponseHead.hpp</text>
</a>
</g>
</g>
<!-- Node2&#45;&gt;Node9 -->
<g id="edge26_Node000002_Node000009" class="edge">
<title>Node2&#45;&gt;Node9</title>
<g id="a_edge26_Node000002_Node000009"><a xlink:title=" ">
<path fill="none" stroke="#63b8ff" d="M1508.18,-401.44C1519.59,-393.64 1530.67,-383.5 1537,-371 1571.71,-302.39 1566.78,-268.89 1537,-198 1530.85,-183.37 1518.1,-170.87 1506.89,-162.03"/>
<polygon fill="#63b8ff" stroke="#63b8ff" points="1506.05,-398.64 1499.46,-406.94 1509.79,-404.56 1506.05,-398.64"/>
</a>
</g>
</g>
<!-- Node2&#45;&gt;Node17 -->
<g id="edge20_Node000002_Node000017" class="edge">
<title>Node2&#45;&gt;Node17</title>
<g id="a_edge20_Node000002_Node000017"><a xlink:title=" ">
<path fill="none" stroke="#63b8ff" d="M1392.57,-416.06C1280.86,-408.48 1066.53,-392.56 885,-371 882.11,-370.66 879.18,-370.29 876.21,-369.91"/>
<polygon fill="#63b8ff" stroke="#63b8ff" points="1392.52,-419.57 1402.73,-416.75 1392.99,-412.58 1392.52,-419.57"/>
</a>
</g>
</g>
<!-- Node2&#45;&gt;Node18 -->
<g id="edge21_Node000002_Node000018" class="edge">
<title>Node2&#45;&gt;Node18</title>
<g id="a_edge21_Node000002_Node000018"><a xlink:title=" ">
<path fill="none" stroke="#63b8ff" d="M1531.56,-404.39C1570.58,-394.03 1620.22,-380.84 1657.23,-371.01"/>
<polygon fill="#63b8ff" stroke="#63b8ff" points="1530.66,-401.01 1521.89,-406.95 1532.45,-407.77 1530.66,-401.01"/>
</a>
</g>
</g>
<!-- Node19 -->
<g id="Node000019" class="node">
<title>Node19</title>
<g id="a_Node000019"><a xlink:href="_request_headers_8hpp.html" target="_top" xlink:title=" ">
<polygon fill="white" stroke="#666666" points="1527.5,-371 1312.5,-371 1312.5,-341 1527.5,-341 1527.5,-371"/>
<text text-anchor="start" x="1320.5" y="-359" font-family="Helvetica,sans-Serif" font-size="10.00">include/Thoth/Http</text>
<text text-anchor="middle" x="1420" y="-348" font-family="Helvetica,sans-Serif" font-size="10.00">/NHeaders/Request/RequestHeaders.hpp</text>
</a>
</g>
</g>
<!-- Node2&#45;&gt;Node19 -->
<g id="edge22_Node000002_Node000019" class="edge">
<title>Node2&#45;&gt;Node19</title>
<g id="a_edge22_Node000002_Node000019"><a xlink:title=" ">
<path fill="none" stroke="#63b8ff" d="M1452.01,-398.81C1444.99,-389.64 1437.06,-379.28 1430.84,-371.16"/>
<polygon fill="#63b8ff" stroke="#63b8ff" points="1449.27,-400.98 1458.13,-406.8 1454.83,-396.73 1449.27,-400.98"/>
</a>
</g>
</g>
<!-- Node20 -->
<g id="Node000020" class="node">
<title>Node20</title>
<g id="a_Node000020"><a xlink:href="_response_headers_8hpp.html" target="_top" xlink:title=" ">
<polygon fill="white" stroke="#666666" points="1752,-239 1584,-239 1584,-198 1752,-198 1752,-239"/>
<text text-anchor="start" x="1592" y="-227" font-family="Helvetica,sans-Serif" font-size="10.00">include/Thoth/Http</text>
<text text-anchor="start" x="1592" y="-216" font-family="Helvetica,sans-Serif" font-size="10.00">/NHeaders/Response/Response</text>
<text text-anchor="middle" x="1668" y="-205" font-family="Helvetica,sans-Serif" font-size="10.00">Headers.hpp</text>
</a>
</g>
</g>
<!-- Node2&#45;&gt;Node20 -->
<g id="edge24_Node000002_Node000020" class="edge">
<title>Node2&#45;&gt;Node20</title>
<g id="a_edge24_Node000002_Node000020"><a xlink:title=" ">
<path fill="none" stroke="#63b8ff" d="M1518.89,-402.73C1536.32,-394.76 1555.21,-384.18 1570,-371 1613.26,-332.43 1645.17,-270.49 1659.55,-239.1"/>
<polygon fill="#63b8ff" stroke="#63b8ff" points="1517.15,-399.67 1509.39,-406.89 1519.95,-406.08 1517.15,-399.67"/>
</a>
</g>
</g>
<!-- Node4 -->
<g id="Node000004" class="node">
<title>Node4</title>
<g id="a_Node000004"><a xlink:href="_connect_method_8hpp.html" target="_top" xlink:title=" ">
<polygon fill="white" stroke="#666666" points="810,-305 648,-305 648,-275 810,-275 810,-305"/>
<text text-anchor="start" x="656" y="-293" font-family="Helvetica,sans-Serif" font-size="10.00">include/Thoth/Http</text>
<text text-anchor="middle" x="729" y="-282" font-family="Helvetica,sans-Serif" font-size="10.00">/Methods/ConnectMethod.hpp</text>
</a>
</g>
</g>
<!-- Node3&#45;&gt;Node4 -->
<g id="edge3_Node000003_Node000004" class="edge">
<title>Node3&#45;&gt;Node4</title>
<g id="a_edge3_Node000003_Node000004"><a xlink:title=" ">
<path fill="none" stroke="#63b8ff" d="M923.52,-338.52C881.03,-328.14 826.77,-314.88 786.36,-305.01"/>
<polygon fill="#63b8ff" stroke="#63b8ff" points="922.96,-341.98 933.5,-340.95 924.62,-335.18 922.96,-341.98"/>
</a>
</g>
</g>
<!-- Node5 -->
<g id="Node000005" class="node">
<title>Node5</title>
<g id="a_Node000005"><a xlink:href="_delete_method_8hpp.html" target="_top" xlink:title=" ">
<polygon fill="white" stroke="#666666" points="983.5,-305 828.5,-305 828.5,-275 983.5,-275 983.5,-305"/>
<text text-anchor="start" x="836.5" y="-293" font-family="Helvetica,sans-Serif" font-size="10.00">include/Thoth/Http</text>
<text text-anchor="middle" x="906" y="-282" font-family="Helvetica,sans-Serif" font-size="10.00">/Methods/DeleteMethod.hpp</text>
</a>
</g>
</g>
<!-- Node3&#45;&gt;Node5 -->
<g id="edge4_Node000003_Node000005" class="edge">
<title>Node3&#45;&gt;Node5</title>
<g id="a_edge4_Node000003_Node000005"><a xlink:title=" ">
<path fill="none" stroke="#63b8ff" d="M964.11,-334.75C951.33,-325.13 936.36,-313.86 924.81,-305.16"/>
<polygon fill="#63b8ff" stroke="#63b8ff" points="962.04,-337.58 972.14,-340.8 966.25,-331.99 962.04,-337.58"/>
</a>
</g>
</g>
<!-- Node6 -->
<g id="Node000006" class="node">
<title>Node6</title>
<g id="a_Node000006"><a xlink:href="_get_method_8hpp.html" target="_top" xlink:title=" ">
<polygon fill="white" stroke="#666666" points="140,-305 0,-305 0,-275 140,-275 140,-305"/>
<text text-anchor="start" x="8" y="-293" font-family="Helvetica,sans-Serif" font-size="10.00">include/Thoth/Http</text>
<text text-anchor="middle" x="70" y="-282" font-family="Helvetica,sans-Serif" font-size="10.00">/Methods/GetMethod.hpp</text>
</a>
</g>
</g>
<!-- Node3&#45;&gt;Node6 -->
<g id="edge5_Node000003_Node000006" class="edge">
<title>Node3&#45;&gt;Node6</title>
<g id="a_edge5_Node000003_Node000006"><a xlink:title=" ">
<path fill="none" stroke="#63b8ff" d="M883.76,-340.95C557.07,-312.14 471.11,-341.27 149,-305 146.09,-304.67 143.13,-304.3 140.14,-303.91"/>
<polygon fill="#63b8ff" stroke="#63b8ff" points="883.72,-344.46 893.99,-341.86 884.34,-337.49 883.72,-344.46"/>
</a>
</g>
</g>
<!-- Node11 -->
<g id="Node000011" class="node">
<title>Node11</title>
<g id="a_Node000011"><a xlink:href="_head_method_8hpp.html" target="_top" xlink:title=" ">
<polygon fill="white" stroke="#666666" points="1150,-305 1002,-305 1002,-275 1150,-275 1150,-305"/>
<text text-anchor="start" x="1010" y="-293" font-family="Helvetica,sans-Serif" font-size="10.00">include/Thoth/Http</text>
<text text-anchor="middle" x="1076" y="-282" font-family="Helvetica,sans-Serif" font-size="10.00">/Methods/HeadMethod.hpp</text>
</a>
</g>
</g>
<!-- Node3&#45;&gt;Node11 -->
<g id="edge12_Node000003_Node000011" class="edge">
<title>Node3&#45;&gt;Node11</title>
<g id="a_edge12_Node000003_Node000011"><a xlink:title=" ">
<path fill="none" stroke="#63b8ff" d="M1017.89,-334.75C1030.67,-325.13 1045.64,-313.86 1057.19,-305.16"/>
<polygon fill="#63b8ff" stroke="#63b8ff" points="1015.75,-331.99 1009.86,-340.8 1019.96,-337.58 1015.75,-331.99"/>
</a>
</g>
</g>
<!-- Node12 -->
<g id="Node000012" class="node">
<title>Node12</title>
<g id="a_Node000012"><a xlink:href="_options_method_8hpp.html" target="_top" xlink:title=" ">
<polygon fill="white" stroke="#666666" points="1328,-305 1168,-305 1168,-275 1328,-275 1328,-305"/>
<text text-anchor="start" x="1176" y="-293" font-family="Helvetica,sans-Serif" font-size="10.00">include/Thoth/Http</text>
<text text-anchor="middle" x="1248" y="-282" font-family="Helvetica,sans-Serif" font-size="10.00">/Methods/OptionsMethod.hpp</text>
</a>
</g>
</g>
<!-- Node3&#45;&gt;Node12 -->
<g id="edge13_Node000003_Node000012" class="edge">
<title>Node3&#45;&gt;Node12</title>
<g id="a_edge13_Node000003_Node000012"><a xlink:title=" ">
<path fill="none" stroke="#63b8ff" d="M1057.19,-338.52C1098.87,-328.14 1152.09,-314.88 1191.73,-305.01"/>
<polygon fill="#63b8ff" stroke="#63b8ff" points="1056.26,-335.14 1047.4,-340.95 1057.95,-341.93 1056.26,-335.14"/>
</a>
</g>
</g>
<!-- Node13 -->
<g id="Node000013" class="node">
<title>Node13</title>
<g id="a_Node000013"><a xlink:href="_patch_method_8hpp.html" target="_top" xlink:title=" ">
<polygon fill="white" stroke="#666666" points="307.5,-305 158.5,-305 158.5,-275 307.5,-275 307.5,-305"/>
<text text-anchor="start" x="166.5" y="-293" font-family="Helvetica,sans-Serif" font-size="10.00">include/Thoth/Http</text>
<text text-anchor="middle" x="233" y="-282" font-family="Helvetica,sans-Serif" font-size="10.00">/Methods/PatchMethod.hpp</text>
</a>
</g>
</g>
<!-- Node3&#45;&gt;Node13 -->
<g id="edge14_Node000003_Node000013" class="edge">
<title>Node3&#45;&gt;Node13</title>
<g id="a_edge14_Node000003_Node000013"><a xlink:title=" ">
<path fill="none" stroke="#63b8ff" d="M883.77,-340.93C631.5,-316.88 564.99,-333.45 317,-305 313.92,-304.65 310.77,-304.26 307.6,-303.84"/>
<polygon fill="#63b8ff" stroke="#63b8ff" points="883.69,-344.44 893.98,-341.92 884.37,-337.47 883.69,-344.44"/>
</a>
</g>
</g>
<!-- Node14 -->
<g id="Node000014" class="node">
<title>Node14</title>
<g id="a_Node000014"><a xlink:href="_post_method_8hpp.html" target="_top" xlink:title=" ">
<polygon fill="white" stroke="#666666" points="1489.5,-305 1346.5,-305 1346.5,-275 1489.5,-275 1489.5,-305"/>
<text text-anchor="start" x="1354.5" y="-293" font-family="Helvetica,sans-Serif" font-size="10.00">include/Thoth/Http</text>
<text text-anchor="middle" x="1418" y="-282" font-family="Helvetica,sans-Serif" font-size="10.00">/Methods/PostMethod.hpp</text>
</a>
</g>
</g>
<!-- Node3&#45;&gt;Node14 -->
<g id="edge15_Node000003_Node000014" class="edge">
<title>Node3&#45;&gt;Node14</title>
<g id="a_edge15_Node000003_Node000014"><a xlink:title=" ">
<path fill="none" stroke="#63b8ff" d="M1097.98,-340.32C1166.41,-330.73 1257.01,-317.69 1337,-305 1340.1,-304.51 1343.27,-304 1346.46,-303.47"/>
<polygon fill="#63b8ff" stroke="#63b8ff" points="1097.47,-336.86 1088.05,-341.71 1098.44,-343.79 1097.47,-336.86"/>
</a>
</g>
</g>
<!-- Node15 -->
<g id="Node000015" class="node">
<title>Node15</title>
<g id="a_Node000015"><a xlink:href="_put_method_8hpp.html" target="_top" xlink:title=" ">
<polygon fill="white" stroke="#666666" points="464,-305 326,-305 326,-275 464,-275 464,-305"/>
<text text-anchor="start" x="334" y="-293" font-family="Helvetica,sans-Serif" font-size="10.00">include/Thoth/Http</text>
<text text-anchor="middle" x="395" y="-282" font-family="Helvetica,sans-Serif" font-size="10.00">/Methods/PutMethod.hpp</text>
</a>
</g>
</g>
<!-- Node3&#45;&gt;Node15 -->
<g id="edge18_Node000003_Node000015" class="edge">
<title>Node3&#45;&gt;Node15</title>
<g id="a_edge18_Node000003_Node000015"><a xlink:title=" ">
<path fill="none" stroke="#63b8ff" d="M884,-340.93C700.59,-321.24 652,-328.83 473,-305 470.14,-304.62 467.22,-304.21 464.27,-303.77"/>
<polygon fill="#63b8ff" stroke="#63b8ff" points="883.66,-344.41 893.97,-342.01 884.41,-337.45 883.66,-344.41"/>
</a>
</g>
</g>
<!-- Node16 -->
<g id="Node000016" class="node">
<title>Node16</title>
<g id="a_Node000016"><a xlink:href="_trace_method_8hpp.html" target="_top" xlink:title=" ">
<polygon fill="white" stroke="#666666" points="630,-305 482,-305 482,-275 630,-275 630,-305"/>
<text text-anchor="start" x="490" y="-293" font-family="Helvetica,sans-Serif" font-size="10.00">include/Thoth/Http</text>
<text text-anchor="middle" x="556" y="-282" font-family="Helvetica,sans-Serif" font-size="10.00">/Methods/TraceMethod.hpp</text>
</a>
</g>
</g>
<!-- Node3&#45;&gt;Node16 -->
<g id="edge19_Node000003_Node000016" class="edge">
<title>Node3&#45;&gt;Node16</title>
<g id="a_edge19_Node000003_Node000016"><a xlink:title=" ">
<path fill="none" stroke="#63b8ff" d="M883.66,-340.49C813.88,-330.88 720.97,-317.73 639,-305 636.11,-304.55 633.17,-304.09 630.2,-303.61"/>
<polygon fill="#63b8ff" stroke="#63b8ff" points="883.4,-343.99 893.78,-341.88 884.35,-337.05 883.4,-343.99"/>
</a>
</g>
</g>
<!-- Node7 -->
<g id="Node000007" class="node">
<title>Node7</title>
<g id="a_Node000007"><a xlink:href="_request_8hpp.html" target="_top" xlink:title=" ">
<polygon fill="white" stroke="#666666" points="1527.5,-233.5 1404.5,-233.5 1404.5,-203.5 1527.5,-203.5 1527.5,-233.5"/>
<text text-anchor="start" x="1412.5" y="-221.5" font-family="Helvetica,sans-Serif" font-size="10.00">include/Thoth/Http</text>
<text text-anchor="middle" x="1466" y="-210.5" font-family="Helvetica,sans-Serif" font-size="10.00">/Request/Request.hpp</text>
</a>
</g>
</g>
<!-- Node6&#45;&gt;Node7 -->
<g id="edge6_Node000006_Node000007" class="edge">
<title>Node6&#45;&gt;Node7</title>
<g id="a_edge6_Node000006_Node000007"><a xlink:title=" ">
<path fill="none" stroke="#63b8ff" d="M150.39,-274.98C682.87,-221.09 823.13,-291.89 1352,-239 1369.08,-237.29 1387.47,-234.55 1404.39,-231.65"/>
<polygon fill="#63b8ff" stroke="#63b8ff" points="149.73,-271.53 140.14,-276.02 150.44,-278.49 149.73,-271.53"/>
</a>
</g>
</g>
<!-- Node10 -->
<g id="Node000010" class="node">
<title>Node10</title>
<g id="a_Node000010"><a xlink:href="_response_8hpp.html" target="_top" xlink:title=" ">
<polygon fill="white" stroke="#666666" points="1466,-96 1328,-96 1328,-66 1466,-66 1466,-96"/>
<text text-anchor="start" x="1336" y="-84" font-family="Helvetica,sans-Serif" font-size="10.00">include/Thoth/Http</text>
<text text-anchor="middle" x="1397" y="-73" font-family="Helvetica,sans-Serif" font-size="10.00">/Response/Response.hpp</text>
</a>
</g>
</g>
<!-- Node6&#45;&gt;Node10 -->
<g id="edge11_Node000006_Node000010" class="edge">
<title>Node6&#45;&gt;Node10</title>
<g id="a_edge11_Node000006_Node000010"><a xlink:title=" ">
<path fill="none" stroke="#63b8ff" d="M150.27,-274.81C605.7,-199.36 1140.35,-119.78 1327.92,-92.14"/>
<polygon fill="#63b8ff" stroke="#63b8ff" points="149.49,-271.39 140.2,-276.48 150.64,-278.29 149.49,-271.39"/>
</a>
</g>
</g>
<!-- Node8 -->
<g id="Node000008" class="node">
<title>Node8</title>
<g id="a_Node000008"><a xlink:href="_client_8hpp.html" target="_top" xlink:title=" ">
<polygon fill="white" stroke="#666666" points="1401.5,-30 1294.5,-30 1294.5,0 1401.5,0 1401.5,-30"/>
<text text-anchor="start" x="1302.5" y="-18" font-family="Helvetica,sans-Serif" font-size="10.00">include/Thoth/Http</text>
<text text-anchor="middle" x="1348" y="-7" font-family="Helvetica,sans-Serif" font-size="10.00">/Client.hpp</text>
</a>
</g>
</g>
<!-- Node7&#45;&gt;Node8 -->
<g id="edge7_Node000007_Node000008" class="edge">
<title>Node7&#45;&gt;Node8</title>
<g id="a_edge7_Node000007_Node000008"><a xlink:title=" ">
<path fill="none" stroke="#63b8ff" d="M1427.02,-198.43C1391.25,-178.47 1340.63,-143.43 1319,-96 1308.76,-73.55 1324.22,-46.35 1336.21,-30.15"/>
<polygon fill="#63b8ff" stroke="#63b8ff" points="1425.77,-201.73 1436.23,-203.41 1429.1,-195.57 1425.77,-201.73"/>
</a>
</g>
</g>
<!-- Node7&#45;&gt;Node9 -->
<g id="edge8_Node000007_Node000009" class="edge">
<title>Node7&#45;&gt;Node9</title>
<g id="a_edge8_Node000007_Node000009"><a xlink:title=" ">
<path fill="none" stroke="#63b8ff" d="M1472.88,-193.58C1475.91,-183.06 1479.36,-171.08 1481.96,-162.04"/>
<polygon fill="#63b8ff" stroke="#63b8ff" points="1469.45,-192.86 1470.05,-203.44 1476.18,-194.79 1469.45,-192.86"/>
</a>
</g>
</g>
<!-- Node9&#45;&gt;Node10 -->
<g id="edge9_Node000009_Node000010" class="edge">
<title>Node9&#45;&gt;Node10</title>
<g id="a_edge9_Node000009_Node000010"><a xlink:title=" ">
<path fill="none" stroke="#63b8ff" d="M1457.84,-125.75C1444.46,-116.13 1428.78,-104.86 1416.7,-96.16"/>
<polygon fill="#63b8ff" stroke="#63b8ff" points="1456.09,-128.8 1466.25,-131.8 1460.17,-123.12 1456.09,-128.8"/>
</a>
</g>
</g>
<!-- Node10&#45;&gt;Node8 -->
<g id="edge10_Node000010_Node000008" class="edge">
<title>Node10&#45;&gt;Node8</title>
<g id="a_edge10_Node000010_Node000008"><a xlink:title=" ">
<path fill="none" stroke="#63b8ff" d="M1380.01,-57.81C1372.99,-48.64 1365.06,-38.28 1358.84,-30.16"/>
<polygon fill="#63b8ff" stroke="#63b8ff" points="1377.27,-59.98 1386.13,-65.8 1382.83,-55.73 1377.27,-59.98"/>
</a>
</g>
</g>
<!-- Node14&#45;&gt;Node7 -->
<g id="edge16_Node000014_Node000007" class="edge">
<title>Node14&#45;&gt;Node7</title>
<g id="a_edge16_Node000014_Node000007"><a xlink:title=" ">
<path fill="none" stroke="#63b8ff" d="M1433.4,-266.71C1440.92,-255.82 1449.73,-243.05 1456.3,-233.54"/>
<polygon fill="#63b8ff" stroke="#63b8ff" points="1430.52,-264.72 1427.71,-274.94 1436.28,-268.7 1430.52,-264.72"/>
</a>
</g>
</g>
<!-- Node14&#45;&gt;Node10 -->
<g id="edge17_Node000014_Node000010" class="edge">
<title>Node14&#45;&gt;Node10</title>
<g id="a_edge17_Node000014_Node000010"><a xlink:title=" ">
<path fill="none" stroke="#63b8ff" d="M1404.79,-265.76C1400.82,-257.57 1397,-248.12 1395,-239 1383.69,-187.34 1390.67,-123.82 1394.71,-96.08"/>
<polygon fill="#63b8ff" stroke="#63b8ff" points="1401.71,-267.43 1409.41,-274.71 1407.93,-264.22 1401.71,-267.43"/>
</a>
</g>
</g>
<!-- Node19&#45;&gt;Node7 -->
<g id="edge23_Node000019_Node000007" class="edge">
<title>Node19&#45;&gt;Node7</title>
<g id="a_edge23_Node000019_Node000007"><a xlink:title=" ">
<path fill="none" stroke="#63b8ff" d="M1466.6,-335.99C1479.4,-328.36 1491.75,-318.17 1499,-305 1512.12,-281.17 1492.99,-251.02 1478.84,-233.64"/>
<polygon fill="#63b8ff" stroke="#63b8ff" points="1464.79,-332.99 1457.72,-340.88 1468.17,-339.12 1464.79,-332.99"/>
</a>
</g>
</g>
<!-- Node20&#45;&gt;Node10 -->
<g id="edge25_Node000020_Node000010" class="edge">
<title>Node20&#45;&gt;Node10</title>
<g id="a_edge25_Node000020_Node000010"><a xlink:title=" ">
<path fill="none" stroke="#63b8ff" d="M1645.49,-190.27C1628.49,-171.36 1603.61,-146.98 1577,-132 1542.94,-112.83 1501.06,-100.63 1466.28,-93.09"/>
<polygon fill="#63b8ff" stroke="#63b8ff" points="1643.04,-192.78 1652.27,-197.99 1648.3,-188.16 1643.04,-192.78"/>
</a>
</g>
</g>
</g>
</svg>
