<?xml version="1.0" encoding="UTF-8" standalone="no"?>
<!DOCTYPE svg PUBLIC "-//W3C//DTD SVG 1.1//EN"
 "http://www.w3.org/Graphics/SVG/1.1/DTD/svg11.dtd">
<!-- Generated by graphviz version 2.43.0 (0)
 -->
<!-- Title: include/Thoth/Http/NHeaders/_base.hpp Pages: 1 -->
<svg width="1881pt" height="643pt"
 viewBox="0.00 0.00 1880.90 643.00" xmlns="http://www.w3.org/2000/svg" xmlns:xlink="http://www.w3.org/1999/xlink">
<g id="graph0" class="graph" transform="scale(1 1) rotate(0) translate(4 639)">
<title>include/Thoth/Http/NHeaders/_base.hpp</title>
<!-- Node1 -->
<g id="Node000001" class="node">
<title>Node1</title>
<g id="a_Node000001"><a xlink:title=" ">
<polygon fill="#999999" stroke="#666666" points="390,-635 270,-635 270,-605 390,-605 390,-635"/>
<text text-anchor="start" x="278" y="-623" font-family="Helvetica,sans-Serif" font-size="10.00">include/Thoth/Http</text>
<text text-anchor="middle" x="330" y="-612" font-family="Helvetica,sans-Serif" font-size="10.00">/NHeaders/_base.hpp</text>
</a>
</g>
</g>
<!-- Node2 -->
<g id="Node000002" class="node">
<title>Node2</title>
<g id="a_Node000002"><a xlink:href="_headers_8hpp.html" target="_top" xlink:title=" ">
<polygon fill="white" stroke="#666666" points="405,-437 273,-437 273,-407 405,-407 405,-437"/>
<text text-anchor="start" x="281" y="-425" font-family="Helvetica,sans-Serif" font-size="10.00">include/Thoth/Http</text>
<text text-anchor="middle" x="339" y="-414" font-family="Helvetica,sans-Serif" font-size="10.00">/NHeaders/Headers.hpp</text>
</a>
</g>
</g>
<!-- Node1&#45;&gt;Node2 -->
<g id="edge1_Node000001_Node000002" class="edge">
<title>Node1&#45;&gt;Node2</title>
<g id="a_edge1_Node000001_Node000002"><a xlink:title=" ">
<path fill="none" stroke="#63b8ff" d="M352.9,-597.71C360.13,-589.52 367.22,-579.57 371,-569 377.09,-551.96 369.25,-487.51 365,-473 361.26,-460.23 354.15,-446.92 348.32,-437.24"/>
<polygon fill="#63b8ff" stroke="#63b8ff" points="350.35,-595.32 346.03,-604.99 355.44,-600.12 350.35,-595.32"/>
</a>
</g>
</g>
<!-- Node18 -->
<g id="Node000018" class="node">
<title>Node18</title>
<g id="a_Node000018"><a xlink:href="_list_proxy_8hpp.html" target="_top" xlink:title=" ">
<polygon fill="white" stroke="#666666" points="166,-371 0,-371 0,-341 166,-341 166,-371"/>
<text text-anchor="start" x="8" y="-359" font-family="Helvetica,sans-Serif" font-size="10.00">include/Thoth/Http</text>
<text text-anchor="middle" x="83" y="-348" font-family="Helvetica,sans-Serif" font-size="10.00">/NHeaders/Proxy/ListProxy.hpp</text>
</a>
</g>
</g>
<!-- Node1&#45;&gt;Node18 -->
<g id="edge33_Node000001_Node000018" class="edge">
<title>Node1&#45;&gt;Node18</title>
<g id="a_edge33_Node000001_Node000018"><a xlink:title=" ">
<path fill="none" stroke="#63b8ff" d="M259.87,-610.94C228.82,-604.19 193.79,-591.79 169,-569 108.47,-513.36 89.6,-409.09 84.59,-371.21"/>
<polygon fill="#63b8ff" stroke="#63b8ff" points="259.3,-614.4 269.8,-612.94 260.68,-607.54 259.3,-614.4"/>
</a>
</g>
</g>
<!-- Node19 -->
<g id="Node000019" class="node">
<title>Node19</title>
<g id="a_Node000019"><a xlink:href="_value_proxy_8hpp.html" target="_top" xlink:title=" ">
<polygon fill="white" stroke="#666666" points="1397,-371 1221,-371 1221,-341 1397,-341 1397,-371"/>
<text text-anchor="start" x="1229" y="-359" font-family="Helvetica,sans-Serif" font-size="10.00">include/Thoth/Http</text>
<text text-anchor="middle" x="1309" y="-348" font-family="Helvetica,sans-Serif" font-size="10.00">/NHeaders/Proxy/ValueProxy.hpp</text>
</a>
</g>
</g>
<!-- Node1&#45;&gt;Node19 -->
<g id="edge34_Node000001_Node000019" class="edge">
<title>Node1&#45;&gt;Node19</title>
<g id="a_edge34_Node000001_Node000019"><a xlink:title=" ">
<path fill="none" stroke="#63b8ff" d="M392.47,-602.28C572.4,-554.13 1089.53,-415.74 1256.4,-371.08"/>
<polygon fill="#63b8ff" stroke="#63b8ff" points="391.39,-598.95 382.64,-604.91 393.2,-605.71 391.39,-598.95"/>
</a>
</g>
</g>
<!-- Node22 -->
<g id="Node000022" class="node">
<title>Node22</title>
<g id="a_Node000022"><a xlink:href="_mime_type_8hpp.html" target="_top" xlink:title=" ">
<polygon fill="white" stroke="#666666" points="362.5,-569 177.5,-569 177.5,-539 362.5,-539 362.5,-569"/>
<text text-anchor="start" x="185.5" y="-557" font-family="Helvetica,sans-Serif" font-size="10.00">include/Thoth/Http</text>
<text text-anchor="middle" x="270" y="-546" font-family="Helvetica,sans-Serif" font-size="10.00">/NHeaders/Headers/MimeType.hpp</text>
</a>
</g>
</g>
<!-- Node1&#45;&gt;Node22 -->
<g id="edge30_Node000001_Node000022" class="edge">
<title>Node1&#45;&gt;Node22</title>
<g id="a_edge30_Node000001_Node000022"><a xlink:title=" ">
<path fill="none" stroke="#63b8ff" d="M309.72,-597.37C300.99,-588.06 291.04,-577.44 283.28,-569.16"/>
<polygon fill="#63b8ff" stroke="#63b8ff" points="307.29,-599.89 316.68,-604.8 312.4,-595.11 307.29,-599.89"/>
</a>
</g>
</g>
<!-- Node3 -->
<g id="Node000003" class="node">
<title>Node3</title>
<g id="a_Node000003"><a xlink:href="_file_output_range_8hpp.html" target="_top" xlink:title=" ">
<polygon fill="white" stroke="#666666" points="380,-239 222,-239 222,-209 380,-209 380,-239"/>
<text text-anchor="start" x="230" y="-227" font-family="Helvetica,sans-Serif" font-size="10.00">include/Thoth/Dsa/FileOutput</text>
<text text-anchor="middle" x="301" y="-216" font-family="Helvetica,sans-Serif" font-size="10.00">Range.hpp</text>
</a>
</g>
</g>
<!-- Node2&#45;&gt;Node3 -->
<g id="edge2_Node000002_Node000003" class="edge">
<title>Node2&#45;&gt;Node3</title>
<g id="a_edge2_Node000002_Node000003"><a xlink:title=" ">
<path fill="none" stroke="#63b8ff" d="M331.7,-396.98C329.36,-388.79 326.89,-379.54 325,-371 314.39,-323.1 306.25,-265.4 302.8,-239.19"/>
<polygon fill="#63b8ff" stroke="#63b8ff" points="328.36,-398.05 334.53,-406.67 335.08,-396.08 328.36,-398.05"/>
</a>
</g>
</g>
<!-- Node6 -->
<g id="Node000006" class="node">
<title>Node6</title>
<g id="a_Node000006"><a xlink:href="_method_concept_8hpp.html" target="_top" xlink:title=" ">
<polygon fill="white" stroke="#666666" points="969,-371 775,-371 775,-341 969,-341 969,-371"/>
<text text-anchor="start" x="783" y="-359" font-family="Helvetica,sans-Serif" font-size="10.00">include/Thoth/Http</text>
<text text-anchor="middle" x="872" y="-348" font-family="Helvetica,sans-Serif" font-size="10.00">/Methods/_base/MethodConcept.hpp</text>
</a>
</g>
</g>
<!-- Node2&#45;&gt;Node6 -->
<g id="edge6_Node000002_Node000006" class="edge">
<title>Node2&#45;&gt;Node6</title>
<g id="a_edge6_Node000002_Node000006"><a xlink:title=" ">
<path fill="none" stroke="#63b8ff" d="M415.13,-410.7C424.85,-409.43 434.65,-408.17 444,-407 557.39,-392.82 687.84,-377.76 774.63,-367.92"/>
<polygon fill="#63b8ff" stroke="#63b8ff" points="414.53,-407.25 405.07,-412.02 415.44,-414.19 414.53,-407.25"/>
</a>
</g>
</g>
<!-- Node11 -->
<g id="Node000011" class="node">
<title>Node11</title>
<g id="a_Node000011"><a xlink:href="_response_head_8hpp.html" target="_top" xlink:title=" ">
<polygon fill="white" stroke="#666666" points="656,-167.5 492,-167.5 492,-137.5 656,-137.5 656,-167.5"/>
<text text-anchor="start" x="500" y="-155.5" font-family="Helvetica,sans-Serif" font-size="10.00">include/Thoth/Http</text>
<text text-anchor="middle" x="574" y="-144.5" font-family="Helvetica,sans-Serif" font-size="10.00">/Response/ResponseHead.hpp</text>
</a>
</g>
</g>
<!-- Node2&#45;&gt;Node11 -->
<g id="edge29_Node000002_Node000011" class="edge">
<title>Node2&#45;&gt;Node11</title>
<g id="a_edge29_Node000002_Node000011"><a xlink:title=" ">
<path fill="none" stroke="#63b8ff" d="M336.1,-396.34C333.75,-365.29 334.18,-311.58 359,-275 370.8,-257.62 490.56,-195.63 546.05,-167.53"/>
<polygon fill="#63b8ff" stroke="#63b8ff" points="332.65,-397.05 337.05,-406.68 339.62,-396.41 332.65,-397.05"/>
</a>
</g>
</g>
<!-- Node2&#45;&gt;Node18 -->
<g id="edge23_Node000002_Node000018" class="edge">
<title>Node2&#45;&gt;Node18</title>
<g id="a_edge23_Node000002_Node000018"><a xlink:title=" ">
<path fill="none" stroke="#63b8ff" d="M273.07,-404.52C231.55,-394.14 178.53,-380.88 139.05,-371.01"/>
<polygon fill="#63b8ff" stroke="#63b8ff" points="272.27,-407.92 282.82,-406.95 273.97,-401.13 272.27,-407.92"/>
</a>
</g>
</g>
<!-- Node2&#45;&gt;Node19 -->
<g id="edge24_Node000002_Node000019" class="edge">
<title>Node2&#45;&gt;Node19</title>
<g id="a_edge24_Node000002_Node000019"><a xlink:title=" ">
<path fill="none" stroke="#63b8ff" d="M415.28,-410.05C424.93,-408.89 434.69,-407.84 444,-407 784.33,-376.39 871.84,-403.44 1212,-371 1214.88,-370.73 1217.8,-370.43 1220.76,-370.1"/>
<polygon fill="#63b8ff" stroke="#63b8ff" points="414.77,-406.59 405.28,-411.29 415.63,-413.53 414.77,-406.59"/>
</a>
</g>
</g>
<!-- Node20 -->
<g id="Node000020" class="node">
<title>Node20</title>
<g id="a_Node000020"><a xlink:href="_request_headers_8hpp.html" target="_top" xlink:title=" ">
<polygon fill="white" stroke="#666666" points="1202.5,-371 987.5,-371 987.5,-341 1202.5,-341 1202.5,-371"/>
<text text-anchor="start" x="995.5" y="-359" font-family="Helvetica,sans-Serif" font-size="10.00">include/Thoth/Http</text>
<text text-anchor="middle" x="1095" y="-348" font-family="Helvetica,sans-Serif" font-size="10.00">/NHeaders/Request/RequestHeaders.hpp</text>
</a>
</g>
</g>
<!-- Node2&#45;&gt;Node20 -->
<g id="edge25_Node000002_Node000020" class="edge">
<title>Node2&#45;&gt;Node20</title>
<g id="a_edge25_Node000002_Node000020"><a xlink:title=" ">
<path fill="none" stroke="#63b8ff" d="M415.09,-410.26C424.81,-409.06 434.63,-407.94 444,-407 680.69,-383.27 741.16,-393.14 978,-371 981.06,-370.71 984.15,-370.41 987.28,-370.1"/>
<polygon fill="#63b8ff" stroke="#63b8ff" points="414.5,-406.81 405.02,-411.53 415.38,-413.75 414.5,-406.81"/>
</a>
</g>
</g>
<!-- Node21 -->
<g id="Node000021" class="node">
<title>Node21</title>
<g id="a_Node000021"><a xlink:href="_response_headers_8hpp.html" target="_top" xlink:title=" ">
<polygon fill="white" stroke="#666666" points="308,-173 140,-173 140,-132 308,-132 308,-173"/>
<text text-anchor="start" x="148" y="-161" font-family="Helvetica,sans-Serif" font-size="10.00">include/Thoth/Http</text>
<text text-anchor="start" x="148" y="-150" font-family="Helvetica,sans-Serif" font-size="10.00">/NHeaders/Response/Response</text>
<text text-anchor="middle" x="224" y="-139" font-family="Helvetica,sans-Serif" font-size="10.00">Headers.hpp</text>
</a>
</g>
</g>
<!-- Node2&#45;&gt;Node21 -->
<g id="edge27_Node000002_Node000021" class="edge">
<title>Node2&#45;&gt;Node21</title>
<g id="a_edge27_Node000002_Node000021"><a xlink:title=" ">
<path fill="none" stroke="#63b8ff" d="M317.15,-399.25C286.85,-367.37 233.49,-304.6 213,-239 206.17,-217.14 211.44,-190.87 216.78,-173.27"/>
<polygon fill="#63b8ff" stroke="#63b8ff" points="314.85,-401.91 324.32,-406.67 319.89,-397.04 314.85,-401.91"/>
</a>
</g>
</g>
<!-- Node3&#45;&gt;Node3 -->
<g id="edge3_Node000003_Node000003" class="edge">
<title>Node3&#45;&gt;Node3</title>
<g id="a_edge3_Node000003_Node000003"><a xlink:title=" ">
<path fill="none" stroke="#63b8ff" d="M390.16,-232.29C395.07,-230.27 398,-227.51 398,-224 398,-218.52 390.87,-214.86 380.16,-213.02"/>
<polygon fill="#63b8ff" stroke="#63b8ff" points="388.91,-229 380.16,-234.98 390.73,-235.76 388.91,-229"/>
</a>
</g>
</g>
<!-- Node4 -->
<g id="Node000004" class="node">
<title>Node4</title>
<g id="a_Node000004"><a xlink:href="_response_8hpp.html" target="_top" xlink:title=" ">
<polygon fill="white" stroke="#666666" points="588,-96 450,-96 450,-66 588,-66 588,-96"/>
<text text-anchor="start" x="458" y="-84" font-family="Helvetica,sans-Serif" font-size="10.00">include/Thoth/Http</text>
<text text-anchor="middle" x="519" y="-73" font-family="Helvetica,sans-Serif" font-size="10.00">/Response/Response.hpp</text>
</a>
</g>
</g>
<!-- Node3&#45;&gt;Node4 -->
<g id="edge4_Node000003_Node000004" class="edge">
<title>Node3&#45;&gt;Node4</title>
<g id="a_edge4_Node000003_Node000004"><a xlink:title=" ">
<path fill="none" stroke="#63b8ff" d="M331.34,-203.37C375.88,-174.57 457.9,-121.52 497.06,-96.19"/>
<polygon fill="#63b8ff" stroke="#63b8ff" points="329.2,-200.6 322.7,-208.96 333,-206.47 329.2,-200.6"/>
</a>
</g>
</g>
<!-- Node5 -->
<g id="Node000005" class="node">
<title>Node5</title>
<g id="a_Node000005"><a xlink:href="_client_8hpp.html" target="_top" xlink:title=" ">
<polygon fill="white" stroke="#666666" points="627.5,-30 520.5,-30 520.5,0 627.5,0 627.5,-30"/>
<text text-anchor="start" x="528.5" y="-18" font-family="Helvetica,sans-Serif" font-size="10.00">include/Thoth/Http</text>
<text text-anchor="middle" x="574" y="-7" font-family="Helvetica,sans-Serif" font-size="10.00">/Client.hpp</text>
</a>
</g>
</g>
<!-- Node4&#45;&gt;Node5 -->
<g id="edge5_Node000004_Node000005" class="edge">
<title>Node4&#45;&gt;Node5</title>
<g id="a_edge5_Node000004_Node000005"><a xlink:title=" ">
<path fill="none" stroke="#63b8ff" d="M537.83,-58.09C545.77,-48.85 554.78,-38.36 561.83,-30.16"/>
<polygon fill="#63b8ff" stroke="#63b8ff" points="535.07,-55.93 531.21,-65.8 540.38,-60.49 535.07,-55.93"/>
</a>
</g>
</g>
<!-- Node7 -->
<g id="Node000007" class="node">
<title>Node7</title>
<g id="a_Node000007"><a xlink:href="_connect_method_8hpp.html" target="_top" xlink:title=" ">
<polygon fill="white" stroke="#666666" points="691,-305 529,-305 529,-275 691,-275 691,-305"/>
<text text-anchor="start" x="537" y="-293" font-family="Helvetica,sans-Serif" font-size="10.00">include/Thoth/Http</text>
<text text-anchor="middle" x="610" y="-282" font-family="Helvetica,sans-Serif" font-size="10.00">/Methods/ConnectMethod.hpp</text>
</a>
</g>
</g>
<!-- Node6&#45;&gt;Node7 -->
<g id="edge7_Node000006_Node000007" class="edge">
<title>Node6&#45;&gt;Node7</title>
<g id="a_edge7_Node000006_Node000007"><a xlink:title=" ">
<path fill="none" stroke="#63b8ff" d="M804.52,-338.52C762.03,-328.14 707.77,-314.88 667.36,-305.01"/>
<polygon fill="#63b8ff" stroke="#63b8ff" points="803.96,-341.98 814.5,-340.95 805.62,-335.18 803.96,-341.98"/>
</a>
</g>
</g>
<!-- Node8 -->
<g id="Node000008" class="node">
<title>Node8</title>
<g id="a_Node000008"><a xlink:href="_delete_method_8hpp.html" target="_top" xlink:title=" ">
<polygon fill="white" stroke="#666666" points="864.5,-305 709.5,-305 709.5,-275 864.5,-275 864.5,-305"/>
<text text-anchor="start" x="717.5" y="-293" font-family="Helvetica,sans-Serif" font-size="10.00">include/Thoth/Http</text>
<text text-anchor="middle" x="787" y="-282" font-family="Helvetica,sans-Serif" font-size="10.00">/Methods/DeleteMethod.hpp</text>
</a>
</g>
</g>
<!-- Node6&#45;&gt;Node8 -->
<g id="edge8_Node000006_Node000008" class="edge">
<title>Node6&#45;&gt;Node8</title>
<g id="a_edge8_Node000006_Node000008"><a xlink:title=" ">
<path fill="none" stroke="#63b8ff" d="M845.11,-334.75C832.33,-325.13 817.36,-313.86 805.81,-305.16"/>
<polygon fill="#63b8ff" stroke="#63b8ff" points="843.04,-337.58 853.14,-340.8 847.25,-331.99 843.04,-337.58"/>
</a>
</g>
</g>
<!-- Node9 -->
<g id="Node000009" class="node">
<title>Node9</title>
<g id="a_Node000009"><a xlink:href="_get_method_8hpp.html" target="_top" xlink:title=" ">
<polygon fill="white" stroke="#666666" points="1857,-305 1717,-305 1717,-275 1857,-275 1857,-305"/>
<text text-anchor="start" x="1725" y="-293" font-family="Helvetica,sans-Serif" font-size="10.00">include/Thoth/Http</text>
<text text-anchor="middle" x="1787" y="-282" font-family="Helvetica,sans-Serif" font-size="10.00">/Methods/GetMethod.hpp</text>
</a>
</g>
</g>
<!-- Node6&#45;&gt;Node9 -->
<g id="edge9_Node000006_Node000009" class="edge">
<title>Node6&#45;&gt;Node9</title>
<g id="a_edge9_Node000006_Node000009"><a xlink:title=" ">
<path fill="none" stroke="#63b8ff" d="M979.23,-341.05C1303.83,-312.53 1388.96,-341 1708,-305 1710.91,-304.67 1713.87,-304.3 1716.86,-303.9"/>
<polygon fill="#63b8ff" stroke="#63b8ff" points="978.72,-337.58 969.07,-341.95 979.34,-344.55 978.72,-337.58"/>
</a>
</g>
</g>
<!-- Node12 -->
<g id="Node000012" class="node">
<title>Node12</title>
<g id="a_Node000012"><a xlink:href="_head_method_8hpp.html" target="_top" xlink:title=" ">
<polygon fill="white" stroke="#666666" points="1031,-305 883,-305 883,-275 1031,-275 1031,-305"/>
<text text-anchor="start" x="891" y="-293" font-family="Helvetica,sans-Serif" font-size="10.00">include/Thoth/Http</text>
<text text-anchor="middle" x="957" y="-282" font-family="Helvetica,sans-Serif" font-size="10.00">/Methods/HeadMethod.hpp</text>
</a>
</g>
</g>
<!-- Node6&#45;&gt;Node12 -->
<g id="edge15_Node000006_Node000012" class="edge">
<title>Node6&#45;&gt;Node12</title>
<g id="a_edge15_Node000006_Node000012"><a xlink:title=" ">
<path fill="none" stroke="#63b8ff" d="M898.89,-334.75C911.67,-325.13 926.64,-313.86 938.19,-305.16"/>
<polygon fill="#63b8ff" stroke="#63b8ff" points="896.75,-331.99 890.86,-340.8 900.96,-337.58 896.75,-331.99"/>
</a>
</g>
</g>
<!-- Node13 -->
<g id="Node000013" class="node">
<title>Node13</title>
<g id="a_Node000013"><a xlink:href="_options_method_8hpp.html" target="_top" xlink:title=" ">
<polygon fill="white" stroke="#666666" points="1209,-305 1049,-305 1049,-275 1209,-275 1209,-305"/>
<text text-anchor="start" x="1057" y="-293" font-family="Helvetica,sans-Serif" font-size="10.00">include/Thoth/Http</text>
<text text-anchor="middle" x="1129" y="-282" font-family="Helvetica,sans-Serif" font-size="10.00">/Methods/OptionsMethod.hpp</text>
</a>
</g>
</g>
<!-- Node6&#45;&gt;Node13 -->
<g id="edge16_Node000006_Node000013" class="edge">
<title>Node6&#45;&gt;Node13</title>
<g id="a_edge16_Node000006_Node000013"><a xlink:title=" ">
<path fill="none" stroke="#63b8ff" d="M938.19,-338.52C979.87,-328.14 1033.09,-314.88 1072.73,-305.01"/>
<polygon fill="#63b8ff" stroke="#63b8ff" points="937.26,-335.14 928.4,-340.95 938.95,-341.93 937.26,-335.14"/>
</a>
</g>
</g>
<!-- Node14 -->
<g id="Node000014" class="node">
<title>Node14</title>
<g id="a_Node000014"><a xlink:href="_patch_method_8hpp.html" target="_top" xlink:title=" ">
<polygon fill="white" stroke="#666666" points="1376.5,-305 1227.5,-305 1227.5,-275 1376.5,-275 1376.5,-305"/>
<text text-anchor="start" x="1235.5" y="-293" font-family="Helvetica,sans-Serif" font-size="10.00">include/Thoth/Http</text>
<text text-anchor="middle" x="1302" y="-282" font-family="Helvetica,sans-Serif" font-size="10.00">/Methods/PatchMethod.hpp</text>
</a>
</g>
</g>
<!-- Node6&#45;&gt;Node14 -->
<g id="edge17_Node000006_Node000014" class="edge">
<title>Node6&#45;&gt;Node14</title>
<g id="a_edge17_Node000006_Node000014"><a xlink:title=" ">
<path fill="none" stroke="#63b8ff" d="M978.96,-340.15C1047.37,-330.51 1137.97,-317.45 1218,-305 1221.07,-304.52 1224.2,-304.03 1227.36,-303.53"/>
<polygon fill="#63b8ff" stroke="#63b8ff" points="978.44,-336.69 969.03,-341.55 979.42,-343.62 978.44,-336.69"/>
</a>
</g>
</g>
<!-- Node15 -->
<g id="Node000015" class="node">
<title>Node15</title>
<g id="a_Node000015"><a xlink:href="_post_method_8hpp.html" target="_top" xlink:title=" ">
<polygon fill="white" stroke="#666666" points="510.5,-305 367.5,-305 367.5,-275 510.5,-275 510.5,-305"/>
<text text-anchor="start" x="375.5" y="-293" font-family="Helvetica,sans-Serif" font-size="10.00">include/Thoth/Http</text>
<text text-anchor="middle" x="439" y="-282" font-family="Helvetica,sans-Serif" font-size="10.00">/Methods/PostMethod.hpp</text>
</a>
</g>
</g>
<!-- Node6&#45;&gt;Node15 -->
<g id="edge18_Node000006_Node000015" class="edge">
<title>Node6&#45;&gt;Node15</title>
<g id="a_edge18_Node000006_Node000015"><a xlink:title=" ">
<path fill="none" stroke="#63b8ff" d="M764.64,-340.6C694.86,-331.03 601.94,-317.9 520,-305 516.9,-304.51 513.73,-304 510.53,-303.48"/>
<polygon fill="#63b8ff" stroke="#63b8ff" points="764.39,-344.1 774.77,-341.99 765.33,-337.16 764.39,-344.1"/>
</a>
</g>
</g>
<!-- Node16 -->
<g id="Node000016" class="node">
<title>Node16</title>
<g id="a_Node000016"><a xlink:href="_put_method_8hpp.html" target="_top" xlink:title=" ">
<polygon fill="white" stroke="#666666" points="1533,-305 1395,-305 1395,-275 1533,-275 1533,-305"/>
<text text-anchor="start" x="1403" y="-293" font-family="Helvetica,sans-Serif" font-size="10.00">include/Thoth/Http</text>
<text text-anchor="middle" x="1464" y="-282" font-family="Helvetica,sans-Serif" font-size="10.00">/Methods/PutMethod.hpp</text>
</a>
</g>
</g>
<!-- Node6&#45;&gt;Node16 -->
<g id="edge21_Node000006_Node000016" class="edge">
<title>Node6&#45;&gt;Node16</title>
<g id="a_edge21_Node000006_Node000016"><a xlink:title=" ">
<path fill="none" stroke="#63b8ff" d="M979.26,-341.01C1161.24,-321.49 1209.26,-328.63 1386,-305 1388.86,-304.62 1391.78,-304.2 1394.73,-303.76"/>
<polygon fill="#63b8ff" stroke="#63b8ff" points="978.65,-337.56 969.08,-342.12 979.4,-344.52 978.65,-337.56"/>
</a>
</g>
</g>
<!-- Node17 -->
<g id="Node000017" class="node">
<title>Node17</title>
<g id="a_Node000017"><a xlink:href="_trace_method_8hpp.html" target="_top" xlink:title=" ">
<polygon fill="white" stroke="#666666" points="1699,-305 1551,-305 1551,-275 1699,-275 1699,-305"/>
<text text-anchor="start" x="1559" y="-293" font-family="Helvetica,sans-Serif" font-size="10.00">include/Thoth/Http</text>
<text text-anchor="middle" x="1625" y="-282" font-family="Helvetica,sans-Serif" font-size="10.00">/Methods/TraceMethod.hpp</text>
</a>
</g>
</g>
<!-- Node6&#45;&gt;Node17 -->
<g id="edge22_Node000006_Node000017" class="edge">
<title>Node6&#45;&gt;Node17</title>
<g id="a_edge22_Node000006_Node000017"><a xlink:title=" ">
<path fill="none" stroke="#63b8ff" d="M979.23,-341.04C1230.28,-317.17 1296.22,-333.51 1542,-305 1544.9,-304.66 1547.86,-304.29 1550.84,-303.9"/>
<polygon fill="#63b8ff" stroke="#63b8ff" points="978.69,-337.57 969.07,-342.01 979.36,-344.54 978.69,-337.57"/>
</a>
</g>
</g>
<!-- Node9&#45;&gt;Node4 -->
<g id="edge14_Node000009_Node000004" class="edge">
<title>Node9&#45;&gt;Node4</title>
<g id="a_edge14_Node000009_Node000004"><a xlink:title=" ">
<path fill="none" stroke="#63b8ff" d="M1706.93,-274.83C1275.03,-201.59 769.56,-121.45 588.08,-92.85"/>
<polygon fill="#63b8ff" stroke="#63b8ff" points="1706.35,-278.28 1716.8,-276.5 1707.52,-271.38 1706.35,-278.28"/>
</a>
</g>
</g>
<!-- Node10 -->
<g id="Node000010" class="node">
<title>Node10</title>
<g id="a_Node000010"><a xlink:href="_request_8hpp.html" target="_top" xlink:title=" ">
<polygon fill="white" stroke="#666666" points="745.5,-239 622.5,-239 622.5,-209 745.5,-209 745.5,-239"/>
<text text-anchor="start" x="630.5" y="-227" font-family="Helvetica,sans-Serif" font-size="10.00">include/Thoth/Http</text>
<text text-anchor="middle" x="684" y="-216" font-family="Helvetica,sans-Serif" font-size="10.00">/Request/Request.hpp</text>
</a>
</g>
</g>
<!-- Node9&#45;&gt;Node10 -->
<g id="edge10_Node000009_Node000010" class="edge">
<title>Node9&#45;&gt;Node10</title>
<g id="a_edge10_Node000009_Node000010"><a xlink:title=" ">
<path fill="none" stroke="#63b8ff" d="M1706.76,-274.97C1336.83,-233.98 903.84,-226.64 745.68,-225.3"/>
<polygon fill="#63b8ff" stroke="#63b8ff" points="1706.53,-278.46 1716.86,-276.09 1707.31,-271.5 1706.53,-278.46"/>
</a>
</g>
</g>
<!-- Node10&#45;&gt;Node5 -->
<g id="edge11_Node000010_Node000005" class="edge">
<title>Node10&#45;&gt;Node5</title>
<g id="a_edge11_Node000010_Node000005"><a xlink:title=" ">
<path fill="none" stroke="#63b8ff" d="M681.97,-198.65C679.69,-179.76 674.9,-153.28 665,-132 645.78,-90.69 609.29,-50.75 588.84,-30.24"/>
<polygon fill="#63b8ff" stroke="#63b8ff" points="678.51,-199.23 683.05,-208.81 685.47,-198.5 678.51,-199.23"/>
</a>
</g>
</g>
<!-- Node10&#45;&gt;Node11 -->
<g id="edge12_Node000010_Node000011" class="edge">
<title>Node10&#45;&gt;Node11</title>
<g id="a_edge12_Node000010_Node000011"><a xlink:title=" ">
<path fill="none" stroke="#63b8ff" d="M653.24,-203.57C635.13,-192.12 612.62,-177.9 596.23,-167.54"/>
<polygon fill="#63b8ff" stroke="#63b8ff" points="651.42,-206.55 661.74,-208.94 655.16,-200.64 651.42,-206.55"/>
</a>
</g>
</g>
<!-- Node11&#45;&gt;Node4 -->
<g id="edge13_Node000011_Node000004" class="edge">
<title>Node11&#45;&gt;Node4</title>
<g id="a_edge13_Node000011_Node000004"><a xlink:title=" ">
<path fill="none" stroke="#63b8ff" d="M556.61,-129.53C547.94,-118.57 537.71,-105.65 530.11,-96.04"/>
<polygon fill="#63b8ff" stroke="#63b8ff" points="553.92,-131.77 562.87,-137.44 559.41,-127.42 553.92,-131.77"/>
</a>
</g>
</g>
<!-- Node15&#45;&gt;Node4 -->
<g id="edge20_Node000015_Node000004" class="edge">
<title>Node15&#45;&gt;Node4</title>
<g id="a_edge20_Node000015_Node000004"><a xlink:title=" ">
<path fill="none" stroke="#63b8ff" d="M443.03,-264.89C448.92,-233.24 461.58,-176.49 483,-132 489.31,-118.89 499.08,-105.6 506.84,-96.02"/>
<polygon fill="#63b8ff" stroke="#63b8ff" points="439.54,-264.52 441.23,-274.98 446.43,-265.75 439.54,-264.52"/>
</a>
</g>
</g>
<!-- Node15&#45;&gt;Node10 -->
<g id="edge19_Node000015_Node000010" class="edge">
<title>Node15&#45;&gt;Node10</title>
<g id="a_edge19_Node000015_Node000010"><a xlink:title=" ">
<path fill="none" stroke="#63b8ff" d="M502.6,-272.39C542.26,-262.03 592.73,-248.84 630.36,-239.01"/>
<polygon fill="#63b8ff" stroke="#63b8ff" points="501.56,-269.04 492.77,-274.95 503.33,-275.81 501.56,-269.04"/>
</a>
</g>
</g>
<!-- Node20&#45;&gt;Node10 -->
<g id="edge26_Node000020_Node000010" class="edge">
<title>Node20&#45;&gt;Node10</title>
<g id="a_edge26_Node000020_Node000010"><a xlink:title=" ">
<path fill="none" stroke="#63b8ff" d="M1212.97,-341.2C1321.28,-336.21 1817.73,-356 1866,-305 1875.17,-295.32 1875.23,-284.63 1866,-275 1826.94,-234.25 983.03,-226.61 745.63,-225.27"/>
<polygon fill="#63b8ff" stroke="#63b8ff" points="1212.47,-337.72 1202.71,-341.85 1212.92,-344.71 1212.47,-337.72"/>
</a>
</g>
</g>
<!-- Node21&#45;&gt;Node4 -->
<g id="edge28_Node000021_Node000004" class="edge">
<title>Node21&#45;&gt;Node4</title>
<g id="a_edge28_Node000021_Node000004"><a xlink:title=" ">
<path fill="none" stroke="#63b8ff" d="M316.78,-129.64C363.45,-118.65 418.64,-105.64 459.56,-96"/>
<polygon fill="#63b8ff" stroke="#63b8ff" points="315.89,-126.26 306.96,-131.96 317.5,-133.07 315.89,-126.26"/>
</a>
</g>
</g>
<!-- Node23 -->
<g id="Node000023" class="node">
<title>Node23</title>
<g id="a_Node000023"><a xlink:href="_headers_2__pch_8hpp.html" target="_top" xlink:title=" ">
<polygon fill="white" stroke="#666666" points="356,-503 198,-503 198,-473 356,-473 356,-503"/>
<text text-anchor="start" x="206" y="-491" font-family="Helvetica,sans-Serif" font-size="10.00">include/Thoth/Http</text>
<text text-anchor="middle" x="277" y="-480" font-family="Helvetica,sans-Serif" font-size="10.00">/NHeaders/Headers/_pch.hpp</text>
</a>
</g>
</g>
<!-- Node22&#45;&gt;Node23 -->
<g id="edge31_Node000022_Node000023" class="edge">
<title>Node22&#45;&gt;Node23</title>
<g id="a_edge31_Node000022_Node000023"><a xlink:title=" ">
<path fill="none" stroke="#63b8ff" d="M272.64,-528.83C273.59,-520.17 274.63,-510.7 275.45,-503.16"/>
<polygon fill="#63b8ff" stroke="#63b8ff" points="269.16,-528.48 271.55,-538.8 276.12,-529.24 269.16,-528.48"/>
</a>
</g>
</g>
<!-- Node23&#45;&gt;Node2 -->
<g id="edge32_Node000023_Node000002" class="edge">
<title>Node23&#45;&gt;Node2</title>
<g id="a_edge32_Node000023_Node000002"><a xlink:title=" ">
<path fill="none" stroke="#63b8ff" d="M297.96,-465.37C306.97,-456.06 317.26,-445.44 325.28,-437.16"/>
<polygon fill="#63b8ff" stroke="#63b8ff" points="295.2,-463.18 290.76,-472.8 300.23,-468.05 295.2,-463.18"/>
</a>
</g>
</g>
</g>
</svg>
