<?xml version="1.0" encoding="UTF-8" standalone="no"?>
<!DOCTYPE svg PUBLIC "-//W3C//DTD SVG 1.1//EN"
 "http://www.w3.org/Graphics/SVG/1.1/DTD/svg11.dtd">
<!-- Generated by graphviz version 2.43.0 (0)
 -->
<!-- Title: include/Thoth/Http/NHeaders/Proxy/_base.hpp Pages: 1 -->
<svg width="743pt" height="203pt"
 viewBox="0.00 0.00 742.50 203.00" xmlns="http://www.w3.org/2000/svg" xmlns:xlink="http://www.w3.org/1999/xlink">
<g id="graph0" class="graph" transform="scale(1 1) rotate(0) translate(4 199)">
<title>include/Thoth/Http/NHeaders/Proxy/_base.hpp</title>
<!-- Node1 -->
<g id="Node000001" class="node">
<title>Node1</title>
<g id="a_Node000001"><a xlink:title=" ">
<polygon fill="#999999" stroke="#666666" points="495,-195 344,-195 344,-165 495,-165 495,-195"/>
<text text-anchor="start" x="352" y="-183" font-family="Helvetica,sans-Serif" font-size="10.00">include/Thoth/Http</text>
<text text-anchor="middle" x="419.5" y="-172" font-family="Helvetica,sans-Serif" font-size="10.00">/NHeaders/Proxy/_base.hpp</text>
</a>
</g>
</g>
<!-- Node2 -->
<g id="Node000002" class="node">
<title>Node2</title>
<g id="a_Node000002"><a xlink:title=" ">
<polygon fill="#e0e0e0" stroke="#999999" points="73,-19 0,-19 0,0 73,0 73,-19"/>
<text text-anchor="middle" x="36.5" y="-7" font-family="Helvetica,sans-Serif" font-size="10.00">string_view</text>
</a>
</g>
</g>
<!-- Node1&#45;&gt;Node2 -->
<g id="edge1_Node000001_Node000002" class="edge">
<title>Node1&#45;&gt;Node2</title>
<g id="a_edge1_Node000001_Node000002"><a xlink:title=" ">
<path fill="none" stroke="#63b8ff" d="M343.78,-175.83C289.81,-170.93 216.93,-158.78 159.5,-129 110.99,-103.85 68.59,-53.51 48.63,-27.27"/>
<polygon fill="#63b8ff" stroke="#63b8ff" points="51.31,-25.01 42.54,-19.08 45.7,-29.19 51.31,-25.01"/>
</a>
</g>
</g>
<!-- Node3 -->
<g id="Node000003" class="node">
<title>Node3</title>
<g id="a_Node000003"><a xlink:title=" ">
<polygon fill="#e0e0e0" stroke="#999999" points="522.5,-129 466.5,-129 466.5,-110 522.5,-110 522.5,-129"/>
<text text-anchor="middle" x="494.5" y="-117" font-family="Helvetica,sans-Serif" font-size="10.00">optional</text>
</a>
</g>
</g>
<!-- Node1&#45;&gt;Node3 -->
<g id="edge2_Node000001_Node000003" class="edge">
<title>Node1&#45;&gt;Node3</title>
<g id="a_edge2_Node000001_Node000003"><a xlink:title=" ">
<path fill="none" stroke="#63b8ff" d="M437.66,-164.84C448.99,-156 463.56,-144.63 475.12,-135.62"/>
<polygon fill="#63b8ff" stroke="#63b8ff" points="477.53,-138.18 483.26,-129.27 473.22,-132.66 477.53,-138.18"/>
</a>
</g>
</g>
<!-- Node4 -->
<g id="Node000004" class="node">
<title>Node4</title>
<g id="a_Node000004"><a xlink:title=" ">
<polygon fill="#e0e0e0" stroke="#999999" points="592,-129 541,-129 541,-110 592,-110 592,-129"/>
<text text-anchor="middle" x="566.5" y="-117" font-family="Helvetica,sans-Serif" font-size="10.00">variant</text>
</a>
</g>
</g>
<!-- Node1&#45;&gt;Node4 -->
<g id="edge3_Node000001_Node000004" class="edge">
<title>Node1&#45;&gt;Node4</title>
<g id="a_edge3_Node000001_Node000004"><a xlink:title=" ">
<path fill="none" stroke="#63b8ff" d="M454.71,-164.99C479.24,-155.23 511.65,-142.33 535.26,-132.93"/>
<polygon fill="#63b8ff" stroke="#63b8ff" points="536.79,-136.09 544.79,-129.14 534.21,-129.58 536.79,-136.09"/>
</a>
</g>
</g>
<!-- Node5 -->
<g id="Node000005" class="node">
<title>Node5</title>
<g id="a_Node000005"><a xlink:title=" ">
<polygon fill="#e0e0e0" stroke="#999999" points="666.5,-129 610.5,-129 610.5,-110 666.5,-110 666.5,-129"/>
<text text-anchor="middle" x="638.5" y="-117" font-family="Helvetica,sans-Serif" font-size="10.00">iomanip</text>
</a>
</g>
</g>
<!-- Node1&#45;&gt;Node5 -->
<g id="edge4_Node000001_Node000005" class="edge">
<title>Node1&#45;&gt;Node5</title>
<g id="a_edge4_Node000001_Node000005"><a xlink:title=" ">
<path fill="none" stroke="#63b8ff" d="M471.96,-164.99C511.46,-154.44 564.71,-140.21 600.25,-130.72"/>
<polygon fill="#63b8ff" stroke="#63b8ff" points="601.47,-134.01 610.23,-128.05 599.67,-127.25 601.47,-134.01"/>
</a>
</g>
</g>
<!-- Node6 -->
<g id="Node000006" class="node">
<title>Node6</title>
<g id="a_Node000006"><a xlink:title=" ">
<polygon fill="#e0e0e0" stroke="#999999" points="436.5,-19 386.5,-19 386.5,0 436.5,0 436.5,-19"/>
<text text-anchor="middle" x="411.5" y="-7" font-family="Helvetica,sans-Serif" font-size="10.00">format</text>
</a>
</g>
</g>
<!-- Node1&#45;&gt;Node6 -->
<g id="edge5_Node000001_Node000006" class="edge">
<title>Node1&#45;&gt;Node6</title>
<g id="a_edge5_Node000001_Node000006"><a xlink:title=" ">
<path fill="none" stroke="#63b8ff" d="M422.31,-164.76C426.43,-141.59 432.96,-94.36 426.5,-55 425.03,-46.05 422.01,-36.47 419.06,-28.51"/>
<polygon fill="#63b8ff" stroke="#63b8ff" points="422.29,-27.16 415.36,-19.15 415.78,-29.74 422.29,-27.16"/>
</a>
</g>
</g>
<!-- Node7 -->
<g id="Node000007" class="node">
<title>Node7</title>
<g id="a_Node000007"><a xlink:title=" ">
<polygon fill="#e0e0e0" stroke="#999999" points="734.5,-129 684.5,-129 684.5,-110 734.5,-110 734.5,-129"/>
<text text-anchor="middle" x="709.5" y="-117" font-family="Helvetica,sans-Serif" font-size="10.00">chrono</text>
</a>
</g>
</g>
<!-- Node1&#45;&gt;Node7 -->
<g id="edge6_Node000001_Node000007" class="edge">
<title>Node1&#45;&gt;Node7</title>
<g id="a_edge6_Node000001_Node000007"><a xlink:title=" ">
<path fill="none" stroke="#63b8ff" d="M495.05,-165.31C543.64,-156.26 608.36,-143.74 674.15,-129.21"/>
<polygon fill="#63b8ff" stroke="#63b8ff" points="675.28,-132.55 684.28,-126.96 673.76,-125.71 675.28,-132.55"/>
</a>
</g>
</g>
<!-- Node8 -->
<g id="Node000008" class="node">
<title>Node8</title>
<g id="a_Node000008"><a xlink:title=" ">
<polygon fill="#e0e0e0" stroke="#999999" points="135.5,-19 91.5,-19 91.5,0 135.5,0 135.5,-19"/>
<text text-anchor="middle" x="113.5" y="-7" font-family="Helvetica,sans-Serif" font-size="10.00">string</text>
</a>
</g>
</g>
<!-- Node1&#45;&gt;Node8 -->
<g id="edge7_Node000001_Node000008" class="edge">
<title>Node1&#45;&gt;Node8</title>
<g id="a_edge7_Node000001_Node000008"><a xlink:title=" ">
<path fill="none" stroke="#63b8ff" d="M343.56,-166.76C303.33,-158.8 253.67,-146.57 211.5,-129 168.58,-111.12 147.94,-112.92 122.5,-74 113.84,-60.75 112.02,-42.63 112.12,-29.14"/>
<polygon fill="#63b8ff" stroke="#63b8ff" points="115.62,-29.24 112.54,-19.1 108.62,-28.94 115.62,-29.24"/>
</a>
</g>
</g>
<!-- Node9 -->
<g id="Node000009" class="node">
<title>Node9</title>
<g id="a_Node000009"><a xlink:href="_string_2_utils_8hpp.html" target="_top" xlink:title=" ">
<polygon fill="white" stroke="#666666" points="253.5,-74 131.5,-74 131.5,-55 253.5,-55 253.5,-74"/>
<text text-anchor="middle" x="192.5" y="-62" font-family="Helvetica,sans-Serif" font-size="10.00">Thoth/String/Utils.hpp</text>
</a>
</g>
</g>
<!-- Node1&#45;&gt;Node9 -->
<g id="edge8_Node000001_Node000009" class="edge">
<title>Node1&#45;&gt;Node9</title>
<g id="a_edge8_Node000001_Node000009"><a xlink:title=" ">
<path fill="none" stroke="#63b8ff" d="M343.76,-172.07C306.99,-165.6 263.87,-153.1 231.5,-129 216.14,-117.56 205.5,-98.11 199.26,-83.75"/>
<polygon fill="#63b8ff" stroke="#63b8ff" points="202.47,-82.34 195.49,-74.37 195.97,-84.95 202.47,-82.34"/>
</a>
</g>
</g>
<!-- Node12 -->
<g id="Node000012" class="node">
<title>Node12</title>
<g id="a_Node000012"><a xlink:href="_monostate_8hpp.html" target="_top" xlink:title=" ">
<polygon fill="white" stroke="#666666" points="417.5,-74 271.5,-74 271.5,-55 417.5,-55 417.5,-74"/>
<text text-anchor="middle" x="344.5" y="-62" font-family="Helvetica,sans-Serif" font-size="10.00">Thoth/Utils/Monostate.hpp</text>
</a>
</g>
</g>
<!-- Node1&#45;&gt;Node12 -->
<g id="edge13_Node000001_Node000012" class="edge">
<title>Node1&#45;&gt;Node12</title>
<g id="a_edge13_Node000001_Node000012"><a xlink:title=" ">
<path fill="none" stroke="#63b8ff" d="M412.68,-164.79C405.59,-150.51 393.83,-128.08 381.5,-110 374.86,-100.27 366.54,-90.11 359.47,-81.97"/>
<polygon fill="#63b8ff" stroke="#63b8ff" points="361.94,-79.47 352.68,-74.3 356.7,-84.11 361.94,-79.47"/>
</a>
</g>
</g>
<!-- Node13 -->
<g id="Node000013" class="node">
<title>Node13</title>
<g id="a_Node000013"><a xlink:href="_scanner_8hpp.html" target="_top" xlink:title=" ">
<polygon fill="white" stroke="#666666" points="372.5,-129 240.5,-129 240.5,-110 372.5,-110 372.5,-129"/>
<text text-anchor="middle" x="306.5" y="-117" font-family="Helvetica,sans-Serif" font-size="10.00">Thoth/Utils/Scanner.hpp</text>
</a>
</g>
</g>
<!-- Node1&#45;&gt;Node13 -->
<g id="edge15_Node000001_Node000013" class="edge">
<title>Node1&#45;&gt;Node13</title>
<g id="a_edge15_Node000001_Node000013"><a xlink:title=" ">
<path fill="none" stroke="#63b8ff" d="M392.43,-164.99C374.25,-155.58 350.43,-143.24 332.48,-133.95"/>
<polygon fill="#63b8ff" stroke="#63b8ff" points="333.68,-130.63 323.19,-129.14 330.46,-136.84 333.68,-130.63"/>
</a>
</g>
</g>
<!-- Node9&#45;&gt;Node2 -->
<g id="edge10_Node000009_Node000002" class="edge">
<title>Node9&#45;&gt;Node2</title>
<g id="a_edge10_Node000009_Node000002"><a xlink:title=" ">
<path fill="none" stroke="#63b8ff" d="M167.44,-54.98C141.47,-46.16 100.69,-32.31 71.54,-22.41"/>
<polygon fill="#63b8ff" stroke="#63b8ff" points="72.35,-18.99 61.76,-19.08 70.1,-25.61 72.35,-18.99"/>
</a>
</g>
</g>
<!-- Node9&#45;&gt;Node8 -->
<g id="edge11_Node000009_Node000008" class="edge">
<title>Node9&#45;&gt;Node8</title>
<g id="a_edge11_Node000009_Node000008"><a xlink:title=" ">
<path fill="none" stroke="#63b8ff" d="M179.81,-54.98C167.67,-46.84 149.14,-34.41 134.75,-24.76"/>
<polygon fill="#63b8ff" stroke="#63b8ff" points="136.68,-21.84 126.42,-19.17 132.78,-27.65 136.68,-21.84"/>
</a>
</g>
</g>
<!-- Node10 -->
<g id="Node000010" class="node">
<title>Node10</title>
<g id="a_Node000010"><a xlink:title=" ">
<polygon fill="#e0e0e0" stroke="#999999" points="335.5,-19 291.5,-19 291.5,0 335.5,0 335.5,-19"/>
<text text-anchor="middle" x="313.5" y="-7" font-family="Helvetica,sans-Serif" font-size="10.00">bitset</text>
</a>
</g>
</g>
<!-- Node9&#45;&gt;Node10 -->
<g id="edge9_Node000009_Node000010" class="edge">
<title>Node9&#45;&gt;Node10</title>
<g id="a_edge9_Node000009_Node000010"><a xlink:title=" ">
<path fill="none" stroke="#63b8ff" d="M211.94,-54.98C231.49,-46.42 261.88,-33.11 284.32,-23.28"/>
<polygon fill="#63b8ff" stroke="#63b8ff" points="285.95,-26.39 293.71,-19.17 283.14,-19.98 285.95,-26.39"/>
</a>
</g>
</g>
<!-- Node11 -->
<g id="Node000011" class="node">
<title>Node11</title>
<g id="a_Node000011"><a xlink:title=" ">
<polygon fill="#e0e0e0" stroke="#999999" points="273.5,-19 153.5,-19 153.5,0 273.5,0 273.5,-19"/>
<text text-anchor="middle" x="213.5" y="-7" font-family="Helvetica,sans-Serif" font-size="10.00">Thoth/String/Utils.tpp</text>
</a>
</g>
</g>
<!-- Node9&#45;&gt;Node11 -->
<g id="edge12_Node000009_Node000011" class="edge">
<title>Node9&#45;&gt;Node11</title>
<g id="a_edge12_Node000009_Node000011"><a xlink:title=" ">
<path fill="none" stroke="#63b8ff" d="M195.97,-54.75C198.78,-47.65 202.84,-37.4 206.35,-28.56"/>
<polygon fill="#63b8ff" stroke="#63b8ff" points="209.67,-29.68 210.1,-19.09 203.16,-27.1 209.67,-29.68"/>
</a>
</g>
</g>
<!-- Node12&#45;&gt;Node6 -->
<g id="edge14_Node000012_Node000006" class="edge">
<title>Node12&#45;&gt;Node6</title>
<g id="a_edge14_Node000012_Node000006"><a xlink:title=" ">
<path fill="none" stroke="#63b8ff" d="M355.26,-54.98C365.27,-47.07 380.39,-35.11 392.43,-25.58"/>
<polygon fill="#63b8ff" stroke="#63b8ff" points="394.87,-28.12 400.54,-19.17 390.53,-22.63 394.87,-28.12"/>
</a>
</g>
</g>
<!-- Node13&#45;&gt;Node9 -->
<g id="edge17_Node000013_Node000009" class="edge">
<title>Node13&#45;&gt;Node9</title>
<g id="a_edge17_Node000013_Node000009"><a xlink:title=" ">
<path fill="none" stroke="#63b8ff" d="M288.18,-109.98C269.84,-101.46 241.39,-88.23 220.27,-78.41"/>
<polygon fill="#63b8ff" stroke="#63b8ff" points="221.69,-75.21 211.15,-74.17 218.74,-81.56 221.69,-75.21"/>
</a>
</g>
</g>
<!-- Node13&#45;&gt;Node12 -->
<g id="edge16_Node000013_Node000012" class="edge">
<title>Node13&#45;&gt;Node12</title>
<g id="a_edge16_Node000013_Node000012"><a xlink:title=" ">
<path fill="none" stroke="#63b8ff" d="M312.77,-109.75C318.09,-102.34 325.86,-91.5 332.38,-82.41"/>
<polygon fill="#63b8ff" stroke="#63b8ff" points="335.36,-84.26 338.34,-74.09 329.67,-80.18 335.36,-84.26"/>
</a>
</g>
</g>
</g>
</svg>
