<?xml version="1.0" encoding="UTF-8" standalone="no"?>
<!DOCTYPE svg PUBLIC "-//W3C//DTD SVG 1.1//EN"
 "http://www.w3.org/Graphics/SVG/1.1/DTD/svg11.dtd">
<!-- Generated by graphviz version 2.43.0 (0)
 -->
<!-- Title: include/Thoth/NJson/JsonObject.hpp Pages: 1 -->
<svg width="669pt" height="148pt"
 viewBox="0.00 0.00 668.50 148.00" xmlns="http://www.w3.org/2000/svg" xmlns:xlink="http://www.w3.org/1999/xlink">
<g id="graph0" class="graph" transform="scale(1 1) rotate(0) translate(4 144)">
<title>include/Thoth/NJson/JsonObject.hpp</title>
<!-- Node1 -->
<g id="Node000001" class="node">
<title>Node1</title>
<g id="a_Node000001"><a xlink:title=" ">
<polygon fill="#999999" stroke="#666666" points="245.5,-140 132.5,-140 132.5,-110 245.5,-110 245.5,-140"/>
<text text-anchor="start" x="140.5" y="-128" font-family="Helvetica,sans-Serif" font-size="10.00">include/Thoth/NJson</text>
<text text-anchor="middle" x="189" y="-117" font-family="Helvetica,sans-Serif" font-size="10.00">/JsonObject.hpp</text>
</a>
</g>
</g>
<!-- Node2 -->
<g id="Node000002" class="node">
<title>Node2</title>
<g id="a_Node000002"><a xlink:title=" ">
<polygon fill="#e0e0e0" stroke="#999999" points="56,-74 0,-74 0,-55 56,-55 56,-74"/>
<text text-anchor="middle" x="28" y="-62" font-family="Helvetica,sans-Serif" font-size="10.00">optional</text>
</a>
</g>
</g>
<!-- Node1&#45;&gt;Node2 -->
<g id="edge1_Node000001_Node000002" class="edge">
<title>Node1&#45;&gt;Node2</title>
<g id="a_edge1_Node000001_Node000002"><a xlink:title=" ">
<path fill="none" stroke="#63b8ff" d="M150.44,-109.99C123.21,-100.1 87.12,-86.98 61.18,-77.56"/>
<polygon fill="#63b8ff" stroke="#63b8ff" points="62.37,-74.26 51.78,-74.14 59.98,-80.84 62.37,-74.26"/>
</a>
</g>
</g>
<!-- Node3 -->
<g id="Node000003" class="node">
<title>Node3</title>
<g id="a_Node000003"><a xlink:title=" ">
<polygon fill="#e0e0e0" stroke="#999999" points="124,-74 74,-74 74,-55 124,-55 124,-74"/>
<text text-anchor="middle" x="99" y="-62" font-family="Helvetica,sans-Serif" font-size="10.00">format</text>
</a>
</g>
</g>
<!-- Node1&#45;&gt;Node3 -->
<g id="edge2_Node000001_Node000003" class="edge">
<title>Node1&#45;&gt;Node3</title>
<g id="a_edge2_Node000001_Node000003"><a xlink:title=" ">
<path fill="none" stroke="#63b8ff" d="M167.21,-109.84C153.13,-100.68 134.87,-88.82 120.79,-79.66"/>
<polygon fill="#63b8ff" stroke="#63b8ff" points="122.51,-76.61 112.22,-74.09 118.7,-82.48 122.51,-76.61"/>
</a>
</g>
</g>
<!-- Node4 -->
<g id="Node000004" class="node">
<title>Node4</title>
<g id="a_Node000004"><a xlink:title=" ">
<polygon fill="#e0e0e0" stroke="#999999" points="186,-74 142,-74 142,-55 186,-55 186,-74"/>
<text text-anchor="middle" x="164" y="-62" font-family="Helvetica,sans-Serif" font-size="10.00">string</text>
</a>
</g>
</g>
<!-- Node1&#45;&gt;Node4 -->
<g id="edge3_Node000001_Node000004" class="edge">
<title>Node1&#45;&gt;Node4</title>
<g id="a_edge3_Node000001_Node000004"><a xlink:title=" ">
<path fill="none" stroke="#63b8ff" d="M182.95,-109.84C179.58,-101.95 175.35,-92.05 171.74,-83.61"/>
<polygon fill="#63b8ff" stroke="#63b8ff" points="174.89,-82.09 167.75,-74.27 168.46,-84.84 174.89,-82.09"/>
</a>
</g>
</g>
<!-- Node5 -->
<g id="Node000005" class="node">
<title>Node5</title>
<g id="a_Node000005"><a xlink:title=" ">
<polygon fill="#e0e0e0" stroke="#999999" points="201.5,-19 154.5,-19 154.5,0 201.5,0 201.5,-19"/>
<text text-anchor="middle" x="178" y="-7" font-family="Helvetica,sans-Serif" font-size="10.00">vector</text>
</a>
</g>
</g>
<!-- Node1&#45;&gt;Node5 -->
<g id="edge4_Node000001_Node000005" class="edge">
<title>Node1&#45;&gt;Node5</title>
<g id="a_edge4_Node000001_Node000005"><a xlink:title=" ">
<path fill="none" stroke="#63b8ff" d="M192.43,-109.89C195.31,-95.87 198.47,-73.8 195,-55 193.33,-45.95 189.9,-36.36 186.56,-28.41"/>
<polygon fill="#63b8ff" stroke="#63b8ff" points="189.66,-26.78 182.37,-19.09 183.27,-29.65 189.66,-26.78"/>
</a>
</g>
</g>
<!-- Node6 -->
<g id="Node000006" class="node">
<title>Node6</title>
<g id="a_Node000006"><a xlink:href="_linear_map_8hpp.html" target="_top" xlink:title=" ">
<polygon fill="white" stroke="#666666" points="383.5,-74 242.5,-74 242.5,-55 383.5,-55 383.5,-74"/>
<text text-anchor="middle" x="313" y="-62" font-family="Helvetica,sans-Serif" font-size="10.00">Thoth/Dsa/LinearMap.hpp</text>
</a>
</g>
</g>
<!-- Node1&#45;&gt;Node6 -->
<g id="edge5_Node000001_Node000006" class="edge">
<title>Node1&#45;&gt;Node6</title>
<g id="a_edge5_Node000001_Node000006"><a xlink:title=" ">
<path fill="none" stroke="#63b8ff" d="M218.7,-109.99C239.02,-100.4 265.76,-87.79 285.58,-78.44"/>
<polygon fill="#63b8ff" stroke="#63b8ff" points="287.14,-81.57 294.69,-74.14 284.15,-75.24 287.14,-81.57"/>
</a>
</g>
</g>
<!-- Node12 -->
<g id="Node000012" class="node">
<title>Node12</title>
<g id="a_Node000012"><a xlink:title=" ">
<polygon fill="#e0e0e0" stroke="#999999" points="550.5,-74 401.5,-74 401.5,-55 550.5,-55 550.5,-74"/>
<text text-anchor="middle" x="476" y="-62" font-family="Helvetica,sans-Serif" font-size="10.00">Thoth/NJson/JsonObject.tpp</text>
</a>
</g>
</g>
<!-- Node1&#45;&gt;Node12 -->
<g id="edge12_Node000001_Node000012" class="edge">
<title>Node1&#45;&gt;Node12</title>
<g id="a_edge12_Node000001_Node000012"><a xlink:title=" ">
<path fill="none" stroke="#63b8ff" d="M245.7,-112.44C297.66,-101.85 373.95,-86.3 424.28,-76.04"/>
<polygon fill="#63b8ff" stroke="#63b8ff" points="425.2,-79.43 434.3,-74 423.8,-72.57 425.2,-79.43"/>
</a>
</g>
</g>
<!-- Node6&#45;&gt;Node5 -->
<g id="edge6_Node000006_Node000005" class="edge">
<title>Node6&#45;&gt;Node5</title>
<g id="a_edge6_Node000006_Node000005"><a xlink:title=" ">
<path fill="none" stroke="#63b8ff" d="M291.31,-54.98C269.2,-46.3 234.68,-32.75 209.55,-22.88"/>
<polygon fill="#63b8ff" stroke="#63b8ff" points="210.67,-19.57 200.08,-19.17 208.11,-26.08 210.67,-19.57"/>
</a>
</g>
</g>
<!-- Node7 -->
<g id="Node000007" class="node">
<title>Node7</title>
<g id="a_Node000007"><a xlink:title=" ">
<polygon fill="#e0e0e0" stroke="#999999" points="264.5,-19 219.5,-19 219.5,0 264.5,0 264.5,-19"/>
<text text-anchor="middle" x="242" y="-7" font-family="Helvetica,sans-Serif" font-size="10.00">utility</text>
</a>
</g>
</g>
<!-- Node6&#45;&gt;Node7 -->
<g id="edge7_Node000006_Node000007" class="edge">
<title>Node6&#45;&gt;Node7</title>
<g id="a_edge7_Node000006_Node000007"><a xlink:title=" ">
<path fill="none" stroke="#63b8ff" d="M301.59,-54.98C290.89,-47 274.66,-34.88 261.84,-25.31"/>
<polygon fill="#63b8ff" stroke="#63b8ff" points="263.72,-22.35 253.61,-19.17 259.53,-27.96 263.72,-22.35"/>
</a>
</g>
</g>
<!-- Node8 -->
<g id="Node000008" class="node">
<title>Node8</title>
<g id="a_Node000008"><a xlink:title=" ">
<polygon fill="#e0e0e0" stroke="#999999" points="343,-19 283,-19 283,0 343,0 343,-19"/>
<text text-anchor="middle" x="313" y="-7" font-family="Helvetica,sans-Serif" font-size="10.00">concepts</text>
</a>
</g>
</g>
<!-- Node6&#45;&gt;Node8 -->
<g id="edge8_Node000006_Node000008" class="edge">
<title>Node6&#45;&gt;Node8</title>
<g id="a_edge8_Node000006_Node000008"><a xlink:title=" ">
<path fill="none" stroke="#63b8ff" d="M313,-54.75C313,-47.8 313,-37.85 313,-29.13"/>
<polygon fill="#63b8ff" stroke="#63b8ff" points="316.5,-29.09 313,-19.09 309.5,-29.09 316.5,-29.09"/>
</a>
</g>
</g>
<!-- Node9 -->
<g id="Node000009" class="node">
<title>Node9</title>
<g id="a_Node000009"><a xlink:title=" ">
<polygon fill="#e0e0e0" stroke="#999999" points="426.5,-19 361.5,-19 361.5,0 426.5,0 426.5,-19"/>
<text text-anchor="middle" x="394" y="-7" font-family="Helvetica,sans-Serif" font-size="10.00">functional</text>
</a>
</g>
</g>
<!-- Node6&#45;&gt;Node9 -->
<g id="edge9_Node000006_Node000009" class="edge">
<title>Node6&#45;&gt;Node9</title>
<g id="a_edge9_Node000006_Node000009"><a xlink:title=" ">
<path fill="none" stroke="#63b8ff" d="M326.01,-54.98C338.46,-46.84 357.46,-34.41 372.21,-24.76"/>
<polygon fill="#63b8ff" stroke="#63b8ff" points="374.3,-27.57 380.75,-19.17 370.46,-21.72 374.3,-27.57"/>
</a>
</g>
</g>
<!-- Node10 -->
<g id="Node000010" class="node">
<title>Node10</title>
<g id="a_Node000010"><a xlink:title=" ">
<polygon fill="#e0e0e0" stroke="#999999" points="503.5,-19 444.5,-19 444.5,0 503.5,0 503.5,-19"/>
<text text-anchor="middle" x="474" y="-7" font-family="Helvetica,sans-Serif" font-size="10.00">compare</text>
</a>
</g>
</g>
<!-- Node6&#45;&gt;Node10 -->
<g id="edge10_Node000006_Node000010" class="edge">
<title>Node6&#45;&gt;Node10</title>
<g id="a_edge10_Node000006_Node000010"><a xlink:title=" ">
<path fill="none" stroke="#63b8ff" d="M338.87,-54.98C365.78,-46.13 408.12,-32.19 438.23,-22.28"/>
<polygon fill="#63b8ff" stroke="#63b8ff" points="439.53,-25.53 447.93,-19.08 437.34,-18.88 439.53,-25.53"/>
</a>
</g>
</g>
<!-- Node11 -->
<g id="Node000011" class="node">
<title>Node11</title>
<g id="a_Node000011"><a xlink:title=" ">
<polygon fill="#e0e0e0" stroke="#999999" points="660.5,-19 521.5,-19 521.5,0 660.5,0 660.5,-19"/>
<text text-anchor="middle" x="591" y="-7" font-family="Helvetica,sans-Serif" font-size="10.00">Thoth/Dsa/LinearMap.tpp</text>
</a>
</g>
</g>
<!-- Node6&#45;&gt;Node11 -->
<g id="edge11_Node000006_Node000011" class="edge">
<title>Node6&#45;&gt;Node11</title>
<g id="a_edge11_Node000006_Node000011"><a xlink:title=" ">
<path fill="none" stroke="#63b8ff" d="M357.67,-54.98C406.16,-45.74 483.65,-30.97 535.89,-21.01"/>
<polygon fill="#63b8ff" stroke="#63b8ff" points="536.82,-24.39 545.98,-19.08 535.51,-17.52 536.82,-24.39"/>
</a>
</g>
</g>
</g>
</svg>
