<?xml version="1.0" encoding="UTF-8" standalone="no"?>
<!DOCTYPE svg PUBLIC "-//W3C//DTD SVG 1.1//EN"
 "http://www.w3.org/Graphics/SVG/1.1/DTD/svg11.dtd">
<!-- Generated by graphviz version 2.43.0 (0)
 -->
<!-- Title: include/Thoth/NJson/Json.hpp Pages: 1 -->
<svg width="1246pt" height="269pt"
 viewBox="0.00 0.00 1245.50 269.00" xmlns="http://www.w3.org/2000/svg" xmlns:xlink="http://www.w3.org/1999/xlink">
<g id="graph0" class="graph" transform="scale(1 1) rotate(0) translate(4 265)">
<title>include/Thoth/NJson/Json.hpp</title>
<!-- Node1 -->
<g id="Node000001" class="node">
<title>Node1</title>
<g id="a_Node000001"><a xlink:title=" ">
<polygon fill="#999999" stroke="#666666" points="730.5,-261 617.5,-261 617.5,-231 730.5,-231 730.5,-261"/>
<text text-anchor="start" x="625.5" y="-249" font-family="Helvetica,sans-Serif" font-size="10.00">include/Thoth/NJson</text>
<text text-anchor="middle" x="674" y="-238" font-family="Helvetica,sans-Serif" font-size="10.00">/Json.hpp</text>
</a>
</g>
</g>
<!-- Node2 -->
<g id="Node000002" class="node">
<title>Node2</title>
<g id="a_Node000002"><a xlink:title=" ">
<polygon fill="#e0e0e0" stroke="#999999" points="440.5,-19 389.5,-19 389.5,0 440.5,0 440.5,-19"/>
<text text-anchor="middle" x="415" y="-7" font-family="Helvetica,sans-Serif" font-size="10.00">variant</text>
</a>
</g>
</g>
<!-- Node1&#45;&gt;Node2 -->
<g id="edge1_Node000001_Node000002" class="edge">
<title>Node1&#45;&gt;Node2</title>
<g id="a_edge1_Node000001_Node000002"><a xlink:title=" ">
<path fill="none" stroke="#63b8ff" d="M617.27,-245.2C543,-242 415.52,-223.75 358,-140 332.4,-102.73 373.09,-52.1 397.97,-26.6"/>
<polygon fill="#63b8ff" stroke="#63b8ff" points="400.75,-28.77 405.39,-19.25 395.82,-23.8 400.75,-28.77"/>
</a>
</g>
</g>
<!-- Node3 -->
<g id="Node000003" class="node">
<title>Node3</title>
<g id="a_Node000003"><a xlink:title=" ">
<polygon fill="#e0e0e0" stroke="#999999" points="371,-19 313,-19 313,0 371,0 371,-19"/>
<text text-anchor="middle" x="342" y="-7" font-family="Helvetica,sans-Serif" font-size="10.00">memory</text>
</a>
</g>
</g>
<!-- Node1&#45;&gt;Node3 -->
<g id="edge2_Node000001_Node000003" class="edge">
<title>Node1&#45;&gt;Node3</title>
<g id="a_edge2_Node000001_Node000003"><a xlink:title=" ">
<path fill="none" stroke="#63b8ff" d="M617.33,-239.68C546.07,-232.2 428.51,-216.97 391,-195 363.75,-179.03 357.08,-169.58 346,-140 332.05,-102.73 335.47,-55.13 338.91,-29.27"/>
<polygon fill="#63b8ff" stroke="#63b8ff" points="342.43,-29.45 340.44,-19.04 335.5,-28.42 342.43,-29.45"/>
</a>
</g>
</g>
<!-- Node4 -->
<g id="Node000004" class="node">
<title>Node4</title>
<g id="a_Node000004"><a xlink:title=" ">
<polygon fill="#e0e0e0" stroke="#999999" points="656.5,-74 609.5,-74 609.5,-55 656.5,-55 656.5,-74"/>
<text text-anchor="middle" x="633" y="-62" font-family="Helvetica,sans-Serif" font-size="10.00">vector</text>
</a>
</g>
</g>
<!-- Node1&#45;&gt;Node4 -->
<g id="edge3_Node000001_Node000004" class="edge">
<title>Node1&#45;&gt;Node4</title>
<g id="a_edge3_Node000001_Node000004"><a xlink:title=" ">
<path fill="none" stroke="#63b8ff" d="M630.75,-230.95C614.01,-223.15 596.6,-211.59 587,-195 578.01,-179.46 577.62,-151.77 596,-110 600.63,-99.49 608.5,-89.49 615.79,-81.65"/>
<polygon fill="#63b8ff" stroke="#63b8ff" points="618.49,-83.89 623.03,-74.32 613.51,-78.98 618.49,-83.89"/>
</a>
</g>
</g>
<!-- Node5 -->
<g id="Node000005" class="node">
<title>Node5</title>
<g id="a_Node000005"><a xlink:title=" ">
<polygon fill="#e0e0e0" stroke="#999999" points="44,-19 0,-19 0,0 44,0 44,-19"/>
<text text-anchor="middle" x="22" y="-7" font-family="Helvetica,sans-Serif" font-size="10.00">string</text>
</a>
</g>
</g>
<!-- Node1&#45;&gt;Node5 -->
<g id="edge4_Node000001_Node000005" class="edge">
<title>Node1&#45;&gt;Node5</title>
<g id="a_edge4_Node000001_Node000005"><a xlink:title=" ">
<path fill="none" stroke="#63b8ff" d="M617.34,-241.25C504.77,-231.3 249.16,-195.9 79,-74 61.02,-61.12 44.63,-41.67 34.08,-27.69"/>
<polygon fill="#63b8ff" stroke="#63b8ff" points="36.77,-25.43 28.04,-19.41 31.11,-29.55 36.77,-25.43"/>
</a>
</g>
</g>
<!-- Node6 -->
<g id="Node000006" class="node">
<title>Node6</title>
<g id="a_Node000006"><a xlink:title=" ">
<polygon fill="#e0e0e0" stroke="#999999" points="756,-74 700,-74 700,-55 756,-55 756,-74"/>
<text text-anchor="middle" x="728" y="-62" font-family="Helvetica,sans-Serif" font-size="10.00">optional</text>
</a>
</g>
</g>
<!-- Node1&#45;&gt;Node6 -->
<g id="edge5_Node000001_Node000006" class="edge">
<title>Node1&#45;&gt;Node6</title>
<g id="a_edge5_Node000001_Node000006"><a xlink:title=" ">
<path fill="none" stroke="#63b8ff" d="M730.63,-242.39C797.91,-235.9 907.5,-213.86 959,-140 966.63,-129.06 967.49,-120.28 959,-110 935.02,-80.96 825.7,-70.67 766.45,-67.18"/>
<polygon fill="#63b8ff" stroke="#63b8ff" points="766.53,-63.68 756.35,-66.62 766.14,-70.67 766.53,-63.68"/>
</a>
</g>
</g>
<!-- Node7 -->
<g id="Node000007" class="node">
<title>Node7</title>
<g id="a_Node000007"><a xlink:title=" ">
<polygon fill="#e0e0e0" stroke="#999999" points="933,-74 871,-74 871,-55 933,-55 933,-74"/>
<text text-anchor="middle" x="902" y="-62" font-family="Helvetica,sans-Serif" font-size="10.00">expected</text>
</a>
</g>
</g>
<!-- Node1&#45;&gt;Node7 -->
<g id="edge6_Node000001_Node000007" class="edge">
<title>Node1&#45;&gt;Node7</title>
<g id="a_edge6_Node000001_Node000007"><a xlink:title=" ">
<path fill="none" stroke="#63b8ff" d="M730.52,-243.61C783.76,-240.1 864.21,-228.99 925,-195 963.45,-173.5 997.69,-148.35 976,-110 967.83,-95.55 952.88,-85.27 938.54,-78.26"/>
<polygon fill="#63b8ff" stroke="#63b8ff" points="939.85,-75.01 929.29,-74.12 936.99,-81.4 939.85,-75.01"/>
</a>
</g>
</g>
<!-- Node8 -->
<g id="Node000008" class="node">
<title>Node8</title>
<g id="a_Node000008"><a xlink:title=" ">
<polygon fill="#e0e0e0" stroke="#999999" points="645,-19 585,-19 585,0 645,0 645,-19"/>
<text text-anchor="middle" x="615" y="-7" font-family="Helvetica,sans-Serif" font-size="10.00">concepts</text>
</a>
</g>
</g>
<!-- Node1&#45;&gt;Node8 -->
<g id="edge7_Node000001_Node000008" class="edge">
<title>Node1&#45;&gt;Node8</title>
<g id="a_edge7_Node000001_Node000008"><a xlink:title=" ">
<path fill="none" stroke="#63b8ff" d="M730.64,-240.79C806.64,-234.27 936.73,-219.84 977,-195 1036.55,-158.26 1095.88,-106.94 1049,-55 1022.87,-26.05 757.87,-14.88 655.27,-11.62"/>
<polygon fill="#63b8ff" stroke="#63b8ff" points="655.11,-8.11 645,-11.3 654.89,-15.11 655.11,-8.11"/>
</a>
</g>
</g>
<!-- Node9 -->
<g id="Node000009" class="node">
<title>Node9</title>
<g id="a_Node000009"><a xlink:title=" ">
<polygon fill="#e0e0e0" stroke="#999999" points="1040,-74 1000,-74 1000,-55 1040,-55 1040,-74"/>
<text text-anchor="middle" x="1020" y="-62" font-family="Helvetica,sans-Serif" font-size="10.00">span</text>
</a>
</g>
</g>
<!-- Node1&#45;&gt;Node9 -->
<g id="edge8_Node000001_Node000009" class="edge">
<title>Node1&#45;&gt;Node9</title>
<g id="a_edge8_Node000001_Node000009"><a xlink:title=" ">
<path fill="none" stroke="#63b8ff" d="M730.68,-239.86C801.2,-232.62 916.77,-217.7 953,-195 992.75,-170.09 1010.06,-113.38 1016.59,-83.97"/>
<polygon fill="#63b8ff" stroke="#63b8ff" points="1020.02,-84.65 1018.59,-74.15 1013.16,-83.25 1020.02,-84.65"/>
</a>
</g>
</g>
<!-- Node10 -->
<g id="Node000010" class="node">
<title>Node10</title>
<g id="a_Node000010"><a xlink:href="_definitions_8hpp.html" target="_top" xlink:title=" ">
<polygon fill="white" stroke="#666666" points="519,-134.5 367,-134.5 367,-115.5 519,-115.5 519,-134.5"/>
<text text-anchor="middle" x="443" y="-122.5" font-family="Helvetica,sans-Serif" font-size="10.00">Thoth/NJson/Definitions.hpp</text>
</a>
</g>
</g>
<!-- Node1&#45;&gt;Node10 -->
<g id="edge9_Node000001_Node000010" class="edge">
<title>Node1&#45;&gt;Node10</title>
<g id="a_edge9_Node000001_Node000010"><a xlink:title=" ">
<path fill="none" stroke="#63b8ff" d="M622.44,-230.98C595,-222.48 561.19,-210.31 533,-195 505.34,-179.98 477.14,-156.82 459.85,-141.54"/>
<polygon fill="#63b8ff" stroke="#63b8ff" points="462.06,-138.82 452.29,-134.74 457.38,-144.03 462.06,-138.82"/>
</a>
</g>
</g>
<!-- Node16 -->
<g id="Node000016" class="node">
<title>Node16</title>
<g id="a_Node000016"><a xlink:href="_request_error_8hpp.html" target="_top" xlink:title=" ">
<polygon fill="white" stroke="#666666" points="751.5,-195 596.5,-195 596.5,-176 751.5,-176 751.5,-195"/>
<text text-anchor="middle" x="674" y="-183" font-family="Helvetica,sans-Serif" font-size="10.00">Thoth/Http/RequestError.hpp</text>
</a>
</g>
</g>
<!-- Node1&#45;&gt;Node16 -->
<g id="edge27_Node000001_Node000016" class="edge">
<title>Node1&#45;&gt;Node16</title>
<g id="a_edge27_Node000001_Node000016"><a xlink:title=" ">
<path fill="none" stroke="#63b8ff" d="M674,-230.84C674,-223.21 674,-213.7 674,-205.45"/>
<polygon fill="#63b8ff" stroke="#63b8ff" points="677.5,-205.27 674,-195.27 670.5,-205.27 677.5,-205.27"/>
</a>
</g>
</g>
<!-- Node19 -->
<g id="Node000019" class="node">
<title>Node19</title>
<g id="a_Node000019"><a xlink:title=" ">
<polygon fill="#e0e0e0" stroke="#999999" points="1237.5,-195 1120.5,-195 1120.5,-176 1237.5,-176 1237.5,-195"/>
<text text-anchor="middle" x="1179" y="-183" font-family="Helvetica,sans-Serif" font-size="10.00">Thoth/NJson/Json.tpp</text>
</a>
</g>
</g>
<!-- Node1&#45;&gt;Node19 -->
<g id="edge32_Node000001_Node000019" class="edge">
<title>Node1&#45;&gt;Node19</title>
<g id="a_edge32_Node000001_Node000019"><a xlink:title=" ">
<path fill="none" stroke="#63b8ff" d="M730.61,-238.46C813.15,-228.92 971.38,-210.63 1106,-195 1107.47,-194.83 1108.95,-194.66 1110.44,-194.48"/>
<polygon fill="#63b8ff" stroke="#63b8ff" points="1110.9,-197.95 1120.43,-193.32 1110.09,-191 1110.9,-197.95"/>
</a>
</g>
</g>
<!-- Node10&#45;&gt;Node2 -->
<g id="edge10_Node000010_Node000002" class="edge">
<title>Node10&#45;&gt;Node2</title>
<g id="a_edge10_Node000010_Node000002"><a xlink:title=" ">
<path fill="none" stroke="#63b8ff" d="M440.9,-115.47C436.4,-97.23 425.75,-54.07 419.6,-29.14"/>
<polygon fill="#63b8ff" stroke="#63b8ff" points="422.92,-28 417.13,-19.13 416.13,-29.68 422.92,-28"/>
</a>
</g>
</g>
<!-- Node10&#45;&gt;Node3 -->
<g id="edge11_Node000010_Node000003" class="edge">
<title>Node10&#45;&gt;Node3</title>
<g id="a_edge11_Node000010_Node000003"><a xlink:title=" ">
<path fill="none" stroke="#63b8ff" d="M435.41,-115.47C418.67,-96.65 378.33,-51.32 356.54,-26.84"/>
<polygon fill="#63b8ff" stroke="#63b8ff" points="358.94,-24.27 349.68,-19.13 353.71,-28.93 358.94,-24.27"/>
</a>
</g>
</g>
<!-- Node10&#45;&gt;Node4 -->
<g id="edge12_Node000010_Node000004" class="edge">
<title>Node10&#45;&gt;Node4</title>
<g id="a_edge12_Node000010_Node000004"><a xlink:title=" ">
<path fill="none" stroke="#63b8ff" d="M470.63,-115.49C504.78,-104.98 562.86,-87.1 599.51,-75.81"/>
<polygon fill="#63b8ff" stroke="#63b8ff" points="600.71,-79.1 609.24,-72.81 598.65,-72.41 600.71,-79.1"/>
</a>
</g>
</g>
<!-- Node10&#45;&gt;Node5 -->
<g id="edge13_Node000010_Node000005" class="edge">
<title>Node10&#45;&gt;Node5</title>
<g id="a_edge13_Node000010_Node000005"><a xlink:title=" ">
<path fill="none" stroke="#63b8ff" d="M366.95,-121.21C300,-116.67 200.86,-104.83 120,-74 89.58,-62.4 58.77,-40.37 40.02,-25.56"/>
<polygon fill="#63b8ff" stroke="#63b8ff" points="42.05,-22.7 32.07,-19.13 37.65,-28.14 42.05,-22.7"/>
</a>
</g>
</g>
<!-- Node10&#45;&gt;Node6 -->
<g id="edge14_Node000010_Node000006" class="edge">
<title>Node10&#45;&gt;Node6</title>
<g id="a_edge14_Node000010_Node000006"><a xlink:title=" ">
<path fill="none" stroke="#63b8ff" d="M484.44,-115.49C539.59,-104.17 636.33,-84.32 689.79,-73.34"/>
<polygon fill="#63b8ff" stroke="#63b8ff" points="690.79,-76.71 699.88,-71.27 689.38,-69.85 690.79,-76.71"/>
</a>
</g>
</g>
<!-- Node10&#45;&gt;Node7 -->
<g id="edge15_Node000010_Node000007" class="edge">
<title>Node10&#45;&gt;Node7</title>
<g id="a_edge15_Node000010_Node000007"><a xlink:title=" ">
<path fill="none" stroke="#63b8ff" d="M509.74,-115.49C606.11,-103.21 781.37,-80.87 860.85,-70.74"/>
<polygon fill="#63b8ff" stroke="#63b8ff" points="861.48,-74.19 870.96,-69.46 860.6,-67.25 861.48,-74.19"/>
</a>
</g>
</g>
<!-- Node10&#45;&gt;Node8 -->
<g id="edge16_Node000010_Node000008" class="edge">
<title>Node10&#45;&gt;Node8</title>
<g id="a_edge16_Node000010_Node000008"><a xlink:title=" ">
<path fill="none" stroke="#63b8ff" d="M473.92,-115.5C499.24,-107.53 535.15,-93.85 562,-74 579.26,-61.24 594.44,-41.73 604.08,-27.7"/>
<polygon fill="#63b8ff" stroke="#63b8ff" points="607.22,-29.29 609.82,-19.02 601.39,-25.42 607.22,-29.29"/>
</a>
</g>
</g>
<!-- Node10&#45;&gt;Node9 -->
<g id="edge17_Node000010_Node000009" class="edge">
<title>Node10&#45;&gt;Node9</title>
<g id="a_edge17_Node000010_Node000009"><a xlink:title=" ">
<path fill="none" stroke="#63b8ff" d="M519.11,-116.58C616.98,-106.99 792.19,-89.67 942,-74 957.65,-72.36 975.07,-70.47 989.46,-68.89"/>
<polygon fill="#63b8ff" stroke="#63b8ff" points="990.25,-72.32 999.8,-67.75 989.48,-65.37 990.25,-72.32"/>
</a>
</g>
</g>
<!-- Node11 -->
<g id="Node000011" class="node">
<title>Node11</title>
<g id="a_Node000011"><a xlink:href="_cow_8hpp.html" target="_top" xlink:title=" ">
<polygon fill="white" stroke="#666666" points="553,-74 443,-74 443,-55 553,-55 553,-74"/>
<text text-anchor="middle" x="498" y="-62" font-family="Helvetica,sans-Serif" font-size="10.00">Thoth/Dsa/Cow.hpp</text>
</a>
</g>
</g>
<!-- Node10&#45;&gt;Node11 -->
<g id="edge18_Node000010_Node000011" class="edge">
<title>Node10&#45;&gt;Node11</title>
<g id="a_edge18_Node000010_Node000011"><a xlink:title=" ">
<path fill="none" stroke="#63b8ff" d="M451.12,-115.37C459.4,-106.55 472.47,-92.66 482.7,-81.77"/>
<polygon fill="#63b8ff" stroke="#63b8ff" points="485.55,-83.85 489.85,-74.17 480.45,-79.06 485.55,-83.85"/>
</a>
</g>
</g>
<!-- Node13 -->
<g id="Node000013" class="node">
<title>Node13</title>
<g id="a_Node000013"><a xlink:href="_string_ref_8hpp.html" target="_top" xlink:title=" ">
<polygon fill="white" stroke="#666666" points="272.5,-74 129.5,-74 129.5,-55 272.5,-55 272.5,-74"/>
<text text-anchor="middle" x="201" y="-62" font-family="Helvetica,sans-Serif" font-size="10.00">Thoth/NJson/StringRef.hpp</text>
</a>
</g>
</g>
<!-- Node10&#45;&gt;Node13 -->
<g id="edge22_Node000010_Node000013" class="edge">
<title>Node10&#45;&gt;Node13</title>
<g id="a_edge22_Node000010_Node000013"><a xlink:title=" ">
<path fill="none" stroke="#63b8ff" d="M407.81,-115.49C365.07,-105.16 292.88,-87.71 246.1,-76.4"/>
<polygon fill="#63b8ff" stroke="#63b8ff" points="246.77,-72.96 236.23,-74.02 245.13,-79.77 246.77,-72.96"/>
</a>
</g>
</g>
<!-- Node11&#45;&gt;Node2 -->
<g id="edge20_Node000011_Node000002" class="edge">
<title>Node11&#45;&gt;Node2</title>
<g id="a_edge20_Node000011_Node000002"><a xlink:title=" ">
<path fill="none" stroke="#63b8ff" d="M484.66,-54.98C471.91,-46.84 452.45,-34.41 437.33,-24.76"/>
<polygon fill="#63b8ff" stroke="#63b8ff" points="438.89,-21.6 428.58,-19.17 435.12,-27.5 438.89,-21.6"/>
</a>
</g>
</g>
<!-- Node11&#45;&gt;Node8 -->
<g id="edge19_Node000011_Node000008" class="edge">
<title>Node11&#45;&gt;Node8</title>
<g id="a_edge19_Node000011_Node000008"><a xlink:title=" ">
<path fill="none" stroke="#63b8ff" d="M516.8,-54.98C535.62,-46.46 564.82,-33.23 586.5,-23.41"/>
<polygon fill="#63b8ff" stroke="#63b8ff" points="588.2,-26.48 595.86,-19.17 585.31,-20.11 588.2,-26.48"/>
</a>
</g>
</g>
<!-- Node12 -->
<g id="Node000012" class="node">
<title>Node12</title>
<g id="a_Node000012"><a xlink:title=" ">
<polygon fill="#e0e0e0" stroke="#999999" points="567,-19 459,-19 459,0 567,0 567,-19"/>
<text text-anchor="middle" x="513" y="-7" font-family="Helvetica,sans-Serif" font-size="10.00">Thoth/Dsa/Cow.tpp</text>
</a>
</g>
</g>
<!-- Node11&#45;&gt;Node12 -->
<g id="edge21_Node000011_Node000012" class="edge">
<title>Node11&#45;&gt;Node12</title>
<g id="a_edge21_Node000011_Node000012"><a xlink:title=" ">
<path fill="none" stroke="#63b8ff" d="M500.48,-54.75C502.46,-47.72 505.32,-37.62 507.81,-28.84"/>
<polygon fill="#63b8ff" stroke="#63b8ff" points="511.21,-29.66 510.57,-19.09 504.48,-27.76 511.21,-29.66"/>
</a>
</g>
</g>
<!-- Node13&#45;&gt;Node3 -->
<g id="edge23_Node000013_Node000003" class="edge">
<title>Node13&#45;&gt;Node3</title>
<g id="a_edge23_Node000013_Node000003"><a xlink:title=" ">
<path fill="none" stroke="#63b8ff" d="M223.65,-54.98C246.85,-46.27 283.12,-32.63 309.4,-22.75"/>
<polygon fill="#63b8ff" stroke="#63b8ff" points="310.8,-25.97 318.93,-19.17 308.34,-19.41 310.8,-25.97"/>
</a>
</g>
</g>
<!-- Node13&#45;&gt;Node5 -->
<g id="edge25_Node000013_Node000005" class="edge">
<title>Node13&#45;&gt;Node5</title>
<g id="a_edge25_Node000013_Node000005"><a xlink:title=" ">
<path fill="none" stroke="#63b8ff" d="M172.24,-54.98C139.91,-45.41 87.55,-29.91 53.96,-19.96"/>
<polygon fill="#63b8ff" stroke="#63b8ff" points="54.77,-16.55 44.19,-17.07 52.78,-23.26 54.77,-16.55"/>
</a>
</g>
</g>
<!-- Node14 -->
<g id="Node000014" class="node">
<title>Node14</title>
<g id="a_Node000014"><a xlink:title=" ">
<polygon fill="#e0e0e0" stroke="#999999" points="294.5,-19 221.5,-19 221.5,0 294.5,0 294.5,-19"/>
<text text-anchor="middle" x="258" y="-7" font-family="Helvetica,sans-Serif" font-size="10.00">string_view</text>
</a>
</g>
</g>
<!-- Node13&#45;&gt;Node14 -->
<g id="edge24_Node000013_Node000014" class="edge">
<title>Node13&#45;&gt;Node14</title>
<g id="a_edge24_Node000013_Node000014"><a xlink:title=" ">
<path fill="none" stroke="#63b8ff" d="M210.16,-54.98C218.5,-47.23 231.03,-35.58 241.18,-26.14"/>
<polygon fill="#63b8ff" stroke="#63b8ff" points="243.74,-28.54 248.68,-19.17 238.97,-23.42 243.74,-28.54"/>
</a>
</g>
</g>
<!-- Node15 -->
<g id="Node000015" class="node">
<title>Node15</title>
<g id="a_Node000015"><a xlink:title=" ">
<polygon fill="#e0e0e0" stroke="#999999" points="203.5,-19 62.5,-19 62.5,0 203.5,0 203.5,-19"/>
<text text-anchor="middle" x="133" y="-7" font-family="Helvetica,sans-Serif" font-size="10.00">Thoth/NJson/StringRef.tpp</text>
</a>
</g>
</g>
<!-- Node13&#45;&gt;Node15 -->
<g id="edge26_Node000013_Node000015" class="edge">
<title>Node13&#45;&gt;Node15</title>
<g id="a_edge26_Node000013_Node000015"><a xlink:title=" ">
<path fill="none" stroke="#63b8ff" d="M190.07,-54.98C179.92,-47.07 164.58,-35.11 152.35,-25.58"/>
<polygon fill="#63b8ff" stroke="#63b8ff" points="154.16,-22.56 144.12,-19.17 149.86,-28.08 154.16,-22.56"/>
</a>
</g>
</g>
<!-- Node16&#45;&gt;Node4 -->
<g id="edge30_Node000016_Node000004" class="edge">
<title>Node16&#45;&gt;Node4</title>
<g id="a_edge30_Node000016_Node000004"><a xlink:title=" ">
<path fill="none" stroke="#63b8ff" d="M648.49,-175.9C632.31,-168.96 612.65,-157.44 603,-140 592.4,-120.85 606.07,-97.18 618.24,-81.73"/>
<polygon fill="#63b8ff" stroke="#63b8ff" points="620.92,-83.98 624.68,-74.07 615.57,-79.48 620.92,-83.98"/>
</a>
</g>
</g>
<!-- Node16&#45;&gt;Node10 -->
<g id="edge29_Node000016_Node000010" class="edge">
<title>Node16&#45;&gt;Node10</title>
<g id="a_edge29_Node000016_Node000010"><a xlink:title=" ">
<path fill="none" stroke="#63b8ff" d="M640.41,-175.99C599.69,-165.68 531,-148.28 486.33,-136.97"/>
<polygon fill="#63b8ff" stroke="#63b8ff" points="487.18,-133.58 476.63,-134.52 485.46,-140.36 487.18,-133.58"/>
</a>
</g>
</g>
<!-- Node17 -->
<g id="Node000017" class="node">
<title>Node17</title>
<g id="a_Node000017"><a xlink:title=" ">
<polygon fill="#e0e0e0" stroke="#999999" points="779.5,-140 612.5,-140 612.5,-110 779.5,-110 779.5,-140"/>
<text text-anchor="start" x="620.5" y="-128" font-family="Helvetica,sans-Serif" font-size="10.00">Hermes/_base/ConnectionError</text>
<text text-anchor="middle" x="696" y="-117" font-family="Helvetica,sans-Serif" font-size="10.00">Enum.hpp</text>
</a>
</g>
</g>
<!-- Node16&#45;&gt;Node17 -->
<g id="edge28_Node000016_Node000017" class="edge">
<title>Node16&#45;&gt;Node17</title>
<g id="a_edge28_Node000016_Node000017"><a xlink:title=" ">
<path fill="none" stroke="#63b8ff" d="M677.25,-175.87C679.84,-168.96 683.62,-158.93 687.1,-149.67"/>
<polygon fill="#63b8ff" stroke="#63b8ff" points="690.45,-150.71 690.69,-140.11 683.9,-148.24 690.45,-150.71"/>
</a>
</g>
</g>
<!-- Node18 -->
<g id="Node000018" class="node">
<title>Node18</title>
<g id="a_Node000018"><a xlink:title=" ">
<polygon fill="#e0e0e0" stroke="#999999" points="950,-134.5 798,-134.5 798,-115.5 950,-115.5 950,-134.5"/>
<text text-anchor="middle" x="874" y="-122.5" font-family="Helvetica,sans-Serif" font-size="10.00">Thoth/Http/RequestError.tpp</text>
</a>
</g>
</g>
<!-- Node16&#45;&gt;Node18 -->
<g id="edge31_Node000016_Node000018" class="edge">
<title>Node16&#45;&gt;Node18</title>
<g id="a_edge31_Node000016_Node000018"><a xlink:title=" ">
<path fill="none" stroke="#63b8ff" d="M703.08,-175.99C737.89,-165.81 796.32,-148.72 835.01,-137.4"/>
<polygon fill="#63b8ff" stroke="#63b8ff" points="836.27,-140.68 844.88,-134.52 834.3,-133.96 836.27,-140.68"/>
</a>
</g>
</g>
</g>
</svg>
