<?xml version="1.0" encoding="UTF-8" standalone="no"?>
<!DOCTYPE svg PUBLIC "-//W3C//DTD SVG 1.1//EN"
 "http://www.w3.org/Graphics/SVG/1.1/DTD/svg11.dtd">
<!-- Generated by graphviz version 2.43.0 (0)
 -->
<!-- Title: include/Thoth/Dsa/LinearMap.hpp Pages: 1 -->
<svg width="2125pt" height="643pt"
 viewBox="0.00 0.00 2125.00 643.00" xmlns="http://www.w3.org/2000/svg" xmlns:xlink="http://www.w3.org/1999/xlink">
<g id="graph0" class="graph" transform="scale(1 1) rotate(0) translate(4 639)">
<title>include/Thoth/Dsa/LinearMap.hpp</title>
<!-- Node1 -->
<g id="Node000001" class="node">
<title>Node1</title>
<g id="a_Node000001"><a xlink:title=" ">
<polygon fill="#999999" stroke="#666666" points="1561.5,-635 1424.5,-635 1424.5,-605 1561.5,-605 1561.5,-635"/>
<text text-anchor="start" x="1432.5" y="-623" font-family="Helvetica,sans-Serif" font-size="10.00">include/Thoth/Dsa/Linear</text>
<text text-anchor="middle" x="1493" y="-612" font-family="Helvetica,sans-Serif" font-size="10.00">Map.hpp</text>
</a>
</g>
</g>
<!-- Node2 -->
<g id="Node000002" class="node">
<title>Node2</title>
<g id="a_Node000002"><a xlink:href="_query_params_8hpp.html" target="_top" xlink:title=" ">
<polygon fill="white" stroke="#666666" points="1493.5,-569 1344.5,-569 1344.5,-539 1493.5,-539 1493.5,-569"/>
<text text-anchor="start" x="1352.5" y="-557" font-family="Helvetica,sans-Serif" font-size="10.00">include/Thoth/Http</text>
<text text-anchor="middle" x="1419" y="-546" font-family="Helvetica,sans-Serif" font-size="10.00">/Request/QueryParams.hpp</text>
</a>
</g>
</g>
<!-- Node1&#45;&gt;Node2 -->
<g id="edge1_Node000001_Node000002" class="edge">
<title>Node1&#45;&gt;Node2</title>
<g id="a_edge1_Node000001_Node000002"><a xlink:title=" ">
<path fill="none" stroke="#63b8ff" d="M1468.95,-598.2C1457.97,-588.7 1445.24,-577.69 1435.38,-569.16"/>
<polygon fill="#63b8ff" stroke="#63b8ff" points="1466.72,-600.9 1476.58,-604.8 1471.3,-595.61 1466.72,-600.9"/>
</a>
</g>
</g>
<!-- Node23 -->
<g id="Node000023" class="node">
<title>Node23</title>
<g id="a_Node000023"><a xlink:href="_json_object_8hpp.html" target="_top" xlink:title=" ">
<polygon fill="white" stroke="#666666" points="1624.5,-569 1511.5,-569 1511.5,-539 1624.5,-539 1624.5,-569"/>
<text text-anchor="start" x="1519.5" y="-557" font-family="Helvetica,sans-Serif" font-size="10.00">include/Thoth/NJson</text>
<text text-anchor="middle" x="1568" y="-546" font-family="Helvetica,sans-Serif" font-size="10.00">/JsonObject.hpp</text>
</a>
</g>
</g>
<!-- Node1&#45;&gt;Node23 -->
<g id="edge31_Node000001_Node000023" class="edge">
<title>Node1&#45;&gt;Node23</title>
<g id="a_edge31_Node000001_Node000023"><a xlink:title=" ">
<path fill="none" stroke="#63b8ff" d="M1517.37,-598.2C1528.51,-588.7 1541.41,-577.69 1551.4,-569.16"/>
<polygon fill="#63b8ff" stroke="#63b8ff" points="1514.98,-595.64 1509.64,-604.8 1519.52,-600.97 1514.98,-595.64"/>
</a>
</g>
</g>
<!-- Node3 -->
<g id="Node000003" class="node">
<title>Node3</title>
<g id="a_Node000003"><a xlink:href="_url_8hpp.html" target="_top" xlink:title=" ">
<polygon fill="white" stroke="#666666" points="1472.5,-503 1365.5,-503 1365.5,-473 1472.5,-473 1472.5,-503"/>
<text text-anchor="start" x="1373.5" y="-491" font-family="Helvetica,sans-Serif" font-size="10.00">include/Thoth/Http</text>
<text text-anchor="middle" x="1419" y="-480" font-family="Helvetica,sans-Serif" font-size="10.00">/Request/Url.hpp</text>
</a>
</g>
</g>
<!-- Node2&#45;&gt;Node3 -->
<g id="edge2_Node000002_Node000003" class="edge">
<title>Node2&#45;&gt;Node3</title>
<g id="a_edge2_Node000002_Node000003"><a xlink:title=" ">
<path fill="none" stroke="#63b8ff" d="M1419,-528.54C1419,-519.96 1419,-510.61 1419,-503.16"/>
<polygon fill="#63b8ff" stroke="#63b8ff" points="1415.5,-528.8 1419,-538.8 1422.5,-528.8 1415.5,-528.8"/>
</a>
</g>
</g>
<!-- Node4 -->
<g id="Node000004" class="node">
<title>Node4</title>
<g id="a_Node000004"><a xlink:href="_method_concept_8hpp.html" target="_top" xlink:title=" ">
<polygon fill="white" stroke="#666666" points="997,-371 803,-371 803,-341 997,-341 997,-371"/>
<text text-anchor="start" x="811" y="-359" font-family="Helvetica,sans-Serif" font-size="10.00">include/Thoth/Http</text>
<text text-anchor="middle" x="900" y="-348" font-family="Helvetica,sans-Serif" font-size="10.00">/Methods/_base/MethodConcept.hpp</text>
</a>
</g>
</g>
<!-- Node3&#45;&gt;Node4 -->
<g id="edge3_Node000003_Node000004" class="edge">
<title>Node3&#45;&gt;Node4</title>
<g id="a_edge3_Node000003_Node000004"><a xlink:title=" ">
<path fill="none" stroke="#63b8ff" d="M1355.52,-471.1C1253.19,-445.47 1053.41,-395.43 956.04,-371.04"/>
<polygon fill="#63b8ff" stroke="#63b8ff" points="1354.86,-474.54 1365.41,-473.58 1356.56,-467.75 1354.86,-474.54"/>
</a>
</g>
</g>
<!-- Node8 -->
<g id="Node000008" class="node">
<title>Node8</title>
<g id="a_Node000008"><a xlink:href="_request_8hpp.html" target="_top" xlink:title=" ">
<polygon fill="white" stroke="#666666" points="1577.5,-233.5 1454.5,-233.5 1454.5,-203.5 1577.5,-203.5 1577.5,-233.5"/>
<text text-anchor="start" x="1462.5" y="-221.5" font-family="Helvetica,sans-Serif" font-size="10.00">include/Thoth/Http</text>
<text text-anchor="middle" x="1516" y="-210.5" font-family="Helvetica,sans-Serif" font-size="10.00">/Request/Request.hpp</text>
</a>
</g>
</g>
<!-- Node3&#45;&gt;Node8 -->
<g id="edge30_Node000003_Node000008" class="edge">
<title>Node3&#45;&gt;Node8</title>
<g id="a_edge30_Node000003_Node000008"><a xlink:title=" ">
<path fill="none" stroke="#63b8ff" d="M1416.09,-462.49C1413.7,-431.58 1413.94,-378.03 1438,-341 1454.74,-315.24 1479.13,-329.99 1497,-305 1512.39,-283.48 1515.64,-251.71 1516.14,-233.57"/>
<polygon fill="#63b8ff" stroke="#63b8ff" points="1412.64,-463.14 1417.05,-472.77 1419.61,-462.49 1412.64,-463.14"/>
</a>
</g>
</g>
<!-- Node18 -->
<g id="Node000018" class="node">
<title>Node18</title>
<g id="a_Node000018"><a xlink:href="_headers_8hpp.html" target="_top" xlink:title=" ">
<polygon fill="white" stroke="#666666" points="1757,-437 1625,-437 1625,-407 1757,-407 1757,-437"/>
<text text-anchor="start" x="1633" y="-425" font-family="Helvetica,sans-Serif" font-size="10.00">include/Thoth/Http</text>
<text text-anchor="middle" x="1691" y="-414" font-family="Helvetica,sans-Serif" font-size="10.00">/NHeaders/Headers.hpp</text>
</a>
</g>
</g>
<!-- Node3&#45;&gt;Node18 -->
<g id="edge21_Node000003_Node000018" class="edge">
<title>Node3&#45;&gt;Node18</title>
<g id="a_edge21_Node000003_Node000018"><a xlink:title=" ">
<path fill="none" stroke="#63b8ff" d="M1482.65,-472.02C1527.53,-461.46 1587.24,-447.41 1631.23,-437.06"/>
<polygon fill="#63b8ff" stroke="#63b8ff" points="1481.67,-468.66 1472.74,-474.36 1483.27,-475.47 1481.67,-468.66"/>
</a>
</g>
</g>
<!-- Node5 -->
<g id="Node000005" class="node">
<title>Node5</title>
<g id="a_Node000005"><a xlink:href="_connect_method_8hpp.html" target="_top" xlink:title=" ">
<polygon fill="white" stroke="#666666" points="1154,-305 992,-305 992,-275 1154,-275 1154,-305"/>
<text text-anchor="start" x="1000" y="-293" font-family="Helvetica,sans-Serif" font-size="10.00">include/Thoth/Http</text>
<text text-anchor="middle" x="1073" y="-282" font-family="Helvetica,sans-Serif" font-size="10.00">/Methods/ConnectMethod.hpp</text>
</a>
</g>
</g>
<!-- Node4&#45;&gt;Node5 -->
<g id="edge4_Node000004_Node000005" class="edge">
<title>Node4&#45;&gt;Node5</title>
<g id="a_edge4_Node000004_Node000005"><a xlink:title=" ">
<path fill="none" stroke="#63b8ff" d="M947.42,-337.46C975.02,-327.25 1009.34,-314.55 1035.12,-305.01"/>
<polygon fill="#63b8ff" stroke="#63b8ff" points="946.13,-334.2 937.97,-340.95 948.56,-340.77 946.13,-334.2"/>
</a>
</g>
</g>
<!-- Node6 -->
<g id="Node000006" class="node">
<title>Node6</title>
<g id="a_Node000006"><a xlink:href="_delete_method_8hpp.html" target="_top" xlink:title=" ">
<polygon fill="white" stroke="#666666" points="1327.5,-305 1172.5,-305 1172.5,-275 1327.5,-275 1327.5,-305"/>
<text text-anchor="start" x="1180.5" y="-293" font-family="Helvetica,sans-Serif" font-size="10.00">include/Thoth/Http</text>
<text text-anchor="middle" x="1250" y="-282" font-family="Helvetica,sans-Serif" font-size="10.00">/Methods/DeleteMethod.hpp</text>
</a>
</g>
</g>
<!-- Node4&#45;&gt;Node6 -->
<g id="edge5_Node000004_Node000006" class="edge">
<title>Node4&#45;&gt;Node6</title>
<g id="a_edge5_Node000004_Node000006"><a xlink:title=" ">
<path fill="none" stroke="#63b8ff" d="M986.92,-339.11C1044.15,-328.64 1118.36,-315.07 1173.37,-305.01"/>
<polygon fill="#63b8ff" stroke="#63b8ff" points="986.02,-335.71 976.81,-340.95 987.28,-342.6 986.02,-335.71"/>
</a>
</g>
</g>
<!-- Node7 -->
<g id="Node000007" class="node">
<title>Node7</title>
<g id="a_Node000007"><a xlink:href="_get_method_8hpp.html" target="_top" xlink:title=" ">
<polygon fill="white" stroke="#666666" points="140,-305 0,-305 0,-275 140,-275 140,-305"/>
<text text-anchor="start" x="8" y="-293" font-family="Helvetica,sans-Serif" font-size="10.00">include/Thoth/Http</text>
<text text-anchor="middle" x="70" y="-282" font-family="Helvetica,sans-Serif" font-size="10.00">/Methods/GetMethod.hpp</text>
</a>
</g>
</g>
<!-- Node4&#45;&gt;Node7 -->
<g id="edge6_Node000004_Node000007" class="edge">
<title>Node4&#45;&gt;Node7</title>
<g id="a_edge6_Node000004_Node000007"><a xlink:title=" ">
<path fill="none" stroke="#63b8ff" d="M792.46,-351.52C646.36,-345.96 377.18,-332.73 149,-305 146.1,-304.65 143.14,-304.26 140.15,-303.84"/>
<polygon fill="#63b8ff" stroke="#63b8ff" points="792.64,-355.03 802.77,-351.91 792.91,-348.04 792.64,-355.03"/>
</a>
</g>
</g>
<!-- Node12 -->
<g id="Node000012" class="node">
<title>Node12</title>
<g id="a_Node000012"><a xlink:href="_head_method_8hpp.html" target="_top" xlink:title=" ">
<polygon fill="white" stroke="#666666" points="306,-305 158,-305 158,-275 306,-275 306,-305"/>
<text text-anchor="start" x="166" y="-293" font-family="Helvetica,sans-Serif" font-size="10.00">include/Thoth/Http</text>
<text text-anchor="middle" x="232" y="-282" font-family="Helvetica,sans-Serif" font-size="10.00">/Methods/HeadMethod.hpp</text>
</a>
</g>
</g>
<!-- Node4&#45;&gt;Node12 -->
<g id="edge13_Node000004_Node000012" class="edge">
<title>Node4&#45;&gt;Node12</title>
<g id="a_edge13_Node000004_Node000012"><a xlink:title=" ">
<path fill="none" stroke="#63b8ff" d="M792.88,-348.48C675.36,-340.72 481.3,-326.1 315,-305 312.1,-304.63 309.15,-304.24 306.17,-303.82"/>
<polygon fill="#63b8ff" stroke="#63b8ff" points="792.75,-351.98 802.96,-349.15 793.21,-345 792.75,-351.98"/>
</a>
</g>
</g>
<!-- Node13 -->
<g id="Node000013" class="node">
<title>Node13</title>
<g id="a_Node000013"><a xlink:href="_options_method_8hpp.html" target="_top" xlink:title=" ">
<polygon fill="white" stroke="#666666" points="484,-305 324,-305 324,-275 484,-275 484,-305"/>
<text text-anchor="start" x="332" y="-293" font-family="Helvetica,sans-Serif" font-size="10.00">include/Thoth/Http</text>
<text text-anchor="middle" x="404" y="-282" font-family="Helvetica,sans-Serif" font-size="10.00">/Methods/OptionsMethod.hpp</text>
</a>
</g>
</g>
<!-- Node4&#45;&gt;Node13 -->
<g id="edge14_Node000004_Node000013" class="edge">
<title>Node4&#45;&gt;Node13</title>
<g id="a_edge14_Node000004_Node000013"><a xlink:title=" ">
<path fill="none" stroke="#63b8ff" d="M792.74,-342.83C710.6,-333.26 594.52,-319.22 493,-305 490.06,-304.59 487.06,-304.16 484.03,-303.72"/>
<polygon fill="#63b8ff" stroke="#63b8ff" points="792.51,-346.32 802.84,-344 793.31,-339.37 792.51,-346.32"/>
</a>
</g>
</g>
<!-- Node14 -->
<g id="Node000014" class="node">
<title>Node14</title>
<g id="a_Node000014"><a xlink:href="_patch_method_8hpp.html" target="_top" xlink:title=" ">
<polygon fill="white" stroke="#666666" points="651.5,-305 502.5,-305 502.5,-275 651.5,-275 651.5,-305"/>
<text text-anchor="start" x="510.5" y="-293" font-family="Helvetica,sans-Serif" font-size="10.00">include/Thoth/Http</text>
<text text-anchor="middle" x="577" y="-282" font-family="Helvetica,sans-Serif" font-size="10.00">/Methods/PatchMethod.hpp</text>
</a>
</g>
</g>
<!-- Node4&#45;&gt;Node14 -->
<g id="edge15_Node000004_Node000014" class="edge">
<title>Node4&#45;&gt;Node14</title>
<g id="a_edge15_Node000004_Node000014"><a xlink:title=" ">
<path fill="none" stroke="#63b8ff" d="M819.12,-338.98C766.41,-328.53 698.27,-315.03 647.72,-305.01"/>
<polygon fill="#63b8ff" stroke="#63b8ff" points="818.63,-342.44 829.12,-340.95 819.99,-335.58 818.63,-342.44"/>
</a>
</g>
</g>
<!-- Node15 -->
<g id="Node000015" class="node">
<title>Node15</title>
<g id="a_Node000015"><a xlink:href="_post_method_8hpp.html" target="_top" xlink:title=" ">
<polygon fill="white" stroke="#666666" points="1488.5,-305 1345.5,-305 1345.5,-275 1488.5,-275 1488.5,-305"/>
<text text-anchor="start" x="1353.5" y="-293" font-family="Helvetica,sans-Serif" font-size="10.00">include/Thoth/Http</text>
<text text-anchor="middle" x="1417" y="-282" font-family="Helvetica,sans-Serif" font-size="10.00">/Methods/PostMethod.hpp</text>
</a>
</g>
</g>
<!-- Node4&#45;&gt;Node15 -->
<g id="edge16_Node000004_Node000015" class="edge">
<title>Node4&#45;&gt;Node15</title>
<g id="a_edge16_Node000004_Node000015"><a xlink:title=" ">
<path fill="none" stroke="#63b8ff" d="M1007.22,-344.42C1095.61,-335.29 1224.17,-321.06 1336,-305 1339.11,-304.55 1342.28,-304.08 1345.48,-303.59"/>
<polygon fill="#63b8ff" stroke="#63b8ff" points="1006.77,-340.95 997.18,-345.46 1007.48,-347.92 1006.77,-340.95"/>
</a>
</g>
</g>
<!-- Node16 -->
<g id="Node000016" class="node">
<title>Node16</title>
<g id="a_Node000016"><a xlink:href="_put_method_8hpp.html" target="_top" xlink:title=" ">
<polygon fill="white" stroke="#666666" points="808,-305 670,-305 670,-275 808,-275 808,-305"/>
<text text-anchor="start" x="678" y="-293" font-family="Helvetica,sans-Serif" font-size="10.00">include/Thoth/Http</text>
<text text-anchor="middle" x="739" y="-282" font-family="Helvetica,sans-Serif" font-size="10.00">/Methods/PutMethod.hpp</text>
</a>
</g>
</g>
<!-- Node4&#45;&gt;Node16 -->
<g id="edge19_Node000004_Node000016" class="edge">
<title>Node4&#45;&gt;Node16</title>
<g id="a_edge19_Node000004_Node000016"><a xlink:title=" ">
<path fill="none" stroke="#63b8ff" d="M855.19,-337.19C829.63,-327.02 798.03,-314.47 774.25,-305.01"/>
<polygon fill="#63b8ff" stroke="#63b8ff" points="854.08,-340.51 864.67,-340.95 856.67,-334.01 854.08,-340.51"/>
</a>
</g>
</g>
<!-- Node17 -->
<g id="Node000017" class="node">
<title>Node17</title>
<g id="a_Node000017"><a xlink:href="_trace_method_8hpp.html" target="_top" xlink:title=" ">
<polygon fill="white" stroke="#666666" points="974,-305 826,-305 826,-275 974,-275 974,-305"/>
<text text-anchor="start" x="834" y="-293" font-family="Helvetica,sans-Serif" font-size="10.00">include/Thoth/Http</text>
<text text-anchor="middle" x="900" y="-282" font-family="Helvetica,sans-Serif" font-size="10.00">/Methods/TraceMethod.hpp</text>
</a>
</g>
</g>
<!-- Node4&#45;&gt;Node17 -->
<g id="edge20_Node000004_Node000017" class="edge">
<title>Node4&#45;&gt;Node17</title>
<g id="a_edge20_Node000004_Node000017"><a xlink:title=" ">
<path fill="none" stroke="#63b8ff" d="M900,-330.54C900,-321.96 900,-312.61 900,-305.16"/>
<polygon fill="#63b8ff" stroke="#63b8ff" points="896.5,-330.8 900,-340.8 903.5,-330.8 896.5,-330.8"/>
</a>
</g>
</g>
<!-- Node7&#45;&gt;Node8 -->
<g id="edge7_Node000007_Node000008" class="edge">
<title>Node7&#45;&gt;Node8</title>
<g id="a_edge7_Node000007_Node000008"><a xlink:title=" ">
<path fill="none" stroke="#63b8ff" d="M150.17,-275C427.25,-246.48 1226.04,-226.24 1454.4,-220.9"/>
<polygon fill="#63b8ff" stroke="#63b8ff" points="149.72,-271.53 140.14,-276.06 150.45,-278.49 149.72,-271.53"/>
</a>
</g>
</g>
<!-- Node11 -->
<g id="Node000011" class="node">
<title>Node11</title>
<g id="a_Node000011"><a xlink:href="_response_8hpp.html" target="_top" xlink:title=" ">
<polygon fill="white" stroke="#666666" points="1487,-96 1349,-96 1349,-66 1487,-66 1487,-96"/>
<text text-anchor="start" x="1357" y="-84" font-family="Helvetica,sans-Serif" font-size="10.00">include/Thoth/Http</text>
<text text-anchor="middle" x="1418" y="-73" font-family="Helvetica,sans-Serif" font-size="10.00">/Response/Response.hpp</text>
</a>
</g>
</g>
<!-- Node7&#45;&gt;Node11 -->
<g id="edge12_Node000007_Node000011" class="edge">
<title>Node7&#45;&gt;Node11</title>
<g id="a_edge12_Node000007_Node000011"><a xlink:title=" ">
<path fill="none" stroke="#63b8ff" d="M150.1,-274.84C613.88,-198.62 1158.94,-119.26 1348.78,-91.92"/>
<polygon fill="#63b8ff" stroke="#63b8ff" points="149.5,-271.39 140.2,-276.47 150.63,-278.3 149.5,-271.39"/>
</a>
</g>
</g>
<!-- Node9 -->
<g id="Node000009" class="node">
<title>Node9</title>
<g id="a_Node000009"><a xlink:href="_client_8hpp.html" target="_top" xlink:title=" ">
<polygon fill="white" stroke="#666666" points="1519.5,-30 1412.5,-30 1412.5,0 1519.5,0 1519.5,-30"/>
<text text-anchor="start" x="1420.5" y="-18" font-family="Helvetica,sans-Serif" font-size="10.00">include/Thoth/Http</text>
<text text-anchor="middle" x="1466" y="-7" font-family="Helvetica,sans-Serif" font-size="10.00">/Client.hpp</text>
</a>
</g>
</g>
<!-- Node8&#45;&gt;Node9 -->
<g id="edge8_Node000008_Node000009" class="edge">
<title>Node8&#45;&gt;Node9</title>
<g id="a_edge8_Node000008_Node000009"><a xlink:title=" ">
<path fill="none" stroke="#63b8ff" d="M1515.81,-193.13C1514.89,-162.59 1511.03,-109.06 1496,-66 1491.46,-53 1483.28,-39.7 1476.6,-30.09"/>
<polygon fill="#63b8ff" stroke="#63b8ff" points="1512.31,-193.35 1516.03,-203.27 1519.31,-193.2 1512.31,-193.35"/>
</a>
</g>
</g>
<!-- Node10 -->
<g id="Node000010" class="node">
<title>Node10</title>
<g id="a_Node000010"><a xlink:href="_response_head_8hpp.html" target="_top" xlink:title=" ">
<polygon fill="white" stroke="#666666" points="1707,-162 1543,-162 1543,-132 1707,-132 1707,-162"/>
<text text-anchor="start" x="1551" y="-150" font-family="Helvetica,sans-Serif" font-size="10.00">include/Thoth/Http</text>
<text text-anchor="middle" x="1625" y="-139" font-family="Helvetica,sans-Serif" font-size="10.00">/Response/ResponseHead.hpp</text>
</a>
</g>
</g>
<!-- Node8&#45;&gt;Node10 -->
<g id="edge9_Node000008_Node000010" class="edge">
<title>Node8&#45;&gt;Node10</title>
<g id="a_edge9_Node000008_Node000010"><a xlink:title=" ">
<path fill="none" stroke="#63b8ff" d="M1546.97,-197.75C1564.83,-186.36 1586.88,-172.31 1602.98,-162.04"/>
<polygon fill="#63b8ff" stroke="#63b8ff" points="1544.61,-195.11 1538.06,-203.44 1548.37,-201.01 1544.61,-195.11"/>
</a>
</g>
</g>
<!-- Node10&#45;&gt;Node11 -->
<g id="edge10_Node000010_Node000011" class="edge">
<title>Node10&#45;&gt;Node11</title>
<g id="a_edge10_Node000010_Node000011"><a xlink:title=" ">
<path fill="none" stroke="#63b8ff" d="M1569.98,-128.99C1536.67,-118.69 1494.71,-105.72 1463.32,-96.01"/>
<polygon fill="#63b8ff" stroke="#63b8ff" points="1568.99,-132.34 1579.57,-131.95 1571.05,-125.66 1568.99,-132.34"/>
</a>
</g>
</g>
<!-- Node11&#45;&gt;Node9 -->
<g id="edge11_Node000011_Node000009" class="edge">
<title>Node11&#45;&gt;Node9</title>
<g id="a_edge11_Node000011_Node000009"><a xlink:title=" ">
<path fill="none" stroke="#63b8ff" d="M1434.86,-57.53C1441.68,-48.43 1449.35,-38.19 1455.38,-30.16"/>
<polygon fill="#63b8ff" stroke="#63b8ff" points="1431.85,-55.7 1428.65,-65.8 1437.45,-59.9 1431.85,-55.7"/>
</a>
</g>
</g>
<!-- Node15&#45;&gt;Node8 -->
<g id="edge17_Node000015_Node000008" class="edge">
<title>Node15&#45;&gt;Node8</title>
<g id="a_edge17_Node000015_Node000008"><a xlink:title=" ">
<path fill="none" stroke="#63b8ff" d="M1445.57,-268.94C1461.72,-257.6 1481.51,-243.71 1496,-233.54"/>
<polygon fill="#63b8ff" stroke="#63b8ff" points="1443.21,-266.33 1437.03,-274.94 1447.23,-272.05 1443.21,-266.33"/>
</a>
</g>
</g>
<!-- Node15&#45;&gt;Node11 -->
<g id="edge18_Node000015_Node000011" class="edge">
<title>Node15&#45;&gt;Node11</title>
<g id="a_edge18_Node000015_Node000011"><a xlink:title=" ">
<path fill="none" stroke="#63b8ff" d="M1417.12,-264.76C1417.33,-221.15 1417.76,-130.81 1417.93,-96.05"/>
<polygon fill="#63b8ff" stroke="#63b8ff" points="1413.62,-264.76 1417.07,-274.77 1420.62,-264.79 1413.62,-264.76"/>
</a>
</g>
</g>
<!-- Node18&#45;&gt;Node4 -->
<g id="edge22_Node000018_Node000004" class="edge">
<title>Node18&#45;&gt;Node4</title>
<g id="a_edge22_Node000018_Node000004"><a xlink:title=" ">
<path fill="none" stroke="#63b8ff" d="M1614.81,-414.84C1470.25,-403.14 1156.41,-377.75 997.05,-364.85"/>
<polygon fill="#63b8ff" stroke="#63b8ff" points="1614.67,-418.34 1624.92,-415.65 1615.24,-411.36 1614.67,-418.34"/>
</a>
</g>
</g>
<!-- Node18&#45;&gt;Node10 -->
<g id="edge29_Node000018_Node000010" class="edge">
<title>Node18&#45;&gt;Node10</title>
<g id="a_edge29_Node000018_Node000010"><a xlink:title=" ">
<path fill="none" stroke="#63b8ff" d="M1685.29,-396.79C1681.53,-380.92 1676.5,-359.72 1672,-341 1655.87,-273.94 1636.26,-193.86 1628.45,-162.04"/>
<polygon fill="#63b8ff" stroke="#63b8ff" points="1681.95,-397.91 1687.66,-406.83 1688.77,-396.3 1681.95,-397.91"/>
</a>
</g>
</g>
<!-- Node19 -->
<g id="Node000019" class="node">
<title>Node19</title>
<g id="a_Node000019"><a xlink:href="_list_proxy_8hpp.html" target="_top" xlink:title=" ">
<polygon fill="white" stroke="#666666" points="1885,-371 1719,-371 1719,-341 1885,-341 1885,-371"/>
<text text-anchor="start" x="1727" y="-359" font-family="Helvetica,sans-Serif" font-size="10.00">include/Thoth/Http</text>
<text text-anchor="middle" x="1802" y="-348" font-family="Helvetica,sans-Serif" font-size="10.00">/NHeaders/Proxy/ListProxy.hpp</text>
</a>
</g>
</g>
<!-- Node18&#45;&gt;Node19 -->
<g id="edge23_Node000018_Node000019" class="edge">
<title>Node18&#45;&gt;Node19</title>
<g id="a_edge23_Node000018_Node000019"><a xlink:title=" ">
<path fill="none" stroke="#63b8ff" d="M1724.48,-401.69C1741.62,-391.82 1762.09,-380.01 1777.7,-371.01"/>
<polygon fill="#63b8ff" stroke="#63b8ff" points="1722.27,-398.93 1715.36,-406.95 1725.77,-404.99 1722.27,-398.93"/>
</a>
</g>
</g>
<!-- Node20 -->
<g id="Node000020" class="node">
<title>Node20</title>
<g id="a_Node000020"><a xlink:href="_value_proxy_8hpp.html" target="_top" xlink:title=" ">
<polygon fill="white" stroke="#666666" points="2117,-371 1941,-371 1941,-341 2117,-341 2117,-371"/>
<text text-anchor="start" x="1949" y="-359" font-family="Helvetica,sans-Serif" font-size="10.00">include/Thoth/Http</text>
<text text-anchor="middle" x="2029" y="-348" font-family="Helvetica,sans-Serif" font-size="10.00">/NHeaders/Proxy/ValueProxy.hpp</text>
</a>
</g>
</g>
<!-- Node18&#45;&gt;Node20 -->
<g id="edge24_Node000018_Node000020" class="edge">
<title>Node18&#45;&gt;Node20</title>
<g id="a_edge24_Node000018_Node000020"><a xlink:title=" ">
<path fill="none" stroke="#63b8ff" d="M1767.26,-406.56C1823.37,-395.94 1899.24,-381.57 1954.85,-371.04"/>
<polygon fill="#63b8ff" stroke="#63b8ff" points="1766.55,-403.13 1757.37,-408.43 1767.85,-410.01 1766.55,-403.13"/>
</a>
</g>
</g>
<!-- Node21 -->
<g id="Node000021" class="node">
<title>Node21</title>
<g id="a_Node000021"><a xlink:href="_request_headers_8hpp.html" target="_top" xlink:title=" ">
<polygon fill="white" stroke="#666666" points="1662.5,-371 1447.5,-371 1447.5,-341 1662.5,-341 1662.5,-371"/>
<text text-anchor="start" x="1455.5" y="-359" font-family="Helvetica,sans-Serif" font-size="10.00">include/Thoth/Http</text>
<text text-anchor="middle" x="1555" y="-348" font-family="Helvetica,sans-Serif" font-size="10.00">/NHeaders/Request/RequestHeaders.hpp</text>
</a>
</g>
</g>
<!-- Node18&#45;&gt;Node21 -->
<g id="edge25_Node000018_Node000021" class="edge">
<title>Node18&#45;&gt;Node21</title>
<g id="a_edge25_Node000018_Node000021"><a xlink:title=" ">
<path fill="none" stroke="#63b8ff" d="M1652,-402.65C1630.61,-392.58 1604.51,-380.3 1584.78,-371.01"/>
<polygon fill="#63b8ff" stroke="#63b8ff" points="1650.62,-405.86 1661.15,-406.95 1653.6,-399.53 1650.62,-405.86"/>
</a>
</g>
</g>
<!-- Node22 -->
<g id="Node000022" class="node">
<title>Node22</title>
<g id="a_Node000022"><a xlink:href="_response_headers_8hpp.html" target="_top" xlink:title=" ">
<polygon fill="white" stroke="#666666" points="1942,-239 1774,-239 1774,-198 1942,-198 1942,-239"/>
<text text-anchor="start" x="1782" y="-227" font-family="Helvetica,sans-Serif" font-size="10.00">include/Thoth/Http</text>
<text text-anchor="start" x="1782" y="-216" font-family="Helvetica,sans-Serif" font-size="10.00">/NHeaders/Response/Response</text>
<text text-anchor="middle" x="1858" y="-205" font-family="Helvetica,sans-Serif" font-size="10.00">Headers.hpp</text>
</a>
</g>
</g>
<!-- Node18&#45;&gt;Node22 -->
<g id="edge27_Node000018_Node000022" class="edge">
<title>Node18&#45;&gt;Node22</title>
<g id="a_edge27_Node000018_Node000022"><a xlink:title=" ">
<path fill="none" stroke="#63b8ff" d="M1767.18,-412.04C1817.96,-404.33 1878.18,-391.19 1894,-371 1924.76,-331.74 1892.49,-270.38 1872.06,-239.16"/>
<polygon fill="#63b8ff" stroke="#63b8ff" points="1766.55,-408.6 1757.17,-413.51 1767.57,-415.52 1766.55,-408.6"/>
</a>
</g>
</g>
<!-- Node21&#45;&gt;Node8 -->
<g id="edge26_Node000021_Node000008" class="edge">
<title>Node21&#45;&gt;Node8</title>
<g id="a_edge26_Node000021_Node000008"><a xlink:title=" ">
<path fill="none" stroke="#63b8ff" d="M1548.05,-330.85C1539.9,-302.54 1526.67,-256.56 1520.05,-233.55"/>
<polygon fill="#63b8ff" stroke="#63b8ff" points="1544.77,-332.11 1550.9,-340.76 1551.5,-330.18 1544.77,-332.11"/>
</a>
</g>
</g>
<!-- Node22&#45;&gt;Node11 -->
<g id="edge28_Node000022_Node000011" class="edge">
<title>Node22&#45;&gt;Node11</title>
<g id="a_edge28_Node000022_Node000011"><a xlink:title=" ">
<path fill="none" stroke="#63b8ff" d="M1824.17,-192.1C1796.5,-172.62 1755.63,-146.65 1716,-132 1640.59,-104.12 1548.68,-91.7 1487.04,-86.23"/>
<polygon fill="#63b8ff" stroke="#63b8ff" points="1822.14,-194.95 1832.31,-197.92 1826.21,-189.26 1822.14,-194.95"/>
</a>
</g>
</g>
</g>
</svg>
