<?xml version="1.0" encoding="UTF-8" standalone="no"?>
<!DOCTYPE svg PUBLIC "-//W3C//DTD SVG 1.1//EN"
 "http://www.w3.org/Graphics/SVG/1.1/DTD/svg11.dtd">
<!-- Generated by graphviz version 2.43.0 (0)
 -->
<!-- Title: include/Thoth/Dsa/LinearMap.hpp Pages: 1 -->
<svg width="2116pt" height="643pt"
 viewBox="0.00 0.00 2115.92 643.00" xmlns="http://www.w3.org/2000/svg" xmlns:xlink="http://www.w3.org/1999/xlink">
<g id="graph0" class="graph" transform="scale(1 1) rotate(0) translate(4 639)">
<title>include/Thoth/Dsa/LinearMap.hpp</title>
<!-- Node1 -->
<g id="Node000001" class="node">
<title>Node1</title>
<g id="a_Node000001"><a xlink:title=" ">
<polygon fill="#999999" stroke="#666666" points="1402.5,-635 1265.5,-635 1265.5,-605 1402.5,-605 1402.5,-635"/>
<text text-anchor="start" x="1273.5" y="-623" font-family="Helvetica,sans-Serif" font-size="10.00">include/Thoth/Dsa/Linear</text>
<text text-anchor="middle" x="1334" y="-612" font-family="Helvetica,sans-Serif" font-size="10.00">Map.hpp</text>
</a>
</g>
</g>
<!-- Node2 -->
<g id="Node000002" class="node">
<title>Node2</title>
<g id="a_Node000002"><a xlink:href="_query_params_8hpp.html" target="_top" xlink:title=" ">
<polygon fill="white" stroke="#666666" points="1334.5,-569 1185.5,-569 1185.5,-539 1334.5,-539 1334.5,-569"/>
<text text-anchor="start" x="1193.5" y="-557" font-family="Helvetica,sans-Serif" font-size="10.00">include/Thoth/Http</text>
<text text-anchor="middle" x="1260" y="-546" font-family="Helvetica,sans-Serif" font-size="10.00">/Request/QueryParams.hpp</text>
</a>
</g>
</g>
<!-- Node1&#45;&gt;Node2 -->
<g id="edge1_Node000001_Node000002" class="edge">
<title>Node1&#45;&gt;Node2</title>
<g id="a_edge1_Node000001_Node000002"><a xlink:title=" ">
<path fill="none" stroke="#63b8ff" d="M1309.95,-598.2C1298.97,-588.7 1286.24,-577.69 1276.38,-569.16"/>
<polygon fill="#63b8ff" stroke="#63b8ff" points="1307.72,-600.9 1317.58,-604.8 1312.3,-595.61 1307.72,-600.9"/>
</a>
</g>
</g>
<!-- Node23 -->
<g id="Node000023" class="node">
<title>Node23</title>
<g id="a_Node000023"><a xlink:href="_json_object_8hpp.html" target="_top" xlink:title=" ">
<polygon fill="white" stroke="#666666" points="1465.5,-569 1352.5,-569 1352.5,-539 1465.5,-539 1465.5,-569"/>
<text text-anchor="start" x="1360.5" y="-557" font-family="Helvetica,sans-Serif" font-size="10.00">include/Thoth/NJson</text>
<text text-anchor="middle" x="1409" y="-546" font-family="Helvetica,sans-Serif" font-size="10.00">/JsonObject.hpp</text>
</a>
</g>
</g>
<!-- Node1&#45;&gt;Node23 -->
<g id="edge29_Node000001_Node000023" class="edge">
<title>Node1&#45;&gt;Node23</title>
<g id="a_edge29_Node000001_Node000023"><a xlink:title=" ">
<path fill="none" stroke="#63b8ff" d="M1358.37,-598.2C1369.51,-588.7 1382.41,-577.69 1392.4,-569.16"/>
<polygon fill="#63b8ff" stroke="#63b8ff" points="1355.98,-595.64 1350.64,-604.8 1360.52,-600.97 1355.98,-595.64"/>
</a>
</g>
</g>
<!-- Node3 -->
<g id="Node000003" class="node">
<title>Node3</title>
<g id="a_Node000003"><a xlink:href="_url_8hpp.html" target="_top" xlink:title=" ">
<polygon fill="white" stroke="#666666" points="1313.5,-503 1206.5,-503 1206.5,-473 1313.5,-473 1313.5,-503"/>
<text text-anchor="start" x="1214.5" y="-491" font-family="Helvetica,sans-Serif" font-size="10.00">include/Thoth/Http</text>
<text text-anchor="middle" x="1260" y="-480" font-family="Helvetica,sans-Serif" font-size="10.00">/Request/Url.hpp</text>
</a>
</g>
</g>
<!-- Node2&#45;&gt;Node3 -->
<g id="edge2_Node000002_Node000003" class="edge">
<title>Node2&#45;&gt;Node3</title>
<g id="a_edge2_Node000002_Node000003"><a xlink:title=" ">
<path fill="none" stroke="#63b8ff" d="M1260,-528.54C1260,-519.96 1260,-510.61 1260,-503.16"/>
<polygon fill="#63b8ff" stroke="#63b8ff" points="1256.5,-528.8 1260,-538.8 1263.5,-528.8 1256.5,-528.8"/>
</a>
</g>
</g>
<!-- Node4 -->
<g id="Node000004" class="node">
<title>Node4</title>
<g id="a_Node000004"><a xlink:href="_method_concept_8hpp.html" target="_top" xlink:title=" ">
<polygon fill="white" stroke="#666666" points="1357,-365.5 1163,-365.5 1163,-335.5 1357,-335.5 1357,-365.5"/>
<text text-anchor="start" x="1171" y="-353.5" font-family="Helvetica,sans-Serif" font-size="10.00">include/Thoth/Http</text>
<text text-anchor="middle" x="1260" y="-342.5" font-family="Helvetica,sans-Serif" font-size="10.00">/Methods/_base/MethodConcept.hpp</text>
</a>
</g>
</g>
<!-- Node3&#45;&gt;Node4 -->
<g id="edge3_Node000003_Node000004" class="edge">
<title>Node3&#45;&gt;Node4</title>
<g id="a_edge3_Node000003_Node000004"><a xlink:title=" ">
<path fill="none" stroke="#63b8ff" d="M1260,-462.48C1260,-434.14 1260,-388.46 1260,-365.55"/>
<polygon fill="#63b8ff" stroke="#63b8ff" points="1256.5,-462.76 1260,-472.76 1263.5,-462.76 1256.5,-462.76"/>
</a>
</g>
</g>
<!-- Node8 -->
<g id="Node000008" class="node">
<title>Node8</title>
<g id="a_Node000008"><a xlink:href="_request_8hpp.html" target="_top" xlink:title=" ">
<polygon fill="white" stroke="#666666" points="1975.5,-228 1852.5,-228 1852.5,-198 1975.5,-198 1975.5,-228"/>
<text text-anchor="start" x="1860.5" y="-216" font-family="Helvetica,sans-Serif" font-size="10.00">include/Thoth/Http</text>
<text text-anchor="middle" x="1914" y="-205" font-family="Helvetica,sans-Serif" font-size="10.00">/Request/Request.hpp</text>
</a>
</g>
</g>
<!-- Node3&#45;&gt;Node8 -->
<g id="edge28_Node000003_Node000008" class="edge">
<title>Node3&#45;&gt;Node8</title>
<g id="a_edge28_Node000003_Node000008"><a xlink:title=" ">
<path fill="none" stroke="#63b8ff" d="M1323.82,-482.29C1502.59,-467.66 2001.58,-416.38 2099,-294 2135.94,-247.6 2042.86,-227.57 1975.74,-219.33"/>
<polygon fill="#63b8ff" stroke="#63b8ff" points="1323.46,-478.81 1313.77,-483.11 1324.02,-485.79 1323.46,-478.81"/>
</a>
</g>
</g>
<!-- Node18 -->
<g id="Node000018" class="node">
<title>Node18</title>
<g id="a_Node000018"><a xlink:href="_headers_8hpp.html" target="_top" xlink:title=" ">
<polygon fill="white" stroke="#666666" points="640,-437 508,-437 508,-407 640,-407 640,-437"/>
<text text-anchor="start" x="516" y="-425" font-family="Helvetica,sans-Serif" font-size="10.00">include/Thoth/Http</text>
<text text-anchor="middle" x="574" y="-414" font-family="Helvetica,sans-Serif" font-size="10.00">/NHeaders/Headers.hpp</text>
</a>
</g>
</g>
<!-- Node3&#45;&gt;Node18 -->
<g id="edge21_Node000003_Node000018" class="edge">
<title>Node3&#45;&gt;Node18</title>
<g id="a_edge21_Node000003_Node000018"><a xlink:title=" ">
<path fill="none" stroke="#63b8ff" d="M1196.27,-481.05C1066.31,-468.93 771.87,-441.46 640.01,-429.16"/>
<polygon fill="#63b8ff" stroke="#63b8ff" points="1196.17,-484.56 1206.46,-482 1196.82,-477.59 1196.17,-484.56"/>
</a>
</g>
</g>
<!-- Node5 -->
<g id="Node000005" class="node">
<title>Node5</title>
<g id="a_Node000005"><a xlink:href="_connect_method_8hpp.html" target="_top" xlink:title=" ">
<polygon fill="white" stroke="#666666" points="1253,-294 1091,-294 1091,-264 1253,-264 1253,-294"/>
<text text-anchor="start" x="1099" y="-282" font-family="Helvetica,sans-Serif" font-size="10.00">include/Thoth/Http</text>
<text text-anchor="middle" x="1172" y="-271" font-family="Helvetica,sans-Serif" font-size="10.00">/Methods/ConnectMethod.hpp</text>
</a>
</g>
</g>
<!-- Node4&#45;&gt;Node5 -->
<g id="edge4_Node000004_Node000005" class="edge">
<title>Node4&#45;&gt;Node5</title>
<g id="a_edge4_Node000004_Node000005"><a xlink:title=" ">
<path fill="none" stroke="#63b8ff" d="M1234.2,-329.13C1219.92,-317.85 1202.54,-304.12 1189.78,-294.04"/>
<polygon fill="#63b8ff" stroke="#63b8ff" points="1232.17,-331.98 1242.19,-335.44 1236.51,-326.49 1232.17,-331.98"/>
</a>
</g>
</g>
<!-- Node6 -->
<g id="Node000006" class="node">
<title>Node6</title>
<g id="a_Node000006"><a xlink:href="_delete_method_8hpp.html" target="_top" xlink:title=" ">
<polygon fill="white" stroke="#666666" points="1426.5,-294 1271.5,-294 1271.5,-264 1426.5,-264 1426.5,-294"/>
<text text-anchor="start" x="1279.5" y="-282" font-family="Helvetica,sans-Serif" font-size="10.00">include/Thoth/Http</text>
<text text-anchor="middle" x="1349" y="-271" font-family="Helvetica,sans-Serif" font-size="10.00">/Methods/DeleteMethod.hpp</text>
</a>
</g>
</g>
<!-- Node4&#45;&gt;Node6 -->
<g id="edge5_Node000004_Node000006" class="edge">
<title>Node4&#45;&gt;Node6</title>
<g id="a_edge5_Node000004_Node000006"><a xlink:title=" ">
<path fill="none" stroke="#63b8ff" d="M1286.09,-329.13C1300.53,-317.85 1318.11,-304.12 1331.02,-294.04"/>
<polygon fill="#63b8ff" stroke="#63b8ff" points="1283.74,-326.52 1278.01,-335.44 1288.05,-332.04 1283.74,-326.52"/>
</a>
</g>
</g>
<!-- Node7 -->
<g id="Node000007" class="node">
<title>Node7</title>
<g id="a_Node000007"><a xlink:href="_get_method_8hpp.html" target="_top" xlink:title=" ">
<polygon fill="white" stroke="#666666" points="1751,-294 1611,-294 1611,-264 1751,-264 1751,-294"/>
<text text-anchor="start" x="1619" y="-282" font-family="Helvetica,sans-Serif" font-size="10.00">include/Thoth/Http</text>
<text text-anchor="middle" x="1681" y="-271" font-family="Helvetica,sans-Serif" font-size="10.00">/Methods/GetMethod.hpp</text>
</a>
</g>
</g>
<!-- Node4&#45;&gt;Node7 -->
<g id="edge6_Node000004_Node000007" class="edge">
<title>Node4&#45;&gt;Node7</title>
<g id="a_edge6_Node000004_Node000007"><a xlink:title=" ">
<path fill="none" stroke="#63b8ff" d="M1358.54,-333.9C1426.9,-322.98 1520.04,-307.91 1602,-294 1604.88,-293.51 1607.83,-293.01 1610.8,-292.5"/>
<polygon fill="#63b8ff" stroke="#63b8ff" points="1357.96,-330.45 1348.63,-335.48 1359.06,-337.36 1357.96,-330.45"/>
</a>
</g>
</g>
<!-- Node12 -->
<g id="Node000012" class="node">
<title>Node12</title>
<g id="a_Node000012"><a xlink:href="_head_method_8hpp.html" target="_top" xlink:title=" ">
<polygon fill="white" stroke="#666666" points="1593,-294 1445,-294 1445,-264 1593,-264 1593,-294"/>
<text text-anchor="start" x="1453" y="-282" font-family="Helvetica,sans-Serif" font-size="10.00">include/Thoth/Http</text>
<text text-anchor="middle" x="1519" y="-271" font-family="Helvetica,sans-Serif" font-size="10.00">/Methods/HeadMethod.hpp</text>
</a>
</g>
</g>
<!-- Node4&#45;&gt;Node12 -->
<g id="edge13_Node000004_Node000012" class="edge">
<title>Node4&#45;&gt;Node12</title>
<g id="a_edge13_Node000004_Node000012"><a xlink:title=" ">
<path fill="none" stroke="#63b8ff" d="M1322.17,-332.82C1366.31,-320.97 1424.91,-305.25 1466.67,-294.04"/>
<polygon fill="#63b8ff" stroke="#63b8ff" points="1321.16,-329.46 1312.41,-335.44 1322.98,-336.22 1321.16,-329.46"/>
</a>
</g>
</g>
<!-- Node13 -->
<g id="Node000013" class="node">
<title>Node13</title>
<g id="a_Node000013"><a xlink:href="_options_method_8hpp.html" target="_top" xlink:title=" ">
<polygon fill="white" stroke="#666666" points="1929,-294 1769,-294 1769,-264 1929,-264 1929,-294"/>
<text text-anchor="start" x="1777" y="-282" font-family="Helvetica,sans-Serif" font-size="10.00">include/Thoth/Http</text>
<text text-anchor="middle" x="1849" y="-271" font-family="Helvetica,sans-Serif" font-size="10.00">/Methods/OptionsMethod.hpp</text>
</a>
</g>
</g>
<!-- Node4&#45;&gt;Node13 -->
<g id="edge14_Node000004_Node000013" class="edge">
<title>Node4&#45;&gt;Node13</title>
<g id="a_edge14_Node000004_Node000013"><a xlink:title=" ">
<path fill="none" stroke="#63b8ff" d="M1367.66,-338.98C1469.04,-328.73 1625.05,-312.09 1760,-294 1762.95,-293.61 1765.94,-293.19 1768.97,-292.76"/>
<polygon fill="#63b8ff" stroke="#63b8ff" points="1367.01,-335.53 1357.42,-340.01 1367.72,-342.49 1367.01,-335.53"/>
</a>
</g>
</g>
<!-- Node14 -->
<g id="Node000014" class="node">
<title>Node14</title>
<g id="a_Node000014"><a xlink:href="_patch_method_8hpp.html" target="_top" xlink:title=" ">
<polygon fill="white" stroke="#666666" points="750.5,-294 601.5,-294 601.5,-264 750.5,-264 750.5,-294"/>
<text text-anchor="start" x="609.5" y="-282" font-family="Helvetica,sans-Serif" font-size="10.00">include/Thoth/Http</text>
<text text-anchor="middle" x="676" y="-271" font-family="Helvetica,sans-Serif" font-size="10.00">/Methods/PatchMethod.hpp</text>
</a>
</g>
</g>
<!-- Node4&#45;&gt;Node14 -->
<g id="edge15_Node000004_Node000014" class="edge">
<title>Node4&#45;&gt;Node14</title>
<g id="a_edge15_Node000004_Node000014"><a xlink:title=" ">
<path fill="none" stroke="#63b8ff" d="M1152.3,-339.26C1050.9,-329.21 894.87,-312.71 760,-294 756.92,-293.57 753.79,-293.12 750.62,-292.65"/>
<polygon fill="#63b8ff" stroke="#63b8ff" points="1152.25,-342.77 1162.55,-340.27 1152.94,-335.81 1152.25,-342.77"/>
</a>
</g>
</g>
<!-- Node15 -->
<g id="Node000015" class="node">
<title>Node15</title>
<g id="a_Node000015"><a xlink:href="_post_method_8hpp.html" target="_top" xlink:title=" ">
<polygon fill="white" stroke="#666666" points="2090.5,-294 1947.5,-294 1947.5,-264 2090.5,-264 2090.5,-294"/>
<text text-anchor="start" x="1955.5" y="-282" font-family="Helvetica,sans-Serif" font-size="10.00">include/Thoth/Http</text>
<text text-anchor="middle" x="2019" y="-271" font-family="Helvetica,sans-Serif" font-size="10.00">/Methods/PostMethod.hpp</text>
</a>
</g>
</g>
<!-- Node4&#45;&gt;Node15 -->
<g id="edge16_Node000004_Node000015" class="edge">
<title>Node4&#45;&gt;Node15</title>
<g id="a_edge16_Node000004_Node000015"><a xlink:title=" ">
<path fill="none" stroke="#63b8ff" d="M1367.38,-343.69C1501.32,-335.75 1737.18,-319.52 1938,-294 1941.11,-293.6 1944.29,-293.17 1947.5,-292.72"/>
<polygon fill="#63b8ff" stroke="#63b8ff" points="1366.9,-340.21 1357.12,-344.29 1367.31,-347.2 1366.9,-340.21"/>
</a>
</g>
</g>
<!-- Node16 -->
<g id="Node000016" class="node">
<title>Node16</title>
<g id="a_Node000016"><a xlink:href="_put_method_8hpp.html" target="_top" xlink:title=" ">
<polygon fill="white" stroke="#666666" points="907,-294 769,-294 769,-264 907,-264 907,-294"/>
<text text-anchor="start" x="777" y="-282" font-family="Helvetica,sans-Serif" font-size="10.00">include/Thoth/Http</text>
<text text-anchor="middle" x="838" y="-271" font-family="Helvetica,sans-Serif" font-size="10.00">/Methods/PutMethod.hpp</text>
</a>
</g>
</g>
<!-- Node4&#45;&gt;Node16 -->
<g id="edge19_Node000004_Node000016" class="edge">
<title>Node4&#45;&gt;Node16</title>
<g id="a_edge19_Node000004_Node000016"><a xlink:title=" ">
<path fill="none" stroke="#63b8ff" d="M1160.52,-333.93C1091.78,-323.05 998.28,-308.02 916,-294 913.15,-293.51 910.25,-293.01 907.31,-292.51"/>
<polygon fill="#63b8ff" stroke="#63b8ff" points="1160.05,-337.39 1170.47,-335.5 1161.14,-330.48 1160.05,-337.39"/>
</a>
</g>
</g>
<!-- Node17 -->
<g id="Node000017" class="node">
<title>Node17</title>
<g id="a_Node000017"><a xlink:href="_trace_method_8hpp.html" target="_top" xlink:title=" ">
<polygon fill="white" stroke="#666666" points="1073,-294 925,-294 925,-264 1073,-264 1073,-294"/>
<text text-anchor="start" x="933" y="-282" font-family="Helvetica,sans-Serif" font-size="10.00">include/Thoth/Http</text>
<text text-anchor="middle" x="999" y="-271" font-family="Helvetica,sans-Serif" font-size="10.00">/Methods/TraceMethod.hpp</text>
</a>
</g>
</g>
<!-- Node4&#45;&gt;Node17 -->
<g id="edge20_Node000004_Node000017" class="edge">
<title>Node4&#45;&gt;Node17</title>
<g id="a_edge20_Node000004_Node000017"><a xlink:title=" ">
<path fill="none" stroke="#63b8ff" d="M1197.35,-332.82C1152.87,-320.97 1093.82,-305.25 1051.74,-294.04"/>
<polygon fill="#63b8ff" stroke="#63b8ff" points="1196.62,-336.24 1207.18,-335.44 1198.42,-329.48 1196.62,-336.24"/>
</a>
</g>
</g>
<!-- Node7&#45;&gt;Node8 -->
<g id="edge7_Node000007_Node000008" class="edge">
<title>Node7&#45;&gt;Node8</title>
<g id="a_edge7_Node000007_Node000008"><a xlink:title=" ">
<path fill="none" stroke="#63b8ff" d="M1741.97,-261.25C1779.61,-250.91 1827.35,-237.8 1862.99,-228.01"/>
<polygon fill="#63b8ff" stroke="#63b8ff" points="1740.85,-257.93 1732.13,-263.95 1742.7,-264.68 1740.85,-257.93"/>
</a>
</g>
</g>
<!-- Node11 -->
<g id="Node000011" class="node">
<title>Node11</title>
<g id="a_Node000011"><a xlink:href="_response_8hpp.html" target="_top" xlink:title=" ">
<polygon fill="white" stroke="#666666" points="1870,-96 1732,-96 1732,-66 1870,-66 1870,-96"/>
<text text-anchor="start" x="1740" y="-84" font-family="Helvetica,sans-Serif" font-size="10.00">include/Thoth/Http</text>
<text text-anchor="middle" x="1801" y="-73" font-family="Helvetica,sans-Serif" font-size="10.00">/Response/Response.hpp</text>
</a>
</g>
</g>
<!-- Node7&#45;&gt;Node11 -->
<g id="edge12_Node000007_Node000011" class="edge">
<title>Node7&#45;&gt;Node11</title>
<g id="a_edge12_Node000007_Node000011"><a xlink:title=" ">
<path fill="none" stroke="#63b8ff" d="M1699.94,-255.82C1718.6,-233.24 1747.12,-196.73 1767,-162 1779.6,-140 1790.3,-112.42 1796.17,-96.06"/>
<polygon fill="#63b8ff" stroke="#63b8ff" points="1697.04,-253.84 1693.31,-263.75 1702.41,-258.32 1697.04,-253.84"/>
</a>
</g>
</g>
<!-- Node9 -->
<g id="Node000009" class="node">
<title>Node9</title>
<g id="a_Node000009"><a xlink:href="_client_8hpp.html" target="_top" xlink:title=" ">
<polygon fill="white" stroke="#666666" points="1902.5,-30 1795.5,-30 1795.5,0 1902.5,0 1902.5,-30"/>
<text text-anchor="start" x="1803.5" y="-18" font-family="Helvetica,sans-Serif" font-size="10.00">include/Thoth/Http</text>
<text text-anchor="middle" x="1849" y="-7" font-family="Helvetica,sans-Serif" font-size="10.00">/Client.hpp</text>
</a>
</g>
</g>
<!-- Node8&#45;&gt;Node9 -->
<g id="edge8_Node000008_Node000009" class="edge">
<title>Node8&#45;&gt;Node9</title>
<g id="a_edge8_Node000008_Node000009"><a xlink:title=" ">
<path fill="none" stroke="#63b8ff" d="M1910.5,-187.66C1905.72,-158.09 1895.78,-107.08 1879,-66 1873.79,-53.26 1865.65,-39.94 1859.16,-30.26"/>
<polygon fill="#63b8ff" stroke="#63b8ff" points="1907.09,-188.53 1912.08,-197.87 1914.01,-187.46 1907.09,-188.53"/>
</a>
</g>
</g>
<!-- Node10 -->
<g id="Node000010" class="node">
<title>Node10</title>
<g id="a_Node000010"><a xlink:href="_response_head_8hpp.html" target="_top" xlink:title=" ">
<polygon fill="white" stroke="#666666" points="1758,-162 1594,-162 1594,-132 1758,-132 1758,-162"/>
<text text-anchor="start" x="1602" y="-150" font-family="Helvetica,sans-Serif" font-size="10.00">include/Thoth/Http</text>
<text text-anchor="middle" x="1676" y="-139" font-family="Helvetica,sans-Serif" font-size="10.00">/Response/ResponseHead.hpp</text>
</a>
</g>
</g>
<!-- Node8&#45;&gt;Node10 -->
<g id="edge9_Node000008_Node000010" class="edge">
<title>Node8&#45;&gt;Node10</title>
<g id="a_edge9_Node000008_Node000010"><a xlink:title=" ">
<path fill="none" stroke="#63b8ff" d="M1851.72,-195.25C1813.27,-184.91 1764.51,-171.8 1728.11,-162.01"/>
<polygon fill="#63b8ff" stroke="#63b8ff" points="1851.2,-198.74 1861.77,-197.95 1853.02,-191.98 1851.2,-198.74"/>
</a>
</g>
</g>
<!-- Node10&#45;&gt;Node11 -->
<g id="edge10_Node000010_Node000011" class="edge">
<title>Node10&#45;&gt;Node11</title>
<g id="a_edge10_Node000010_Node000011"><a xlink:title=" ">
<path fill="none" stroke="#63b8ff" d="M1712.37,-127.38C1731.93,-117.36 1755.65,-105.22 1773.63,-96.01"/>
<polygon fill="#63b8ff" stroke="#63b8ff" points="1710.74,-124.28 1703.43,-131.95 1713.93,-130.51 1710.74,-124.28"/>
</a>
</g>
</g>
<!-- Node11&#45;&gt;Node9 -->
<g id="edge11_Node000011_Node000009" class="edge">
<title>Node11&#45;&gt;Node9</title>
<g id="a_edge11_Node000011_Node000009"><a xlink:title=" ">
<path fill="none" stroke="#63b8ff" d="M1817.86,-57.53C1824.68,-48.43 1832.35,-38.19 1838.38,-30.16"/>
<polygon fill="#63b8ff" stroke="#63b8ff" points="1814.85,-55.7 1811.65,-65.8 1820.45,-59.9 1814.85,-55.7"/>
</a>
</g>
</g>
<!-- Node15&#45;&gt;Node8 -->
<g id="edge17_Node000015_Node000008" class="edge">
<title>Node15&#45;&gt;Node8</title>
<g id="a_edge17_Node000015_Node000008"><a xlink:title=" ">
<path fill="none" stroke="#63b8ff" d="M1987.33,-258.69C1971.12,-248.82 1951.75,-237.01 1936.99,-228.01"/>
<polygon fill="#63b8ff" stroke="#63b8ff" points="1985.6,-261.74 1995.96,-263.95 1989.24,-255.76 1985.6,-261.74"/>
</a>
</g>
</g>
<!-- Node15&#45;&gt;Node11 -->
<g id="edge18_Node000015_Node000011" class="edge">
<title>Node15&#45;&gt;Node11</title>
<g id="a_edge18_Node000015_Node000011"><a xlink:title=" ">
<path fill="none" stroke="#63b8ff" d="M1937.56,-262.82C1898.36,-253.98 1856.9,-241.85 1843,-228 1806.39,-191.51 1801.22,-125.31 1800.81,-96.29"/>
<polygon fill="#63b8ff" stroke="#63b8ff" points="1936.93,-266.26 1947.45,-264.99 1938.44,-259.43 1936.93,-266.26"/>
</a>
</g>
</g>
<!-- Node18&#45;&gt;Node4 -->
<g id="edge22_Node000018_Node000004" class="edge">
<title>Node18&#45;&gt;Node4</title>
<g id="a_edge22_Node000018_Node000004"><a xlink:title=" ">
<path fill="none" stroke="#63b8ff" d="M650.36,-413.26C775.75,-400.56 1025.08,-375.3 1162.85,-361.34"/>
<polygon fill="#63b8ff" stroke="#63b8ff" points="649.68,-409.81 640.09,-414.3 650.39,-416.78 649.68,-409.81"/>
</a>
</g>
</g>
<!-- Node18&#45;&gt;Node10 -->
<g id="edge27_Node000018_Node000010" class="edge">
<title>Node18&#45;&gt;Node10</title>
<g id="a_edge27_Node000018_Node000010"><a xlink:title=" ">
<path fill="none" stroke="#63b8ff" d="M568.5,-396.65C562.26,-361.97 557.03,-298.7 592,-264 662.86,-193.67 1353.31,-160.47 1593.86,-150.97"/>
<polygon fill="#63b8ff" stroke="#63b8ff" points="565.14,-397.7 570.52,-406.84 572.01,-396.35 565.14,-397.7"/>
</a>
</g>
</g>
<!-- Node19 -->
<g id="Node000019" class="node">
<title>Node19</title>
<g id="a_Node000019"><a xlink:href="_list_proxy_8hpp.html" target="_top" xlink:title=" ">
<polygon fill="white" stroke="#666666" points="352,-365.5 186,-365.5 186,-335.5 352,-335.5 352,-365.5"/>
<text text-anchor="start" x="194" y="-353.5" font-family="Helvetica,sans-Serif" font-size="10.00">include/Thoth/Http</text>
<text text-anchor="middle" x="269" y="-342.5" font-family="Helvetica,sans-Serif" font-size="10.00">/NHeaders/Proxy/ListProxy.hpp</text>
</a>
</g>
</g>
<!-- Node18&#45;&gt;Node19 -->
<g id="edge23_Node000018_Node000019" class="edge">
<title>Node18&#45;&gt;Node19</title>
<g id="a_edge23_Node000018_Node000019"><a xlink:title=" ">
<path fill="none" stroke="#63b8ff" d="M502.43,-404.69C450.26,-392.8 380.32,-376.87 330.63,-365.54"/>
<polygon fill="#63b8ff" stroke="#63b8ff" points="501.75,-408.13 512.28,-406.94 503.31,-401.3 501.75,-408.13"/>
</a>
</g>
</g>
<!-- Node20 -->
<g id="Node000020" class="node">
<title>Node20</title>
<g id="a_Node000020"><a xlink:href="_value_proxy_8hpp.html" target="_top" xlink:title=" ">
<polygon fill="white" stroke="#666666" points="546,-365.5 370,-365.5 370,-335.5 546,-335.5 546,-365.5"/>
<text text-anchor="start" x="378" y="-353.5" font-family="Helvetica,sans-Serif" font-size="10.00">include/Thoth/Http</text>
<text text-anchor="middle" x="458" y="-342.5" font-family="Helvetica,sans-Serif" font-size="10.00">/NHeaders/Proxy/ValueProxy.hpp</text>
</a>
</g>
</g>
<!-- Node18&#45;&gt;Node20 -->
<g id="edge24_Node000018_Node000020" class="edge">
<title>Node18&#45;&gt;Node20</title>
<g id="a_edge24_Node000018_Node000020"><a xlink:title=" ">
<path fill="none" stroke="#63b8ff" d="M541.83,-401.72C522.68,-390.25 498.8,-375.95 481.44,-365.54"/>
<polygon fill="#63b8ff" stroke="#63b8ff" points="540.15,-404.8 550.53,-406.94 543.75,-398.79 540.15,-404.8"/>
</a>
</g>
</g>
<!-- Node21 -->
<g id="Node000021" class="node">
<title>Node21</title>
<g id="a_Node000021"><a xlink:href="_request_headers_8hpp.html" target="_top" xlink:title=" ">
<polygon fill="white" stroke="#666666" points="817.5,-365.5 602.5,-365.5 602.5,-335.5 817.5,-335.5 817.5,-365.5"/>
<text text-anchor="start" x="610.5" y="-353.5" font-family="Helvetica,sans-Serif" font-size="10.00">include/Thoth/Http</text>
<text text-anchor="middle" x="710" y="-342.5" font-family="Helvetica,sans-Serif" font-size="10.00">/NHeaders/Request/RequestHeaders.hpp</text>
</a>
</g>
</g>
<!-- Node18&#45;&gt;Node21 -->
<g id="edge25_Node000018_Node000021" class="edge">
<title>Node18&#45;&gt;Node21</title>
<g id="a_edge25_Node000018_Node000021"><a xlink:title=" ">
<path fill="none" stroke="#63b8ff" d="M610.51,-402.34C633.16,-390.77 661.79,-376.14 682.52,-365.54"/>
<polygon fill="#63b8ff" stroke="#63b8ff" points="608.83,-399.27 601.52,-406.94 612.02,-405.5 608.83,-399.27"/>
</a>
</g>
</g>
<!-- Node22 -->
<g id="Node000022" class="node">
<title>Node22</title>
<g id="a_Node000022"><a xlink:href="_response_headers_8hpp.html" target="_top" xlink:title=" ">
<polygon fill="white" stroke="#666666" points="168,-371 0,-371 0,-330 168,-330 168,-371"/>
<text text-anchor="start" x="8" y="-359" font-family="Helvetica,sans-Serif" font-size="10.00">include/Thoth/Http</text>
<text text-anchor="start" x="8" y="-348" font-family="Helvetica,sans-Serif" font-size="10.00">/NHeaders/Response/Response</text>
<text text-anchor="middle" x="84" y="-337" font-family="Helvetica,sans-Serif" font-size="10.00">Headers.hpp</text>
</a>
</g>
</g>
<!-- Node18&#45;&gt;Node22 -->
<g id="edge26_Node000018_Node000022" class="edge">
<title>Node18&#45;&gt;Node22</title>
<g id="a_edge26_Node000018_Node000022"><a xlink:title=" ">
<path fill="none" stroke="#63b8ff" d="M497.73,-413.26C417.6,-404.69 288.04,-389.6 177,-371 174.07,-370.51 171.09,-369.99 168.09,-369.45"/>
<polygon fill="#63b8ff" stroke="#63b8ff" points="497.42,-416.75 507.73,-414.32 498.16,-409.78 497.42,-416.75"/>
</a>
</g>
</g>
</g>
</svg>
