<?xml version="1.0" encoding="UTF-8" standalone="no"?>
<!DOCTYPE svg PUBLIC "-//W3C//DTD SVG 1.1//EN"
 "http://www.w3.org/Graphics/SVG/1.1/DTD/svg11.dtd">
<!-- Generated by graphviz version 2.43.0 (0)
 -->
<!-- Title: include/Thoth/Http/Methods/_base/MethodConcept.hpp Pages: 1 -->
<svg width="1497pt" height="368pt"
 viewBox="0.00 0.00 1497.00 368.00" xmlns="http://www.w3.org/2000/svg" xmlns:xlink="http://www.w3.org/1999/xlink">
<g id="graph0" class="graph" transform="scale(1 1) rotate(0) translate(4 364)">
<title>include/Thoth/Http/Methods/_base/MethodConcept.hpp</title>
<!-- Node1 -->
<g id="Node000001" class="node">
<title>Node1</title>
<g id="a_Node000001"><a xlink:title=" ">
<polygon fill="#999999" stroke="#666666" points="844,-360 650,-360 650,-330 844,-330 844,-360"/>
<text text-anchor="start" x="658" y="-348" font-family="Helvetica,sans-Serif" font-size="10.00">include/Thoth/Http</text>
<text text-anchor="middle" x="747" y="-337" font-family="Helvetica,sans-Serif" font-size="10.00">/Methods/_base/MethodConcept.hpp</text>
</a>
</g>
</g>
<!-- Node2 -->
<g id="Node000002" class="node">
<title>Node2</title>
<g id="a_Node000002"><a xlink:href="_connect_method_8hpp.html" target="_top" xlink:title=" ">
<polygon fill="white" stroke="#666666" points="162,-294 0,-294 0,-264 162,-264 162,-294"/>
<text text-anchor="start" x="8" y="-282" font-family="Helvetica,sans-Serif" font-size="10.00">include/Thoth/Http</text>
<text text-anchor="middle" x="81" y="-271" font-family="Helvetica,sans-Serif" font-size="10.00">/Methods/ConnectMethod.hpp</text>
</a>
</g>
</g>
<!-- Node1&#45;&gt;Node2 -->
<g id="edge1_Node000001_Node000002" class="edge">
<title>Node1&#45;&gt;Node2</title>
<g id="a_edge1_Node000001_Node000002"><a xlink:title=" ">
<path fill="none" stroke="#63b8ff" d="M639.69,-336.87C523.84,-328.66 333.99,-313.73 171,-294 168.17,-293.66 165.3,-293.29 162.4,-292.92"/>
<polygon fill="#63b8ff" stroke="#63b8ff" points="639.75,-340.38 649.97,-337.59 640.24,-333.4 639.75,-340.38"/>
</a>
</g>
</g>
<!-- Node3 -->
<g id="Node000003" class="node">
<title>Node3</title>
<g id="a_Node000003"><a xlink:href="_delete_method_8hpp.html" target="_top" xlink:title=" ">
<polygon fill="white" stroke="#666666" points="335.5,-294 180.5,-294 180.5,-264 335.5,-264 335.5,-294"/>
<text text-anchor="start" x="188.5" y="-282" font-family="Helvetica,sans-Serif" font-size="10.00">include/Thoth/Http</text>
<text text-anchor="middle" x="258" y="-271" font-family="Helvetica,sans-Serif" font-size="10.00">/Methods/DeleteMethod.hpp</text>
</a>
</g>
</g>
<!-- Node1&#45;&gt;Node3 -->
<g id="edge2_Node000001_Node000003" class="edge">
<title>Node1&#45;&gt;Node3</title>
<g id="a_edge2_Node000001_Node000003"><a xlink:title=" ">
<path fill="none" stroke="#63b8ff" d="M639.72,-331.81C558.44,-322.3 444.05,-308.35 344,-294 341.3,-293.61 338.56,-293.21 335.8,-292.8"/>
<polygon fill="#63b8ff" stroke="#63b8ff" points="639.62,-335.32 649.96,-333.01 640.43,-328.37 639.62,-335.32"/>
</a>
</g>
</g>
<!-- Node4 -->
<g id="Node000004" class="node">
<title>Node4</title>
<g id="a_Node000004"><a xlink:href="_get_method_8hpp.html" target="_top" xlink:title=" ">
<polygon fill="white" stroke="#666666" points="655,-294 515,-294 515,-264 655,-264 655,-294"/>
<text text-anchor="start" x="523" y="-282" font-family="Helvetica,sans-Serif" font-size="10.00">include/Thoth/Http</text>
<text text-anchor="middle" x="585" y="-271" font-family="Helvetica,sans-Serif" font-size="10.00">/Methods/GetMethod.hpp</text>
</a>
</g>
</g>
<!-- Node1&#45;&gt;Node4 -->
<g id="edge3_Node000001_Node000004" class="edge">
<title>Node1&#45;&gt;Node4</title>
<g id="a_edge3_Node000001_Node000004"><a xlink:title=" ">
<path fill="none" stroke="#63b8ff" d="M701.91,-326.19C676.19,-316.02 644.4,-303.47 620.47,-294.01"/>
<polygon fill="#63b8ff" stroke="#63b8ff" points="700.86,-329.54 711.45,-329.95 703.43,-323.03 700.86,-329.54"/>
</a>
</g>
</g>
<!-- Node9 -->
<g id="Node000009" class="node">
<title>Node9</title>
<g id="a_Node000009"><a xlink:href="_head_method_8hpp.html" target="_top" xlink:title=" ">
<polygon fill="white" stroke="#666666" points="821,-294 673,-294 673,-264 821,-264 821,-294"/>
<text text-anchor="start" x="681" y="-282" font-family="Helvetica,sans-Serif" font-size="10.00">include/Thoth/Http</text>
<text text-anchor="middle" x="747" y="-271" font-family="Helvetica,sans-Serif" font-size="10.00">/Methods/HeadMethod.hpp</text>
</a>
</g>
</g>
<!-- Node1&#45;&gt;Node9 -->
<g id="edge10_Node000001_Node000009" class="edge">
<title>Node1&#45;&gt;Node9</title>
<g id="a_edge10_Node000001_Node000009"><a xlink:title=" ">
<path fill="none" stroke="#63b8ff" d="M747,-319.54C747,-310.96 747,-301.61 747,-294.16"/>
<polygon fill="#63b8ff" stroke="#63b8ff" points="743.5,-319.8 747,-329.8 750.5,-319.8 743.5,-319.8"/>
</a>
</g>
</g>
<!-- Node10 -->
<g id="Node000010" class="node">
<title>Node10</title>
<g id="a_Node000010"><a xlink:href="_options_method_8hpp.html" target="_top" xlink:title=" ">
<polygon fill="white" stroke="#666666" points="999,-294 839,-294 839,-264 999,-264 999,-294"/>
<text text-anchor="start" x="847" y="-282" font-family="Helvetica,sans-Serif" font-size="10.00">include/Thoth/Http</text>
<text text-anchor="middle" x="919" y="-271" font-family="Helvetica,sans-Serif" font-size="10.00">/Methods/OptionsMethod.hpp</text>
</a>
</g>
</g>
<!-- Node1&#45;&gt;Node10 -->
<g id="edge11_Node000001_Node000010" class="edge">
<title>Node1&#45;&gt;Node10</title>
<g id="a_edge11_Node000001_Node000010"><a xlink:title=" ">
<path fill="none" stroke="#63b8ff" d="M794.15,-326.46C821.59,-316.25 855.71,-303.55 881.34,-294.01"/>
<polygon fill="#63b8ff" stroke="#63b8ff" points="792.9,-323.19 784.75,-329.95 795.34,-329.75 792.9,-323.19"/>
</a>
</g>
</g>
<!-- Node11 -->
<g id="Node000011" class="node">
<title>Node11</title>
<g id="a_Node000011"><a xlink:href="_patch_method_8hpp.html" target="_top" xlink:title=" ">
<polygon fill="white" stroke="#666666" points="1166.5,-294 1017.5,-294 1017.5,-264 1166.5,-264 1166.5,-294"/>
<text text-anchor="start" x="1025.5" y="-282" font-family="Helvetica,sans-Serif" font-size="10.00">include/Thoth/Http</text>
<text text-anchor="middle" x="1092" y="-271" font-family="Helvetica,sans-Serif" font-size="10.00">/Methods/PatchMethod.hpp</text>
</a>
</g>
</g>
<!-- Node1&#45;&gt;Node11 -->
<g id="edge12_Node000001_Node000011" class="edge">
<title>Node1&#45;&gt;Node11</title>
<g id="a_edge12_Node000001_Node000011"><a xlink:title=" ">
<path fill="none" stroke="#63b8ff" d="M832.74,-328.1C889.44,-317.58 963.06,-303.92 1017.36,-293.85"/>
<polygon fill="#63b8ff" stroke="#63b8ff" points="831.91,-324.69 822.71,-329.95 833.18,-331.57 831.91,-324.69"/>
</a>
</g>
</g>
<!-- Node12 -->
<g id="Node000012" class="node">
<title>Node12</title>
<g id="a_Node000012"><a xlink:href="_post_method_8hpp.html" target="_top" xlink:title=" ">
<polygon fill="white" stroke="#666666" points="496.5,-294 353.5,-294 353.5,-264 496.5,-264 496.5,-294"/>
<text text-anchor="start" x="361.5" y="-282" font-family="Helvetica,sans-Serif" font-size="10.00">include/Thoth/Http</text>
<text text-anchor="middle" x="425" y="-271" font-family="Helvetica,sans-Serif" font-size="10.00">/Methods/PostMethod.hpp</text>
</a>
</g>
</g>
<!-- Node1&#45;&gt;Node12 -->
<g id="edge13_Node000001_Node000012" class="edge">
<title>Node1&#45;&gt;Node12</title>
<g id="a_edge13_Node000001_Node000012"><a xlink:title=" ">
<path fill="none" stroke="#63b8ff" d="M666.37,-327.98C613.82,-317.53 545.9,-304.03 495.5,-294.01"/>
<polygon fill="#63b8ff" stroke="#63b8ff" points="665.85,-331.44 676.34,-329.95 667.21,-324.57 665.85,-331.44"/>
</a>
</g>
</g>
<!-- Node13 -->
<g id="Node000013" class="node">
<title>Node13</title>
<g id="a_Node000013"><a xlink:href="_put_method_8hpp.html" target="_top" xlink:title=" ">
<polygon fill="white" stroke="#666666" points="1323,-294 1185,-294 1185,-264 1323,-264 1323,-294"/>
<text text-anchor="start" x="1193" y="-282" font-family="Helvetica,sans-Serif" font-size="10.00">include/Thoth/Http</text>
<text text-anchor="middle" x="1254" y="-271" font-family="Helvetica,sans-Serif" font-size="10.00">/Methods/PutMethod.hpp</text>
</a>
</g>
</g>
<!-- Node1&#45;&gt;Node13 -->
<g id="edge16_Node000001_Node000013" class="edge">
<title>Node1&#45;&gt;Node13</title>
<g id="a_edge16_Node000001_Node000013"><a xlink:title=" ">
<path fill="none" stroke="#63b8ff" d="M854.48,-333.33C941.4,-324.25 1066.83,-310.14 1176,-294 1178.86,-293.58 1181.77,-293.13 1184.71,-292.66"/>
<polygon fill="#63b8ff" stroke="#63b8ff" points="853.93,-329.87 844.34,-334.38 854.65,-336.83 853.93,-329.87"/>
</a>
</g>
</g>
<!-- Node14 -->
<g id="Node000014" class="node">
<title>Node14</title>
<g id="a_Node000014"><a xlink:href="_trace_method_8hpp.html" target="_top" xlink:title=" ">
<polygon fill="white" stroke="#666666" points="1489,-294 1341,-294 1341,-264 1489,-264 1489,-294"/>
<text text-anchor="start" x="1349" y="-282" font-family="Helvetica,sans-Serif" font-size="10.00">include/Thoth/Http</text>
<text text-anchor="middle" x="1415" y="-271" font-family="Helvetica,sans-Serif" font-size="10.00">/Methods/TraceMethod.hpp</text>
</a>
</g>
</g>
<!-- Node1&#45;&gt;Node14 -->
<g id="edge17_Node000001_Node000014" class="edge">
<title>Node1&#45;&gt;Node14</title>
<g id="a_edge17_Node000001_Node000014"><a xlink:title=" ">
<path fill="none" stroke="#63b8ff" d="M854.12,-337.48C971.64,-329.72 1165.7,-315.1 1332,-294 1334.9,-293.63 1337.85,-293.24 1340.83,-292.82"/>
<polygon fill="#63b8ff" stroke="#63b8ff" points="853.79,-334 844.04,-338.15 854.25,-340.98 853.79,-334"/>
</a>
</g>
</g>
<!-- Node5 -->
<g id="Node000005" class="node">
<title>Node5</title>
<g id="a_Node000005"><a xlink:href="_request_8hpp.html" target="_top" xlink:title=" ">
<polygon fill="white" stroke="#666666" points="560.5,-228 437.5,-228 437.5,-198 560.5,-198 560.5,-228"/>
<text text-anchor="start" x="445.5" y="-216" font-family="Helvetica,sans-Serif" font-size="10.00">include/Thoth/Http</text>
<text text-anchor="middle" x="499" y="-205" font-family="Helvetica,sans-Serif" font-size="10.00">/Request/Request.hpp</text>
</a>
</g>
</g>
<!-- Node4&#45;&gt;Node5 -->
<g id="edge4_Node000004_Node000005" class="edge">
<title>Node4&#45;&gt;Node5</title>
<g id="a_edge4_Node000004_Node000005"><a xlink:title=" ">
<path fill="none" stroke="#63b8ff" d="M557.79,-257.75C544.86,-248.13 529.71,-236.86 518.03,-228.16"/>
<polygon fill="#63b8ff" stroke="#63b8ff" points="555.8,-260.63 565.91,-263.8 559.98,-255.02 555.8,-260.63"/>
</a>
</g>
</g>
<!-- Node8 -->
<g id="Node000008" class="node">
<title>Node8</title>
<g id="a_Node000008"><a xlink:href="_response_8hpp.html" target="_top" xlink:title=" ">
<polygon fill="white" stroke="#666666" points="586,-96 448,-96 448,-66 586,-66 586,-96"/>
<text text-anchor="start" x="456" y="-84" font-family="Helvetica,sans-Serif" font-size="10.00">include/Thoth/Http</text>
<text text-anchor="middle" x="517" y="-73" font-family="Helvetica,sans-Serif" font-size="10.00">/Response/Response.hpp</text>
</a>
</g>
</g>
<!-- Node4&#45;&gt;Node8 -->
<g id="edge9_Node000004_Node000008" class="edge">
<title>Node4&#45;&gt;Node8</title>
<g id="a_edge9_Node000004_Node000008"><a xlink:title=" ">
<path fill="none" stroke="#63b8ff" d="M599.2,-255.03C615.93,-224.7 638.66,-170.63 615,-132 604.63,-115.06 586.51,-103.63 568.65,-96.03"/>
<polygon fill="#63b8ff" stroke="#63b8ff" points="595.99,-253.58 594.04,-263.99 602.06,-257.07 595.99,-253.58"/>
</a>
</g>
</g>
<!-- Node6 -->
<g id="Node000006" class="node">
<title>Node6</title>
<g id="a_Node000006"><a xlink:href="_client_8hpp.html" target="_top" xlink:title=" ">
<polygon fill="white" stroke="#666666" points="515.5,-30 408.5,-30 408.5,0 515.5,0 515.5,-30"/>
<text text-anchor="start" x="416.5" y="-18" font-family="Helvetica,sans-Serif" font-size="10.00">include/Thoth/Http</text>
<text text-anchor="middle" x="462" y="-7" font-family="Helvetica,sans-Serif" font-size="10.00">/Client.hpp</text>
</a>
</g>
</g>
<!-- Node5&#45;&gt;Node6 -->
<g id="edge5_Node000005_Node000006" class="edge">
<title>Node5&#45;&gt;Node6</title>
<g id="a_edge5_Node000005_Node000006"><a xlink:title=" ">
<path fill="none" stroke="#63b8ff" d="M461.23,-192.41C450.05,-184.57 439.17,-174.41 433,-162 410.8,-117.34 438.56,-57.03 453.56,-30.06"/>
<polygon fill="#63b8ff" stroke="#63b8ff" points="459.46,-195.43 469.75,-197.95 463.28,-189.56 459.46,-195.43"/>
</a>
</g>
</g>
<!-- Node7 -->
<g id="Node000007" class="node">
<title>Node7</title>
<g id="a_Node000007"><a xlink:href="_response_head_8hpp.html" target="_top" xlink:title=" ">
<polygon fill="white" stroke="#666666" points="606,-162 442,-162 442,-132 606,-132 606,-162"/>
<text text-anchor="start" x="450" y="-150" font-family="Helvetica,sans-Serif" font-size="10.00">include/Thoth/Http</text>
<text text-anchor="middle" x="524" y="-139" font-family="Helvetica,sans-Serif" font-size="10.00">/Response/ResponseHead.hpp</text>
</a>
</g>
</g>
<!-- Node5&#45;&gt;Node7 -->
<g id="edge6_Node000005_Node000007" class="edge">
<title>Node5&#45;&gt;Node7</title>
<g id="a_edge6_Node000005_Node000007"><a xlink:title=" ">
<path fill="none" stroke="#63b8ff" d="M508.22,-188.39C511.66,-179.59 515.46,-169.86 518.47,-162.16"/>
<polygon fill="#63b8ff" stroke="#63b8ff" points="504.93,-187.21 504.55,-197.8 511.45,-189.76 504.93,-187.21"/>
</a>
</g>
</g>
<!-- Node7&#45;&gt;Node8 -->
<g id="edge7_Node000007_Node000008" class="edge">
<title>Node7&#45;&gt;Node8</title>
<g id="a_edge7_Node000007_Node000008"><a xlink:title=" ">
<path fill="none" stroke="#63b8ff" d="M521.36,-121.83C520.41,-113.17 519.37,-103.7 518.55,-96.16"/>
<polygon fill="#63b8ff" stroke="#63b8ff" points="517.88,-122.24 522.45,-131.8 524.84,-121.48 517.88,-122.24"/>
</a>
</g>
</g>
<!-- Node8&#45;&gt;Node6 -->
<g id="edge8_Node000008_Node000006" class="edge">
<title>Node8&#45;&gt;Node6</title>
<g id="a_edge8_Node000008_Node000006"><a xlink:title=" ">
<path fill="none" stroke="#63b8ff" d="M498.17,-58.09C490.23,-48.85 481.22,-38.36 474.17,-30.16"/>
<polygon fill="#63b8ff" stroke="#63b8ff" points="495.62,-60.49 504.79,-65.8 500.93,-55.93 495.62,-60.49"/>
</a>
</g>
</g>
<!-- Node12&#45;&gt;Node5 -->
<g id="edge14_Node000012_Node000005" class="edge">
<title>Node12&#45;&gt;Node5</title>
<g id="a_edge14_Node000012_Node000005"><a xlink:title=" ">
<path fill="none" stroke="#63b8ff" d="M449.05,-257.2C460.03,-247.7 472.76,-236.69 482.62,-228.16"/>
<polygon fill="#63b8ff" stroke="#63b8ff" points="446.7,-254.61 441.42,-263.8 451.28,-259.9 446.7,-254.61"/>
</a>
</g>
</g>
<!-- Node12&#45;&gt;Node8 -->
<g id="edge15_Node000012_Node000008" class="edge">
<title>Node12&#45;&gt;Node8</title>
<g id="a_edge15_Node000012_Node000008"><a xlink:title=" ">
<path fill="none" stroke="#63b8ff" d="M419.82,-254.02C414.56,-223.33 410.08,-169.62 433,-132 442.98,-115.62 460.51,-103.96 476.99,-96.04"/>
<polygon fill="#63b8ff" stroke="#63b8ff" points="416.38,-254.68 421.67,-263.86 423.26,-253.38 416.38,-254.68"/>
</a>
</g>
</g>
</g>
</svg>
