<?xml version="1.0" encoding="UTF-8" standalone="no"?>
<!DOCTYPE svg PUBLIC "-//W3C//DTD SVG 1.1//EN"
 "http://www.w3.org/Graphics/SVG/1.1/DTD/svg11.dtd">
<!-- Generated by graphviz version 2.43.0 (0)
 -->
<!-- Title: include/Thoth/Http/Methods/_base/MethodConcept.hpp Pages: 1 -->
<svg width="1498pt" height="236pt"
 viewBox="0.00 0.00 1498.00 236.00" xmlns="http://www.w3.org/2000/svg" xmlns:xlink="http://www.w3.org/1999/xlink">
<g id="graph0" class="graph" transform="scale(1 1) rotate(0) translate(4 232)">
<title>include/Thoth/Http/Methods/_base/MethodConcept.hpp</title>
<!-- Node1 -->
<g id="Node000001" class="node">
<title>Node1</title>
<g id="a_Node000001"><a xlink:title=" ">
<polygon fill="#999999" stroke="#666666" points="845,-228 651,-228 651,-198 845,-198 845,-228"/>
<text text-anchor="start" x="659" y="-216" font-family="Helvetica,sans-Serif" font-size="10.00">include/Thoth/Http</text>
<text text-anchor="middle" x="748" y="-205" font-family="Helvetica,sans-Serif" font-size="10.00">/Methods/_base/MethodConcept.hpp</text>
</a>
</g>
</g>
<!-- Node2 -->
<g id="Node000002" class="node">
<title>Node2</title>
<g id="a_Node000002"><a xlink:href="_connect_method_8hpp.html" target="_top" xlink:title=" ">
<polygon fill="white" stroke="#666666" points="162,-162 0,-162 0,-132 162,-132 162,-162"/>
<text text-anchor="start" x="8" y="-150" font-family="Helvetica,sans-Serif" font-size="10.00">include/Thoth/Http</text>
<text text-anchor="middle" x="81" y="-139" font-family="Helvetica,sans-Serif" font-size="10.00">/Methods/ConnectMethod.hpp</text>
</a>
</g>
</g>
<!-- Node1&#45;&gt;Node2 -->
<g id="edge1_Node000001_Node000002" class="edge">
<title>Node1&#45;&gt;Node2</title>
<g id="a_edge1_Node000001_Node000002"><a xlink:title=" ">
<path fill="none" stroke="#63b8ff" d="M640.5,-204.88C524.45,-196.67 334.27,-181.75 171,-162 168.17,-161.66 165.3,-161.3 162.4,-160.92"/>
<polygon fill="#63b8ff" stroke="#63b8ff" points="640.58,-208.39 650.81,-205.6 641.08,-201.41 640.58,-208.39"/>
</a>
</g>
</g>
<!-- Node3 -->
<g id="Node000003" class="node">
<title>Node3</title>
<g id="a_Node000003"><a xlink:href="_delete_method_8hpp.html" target="_top" xlink:title=" ">
<polygon fill="white" stroke="#666666" points="335.5,-162 180.5,-162 180.5,-132 335.5,-132 335.5,-162"/>
<text text-anchor="start" x="188.5" y="-150" font-family="Helvetica,sans-Serif" font-size="10.00">include/Thoth/Http</text>
<text text-anchor="middle" x="258" y="-139" font-family="Helvetica,sans-Serif" font-size="10.00">/Methods/DeleteMethod.hpp</text>
</a>
</g>
</g>
<!-- Node1&#45;&gt;Node3 -->
<g id="edge2_Node000001_Node000003" class="edge">
<title>Node1&#45;&gt;Node3</title>
<g id="a_edge2_Node000001_Node000003"><a xlink:title=" ">
<path fill="none" stroke="#63b8ff" d="M640.73,-199.76C559.45,-190.22 445.07,-176.25 345,-162 341.97,-161.57 338.88,-161.12 335.77,-160.66"/>
<polygon fill="#63b8ff" stroke="#63b8ff" points="640.63,-203.27 650.97,-200.96 641.44,-196.32 640.63,-203.27"/>
</a>
</g>
</g>
<!-- Node4 -->
<g id="Node000004" class="node">
<title>Node4</title>
<g id="a_Node000004"><a xlink:href="_get_method_8hpp.html" target="_top" xlink:title=" ">
<polygon fill="white" stroke="#666666" points="494,-162 354,-162 354,-132 494,-132 494,-162"/>
<text text-anchor="start" x="362" y="-150" font-family="Helvetica,sans-Serif" font-size="10.00">include/Thoth/Http</text>
<text text-anchor="middle" x="424" y="-139" font-family="Helvetica,sans-Serif" font-size="10.00">/Methods/GetMethod.hpp</text>
</a>
</g>
</g>
<!-- Node1&#45;&gt;Node4 -->
<g id="edge3_Node000001_Node000004" class="edge">
<title>Node1&#45;&gt;Node4</title>
<g id="a_edge3_Node000001_Node000004"><a xlink:title=" ">
<path fill="none" stroke="#63b8ff" d="M666.82,-195.96C613.66,-185.46 544.88,-171.88 494.1,-161.85"/>
<polygon fill="#63b8ff" stroke="#63b8ff" points="666.41,-199.45 676.9,-197.95 667.76,-192.58 666.41,-199.45"/>
</a>
</g>
</g>
<!-- Node8 -->
<g id="Node000008" class="node">
<title>Node8</title>
<g id="a_Node000008"><a xlink:href="_head_method_8hpp.html" target="_top" xlink:title=" ">
<polygon fill="white" stroke="#666666" points="822,-162 674,-162 674,-132 822,-132 822,-162"/>
<text text-anchor="start" x="682" y="-150" font-family="Helvetica,sans-Serif" font-size="10.00">include/Thoth/Http</text>
<text text-anchor="middle" x="748" y="-139" font-family="Helvetica,sans-Serif" font-size="10.00">/Methods/HeadMethod.hpp</text>
</a>
</g>
</g>
<!-- Node1&#45;&gt;Node8 -->
<g id="edge8_Node000001_Node000008" class="edge">
<title>Node1&#45;&gt;Node8</title>
<g id="a_edge8_Node000001_Node000008"><a xlink:title=" ">
<path fill="none" stroke="#63b8ff" d="M748,-187.54C748,-178.96 748,-169.61 748,-162.16"/>
<polygon fill="#63b8ff" stroke="#63b8ff" points="744.5,-187.8 748,-197.8 751.5,-187.8 744.5,-187.8"/>
</a>
</g>
</g>
<!-- Node9 -->
<g id="Node000009" class="node">
<title>Node9</title>
<g id="a_Node000009"><a xlink:href="_options_method_8hpp.html" target="_top" xlink:title=" ">
<polygon fill="white" stroke="#666666" points="1000,-162 840,-162 840,-132 1000,-132 1000,-162"/>
<text text-anchor="start" x="848" y="-150" font-family="Helvetica,sans-Serif" font-size="10.00">include/Thoth/Http</text>
<text text-anchor="middle" x="920" y="-139" font-family="Helvetica,sans-Serif" font-size="10.00">/Methods/OptionsMethod.hpp</text>
</a>
</g>
</g>
<!-- Node1&#45;&gt;Node9 -->
<g id="edge9_Node000001_Node000009" class="edge">
<title>Node1&#45;&gt;Node9</title>
<g id="a_edge9_Node000001_Node000009"><a xlink:title=" ">
<path fill="none" stroke="#63b8ff" d="M795.15,-194.46C822.59,-184.25 856.71,-171.55 882.34,-162.01"/>
<polygon fill="#63b8ff" stroke="#63b8ff" points="793.9,-191.19 785.75,-197.95 796.34,-197.75 793.9,-191.19"/>
</a>
</g>
</g>
<!-- Node10 -->
<g id="Node000010" class="node">
<title>Node10</title>
<g id="a_Node000010"><a xlink:href="_patch_method_8hpp.html" target="_top" xlink:title=" ">
<polygon fill="white" stroke="#666666" points="1167.5,-162 1018.5,-162 1018.5,-132 1167.5,-132 1167.5,-162"/>
<text text-anchor="start" x="1026.5" y="-150" font-family="Helvetica,sans-Serif" font-size="10.00">include/Thoth/Http</text>
<text text-anchor="middle" x="1093" y="-139" font-family="Helvetica,sans-Serif" font-size="10.00">/Methods/PatchMethod.hpp</text>
</a>
</g>
</g>
<!-- Node1&#45;&gt;Node10 -->
<g id="edge10_Node000001_Node000010" class="edge">
<title>Node1&#45;&gt;Node10</title>
<g id="a_edge10_Node000001_Node000010"><a xlink:title=" ">
<path fill="none" stroke="#63b8ff" d="M833.74,-196.1C890.44,-185.58 964.06,-171.92 1018.36,-161.85"/>
<polygon fill="#63b8ff" stroke="#63b8ff" points="832.91,-192.69 823.71,-197.95 834.18,-199.57 832.91,-192.69"/>
</a>
</g>
</g>
<!-- Node11 -->
<g id="Node000011" class="node">
<title>Node11</title>
<g id="a_Node000011"><a xlink:href="_post_method_8hpp.html" target="_top" xlink:title=" ">
<polygon fill="white" stroke="#666666" points="655.5,-162 512.5,-162 512.5,-132 655.5,-132 655.5,-162"/>
<text text-anchor="start" x="520.5" y="-150" font-family="Helvetica,sans-Serif" font-size="10.00">include/Thoth/Http</text>
<text text-anchor="middle" x="584" y="-139" font-family="Helvetica,sans-Serif" font-size="10.00">/Methods/PostMethod.hpp</text>
</a>
</g>
</g>
<!-- Node1&#45;&gt;Node11 -->
<g id="edge11_Node000001_Node000011" class="edge">
<title>Node1&#45;&gt;Node11</title>
<g id="a_edge11_Node000001_Node000011"><a xlink:title=" ">
<path fill="none" stroke="#63b8ff" d="M702.36,-194.19C676.31,-184.02 644.13,-171.47 619.91,-162.01"/>
<polygon fill="#63b8ff" stroke="#63b8ff" points="701.42,-197.58 712.01,-197.95 703.97,-191.06 701.42,-197.58"/>
</a>
</g>
</g>
<!-- Node12 -->
<g id="Node000012" class="node">
<title>Node12</title>
<g id="a_Node000012"><a xlink:href="_put_method_8hpp.html" target="_top" xlink:title=" ">
<polygon fill="white" stroke="#666666" points="1324,-162 1186,-162 1186,-132 1324,-132 1324,-162"/>
<text text-anchor="start" x="1194" y="-150" font-family="Helvetica,sans-Serif" font-size="10.00">include/Thoth/Http</text>
<text text-anchor="middle" x="1255" y="-139" font-family="Helvetica,sans-Serif" font-size="10.00">/Methods/PutMethod.hpp</text>
</a>
</g>
</g>
<!-- Node1&#45;&gt;Node12 -->
<g id="edge14_Node000001_Node000012" class="edge">
<title>Node1&#45;&gt;Node12</title>
<g id="a_edge14_Node000001_Node000012"><a xlink:title=" ">
<path fill="none" stroke="#63b8ff" d="M855.48,-201.33C942.4,-192.25 1067.83,-178.14 1177,-162 1179.86,-161.58 1182.77,-161.13 1185.71,-160.66"/>
<polygon fill="#63b8ff" stroke="#63b8ff" points="854.93,-197.87 845.34,-202.38 855.65,-204.83 854.93,-197.87"/>
</a>
</g>
</g>
<!-- Node13 -->
<g id="Node000013" class="node">
<title>Node13</title>
<g id="a_Node000013"><a xlink:href="_trace_method_8hpp.html" target="_top" xlink:title=" ">
<polygon fill="white" stroke="#666666" points="1490,-162 1342,-162 1342,-132 1490,-132 1490,-162"/>
<text text-anchor="start" x="1350" y="-150" font-family="Helvetica,sans-Serif" font-size="10.00">include/Thoth/Http</text>
<text text-anchor="middle" x="1416" y="-139" font-family="Helvetica,sans-Serif" font-size="10.00">/Methods/TraceMethod.hpp</text>
</a>
</g>
</g>
<!-- Node1&#45;&gt;Node13 -->
<g id="edge15_Node000001_Node000013" class="edge">
<title>Node1&#45;&gt;Node13</title>
<g id="a_edge15_Node000001_Node000013"><a xlink:title=" ">
<path fill="none" stroke="#63b8ff" d="M855.12,-205.48C972.64,-197.72 1166.7,-183.1 1333,-162 1335.9,-161.63 1338.85,-161.24 1341.83,-160.82"/>
<polygon fill="#63b8ff" stroke="#63b8ff" points="854.79,-202 845.04,-206.15 855.25,-208.98 854.79,-202"/>
</a>
</g>
</g>
<!-- Node5 -->
<g id="Node000005" class="node">
<title>Node5</title>
<g id="a_Node000005"><a xlink:href="_request_8hpp.html" target="_top" xlink:title=" ">
<polygon fill="white" stroke="#666666" points="565.5,-96 442.5,-96 442.5,-66 565.5,-66 565.5,-96"/>
<text text-anchor="start" x="450.5" y="-84" font-family="Helvetica,sans-Serif" font-size="10.00">include/Thoth/Http</text>
<text text-anchor="middle" x="504" y="-73" font-family="Helvetica,sans-Serif" font-size="10.00">/Request/Request.hpp</text>
</a>
</g>
</g>
<!-- Node4&#45;&gt;Node5 -->
<g id="edge4_Node000004_Node000005" class="edge">
<title>Node4&#45;&gt;Node5</title>
<g id="a_edge4_Node000004_Node000005"><a xlink:title=" ">
<path fill="none" stroke="#63b8ff" d="M449.65,-125.48C461.61,-115.91 475.53,-104.77 486.3,-96.16"/>
<polygon fill="#63b8ff" stroke="#63b8ff" points="447.38,-122.82 441.75,-131.8 451.75,-128.28 447.38,-122.82"/>
</a>
</g>
</g>
<!-- Node7 -->
<g id="Node000007" class="node">
<title>Node7</title>
<g id="a_Node000007"><a xlink:href="_response_8hpp.html" target="_top" xlink:title=" ">
<polygon fill="white" stroke="#666666" points="528,-30 390,-30 390,0 528,0 528,-30"/>
<text text-anchor="start" x="398" y="-18" font-family="Helvetica,sans-Serif" font-size="10.00">include/Thoth/Http</text>
<text text-anchor="middle" x="459" y="-7" font-family="Helvetica,sans-Serif" font-size="10.00">/Response/Response.hpp</text>
</a>
</g>
</g>
<!-- Node4&#45;&gt;Node7 -->
<g id="edge7_Node000004_Node000007" class="edge">
<title>Node4&#45;&gt;Node7</title>
<g id="a_edge7_Node000004_Node000007"><a xlink:title=" ">
<path fill="none" stroke="#63b8ff" d="M424.43,-121.62C425.28,-105.53 427.47,-84.14 433,-66 436.88,-53.27 443.97,-39.96 449.77,-30.27"/>
<polygon fill="#63b8ff" stroke="#63b8ff" points="420.93,-121.68 424.04,-131.81 427.92,-121.95 420.93,-121.68"/>
</a>
</g>
</g>
<!-- Node6 -->
<g id="Node000006" class="node">
<title>Node6</title>
<g id="a_Node000006"><a xlink:href="_client_8hpp.html" target="_top" xlink:title=" ">
<polygon fill="white" stroke="#666666" points="653.5,-30 546.5,-30 546.5,0 653.5,0 653.5,-30"/>
<text text-anchor="start" x="554.5" y="-18" font-family="Helvetica,sans-Serif" font-size="10.00">include/Thoth/Http</text>
<text text-anchor="middle" x="600" y="-7" font-family="Helvetica,sans-Serif" font-size="10.00">/Client.hpp</text>
</a>
</g>
</g>
<!-- Node5&#45;&gt;Node6 -->
<g id="edge5_Node000005_Node000006" class="edge">
<title>Node5&#45;&gt;Node6</title>
<g id="a_edge5_Node000005_Node000006"><a xlink:title=" ">
<path fill="none" stroke="#63b8ff" d="M533.96,-60.03C548.49,-50.34 565.59,-38.94 578.75,-30.16"/>
<polygon fill="#63b8ff" stroke="#63b8ff" points="531.68,-57.34 525.31,-65.8 535.57,-63.16 531.68,-57.34"/>
</a>
</g>
</g>
<!-- Node5&#45;&gt;Node7 -->
<g id="edge6_Node000005_Node000007" class="edge">
<title>Node5&#45;&gt;Node7</title>
<g id="a_edge6_Node000005_Node000007"><a xlink:title=" ">
<path fill="none" stroke="#63b8ff" d="M488.2,-57.53C481.8,-48.43 474.61,-38.19 468.96,-30.16"/>
<polygon fill="#63b8ff" stroke="#63b8ff" points="485.4,-59.63 494.01,-65.8 491.12,-55.6 485.4,-59.63"/>
</a>
</g>
</g>
<!-- Node11&#45;&gt;Node5 -->
<g id="edge12_Node000011_Node000005" class="edge">
<title>Node11&#45;&gt;Node5</title>
<g id="a_edge12_Node000011_Node000005"><a xlink:title=" ">
<path fill="none" stroke="#63b8ff" d="M558.35,-125.48C546.39,-115.91 532.47,-104.77 521.7,-96.16"/>
<polygon fill="#63b8ff" stroke="#63b8ff" points="556.25,-128.28 566.25,-131.8 560.62,-122.82 556.25,-128.28"/>
</a>
</g>
</g>
<!-- Node11&#45;&gt;Node7 -->
<g id="edge13_Node000011_Node000007" class="edge">
<title>Node11&#45;&gt;Node7</title>
<g id="a_edge13_Node000011_Node000007"><a xlink:title=" ">
<path fill="none" stroke="#63b8ff" d="M587.3,-121.39C588.26,-104.26 586.68,-81.75 575,-66 562.27,-48.82 542.41,-37.48 522.69,-30.01"/>
<polygon fill="#63b8ff" stroke="#63b8ff" points="583.78,-121.48 586.39,-131.75 590.75,-122.09 583.78,-121.48"/>
</a>
</g>
</g>
</g>
</svg>
