<?xml version="1.0" encoding="UTF-8" standalone="no"?>
<!DOCTYPE svg PUBLIC "-//W3C//DTD SVG 1.1//EN"
 "http://www.w3.org/Graphics/SVG/1.1/DTD/svg11.dtd">
<!-- Generated by graphviz version 2.43.0 (0)
 -->
<!-- Title: include/Thoth/Http/NHeaders/Headers/MimeType.hpp Pages: 1 -->
<svg width="1760pt" height="577pt"
 viewBox="0.00 0.00 1760.00 577.00" xmlns="http://www.w3.org/2000/svg" xmlns:xlink="http://www.w3.org/1999/xlink">
<g id="graph0" class="graph" transform="scale(1 1) rotate(0) translate(4 573)">
<title>include/Thoth/Http/NHeaders/Headers/MimeType.hpp</title>
<!-- Node1 -->
<g id="Node000001" class="node">
<title>Node1</title>
<g id="a_Node000001"><a xlink:title=" ">
<polygon fill="#999999" stroke="#666666" points="1437.5,-569 1252.5,-569 1252.5,-539 1437.5,-539 1437.5,-569"/>
<text text-anchor="start" x="1260.5" y="-557" font-family="Helvetica,sans-Serif" font-size="10.00">include/Thoth/Http</text>
<text text-anchor="middle" x="1345" y="-546" font-family="Helvetica,sans-Serif" font-size="10.00">/NHeaders/Headers/MimeType.hpp</text>
</a>
</g>
</g>
<!-- Node2 -->
<g id="Node000002" class="node">
<title>Node2</title>
<g id="a_Node000002"><a xlink:href="_headers_2__pch_8hpp.html" target="_top" xlink:title=" ">
<polygon fill="white" stroke="#666666" points="1424,-503 1266,-503 1266,-473 1424,-473 1424,-503"/>
<text text-anchor="start" x="1274" y="-491" font-family="Helvetica,sans-Serif" font-size="10.00">include/Thoth/Http</text>
<text text-anchor="middle" x="1345" y="-480" font-family="Helvetica,sans-Serif" font-size="10.00">/NHeaders/Headers/_pch.hpp</text>
</a>
</g>
</g>
<!-- Node1&#45;&gt;Node2 -->
<g id="edge1_Node000001_Node000002" class="edge">
<title>Node1&#45;&gt;Node2</title>
<g id="a_edge1_Node000001_Node000002"><a xlink:title=" ">
<path fill="none" stroke="#63b8ff" d="M1345,-528.54C1345,-519.96 1345,-510.61 1345,-503.16"/>
<polygon fill="#63b8ff" stroke="#63b8ff" points="1341.5,-528.8 1345,-538.8 1348.5,-528.8 1341.5,-528.8"/>
</a>
</g>
</g>
<!-- Node3 -->
<g id="Node000003" class="node">
<title>Node3</title>
<g id="a_Node000003"><a xlink:href="_headers_8hpp.html" target="_top" xlink:title=" ">
<polygon fill="white" stroke="#666666" points="1411,-437 1279,-437 1279,-407 1411,-407 1411,-437"/>
<text text-anchor="start" x="1287" y="-425" font-family="Helvetica,sans-Serif" font-size="10.00">include/Thoth/Http</text>
<text text-anchor="middle" x="1345" y="-414" font-family="Helvetica,sans-Serif" font-size="10.00">/NHeaders/Headers.hpp</text>
</a>
</g>
</g>
<!-- Node2&#45;&gt;Node3 -->
<g id="edge2_Node000002_Node000003" class="edge">
<title>Node2&#45;&gt;Node3</title>
<g id="a_edge2_Node000002_Node000003"><a xlink:title=" ">
<path fill="none" stroke="#63b8ff" d="M1345,-462.54C1345,-453.96 1345,-444.61 1345,-437.16"/>
<polygon fill="#63b8ff" stroke="#63b8ff" points="1341.5,-462.8 1345,-472.8 1348.5,-462.8 1341.5,-462.8"/>
</a>
</g>
</g>
<!-- Node4 -->
<g id="Node000004" class="node">
<title>Node4</title>
<g id="a_Node000004"><a xlink:href="_method_concept_8hpp.html" target="_top" xlink:title=" ">
<polygon fill="white" stroke="#666666" points="893,-371 699,-371 699,-341 893,-341 893,-371"/>
<text text-anchor="start" x="707" y="-359" font-family="Helvetica,sans-Serif" font-size="10.00">include/Thoth/Http</text>
<text text-anchor="middle" x="796" y="-348" font-family="Helvetica,sans-Serif" font-size="10.00">/Methods/_base/MethodConcept.hpp</text>
</a>
</g>
</g>
<!-- Node3&#45;&gt;Node4 -->
<g id="edge3_Node000003_Node000004" class="edge">
<title>Node3&#45;&gt;Node4</title>
<g id="a_edge3_Node000003_Node000004"><a xlink:title=" ">
<path fill="none" stroke="#63b8ff" d="M1268.65,-412.1C1170.7,-400.68 1000.66,-380.86 893.46,-368.36"/>
<polygon fill="#63b8ff" stroke="#63b8ff" points="1268.44,-415.6 1278.78,-413.28 1269.25,-408.65 1268.44,-415.6"/>
</a>
</g>
</g>
<!-- Node10 -->
<g id="Node000010" class="node">
<title>Node10</title>
<g id="a_Node000010"><a xlink:href="_response_head_8hpp.html" target="_top" xlink:title=" ">
<polygon fill="white" stroke="#666666" points="1638,-162 1474,-162 1474,-132 1638,-132 1638,-162"/>
<text text-anchor="start" x="1482" y="-150" font-family="Helvetica,sans-Serif" font-size="10.00">include/Thoth/Http</text>
<text text-anchor="middle" x="1556" y="-139" font-family="Helvetica,sans-Serif" font-size="10.00">/Response/ResponseHead.hpp</text>
</a>
</g>
</g>
<!-- Node3&#45;&gt;Node10 -->
<g id="edge27_Node000003_Node000010" class="edge">
<title>Node3&#45;&gt;Node10</title>
<g id="a_edge27_Node000003_Node000010"><a xlink:title=" ">
<path fill="none" stroke="#63b8ff" d="M1421.27,-410.28C1468.05,-402.05 1521.82,-389.01 1537,-371 1589.1,-309.21 1569.08,-200.61 1559.74,-162.06"/>
<polygon fill="#63b8ff" stroke="#63b8ff" points="1420.67,-406.84 1411.41,-411.97 1421.85,-413.73 1420.67,-406.84"/>
</a>
</g>
</g>
<!-- Node18 -->
<g id="Node000018" class="node">
<title>Node18</title>
<g id="a_Node000018"><a xlink:href="_list_proxy_8hpp.html" target="_top" xlink:title=" ">
<polygon fill="white" stroke="#666666" points="1334,-371 1168,-371 1168,-341 1334,-341 1334,-371"/>
<text text-anchor="start" x="1176" y="-359" font-family="Helvetica,sans-Serif" font-size="10.00">include/Thoth/Http</text>
<text text-anchor="middle" x="1251" y="-348" font-family="Helvetica,sans-Serif" font-size="10.00">/NHeaders/Proxy/ListProxy.hpp</text>
</a>
</g>
</g>
<!-- Node3&#45;&gt;Node18 -->
<g id="edge21_Node000003_Node000018" class="edge">
<title>Node3&#45;&gt;Node18</title>
<g id="a_edge21_Node000003_Node000018"><a xlink:title=" ">
<path fill="none" stroke="#63b8ff" d="M1315.67,-401.03C1301.44,-391.34 1284.69,-379.94 1271.8,-371.16"/>
<polygon fill="#63b8ff" stroke="#63b8ff" points="1313.9,-404.06 1324.14,-406.8 1317.84,-398.28 1313.9,-404.06"/>
</a>
</g>
</g>
<!-- Node19 -->
<g id="Node000019" class="node">
<title>Node19</title>
<g id="a_Node000019"><a xlink:href="_value_proxy_8hpp.html" target="_top" xlink:title=" ">
<polygon fill="white" stroke="#666666" points="1528,-371 1352,-371 1352,-341 1528,-341 1528,-371"/>
<text text-anchor="start" x="1360" y="-359" font-family="Helvetica,sans-Serif" font-size="10.00">include/Thoth/Http</text>
<text text-anchor="middle" x="1440" y="-348" font-family="Helvetica,sans-Serif" font-size="10.00">/NHeaders/Proxy/ValueProxy.hpp</text>
</a>
</g>
</g>
<!-- Node3&#45;&gt;Node19 -->
<g id="edge22_Node000003_Node000019" class="edge">
<title>Node3&#45;&gt;Node19</title>
<g id="a_edge22_Node000003_Node000019"><a xlink:title=" ">
<path fill="none" stroke="#63b8ff" d="M1374.65,-401.03C1389.02,-391.34 1405.95,-379.94 1418.98,-371.16"/>
<polygon fill="#63b8ff" stroke="#63b8ff" points="1372.42,-398.31 1366.08,-406.8 1376.33,-404.11 1372.42,-398.31"/>
</a>
</g>
</g>
<!-- Node20 -->
<g id="Node000020" class="node">
<title>Node20</title>
<g id="a_Node000020"><a xlink:href="_request_headers_8hpp.html" target="_top" xlink:title=" ">
<polygon fill="white" stroke="#666666" points="1149.5,-371 934.5,-371 934.5,-341 1149.5,-341 1149.5,-371"/>
<text text-anchor="start" x="942.5" y="-359" font-family="Helvetica,sans-Serif" font-size="10.00">include/Thoth/Http</text>
<text text-anchor="middle" x="1042" y="-348" font-family="Helvetica,sans-Serif" font-size="10.00">/NHeaders/Request/RequestHeaders.hpp</text>
</a>
</g>
</g>
<!-- Node3&#45;&gt;Node20 -->
<g id="edge23_Node000003_Node000020" class="edge">
<title>Node3&#45;&gt;Node20</title>
<g id="a_edge23_Node000003_Node000020"><a xlink:title=" ">
<path fill="none" stroke="#63b8ff" d="M1268.89,-404.92C1219.53,-394.5 1155.83,-381.04 1108.5,-371.05"/>
<polygon fill="#63b8ff" stroke="#63b8ff" points="1268.37,-408.39 1278.88,-407.03 1269.82,-401.54 1268.37,-408.39"/>
</a>
</g>
</g>
<!-- Node21 -->
<g id="Node000021" class="node">
<title>Node21</title>
<g id="a_Node000021"><a xlink:href="_response_headers_8hpp.html" target="_top" xlink:title=" ">
<polygon fill="white" stroke="#666666" points="1752,-239 1584,-239 1584,-198 1752,-198 1752,-239"/>
<text text-anchor="start" x="1592" y="-227" font-family="Helvetica,sans-Serif" font-size="10.00">include/Thoth/Http</text>
<text text-anchor="start" x="1592" y="-216" font-family="Helvetica,sans-Serif" font-size="10.00">/NHeaders/Response/Response</text>
<text text-anchor="middle" x="1668" y="-205" font-family="Helvetica,sans-Serif" font-size="10.00">Headers.hpp</text>
</a>
</g>
</g>
<!-- Node3&#45;&gt;Node21 -->
<g id="edge25_Node000003_Node000021" class="edge">
<title>Node3&#45;&gt;Node21</title>
<g id="a_edge25_Node000003_Node000021"><a xlink:title=" ">
<path fill="none" stroke="#63b8ff" d="M1421.15,-418.46C1467.7,-413.61 1526.46,-401.28 1570,-371 1618.22,-337.47 1648.38,-271.78 1661.06,-239.03"/>
<polygon fill="#63b8ff" stroke="#63b8ff" points="1420.74,-414.98 1411.11,-419.41 1421.4,-421.95 1420.74,-414.98"/>
</a>
</g>
</g>
<!-- Node5 -->
<g id="Node000005" class="node">
<title>Node5</title>
<g id="a_Node000005"><a xlink:href="_connect_method_8hpp.html" target="_top" xlink:title=" ">
<polygon fill="white" stroke="#666666" points="162,-305 0,-305 0,-275 162,-275 162,-305"/>
<text text-anchor="start" x="8" y="-293" font-family="Helvetica,sans-Serif" font-size="10.00">include/Thoth/Http</text>
<text text-anchor="middle" x="81" y="-282" font-family="Helvetica,sans-Serif" font-size="10.00">/Methods/ConnectMethod.hpp</text>
</a>
</g>
</g>
<!-- Node4&#45;&gt;Node5 -->
<g id="edge4_Node000004_Node000005" class="edge">
<title>Node4&#45;&gt;Node5</title>
<g id="a_edge4_Node000004_Node000005"><a xlink:title=" ">
<path fill="none" stroke="#63b8ff" d="M688.57,-348.85C563.87,-341.14 352.12,-326.3 171,-305 168.17,-304.67 165.3,-304.31 162.4,-303.94"/>
<polygon fill="#63b8ff" stroke="#63b8ff" points="688.69,-352.36 698.88,-349.48 689.12,-345.37 688.69,-352.36"/>
</a>
</g>
</g>
<!-- Node6 -->
<g id="Node000006" class="node">
<title>Node6</title>
<g id="a_Node000006"><a xlink:href="_delete_method_8hpp.html" target="_top" xlink:title=" ">
<polygon fill="white" stroke="#666666" points="335.5,-305 180.5,-305 180.5,-275 335.5,-275 335.5,-305"/>
<text text-anchor="start" x="188.5" y="-293" font-family="Helvetica,sans-Serif" font-size="10.00">include/Thoth/Http</text>
<text text-anchor="middle" x="258" y="-282" font-family="Helvetica,sans-Serif" font-size="10.00">/Methods/DeleteMethod.hpp</text>
</a>
</g>
</g>
<!-- Node4&#45;&gt;Node6 -->
<g id="edge5_Node000004_Node000006" class="edge">
<title>Node4&#45;&gt;Node6</title>
<g id="a_edge5_Node000004_Node000006"><a xlink:title=" ">
<path fill="none" stroke="#63b8ff" d="M688.51,-344.58C597.03,-335.36 462.19,-320.92 345,-305 341.97,-304.59 338.88,-304.16 335.76,-303.71"/>
<polygon fill="#63b8ff" stroke="#63b8ff" points="688.32,-348.08 698.62,-345.6 689.02,-341.12 688.32,-348.08"/>
</a>
</g>
</g>
<!-- Node7 -->
<g id="Node000007" class="node">
<title>Node7</title>
<g id="a_Node000007"><a xlink:href="_get_method_8hpp.html" target="_top" xlink:title=" ">
<polygon fill="white" stroke="#666666" points="1490,-305 1350,-305 1350,-275 1490,-275 1490,-305"/>
<text text-anchor="start" x="1358" y="-293" font-family="Helvetica,sans-Serif" font-size="10.00">include/Thoth/Http</text>
<text text-anchor="middle" x="1420" y="-282" font-family="Helvetica,sans-Serif" font-size="10.00">/Methods/GetMethod.hpp</text>
</a>
</g>
</g>
<!-- Node4&#45;&gt;Node7 -->
<g id="edge6_Node000004_Node000007" class="edge">
<title>Node4&#45;&gt;Node7</title>
<g id="a_edge6_Node000004_Node000007"><a xlink:title=" ">
<path fill="none" stroke="#63b8ff" d="M903.24,-343.18C910.6,-342.43 917.91,-341.69 925,-341 1109.26,-323.01 1156.42,-328.98 1340,-305 1343.22,-304.58 1346.5,-304.12 1349.81,-303.64"/>
<polygon fill="#63b8ff" stroke="#63b8ff" points="902.77,-339.71 893.18,-344.23 903.49,-346.68 902.77,-339.71"/>
</a>
</g>
</g>
<!-- Node12 -->
<g id="Node000012" class="node">
<title>Node12</title>
<g id="a_Node000012"><a xlink:href="_head_method_8hpp.html" target="_top" xlink:title=" ">
<polygon fill="white" stroke="#666666" points="502,-305 354,-305 354,-275 502,-275 502,-305"/>
<text text-anchor="start" x="362" y="-293" font-family="Helvetica,sans-Serif" font-size="10.00">include/Thoth/Http</text>
<text text-anchor="middle" x="428" y="-282" font-family="Helvetica,sans-Serif" font-size="10.00">/Methods/HeadMethod.hpp</text>
</a>
</g>
</g>
<!-- Node4&#45;&gt;Node12 -->
<g id="edge13_Node000004_Node000012" class="edge">
<title>Node4&#45;&gt;Node12</title>
<g id="a_edge13_Node000004_Node000012"><a xlink:title=" ">
<path fill="none" stroke="#63b8ff" d="M705.37,-339.24C642.8,-328.36 560.63,-314.07 502,-303.87"/>
<polygon fill="#63b8ff" stroke="#63b8ff" points="704.79,-342.69 715.24,-340.95 705.99,-335.79 704.79,-342.69"/>
</a>
</g>
</g>
<!-- Node13 -->
<g id="Node000013" class="node">
<title>Node13</title>
<g id="a_Node000013"><a xlink:href="_options_method_8hpp.html" target="_top" xlink:title=" ">
<polygon fill="white" stroke="#666666" points="680,-305 520,-305 520,-275 680,-275 680,-305"/>
<text text-anchor="start" x="528" y="-293" font-family="Helvetica,sans-Serif" font-size="10.00">include/Thoth/Http</text>
<text text-anchor="middle" x="600" y="-282" font-family="Helvetica,sans-Serif" font-size="10.00">/Methods/OptionsMethod.hpp</text>
</a>
</g>
</g>
<!-- Node4&#45;&gt;Node13 -->
<g id="edge14_Node000004_Node000013" class="edge">
<title>Node4&#45;&gt;Node13</title>
<g id="a_edge14_Node000004_Node000013"><a xlink:title=" ">
<path fill="none" stroke="#63b8ff" d="M743.09,-337.72C711.68,-327.47 672.38,-314.63 642.91,-305.01"/>
<polygon fill="#63b8ff" stroke="#63b8ff" points="742.39,-341.18 752.99,-340.95 744.57,-334.52 742.39,-341.18"/>
</a>
</g>
</g>
<!-- Node14 -->
<g id="Node000014" class="node">
<title>Node14</title>
<g id="a_Node000014"><a xlink:href="_patch_method_8hpp.html" target="_top" xlink:title=" ">
<polygon fill="white" stroke="#666666" points="847.5,-305 698.5,-305 698.5,-275 847.5,-275 847.5,-305"/>
<text text-anchor="start" x="706.5" y="-293" font-family="Helvetica,sans-Serif" font-size="10.00">include/Thoth/Http</text>
<text text-anchor="middle" x="773" y="-282" font-family="Helvetica,sans-Serif" font-size="10.00">/Methods/PatchMethod.hpp</text>
</a>
</g>
</g>
<!-- Node4&#45;&gt;Node14 -->
<g id="edge15_Node000004_Node000014" class="edge">
<title>Node4&#45;&gt;Node14</title>
<g id="a_edge15_Node000004_Node000014"><a xlink:title=" ">
<path fill="none" stroke="#63b8ff" d="M787.41,-331.11C784.28,-322.38 780.83,-312.78 778.09,-305.16"/>
<polygon fill="#63b8ff" stroke="#63b8ff" points="784.22,-332.57 790.9,-340.8 790.81,-330.2 784.22,-332.57"/>
</a>
</g>
</g>
<!-- Node15 -->
<g id="Node000015" class="node">
<title>Node15</title>
<g id="a_Node000015"><a xlink:href="_post_method_8hpp.html" target="_top" xlink:title=" ">
<polygon fill="white" stroke="#666666" points="1331.5,-305 1188.5,-305 1188.5,-275 1331.5,-275 1331.5,-305"/>
<text text-anchor="start" x="1196.5" y="-293" font-family="Helvetica,sans-Serif" font-size="10.00">include/Thoth/Http</text>
<text text-anchor="middle" x="1260" y="-282" font-family="Helvetica,sans-Serif" font-size="10.00">/Methods/PostMethod.hpp</text>
</a>
</g>
</g>
<!-- Node4&#45;&gt;Node15 -->
<g id="edge16_Node000004_Node000015" class="edge">
<title>Node4&#45;&gt;Node15</title>
<g id="a_edge16_Node000004_Node000015"><a xlink:title=" ">
<path fill="none" stroke="#63b8ff" d="M903.53,-342.17C980.39,-332.7 1086.2,-319.07 1179,-305 1182.1,-304.53 1185.27,-304.04 1188.47,-303.53"/>
<polygon fill="#63b8ff" stroke="#63b8ff" points="902.86,-338.72 893.36,-343.42 903.71,-345.67 902.86,-338.72"/>
</a>
</g>
</g>
<!-- Node16 -->
<g id="Node000016" class="node">
<title>Node16</title>
<g id="a_Node000016"><a xlink:href="_put_method_8hpp.html" target="_top" xlink:title=" ">
<polygon fill="white" stroke="#666666" points="1004,-305 866,-305 866,-275 1004,-275 1004,-305"/>
<text text-anchor="start" x="874" y="-293" font-family="Helvetica,sans-Serif" font-size="10.00">include/Thoth/Http</text>
<text text-anchor="middle" x="935" y="-282" font-family="Helvetica,sans-Serif" font-size="10.00">/Methods/PutMethod.hpp</text>
</a>
</g>
</g>
<!-- Node4&#45;&gt;Node16 -->
<g id="edge19_Node000004_Node000016" class="edge">
<title>Node4&#45;&gt;Node16</title>
<g id="a_edge19_Node000004_Node000016"><a xlink:title=" ">
<path fill="none" stroke="#63b8ff" d="M835.86,-336.65C857.72,-326.58 884.39,-314.3 904.57,-305.01"/>
<polygon fill="#63b8ff" stroke="#63b8ff" points="834.12,-333.59 826.5,-340.95 837.05,-339.95 834.12,-333.59"/>
</a>
</g>
</g>
<!-- Node17 -->
<g id="Node000017" class="node">
<title>Node17</title>
<g id="a_Node000017"><a xlink:href="_trace_method_8hpp.html" target="_top" xlink:title=" ">
<polygon fill="white" stroke="#666666" points="1170,-305 1022,-305 1022,-275 1170,-275 1170,-305"/>
<text text-anchor="start" x="1030" y="-293" font-family="Helvetica,sans-Serif" font-size="10.00">include/Thoth/Http</text>
<text text-anchor="middle" x="1096" y="-282" font-family="Helvetica,sans-Serif" font-size="10.00">/Methods/TraceMethod.hpp</text>
</a>
</g>
</g>
<!-- Node4&#45;&gt;Node17 -->
<g id="edge20_Node000004_Node000017" class="edge">
<title>Node4&#45;&gt;Node17</title>
<g id="a_edge20_Node000004_Node000017"><a xlink:title=" ">
<path fill="none" stroke="#63b8ff" d="M871.73,-338.84C920.61,-328.42 983.56,-314.99 1030.32,-305.01"/>
<polygon fill="#63b8ff" stroke="#63b8ff" points="870.89,-335.45 861.84,-340.95 872.35,-342.29 870.89,-335.45"/>
</a>
</g>
</g>
<!-- Node8 -->
<g id="Node000008" class="node">
<title>Node8</title>
<g id="a_Node000008"><a xlink:href="_request_8hpp.html" target="_top" xlink:title=" ">
<polygon fill="white" stroke="#666666" points="1417.5,-233.5 1294.5,-233.5 1294.5,-203.5 1417.5,-203.5 1417.5,-233.5"/>
<text text-anchor="start" x="1302.5" y="-221.5" font-family="Helvetica,sans-Serif" font-size="10.00">include/Thoth/Http</text>
<text text-anchor="middle" x="1356" y="-210.5" font-family="Helvetica,sans-Serif" font-size="10.00">/Request/Request.hpp</text>
</a>
</g>
</g>
<!-- Node7&#45;&gt;Node8 -->
<g id="edge7_Node000007_Node000008" class="edge">
<title>Node7&#45;&gt;Node8</title>
<g id="a_edge7_Node000007_Node000008"><a xlink:title=" ">
<path fill="none" stroke="#63b8ff" d="M1400.06,-267.35C1389.91,-256.33 1377.86,-243.24 1368.93,-233.54"/>
<polygon fill="#63b8ff" stroke="#63b8ff" points="1397.7,-269.95 1407.05,-274.94 1402.85,-265.21 1397.7,-269.95"/>
</a>
</g>
</g>
<!-- Node11 -->
<g id="Node000011" class="node">
<title>Node11</title>
<g id="a_Node000011"><a xlink:href="_response_8hpp.html" target="_top" xlink:title=" ">
<polygon fill="white" stroke="#666666" points="1522,-96 1384,-96 1384,-66 1522,-66 1522,-96"/>
<text text-anchor="start" x="1392" y="-84" font-family="Helvetica,sans-Serif" font-size="10.00">include/Thoth/Http</text>
<text text-anchor="middle" x="1453" y="-73" font-family="Helvetica,sans-Serif" font-size="10.00">/Response/Response.hpp</text>
</a>
</g>
</g>
<!-- Node7&#45;&gt;Node11 -->
<g id="edge12_Node000007_Node000011" class="edge">
<title>Node7&#45;&gt;Node11</title>
<g id="a_edge12_Node000007_Node000011"><a xlink:title=" ">
<path fill="none" stroke="#63b8ff" d="M1423.86,-264.76C1430.82,-221.15 1445.22,-130.81 1450.76,-96.05"/>
<polygon fill="#63b8ff" stroke="#63b8ff" points="1420.39,-264.35 1422.27,-274.77 1427.3,-265.45 1420.39,-264.35"/>
</a>
</g>
</g>
<!-- Node9 -->
<g id="Node000009" class="node">
<title>Node9</title>
<g id="a_Node000009"><a xlink:href="_client_8hpp.html" target="_top" xlink:title=" ">
<polygon fill="white" stroke="#666666" points="1457.5,-30 1350.5,-30 1350.5,0 1457.5,0 1457.5,-30"/>
<text text-anchor="start" x="1358.5" y="-18" font-family="Helvetica,sans-Serif" font-size="10.00">include/Thoth/Http</text>
<text text-anchor="middle" x="1404" y="-7" font-family="Helvetica,sans-Serif" font-size="10.00">/Client.hpp</text>
</a>
</g>
</g>
<!-- Node8&#45;&gt;Node9 -->
<g id="edge8_Node000008_Node000009" class="edge">
<title>Node8&#45;&gt;Node9</title>
<g id="a_edge8_Node000008_Node000009"><a xlink:title=" ">
<path fill="none" stroke="#63b8ff" d="M1356.09,-193.17C1356.87,-162.67 1360.44,-109.18 1375,-66 1379.36,-53.07 1387.27,-39.76 1393.73,-30.13"/>
<polygon fill="#63b8ff" stroke="#63b8ff" points="1352.59,-193.24 1355.92,-203.3 1359.59,-193.36 1352.59,-193.24"/>
</a>
</g>
</g>
<!-- Node8&#45;&gt;Node10 -->
<g id="edge9_Node000008_Node000010" class="edge">
<title>Node8&#45;&gt;Node10</title>
<g id="a_edge9_Node000008_Node000010"><a xlink:title=" ">
<path fill="none" stroke="#63b8ff" d="M1406.17,-200.07C1439.99,-188.31 1484.02,-173.01 1515.59,-162.04"/>
<polygon fill="#63b8ff" stroke="#63b8ff" points="1404.77,-196.85 1396.47,-203.44 1407.07,-203.46 1404.77,-196.85"/>
</a>
</g>
</g>
<!-- Node10&#45;&gt;Node11 -->
<g id="edge10_Node000010_Node000011" class="edge">
<title>Node10&#45;&gt;Node11</title>
<g id="a_edge10_Node000010_Node000011"><a xlink:title=" ">
<path fill="none" stroke="#63b8ff" d="M1524.49,-126.42C1508.68,-116.6 1489.9,-104.93 1475.55,-96.01"/>
<polygon fill="#63b8ff" stroke="#63b8ff" points="1523.06,-129.65 1533.4,-131.95 1526.75,-123.7 1523.06,-129.65"/>
</a>
</g>
</g>
<!-- Node11&#45;&gt;Node9 -->
<g id="edge11_Node000011_Node000009" class="edge">
<title>Node11&#45;&gt;Node9</title>
<g id="a_edge11_Node000011_Node000009"><a xlink:title=" ">
<path fill="none" stroke="#63b8ff" d="M1436.01,-57.81C1428.99,-48.64 1421.06,-38.28 1414.84,-30.16"/>
<polygon fill="#63b8ff" stroke="#63b8ff" points="1433.27,-59.98 1442.13,-65.8 1438.83,-55.73 1433.27,-59.98"/>
</a>
</g>
</g>
<!-- Node15&#45;&gt;Node8 -->
<g id="edge17_Node000015_Node000008" class="edge">
<title>Node15&#45;&gt;Node8</title>
<g id="a_edge17_Node000015_Node000008"><a xlink:title=" ">
<path fill="none" stroke="#63b8ff" d="M1287.71,-268.94C1303.37,-257.6 1322.56,-243.71 1336.6,-233.54"/>
<polygon fill="#63b8ff" stroke="#63b8ff" points="1285.47,-266.24 1279.43,-274.94 1289.58,-271.91 1285.47,-266.24"/>
</a>
</g>
</g>
<!-- Node15&#45;&gt;Node11 -->
<g id="edge18_Node000015_Node000011" class="edge">
<title>Node15&#45;&gt;Node11</title>
<g id="a_edge18_Node000015_Node000011"><a xlink:title=" ">
<path fill="none" stroke="#63b8ff" d="M1262.07,-264.83C1264.76,-245.28 1270.92,-217.84 1285,-198 1319.77,-149.01 1382.15,-114.04 1420.33,-96"/>
<polygon fill="#63b8ff" stroke="#63b8ff" points="1258.59,-264.44 1260.91,-274.78 1265.55,-265.26 1258.59,-264.44"/>
</a>
</g>
</g>
<!-- Node20&#45;&gt;Node8 -->
<g id="edge24_Node000020_Node000008" class="edge">
<title>Node20&#45;&gt;Node8</title>
<g id="a_edge24_Node000020_Node000008"><a xlink:title=" ">
<path fill="none" stroke="#63b8ff" d="M1159.85,-341.16C1227.3,-336.27 1475.03,-331.64 1499,-305 1529.28,-271.35 1469.09,-246.89 1417.74,-232.96"/>
<polygon fill="#63b8ff" stroke="#63b8ff" points="1159.39,-337.69 1149.73,-342.05 1160,-344.66 1159.39,-337.69"/>
</a>
</g>
</g>
<!-- Node21&#45;&gt;Node11 -->
<g id="edge26_Node000021_Node000011" class="edge">
<title>Node21&#45;&gt;Node11</title>
<g id="a_edge26_Node000021_Node000011"><a xlink:title=" ">
<path fill="none" stroke="#63b8ff" d="M1668.04,-187.57C1666.46,-169.22 1661.37,-146.54 1647,-132 1629.42,-114.22 1570.42,-100.64 1522.05,-92.16"/>
<polygon fill="#63b8ff" stroke="#63b8ff" points="1664.56,-187.99 1668.61,-197.78 1671.55,-187.6 1664.56,-187.99"/>
</a>
</g>
</g>
</g>
</svg>
