<?xml version="1.0" encoding="UTF-8" standalone="no"?>
<!DOCTYPE svg PUBLIC "-//W3C//DTD SVG 1.1//EN"
 "http://www.w3.org/Graphics/SVG/1.1/DTD/svg11.dtd">
<!-- Generated by graphviz version 2.43.0 (0)
 -->
<!-- Title: include/Thoth/Http/NHeaders/Headers/MimeType.hpp Pages: 1 -->
<svg width="365pt" height="159pt"
 viewBox="0.00 0.00 365.14 159.00" xmlns="http://www.w3.org/2000/svg" xmlns:xlink="http://www.w3.org/1999/xlink">
<g id="graph0" class="graph" transform="scale(1 1) rotate(0) translate(4 155)">
<title>include/Thoth/Http/NHeaders/Headers/MimeType.hpp</title>
<!-- Node1 -->
<g id="Node000001" class="node">
<title>Node1</title>
<g id="a_Node000001"><a xlink:title=" ">
<polygon fill="#999999" stroke="#666666" points="186.64,-151 1.64,-151 1.64,-121 186.64,-121 186.64,-151"/>
<text text-anchor="start" x="9.64" y="-139" font-family="Helvetica,sans-Serif" font-size="10.00">include/Thoth/Http</text>
<text text-anchor="middle" x="94.14" y="-128" font-family="Helvetica,sans-Serif" font-size="10.00">/NHeaders/Headers/MimeType.hpp</text>
</a>
</g>
</g>
<!-- Node2 -->
<g id="Node000002" class="node">
<title>Node2</title>
<g id="a_Node000002"><a xlink:title=" ">
<polygon fill="#e0e0e0" stroke="#999999" points="56.14,-19 12.14,-19 12.14,0 56.14,0 56.14,-19"/>
<text text-anchor="middle" x="34.14" y="-7" font-family="Helvetica,sans-Serif" font-size="10.00">string</text>
</a>
</g>
</g>
<!-- Node1&#45;&gt;Node2 -->
<g id="edge1_Node000001_Node000002" class="edge">
<title>Node1&#45;&gt;Node2</title>
<g id="a_edge1_Node000001_Node000002"><a xlink:title=" ">
<path fill="none" stroke="#63b8ff" d="M48.5,-120.87C31.48,-113.14 13.93,-101.64 4.14,-85 -6.95,-66.14 6.83,-42.41 19.16,-26.86"/>
<polygon fill="#63b8ff" stroke="#63b8ff" points="21.9,-29.04 25.69,-19.15 16.56,-24.52 21.9,-29.04"/>
</a>
</g>
</g>
<!-- Node3 -->
<g id="Node000003" class="node">
<title>Node3</title>
<g id="a_Node000003"><a xlink:title=" ">
<polygon fill="#e0e0e0" stroke="#999999" points="69.14,-79.5 13.14,-79.5 13.14,-60.5 69.14,-60.5 69.14,-79.5"/>
<text text-anchor="middle" x="41.14" y="-67.5" font-family="Helvetica,sans-Serif" font-size="10.00">optional</text>
</a>
</g>
</g>
<!-- Node1&#45;&gt;Node3 -->
<g id="edge2_Node000001_Node000003" class="edge">
<title>Node1&#45;&gt;Node3</title>
<g id="a_edge2_Node000001_Node000003"><a xlink:title=" ">
<path fill="none" stroke="#63b8ff" d="M82.38,-120.8C74.28,-111.01 63.49,-97.98 54.97,-87.7"/>
<polygon fill="#63b8ff" stroke="#63b8ff" points="57.54,-85.31 48.47,-79.84 52.15,-89.78 57.54,-85.31"/>
</a>
</g>
</g>
<!-- Node4 -->
<g id="Node000004" class="node">
<title>Node4</title>
<g id="a_Node000004"><a xlink:href="_http_2_n_headers_2__base_8hpp.html" target="_top" xlink:title=" ">
<polygon fill="white" stroke="#666666" points="206.64,-85 87.64,-85 87.64,-55 206.64,-55 206.64,-85"/>
<text text-anchor="start" x="95.64" y="-73" font-family="Helvetica,sans-Serif" font-size="10.00">Thoth/Http/NHeaders</text>
<text text-anchor="middle" x="147.14" y="-62" font-family="Helvetica,sans-Serif" font-size="10.00">/_base.hpp</text>
</a>
</g>
</g>
<!-- Node1&#45;&gt;Node4 -->
<g id="edge3_Node000001_Node000004" class="edge">
<title>Node1&#45;&gt;Node4</title>
<g id="a_edge3_Node000001_Node000004"><a xlink:title=" ">
<path fill="none" stroke="#63b8ff" d="M105.91,-120.8C112.7,-112.59 121.39,-102.1 129.04,-92.87"/>
<polygon fill="#63b8ff" stroke="#63b8ff" points="131.73,-95.1 135.42,-85.16 126.34,-90.63 131.73,-95.1"/>
</a>
</g>
</g>
<!-- Node6 -->
<g id="Node000006" class="node">
<title>Node6</title>
<g id="a_Node000006"><a xlink:title=" ">
<polygon fill="#e0e0e0" stroke="#999999" points="357.14,-85 225.14,-85 225.14,-55 357.14,-55 357.14,-85"/>
<text text-anchor="start" x="233.14" y="-73" font-family="Helvetica,sans-Serif" font-size="10.00">Thoth/Http/NHeaders</text>
<text text-anchor="middle" x="291.14" y="-62" font-family="Helvetica,sans-Serif" font-size="10.00">/Headers/MimeType.tpp</text>
</a>
</g>
</g>
<!-- Node1&#45;&gt;Node6 -->
<g id="edge6_Node000001_Node000006" class="edge">
<title>Node1&#45;&gt;Node6</title>
<g id="a_edge6_Node000001_Node000006"><a xlink:title=" ">
<path fill="none" stroke="#63b8ff" d="M137.38,-120.95C167.14,-111.28 206.87,-98.38 238.48,-88.11"/>
<polygon fill="#63b8ff" stroke="#63b8ff" points="239.58,-91.43 248.01,-85.01 237.42,-84.77 239.58,-91.43"/>
</a>
</g>
</g>
<!-- Node4&#45;&gt;Node2 -->
<g id="edge4_Node000004_Node000002" class="edge">
<title>Node4&#45;&gt;Node2</title>
<g id="a_edge4_Node000004_Node000002"><a xlink:title=" ">
<path fill="none" stroke="#63b8ff" d="M120.08,-54.99C101.9,-45.58 78.08,-33.24 60.13,-23.95"/>
<polygon fill="#63b8ff" stroke="#63b8ff" points="61.32,-20.63 50.83,-19.14 58.1,-26.84 61.32,-20.63"/>
</a>
</g>
</g>
<!-- Node5 -->
<g id="Node000005" class="node">
<title>Node5</title>
<g id="a_Node000005"><a xlink:title=" ">
<polygon fill="#e0e0e0" stroke="#999999" points="170.64,-19 123.64,-19 123.64,0 170.64,0 170.64,-19"/>
<text text-anchor="middle" x="147.14" y="-7" font-family="Helvetica,sans-Serif" font-size="10.00">vector</text>
</a>
</g>
</g>
<!-- Node4&#45;&gt;Node5 -->
<g id="edge5_Node000004_Node000005" class="edge">
<title>Node4&#45;&gt;Node5</title>
<g id="a_edge5_Node000004_Node000005"><a xlink:title=" ">
<path fill="none" stroke="#63b8ff" d="M147.14,-54.84C147.14,-47.21 147.14,-37.7 147.14,-29.45"/>
<polygon fill="#63b8ff" stroke="#63b8ff" points="150.65,-29.27 147.14,-19.27 143.65,-29.27 150.65,-29.27"/>
</a>
</g>
</g>
</g>
</svg>
