<?xml version="1.0" encoding="UTF-8" standalone="no"?>
<!DOCTYPE svg PUBLIC "-//W3C//DTD SVG 1.1//EN"
 "http://www.w3.org/Graphics/SVG/1.1/DTD/svg11.dtd">
<!-- Generated by graphviz version 2.43.0 (0)
 -->
<!-- Title: include/Thoth/NJson/Number.hpp Pages: 1 -->
<svg width="2343pt" height="643pt"
 viewBox="0.00 0.00 2342.50 643.00" xmlns="http://www.w3.org/2000/svg" xmlns:xlink="http://www.w3.org/1999/xlink">
<g id="graph0" class="graph" transform="scale(1 1) rotate(0) translate(4 639)">
<title>include/Thoth/NJson/Number.hpp</title>
<!-- Node1 -->
<g id="Node000001" class="node">
<title>Node1</title>
<g id="a_Node000001"><a xlink:title=" ">
<polygon fill="#999999" stroke="#666666" points="2271.5,-635 2158.5,-635 2158.5,-605 2271.5,-605 2271.5,-635"/>
<text text-anchor="start" x="2166.5" y="-623" font-family="Helvetica,sans-Serif" font-size="10.00">include/Thoth/NJson</text>
<text text-anchor="middle" x="2215" y="-612" font-family="Helvetica,sans-Serif" font-size="10.00">/Number.hpp</text>
</a>
</g>
</g>
<!-- Node2 -->
<g id="Node000002" class="node">
<title>Node2</title>
<g id="a_Node000002"><a xlink:href="_definitions_8hpp.html" target="_top" xlink:title=" ">
<polygon fill="white" stroke="#666666" points="2271.5,-569 2158.5,-569 2158.5,-539 2271.5,-539 2271.5,-569"/>
<text text-anchor="start" x="2166.5" y="-557" font-family="Helvetica,sans-Serif" font-size="10.00">include/Thoth/NJson</text>
<text text-anchor="middle" x="2215" y="-546" font-family="Helvetica,sans-Serif" font-size="10.00">/Definitions.hpp</text>
</a>
</g>
</g>
<!-- Node1&#45;&gt;Node2 -->
<g id="edge1_Node000001_Node000002" class="edge">
<title>Node1&#45;&gt;Node2</title>
<g id="a_edge1_Node000001_Node000002"><a xlink:title=" ">
<path fill="none" stroke="#63b8ff" d="M2215,-594.54C2215,-585.96 2215,-576.61 2215,-569.16"/>
<polygon fill="#63b8ff" stroke="#63b8ff" points="2211.5,-594.8 2215,-604.8 2218.5,-594.8 2211.5,-594.8"/>
</a>
</g>
</g>
<!-- Node3 -->
<g id="Node000003" class="node">
<title>Node3</title>
<g id="a_Node000003"><a xlink:href="_exchange_error_8hpp.html" target="_top" xlink:title=" ">
<polygon fill="white" stroke="#666666" points="2229,-503 2119,-503 2119,-473 2229,-473 2229,-503"/>
<text text-anchor="start" x="2127" y="-491" font-family="Helvetica,sans-Serif" font-size="10.00">include/Thoth/Http</text>
<text text-anchor="middle" x="2174" y="-480" font-family="Helvetica,sans-Serif" font-size="10.00">/ExchangeError.hpp</text>
</a>
</g>
</g>
<!-- Node2&#45;&gt;Node3 -->
<g id="edge2_Node000002_Node000003" class="edge">
<title>Node2&#45;&gt;Node3</title>
<g id="a_edge2_Node000002_Node000003"><a xlink:title=" ">
<path fill="none" stroke="#63b8ff" d="M2200.42,-530.24C2194.64,-521.21 2188.16,-511.11 2183.07,-503.16"/>
<polygon fill="#63b8ff" stroke="#63b8ff" points="2197.56,-532.26 2205.9,-538.8 2203.45,-528.49 2197.56,-532.26"/>
</a>
</g>
</g>
<!-- Node29 -->
<g id="Node000029" class="node">
<title>Node29</title>
<g id="a_Node000029"><a xlink:href="_json_8hpp.html" target="_top" xlink:title=" ">
<polygon fill="white" stroke="#666666" points="2334.5,-437 2221.5,-437 2221.5,-407 2334.5,-407 2334.5,-437"/>
<text text-anchor="start" x="2229.5" y="-425" font-family="Helvetica,sans-Serif" font-size="10.00">include/Thoth/NJson</text>
<text text-anchor="middle" x="2278" y="-414" font-family="Helvetica,sans-Serif" font-size="10.00">/Json.hpp</text>
</a>
</g>
</g>
<!-- Node2&#45;&gt;Node29 -->
<g id="edge51_Node000002_Node000029" class="edge">
<title>Node2&#45;&gt;Node29</title>
<g id="a_edge51_Node000002_Node000029"><a xlink:title=" ">
<path fill="none" stroke="#63b8ff" d="M2226.27,-529.75C2239.31,-502.84 2260.36,-459.4 2271.15,-437.14"/>
<polygon fill="#63b8ff" stroke="#63b8ff" points="2223.07,-528.31 2221.86,-538.84 2229.37,-531.37 2223.07,-528.31"/>
</a>
</g>
</g>
<!-- Node4 -->
<g id="Node000004" class="node">
<title>Node4</title>
<g id="a_Node000004"><a xlink:href="_client_8hpp.html" target="_top" xlink:title=" ">
<polygon fill="white" stroke="#666666" points="1395.5,-30 1288.5,-30 1288.5,0 1395.5,0 1395.5,-30"/>
<text text-anchor="start" x="1296.5" y="-18" font-family="Helvetica,sans-Serif" font-size="10.00">include/Thoth/Http</text>
<text text-anchor="middle" x="1342" y="-7" font-family="Helvetica,sans-Serif" font-size="10.00">/Client.hpp</text>
</a>
</g>
</g>
<!-- Node3&#45;&gt;Node4 -->
<g id="edge3_Node000003_Node000004" class="edge">
<title>Node3&#45;&gt;Node4</title>
<g id="a_edge3_Node000003_Node000004"><a xlink:title=" ">
<path fill="none" stroke="#63b8ff" d="M2108.85,-486.6C1746.93,-483.93 0,-465.46 0,-357 0,-357 0,-357 0,-146 0,-14.26 1037.82,-13.69 1288.15,-15.47"/>
<polygon fill="#63b8ff" stroke="#63b8ff" points="2108.87,-490.1 2118.9,-486.67 2108.93,-483.1 2108.87,-490.1"/>
</a>
</g>
</g>
<!-- Node5 -->
<g id="Node000005" class="node">
<title>Node5</title>
<g id="a_Node000005"><a xlink:href="_query_params_8hpp.html" target="_top" xlink:title=" ">
<polygon fill="white" stroke="#666666" points="1581.5,-437 1432.5,-437 1432.5,-407 1581.5,-407 1581.5,-437"/>
<text text-anchor="start" x="1440.5" y="-425" font-family="Helvetica,sans-Serif" font-size="10.00">include/Thoth/Http</text>
<text text-anchor="middle" x="1507" y="-414" font-family="Helvetica,sans-Serif" font-size="10.00">/Request/QueryParams.hpp</text>
</a>
</g>
</g>
<!-- Node3&#45;&gt;Node5 -->
<g id="edge4_Node000003_Node000005" class="edge">
<title>Node3&#45;&gt;Node5</title>
<g id="a_edge4_Node000003_Node000005"><a xlink:title=" ">
<path fill="none" stroke="#63b8ff" d="M2108.7,-480.73C1984.13,-468.78 1713.28,-442.79 1581.71,-430.17"/>
<polygon fill="#63b8ff" stroke="#63b8ff" points="2108.56,-484.24 2118.85,-481.71 2109.23,-477.27 2108.56,-484.24"/>
</a>
</g>
</g>
<!-- Node11 -->
<g id="Node000011" class="node">
<title>Node11</title>
<g id="a_Node000011"><a xlink:href="_server_8hpp.html" target="_top" xlink:title=" ">
<polygon fill="white" stroke="#666666" points="1754.5,-30 1647.5,-30 1647.5,0 1754.5,0 1754.5,-30"/>
<text text-anchor="start" x="1655.5" y="-18" font-family="Helvetica,sans-Serif" font-size="10.00">include/Thoth/Http</text>
<text text-anchor="middle" x="1701" y="-7" font-family="Helvetica,sans-Serif" font-size="10.00">/Server.hpp</text>
</a>
</g>
</g>
<!-- Node3&#45;&gt;Node11 -->
<g id="edge47_Node000003_Node000011" class="edge">
<title>Node3&#45;&gt;Node11</title>
<g id="a_edge47_Node000003_Node000011"><a xlink:title=" ">
<path fill="none" stroke="#63b8ff" d="M2180.62,-462.85C2193.68,-409.62 2216.85,-280.39 2160,-198 2066.41,-62.35 1854.53,-27.8 1754.8,-19"/>
<polygon fill="#63b8ff" stroke="#63b8ff" points="2177.18,-462.18 2178.09,-472.73 2183.96,-463.91 2177.18,-462.18"/>
</a>
</g>
</g>
<!-- Node28 -->
<g id="Node000028" class="node">
<title>Node28</title>
<g id="a_Node000028"><a xlink:href="_http1_8hpp.html" target="_top" xlink:title=" ">
<polygon fill="white" stroke="#666666" points="2001.5,-162 1894.5,-162 1894.5,-132 2001.5,-132 2001.5,-162"/>
<text text-anchor="start" x="1902.5" y="-150" font-family="Helvetica,sans-Serif" font-size="10.00">include/Thoth/Http</text>
<text text-anchor="middle" x="1948" y="-139" font-family="Helvetica,sans-Serif" font-size="10.00">/_base/Http1.hpp</text>
</a>
</g>
</g>
<!-- Node3&#45;&gt;Node28 -->
<g id="edge48_Node000003_Node000028" class="edge">
<title>Node3&#45;&gt;Node28</title>
<g id="a_edge48_Node000003_Node000028"><a xlink:title=" ">
<path fill="none" stroke="#63b8ff" d="M2168.27,-462.6C2162.68,-436.59 2155,-394.12 2155,-357 2155,-357 2155,-357 2155,-289 2155,-247.68 2164.41,-227.99 2136,-198 2117.71,-178.69 2050.76,-164.22 2001.96,-155.93"/>
<polygon fill="#63b8ff" stroke="#63b8ff" points="2164.93,-463.67 2170.52,-472.67 2171.76,-462.15 2164.93,-463.67"/>
</a>
</g>
</g>
<!-- Node3&#45;&gt;Node29 -->
<g id="edge49_Node000003_Node000029" class="edge">
<title>Node3&#45;&gt;Node29</title>
<g id="a_edge49_Node000003_Node000029"><a xlink:title=" ">
<path fill="none" stroke="#63b8ff" d="M2205.37,-467.69C2221.43,-457.82 2240.61,-446.01 2255.23,-437.01"/>
<polygon fill="#63b8ff" stroke="#63b8ff" points="2203.51,-464.73 2196.82,-472.95 2207.17,-470.69 2203.51,-464.73"/>
</a>
</g>
</g>
<!-- Node6 -->
<g id="Node000006" class="node">
<title>Node6</title>
<g id="a_Node000006"><a xlink:href="_url_8hpp.html" target="_top" xlink:title=" ">
<polygon fill="white" stroke="#666666" points="1015.5,-371 908.5,-371 908.5,-341 1015.5,-341 1015.5,-371"/>
<text text-anchor="start" x="916.5" y="-359" font-family="Helvetica,sans-Serif" font-size="10.00">include/Thoth/Http</text>
<text text-anchor="middle" x="962" y="-348" font-family="Helvetica,sans-Serif" font-size="10.00">/Url/Url.hpp</text>
</a>
</g>
</g>
<!-- Node5&#45;&gt;Node6 -->
<g id="edge5_Node000005_Node000006" class="edge">
<title>Node5&#45;&gt;Node6</title>
<g id="a_edge5_Node000005_Node000006"><a xlink:title=" ">
<path fill="none" stroke="#63b8ff" d="M1422.32,-411.06C1308.79,-397.72 1110.57,-374.45 1015.65,-363.3"/>
<polygon fill="#63b8ff" stroke="#63b8ff" points="1422.02,-414.54 1432.36,-412.24 1422.84,-407.59 1422.02,-414.54"/>
</a>
</g>
</g>
<!-- Node7 -->
<g id="Node000007" class="node">
<title>Node7</title>
<g id="a_Node000007"><a xlink:href="_method_concept_8hpp.html" target="_top" xlink:title=" ">
<polygon fill="white" stroke="#666666" points="926,-233.5 732,-233.5 732,-203.5 926,-203.5 926,-233.5"/>
<text text-anchor="start" x="740" y="-221.5" font-family="Helvetica,sans-Serif" font-size="10.00">include/Thoth/Http</text>
<text text-anchor="middle" x="829" y="-210.5" font-family="Helvetica,sans-Serif" font-size="10.00">/Methods/_base/MethodConcept.hpp</text>
</a>
</g>
</g>
<!-- Node6&#45;&gt;Node7 -->
<g id="edge6_Node000006_Node000007" class="edge">
<title>Node6&#45;&gt;Node7</title>
<g id="a_edge6_Node000006_Node000007"><a xlink:title=" ">
<path fill="none" stroke="#63b8ff" d="M940.82,-333.42C913.31,-305.4 866.08,-257.27 842.79,-233.55"/>
<polygon fill="#63b8ff" stroke="#63b8ff" points="938.52,-336.07 948.02,-340.76 943.51,-331.17 938.52,-336.07"/>
</a>
</g>
</g>
<!-- Node10 -->
<g id="Node000010" class="node">
<title>Node10</title>
<g id="a_Node000010"><a xlink:href="_request_8hpp.html" target="_top" xlink:title=" ">
<polygon fill="white" stroke="#666666" points="1403.5,-96 1280.5,-96 1280.5,-66 1403.5,-66 1403.5,-96"/>
<text text-anchor="start" x="1288.5" y="-84" font-family="Helvetica,sans-Serif" font-size="10.00">include/Thoth/Http</text>
<text text-anchor="middle" x="1342" y="-73" font-family="Helvetica,sans-Serif" font-size="10.00">/Request/Request.hpp</text>
</a>
</g>
</g>
<!-- Node6&#45;&gt;Node10 -->
<g id="edge45_Node000006_Node000010" class="edge">
<title>Node6&#45;&gt;Node10</title>
<g id="a_edge45_Node000006_Node000010"><a xlink:title=" ">
<path fill="none" stroke="#63b8ff" d="M898.19,-349.97C672.95,-331.06 -64.94,-258.78 57,-132 99.83,-87.47 1029.49,-82.57 1280.19,-82.05"/>
<polygon fill="#63b8ff" stroke="#63b8ff" points="897.95,-353.46 908.21,-350.8 898.53,-346.48 897.95,-353.46"/>
</a>
</g>
</g>
<!-- Node19 -->
<g id="Node000019" class="node">
<title>Node19</title>
<g id="a_Node000019"><a xlink:href="_headers_8hpp.html" target="_top" xlink:title=" ">
<polygon fill="white" stroke="#666666" points="1498,-305 1366,-305 1366,-275 1498,-275 1498,-305"/>
<text text-anchor="start" x="1374" y="-293" font-family="Helvetica,sans-Serif" font-size="10.00">include/Thoth/Http</text>
<text text-anchor="middle" x="1432" y="-282" font-family="Helvetica,sans-Serif" font-size="10.00">/NHeaders/Headers.hpp</text>
</a>
</g>
</g>
<!-- Node6&#45;&gt;Node19 -->
<g id="edge23_Node000006_Node000019" class="edge">
<title>Node6&#45;&gt;Node19</title>
<g id="a_edge23_Node000006_Node000019"><a xlink:title=" ">
<path fill="none" stroke="#63b8ff" d="M1025.89,-346.3C1114.97,-334.17 1275.69,-312.28 1365.93,-300"/>
<polygon fill="#63b8ff" stroke="#63b8ff" points="1025.35,-342.84 1015.91,-347.66 1026.3,-349.78 1025.35,-342.84"/>
</a>
</g>
</g>
<!-- Node24 -->
<g id="Node000024" class="node">
<title>Node24</title>
<g id="a_Node000024"><a xlink:href="_request_head_8hpp.html" target="_top" xlink:title=" ">
<polygon fill="white" stroke="#666666" points="1580.5,-162 1431.5,-162 1431.5,-132 1580.5,-132 1580.5,-162"/>
<text text-anchor="start" x="1439.5" y="-150" font-family="Helvetica,sans-Serif" font-size="10.00">include/Thoth/Http</text>
<text text-anchor="middle" x="1506" y="-139" font-family="Helvetica,sans-Serif" font-size="10.00">/Request/RequestHead.hpp</text>
</a>
</g>
</g>
<!-- Node6&#45;&gt;Node24 -->
<g id="edge46_Node000006_Node000024" class="edge">
<title>Node6&#45;&gt;Node24</title>
<g id="a_edge46_Node000006_Node000024"><a xlink:title=" ">
<path fill="none" stroke="#63b8ff" d="M956.57,-330.51C950.43,-295.65 945.47,-232.18 981,-198 1016.43,-163.92 1373.21,-168.05 1422,-162 1425.08,-161.62 1428.22,-161.2 1431.39,-160.77"/>
<polygon fill="#63b8ff" stroke="#63b8ff" points="953.21,-331.6 958.55,-340.75 960.08,-330.27 953.21,-331.6"/>
</a>
</g>
</g>
<!-- Node8 -->
<g id="Node000008" class="node">
<title>Node8</title>
<g id="a_Node000008"><a xlink:href="_delete_method_8hpp.html" target="_top" xlink:title=" ">
<polygon fill="white" stroke="#666666" points="221.5,-162 66.5,-162 66.5,-132 221.5,-132 221.5,-162"/>
<text text-anchor="start" x="74.5" y="-150" font-family="Helvetica,sans-Serif" font-size="10.00">include/Thoth/Http</text>
<text text-anchor="middle" x="144" y="-139" font-family="Helvetica,sans-Serif" font-size="10.00">/Methods/DeleteMethod.hpp</text>
</a>
</g>
</g>
<!-- Node7&#45;&gt;Node8 -->
<g id="edge7_Node000007_Node000008" class="edge">
<title>Node7&#45;&gt;Node8</title>
<g id="a_edge7_Node000007_Node000008"><a xlink:title=" ">
<path fill="none" stroke="#63b8ff" d="M721.66,-209.72C601.79,-200.52 402.12,-183.68 231,-162 227.96,-161.62 224.87,-161.21 221.75,-160.78"/>
<polygon fill="#63b8ff" stroke="#63b8ff" points="721.7,-213.23 731.94,-210.5 722.24,-206.25 721.7,-213.23"/>
</a>
</g>
</g>
<!-- Node9 -->
<g id="Node000009" class="node">
<title>Node9</title>
<g id="a_Node000009"><a xlink:href="_get_method_8hpp.html" target="_top" xlink:title=" ">
<polygon fill="white" stroke="#666666" points="1252,-162 1112,-162 1112,-132 1252,-132 1252,-162"/>
<text text-anchor="start" x="1120" y="-150" font-family="Helvetica,sans-Serif" font-size="10.00">include/Thoth/Http</text>
<text text-anchor="middle" x="1182" y="-139" font-family="Helvetica,sans-Serif" font-size="10.00">/Methods/GetMethod.hpp</text>
</a>
</g>
</g>
<!-- Node7&#45;&gt;Node9 -->
<g id="edge8_Node000007_Node000009" class="edge">
<title>Node7&#45;&gt;Node9</title>
<g id="a_edge8_Node000007_Node000009"><a xlink:title=" ">
<path fill="none" stroke="#63b8ff" d="M910.4,-201.47C971.34,-189.47 1053.84,-173.23 1111.88,-161.81"/>
<polygon fill="#63b8ff" stroke="#63b8ff" points="909.57,-198.07 900.43,-203.44 910.92,-204.94 909.57,-198.07"/>
</a>
</g>
</g>
<!-- Node13 -->
<g id="Node000013" class="node">
<title>Node13</title>
<g id="a_Node000013"><a xlink:href="_head_method_8hpp.html" target="_top" xlink:title=" ">
<polygon fill="white" stroke="#666666" points="388,-162 240,-162 240,-132 388,-132 388,-162"/>
<text text-anchor="start" x="248" y="-150" font-family="Helvetica,sans-Serif" font-size="10.00">include/Thoth/Http</text>
<text text-anchor="middle" x="314" y="-139" font-family="Helvetica,sans-Serif" font-size="10.00">/Methods/HeadMethod.hpp</text>
</a>
</g>
</g>
<!-- Node7&#45;&gt;Node13 -->
<g id="edge15_Node000007_Node000013" class="edge">
<title>Node7&#45;&gt;Node13</title>
<g id="a_edge15_Node000007_Node000013"><a xlink:title=" ">
<path fill="none" stroke="#63b8ff" d="M721.97,-204.94C634.45,-194.38 507.55,-178.42 397,-162 394.11,-161.57 391.16,-161.12 388.19,-160.66"/>
<polygon fill="#63b8ff" stroke="#63b8ff" points="721.56,-208.41 731.91,-206.13 722.4,-201.46 721.56,-208.41"/>
</a>
</g>
</g>
<!-- Node14 -->
<g id="Node000014" class="node">
<title>Node14</title>
<g id="a_Node000014"><a xlink:href="_options_method_8hpp.html" target="_top" xlink:title=" ">
<polygon fill="white" stroke="#666666" points="566,-162 406,-162 406,-132 566,-132 566,-162"/>
<text text-anchor="start" x="414" y="-150" font-family="Helvetica,sans-Serif" font-size="10.00">include/Thoth/Http</text>
<text text-anchor="middle" x="486" y="-139" font-family="Helvetica,sans-Serif" font-size="10.00">/Methods/OptionsMethod.hpp</text>
</a>
</g>
</g>
<!-- Node7&#45;&gt;Node14 -->
<g id="edge16_Node000007_Node000014" class="edge">
<title>Node7&#45;&gt;Node14</title>
<g id="a_edge16_Node000007_Node000014"><a xlink:title=" ">
<path fill="none" stroke="#63b8ff" d="M749.6,-201.41C690.83,-189.5 611.53,-173.44 555.31,-162.04"/>
<polygon fill="#63b8ff" stroke="#63b8ff" points="749.09,-204.88 759.59,-203.44 750.48,-198.02 749.09,-204.88"/>
</a>
</g>
</g>
<!-- Node15 -->
<g id="Node000015" class="node">
<title>Node15</title>
<g id="a_Node000015"><a xlink:href="_patch_method_8hpp.html" target="_top" xlink:title=" ">
<polygon fill="white" stroke="#666666" points="733.5,-162 584.5,-162 584.5,-132 733.5,-132 733.5,-162"/>
<text text-anchor="start" x="592.5" y="-150" font-family="Helvetica,sans-Serif" font-size="10.00">include/Thoth/Http</text>
<text text-anchor="middle" x="659" y="-139" font-family="Helvetica,sans-Serif" font-size="10.00">/Methods/PatchMethod.hpp</text>
</a>
</g>
</g>
<!-- Node7&#45;&gt;Node15 -->
<g id="edge17_Node000007_Node000015" class="edge">
<title>Node7&#45;&gt;Node15</title>
<g id="a_edge17_Node000007_Node000015"><a xlink:title=" ">
<path fill="none" stroke="#63b8ff" d="M785.24,-199.61C756.65,-187.92 719.84,-172.87 693.35,-162.04"/>
<polygon fill="#63b8ff" stroke="#63b8ff" points="784.02,-202.89 794.6,-203.44 786.67,-196.41 784.02,-202.89"/>
</a>
</g>
</g>
<!-- Node16 -->
<g id="Node000016" class="node">
<title>Node16</title>
<g id="a_Node000016"><a xlink:href="_post_method_8hpp.html" target="_top" xlink:title=" ">
<polygon fill="white" stroke="#666666" points="1413.5,-162 1270.5,-162 1270.5,-132 1413.5,-132 1413.5,-162"/>
<text text-anchor="start" x="1278.5" y="-150" font-family="Helvetica,sans-Serif" font-size="10.00">include/Thoth/Http</text>
<text text-anchor="middle" x="1342" y="-139" font-family="Helvetica,sans-Serif" font-size="10.00">/Methods/PostMethod.hpp</text>
</a>
</g>
</g>
<!-- Node7&#45;&gt;Node16 -->
<g id="edge18_Node000007_Node000016" class="edge">
<title>Node7&#45;&gt;Node16</title>
<g id="a_edge18_Node000007_Node000016"><a xlink:title=" ">
<path fill="none" stroke="#63b8ff" d="M921.56,-201.89C930.49,-200.52 939.41,-199.2 948,-198 1086.69,-178.67 1122.4,-181.93 1261,-162 1264.11,-161.55 1267.28,-161.08 1270.48,-160.59"/>
<polygon fill="#63b8ff" stroke="#63b8ff" points="920.85,-198.46 911.5,-203.46 921.92,-205.37 920.85,-198.46"/>
</a>
</g>
</g>
<!-- Node17 -->
<g id="Node000017" class="node">
<title>Node17</title>
<g id="a_Node000017"><a xlink:href="_put_method_8hpp.html" target="_top" xlink:title=" ">
<polygon fill="white" stroke="#666666" points="890,-162 752,-162 752,-132 890,-132 890,-162"/>
<text text-anchor="start" x="760" y="-150" font-family="Helvetica,sans-Serif" font-size="10.00">include/Thoth/Http</text>
<text text-anchor="middle" x="821" y="-139" font-family="Helvetica,sans-Serif" font-size="10.00">/Methods/PutMethod.hpp</text>
</a>
</g>
</g>
<!-- Node7&#45;&gt;Node17 -->
<g id="edge21_Node000007_Node000017" class="edge">
<title>Node7&#45;&gt;Node17</title>
<g id="a_edge21_Node000007_Node000017"><a xlink:title=" ">
<path fill="none" stroke="#63b8ff" d="M826.21,-193.25C825.01,-182.81 823.65,-170.99 822.62,-162.04"/>
<polygon fill="#63b8ff" stroke="#63b8ff" points="822.76,-193.9 827.38,-203.44 829.71,-193.1 822.76,-193.9"/>
</a>
</g>
</g>
<!-- Node18 -->
<g id="Node000018" class="node">
<title>Node18</title>
<g id="a_Node000018"><a xlink:href="_trace_method_8hpp.html" target="_top" xlink:title=" ">
<polygon fill="white" stroke="#666666" points="1056,-162 908,-162 908,-132 1056,-132 1056,-162"/>
<text text-anchor="start" x="916" y="-150" font-family="Helvetica,sans-Serif" font-size="10.00">include/Thoth/Http</text>
<text text-anchor="middle" x="982" y="-139" font-family="Helvetica,sans-Serif" font-size="10.00">/Methods/TraceMethod.hpp</text>
</a>
</g>
</g>
<!-- Node7&#45;&gt;Node18 -->
<g id="edge22_Node000007_Node000018" class="edge">
<title>Node7&#45;&gt;Node18</title>
<g id="a_edge22_Node000007_Node000018"><a xlink:title=" ">
<path fill="none" stroke="#63b8ff" d="M869.39,-199.15C894.98,-187.53 927.56,-172.73 951.08,-162.04"/>
<polygon fill="#63b8ff" stroke="#63b8ff" points="867.62,-196.11 859.96,-203.44 870.51,-202.49 867.62,-196.11"/>
</a>
</g>
</g>
<!-- Node9&#45;&gt;Node10 -->
<g id="edge9_Node000009_Node000010" class="edge">
<title>Node9&#45;&gt;Node10</title>
<g id="a_edge9_Node000009_Node000010"><a xlink:title=" ">
<path fill="none" stroke="#63b8ff" d="M1226.53,-128.19C1251.94,-118.02 1283.33,-105.47 1306.97,-96.01"/>
<polygon fill="#63b8ff" stroke="#63b8ff" points="1225.1,-124.99 1217.11,-131.95 1227.7,-131.49 1225.1,-124.99"/>
</a>
</g>
</g>
<!-- Node12 -->
<g id="Node000012" class="node">
<title>Node12</title>
<g id="a_Node000012"><a xlink:href="_response_8hpp.html" target="_top" xlink:title=" ">
<polygon fill="white" stroke="#666666" points="1770,-96 1632,-96 1632,-66 1770,-66 1770,-96"/>
<text text-anchor="start" x="1640" y="-84" font-family="Helvetica,sans-Serif" font-size="10.00">include/Thoth/Http</text>
<text text-anchor="middle" x="1701" y="-73" font-family="Helvetica,sans-Serif" font-size="10.00">/Response/Response.hpp</text>
</a>
</g>
</g>
<!-- Node9&#45;&gt;Node12 -->
<g id="edge12_Node000009_Node000012" class="edge">
<title>Node9&#45;&gt;Node12</title>
<g id="a_edge12_Node000009_Node000012"><a xlink:title=" ">
<path fill="none" stroke="#63b8ff" d="M1262.42,-131.85C1399.12,-112.24 1547.17,-96.79 1631.86,-88.51"/>
<polygon fill="#63b8ff" stroke="#63b8ff" points="1261.57,-128.44 1252.17,-133.33 1262.57,-135.36 1261.57,-128.44"/>
</a>
</g>
</g>
<!-- Node10&#45;&gt;Node4 -->
<g id="edge10_Node000010_Node000004" class="edge">
<title>Node10&#45;&gt;Node4</title>
<g id="a_edge10_Node000010_Node000004"><a xlink:title=" ">
<path fill="none" stroke="#63b8ff" d="M1342,-55.54C1342,-46.96 1342,-37.61 1342,-30.16"/>
<polygon fill="#63b8ff" stroke="#63b8ff" points="1338.5,-55.8 1342,-65.8 1345.5,-55.8 1338.5,-55.8"/>
</a>
</g>
</g>
<!-- Node10&#45;&gt;Node11 -->
<g id="edge11_Node000010_Node000011" class="edge">
<title>Node10&#45;&gt;Node11</title>
<g id="a_edge11_Node000010_Node000011"><a xlink:title=" ">
<path fill="none" stroke="#63b8ff" d="M1413.63,-67.23C1482.58,-54.94 1585.26,-36.63 1647.4,-25.55"/>
<polygon fill="#63b8ff" stroke="#63b8ff" points="1412.94,-63.8 1403.71,-69 1414.17,-70.69 1412.94,-63.8"/>
</a>
</g>
</g>
<!-- Node12&#45;&gt;Node4 -->
<g id="edge13_Node000012_Node000004" class="edge">
<title>Node12&#45;&gt;Node4</title>
<g id="a_edge13_Node000012_Node000004"><a xlink:title=" ">
<path fill="none" stroke="#63b8ff" d="M1621.86,-65.89C1553.11,-53.64 1455.43,-36.22 1395.52,-25.54"/>
<polygon fill="#63b8ff" stroke="#63b8ff" points="1621.32,-69.35 1631.78,-67.66 1622.55,-62.46 1621.32,-69.35"/>
</a>
</g>
</g>
<!-- Node12&#45;&gt;Node11 -->
<g id="edge14_Node000012_Node000011" class="edge">
<title>Node12&#45;&gt;Node11</title>
<g id="a_edge14_Node000012_Node000011"><a xlink:title=" ">
<path fill="none" stroke="#63b8ff" d="M1701,-55.54C1701,-46.96 1701,-37.61 1701,-30.16"/>
<polygon fill="#63b8ff" stroke="#63b8ff" points="1697.5,-55.8 1701,-65.8 1704.5,-55.8 1697.5,-55.8"/>
</a>
</g>
</g>
<!-- Node16&#45;&gt;Node10 -->
<g id="edge19_Node000016_Node000010" class="edge">
<title>Node16&#45;&gt;Node10</title>
<g id="a_edge19_Node000016_Node000010"><a xlink:title=" ">
<path fill="none" stroke="#63b8ff" d="M1342,-121.54C1342,-112.96 1342,-103.61 1342,-96.16"/>
<polygon fill="#63b8ff" stroke="#63b8ff" points="1338.5,-121.8 1342,-131.8 1345.5,-121.8 1338.5,-121.8"/>
</a>
</g>
</g>
<!-- Node16&#45;&gt;Node12 -->
<g id="edge20_Node000016_Node000012" class="edge">
<title>Node16&#45;&gt;Node12</title>
<g id="a_edge20_Node000016_Node000012"><a xlink:title=" ">
<path fill="none" stroke="#63b8ff" d="M1423.66,-131.44C1486.48,-120.24 1572.31,-104.94 1631.78,-94.34"/>
<polygon fill="#63b8ff" stroke="#63b8ff" points="1423.02,-128 1413.79,-133.2 1424.25,-134.89 1423.02,-128"/>
</a>
</g>
</g>
<!-- Node19&#45;&gt;Node7 -->
<g id="edge27_Node000019_Node000007" class="edge">
<title>Node19&#45;&gt;Node7</title>
<g id="a_edge27_Node000019_Node000007"><a xlink:title=" ">
<path fill="none" stroke="#63b8ff" d="M1355.77,-280.95C1266.06,-271.39 1112.62,-254.74 981,-239 963.3,-236.88 944.45,-234.54 926.27,-232.23"/>
<polygon fill="#63b8ff" stroke="#63b8ff" points="1355.54,-284.45 1365.85,-282.03 1356.28,-277.49 1355.54,-284.45"/>
</a>
</g>
</g>
<!-- Node20 -->
<g id="Node000020" class="node">
<title>Node20</title>
<g id="a_Node000020"><a xlink:href="_file_output_range_8hpp.html" target="_top" xlink:title=" ">
<polygon fill="white" stroke="#666666" points="2109,-233.5 1951,-233.5 1951,-203.5 2109,-203.5 2109,-233.5"/>
<text text-anchor="start" x="1959" y="-221.5" font-family="Helvetica,sans-Serif" font-size="10.00">include/Thoth/Dsa/FileOutput</text>
<text text-anchor="middle" x="2030" y="-210.5" font-family="Helvetica,sans-Serif" font-size="10.00">Range.hpp</text>
</a>
</g>
</g>
<!-- Node19&#45;&gt;Node20 -->
<g id="edge24_Node000019_Node000020" class="edge">
<title>Node19&#45;&gt;Node20</title>
<g id="a_edge24_Node000019_Node000020"><a xlink:title=" ">
<path fill="none" stroke="#63b8ff" d="M1508.28,-284.03C1607.45,-276.97 1785.83,-262.26 1937,-239 1946.95,-237.47 1957.43,-235.56 1967.64,-233.54"/>
<polygon fill="#63b8ff" stroke="#63b8ff" points="1507.79,-280.55 1498.06,-284.75 1508.28,-287.53 1507.79,-280.55"/>
</a>
</g>
</g>
<!-- Node21 -->
<g id="Node000021" class="node">
<title>Node21</title>
<g id="a_Node000021"><a xlink:href="_list_proxy_8hpp.html" target="_top" xlink:title=" ">
<polygon fill="white" stroke="#666666" points="1515,-233.5 1349,-233.5 1349,-203.5 1515,-203.5 1515,-233.5"/>
<text text-anchor="start" x="1357" y="-221.5" font-family="Helvetica,sans-Serif" font-size="10.00">include/Thoth/Http</text>
<text text-anchor="middle" x="1432" y="-210.5" font-family="Helvetica,sans-Serif" font-size="10.00">/NHeaders/Proxy/ListProxy.hpp</text>
</a>
</g>
</g>
<!-- Node19&#45;&gt;Node21 -->
<g id="edge28_Node000019_Node000021" class="edge">
<title>Node19&#45;&gt;Node21</title>
<g id="a_edge28_Node000019_Node000021"><a xlink:title=" ">
<path fill="none" stroke="#63b8ff" d="M1432,-264.75C1432,-254.31 1432,-242.49 1432,-233.54"/>
<polygon fill="#63b8ff" stroke="#63b8ff" points="1428.5,-264.94 1432,-274.94 1435.5,-264.94 1428.5,-264.94"/>
</a>
</g>
</g>
<!-- Node22 -->
<g id="Node000022" class="node">
<title>Node22</title>
<g id="a_Node000022"><a xlink:href="_value_proxy_8hpp.html" target="_top" xlink:title=" ">
<polygon fill="white" stroke="#666666" points="1709,-233.5 1533,-233.5 1533,-203.5 1709,-203.5 1709,-233.5"/>
<text text-anchor="start" x="1541" y="-221.5" font-family="Helvetica,sans-Serif" font-size="10.00">include/Thoth/Http</text>
<text text-anchor="middle" x="1621" y="-210.5" font-family="Helvetica,sans-Serif" font-size="10.00">/NHeaders/Proxy/ValueProxy.hpp</text>
</a>
</g>
</g>
<!-- Node19&#45;&gt;Node22 -->
<g id="edge29_Node000019_Node000022" class="edge">
<title>Node19&#45;&gt;Node22</title>
<g id="a_edge29_Node000019_Node000022"><a xlink:title=" ">
<path fill="none" stroke="#63b8ff" d="M1479.82,-271.42C1511.72,-259.68 1553.11,-244.47 1582.81,-233.54"/>
<polygon fill="#63b8ff" stroke="#63b8ff" points="1478.42,-268.2 1470.25,-274.94 1480.84,-274.77 1478.42,-268.2"/>
</a>
</g>
</g>
<!-- Node23 -->
<g id="Node000023" class="node">
<title>Node23</title>
<g id="a_Node000023"><a xlink:href="_request_headers_8hpp.html" target="_top" xlink:title=" ">
<polygon fill="white" stroke="#666666" points="1205.5,-233.5 990.5,-233.5 990.5,-203.5 1205.5,-203.5 1205.5,-233.5"/>
<text text-anchor="start" x="998.5" y="-221.5" font-family="Helvetica,sans-Serif" font-size="10.00">include/Thoth/Http</text>
<text text-anchor="middle" x="1098" y="-210.5" font-family="Helvetica,sans-Serif" font-size="10.00">/NHeaders/Request/RequestHeaders.hpp</text>
</a>
</g>
</g>
<!-- Node19&#45;&gt;Node23 -->
<g id="edge30_Node000019_Node000023" class="edge">
<title>Node19&#45;&gt;Node23</title>
<g id="a_edge30_Node000019_Node000023"><a xlink:title=" ">
<path fill="none" stroke="#63b8ff" d="M1355.51,-273.08C1298.17,-261.15 1220.43,-244.97 1165.41,-233.53"/>
<polygon fill="#63b8ff" stroke="#63b8ff" points="1355.11,-276.58 1365.61,-275.19 1356.54,-269.72 1355.11,-276.58"/>
</a>
</g>
</g>
<!-- Node25 -->
<g id="Node000025" class="node">
<title>Node25</title>
<g id="a_Node000025"><a xlink:href="_response_headers_8hpp.html" target="_top" xlink:title=" ">
<polygon fill="white" stroke="#666666" points="1895,-239 1727,-239 1727,-198 1895,-198 1895,-239"/>
<text text-anchor="start" x="1735" y="-227" font-family="Helvetica,sans-Serif" font-size="10.00">include/Thoth/Http</text>
<text text-anchor="start" x="1735" y="-216" font-family="Helvetica,sans-Serif" font-size="10.00">/NHeaders/Response/Response</text>
<text text-anchor="middle" x="1811" y="-205" font-family="Helvetica,sans-Serif" font-size="10.00">Headers.hpp</text>
</a>
</g>
</g>
<!-- Node19&#45;&gt;Node25 -->
<g id="edge34_Node000019_Node000025" class="edge">
<title>Node19&#45;&gt;Node25</title>
<g id="a_edge34_Node000019_Node000025"><a xlink:title=" ">
<path fill="none" stroke="#63b8ff" d="M1508.13,-276.41C1565.83,-266.69 1647.02,-252.64 1718,-239 1720.92,-238.44 1723.88,-237.86 1726.88,-237.27"/>
<polygon fill="#63b8ff" stroke="#63b8ff" points="1507.28,-273 1498,-278.11 1508.44,-279.9 1507.28,-273"/>
</a>
</g>
</g>
<!-- Node27 -->
<g id="Node000027" class="node">
<title>Node27</title>
<g id="a_Node000027"><a xlink:href="_http_2__base_8hpp.html" target="_top" xlink:title=" ">
<polygon fill="white" stroke="#666666" points="1330.5,-233.5 1223.5,-233.5 1223.5,-203.5 1330.5,-203.5 1330.5,-233.5"/>
<text text-anchor="start" x="1231.5" y="-221.5" font-family="Helvetica,sans-Serif" font-size="10.00">include/Thoth/Http</text>
<text text-anchor="middle" x="1277" y="-210.5" font-family="Helvetica,sans-Serif" font-size="10.00">/_base.hpp</text>
</a>
</g>
</g>
<!-- Node19&#45;&gt;Node27 -->
<g id="edge38_Node000019_Node000027" class="edge">
<title>Node19&#45;&gt;Node27</title>
<g id="a_edge38_Node000019_Node000027"><a xlink:title=" ">
<path fill="none" stroke="#63b8ff" d="M1391.42,-270.81C1365.45,-259.16 1332.26,-244.28 1308.32,-233.54"/>
<polygon fill="#63b8ff" stroke="#63b8ff" points="1390.08,-274.04 1400.63,-274.94 1392.94,-267.65 1390.08,-274.04"/>
</a>
</g>
</g>
<!-- Node19&#45;&gt;Node28 -->
<g id="edge44_Node000019_Node000028" class="edge">
<title>Node19&#45;&gt;Node28</title>
<g id="a_edge44_Node000019_Node000028"><a xlink:title=" ">
<path fill="none" stroke="#63b8ff" d="M1508.39,-289.71C1625.41,-289.36 1842.01,-282.6 1904,-239 1929.98,-220.73 1941.22,-182.8 1945.57,-162.15"/>
<polygon fill="#63b8ff" stroke="#63b8ff" points="1508.07,-286.21 1498.07,-289.72 1508.08,-293.21 1508.07,-286.21"/>
</a>
</g>
</g>
<!-- Node20&#45;&gt;Node12 -->
<g id="edge26_Node000020_Node000012" class="edge">
<title>Node20&#45;&gt;Node12</title>
<g id="a_edge26_Node000020_Node000012"><a xlink:title=" ">
<path fill="none" stroke="#63b8ff" d="M2031.14,-193.16C2030.64,-173.79 2026.57,-147.46 2010,-132 1976.12,-100.4 1850.31,-88.71 1770.04,-84.43"/>
<polygon fill="#63b8ff" stroke="#63b8ff" points="2027.64,-193.34 2031.1,-203.36 2034.64,-193.37 2027.64,-193.34"/>
</a>
</g>
</g>
<!-- Node20&#45;&gt;Node20 -->
<g id="edge25_Node000020_Node000020" class="edge">
<title>Node20&#45;&gt;Node20</title>
<g id="a_edge25_Node000020_Node000020"><a xlink:title=" ">
<path fill="none" stroke="#63b8ff" d="M2118.79,-227.45C2123.93,-225.3 2127,-222.31 2127,-218.5 2127,-212.69 2119.87,-208.81 2109.16,-206.86"/>
<polygon fill="#63b8ff" stroke="#63b8ff" points="2117.85,-224.08 2109.16,-230.14 2119.74,-230.82 2117.85,-224.08"/>
</a>
</g>
</g>
<!-- Node23&#45;&gt;Node10 -->
<g id="edge31_Node000023_Node000010" class="edge">
<title>Node23&#45;&gt;Node10</title>
<g id="a_edge31_Node000023_Node000010"><a xlink:title=" ">
<path fill="none" stroke="#63b8ff" d="M1092.24,-193.52C1089.2,-174.57 1088.65,-148.65 1103,-132 1125.7,-105.67 1217.4,-92.56 1280.38,-86.53"/>
<polygon fill="#63b8ff" stroke="#63b8ff" points="1088.83,-194.32 1094.15,-203.48 1095.7,-193 1088.83,-194.32"/>
</a>
</g>
</g>
<!-- Node23&#45;&gt;Node24 -->
<g id="edge32_Node000023_Node000024" class="edge">
<title>Node23&#45;&gt;Node24</title>
<g id="a_edge32_Node000023_Node000024"><a xlink:title=" ">
<path fill="none" stroke="#63b8ff" d="M1190.66,-201.72C1263.53,-189.3 1363.71,-172.24 1431.45,-160.7"/>
<polygon fill="#63b8ff" stroke="#63b8ff" points="1189.84,-198.31 1180.56,-203.44 1191.01,-205.21 1189.84,-198.31"/>
</a>
</g>
</g>
<!-- Node24&#45;&gt;Node10 -->
<g id="edge33_Node000024_Node000010" class="edge">
<title>Node24&#45;&gt;Node10</title>
<g id="a_edge33_Node000024_Node000010"><a xlink:title=" ">
<path fill="none" stroke="#63b8ff" d="M1460.36,-128.19C1434.31,-118.02 1402.13,-105.47 1377.91,-96.01"/>
<polygon fill="#63b8ff" stroke="#63b8ff" points="1459.42,-131.58 1470.01,-131.95 1461.97,-125.06 1459.42,-131.58"/>
</a>
</g>
</g>
<!-- Node25&#45;&gt;Node12 -->
<g id="edge35_Node000025_Node000012" class="edge">
<title>Node25&#45;&gt;Node12</title>
<g id="a_edge35_Node000025_Node000012"><a xlink:title=" ">
<path fill="none" stroke="#63b8ff" d="M1836.27,-189.74C1849.09,-172.18 1859.55,-149.57 1847,-132 1829.4,-107.37 1798.89,-94.74 1770.3,-88.32"/>
<polygon fill="#63b8ff" stroke="#63b8ff" points="1833.28,-187.88 1829.87,-197.91 1838.79,-192.19 1833.28,-187.88"/>
</a>
</g>
</g>
<!-- Node26 -->
<g id="Node000026" class="node">
<title>Node26</title>
<g id="a_Node000026"><a xlink:href="_response_head_8hpp.html" target="_top" xlink:title=" ">
<polygon fill="white" stroke="#666666" points="1838,-162 1674,-162 1674,-132 1838,-132 1838,-162"/>
<text text-anchor="start" x="1682" y="-150" font-family="Helvetica,sans-Serif" font-size="10.00">include/Thoth/Http</text>
<text text-anchor="middle" x="1756" y="-139" font-family="Helvetica,sans-Serif" font-size="10.00">/Response/ResponseHead.hpp</text>
</a>
</g>
</g>
<!-- Node25&#45;&gt;Node26 -->
<g id="edge36_Node000025_Node000026" class="edge">
<title>Node25&#45;&gt;Node26</title>
<g id="a_edge36_Node000025_Node000026"><a xlink:title=" ">
<path fill="none" stroke="#63b8ff" d="M1788.99,-189.69C1781.48,-180.19 1773.39,-169.98 1767.11,-162.04"/>
<polygon fill="#63b8ff" stroke="#63b8ff" points="1786.44,-192.1 1795.39,-197.77 1791.93,-187.76 1786.44,-192.1"/>
</a>
</g>
</g>
<!-- Node26&#45;&gt;Node12 -->
<g id="edge37_Node000026_Node000012" class="edge">
<title>Node26&#45;&gt;Node12</title>
<g id="a_edge37_Node000026_Node000012"><a xlink:title=" ">
<path fill="none" stroke="#63b8ff" d="M1737.17,-124.09C1729.23,-114.85 1720.22,-104.36 1713.17,-96.16"/>
<polygon fill="#63b8ff" stroke="#63b8ff" points="1734.62,-126.49 1743.79,-131.8 1739.93,-121.93 1734.62,-126.49"/>
</a>
</g>
</g>
<!-- Node27&#45;&gt;Node10 -->
<g id="edge39_Node000027_Node000010" class="edge">
<title>Node27&#45;&gt;Node10</title>
<g id="a_edge39_Node000027_Node000010"><a xlink:title=" ">
<path fill="none" stroke="#63b8ff" d="M1328.94,-200.73C1332.67,-199.74 1336.38,-198.82 1340,-198 1394.54,-185.7 1552.4,-204.27 1589,-162 1643.07,-99.55 1493.17,-85.52 1403.6,-82.58"/>
<polygon fill="#63b8ff" stroke="#63b8ff" points="1327.81,-197.41 1319.11,-203.47 1329.69,-204.15 1327.81,-197.41"/>
</a>
</g>
</g>
<!-- Node27&#45;&gt;Node12 -->
<g id="edge41_Node000027_Node000012" class="edge">
<title>Node27&#45;&gt;Node12</title>
<g id="a_edge41_Node000027_Node000012"><a xlink:title=" ">
<path fill="none" stroke="#63b8ff" d="M1328.93,-200.68C1332.66,-199.71 1336.38,-198.8 1340,-198 1457.8,-172.08 1499.08,-211.67 1609,-162 1642.95,-146.66 1673.7,-114.6 1689.61,-96.06"/>
<polygon fill="#63b8ff" stroke="#63b8ff" points="1327.8,-197.36 1319.1,-203.41 1329.67,-204.11 1327.8,-197.36"/>
</a>
</g>
</g>
<!-- Node27&#45;&gt;Node24 -->
<g id="edge40_Node000027_Node000024" class="edge">
<title>Node27&#45;&gt;Node24</title>
<g id="a_edge40_Node000027_Node000024"><a xlink:title=" ">
<path fill="none" stroke="#63b8ff" d="M1332.12,-200.41C1334.78,-199.6 1337.42,-198.79 1340,-198 1380.16,-185.74 1425.84,-171.99 1459.1,-162.02"/>
<polygon fill="#63b8ff" stroke="#63b8ff" points="1330.94,-197.11 1322.41,-203.4 1333,-203.8 1330.94,-197.11"/>
</a>
</g>
</g>
<!-- Node27&#45;&gt;Node26 -->
<g id="edge42_Node000027_Node000026" class="edge">
<title>Node27&#45;&gt;Node26</title>
<g id="a_edge42_Node000027_Node000026"><a xlink:title=" ">
<path fill="none" stroke="#63b8ff" d="M1328.21,-200.78C1332.18,-199.75 1336.14,-198.81 1340,-198 1480.09,-168.71 1518.06,-180.33 1660,-162 1664.51,-161.42 1669.14,-160.8 1673.81,-160.17"/>
<polygon fill="#63b8ff" stroke="#63b8ff" points="1327.11,-197.45 1318.39,-203.48 1328.96,-204.2 1327.11,-197.45"/>
</a>
</g>
</g>
<!-- Node27&#45;&gt;Node28 -->
<g id="edge43_Node000027_Node000028" class="edge">
<title>Node27&#45;&gt;Node28</title>
<g id="a_edge43_Node000027_Node000028"><a xlink:title=" ">
<path fill="none" stroke="#63b8ff" d="M1327.44,-200.78C1331.66,-199.72 1335.89,-198.77 1340,-198 1562.02,-156.33 1622.33,-185.52 1847,-162 1862.41,-160.39 1879.08,-158.24 1894.35,-156.12"/>
<polygon fill="#63b8ff" stroke="#63b8ff" points="1326.4,-197.44 1317.66,-203.43 1328.23,-204.19 1326.4,-197.44"/>
</a>
</g>
</g>
<!-- Node29&#45;&gt;Node12 -->
<g id="edge50_Node000029_Node000012" class="edge">
<title>Node29&#45;&gt;Node12</title>
<g id="a_edge50_Node000029_Node000012"><a xlink:title=" ">
<path fill="none" stroke="#63b8ff" d="M2270.78,-397.33C2256.26,-353.16 2219.72,-257.28 2160,-198 2114.85,-153.19 2093.49,-151.67 2033,-132 1945,-103.39 1838.47,-91.03 1770.23,-85.78"/>
<polygon fill="#63b8ff" stroke="#63b8ff" points="2267.46,-398.46 2273.84,-406.92 2274.13,-396.32 2267.46,-398.46"/>
</a>
</g>
</g>
</g>
</svg>
