<?xml version="1.0" encoding="UTF-8" standalone="no"?>
<!DOCTYPE svg PUBLIC "-//W3C//DTD SVG 1.1//EN"
 "http://www.w3.org/Graphics/SVG/1.1/DTD/svg11.dtd">
<!-- Generated by graphviz version 2.43.0 (0)
 -->
<!-- Title: include/Thoth/Http/Request/QueryParams.hpp Pages: 1 -->
<svg width="1511pt" height="500pt"
 viewBox="0.00 0.00 1511.15 500.00" xmlns="http://www.w3.org/2000/svg" xmlns:xlink="http://www.w3.org/1999/xlink">
<g id="graph0" class="graph" transform="scale(1 1) rotate(0) translate(4 496)">
<title>include/Thoth/Http/Request/QueryParams.hpp</title>
<!-- Node1 -->
<g id="Node000001" class="node">
<title>Node1</title>
<g id="a_Node000001"><a xlink:title=" ">
<polygon fill="#999999" stroke="#666666" points="747.15,-492 598.15,-492 598.15,-462 747.15,-462 747.15,-492"/>
<text text-anchor="start" x="606.15" y="-480" font-family="Helvetica,sans-Serif" font-size="10.00">include/Thoth/Http</text>
<text text-anchor="middle" x="672.65" y="-469" font-family="Helvetica,sans-Serif" font-size="10.00">/Request/QueryParams.hpp</text>
</a>
</g>
</g>
<!-- Node2 -->
<g id="Node000002" class="node">
<title>Node2</title>
<g id="a_Node000002"><a xlink:href="_url_8hpp.html" target="_top" xlink:title=" ">
<polygon fill="white" stroke="#666666" points="726.15,-426 619.15,-426 619.15,-396 726.15,-396 726.15,-426"/>
<text text-anchor="start" x="627.15" y="-414" font-family="Helvetica,sans-Serif" font-size="10.00">include/Thoth/Http</text>
<text text-anchor="middle" x="672.65" y="-403" font-family="Helvetica,sans-Serif" font-size="10.00">/Request/Url.hpp</text>
</a>
</g>
</g>
<!-- Node1&#45;&gt;Node2 -->
<g id="edge1_Node000001_Node000002" class="edge">
<title>Node1&#45;&gt;Node2</title>
<g id="a_edge1_Node000001_Node000002"><a xlink:title=" ">
<path fill="none" stroke="#63b8ff" d="M672.65,-451.54C672.65,-442.96 672.65,-433.61 672.65,-426.16"/>
<polygon fill="#63b8ff" stroke="#63b8ff" points="669.15,-451.8 672.65,-461.8 676.15,-451.8 669.15,-451.8"/>
</a>
</g>
</g>
<!-- Node3 -->
<g id="Node000003" class="node">
<title>Node3</title>
<g id="a_Node000003"><a xlink:href="_method_concept_8hpp.html" target="_top" xlink:title=" ">
<polygon fill="white" stroke="#666666" points="769.65,-294 575.65,-294 575.65,-264 769.65,-264 769.65,-294"/>
<text text-anchor="start" x="583.65" y="-282" font-family="Helvetica,sans-Serif" font-size="10.00">include/Thoth/Http</text>
<text text-anchor="middle" x="672.65" y="-271" font-family="Helvetica,sans-Serif" font-size="10.00">/Methods/_base/MethodConcept.hpp</text>
</a>
</g>
</g>
<!-- Node2&#45;&gt;Node3 -->
<g id="edge2_Node000002_Node000003" class="edge">
<title>Node2&#45;&gt;Node3</title>
<g id="a_edge2_Node000002_Node000003"><a xlink:title=" ">
<path fill="none" stroke="#63b8ff" d="M672.65,-385.68C672.65,-358.7 672.65,-316.11 672.65,-294.14"/>
<polygon fill="#63b8ff" stroke="#63b8ff" points="669.15,-385.84 672.65,-395.84 676.15,-385.84 669.15,-385.84"/>
</a>
</g>
</g>
<!-- Node7 -->
<g id="Node000007" class="node">
<title>Node7</title>
<g id="a_Node000007"><a xlink:href="_request_8hpp.html" target="_top" xlink:title=" ">
<polygon fill="white" stroke="#666666" points="146.15,-162 23.15,-162 23.15,-132 146.15,-132 146.15,-162"/>
<text text-anchor="start" x="31.15" y="-150" font-family="Helvetica,sans-Serif" font-size="10.00">include/Thoth/Http</text>
<text text-anchor="middle" x="84.65" y="-139" font-family="Helvetica,sans-Serif" font-size="10.00">/Request/Request.hpp</text>
</a>
</g>
</g>
<!-- Node2&#45;&gt;Node7 -->
<g id="edge23_Node000002_Node000007" class="edge">
<title>Node2&#45;&gt;Node7</title>
<g id="a_edge23_Node000002_Node000007"><a xlink:title=" ">
<path fill="none" stroke="#63b8ff" d="M608.97,-402.37C456.9,-382.72 79.72,-324.98 5.65,-228 -2.44,-217.4 -0.78,-209.68 5.65,-198 14.58,-181.79 31.22,-170.1 46.94,-162.12"/>
<polygon fill="#63b8ff" stroke="#63b8ff" points="608.73,-405.87 619.09,-403.67 609.62,-398.93 608.73,-405.87"/>
</a>
</g>
</g>
<!-- Node16 -->
<g id="Node000016" class="node">
<title>Node16</title>
<g id="a_Node000016"><a xlink:href="_headers_8hpp.html" target="_top" xlink:title=" ">
<polygon fill="white" stroke="#666666" points="884.65,-360 752.65,-360 752.65,-330 884.65,-330 884.65,-360"/>
<text text-anchor="start" x="760.65" y="-348" font-family="Helvetica,sans-Serif" font-size="10.00">include/Thoth/Http</text>
<text text-anchor="middle" x="818.65" y="-337" font-family="Helvetica,sans-Serif" font-size="10.00">/NHeaders/Headers.hpp</text>
</a>
</g>
</g>
<!-- Node2&#45;&gt;Node16 -->
<g id="edge19_Node000002_Node000016" class="edge">
<title>Node2&#45;&gt;Node16</title>
<g id="a_edge19_Node000002_Node000016"><a xlink:title=" ">
<path fill="none" stroke="#63b8ff" d="M713.9,-391.92C736.98,-381.8 765.31,-369.38 786.69,-360.01"/>
<polygon fill="#63b8ff" stroke="#63b8ff" points="712.45,-388.73 704.69,-395.95 715.26,-395.15 712.45,-388.73"/>
</a>
</g>
</g>
<!-- Node4 -->
<g id="Node000004" class="node">
<title>Node4</title>
<g id="a_Node000004"><a xlink:href="_connect_method_8hpp.html" target="_top" xlink:title=" ">
<polygon fill="white" stroke="#666666" points="1168.65,-228 1006.65,-228 1006.65,-198 1168.65,-198 1168.65,-228"/>
<text text-anchor="start" x="1014.65" y="-216" font-family="Helvetica,sans-Serif" font-size="10.00">include/Thoth/Http</text>
<text text-anchor="middle" x="1087.65" y="-205" font-family="Helvetica,sans-Serif" font-size="10.00">/Methods/ConnectMethod.hpp</text>
</a>
</g>
</g>
<!-- Node3&#45;&gt;Node4 -->
<g id="edge3_Node000003_Node000004" class="edge">
<title>Node3&#45;&gt;Node4</title>
<g id="a_edge3_Node000003_Node000004"><a xlink:title=" ">
<path fill="none" stroke="#63b8ff" d="M774.17,-262.43C838.27,-252.58 922.82,-239.58 997.65,-228 1000.47,-227.56 1003.33,-227.12 1006.22,-226.67"/>
<polygon fill="#63b8ff" stroke="#63b8ff" points="773.42,-259 764.07,-263.98 774.48,-265.92 773.42,-259"/>
</a>
</g>
</g>
<!-- Node5 -->
<g id="Node000005" class="node">
<title>Node5</title>
<g id="a_Node000005"><a xlink:href="_delete_method_8hpp.html" target="_top" xlink:title=" ">
<polygon fill="white" stroke="#666666" points="1342.15,-228 1187.15,-228 1187.15,-198 1342.15,-198 1342.15,-228"/>
<text text-anchor="start" x="1195.15" y="-216" font-family="Helvetica,sans-Serif" font-size="10.00">include/Thoth/Http</text>
<text text-anchor="middle" x="1264.65" y="-205" font-family="Helvetica,sans-Serif" font-size="10.00">/Methods/DeleteMethod.hpp</text>
</a>
</g>
</g>
<!-- Node3&#45;&gt;Node5 -->
<g id="edge4_Node000003_Node000005" class="edge">
<title>Node3&#45;&gt;Node5</title>
<g id="a_edge4_Node000003_Node000005"><a xlink:title=" ">
<path fill="none" stroke="#63b8ff" d="M779.62,-263.93C957.3,-244.54 1004.18,-249.76 1177.65,-228 1180.69,-227.62 1183.78,-227.21 1186.9,-226.79"/>
<polygon fill="#63b8ff" stroke="#63b8ff" points="779.24,-260.45 769.68,-265.02 780,-267.41 779.24,-260.45"/>
</a>
</g>
</g>
<!-- Node6 -->
<g id="Node000006" class="node">
<title>Node6</title>
<g id="a_Node000006"><a xlink:href="_get_method_8hpp.html" target="_top" xlink:title=" ">
<polygon fill="white" stroke="#666666" points="154.65,-228 14.65,-228 14.65,-198 154.65,-198 154.65,-228"/>
<text text-anchor="start" x="22.65" y="-216" font-family="Helvetica,sans-Serif" font-size="10.00">include/Thoth/Http</text>
<text text-anchor="middle" x="84.65" y="-205" font-family="Helvetica,sans-Serif" font-size="10.00">/Methods/GetMethod.hpp</text>
</a>
</g>
</g>
<!-- Node3&#45;&gt;Node6 -->
<g id="edge5_Node000003_Node000006" class="edge">
<title>Node3&#45;&gt;Node6</title>
<g id="a_edge5_Node000003_Node000006"><a xlink:title=" ">
<path fill="none" stroke="#63b8ff" d="M565.17,-269.87C461.96,-261.5 301.78,-246.99 163.65,-228 160.76,-227.6 157.8,-227.17 154.82,-226.73"/>
<polygon fill="#63b8ff" stroke="#63b8ff" points="565.04,-273.38 575.29,-270.69 565.6,-266.4 565.04,-273.38"/>
</a>
</g>
</g>
<!-- Node10 -->
<g id="Node000010" class="node">
<title>Node10</title>
<g id="a_Node000010"><a xlink:href="_head_method_8hpp.html" target="_top" xlink:title=" ">
<polygon fill="white" stroke="#666666" points="320.65,-228 172.65,-228 172.65,-198 320.65,-198 320.65,-228"/>
<text text-anchor="start" x="180.65" y="-216" font-family="Helvetica,sans-Serif" font-size="10.00">include/Thoth/Http</text>
<text text-anchor="middle" x="246.65" y="-205" font-family="Helvetica,sans-Serif" font-size="10.00">/Methods/HeadMethod.hpp</text>
</a>
</g>
</g>
<!-- Node3&#45;&gt;Node10 -->
<g id="edge11_Node000003_Node000010" class="edge">
<title>Node3&#45;&gt;Node10</title>
<g id="a_edge11_Node000003_Node000010"><a xlink:title=" ">
<path fill="none" stroke="#63b8ff" d="M565.11,-262.95C497.47,-253.33 408.39,-240.38 329.65,-228 326.77,-227.55 323.82,-227.08 320.85,-226.6"/>
<polygon fill="#63b8ff" stroke="#63b8ff" points="564.96,-266.47 575.36,-264.41 565.95,-259.54 564.96,-266.47"/>
</a>
</g>
</g>
<!-- Node11 -->
<g id="Node000011" class="node">
<title>Node11</title>
<g id="a_Node000011"><a xlink:href="_options_method_8hpp.html" target="_top" xlink:title=" ">
<polygon fill="white" stroke="#666666" points="498.65,-228 338.65,-228 338.65,-198 498.65,-198 498.65,-228"/>
<text text-anchor="start" x="346.65" y="-216" font-family="Helvetica,sans-Serif" font-size="10.00">include/Thoth/Http</text>
<text text-anchor="middle" x="418.65" y="-205" font-family="Helvetica,sans-Serif" font-size="10.00">/Methods/OptionsMethod.hpp</text>
</a>
</g>
</g>
<!-- Node3&#45;&gt;Node11 -->
<g id="edge12_Node000003_Node000011" class="edge">
<title>Node3&#45;&gt;Node11</title>
<g id="a_edge12_Node000003_Node000011"><a xlink:title=" ">
<path fill="none" stroke="#63b8ff" d="M606.98,-261.45C565.82,-251.08 513.36,-237.86 474.27,-228.01"/>
<polygon fill="#63b8ff" stroke="#63b8ff" points="606.36,-264.91 616.91,-263.95 608.07,-258.12 606.36,-264.91"/>
</a>
</g>
</g>
<!-- Node12 -->
<g id="Node000012" class="node">
<title>Node12</title>
<g id="a_Node000012"><a xlink:href="_patch_method_8hpp.html" target="_top" xlink:title=" ">
<polygon fill="white" stroke="#666666" points="666.15,-228 517.15,-228 517.15,-198 666.15,-198 666.15,-228"/>
<text text-anchor="start" x="525.15" y="-216" font-family="Helvetica,sans-Serif" font-size="10.00">include/Thoth/Http</text>
<text text-anchor="middle" x="591.65" y="-205" font-family="Helvetica,sans-Serif" font-size="10.00">/Methods/PatchMethod.hpp</text>
</a>
</g>
</g>
<!-- Node3&#45;&gt;Node12 -->
<g id="edge13_Node000003_Node000012" class="edge">
<title>Node3&#45;&gt;Node12</title>
<g id="a_edge13_Node000003_Node000012"><a xlink:title=" ">
<path fill="none" stroke="#63b8ff" d="M646.68,-257.48C634.58,-247.91 620.48,-236.77 609.58,-228.16"/>
<polygon fill="#63b8ff" stroke="#63b8ff" points="644.66,-260.34 654.68,-263.8 649,-254.85 644.66,-260.34"/>
</a>
</g>
</g>
<!-- Node13 -->
<g id="Node000013" class="node">
<title>Node13</title>
<g id="a_Node000013"><a xlink:href="_post_method_8hpp.html" target="_top" xlink:title=" ">
<polygon fill="white" stroke="#666666" points="1503.15,-228 1360.15,-228 1360.15,-198 1503.15,-198 1503.15,-228"/>
<text text-anchor="start" x="1368.15" y="-216" font-family="Helvetica,sans-Serif" font-size="10.00">include/Thoth/Http</text>
<text text-anchor="middle" x="1431.65" y="-205" font-family="Helvetica,sans-Serif" font-size="10.00">/Methods/PostMethod.hpp</text>
</a>
</g>
</g>
<!-- Node3&#45;&gt;Node13 -->
<g id="edge14_Node000003_Node000013" class="edge">
<title>Node3&#45;&gt;Node13</title>
<g id="a_edge14_Node000003_Node000013"><a xlink:title=" ">
<path fill="none" stroke="#63b8ff" d="M779.97,-263.92C1034.39,-239.77 1101.6,-257.64 1351.65,-228 1354.31,-227.68 1357.02,-227.34 1359.75,-226.97"/>
<polygon fill="#63b8ff" stroke="#63b8ff" points="779.29,-260.47 769.67,-264.92 779.96,-267.44 779.29,-260.47"/>
</a>
</g>
</g>
<!-- Node14 -->
<g id="Node000014" class="node">
<title>Node14</title>
<g id="a_Node000014"><a xlink:href="_put_method_8hpp.html" target="_top" xlink:title=" ">
<polygon fill="white" stroke="#666666" points="822.65,-228 684.65,-228 684.65,-198 822.65,-198 822.65,-228"/>
<text text-anchor="start" x="692.65" y="-216" font-family="Helvetica,sans-Serif" font-size="10.00">include/Thoth/Http</text>
<text text-anchor="middle" x="753.65" y="-205" font-family="Helvetica,sans-Serif" font-size="10.00">/Methods/PutMethod.hpp</text>
</a>
</g>
</g>
<!-- Node3&#45;&gt;Node14 -->
<g id="edge17_Node000003_Node000014" class="edge">
<title>Node3&#45;&gt;Node14</title>
<g id="a_edge17_Node000003_Node000014"><a xlink:title=" ">
<path fill="none" stroke="#63b8ff" d="M698.63,-257.48C710.73,-247.91 724.83,-236.77 735.73,-228.16"/>
<polygon fill="#63b8ff" stroke="#63b8ff" points="696.31,-254.85 690.63,-263.8 700.65,-260.34 696.31,-254.85"/>
</a>
</g>
</g>
<!-- Node15 -->
<g id="Node000015" class="node">
<title>Node15</title>
<g id="a_Node000015"><a xlink:href="_trace_method_8hpp.html" target="_top" xlink:title=" ">
<polygon fill="white" stroke="#666666" points="988.65,-228 840.65,-228 840.65,-198 988.65,-198 988.65,-228"/>
<text text-anchor="start" x="848.65" y="-216" font-family="Helvetica,sans-Serif" font-size="10.00">include/Thoth/Http</text>
<text text-anchor="middle" x="914.65" y="-205" font-family="Helvetica,sans-Serif" font-size="10.00">/Methods/TraceMethod.hpp</text>
</a>
</g>
</g>
<!-- Node3&#45;&gt;Node15 -->
<g id="edge18_Node000003_Node000015" class="edge">
<title>Node3&#45;&gt;Node15</title>
<g id="a_edge18_Node000003_Node000015"><a xlink:title=" ">
<path fill="none" stroke="#63b8ff" d="M735.48,-261.39C774.65,-251.03 824.5,-237.84 861.67,-228.01"/>
<polygon fill="#63b8ff" stroke="#63b8ff" points="734.53,-258.01 725.76,-263.95 736.32,-264.78 734.53,-258.01"/>
</a>
</g>
</g>
<!-- Node6&#45;&gt;Node7 -->
<g id="edge6_Node000006_Node000007" class="edge">
<title>Node6&#45;&gt;Node7</title>
<g id="a_edge6_Node000006_Node000007"><a xlink:title=" ">
<path fill="none" stroke="#63b8ff" d="M84.65,-187.54C84.65,-178.96 84.65,-169.61 84.65,-162.16"/>
<polygon fill="#63b8ff" stroke="#63b8ff" points="81.15,-187.8 84.65,-197.8 88.15,-187.8 81.15,-187.8"/>
</a>
</g>
</g>
<!-- Node9 -->
<g id="Node000009" class="node">
<title>Node9</title>
<g id="a_Node000009"><a xlink:href="_response_8hpp.html" target="_top" xlink:title=" ">
<polygon fill="white" stroke="#666666" points="247.65,-96 109.65,-96 109.65,-66 247.65,-66 247.65,-96"/>
<text text-anchor="start" x="117.65" y="-84" font-family="Helvetica,sans-Serif" font-size="10.00">include/Thoth/Http</text>
<text text-anchor="middle" x="178.65" y="-73" font-family="Helvetica,sans-Serif" font-size="10.00">/Response/Response.hpp</text>
</a>
</g>
</g>
<!-- Node6&#45;&gt;Node9 -->
<g id="edge10_Node000006_Node000009" class="edge">
<title>Node6&#45;&gt;Node9</title>
<g id="a_edge10_Node000006_Node000009"><a xlink:title=" ">
<path fill="none" stroke="#63b8ff" d="M121.35,-192.41C133.44,-184.39 145.98,-174.12 154.65,-162 169,-141.95 174.87,-113.25 177.2,-96.23"/>
<polygon fill="#63b8ff" stroke="#63b8ff" points="119.31,-189.56 112.7,-197.84 123.03,-195.49 119.31,-189.56"/>
</a>
</g>
</g>
<!-- Node8 -->
<g id="Node000008" class="node">
<title>Node8</title>
<g id="a_Node000008"><a xlink:href="_client_8hpp.html" target="_top" xlink:title=" ">
<polygon fill="white" stroke="#666666" points="183.15,-30 76.15,-30 76.15,0 183.15,0 183.15,-30"/>
<text text-anchor="start" x="84.15" y="-18" font-family="Helvetica,sans-Serif" font-size="10.00">include/Thoth/Http</text>
<text text-anchor="middle" x="129.65" y="-7" font-family="Helvetica,sans-Serif" font-size="10.00">/Client.hpp</text>
</a>
</g>
</g>
<!-- Node7&#45;&gt;Node8 -->
<g id="edge7_Node000007_Node000008" class="edge">
<title>Node7&#45;&gt;Node8</title>
<g id="a_edge7_Node000007_Node000008"><a xlink:title=" ">
<path fill="none" stroke="#63b8ff" d="M87.43,-121.51C89.77,-105.37 93.86,-83.98 100.65,-66 105.48,-53.23 113.36,-39.92 119.69,-30.24"/>
<polygon fill="#63b8ff" stroke="#63b8ff" points="83.92,-121.37 86.08,-131.74 90.86,-122.28 83.92,-121.37"/>
</a>
</g>
</g>
<!-- Node7&#45;&gt;Node9 -->
<g id="edge8_Node000007_Node000009" class="edge">
<title>Node7&#45;&gt;Node9</title>
<g id="a_edge8_Node000007_Node000009"><a xlink:title=" ">
<path fill="none" stroke="#63b8ff" d="M113.99,-126.03C128.21,-116.34 144.96,-104.94 157.85,-96.16"/>
<polygon fill="#63b8ff" stroke="#63b8ff" points="111.81,-123.28 105.52,-131.8 115.75,-129.06 111.81,-123.28"/>
</a>
</g>
</g>
<!-- Node9&#45;&gt;Node8 -->
<g id="edge9_Node000009_Node000008" class="edge">
<title>Node9&#45;&gt;Node8</title>
<g id="a_edge9_Node000009_Node000008"><a xlink:title=" ">
<path fill="none" stroke="#63b8ff" d="M161.66,-57.81C154.64,-48.64 146.71,-38.28 140.5,-30.16"/>
<polygon fill="#63b8ff" stroke="#63b8ff" points="158.92,-59.98 167.78,-65.8 164.48,-55.73 158.92,-59.98"/>
</a>
</g>
</g>
<!-- Node13&#45;&gt;Node7 -->
<g id="edge15_Node000013_Node000007" class="edge">
<title>Node13&#45;&gt;Node7</title>
<g id="a_edge15_Node000013_Node000007"><a xlink:title=" ">
<path fill="none" stroke="#63b8ff" d="M1349.77,-197.91C1094.13,-172.12 363.45,-154.22 146.23,-149.34"/>
<polygon fill="#63b8ff" stroke="#63b8ff" points="1349.45,-201.4 1359.76,-198.95 1350.18,-194.44 1349.45,-201.4"/>
</a>
</g>
</g>
<!-- Node13&#45;&gt;Node9 -->
<g id="edge16_Node000013_Node000009" class="edge">
<title>Node13&#45;&gt;Node9</title>
<g id="a_edge16_Node000013_Node000009"><a xlink:title=" ">
<path fill="none" stroke="#63b8ff" d="M1349.75,-197.79C926.37,-140.29 428.15,-100.52 247.95,-87.03"/>
<polygon fill="#63b8ff" stroke="#63b8ff" points="1349.35,-201.27 1359.74,-199.15 1350.3,-194.33 1349.35,-201.27"/>
</a>
</g>
</g>
<!-- Node16&#45;&gt;Node3 -->
<g id="edge20_Node000016_Node000003" class="edge">
<title>Node16&#45;&gt;Node3</title>
<g id="a_edge20_Node000016_Node000003"><a xlink:title=" ">
<path fill="none" stroke="#63b8ff" d="M777.41,-325.92C754.33,-315.8 726,-303.38 704.62,-294.01"/>
<polygon fill="#63b8ff" stroke="#63b8ff" points="776.05,-329.15 786.61,-329.95 778.86,-322.73 776.05,-329.15"/>
</a>
</g>
</g>
<!-- Node17 -->
<g id="Node000017" class="node">
<title>Node17</title>
<g id="a_Node000017"><a xlink:href="_list_proxy_8hpp.html" target="_top" xlink:title=" ">
<polygon fill="white" stroke="#666666" points="953.65,-294 787.65,-294 787.65,-264 953.65,-264 953.65,-294"/>
<text text-anchor="start" x="795.65" y="-282" font-family="Helvetica,sans-Serif" font-size="10.00">include/Thoth/Http</text>
<text text-anchor="middle" x="870.65" y="-271" font-family="Helvetica,sans-Serif" font-size="10.00">/NHeaders/Proxy/ListProxy.hpp</text>
</a>
</g>
</g>
<!-- Node16&#45;&gt;Node17 -->
<g id="edge21_Node000016_Node000017" class="edge">
<title>Node16&#45;&gt;Node17</title>
<g id="a_edge21_Node000016_Node000017"><a xlink:title=" ">
<path fill="none" stroke="#63b8ff" d="M836.69,-321.81C844.14,-312.64 852.55,-302.28 859.15,-294.16"/>
<polygon fill="#63b8ff" stroke="#63b8ff" points="833.78,-319.83 830.19,-329.8 839.22,-324.24 833.78,-319.83"/>
</a>
</g>
</g>
<!-- Node18 -->
<g id="Node000018" class="node">
<title>Node18</title>
<g id="a_Node000018"><a xlink:href="_value_proxy_8hpp.html" target="_top" xlink:title=" ">
<polygon fill="white" stroke="#666666" points="1147.65,-294 971.65,-294 971.65,-264 1147.65,-264 1147.65,-294"/>
<text text-anchor="start" x="979.65" y="-282" font-family="Helvetica,sans-Serif" font-size="10.00">include/Thoth/Http</text>
<text text-anchor="middle" x="1059.65" y="-271" font-family="Helvetica,sans-Serif" font-size="10.00">/NHeaders/Proxy/ValueProxy.hpp</text>
</a>
</g>
</g>
<!-- Node16&#45;&gt;Node18 -->
<g id="edge22_Node000016_Node000018" class="edge">
<title>Node16&#45;&gt;Node18</title>
<g id="a_edge22_Node000016_Node000018"><a xlink:title=" ">
<path fill="none" stroke="#63b8ff" d="M881.22,-327.39C920.23,-317.03 969.87,-303.84 1006.89,-294.01"/>
<polygon fill="#63b8ff" stroke="#63b8ff" points="880.31,-324.01 871.54,-329.95 882.11,-330.77 880.31,-324.01"/>
</a>
</g>
</g>
</g>
</svg>
