<?xml version="1.0" encoding="UTF-8" standalone="no"?>
<!DOCTYPE svg PUBLIC "-//W3C//DTD SVG 1.1//EN"
 "http://www.w3.org/Graphics/SVG/1.1/DTD/svg11.dtd">
<!-- Generated by graphviz version 2.43.0 (0)
 -->
<!-- Title: include/Thoth/Http/Request/QueryParams.hpp Pages: 1 -->
<svg width="1511pt" height="368pt"
 viewBox="0.00 0.00 1510.82 368.00" xmlns="http://www.w3.org/2000/svg" xmlns:xlink="http://www.w3.org/1999/xlink">
<g id="graph0" class="graph" transform="scale(1 1) rotate(0) translate(4 364)">
<title>include/Thoth/Http/Request/QueryParams.hpp</title>
<!-- Node1 -->
<g id="Node000001" class="node">
<title>Node1</title>
<g id="a_Node000001"><a xlink:title=" ">
<polygon fill="#999999" stroke="#666666" points="362.82,-360 213.82,-360 213.82,-330 362.82,-330 362.82,-360"/>
<text text-anchor="start" x="221.82" y="-348" font-family="Helvetica,sans-Serif" font-size="10.00">include/Thoth/Http</text>
<text text-anchor="middle" x="288.32" y="-337" font-family="Helvetica,sans-Serif" font-size="10.00">/Request/QueryParams.hpp</text>
</a>
</g>
</g>
<!-- Node2 -->
<g id="Node000002" class="node">
<title>Node2</title>
<g id="a_Node000002"><a xlink:href="_url_8hpp.html" target="_top" xlink:title=" ">
<polygon fill="white" stroke="#666666" points="341.82,-294 234.82,-294 234.82,-264 341.82,-264 341.82,-294"/>
<text text-anchor="start" x="242.82" y="-282" font-family="Helvetica,sans-Serif" font-size="10.00">include/Thoth/Http</text>
<text text-anchor="middle" x="288.32" y="-271" font-family="Helvetica,sans-Serif" font-size="10.00">/Request/Url.hpp</text>
</a>
</g>
</g>
<!-- Node1&#45;&gt;Node2 -->
<g id="edge1_Node000001_Node000002" class="edge">
<title>Node1&#45;&gt;Node2</title>
<g id="a_edge1_Node000001_Node000002"><a xlink:title=" ">
<path fill="none" stroke="#63b8ff" d="M288.32,-319.54C288.32,-310.96 288.32,-301.61 288.32,-294.16"/>
<polygon fill="#63b8ff" stroke="#63b8ff" points="284.82,-319.8 288.32,-329.8 291.82,-319.8 284.82,-319.8"/>
</a>
</g>
</g>
<!-- Node3 -->
<g id="Node000003" class="node">
<title>Node3</title>
<g id="a_Node000003"><a xlink:href="_method_concept_8hpp.html" target="_top" xlink:title=" ">
<polygon fill="white" stroke="#666666" points="769.32,-228 575.32,-228 575.32,-198 769.32,-198 769.32,-228"/>
<text text-anchor="start" x="583.32" y="-216" font-family="Helvetica,sans-Serif" font-size="10.00">include/Thoth/Http</text>
<text text-anchor="middle" x="672.32" y="-205" font-family="Helvetica,sans-Serif" font-size="10.00">/Methods/_base/MethodConcept.hpp</text>
</a>
</g>
</g>
<!-- Node2&#45;&gt;Node3 -->
<g id="edge2_Node000002_Node000003" class="edge">
<title>Node2&#45;&gt;Node3</title>
<g id="a_edge2_Node000002_Node000003"><a xlink:title=" ">
<path fill="none" stroke="#63b8ff" d="M352.18,-267.36C416.82,-256.58 517.12,-239.87 588.2,-228.02"/>
<polygon fill="#63b8ff" stroke="#63b8ff" points="351.41,-263.94 342.12,-269.03 352.56,-270.84 351.41,-263.94"/>
</a>
</g>
</g>
<!-- Node7 -->
<g id="Node000007" class="node">
<title>Node7</title>
<g id="a_Node000007"><a xlink:href="_request_8hpp.html" target="_top" xlink:title=" ">
<polygon fill="white" stroke="#666666" points="145.82,-96 22.82,-96 22.82,-66 145.82,-66 145.82,-96"/>
<text text-anchor="start" x="30.82" y="-84" font-family="Helvetica,sans-Serif" font-size="10.00">include/Thoth/Http</text>
<text text-anchor="middle" x="84.32" y="-73" font-family="Helvetica,sans-Serif" font-size="10.00">/Request/Request.hpp</text>
</a>
</g>
</g>
<!-- Node2&#45;&gt;Node7 -->
<g id="edge18_Node000002_Node000007" class="edge">
<title>Node2&#45;&gt;Node7</title>
<g id="a_edge18_Node000002_Node000007"><a xlink:title=" ">
<path fill="none" stroke="#63b8ff" d="M224.71,-271.99C157.32,-261.85 54.07,-234.67 5.32,-162 -2.11,-150.93 -1.11,-143.68 5.32,-132 14.25,-115.79 30.89,-104.1 46.6,-96.12"/>
<polygon fill="#63b8ff" stroke="#63b8ff" points="224.4,-275.48 234.79,-273.42 225.39,-268.55 224.4,-275.48"/>
</a>
</g>
</g>
<!-- Node4 -->
<g id="Node000004" class="node">
<title>Node4</title>
<g id="a_Node000004"><a xlink:href="_connect_method_8hpp.html" target="_top" xlink:title=" ">
<polygon fill="white" stroke="#666666" points="1168.32,-162 1006.32,-162 1006.32,-132 1168.32,-132 1168.32,-162"/>
<text text-anchor="start" x="1014.32" y="-150" font-family="Helvetica,sans-Serif" font-size="10.00">include/Thoth/Http</text>
<text text-anchor="middle" x="1087.32" y="-139" font-family="Helvetica,sans-Serif" font-size="10.00">/Methods/ConnectMethod.hpp</text>
</a>
</g>
</g>
<!-- Node3&#45;&gt;Node4 -->
<g id="edge3_Node000003_Node000004" class="edge">
<title>Node3&#45;&gt;Node4</title>
<g id="a_edge3_Node000003_Node000004"><a xlink:title=" ">
<path fill="none" stroke="#63b8ff" d="M773.84,-196.43C837.94,-186.58 922.48,-173.58 997.32,-162 1000.13,-161.56 1003,-161.12 1005.89,-160.67"/>
<polygon fill="#63b8ff" stroke="#63b8ff" points="773.09,-193 763.74,-197.98 774.15,-199.92 773.09,-193"/>
</a>
</g>
</g>
<!-- Node5 -->
<g id="Node000005" class="node">
<title>Node5</title>
<g id="a_Node000005"><a xlink:href="_delete_method_8hpp.html" target="_top" xlink:title=" ">
<polygon fill="white" stroke="#666666" points="1341.82,-162 1186.82,-162 1186.82,-132 1341.82,-132 1341.82,-162"/>
<text text-anchor="start" x="1194.82" y="-150" font-family="Helvetica,sans-Serif" font-size="10.00">include/Thoth/Http</text>
<text text-anchor="middle" x="1264.32" y="-139" font-family="Helvetica,sans-Serif" font-size="10.00">/Methods/DeleteMethod.hpp</text>
</a>
</g>
</g>
<!-- Node3&#45;&gt;Node5 -->
<g id="edge4_Node000003_Node000005" class="edge">
<title>Node3&#45;&gt;Node5</title>
<g id="a_edge4_Node000003_Node000005"><a xlink:title=" ">
<path fill="none" stroke="#63b8ff" d="M779.37,-203.3C881.74,-194.54 1040.35,-179.79 1177.32,-162 1180.36,-161.61 1183.45,-161.19 1186.57,-160.75"/>
<polygon fill="#63b8ff" stroke="#63b8ff" points="779,-199.82 769.33,-204.16 779.59,-206.8 779,-199.82"/>
</a>
</g>
</g>
<!-- Node6 -->
<g id="Node000006" class="node">
<title>Node6</title>
<g id="a_Node000006"><a xlink:href="_get_method_8hpp.html" target="_top" xlink:title=" ">
<polygon fill="white" stroke="#666666" points="154.32,-162 14.32,-162 14.32,-132 154.32,-132 154.32,-162"/>
<text text-anchor="start" x="22.32" y="-150" font-family="Helvetica,sans-Serif" font-size="10.00">include/Thoth/Http</text>
<text text-anchor="middle" x="84.32" y="-139" font-family="Helvetica,sans-Serif" font-size="10.00">/Methods/GetMethod.hpp</text>
</a>
</g>
</g>
<!-- Node3&#45;&gt;Node6 -->
<g id="edge5_Node000003_Node000006" class="edge">
<title>Node3&#45;&gt;Node6</title>
<g id="a_edge5_Node000003_Node000006"><a xlink:title=" ">
<path fill="none" stroke="#63b8ff" d="M564.84,-203.87C461.62,-195.5 301.45,-180.99 163.32,-162 160.42,-161.6 157.47,-161.17 154.49,-160.73"/>
<polygon fill="#63b8ff" stroke="#63b8ff" points="564.71,-207.38 574.95,-204.69 565.27,-200.4 564.71,-207.38"/>
</a>
</g>
</g>
<!-- Node10 -->
<g id="Node000010" class="node">
<title>Node10</title>
<g id="a_Node000010"><a xlink:href="_head_method_8hpp.html" target="_top" xlink:title=" ">
<polygon fill="white" stroke="#666666" points="320.32,-162 172.32,-162 172.32,-132 320.32,-132 320.32,-162"/>
<text text-anchor="start" x="180.32" y="-150" font-family="Helvetica,sans-Serif" font-size="10.00">include/Thoth/Http</text>
<text text-anchor="middle" x="246.32" y="-139" font-family="Helvetica,sans-Serif" font-size="10.00">/Methods/HeadMethod.hpp</text>
</a>
</g>
</g>
<!-- Node3&#45;&gt;Node10 -->
<g id="edge10_Node000003_Node000010" class="edge">
<title>Node3&#45;&gt;Node10</title>
<g id="a_edge10_Node000003_Node000010"><a xlink:title=" ">
<path fill="none" stroke="#63b8ff" d="M564.78,-196.95C497.14,-187.33 408.06,-174.38 329.32,-162 326.43,-161.55 323.49,-161.08 320.52,-160.6"/>
<polygon fill="#63b8ff" stroke="#63b8ff" points="564.63,-200.47 575.03,-198.41 565.62,-193.54 564.63,-200.47"/>
</a>
</g>
</g>
<!-- Node11 -->
<g id="Node000011" class="node">
<title>Node11</title>
<g id="a_Node000011"><a xlink:href="_options_method_8hpp.html" target="_top" xlink:title=" ">
<polygon fill="white" stroke="#666666" points="498.32,-162 338.32,-162 338.32,-132 498.32,-132 498.32,-162"/>
<text text-anchor="start" x="346.32" y="-150" font-family="Helvetica,sans-Serif" font-size="10.00">include/Thoth/Http</text>
<text text-anchor="middle" x="418.32" y="-139" font-family="Helvetica,sans-Serif" font-size="10.00">/Methods/OptionsMethod.hpp</text>
</a>
</g>
</g>
<!-- Node3&#45;&gt;Node11 -->
<g id="edge11_Node000003_Node000011" class="edge">
<title>Node3&#45;&gt;Node11</title>
<g id="a_edge11_Node000003_Node000011"><a xlink:title=" ">
<path fill="none" stroke="#63b8ff" d="M606.64,-195.45C565.49,-185.08 513.03,-171.86 473.93,-162.01"/>
<polygon fill="#63b8ff" stroke="#63b8ff" points="606.03,-198.91 616.58,-197.95 607.74,-192.12 606.03,-198.91"/>
</a>
</g>
</g>
<!-- Node12 -->
<g id="Node000012" class="node">
<title>Node12</title>
<g id="a_Node000012"><a xlink:href="_patch_method_8hpp.html" target="_top" xlink:title=" ">
<polygon fill="white" stroke="#666666" points="665.82,-162 516.82,-162 516.82,-132 665.82,-132 665.82,-162"/>
<text text-anchor="start" x="524.82" y="-150" font-family="Helvetica,sans-Serif" font-size="10.00">include/Thoth/Http</text>
<text text-anchor="middle" x="591.32" y="-139" font-family="Helvetica,sans-Serif" font-size="10.00">/Methods/PatchMethod.hpp</text>
</a>
</g>
</g>
<!-- Node3&#45;&gt;Node12 -->
<g id="edge12_Node000003_Node000012" class="edge">
<title>Node3&#45;&gt;Node12</title>
<g id="a_edge12_Node000003_Node000012"><a xlink:title=" ">
<path fill="none" stroke="#63b8ff" d="M646.35,-191.48C634.24,-181.91 620.14,-170.77 609.25,-162.16"/>
<polygon fill="#63b8ff" stroke="#63b8ff" points="644.33,-194.34 654.35,-197.8 648.67,-188.85 644.33,-194.34"/>
</a>
</g>
</g>
<!-- Node13 -->
<g id="Node000013" class="node">
<title>Node13</title>
<g id="a_Node000013"><a xlink:href="_post_method_8hpp.html" target="_top" xlink:title=" ">
<polygon fill="white" stroke="#666666" points="1502.82,-162 1359.82,-162 1359.82,-132 1502.82,-132 1502.82,-162"/>
<text text-anchor="start" x="1367.82" y="-150" font-family="Helvetica,sans-Serif" font-size="10.00">include/Thoth/Http</text>
<text text-anchor="middle" x="1431.32" y="-139" font-family="Helvetica,sans-Serif" font-size="10.00">/Methods/PostMethod.hpp</text>
</a>
</g>
</g>
<!-- Node3&#45;&gt;Node13 -->
<g id="edge13_Node000003_Node000013" class="edge">
<title>Node3&#45;&gt;Node13</title>
<g id="a_edge13_Node000003_Node000013"><a xlink:title=" ">
<path fill="none" stroke="#63b8ff" d="M779.88,-207.4C914.03,-200.89 1150.25,-186.93 1351.32,-162 1353.98,-161.67 1356.68,-161.31 1359.41,-160.93"/>
<polygon fill="#63b8ff" stroke="#63b8ff" points="779.42,-203.91 769.6,-207.89 779.76,-210.91 779.42,-203.91"/>
</a>
</g>
</g>
<!-- Node14 -->
<g id="Node000014" class="node">
<title>Node14</title>
<g id="a_Node000014"><a xlink:href="_put_method_8hpp.html" target="_top" xlink:title=" ">
<polygon fill="white" stroke="#666666" points="822.32,-162 684.32,-162 684.32,-132 822.32,-132 822.32,-162"/>
<text text-anchor="start" x="692.32" y="-150" font-family="Helvetica,sans-Serif" font-size="10.00">include/Thoth/Http</text>
<text text-anchor="middle" x="753.32" y="-139" font-family="Helvetica,sans-Serif" font-size="10.00">/Methods/PutMethod.hpp</text>
</a>
</g>
</g>
<!-- Node3&#45;&gt;Node14 -->
<g id="edge16_Node000003_Node000014" class="edge">
<title>Node3&#45;&gt;Node14</title>
<g id="a_edge16_Node000003_Node000014"><a xlink:title=" ">
<path fill="none" stroke="#63b8ff" d="M698.3,-191.48C710.4,-181.91 724.5,-170.77 735.4,-162.16"/>
<polygon fill="#63b8ff" stroke="#63b8ff" points="695.97,-188.85 690.3,-197.8 700.31,-194.34 695.97,-188.85"/>
</a>
</g>
</g>
<!-- Node15 -->
<g id="Node000015" class="node">
<title>Node15</title>
<g id="a_Node000015"><a xlink:href="_trace_method_8hpp.html" target="_top" xlink:title=" ">
<polygon fill="white" stroke="#666666" points="988.32,-162 840.32,-162 840.32,-132 988.32,-132 988.32,-162"/>
<text text-anchor="start" x="848.32" y="-150" font-family="Helvetica,sans-Serif" font-size="10.00">include/Thoth/Http</text>
<text text-anchor="middle" x="914.32" y="-139" font-family="Helvetica,sans-Serif" font-size="10.00">/Methods/TraceMethod.hpp</text>
</a>
</g>
</g>
<!-- Node3&#45;&gt;Node15 -->
<g id="edge17_Node000003_Node000015" class="edge">
<title>Node3&#45;&gt;Node15</title>
<g id="a_edge17_Node000003_Node000015"><a xlink:title=" ">
<path fill="none" stroke="#63b8ff" d="M735.14,-195.39C774.32,-185.03 824.17,-171.84 861.34,-162.01"/>
<polygon fill="#63b8ff" stroke="#63b8ff" points="734.2,-192.01 725.43,-197.95 735.99,-198.78 734.2,-192.01"/>
</a>
</g>
</g>
<!-- Node6&#45;&gt;Node7 -->
<g id="edge6_Node000006_Node000007" class="edge">
<title>Node6&#45;&gt;Node7</title>
<g id="a_edge6_Node000006_Node000007"><a xlink:title=" ">
<path fill="none" stroke="#63b8ff" d="M84.32,-121.54C84.32,-112.96 84.32,-103.61 84.32,-96.16"/>
<polygon fill="#63b8ff" stroke="#63b8ff" points="80.82,-121.8 84.32,-131.8 87.82,-121.8 80.82,-121.8"/>
</a>
</g>
</g>
<!-- Node9 -->
<g id="Node000009" class="node">
<title>Node9</title>
<g id="a_Node000009"><a xlink:href="_response_8hpp.html" target="_top" xlink:title=" ">
<polygon fill="white" stroke="#666666" points="270.32,-30 132.32,-30 132.32,0 270.32,0 270.32,-30"/>
<text text-anchor="start" x="140.32" y="-18" font-family="Helvetica,sans-Serif" font-size="10.00">include/Thoth/Http</text>
<text text-anchor="middle" x="201.32" y="-7" font-family="Helvetica,sans-Serif" font-size="10.00">/Response/Response.hpp</text>
</a>
</g>
</g>
<!-- Node6&#45;&gt;Node9 -->
<g id="edge9_Node000006_Node000009" class="edge">
<title>Node6&#45;&gt;Node9</title>
<g id="a_edge9_Node000006_Node000009"><a xlink:title=" ">
<path fill="none" stroke="#63b8ff" d="M118.22,-126.5C130.84,-118.17 144.67,-107.67 155.32,-96 173.68,-75.88 187.94,-47.2 195.45,-30.21"/>
<polygon fill="#63b8ff" stroke="#63b8ff" points="116.28,-123.58 109.73,-131.9 120.04,-129.48 116.28,-123.58"/>
</a>
</g>
</g>
<!-- Node8 -->
<g id="Node000008" class="node">
<title>Node8</title>
<g id="a_Node000008"><a xlink:href="_client_8hpp.html" target="_top" xlink:title=" ">
<polygon fill="white" stroke="#666666" points="113.82,-30 6.82,-30 6.82,0 113.82,0 113.82,-30"/>
<text text-anchor="start" x="14.82" y="-18" font-family="Helvetica,sans-Serif" font-size="10.00">include/Thoth/Http</text>
<text text-anchor="middle" x="60.32" y="-7" font-family="Helvetica,sans-Serif" font-size="10.00">/Client.hpp</text>
</a>
</g>
</g>
<!-- Node7&#45;&gt;Node8 -->
<g id="edge7_Node000007_Node000008" class="edge">
<title>Node7&#45;&gt;Node8</title>
<g id="a_edge7_Node000007_Node000008"><a xlink:title=" ">
<path fill="none" stroke="#63b8ff" d="M75.47,-56.39C72.17,-47.59 68.52,-37.86 65.63,-30.16"/>
<polygon fill="#63b8ff" stroke="#63b8ff" points="72.21,-57.66 79,-65.8 78.76,-55.2 72.21,-57.66"/>
</a>
</g>
</g>
<!-- Node7&#45;&gt;Node9 -->
<g id="edge8_Node000007_Node000009" class="edge">
<title>Node7&#45;&gt;Node9</title>
<g id="a_edge8_Node000007_Node000009"><a xlink:title=" ">
<path fill="none" stroke="#63b8ff" d="M119.11,-60.97C137.28,-51.03 159.11,-39.09 175.71,-30.01"/>
<polygon fill="#63b8ff" stroke="#63b8ff" points="117.09,-58.09 110,-65.95 120.45,-64.23 117.09,-58.09"/>
</a>
</g>
</g>
<!-- Node13&#45;&gt;Node7 -->
<g id="edge14_Node000013_Node000007" class="edge">
<title>Node13&#45;&gt;Node7</title>
<g id="a_edge14_Node000013_Node000007"><a xlink:title=" ">
<path fill="none" stroke="#63b8ff" d="M1349.31,-131.89C843.55,-80.72 711.34,-132.55 207.32,-96 187.28,-94.55 165.47,-92.29 145.86,-90"/>
<polygon fill="#63b8ff" stroke="#63b8ff" points="1349.13,-135.39 1359.43,-132.92 1349.84,-128.43 1349.13,-135.39"/>
</a>
</g>
</g>
<!-- Node13&#45;&gt;Node9 -->
<g id="edge15_Node000013_Node000009" class="edge">
<title>Node13&#45;&gt;Node9</title>
<g id="a_edge15_Node000013_Node000009"><a xlink:title=" ">
<path fill="none" stroke="#63b8ff" d="M1349.32,-131.78C935.13,-75.11 448.27,-34.99 270.56,-21.22"/>
<polygon fill="#63b8ff" stroke="#63b8ff" points="1349.02,-135.27 1359.4,-133.16 1349.97,-128.33 1349.02,-135.27"/>
</a>
</g>
</g>
</g>
</svg>
