<?xml version="1.0" encoding="UTF-8" standalone="no"?>
<!DOCTYPE svg PUBLIC "-//W3C//DTD SVG 1.1//EN"
 "http://www.w3.org/Graphics/SVG/1.1/DTD/svg11.dtd">
<!-- Generated by graphviz version 2.43.0 (0)
 -->
<!-- Title: include/Thoth/Http/Request/QueryParams.hpp Pages: 1 -->
<svg width="2091pt" height="577pt"
 viewBox="0.00 0.00 2091.30 577.00" xmlns="http://www.w3.org/2000/svg" xmlns:xlink="http://www.w3.org/1999/xlink">
<g id="graph0" class="graph" transform="scale(1 1) rotate(0) translate(4 573)">
<title>include/Thoth/Http/Request/QueryParams.hpp</title>
<!-- Node1 -->
<g id="Node000001" class="node">
<title>Node1</title>
<g id="a_Node000001"><a xlink:title=" ">
<polygon fill="#999999" stroke="#666666" points="1452,-569 1303,-569 1303,-539 1452,-539 1452,-569"/>
<text text-anchor="start" x="1311" y="-557" font-family="Helvetica,sans-Serif" font-size="10.00">include/Thoth/Http</text>
<text text-anchor="middle" x="1377.5" y="-546" font-family="Helvetica,sans-Serif" font-size="10.00">/Request/QueryParams.hpp</text>
</a>
</g>
</g>
<!-- Node2 -->
<g id="Node000002" class="node">
<title>Node2</title>
<g id="a_Node000002"><a xlink:href="_url_8hpp.html" target="_top" xlink:title=" ">
<polygon fill="white" stroke="#666666" points="1431,-503 1324,-503 1324,-473 1431,-473 1431,-503"/>
<text text-anchor="start" x="1332" y="-491" font-family="Helvetica,sans-Serif" font-size="10.00">include/Thoth/Http</text>
<text text-anchor="middle" x="1377.5" y="-480" font-family="Helvetica,sans-Serif" font-size="10.00">/Url/Url.hpp</text>
</a>
</g>
</g>
<!-- Node1&#45;&gt;Node2 -->
<g id="edge1_Node000001_Node000002" class="edge">
<title>Node1&#45;&gt;Node2</title>
<g id="a_edge1_Node000001_Node000002"><a xlink:title=" ">
<path fill="none" stroke="#63b8ff" d="M1377.5,-528.54C1377.5,-519.96 1377.5,-510.61 1377.5,-503.16"/>
<polygon fill="#63b8ff" stroke="#63b8ff" points="1374,-528.8 1377.5,-538.8 1381,-528.8 1374,-528.8"/>
</a>
</g>
</g>
<!-- Node3 -->
<g id="Node000003" class="node">
<title>Node3</title>
<g id="a_Node000003"><a xlink:href="_method_concept_8hpp.html" target="_top" xlink:title=" ">
<polygon fill="white" stroke="#666666" points="1007.5,-371 813.5,-371 813.5,-341 1007.5,-341 1007.5,-371"/>
<text text-anchor="start" x="821.5" y="-359" font-family="Helvetica,sans-Serif" font-size="10.00">include/Thoth/Http</text>
<text text-anchor="middle" x="910.5" y="-348" font-family="Helvetica,sans-Serif" font-size="10.00">/Methods/_base/MethodConcept.hpp</text>
</a>
</g>
</g>
<!-- Node2&#45;&gt;Node3 -->
<g id="edge2_Node000002_Node000003" class="edge">
<title>Node2&#45;&gt;Node3</title>
<g id="a_edge2_Node000002_Node000003"><a xlink:title=" ">
<path fill="none" stroke="#63b8ff" d="M1317.26,-470.23C1224.35,-444.37 1047.75,-395.21 961.06,-371.08"/>
<polygon fill="#63b8ff" stroke="#63b8ff" points="1316.51,-473.65 1327.08,-472.96 1318.38,-466.91 1316.51,-473.65"/>
</a>
</g>
</g>
<!-- Node7 -->
<g id="Node000007" class="node">
<title>Node7</title>
<g id="a_Node000007"><a xlink:href="_request_8hpp.html" target="_top" xlink:title=" ">
<polygon fill="white" stroke="#666666" points="1579,-239 1456,-239 1456,-209 1579,-209 1579,-239"/>
<text text-anchor="start" x="1464" y="-227" font-family="Helvetica,sans-Serif" font-size="10.00">include/Thoth/Http</text>
<text text-anchor="middle" x="1517.5" y="-216" font-family="Helvetica,sans-Serif" font-size="10.00">/Request/Request.hpp</text>
</a>
</g>
</g>
<!-- Node2&#45;&gt;Node7 -->
<g id="edge32_Node000002_Node000007" class="edge">
<title>Node2&#45;&gt;Node7</title>
<g id="a_edge32_Node000002_Node000007"><a xlink:title=" ">
<path fill="none" stroke="#63b8ff" d="M1373.51,-462.53C1369.8,-430.87 1368.45,-375.66 1396.5,-341 1426.75,-303.63 1466.36,-340.75 1498.5,-305 1514.92,-286.74 1517.85,-256.9 1518.01,-239.29"/>
<polygon fill="#63b8ff" stroke="#63b8ff" points="1370.08,-463.24 1374.88,-472.68 1377.01,-462.3 1370.08,-463.24"/>
</a>
</g>
</g>
<!-- Node17 -->
<g id="Node000017" class="node">
<title>Node17</title>
<g id="a_Node000017"><a xlink:href="_headers_8hpp.html" target="_top" xlink:title=" ">
<polygon fill="white" stroke="#666666" points="1770.5,-437 1638.5,-437 1638.5,-407 1770.5,-407 1770.5,-437"/>
<text text-anchor="start" x="1646.5" y="-425" font-family="Helvetica,sans-Serif" font-size="10.00">include/Thoth/Http</text>
<text text-anchor="middle" x="1704.5" y="-414" font-family="Helvetica,sans-Serif" font-size="10.00">/NHeaders/Headers.hpp</text>
</a>
</g>
</g>
<!-- Node2&#45;&gt;Node17 -->
<g id="edge20_Node000002_Node000017" class="edge">
<title>Node2&#45;&gt;Node17</title>
<g id="a_edge20_Node000002_Node000017"><a xlink:title=" ">
<path fill="none" stroke="#63b8ff" d="M1441.07,-474.56C1497.89,-463.44 1580.84,-447.2 1638.41,-435.93"/>
<polygon fill="#63b8ff" stroke="#63b8ff" points="1440.27,-471.15 1431.13,-476.5 1441.62,-478.02 1440.27,-471.15"/>
</a>
</g>
</g>
<!-- Node4 -->
<g id="Node000004" class="node">
<title>Node4</title>
<g id="a_Node000004"><a xlink:href="_connect_method_8hpp.html" target="_top" xlink:title=" ">
<polygon fill="white" stroke="#666666" points="991.5,-305 829.5,-305 829.5,-275 991.5,-275 991.5,-305"/>
<text text-anchor="start" x="837.5" y="-293" font-family="Helvetica,sans-Serif" font-size="10.00">include/Thoth/Http</text>
<text text-anchor="middle" x="910.5" y="-282" font-family="Helvetica,sans-Serif" font-size="10.00">/Methods/ConnectMethod.hpp</text>
</a>
</g>
</g>
<!-- Node3&#45;&gt;Node4 -->
<g id="edge3_Node000003_Node000004" class="edge">
<title>Node3&#45;&gt;Node4</title>
<g id="a_edge3_Node000003_Node000004"><a xlink:title=" ">
<path fill="none" stroke="#63b8ff" d="M910.5,-330.54C910.5,-321.96 910.5,-312.61 910.5,-305.16"/>
<polygon fill="#63b8ff" stroke="#63b8ff" points="907,-330.8 910.5,-340.8 914,-330.8 907,-330.8"/>
</a>
</g>
</g>
<!-- Node5 -->
<g id="Node000005" class="node">
<title>Node5</title>
<g id="a_Node000005"><a xlink:href="_delete_method_8hpp.html" target="_top" xlink:title=" ">
<polygon fill="white" stroke="#666666" points="1165,-305 1010,-305 1010,-275 1165,-275 1165,-305"/>
<text text-anchor="start" x="1018" y="-293" font-family="Helvetica,sans-Serif" font-size="10.00">include/Thoth/Http</text>
<text text-anchor="middle" x="1087.5" y="-282" font-family="Helvetica,sans-Serif" font-size="10.00">/Methods/DeleteMethod.hpp</text>
</a>
</g>
</g>
<!-- Node3&#45;&gt;Node5 -->
<g id="edge4_Node000003_Node000005" class="edge">
<title>Node3&#45;&gt;Node5</title>
<g id="a_edge4_Node000003_Node000005"><a xlink:title=" ">
<path fill="none" stroke="#63b8ff" d="M959.02,-337.46C987.26,-327.25 1022.37,-314.55 1048.75,-305.01"/>
<polygon fill="#63b8ff" stroke="#63b8ff" points="957.56,-334.26 949.34,-340.95 959.94,-340.85 957.56,-334.26"/>
</a>
</g>
</g>
<!-- Node6 -->
<g id="Node000006" class="node">
<title>Node6</title>
<g id="a_Node000006"><a xlink:href="_get_method_8hpp.html" target="_top" xlink:title=" ">
<polygon fill="white" stroke="#666666" points="1489.5,-305 1349.5,-305 1349.5,-275 1489.5,-275 1489.5,-305"/>
<text text-anchor="start" x="1357.5" y="-293" font-family="Helvetica,sans-Serif" font-size="10.00">include/Thoth/Http</text>
<text text-anchor="middle" x="1419.5" y="-282" font-family="Helvetica,sans-Serif" font-size="10.00">/Methods/GetMethod.hpp</text>
</a>
</g>
</g>
<!-- Node3&#45;&gt;Node6 -->
<g id="edge5_Node000003_Node000006" class="edge">
<title>Node3&#45;&gt;Node6</title>
<g id="a_edge5_Node000003_Node000006"><a xlink:title=" ">
<path fill="none" stroke="#63b8ff" d="M1017.8,-344.32C1104.93,-335.21 1230.88,-321.07 1340.5,-305 1343.39,-304.58 1346.35,-304.13 1349.32,-303.66"/>
<polygon fill="#63b8ff" stroke="#63b8ff" points="1017.22,-340.86 1007.63,-345.38 1017.94,-347.82 1017.22,-340.86"/>
</a>
</g>
</g>
<!-- Node11 -->
<g id="Node000011" class="node">
<title>Node11</title>
<g id="a_Node000011"><a xlink:href="_head_method_8hpp.html" target="_top" xlink:title=" ">
<polygon fill="white" stroke="#666666" points="1331.5,-305 1183.5,-305 1183.5,-275 1331.5,-275 1331.5,-305"/>
<text text-anchor="start" x="1191.5" y="-293" font-family="Helvetica,sans-Serif" font-size="10.00">include/Thoth/Http</text>
<text text-anchor="middle" x="1257.5" y="-282" font-family="Helvetica,sans-Serif" font-size="10.00">/Methods/HeadMethod.hpp</text>
</a>
</g>
</g>
<!-- Node3&#45;&gt;Node11 -->
<g id="edge12_Node000003_Node000011" class="edge">
<title>Node3&#45;&gt;Node11</title>
<g id="a_edge12_Node000003_Node000011"><a xlink:title=" ">
<path fill="none" stroke="#63b8ff" d="M996.79,-339.09C1054.12,-328.51 1128.64,-314.77 1183.31,-304.68"/>
<polygon fill="#63b8ff" stroke="#63b8ff" points="995.85,-335.7 986.65,-340.95 997.12,-342.58 995.85,-335.7"/>
</a>
</g>
</g>
<!-- Node12 -->
<g id="Node000012" class="node">
<title>Node12</title>
<g id="a_Node000012"><a xlink:href="_options_method_8hpp.html" target="_top" xlink:title=" ">
<polygon fill="white" stroke="#666666" points="321.5,-305 161.5,-305 161.5,-275 321.5,-275 321.5,-305"/>
<text text-anchor="start" x="169.5" y="-293" font-family="Helvetica,sans-Serif" font-size="10.00">include/Thoth/Http</text>
<text text-anchor="middle" x="241.5" y="-282" font-family="Helvetica,sans-Serif" font-size="10.00">/Methods/OptionsMethod.hpp</text>
</a>
</g>
</g>
<!-- Node3&#45;&gt;Node12 -->
<g id="edge13_Node000003_Node000012" class="edge">
<title>Node3&#45;&gt;Node12</title>
<g id="a_edge13_Node000003_Node000012"><a xlink:title=" ">
<path fill="none" stroke="#63b8ff" d="M803.31,-348.02C686.73,-339.9 495.01,-325.01 330.5,-305 327.55,-304.64 324.55,-304.26 321.52,-303.86"/>
<polygon fill="#63b8ff" stroke="#63b8ff" points="803.09,-351.51 813.31,-348.71 803.57,-344.53 803.09,-351.51"/>
</a>
</g>
</g>
<!-- Node13 -->
<g id="Node000013" class="node">
<title>Node13</title>
<g id="a_Node000013"><a xlink:href="_patch_method_8hpp.html" target="_top" xlink:title=" ">
<polygon fill="white" stroke="#666666" points="489,-305 340,-305 340,-275 489,-275 489,-305"/>
<text text-anchor="start" x="348" y="-293" font-family="Helvetica,sans-Serif" font-size="10.00">include/Thoth/Http</text>
<text text-anchor="middle" x="414.5" y="-282" font-family="Helvetica,sans-Serif" font-size="10.00">/Methods/PatchMethod.hpp</text>
</a>
</g>
</g>
<!-- Node3&#45;&gt;Node13 -->
<g id="edge14_Node000003_Node000013" class="edge">
<title>Node3&#45;&gt;Node13</title>
<g id="a_edge14_Node000003_Node000013"><a xlink:title=" ">
<path fill="none" stroke="#63b8ff" d="M803.38,-343.32C720.13,-333.92 601.81,-319.87 498.5,-305 495.43,-304.56 492.29,-304.09 489.13,-303.61"/>
<polygon fill="#63b8ff" stroke="#63b8ff" points="803.03,-346.8 813.36,-344.44 803.81,-339.85 803.03,-346.8"/>
</a>
</g>
</g>
<!-- Node14 -->
<g id="Node000014" class="node">
<title>Node14</title>
<g id="a_Node000014"><a xlink:href="_post_method_8hpp.html" target="_top" xlink:title=" ">
<polygon fill="white" stroke="#666666" points="143,-305 0,-305 0,-275 143,-275 143,-305"/>
<text text-anchor="start" x="8" y="-293" font-family="Helvetica,sans-Serif" font-size="10.00">include/Thoth/Http</text>
<text text-anchor="middle" x="71.5" y="-282" font-family="Helvetica,sans-Serif" font-size="10.00">/Methods/PostMethod.hpp</text>
</a>
</g>
</g>
<!-- Node3&#45;&gt;Node14 -->
<g id="edge15_Node000003_Node000014" class="edge">
<title>Node3&#45;&gt;Node14</title>
<g id="a_edge15_Node000003_Node000014"><a xlink:title=" ">
<path fill="none" stroke="#63b8ff" d="M802.9,-351.47C655.66,-345.83 383.34,-332.49 152.5,-305 149.52,-304.65 146.49,-304.26 143.43,-303.84"/>
<polygon fill="#63b8ff" stroke="#63b8ff" points="803.15,-354.98 813.28,-351.86 803.42,-347.99 803.15,-354.98"/>
</a>
</g>
</g>
<!-- Node15 -->
<g id="Node000015" class="node">
<title>Node15</title>
<g id="a_Node000015"><a xlink:href="_put_method_8hpp.html" target="_top" xlink:title=" ">
<polygon fill="white" stroke="#666666" points="645.5,-305 507.5,-305 507.5,-275 645.5,-275 645.5,-305"/>
<text text-anchor="start" x="515.5" y="-293" font-family="Helvetica,sans-Serif" font-size="10.00">include/Thoth/Http</text>
<text text-anchor="middle" x="576.5" y="-282" font-family="Helvetica,sans-Serif" font-size="10.00">/Methods/PutMethod.hpp</text>
</a>
</g>
</g>
<!-- Node3&#45;&gt;Node15 -->
<g id="edge18_Node000003_Node000015" class="edge">
<title>Node3&#45;&gt;Node15</title>
<g id="a_edge18_Node000003_Node000015"><a xlink:title=" ">
<path fill="none" stroke="#63b8ff" d="M827.31,-339.06C771.34,-328.33 698.41,-314.36 645.63,-304.25"/>
<polygon fill="#63b8ff" stroke="#63b8ff" points="826.72,-342.51 837.2,-340.95 828.04,-335.64 826.72,-342.51"/>
</a>
</g>
</g>
<!-- Node16 -->
<g id="Node000016" class="node">
<title>Node16</title>
<g id="a_Node000016"><a xlink:href="_trace_method_8hpp.html" target="_top" xlink:title=" ">
<polygon fill="white" stroke="#666666" points="811.5,-305 663.5,-305 663.5,-275 811.5,-275 811.5,-305"/>
<text text-anchor="start" x="671.5" y="-293" font-family="Helvetica,sans-Serif" font-size="10.00">include/Thoth/Http</text>
<text text-anchor="middle" x="737.5" y="-282" font-family="Helvetica,sans-Serif" font-size="10.00">/Methods/TraceMethod.hpp</text>
</a>
</g>
</g>
<!-- Node3&#45;&gt;Node16 -->
<g id="edge19_Node000003_Node000016" class="edge">
<title>Node3&#45;&gt;Node16</title>
<g id="a_edge19_Node000003_Node000016"><a xlink:title=" ">
<path fill="none" stroke="#63b8ff" d="M863.08,-337.46C835.48,-327.25 801.16,-314.55 775.38,-305.01"/>
<polygon fill="#63b8ff" stroke="#63b8ff" points="861.94,-340.77 872.53,-340.95 864.37,-334.2 861.94,-340.77"/>
</a>
</g>
</g>
<!-- Node6&#45;&gt;Node7 -->
<g id="edge6_Node000006_Node000007" class="edge">
<title>Node6&#45;&gt;Node7</title>
<g id="a_edge6_Node000006_Node000007"><a xlink:title=" ">
<path fill="none" stroke="#63b8ff" d="M1449.66,-269.3C1464.58,-259.56 1482.25,-248.02 1495.81,-239.16"/>
<polygon fill="#63b8ff" stroke="#63b8ff" points="1447.71,-266.4 1441.25,-274.8 1451.54,-272.26 1447.71,-266.4"/>
</a>
</g>
</g>
<!-- Node10 -->
<g id="Node000010" class="node">
<title>Node10</title>
<g id="a_Node000010"><a xlink:href="_response_8hpp.html" target="_top" xlink:title=" ">
<polygon fill="white" stroke="#666666" points="1580.5,-96 1442.5,-96 1442.5,-66 1580.5,-66 1580.5,-96"/>
<text text-anchor="start" x="1450.5" y="-84" font-family="Helvetica,sans-Serif" font-size="10.00">include/Thoth/Http</text>
<text text-anchor="middle" x="1511.5" y="-73" font-family="Helvetica,sans-Serif" font-size="10.00">/Response/Response.hpp</text>
</a>
</g>
</g>
<!-- Node6&#45;&gt;Node10 -->
<g id="edge11_Node000006_Node000010" class="edge">
<title>Node6&#45;&gt;Node10</title>
<g id="a_edge11_Node000006_Node000010"><a xlink:title=" ">
<path fill="none" stroke="#63b8ff" d="M1418.39,-264.42C1418.05,-231.81 1421.46,-173.52 1446.5,-132 1455.62,-116.88 1471.15,-104.68 1484.75,-96.11"/>
<polygon fill="#63b8ff" stroke="#63b8ff" points="1414.9,-264.91 1418.64,-274.82 1421.9,-264.74 1414.9,-264.91"/>
</a>
</g>
</g>
<!-- Node8 -->
<g id="Node000008" class="node">
<title>Node8</title>
<g id="a_Node000008"><a xlink:href="_client_8hpp.html" target="_top" xlink:title=" ">
<polygon fill="white" stroke="#666666" points="1491,-30 1384,-30 1384,0 1491,0 1491,-30"/>
<text text-anchor="start" x="1392" y="-18" font-family="Helvetica,sans-Serif" font-size="10.00">include/Thoth/Http</text>
<text text-anchor="middle" x="1437.5" y="-7" font-family="Helvetica,sans-Serif" font-size="10.00">/Client.hpp</text>
</a>
</g>
</g>
<!-- Node7&#45;&gt;Node8 -->
<g id="edge7_Node000007_Node000008" class="edge">
<title>Node7&#45;&gt;Node8</title>
<g id="a_edge7_Node000007_Node000008"><a xlink:title=" ">
<path fill="none" stroke="#63b8ff" d="M1478.51,-203.5C1466.47,-195.62 1454.33,-185.42 1446.5,-173 1417.97,-127.73 1427.85,-59.75 1434.05,-30.37"/>
<polygon fill="#63b8ff" stroke="#63b8ff" points="1476.85,-206.59 1487.2,-208.83 1480.51,-200.62 1476.85,-206.59"/>
</a>
</g>
</g>
<!-- Node9 -->
<g id="Node000009" class="node">
<title>Node9</title>
<g id="a_Node000009"><a xlink:href="_response_head_8hpp.html" target="_top" xlink:title=" ">
<polygon fill="white" stroke="#666666" points="1619.5,-167.5 1455.5,-167.5 1455.5,-137.5 1619.5,-137.5 1619.5,-167.5"/>
<text text-anchor="start" x="1463.5" y="-155.5" font-family="Helvetica,sans-Serif" font-size="10.00">include/Thoth/Http</text>
<text text-anchor="middle" x="1537.5" y="-144.5" font-family="Helvetica,sans-Serif" font-size="10.00">/Response/ResponseHead.hpp</text>
</a>
</g>
</g>
<!-- Node7&#45;&gt;Node9 -->
<g id="edge8_Node000007_Node000009" class="edge">
<title>Node7&#45;&gt;Node9</title>
<g id="a_edge8_Node000007_Node000009"><a xlink:title=" ">
<path fill="none" stroke="#63b8ff" d="M1524.38,-199.08C1527.41,-188.56 1530.86,-176.58 1533.46,-167.54"/>
<polygon fill="#63b8ff" stroke="#63b8ff" points="1520.95,-198.36 1521.55,-208.94 1527.68,-200.29 1520.95,-198.36"/>
</a>
</g>
</g>
<!-- Node9&#45;&gt;Node10 -->
<g id="edge9_Node000009_Node000010" class="edge">
<title>Node9&#45;&gt;Node10</title>
<g id="a_edge9_Node000009_Node000010"><a xlink:title=" ">
<path fill="none" stroke="#63b8ff" d="M1528.67,-127.9C1524.71,-117.31 1520.17,-105.18 1516.75,-96.04"/>
<polygon fill="#63b8ff" stroke="#63b8ff" points="1525.46,-129.3 1532.24,-137.44 1532.01,-126.84 1525.46,-129.3"/>
</a>
</g>
</g>
<!-- Node10&#45;&gt;Node8 -->
<g id="edge10_Node000010_Node000008" class="edge">
<title>Node10&#45;&gt;Node8</title>
<g id="a_edge10_Node000010_Node000008"><a xlink:title=" ">
<path fill="none" stroke="#63b8ff" d="M1487.45,-59.2C1476.47,-49.7 1463.74,-38.69 1453.88,-30.16"/>
<polygon fill="#63b8ff" stroke="#63b8ff" points="1485.22,-61.9 1495.08,-65.8 1489.8,-56.61 1485.22,-61.9"/>
</a>
</g>
</g>
<!-- Node14&#45;&gt;Node7 -->
<g id="edge16_Node000014_Node000007" class="edge">
<title>Node14&#45;&gt;Node7</title>
<g id="a_edge16_Node000014_Node000007"><a xlink:title=" ">
<path fill="none" stroke="#63b8ff" d="M153.45,-275.03C430.42,-247.67 1227.99,-230.59 1455.99,-226.15"/>
<polygon fill="#63b8ff" stroke="#63b8ff" points="153.01,-271.56 143.42,-276.05 153.72,-278.52 153.01,-271.56"/>
</a>
</g>
</g>
<!-- Node14&#45;&gt;Node10 -->
<g id="edge17_Node000014_Node000010" class="edge">
<title>Node14&#45;&gt;Node10</title>
<g id="a_edge17_Node000014_Node000010"><a xlink:title=" ">
<path fill="none" stroke="#63b8ff" d="M152.99,-274.95C653.82,-196.28 1243.83,-117.28 1442.45,-91.06"/>
<polygon fill="#63b8ff" stroke="#63b8ff" points="152.37,-271.5 143.03,-276.52 153.46,-278.42 152.37,-271.5"/>
</a>
</g>
</g>
<!-- Node17&#45;&gt;Node3 -->
<g id="edge24_Node000017_Node000003" class="edge">
<title>Node17&#45;&gt;Node3</title>
<g id="a_edge24_Node000017_Node000003"><a xlink:title=" ">
<path fill="none" stroke="#63b8ff" d="M1628.01,-414.83C1482.8,-403.13 1167.45,-377.71 1007.59,-364.83"/>
<polygon fill="#63b8ff" stroke="#63b8ff" points="1627.92,-418.34 1638.17,-415.65 1628.48,-411.36 1627.92,-418.34"/>
</a>
</g>
</g>
<!-- Node17&#45;&gt;Node9 -->
<g id="edge31_Node000017_Node000009" class="edge">
<title>Node17&#45;&gt;Node9</title>
<g id="a_edge31_Node000017_Node000009"><a xlink:title=" ">
<path fill="none" stroke="#63b8ff" d="M1687.27,-398.74C1681.04,-390.27 1674.15,-380.39 1668.5,-371 1627.12,-302.18 1633.9,-275.23 1588.5,-209 1577.99,-193.67 1563.45,-178.27 1552.58,-167.6"/>
<polygon fill="#63b8ff" stroke="#63b8ff" points="1684.65,-401.09 1693.45,-406.99 1690.25,-396.89 1684.65,-401.09"/>
</a>
</g>
</g>
<!-- Node18 -->
<g id="Node000018" class="node">
<title>Node18</title>
<g id="a_Node000018"><a xlink:href="_file_output_range_8hpp.html" target="_top" xlink:title=" ">
<polygon fill="white" stroke="#666666" points="1964.5,-239 1806.5,-239 1806.5,-209 1964.5,-209 1964.5,-239"/>
<text text-anchor="start" x="1814.5" y="-227" font-family="Helvetica,sans-Serif" font-size="10.00">include/Thoth/Dsa/FileOutput</text>
<text text-anchor="middle" x="1885.5" y="-216" font-family="Helvetica,sans-Serif" font-size="10.00">Range.hpp</text>
</a>
</g>
</g>
<!-- Node17&#45;&gt;Node18 -->
<g id="edge21_Node000017_Node000018" class="edge">
<title>Node17&#45;&gt;Node18</title>
<g id="a_edge21_Node000017_Node000018"><a xlink:title=" ">
<path fill="none" stroke="#63b8ff" d="M1780.85,-420.97C1870.97,-419.13 2012.87,-409.9 2046.5,-371 2092.89,-317.33 1984.32,-263.75 1923.36,-239.07"/>
<polygon fill="#63b8ff" stroke="#63b8ff" points="1780.61,-417.48 1770.67,-421.16 1780.74,-424.48 1780.61,-417.48"/>
</a>
</g>
</g>
<!-- Node19 -->
<g id="Node000019" class="node">
<title>Node19</title>
<g id="a_Node000019"><a xlink:href="_list_proxy_8hpp.html" target="_top" xlink:title=" ">
<polygon fill="white" stroke="#666666" points="1843.5,-371 1677.5,-371 1677.5,-341 1843.5,-341 1843.5,-371"/>
<text text-anchor="start" x="1685.5" y="-359" font-family="Helvetica,sans-Serif" font-size="10.00">include/Thoth/Http</text>
<text text-anchor="middle" x="1760.5" y="-348" font-family="Helvetica,sans-Serif" font-size="10.00">/NHeaders/Proxy/ListProxy.hpp</text>
</a>
</g>
</g>
<!-- Node17&#45;&gt;Node19 -->
<g id="edge25_Node000017_Node000019" class="edge">
<title>Node17&#45;&gt;Node19</title>
<g id="a_edge25_Node000017_Node000019"><a xlink:title=" ">
<path fill="none" stroke="#63b8ff" d="M1723.67,-399.09C1731.76,-389.85 1740.94,-379.36 1748.11,-371.16"/>
<polygon fill="#63b8ff" stroke="#63b8ff" points="1720.88,-396.97 1716.93,-406.8 1726.15,-401.58 1720.88,-396.97"/>
</a>
</g>
</g>
<!-- Node20 -->
<g id="Node000020" class="node">
<title>Node20</title>
<g id="a_Node000020"><a xlink:href="_value_proxy_8hpp.html" target="_top" xlink:title=" ">
<polygon fill="white" stroke="#666666" points="2037.5,-371 1861.5,-371 1861.5,-341 2037.5,-341 2037.5,-371"/>
<text text-anchor="start" x="1869.5" y="-359" font-family="Helvetica,sans-Serif" font-size="10.00">include/Thoth/Http</text>
<text text-anchor="middle" x="1949.5" y="-348" font-family="Helvetica,sans-Serif" font-size="10.00">/NHeaders/Proxy/ValueProxy.hpp</text>
</a>
</g>
</g>
<!-- Node17&#45;&gt;Node20 -->
<g id="edge26_Node000017_Node000020" class="edge">
<title>Node17&#45;&gt;Node20</title>
<g id="a_edge26_Node000017_Node000020"><a xlink:title=" ">
<path fill="none" stroke="#63b8ff" d="M1768.1,-404.39C1807.76,-394.03 1858.23,-380.84 1895.86,-371.01"/>
<polygon fill="#63b8ff" stroke="#63b8ff" points="1767.06,-401.04 1758.27,-406.95 1768.83,-407.81 1767.06,-401.04"/>
</a>
</g>
</g>
<!-- Node21 -->
<g id="Node000021" class="node">
<title>Node21</title>
<g id="a_Node000021"><a xlink:href="_request_headers_8hpp.html" target="_top" xlink:title=" ">
<polygon fill="white" stroke="#666666" points="1621,-371 1406,-371 1406,-341 1621,-341 1621,-371"/>
<text text-anchor="start" x="1414" y="-359" font-family="Helvetica,sans-Serif" font-size="10.00">include/Thoth/Http</text>
<text text-anchor="middle" x="1513.5" y="-348" font-family="Helvetica,sans-Serif" font-size="10.00">/NHeaders/Request/RequestHeaders.hpp</text>
</a>
</g>
</g>
<!-- Node17&#45;&gt;Node21 -->
<g id="edge27_Node000017_Node000021" class="edge">
<title>Node17&#45;&gt;Node21</title>
<g id="a_edge27_Node000017_Node000021"><a xlink:title=" ">
<path fill="none" stroke="#63b8ff" d="M1652.94,-403.72C1622.34,-393.47 1584.03,-380.63 1555.32,-371.01"/>
<polygon fill="#63b8ff" stroke="#63b8ff" points="1651.99,-407.1 1662.58,-406.95 1654.21,-400.46 1651.99,-407.1"/>
</a>
</g>
</g>
<!-- Node22 -->
<g id="Node000022" class="node">
<title>Node22</title>
<g id="a_Node000022"><a xlink:href="_response_headers_8hpp.html" target="_top" xlink:title=" ">
<polygon fill="white" stroke="#666666" points="2066.5,-173 1898.5,-173 1898.5,-132 2066.5,-132 2066.5,-173"/>
<text text-anchor="start" x="1906.5" y="-161" font-family="Helvetica,sans-Serif" font-size="10.00">include/Thoth/Http</text>
<text text-anchor="start" x="1906.5" y="-150" font-family="Helvetica,sans-Serif" font-size="10.00">/NHeaders/Response/Response</text>
<text text-anchor="middle" x="1982.5" y="-139" font-family="Helvetica,sans-Serif" font-size="10.00">Headers.hpp</text>
</a>
</g>
</g>
<!-- Node17&#45;&gt;Node22 -->
<g id="edge29_Node000017_Node000022" class="edge">
<title>Node17&#45;&gt;Node22</title>
<g id="a_edge29_Node000017_Node000022"><a xlink:title=" ">
<path fill="none" stroke="#63b8ff" d="M1780.9,-421.67C1875.72,-420.68 2029.36,-412.49 2065.5,-371 2117.8,-310.96 2040.45,-214.53 2002.03,-173.27"/>
<polygon fill="#63b8ff" stroke="#63b8ff" points="1780.75,-418.17 1770.78,-421.75 1780.81,-425.17 1780.75,-418.17"/>
</a>
</g>
</g>
<!-- Node18&#45;&gt;Node10 -->
<g id="edge23_Node000018_Node000010" class="edge">
<title>Node18&#45;&gt;Node10</title>
<g id="a_edge23_Node000018_Node000010"><a xlink:title=" ">
<path fill="none" stroke="#63b8ff" d="M1838.59,-205.31C1763.42,-176.97 1617.47,-121.95 1548.85,-96.08"/>
<polygon fill="#63b8ff" stroke="#63b8ff" points="1837.68,-208.71 1848.27,-208.96 1840.15,-202.16 1837.68,-208.71"/>
</a>
</g>
</g>
<!-- Node18&#45;&gt;Node18 -->
<g id="edge22_Node000018_Node000018" class="edge">
<title>Node18&#45;&gt;Node18</title>
<g id="a_edge22_Node000018_Node000018"><a xlink:title=" ">
<path fill="none" stroke="#63b8ff" d="M1974.66,-232.29C1979.57,-230.27 1982.5,-227.51 1982.5,-224 1982.5,-218.52 1975.37,-214.86 1964.66,-213.02"/>
<polygon fill="#63b8ff" stroke="#63b8ff" points="1973.41,-229 1964.66,-234.98 1975.23,-235.76 1973.41,-229"/>
</a>
</g>
</g>
<!-- Node21&#45;&gt;Node7 -->
<g id="edge28_Node000021_Node000007" class="edge">
<title>Node21&#45;&gt;Node7</title>
<g id="a_edge28_Node000021_Node000007"><a xlink:title=" ">
<path fill="none" stroke="#63b8ff" d="M1523.82,-331.58C1526.94,-323.34 1529.94,-313.92 1531.5,-305 1535.52,-281.94 1528.44,-255.15 1522.97,-239.16"/>
<polygon fill="#63b8ff" stroke="#63b8ff" points="1520.55,-330.33 1520.05,-340.92 1527.04,-332.95 1520.55,-330.33"/>
</a>
</g>
</g>
<!-- Node22&#45;&gt;Node10 -->
<g id="edge30_Node000022_Node000010" class="edge">
<title>Node22&#45;&gt;Node10</title>
<g id="a_edge30_Node000022_Node000010"><a xlink:title=" ">
<path fill="none" stroke="#63b8ff" d="M1888.27,-137.6C1797.45,-124.19 1662.15,-104.23 1580.81,-92.23"/>
<polygon fill="#63b8ff" stroke="#63b8ff" points="1887.89,-141.08 1898.29,-139.07 1888.91,-134.15 1887.89,-141.08"/>
</a>
</g>
</g>
</g>
</svg>
