<?xml version="1.0" encoding="UTF-8" standalone="no"?>
<!DOCTYPE svg PUBLIC "-//W3C//DTD SVG 1.1//EN"
 "http://www.w3.org/Graphics/SVG/1.1/DTD/svg11.dtd">
<!-- Generated by graphviz version 2.43.0 (0)
 -->
<!-- Title: include/Thoth/Http/Request/QueryParams.hpp Pages: 1 -->
<svg width="1364pt" height="280pt"
 viewBox="0.00 0.00 1364.00 280.00" xmlns="http://www.w3.org/2000/svg" xmlns:xlink="http://www.w3.org/1999/xlink">
<g id="graph0" class="graph" transform="scale(1 1) rotate(0) translate(4 276)">
<title>include/Thoth/Http/Request/QueryParams.hpp</title>
<!-- Node1 -->
<g id="Node000001" class="node">
<title>Node1</title>
<g id="a_Node000001"><a xlink:title=" ">
<polygon fill="#999999" stroke="#666666" points="852,-272 703,-272 703,-242 852,-242 852,-272"/>
<text text-anchor="start" x="711" y="-260" font-family="Helvetica,sans-Serif" font-size="10.00">include/Thoth/Http</text>
<text text-anchor="middle" x="777.5" y="-249" font-family="Helvetica,sans-Serif" font-size="10.00">/Request/QueryParams.hpp</text>
</a>
</g>
</g>
<!-- Node2 -->
<g id="Node000002" class="node">
<title>Node2</title>
<g id="a_Node000002"><a xlink:title=" ">
<polygon fill="#e0e0e0" stroke="#999999" points="546.5,-74 484.5,-74 484.5,-55 546.5,-55 546.5,-74"/>
<text text-anchor="middle" x="515.5" y="-62" font-family="Helvetica,sans-Serif" font-size="10.00">expected</text>
</a>
</g>
</g>
<!-- Node1&#45;&gt;Node2 -->
<g id="edge1_Node000001_Node000002" class="edge">
<title>Node1&#45;&gt;Node2</title>
<g id="a_edge1_Node000001_Node000002"><a xlink:title=" ">
<path fill="none" stroke="#63b8ff" d="M751.09,-241.97C733.57,-232.38 710.25,-219.09 690.5,-206 629.05,-165.27 562.84,-108 532.47,-80.88"/>
<polygon fill="#63b8ff" stroke="#63b8ff" points="534.67,-78.15 524.89,-74.07 529.99,-83.36 534.67,-78.15"/>
</a>
</g>
</g>
<!-- Node3 -->
<g id="Node000003" class="node">
<title>Node3</title>
<g id="a_Node000003"><a xlink:title=" ">
<polygon fill="#e0e0e0" stroke="#999999" points="1226.5,-200.5 1176.5,-200.5 1176.5,-181.5 1226.5,-181.5 1226.5,-200.5"/>
<text text-anchor="middle" x="1201.5" y="-188.5" font-family="Helvetica,sans-Serif" font-size="10.00">format</text>
</a>
</g>
</g>
<!-- Node1&#45;&gt;Node3 -->
<g id="edge2_Node000001_Node000003" class="edge">
<title>Node1&#45;&gt;Node3</title>
<g id="a_edge2_Node000001_Node000003"><a xlink:title=" ">
<path fill="none" stroke="#63b8ff" d="M852.17,-251.09C930.38,-244.84 1056.36,-231.63 1162.5,-206 1165.16,-205.36 1167.89,-204.6 1170.62,-203.77"/>
<polygon fill="#63b8ff" stroke="#63b8ff" points="1171.91,-207.02 1180.3,-200.55 1169.7,-200.38 1171.91,-207.02"/>
</a>
</g>
</g>
<!-- Node4 -->
<g id="Node000004" class="node">
<title>Node4</title>
<g id="a_Node000004"><a xlink:title=" ">
<polygon fill="#e0e0e0" stroke="#999999" points="466,-74 419,-74 419,-55 466,-55 466,-74"/>
<text text-anchor="middle" x="442.5" y="-62" font-family="Helvetica,sans-Serif" font-size="10.00">vector</text>
</a>
</g>
</g>
<!-- Node1&#45;&gt;Node4 -->
<g id="edge3_Node000001_Node000004" class="edge">
<title>Node1&#45;&gt;Node4</title>
<g id="a_edge3_Node000001_Node000004"><a xlink:title=" ">
<path fill="none" stroke="#63b8ff" d="M733.35,-241.91C707.65,-233 675,-220.46 647.5,-206 574.27,-167.5 495.73,-107.85 460.92,-80.33"/>
<polygon fill="#63b8ff" stroke="#63b8ff" points="463.04,-77.55 453.04,-74.06 458.68,-83.03 463.04,-77.55"/>
</a>
</g>
</g>
<!-- Node5 -->
<g id="Node000005" class="node">
<title>Node5</title>
<g id="a_Node000005"><a xlink:title=" ">
<polygon fill="#e0e0e0" stroke="#999999" points="1178.5,-19 1134.5,-19 1134.5,0 1178.5,0 1178.5,-19"/>
<text text-anchor="middle" x="1156.5" y="-7" font-family="Helvetica,sans-Serif" font-size="10.00">string</text>
</a>
</g>
</g>
<!-- Node1&#45;&gt;Node5 -->
<g id="edge4_Node000001_Node000005" class="edge">
<title>Node1&#45;&gt;Node5</title>
<g id="a_edge4_Node000001_Node000005"><a xlink:title=" ">
<path fill="none" stroke="#63b8ff" d="M852.14,-252.5C932.61,-244.56 1058.67,-219.3 1129.5,-140 1157.21,-108.98 1159.22,-57.03 1158.03,-29.29"/>
<polygon fill="#63b8ff" stroke="#63b8ff" points="1161.51,-28.78 1157.39,-19.02 1154.52,-29.22 1161.51,-28.78"/>
</a>
</g>
</g>
<!-- Node6 -->
<g id="Node000006" class="node">
<title>Node6</title>
<g id="a_Node000006"><a xlink:href="_linear_map_8hpp.html" target="_top" xlink:title=" ">
<polygon fill="white" stroke="#666666" points="366,-134.5 225,-134.5 225,-115.5 366,-115.5 366,-134.5"/>
<text text-anchor="middle" x="295.5" y="-122.5" font-family="Helvetica,sans-Serif" font-size="10.00">Thoth/Dsa/LinearMap.hpp</text>
</a>
</g>
</g>
<!-- Node1&#45;&gt;Node6 -->
<g id="edge5_Node000001_Node000006" class="edge">
<title>Node1&#45;&gt;Node6</title>
<g id="a_edge5_Node000001_Node000006"><a xlink:title=" ">
<path fill="none" stroke="#63b8ff" d="M702.94,-252.77C633.02,-247.94 526.35,-235.92 438.5,-206 391.77,-190.08 342.68,-158.98 315.91,-140.6"/>
<polygon fill="#63b8ff" stroke="#63b8ff" points="317.61,-137.52 307.41,-134.67 313.61,-143.26 317.61,-137.52"/>
</a>
</g>
</g>
<!-- Node12 -->
<g id="Node000012" class="node">
<title>Node12</title>
<g id="a_Node000012"><a xlink:href="_request_error_8hpp.html" target="_top" xlink:title=" ">
<polygon fill="white" stroke="#666666" points="855,-200.5 700,-200.5 700,-181.5 855,-181.5 855,-200.5"/>
<text text-anchor="middle" x="777.5" y="-188.5" font-family="Helvetica,sans-Serif" font-size="10.00">Thoth/Http/RequestError.hpp</text>
</a>
</g>
</g>
<!-- Node1&#45;&gt;Node12 -->
<g id="edge12_Node000001_Node000012" class="edge">
<title>Node1&#45;&gt;Node12</title>
<g id="a_edge12_Node000001_Node000012"><a xlink:title=" ">
<path fill="none" stroke="#63b8ff" d="M777.5,-241.8C777.5,-232.7 777.5,-220.79 777.5,-210.9"/>
<polygon fill="#63b8ff" stroke="#63b8ff" points="781,-210.84 777.5,-200.84 774,-210.84 781,-210.84"/>
</a>
</g>
</g>
<!-- Node25 -->
<g id="Node000025" class="node">
<title>Node25</title>
<g id="a_Node000025"><a xlink:title=" ">
<polygon fill="#e0e0e0" stroke="#999999" points="1356,-206 1245,-206 1245,-176 1356,-176 1356,-206"/>
<text text-anchor="start" x="1253" y="-194" font-family="Helvetica,sans-Serif" font-size="10.00">Thoth/Http/Request</text>
<text text-anchor="middle" x="1300.5" y="-183" font-family="Helvetica,sans-Serif" font-size="10.00">/QueryParams.tpp</text>
</a>
</g>
</g>
<!-- Node1&#45;&gt;Node25 -->
<g id="edge34_Node000001_Node000025" class="edge">
<title>Node1&#45;&gt;Node25</title>
<g id="a_edge34_Node000001_Node000025"><a xlink:title=" ">
<path fill="none" stroke="#63b8ff" d="M852.39,-250.22C941.21,-242.82 1093.9,-228.42 1234.78,-206"/>
<polygon fill="#63b8ff" stroke="#63b8ff" points="1235.59,-209.41 1244.9,-204.37 1234.47,-202.5 1235.59,-209.41"/>
</a>
</g>
</g>
<!-- Node6&#45;&gt;Node4 -->
<g id="edge6_Node000006_Node000004" class="edge">
<title>Node6&#45;&gt;Node4</title>
<g id="a_edge6_Node000006_Node000004"><a xlink:title=" ">
<path fill="none" stroke="#63b8ff" d="M316.88,-115.49C341.81,-105.57 383.22,-89.09 411.64,-77.78"/>
<polygon fill="#63b8ff" stroke="#63b8ff" points="413.1,-80.97 421.1,-74.02 410.51,-74.46 413.1,-80.97"/>
</a>
</g>
</g>
<!-- Node7 -->
<g id="Node000007" class="node">
<title>Node7</title>
<g id="a_Node000007"><a xlink:title=" ">
<polygon fill="#e0e0e0" stroke="#999999" points="318,-74 273,-74 273,-55 318,-55 318,-74"/>
<text text-anchor="middle" x="295.5" y="-62" font-family="Helvetica,sans-Serif" font-size="10.00">utility</text>
</a>
</g>
</g>
<!-- Node6&#45;&gt;Node7 -->
<g id="edge7_Node000006_Node000007" class="edge">
<title>Node6&#45;&gt;Node7</title>
<g id="a_edge7_Node000006_Node000007"><a xlink:title=" ">
<path fill="none" stroke="#63b8ff" d="M295.5,-115.37C295.5,-107.25 295.5,-94.81 295.5,-84.39"/>
<polygon fill="#63b8ff" stroke="#63b8ff" points="299,-84.17 295.5,-74.17 292,-84.17 299,-84.17"/>
</a>
</g>
</g>
<!-- Node8 -->
<g id="Node000008" class="node">
<title>Node8</title>
<g id="a_Node000008"><a xlink:title=" ">
<polygon fill="#e0e0e0" stroke="#999999" points="593.5,-19 533.5,-19 533.5,0 593.5,0 593.5,-19"/>
<text text-anchor="middle" x="563.5" y="-7" font-family="Helvetica,sans-Serif" font-size="10.00">concepts</text>
</a>
</g>
</g>
<!-- Node6&#45;&gt;Node8 -->
<g id="edge8_Node000006_Node000008" class="edge">
<title>Node6&#45;&gt;Node8</title>
<g id="a_edge8_Node000006_Node000008"><a xlink:title=" ">
<path fill="none" stroke="#63b8ff" d="M285.56,-115.06C271.1,-100.99 247.63,-73.4 263.5,-55 296.57,-16.67 449.22,-10.81 523.15,-10.27"/>
<polygon fill="#63b8ff" stroke="#63b8ff" points="523.48,-13.77 533.47,-10.23 523.45,-6.77 523.48,-13.77"/>
</a>
</g>
</g>
<!-- Node9 -->
<g id="Node000009" class="node">
<title>Node9</title>
<g id="a_Node000009"><a xlink:title=" ">
<polygon fill="#e0e0e0" stroke="#999999" points="401,-74 336,-74 336,-55 401,-55 401,-74"/>
<text text-anchor="middle" x="368.5" y="-62" font-family="Helvetica,sans-Serif" font-size="10.00">functional</text>
</a>
</g>
</g>
<!-- Node6&#45;&gt;Node9 -->
<g id="edge9_Node000006_Node000009" class="edge">
<title>Node6&#45;&gt;Node9</title>
<g id="a_edge9_Node000006_Node000009"><a xlink:title=" ">
<path fill="none" stroke="#63b8ff" d="M306.27,-115.37C317.7,-106.21 335.98,-91.56 349.78,-80.51"/>
<polygon fill="#63b8ff" stroke="#63b8ff" points="352.07,-83.15 357.68,-74.17 347.69,-77.69 352.07,-83.15"/>
</a>
</g>
</g>
<!-- Node10 -->
<g id="Node000010" class="node">
<title>Node10</title>
<g id="a_Node000010"><a xlink:title=" ">
<polygon fill="#e0e0e0" stroke="#999999" points="59,-74 0,-74 0,-55 59,-55 59,-74"/>
<text text-anchor="middle" x="29.5" y="-62" font-family="Helvetica,sans-Serif" font-size="10.00">compare</text>
</a>
</g>
</g>
<!-- Node6&#45;&gt;Node10 -->
<g id="edge10_Node000006_Node000010" class="edge">
<title>Node6&#45;&gt;Node10</title>
<g id="a_edge10_Node000006_Node000010"><a xlink:title=" ">
<path fill="none" stroke="#63b8ff" d="M256.35,-115.47C212.97,-106 140.64,-90.18 69.41,-74.42"/>
<polygon fill="#63b8ff" stroke="#63b8ff" points="69.89,-70.94 59.37,-72.19 68.37,-77.77 69.89,-70.94"/>
</a>
</g>
</g>
<!-- Node11 -->
<g id="Node000011" class="node">
<title>Node11</title>
<g id="a_Node000011"><a xlink:title=" ">
<polygon fill="#e0e0e0" stroke="#999999" points="216,-74 77,-74 77,-55 216,-55 216,-74"/>
<text text-anchor="middle" x="146.5" y="-62" font-family="Helvetica,sans-Serif" font-size="10.00">Thoth/Dsa/LinearMap.tpp</text>
</a>
</g>
</g>
<!-- Node6&#45;&gt;Node11 -->
<g id="edge11_Node000006_Node000011" class="edge">
<title>Node6&#45;&gt;Node11</title>
<g id="a_edge11_Node000006_Node000011"><a xlink:title=" ">
<path fill="none" stroke="#63b8ff" d="M273.83,-115.49C248.56,-105.57 206.59,-89.09 177.78,-77.78"/>
<polygon fill="#63b8ff" stroke="#63b8ff" points="178.78,-74.41 168.19,-74.02 176.22,-80.93 178.78,-74.41"/>
</a>
</g>
</g>
<!-- Node12&#45;&gt;Node4 -->
<g id="edge32_Node000012_Node000004" class="edge">
<title>Node12&#45;&gt;Node4</title>
<g id="a_edge32_Node000012_Node000004"><a xlink:title=" ">
<path fill="none" stroke="#63b8ff" d="M741.66,-181.42C706.11,-172.51 650.33,-157.45 603.5,-140 554.33,-121.68 499.3,-94.75 467.98,-78.78"/>
<polygon fill="#63b8ff" stroke="#63b8ff" points="469.55,-75.65 459.06,-74.2 466.36,-81.88 469.55,-75.65"/>
</a>
</g>
</g>
<!-- Node13 -->
<g id="Node000013" class="node">
<title>Node13</title>
<g id="a_Node000013"><a xlink:title=" ">
<polygon fill="#e0e0e0" stroke="#999999" points="950,-140 783,-140 783,-110 950,-110 950,-140"/>
<text text-anchor="start" x="791" y="-128" font-family="Helvetica,sans-Serif" font-size="10.00">Hermes/_base/ConnectionError</text>
<text text-anchor="middle" x="866.5" y="-117" font-family="Helvetica,sans-Serif" font-size="10.00">Enum.hpp</text>
</a>
</g>
</g>
<!-- Node12&#45;&gt;Node13 -->
<g id="edge13_Node000012_Node000013" class="edge">
<title>Node12&#45;&gt;Node13</title>
<g id="a_edge13_Node000012_Node000013"><a xlink:title=" ">
<path fill="none" stroke="#63b8ff" d="M789.5,-181.37C802.03,-172.36 822.11,-157.92 838.62,-146.05"/>
<polygon fill="#63b8ff" stroke="#63b8ff" points="840.8,-148.8 846.87,-140.12 836.71,-143.11 840.8,-148.8"/>
</a>
</g>
</g>
<!-- Node14 -->
<g id="Node000014" class="node">
<title>Node14</title>
<g id="a_Node000014"><a xlink:href="_definitions_8hpp.html" target="_top" xlink:title=" ">
<polygon fill="white" stroke="#666666" points="764.5,-134.5 612.5,-134.5 612.5,-115.5 764.5,-115.5 764.5,-134.5"/>
<text text-anchor="middle" x="688.5" y="-122.5" font-family="Helvetica,sans-Serif" font-size="10.00">Thoth/NJson/Definitions.hpp</text>
</a>
</g>
</g>
<!-- Node12&#45;&gt;Node14 -->
<g id="edge14_Node000012_Node000014" class="edge">
<title>Node12&#45;&gt;Node14</title>
<g id="a_edge14_Node000012_Node000014"><a xlink:title=" ">
<path fill="none" stroke="#63b8ff" d="M765.5,-181.37C751.03,-170.97 726.49,-153.32 709.01,-140.75"/>
<polygon fill="#63b8ff" stroke="#63b8ff" points="710.76,-137.7 700.6,-134.7 706.67,-143.38 710.76,-137.7"/>
</a>
</g>
</g>
<!-- Node24 -->
<g id="Node000024" class="node">
<title>Node24</title>
<g id="a_Node000024"><a xlink:title=" ">
<polygon fill="#e0e0e0" stroke="#999999" points="1120.5,-134.5 968.5,-134.5 968.5,-115.5 1120.5,-115.5 1120.5,-134.5"/>
<text text-anchor="middle" x="1044.5" y="-122.5" font-family="Helvetica,sans-Serif" font-size="10.00">Thoth/Http/RequestError.tpp</text>
</a>
</g>
</g>
<!-- Node12&#45;&gt;Node24 -->
<g id="edge33_Node000012_Node000024" class="edge">
<title>Node12&#45;&gt;Node24</title>
<g id="a_edge33_Node000012_Node000024"><a xlink:title=" ">
<path fill="none" stroke="#63b8ff" d="M813.23,-181.44C861.19,-169.94 946.41,-149.51 998.93,-136.92"/>
<polygon fill="#63b8ff" stroke="#63b8ff" points="1000.07,-140.25 1008.98,-134.51 998.44,-133.44 1000.07,-140.25"/>
</a>
</g>
</g>
<!-- Node14&#45;&gt;Node2 -->
<g id="edge20_Node000014_Node000002" class="edge">
<title>Node14&#45;&gt;Node2</title>
<g id="a_edge20_Node000014_Node000002"><a xlink:title=" ">
<path fill="none" stroke="#63b8ff" d="M663.34,-115.49C633.62,-105.44 583.98,-88.66 550.51,-77.34"/>
<polygon fill="#63b8ff" stroke="#63b8ff" points="551.28,-73.9 540.69,-74.02 549.04,-80.54 551.28,-73.9"/>
</a>
</g>
</g>
<!-- Node14&#45;&gt;Node4 -->
<g id="edge17_Node000014_Node000004" class="edge">
<title>Node14&#45;&gt;Node4</title>
<g id="a_edge17_Node000014_Node000004"><a xlink:title=" ">
<path fill="none" stroke="#63b8ff" d="M651.12,-115.48C610.54,-106.18 543.56,-90.66 476.21,-74.13"/>
<polygon fill="#63b8ff" stroke="#63b8ff" points="476.82,-70.68 466.28,-71.69 475.15,-77.48 476.82,-70.68"/>
</a>
</g>
</g>
<!-- Node14&#45;&gt;Node5 -->
<g id="edge18_Node000014_Node000005" class="edge">
<title>Node14&#45;&gt;Node5</title>
<g id="a_edge18_Node000014_Node000005"><a xlink:title=" ">
<path fill="none" stroke="#63b8ff" d="M739.72,-115.43C750.85,-113.6 762.57,-111.71 773.5,-110 881.37,-93.13 912.2,-106.29 1016.5,-74 1034.92,-68.3 1038.01,-63.11 1055.5,-55 1079.4,-43.92 1106.77,-31.9 1126.98,-23.15"/>
<polygon fill="#63b8ff" stroke="#63b8ff" points="1128.48,-26.32 1136.28,-19.14 1125.71,-19.89 1128.48,-26.32"/>
</a>
</g>
</g>
<!-- Node14&#45;&gt;Node8 -->
<g id="edge21_Node000014_Node000008" class="edge">
<title>Node14&#45;&gt;Node8</title>
<g id="a_edge21_Node000014_Node000008"><a xlink:title=" ">
<path fill="none" stroke="#63b8ff" d="M662.23,-115.45C641.35,-107.52 612.58,-93.92 593.5,-74 581.39,-61.35 573.42,-42.91 568.77,-29.16"/>
<polygon fill="#63b8ff" stroke="#63b8ff" points="572.03,-27.85 565.72,-19.33 565.34,-29.92 572.03,-27.85"/>
</a>
</g>
</g>
<!-- Node15 -->
<g id="Node000015" class="node">
<title>Node15</title>
<g id="a_Node000015"><a xlink:title=" ">
<polygon fill="#e0e0e0" stroke="#999999" points="789,-19 738,-19 738,0 789,0 789,-19"/>
<text text-anchor="middle" x="763.5" y="-7" font-family="Helvetica,sans-Serif" font-size="10.00">variant</text>
</a>
</g>
</g>
<!-- Node14&#45;&gt;Node15 -->
<g id="edge15_Node000014_Node000015" class="edge">
<title>Node14&#45;&gt;Node15</title>
<g id="a_edge15_Node000014_Node000015"><a xlink:title=" ">
<path fill="none" stroke="#63b8ff" d="M721.06,-115.41C741.75,-108.08 766.93,-95.26 779.5,-74 787.88,-59.83 781.66,-41.36 774.67,-28"/>
<polygon fill="#63b8ff" stroke="#63b8ff" points="777.68,-26.22 769.65,-19.31 771.62,-29.72 777.68,-26.22"/>
</a>
</g>
</g>
<!-- Node16 -->
<g id="Node000016" class="node">
<title>Node16</title>
<g id="a_Node000016"><a xlink:title=" ">
<polygon fill="#e0e0e0" stroke="#999999" points="865.5,-19 807.5,-19 807.5,0 865.5,0 865.5,-19"/>
<text text-anchor="middle" x="836.5" y="-7" font-family="Helvetica,sans-Serif" font-size="10.00">memory</text>
</a>
</g>
</g>
<!-- Node14&#45;&gt;Node16 -->
<g id="edge16_Node000014_Node000016" class="edge">
<title>Node14&#45;&gt;Node16</title>
<g id="a_edge16_Node000014_Node000016"><a xlink:title=" ">
<path fill="none" stroke="#63b8ff" d="M718.16,-115.43C741.46,-107.56 773.69,-94.05 796.5,-74 810.83,-61.4 821.86,-42.44 828.67,-28.51"/>
<polygon fill="#63b8ff" stroke="#63b8ff" points="831.85,-29.97 832.87,-19.43 825.5,-27.03 831.85,-29.97"/>
</a>
</g>
</g>
<!-- Node17 -->
<g id="Node000017" class="node">
<title>Node17</title>
<g id="a_Node000017"><a xlink:title=" ">
<polygon fill="#e0e0e0" stroke="#999999" points="1120.5,-74 1064.5,-74 1064.5,-55 1120.5,-55 1120.5,-74"/>
<text text-anchor="middle" x="1092.5" y="-62" font-family="Helvetica,sans-Serif" font-size="10.00">optional</text>
</a>
</g>
</g>
<!-- Node14&#45;&gt;Node17 -->
<g id="edge19_Node000014_Node000017" class="edge">
<title>Node14&#45;&gt;Node17</title>
<g id="a_edge19_Node000014_Node000017"><a xlink:title=" ">
<path fill="none" stroke="#63b8ff" d="M738.35,-115.5C749.88,-113.61 762.11,-111.68 773.5,-110 896.32,-91.91 928.03,-94.33 1050.5,-74 1051.6,-73.82 1052.72,-73.63 1053.84,-73.43"/>
<polygon fill="#63b8ff" stroke="#63b8ff" points="1054.89,-76.8 1064.08,-71.53 1053.61,-69.91 1054.89,-76.8"/>
</a>
</g>
</g>
<!-- Node18 -->
<g id="Node000018" class="node">
<title>Node18</title>
<g id="a_Node000018"><a xlink:title=" ">
<polygon fill="#e0e0e0" stroke="#999999" points="642.5,-74 602.5,-74 602.5,-55 642.5,-55 642.5,-74"/>
<text text-anchor="middle" x="622.5" y="-62" font-family="Helvetica,sans-Serif" font-size="10.00">span</text>
</a>
</g>
</g>
<!-- Node14&#45;&gt;Node18 -->
<g id="edge22_Node000014_Node000018" class="edge">
<title>Node14&#45;&gt;Node18</title>
<g id="a_edge22_Node000014_Node000018"><a xlink:title=" ">
<path fill="none" stroke="#63b8ff" d="M678.76,-115.37C668.53,-106.3 652.21,-91.84 639.78,-80.82"/>
<polygon fill="#63b8ff" stroke="#63b8ff" points="642.08,-78.18 632.28,-74.17 637.44,-83.42 642.08,-78.18"/>
</a>
</g>
</g>
<!-- Node19 -->
<g id="Node000019" class="node">
<title>Node19</title>
<g id="a_Node000019"><a xlink:href="_cow_8hpp.html" target="_top" xlink:title=" ">
<polygon fill="white" stroke="#666666" points="770.5,-74 660.5,-74 660.5,-55 770.5,-55 770.5,-74"/>
<text text-anchor="middle" x="715.5" y="-62" font-family="Helvetica,sans-Serif" font-size="10.00">Thoth/Dsa/Cow.hpp</text>
</a>
</g>
</g>
<!-- Node14&#45;&gt;Node19 -->
<g id="edge23_Node000014_Node000019" class="edge">
<title>Node14&#45;&gt;Node19</title>
<g id="a_edge23_Node000014_Node000019"><a xlink:title=" ">
<path fill="none" stroke="#63b8ff" d="M692.48,-115.37C696.35,-106.99 702.34,-94.01 707.24,-83.39"/>
<polygon fill="#63b8ff" stroke="#63b8ff" points="710.49,-84.71 711.5,-74.17 704.13,-81.78 710.49,-84.71"/>
</a>
</g>
</g>
<!-- Node21 -->
<g id="Node000021" class="node">
<title>Node21</title>
<g id="a_Node000021"><a xlink:href="_string_ref_8hpp.html" target="_top" xlink:title=" ">
<polygon fill="white" stroke="#666666" points="1008,-74 865,-74 865,-55 1008,-55 1008,-74"/>
<text text-anchor="middle" x="936.5" y="-62" font-family="Helvetica,sans-Serif" font-size="10.00">Thoth/NJson/StringRef.hpp</text>
</a>
</g>
</g>
<!-- Node14&#45;&gt;Node21 -->
<g id="edge27_Node000014_Node000021" class="edge">
<title>Node14&#45;&gt;Node21</title>
<g id="a_edge27_Node000014_Node000021"><a xlink:title=" ">
<path fill="none" stroke="#63b8ff" d="M724.56,-115.49C768.46,-105.14 842.65,-87.64 890.58,-76.33"/>
<polygon fill="#63b8ff" stroke="#63b8ff" points="891.47,-79.72 900.4,-74.02 889.86,-72.91 891.47,-79.72"/>
</a>
</g>
</g>
<!-- Node19&#45;&gt;Node8 -->
<g id="edge24_Node000019_Node000008" class="edge">
<title>Node19&#45;&gt;Node8</title>
<g id="a_edge24_Node000019_Node000008"><a xlink:title=" ">
<path fill="none" stroke="#63b8ff" d="M691.08,-54.98C665.78,-46.16 626.05,-32.31 597.64,-22.41"/>
<polygon fill="#63b8ff" stroke="#63b8ff" points="598.71,-19.07 588.11,-19.08 596.4,-25.68 598.71,-19.07"/>
</a>
</g>
</g>
<!-- Node19&#45;&gt;Node15 -->
<g id="edge25_Node000019_Node000015" class="edge">
<title>Node19&#45;&gt;Node15</title>
<g id="a_edge25_Node000019_Node000015"><a xlink:title=" ">
<path fill="none" stroke="#63b8ff" d="M723.43,-54.75C730.35,-47.11 740.57,-35.82 748.95,-26.56"/>
<polygon fill="#63b8ff" stroke="#63b8ff" points="751.6,-28.85 755.72,-19.09 746.41,-24.15 751.6,-28.85"/>
</a>
</g>
</g>
<!-- Node20 -->
<g id="Node000020" class="node">
<title>Node20</title>
<g id="a_Node000020"><a xlink:title=" ">
<polygon fill="#e0e0e0" stroke="#999999" points="719.5,-19 611.5,-19 611.5,0 719.5,0 719.5,-19"/>
<text text-anchor="middle" x="665.5" y="-7" font-family="Helvetica,sans-Serif" font-size="10.00">Thoth/Dsa/Cow.tpp</text>
</a>
</g>
</g>
<!-- Node19&#45;&gt;Node20 -->
<g id="edge26_Node000019_Node000020" class="edge">
<title>Node19&#45;&gt;Node20</title>
<g id="a_edge26_Node000019_Node000020"><a xlink:title=" ">
<path fill="none" stroke="#63b8ff" d="M707.24,-54.75C700.04,-47.11 689.39,-35.82 680.65,-26.56"/>
<polygon fill="#63b8ff" stroke="#63b8ff" points="683.01,-23.96 673.6,-19.09 677.92,-28.76 683.01,-23.96"/>
</a>
</g>
</g>
<!-- Node21&#45;&gt;Node5 -->
<g id="edge30_Node000021_Node000005" class="edge">
<title>Node21&#45;&gt;Node5</title>
<g id="a_edge30_Node000021_Node000005"><a xlink:title=" ">
<path fill="none" stroke="#63b8ff" d="M974.61,-54.96C1010.76,-46.75 1066.84,-33.79 1124.21,-19.26"/>
<polygon fill="#63b8ff" stroke="#63b8ff" points="1125.35,-22.58 1134.17,-16.73 1123.62,-15.8 1125.35,-22.58"/>
</a>
</g>
</g>
<!-- Node21&#45;&gt;Node16 -->
<g id="edge28_Node000021_Node000016" class="edge">
<title>Node21&#45;&gt;Node16</title>
<g id="a_edge28_Node000021_Node000016"><a xlink:title=" ">
<path fill="none" stroke="#63b8ff" d="M920.43,-54.98C904.64,-46.61 880.28,-33.7 861.87,-23.95"/>
<polygon fill="#63b8ff" stroke="#63b8ff" points="863.33,-20.76 852.86,-19.17 860.06,-26.95 863.33,-20.76"/>
</a>
</g>
</g>
<!-- Node22 -->
<g id="Node000022" class="node">
<title>Node22</title>
<g id="a_Node000022"><a xlink:title=" ">
<polygon fill="#e0e0e0" stroke="#999999" points="957,-19 884,-19 884,0 957,0 957,-19"/>
<text text-anchor="middle" x="920.5" y="-7" font-family="Helvetica,sans-Serif" font-size="10.00">string_view</text>
</a>
</g>
</g>
<!-- Node21&#45;&gt;Node22 -->
<g id="edge29_Node000021_Node000022" class="edge">
<title>Node21&#45;&gt;Node22</title>
<g id="a_edge29_Node000021_Node000022"><a xlink:title=" ">
<path fill="none" stroke="#63b8ff" d="M933.86,-54.75C931.74,-47.72 928.69,-37.62 926.04,-28.84"/>
<polygon fill="#63b8ff" stroke="#63b8ff" points="929.33,-27.65 923.09,-19.09 922.63,-29.67 929.33,-27.65"/>
</a>
</g>
</g>
<!-- Node23 -->
<g id="Node000023" class="node">
<title>Node23</title>
<g id="a_Node000023"><a xlink:title=" ">
<polygon fill="#e0e0e0" stroke="#999999" points="1116,-19 975,-19 975,0 1116,0 1116,-19"/>
<text text-anchor="middle" x="1045.5" y="-7" font-family="Helvetica,sans-Serif" font-size="10.00">Thoth/NJson/StringRef.tpp</text>
</a>
</g>
</g>
<!-- Node21&#45;&gt;Node23 -->
<g id="edge31_Node000021_Node000023" class="edge">
<title>Node21&#45;&gt;Node23</title>
<g id="a_edge31_Node000021_Node000023"><a xlink:title=" ">
<path fill="none" stroke="#63b8ff" d="M954.01,-54.98C971.47,-46.5 998.51,-33.35 1018.67,-23.54"/>
<polygon fill="#63b8ff" stroke="#63b8ff" points="1020.21,-26.69 1027.67,-19.17 1017.14,-20.4 1020.21,-26.69"/>
</a>
</g>
</g>
</g>
</svg>
