<?xml version="1.0" encoding="UTF-8" standalone="no"?>
<!DOCTYPE svg PUBLIC "-//W3C//DTD SVG 1.1//EN"
 "http://www.w3.org/Graphics/SVG/1.1/DTD/svg11.dtd">
<!-- Generated by graphviz version 2.43.0 (0)
 -->
<!-- Title: include/Thoth/Http/NHeaders/Request/Headers/Range.hpp Pages: 1 -->
<svg width="253pt" height="456pt"
 viewBox="0.00 0.00 252.50 456.00" xmlns="http://www.w3.org/2000/svg" xmlns:xlink="http://www.w3.org/1999/xlink">
<g id="graph0" class="graph" transform="scale(1 1) rotate(0) translate(4 452)">
<title>include/Thoth/Http/NHeaders/Request/Headers/Range.hpp</title>
<!-- Node1 -->
<g id="Node000001" class="node">
<title>Node1</title>
<g id="a_Node000001"><a xlink:title=" ">
<polygon fill="#999999" stroke="#666666" points="184.5,-448 30.5,-448 30.5,-407 184.5,-407 184.5,-448"/>
<text text-anchor="start" x="38.5" y="-436" font-family="Helvetica,sans-Serif" font-size="10.00">include/Thoth/Http</text>
<text text-anchor="start" x="38.5" y="-425" font-family="Helvetica,sans-Serif" font-size="10.00">/NHeaders/Request/Headers</text>
<text text-anchor="middle" x="107.5" y="-414" font-family="Helvetica,sans-Serif" font-size="10.00">/Range.hpp</text>
</a>
</g>
</g>
<!-- Node2 -->
<g id="Node000002" class="node">
<title>Node2</title>
<g id="a_Node000002"><a xlink:href="_request_2_headers_2__pch_8hpp.html" target="_top" xlink:title=" ">
<polygon fill="white" stroke="#666666" points="184.5,-371 30.5,-371 30.5,-330 184.5,-330 184.5,-371"/>
<text text-anchor="start" x="38.5" y="-359" font-family="Helvetica,sans-Serif" font-size="10.00">include/Thoth/Http</text>
<text text-anchor="start" x="38.5" y="-348" font-family="Helvetica,sans-Serif" font-size="10.00">/NHeaders/Request/Headers</text>
<text text-anchor="middle" x="107.5" y="-337" font-family="Helvetica,sans-Serif" font-size="10.00">/_pch.hpp</text>
</a>
</g>
</g>
<!-- Node1&#45;&gt;Node2 -->
<g id="edge1_Node000001_Node000002" class="edge">
<title>Node1&#45;&gt;Node2</title>
<g id="a_edge1_Node000001_Node000002"><a xlink:title=" ">
<path fill="none" stroke="#63b8ff" d="M107.5,-396.69C107.5,-388.08 107.5,-378.9 107.5,-371.07"/>
<polygon fill="#63b8ff" stroke="#63b8ff" points="104,-396.79 107.5,-406.79 111,-396.79 104,-396.79"/>
</a>
</g>
</g>
<!-- Node3 -->
<g id="Node000003" class="node">
<title>Node3</title>
<g id="a_Node000003"><a xlink:href="_request_headers_8hpp.html" target="_top" xlink:title=" ">
<polygon fill="white" stroke="#666666" points="215,-294 0,-294 0,-264 215,-264 215,-294"/>
<text text-anchor="start" x="8" y="-282" font-family="Helvetica,sans-Serif" font-size="10.00">include/Thoth/Http</text>
<text text-anchor="middle" x="107.5" y="-271" font-family="Helvetica,sans-Serif" font-size="10.00">/NHeaders/Request/RequestHeaders.hpp</text>
</a>
</g>
</g>
<!-- Node2&#45;&gt;Node3 -->
<g id="edge2_Node000002_Node000003" class="edge">
<title>Node2&#45;&gt;Node3</title>
<g id="a_edge2_Node000002_Node000003"><a xlink:title=" ">
<path fill="none" stroke="#63b8ff" d="M107.5,-319.66C107.5,-310.76 107.5,-301.42 107.5,-294.04"/>
<polygon fill="#63b8ff" stroke="#63b8ff" points="104,-319.77 107.5,-329.77 111,-319.77 104,-319.77"/>
</a>
</g>
</g>
<!-- Node4 -->
<g id="Node000004" class="node">
<title>Node4</title>
<g id="a_Node000004"><a xlink:href="_request_8hpp.html" target="_top" xlink:title=" ">
<polygon fill="white" stroke="#666666" points="169,-228 46,-228 46,-198 169,-198 169,-228"/>
<text text-anchor="start" x="54" y="-216" font-family="Helvetica,sans-Serif" font-size="10.00">include/Thoth/Http</text>
<text text-anchor="middle" x="107.5" y="-205" font-family="Helvetica,sans-Serif" font-size="10.00">/Request/Request.hpp</text>
</a>
</g>
</g>
<!-- Node3&#45;&gt;Node4 -->
<g id="edge3_Node000003_Node000004" class="edge">
<title>Node3&#45;&gt;Node4</title>
<g id="a_edge3_Node000003_Node000004"><a xlink:title=" ">
<path fill="none" stroke="#63b8ff" d="M107.5,-253.54C107.5,-244.96 107.5,-235.61 107.5,-228.16"/>
<polygon fill="#63b8ff" stroke="#63b8ff" points="104,-253.8 107.5,-263.8 111,-253.8 104,-253.8"/>
</a>
</g>
</g>
<!-- Node5 -->
<g id="Node000005" class="node">
<title>Node5</title>
<g id="a_Node000005"><a xlink:href="_client_8hpp.html" target="_top" xlink:title=" ">
<polygon fill="white" stroke="#666666" points="157,-30 50,-30 50,0 157,0 157,-30"/>
<text text-anchor="start" x="58" y="-18" font-family="Helvetica,sans-Serif" font-size="10.00">include/Thoth/Http</text>
<text text-anchor="middle" x="103.5" y="-7" font-family="Helvetica,sans-Serif" font-size="10.00">/Client.hpp</text>
</a>
</g>
</g>
<!-- Node4&#45;&gt;Node5 -->
<g id="edge4_Node000004_Node000005" class="edge">
<title>Node4&#45;&gt;Node5</title>
<g id="a_edge4_Node000004_Node000005"><a xlink:title=" ">
<path fill="none" stroke="#63b8ff" d="M86.96,-189.76C80.74,-181.64 74.72,-171.97 71.5,-162 65.69,-143.99 73.88,-78.37 77.5,-66 81.24,-53.23 88.35,-39.92 94.18,-30.24"/>
<polygon fill="#63b8ff" stroke="#63b8ff" points="84.35,-192.11 93.39,-197.63 89.77,-187.67 84.35,-192.11"/>
</a>
</g>
</g>
<!-- Node6 -->
<g id="Node000006" class="node">
<title>Node6</title>
<g id="a_Node000006"><a xlink:href="_response_head_8hpp.html" target="_top" xlink:title=" ">
<polygon fill="white" stroke="#666666" points="244.5,-162 80.5,-162 80.5,-132 244.5,-132 244.5,-162"/>
<text text-anchor="start" x="88.5" y="-150" font-family="Helvetica,sans-Serif" font-size="10.00">include/Thoth/Http</text>
<text text-anchor="middle" x="162.5" y="-139" font-family="Helvetica,sans-Serif" font-size="10.00">/Response/ResponseHead.hpp</text>
</a>
</g>
</g>
<!-- Node4&#45;&gt;Node6 -->
<g id="edge5_Node000004_Node000006" class="edge">
<title>Node4&#45;&gt;Node6</title>
<g id="a_edge5_Node000004_Node000006"><a xlink:title=" ">
<path fill="none" stroke="#63b8ff" d="M126.33,-190.09C134.27,-180.85 143.28,-170.36 150.33,-162.16"/>
<polygon fill="#63b8ff" stroke="#63b8ff" points="123.57,-187.93 119.71,-197.8 128.88,-192.49 123.57,-187.93"/>
</a>
</g>
</g>
<!-- Node7 -->
<g id="Node000007" class="node">
<title>Node7</title>
<g id="a_Node000007"><a xlink:href="_response_8hpp.html" target="_top" xlink:title=" ">
<polygon fill="white" stroke="#666666" points="224.5,-96 86.5,-96 86.5,-66 224.5,-66 224.5,-96"/>
<text text-anchor="start" x="94.5" y="-84" font-family="Helvetica,sans-Serif" font-size="10.00">include/Thoth/Http</text>
<text text-anchor="middle" x="155.5" y="-73" font-family="Helvetica,sans-Serif" font-size="10.00">/Response/Response.hpp</text>
</a>
</g>
</g>
<!-- Node6&#45;&gt;Node7 -->
<g id="edge6_Node000006_Node000007" class="edge">
<title>Node6&#45;&gt;Node7</title>
<g id="a_edge6_Node000006_Node000007"><a xlink:title=" ">
<path fill="none" stroke="#63b8ff" d="M159.86,-121.83C158.91,-113.17 157.87,-103.7 157.05,-96.16"/>
<polygon fill="#63b8ff" stroke="#63b8ff" points="156.38,-122.24 160.95,-131.8 163.34,-121.48 156.38,-122.24"/>
</a>
</g>
</g>
<!-- Node7&#45;&gt;Node5 -->
<g id="edge7_Node000007_Node000005" class="edge">
<title>Node7&#45;&gt;Node5</title>
<g id="a_edge7_Node000007_Node000005"><a xlink:title=" ">
<path fill="none" stroke="#63b8ff" d="M137.47,-57.81C130.02,-48.64 121.6,-38.28 115.01,-30.16"/>
<polygon fill="#63b8ff" stroke="#63b8ff" points="134.94,-60.24 143.96,-65.8 140.37,-55.83 134.94,-60.24"/>
</a>
</g>
</g>
</g>
</svg>
