<?xml version="1.0" encoding="UTF-8" standalone="no"?>
<!DOCTYPE svg PUBLIC "-//W3C//DTD SVG 1.1//EN"
 "http://www.w3.org/Graphics/SVG/1.1/DTD/svg11.dtd">
<!-- Generated by graphviz version 2.43.0 (0)
 -->
<!-- Title: include/Thoth/Http/RequestError.hpp Pages: 1 -->
<svg width="1891pt" height="643pt"
 viewBox="0.00 0.00 1891.41 643.00" xmlns="http://www.w3.org/2000/svg" xmlns:xlink="http://www.w3.org/1999/xlink">
<g id="graph0" class="graph" transform="scale(1 1) rotate(0) translate(4 639)">
<title>include/Thoth/Http/RequestError.hpp</title>
<!-- Node1 -->
<g id="Node000001" class="node">
<title>Node1</title>
<g id="a_Node000001"><a xlink:title=" ">
<polygon fill="#999999" stroke="#666666" points="138.5,-635 31.5,-635 31.5,-605 138.5,-605 138.5,-635"/>
<text text-anchor="start" x="39.5" y="-623" font-family="Helvetica,sans-Serif" font-size="10.00">include/Thoth/Http</text>
<text text-anchor="middle" x="85" y="-612" font-family="Helvetica,sans-Serif" font-size="10.00">/RequestError.hpp</text>
</a>
</g>
</g>
<!-- Node2 -->
<g id="Node000002" class="node">
<title>Node2</title>
<g id="a_Node000002"><a xlink:href="_client_8hpp.html" target="_top" xlink:title=" ">
<polygon fill="white" stroke="#666666" points="315.5,-30 208.5,-30 208.5,0 315.5,0 315.5,-30"/>
<text text-anchor="start" x="216.5" y="-18" font-family="Helvetica,sans-Serif" font-size="10.00">include/Thoth/Http</text>
<text text-anchor="middle" x="262" y="-7" font-family="Helvetica,sans-Serif" font-size="10.00">/Client.hpp</text>
</a>
</g>
</g>
<!-- Node1&#45;&gt;Node2 -->
<g id="edge1_Node000001_Node000002" class="edge">
<title>Node1&#45;&gt;Node2</title>
<g id="a_edge1_Node000001_Node000002"><a xlink:title=" ">
<path fill="none" stroke="#63b8ff" d="M60.39,-598.24C35.28,-574.61 0,-533.48 0,-489 0,-489 0,-489 0,-146 0,-53.84 131.7,-27.01 208.35,-19.21"/>
<polygon fill="#63b8ff" stroke="#63b8ff" points="58.05,-600.85 67.8,-604.99 62.77,-595.67 58.05,-600.85"/>
</a>
</g>
</g>
<!-- Node3 -->
<g id="Node000003" class="node">
<title>Node3</title>
<g id="a_Node000003"><a xlink:href="_query_params_8hpp.html" target="_top" xlink:title=" ">
<polygon fill="white" stroke="#666666" points="413.5,-569 264.5,-569 264.5,-539 413.5,-539 413.5,-569"/>
<text text-anchor="start" x="272.5" y="-557" font-family="Helvetica,sans-Serif" font-size="10.00">include/Thoth/Http</text>
<text text-anchor="middle" x="339" y="-546" font-family="Helvetica,sans-Serif" font-size="10.00">/Request/QueryParams.hpp</text>
</a>
</g>
</g>
<!-- Node1&#45;&gt;Node3 -->
<g id="edge2_Node000001_Node000003" class="edge">
<title>Node1&#45;&gt;Node3</title>
<g id="a_edge2_Node000001_Node000003"><a xlink:title=" ">
<path fill="none" stroke="#63b8ff" d="M148.28,-603.05C189.76,-592.6 243.47,-579.07 283.32,-569.03"/>
<polygon fill="#63b8ff" stroke="#63b8ff" points="147.4,-599.67 138.56,-605.51 149.11,-606.46 147.4,-599.67"/>
</a>
</g>
</g>
<!-- Node23 -->
<g id="Node000023" class="node">
<title>Node23</title>
<g id="a_Node000023"><a xlink:href="_json_8hpp.html" target="_top" xlink:title=" ">
<polygon fill="white" stroke="#666666" points="141.5,-503 28.5,-503 28.5,-473 141.5,-473 141.5,-503"/>
<text text-anchor="start" x="36.5" y="-491" font-family="Helvetica,sans-Serif" font-size="10.00">include/Thoth/NJson</text>
<text text-anchor="middle" x="85" y="-480" font-family="Helvetica,sans-Serif" font-size="10.00">/Json.hpp</text>
</a>
</g>
</g>
<!-- Node1&#45;&gt;Node23 -->
<g id="edge32_Node000001_Node000023" class="edge">
<title>Node1&#45;&gt;Node23</title>
<g id="a_edge32_Node000001_Node000023"><a xlink:title=" ">
<path fill="none" stroke="#63b8ff" d="M85,-594.68C85,-567.7 85,-525.11 85,-503.14"/>
<polygon fill="#63b8ff" stroke="#63b8ff" points="81.5,-594.84 85,-604.84 88.5,-594.84 81.5,-594.84"/>
</a>
</g>
</g>
<!-- Node4 -->
<g id="Node000004" class="node">
<title>Node4</title>
<g id="a_Node000004"><a xlink:href="_url_8hpp.html" target="_top" xlink:title=" ">
<polygon fill="white" stroke="#666666" points="675.5,-503 568.5,-503 568.5,-473 675.5,-473 675.5,-503"/>
<text text-anchor="start" x="576.5" y="-491" font-family="Helvetica,sans-Serif" font-size="10.00">include/Thoth/Http</text>
<text text-anchor="middle" x="622" y="-480" font-family="Helvetica,sans-Serif" font-size="10.00">/Url/Url.hpp</text>
</a>
</g>
</g>
<!-- Node3&#45;&gt;Node4 -->
<g id="edge3_Node000003_Node000004" class="edge">
<title>Node3&#45;&gt;Node4</title>
<g id="a_edge3_Node000003_Node000004"><a xlink:title=" ">
<path fill="none" stroke="#63b8ff" d="M411,-536.72C459.92,-525.65 523.59,-511.25 568.14,-501.18"/>
<polygon fill="#63b8ff" stroke="#63b8ff" points="410.09,-533.34 401.11,-538.95 411.63,-540.16 410.09,-533.34"/>
</a>
</g>
</g>
<!-- Node5 -->
<g id="Node000005" class="node">
<title>Node5</title>
<g id="a_Node000005"><a xlink:href="_method_concept_8hpp.html" target="_top" xlink:title=" ">
<polygon fill="white" stroke="#666666" points="1015,-371 821,-371 821,-341 1015,-341 1015,-371"/>
<text text-anchor="start" x="829" y="-359" font-family="Helvetica,sans-Serif" font-size="10.00">include/Thoth/Http</text>
<text text-anchor="middle" x="918" y="-348" font-family="Helvetica,sans-Serif" font-size="10.00">/Methods/_base/MethodConcept.hpp</text>
</a>
</g>
</g>
<!-- Node4&#45;&gt;Node5 -->
<g id="edge4_Node000004_Node000005" class="edge">
<title>Node4&#45;&gt;Node5</title>
<g id="a_edge4_Node000004_Node000005"><a xlink:title=" ">
<path fill="none" stroke="#63b8ff" d="M663.44,-468.8C723.03,-442.63 831.7,-394.9 885.73,-371.17"/>
<polygon fill="#63b8ff" stroke="#63b8ff" points="661.71,-465.74 653.96,-472.96 664.52,-472.15 661.71,-465.74"/>
</a>
</g>
</g>
<!-- Node9 -->
<g id="Node000009" class="node">
<title>Node9</title>
<g id="a_Node000009"><a xlink:href="_request_8hpp.html" target="_top" xlink:title=" ">
<polygon fill="white" stroke="#666666" points="508.5,-233.5 385.5,-233.5 385.5,-203.5 508.5,-203.5 508.5,-233.5"/>
<text text-anchor="start" x="393.5" y="-221.5" font-family="Helvetica,sans-Serif" font-size="10.00">include/Thoth/Http</text>
<text text-anchor="middle" x="447" y="-210.5" font-family="Helvetica,sans-Serif" font-size="10.00">/Request/Request.hpp</text>
</a>
</g>
</g>
<!-- Node4&#45;&gt;Node9 -->
<g id="edge31_Node000004_Node000009" class="edge">
<title>Node4&#45;&gt;Node9</title>
<g id="a_edge31_Node000004_Node000009"><a xlink:title=" ">
<path fill="none" stroke="#63b8ff" d="M686.12,-486.13C962.99,-481.3 2034.38,-451.14 1865,-275 1817.37,-225.47 775.58,-220.12 508.79,-219.56"/>
<polygon fill="#63b8ff" stroke="#63b8ff" points="685.78,-482.63 675.84,-486.3 685.9,-489.63 685.78,-482.63"/>
</a>
</g>
</g>
<!-- Node18 -->
<g id="Node000018" class="node">
<title>Node18</title>
<g id="a_Node000018"><a xlink:href="_headers_8hpp.html" target="_top" xlink:title=" ">
<polygon fill="white" stroke="#666666" points="558,-437 426,-437 426,-407 558,-407 558,-437"/>
<text text-anchor="start" x="434" y="-425" font-family="Helvetica,sans-Serif" font-size="10.00">include/Thoth/Http</text>
<text text-anchor="middle" x="492" y="-414" font-family="Helvetica,sans-Serif" font-size="10.00">/NHeaders/Headers.hpp</text>
</a>
</g>
</g>
<!-- Node4&#45;&gt;Node18 -->
<g id="edge22_Node000004_Node000018" class="edge">
<title>Node4&#45;&gt;Node18</title>
<g id="a_edge22_Node000004_Node000018"><a xlink:title=" ">
<path fill="none" stroke="#63b8ff" d="M584.45,-468.51C564.05,-458.47 539.24,-446.26 520.46,-437.01"/>
<polygon fill="#63b8ff" stroke="#63b8ff" points="582.95,-471.68 593.47,-472.95 586.05,-465.4 582.95,-471.68"/>
</a>
</g>
</g>
<!-- Node6 -->
<g id="Node000006" class="node">
<title>Node6</title>
<g id="a_Node000006"><a xlink:href="_connect_method_8hpp.html" target="_top" xlink:title=" ">
<polygon fill="white" stroke="#666666" points="1170,-305 1008,-305 1008,-275 1170,-275 1170,-305"/>
<text text-anchor="start" x="1016" y="-293" font-family="Helvetica,sans-Serif" font-size="10.00">include/Thoth/Http</text>
<text text-anchor="middle" x="1089" y="-282" font-family="Helvetica,sans-Serif" font-size="10.00">/Methods/ConnectMethod.hpp</text>
</a>
</g>
</g>
<!-- Node5&#45;&gt;Node6 -->
<g id="edge5_Node000005_Node000006" class="edge">
<title>Node5&#45;&gt;Node6</title>
<g id="a_edge5_Node000005_Node000006"><a xlink:title=" ">
<path fill="none" stroke="#63b8ff" d="M965.23,-337.32C992.45,-327.14 1026.19,-314.51 1051.56,-305.01"/>
<polygon fill="#63b8ff" stroke="#63b8ff" points="963.67,-334.17 955.53,-340.95 966.12,-340.73 963.67,-334.17"/>
</a>
</g>
</g>
<!-- Node7 -->
<g id="Node000007" class="node">
<title>Node7</title>
<g id="a_Node000007"><a xlink:href="_delete_method_8hpp.html" target="_top" xlink:title=" ">
<polygon fill="white" stroke="#666666" points="1343.5,-305 1188.5,-305 1188.5,-275 1343.5,-275 1343.5,-305"/>
<text text-anchor="start" x="1196.5" y="-293" font-family="Helvetica,sans-Serif" font-size="10.00">include/Thoth/Http</text>
<text text-anchor="middle" x="1266" y="-282" font-family="Helvetica,sans-Serif" font-size="10.00">/Methods/DeleteMethod.hpp</text>
</a>
</g>
</g>
<!-- Node5&#45;&gt;Node7 -->
<g id="edge6_Node000005_Node000007" class="edge">
<title>Node5&#45;&gt;Node7</title>
<g id="a_edge6_Node000005_Node000007"><a xlink:title=" ">
<path fill="none" stroke="#63b8ff" d="M1004.43,-339.11C1061.32,-328.64 1135.11,-315.07 1189.81,-305.01"/>
<polygon fill="#63b8ff" stroke="#63b8ff" points="1003.57,-335.7 994.37,-340.95 1004.84,-342.59 1003.57,-335.7"/>
</a>
</g>
</g>
<!-- Node8 -->
<g id="Node000008" class="node">
<title>Node8</title>
<g id="a_Node000008"><a xlink:href="_get_method_8hpp.html" target="_top" xlink:title=" ">
<polygon fill="white" stroke="#666666" points="468,-305 328,-305 328,-275 468,-275 468,-305"/>
<text text-anchor="start" x="336" y="-293" font-family="Helvetica,sans-Serif" font-size="10.00">include/Thoth/Http</text>
<text text-anchor="middle" x="398" y="-282" font-family="Helvetica,sans-Serif" font-size="10.00">/Methods/GetMethod.hpp</text>
</a>
</g>
</g>
<!-- Node5&#45;&gt;Node8 -->
<g id="edge7_Node000005_Node000008" class="edge">
<title>Node5&#45;&gt;Node8</title>
<g id="a_edge7_Node000005_Node000008"><a xlink:title=" ">
<path fill="none" stroke="#63b8ff" d="M810.71,-341.8C708.02,-329.16 556.1,-310.46 468.08,-299.62"/>
<polygon fill="#63b8ff" stroke="#63b8ff" points="810.45,-345.29 820.8,-343.04 811.3,-338.34 810.45,-345.29"/>
</a>
</g>
</g>
<!-- Node12 -->
<g id="Node000012" class="node">
<title>Node12</title>
<g id="a_Node000012"><a xlink:href="_head_method_8hpp.html" target="_top" xlink:title=" ">
<polygon fill="white" stroke="#666666" points="1510,-305 1362,-305 1362,-275 1510,-275 1510,-305"/>
<text text-anchor="start" x="1370" y="-293" font-family="Helvetica,sans-Serif" font-size="10.00">include/Thoth/Http</text>
<text text-anchor="middle" x="1436" y="-282" font-family="Helvetica,sans-Serif" font-size="10.00">/Methods/HeadMethod.hpp</text>
</a>
</g>
</g>
<!-- Node5&#45;&gt;Node12 -->
<g id="edge14_Node000005_Node000012" class="edge">
<title>Node5&#45;&gt;Node12</title>
<g id="a_edge14_Node000005_Node000012"><a xlink:title=" ">
<path fill="none" stroke="#63b8ff" d="M1025.38,-344.25C1113.55,-335.04 1241.57,-320.79 1353,-305 1355.89,-304.59 1358.84,-304.16 1361.82,-303.71"/>
<polygon fill="#63b8ff" stroke="#63b8ff" points="1024.95,-340.77 1015.37,-345.29 1025.68,-347.74 1024.95,-340.77"/>
</a>
</g>
</g>
<!-- Node13 -->
<g id="Node000013" class="node">
<title>Node13</title>
<g id="a_Node000013"><a xlink:href="_options_method_8hpp.html" target="_top" xlink:title=" ">
<polygon fill="white" stroke="#666666" points="1688,-305 1528,-305 1528,-275 1688,-275 1688,-305"/>
<text text-anchor="start" x="1536" y="-293" font-family="Helvetica,sans-Serif" font-size="10.00">include/Thoth/Http</text>
<text text-anchor="middle" x="1608" y="-282" font-family="Helvetica,sans-Serif" font-size="10.00">/Methods/OptionsMethod.hpp</text>
</a>
</g>
</g>
<!-- Node5&#45;&gt;Node13 -->
<g id="edge15_Node000005_Node000013" class="edge">
<title>Node5&#45;&gt;Node13</title>
<g id="a_edge15_Node000005_Node000013"><a xlink:title=" ">
<path fill="none" stroke="#63b8ff" d="M1025.35,-348.44C1145.76,-340.54 1346.78,-325.68 1519,-305 1521.95,-304.65 1524.95,-304.27 1527.98,-303.87"/>
<polygon fill="#63b8ff" stroke="#63b8ff" points="1024.78,-344.97 1015.03,-349.12 1025.23,-351.96 1024.78,-344.97"/>
</a>
</g>
</g>
<!-- Node14 -->
<g id="Node000014" class="node">
<title>Node14</title>
<g id="a_Node000014"><a xlink:href="_patch_method_8hpp.html" target="_top" xlink:title=" ">
<polygon fill="white" stroke="#666666" points="1855.5,-305 1706.5,-305 1706.5,-275 1855.5,-275 1855.5,-305"/>
<text text-anchor="start" x="1714.5" y="-293" font-family="Helvetica,sans-Serif" font-size="10.00">include/Thoth/Http</text>
<text text-anchor="middle" x="1781" y="-282" font-family="Helvetica,sans-Serif" font-size="10.00">/Methods/PatchMethod.hpp</text>
</a>
</g>
</g>
<!-- Node5&#45;&gt;Node14 -->
<g id="edge16_Node000005_Node000014" class="edge">
<title>Node5&#45;&gt;Node14</title>
<g id="a_edge16_Node000005_Node000014"><a xlink:title=" ">
<path fill="none" stroke="#63b8ff" d="M1025.3,-351.54C1175.8,-345.92 1457.97,-332.52 1697,-305 1700.08,-304.64 1703.23,-304.25 1706.4,-303.84"/>
<polygon fill="#63b8ff" stroke="#63b8ff" points="1025,-348.05 1015.13,-351.92 1025.26,-355.05 1025,-348.05"/>
</a>
</g>
</g>
<!-- Node15 -->
<g id="Node000015" class="node">
<title>Node15</title>
<g id="a_Node000015"><a xlink:href="_post_method_8hpp.html" target="_top" xlink:title=" ">
<polygon fill="white" stroke="#666666" points="989.5,-305 846.5,-305 846.5,-275 989.5,-275 989.5,-305"/>
<text text-anchor="start" x="854.5" y="-293" font-family="Helvetica,sans-Serif" font-size="10.00">include/Thoth/Http</text>
<text text-anchor="middle" x="918" y="-282" font-family="Helvetica,sans-Serif" font-size="10.00">/Methods/PostMethod.hpp</text>
</a>
</g>
</g>
<!-- Node5&#45;&gt;Node15 -->
<g id="edge17_Node000005_Node000015" class="edge">
<title>Node5&#45;&gt;Node15</title>
<g id="a_edge17_Node000005_Node000015"><a xlink:title=" ">
<path fill="none" stroke="#63b8ff" d="M918,-330.54C918,-321.96 918,-312.61 918,-305.16"/>
<polygon fill="#63b8ff" stroke="#63b8ff" points="914.5,-330.8 918,-340.8 921.5,-330.8 914.5,-330.8"/>
</a>
</g>
</g>
<!-- Node16 -->
<g id="Node000016" class="node">
<title>Node16</title>
<g id="a_Node000016"><a xlink:href="_put_method_8hpp.html" target="_top" xlink:title=" ">
<polygon fill="white" stroke="#666666" points="662,-305 524,-305 524,-275 662,-275 662,-305"/>
<text text-anchor="start" x="532" y="-293" font-family="Helvetica,sans-Serif" font-size="10.00">include/Thoth/Http</text>
<text text-anchor="middle" x="593" y="-282" font-family="Helvetica,sans-Serif" font-size="10.00">/Methods/PutMethod.hpp</text>
</a>
</g>
</g>
<!-- Node5&#45;&gt;Node16 -->
<g id="edge20_Node000005_Node000016" class="edge">
<title>Node5&#45;&gt;Node16</title>
<g id="a_edge20_Node000005_Node000016"><a xlink:title=" ">
<path fill="none" stroke="#63b8ff" d="M836.83,-339.02C783.08,-328.43 713.33,-314.7 662.2,-304.63"/>
<polygon fill="#63b8ff" stroke="#63b8ff" points="836.19,-342.46 846.68,-340.95 837.54,-335.59 836.19,-342.46"/>
</a>
</g>
</g>
<!-- Node17 -->
<g id="Node000017" class="node">
<title>Node17</title>
<g id="a_Node000017"><a xlink:href="_trace_method_8hpp.html" target="_top" xlink:title=" ">
<polygon fill="white" stroke="#666666" points="828,-305 680,-305 680,-275 828,-275 828,-305"/>
<text text-anchor="start" x="688" y="-293" font-family="Helvetica,sans-Serif" font-size="10.00">include/Thoth/Http</text>
<text text-anchor="middle" x="754" y="-282" font-family="Helvetica,sans-Serif" font-size="10.00">/Methods/TraceMethod.hpp</text>
</a>
</g>
</g>
<!-- Node5&#45;&gt;Node17 -->
<g id="edge21_Node000005_Node000017" class="edge">
<title>Node5&#45;&gt;Node17</title>
<g id="a_edge21_Node000005_Node000017"><a xlink:title=" ">
<path fill="none" stroke="#63b8ff" d="M872.36,-337.19C846.31,-327.02 814.13,-314.47 789.91,-305.01"/>
<polygon fill="#63b8ff" stroke="#63b8ff" points="871.42,-340.58 882.01,-340.95 873.97,-334.06 871.42,-340.58"/>
</a>
</g>
</g>
<!-- Node8&#45;&gt;Node9 -->
<g id="edge8_Node000008_Node000009" class="edge">
<title>Node8&#45;&gt;Node9</title>
<g id="a_edge8_Node000008_Node000009"><a xlink:title=" ">
<path fill="none" stroke="#63b8ff" d="M413.72,-266.71C421.39,-255.82 430.39,-243.05 437.1,-233.54"/>
<polygon fill="#63b8ff" stroke="#63b8ff" points="410.82,-264.75 407.92,-274.94 416.54,-268.78 410.82,-264.75"/>
</a>
</g>
</g>
<!-- Node11 -->
<g id="Node000011" class="node">
<title>Node11</title>
<g id="a_Node000011"><a xlink:href="_response_8hpp.html" target="_top" xlink:title=" ">
<polygon fill="white" stroke="#666666" points="331,-96 193,-96 193,-66 331,-66 331,-96"/>
<text text-anchor="start" x="201" y="-84" font-family="Helvetica,sans-Serif" font-size="10.00">include/Thoth/Http</text>
<text text-anchor="middle" x="262" y="-73" font-family="Helvetica,sans-Serif" font-size="10.00">/Response/Response.hpp</text>
</a>
</g>
</g>
<!-- Node8&#45;&gt;Node11 -->
<g id="edge13_Node000008_Node000011" class="edge">
<title>Node8&#45;&gt;Node11</title>
<g id="a_edge13_Node000008_Node000011"><a xlink:title=" ">
<path fill="none" stroke="#63b8ff" d="M372.04,-268.03C345.17,-244.89 303.96,-205.18 281,-162 269.67,-140.7 265.02,-112.66 263.17,-96.06"/>
<polygon fill="#63b8ff" stroke="#63b8ff" points="369.99,-270.88 379.89,-274.66 374.51,-265.53 369.99,-270.88"/>
</a>
</g>
</g>
<!-- Node9&#45;&gt;Node2 -->
<g id="edge9_Node000009_Node000002" class="edge">
<title>Node9&#45;&gt;Node2</title>
<g id="a_edge9_Node000009_Node000002"><a xlink:title=" ">
<path fill="none" stroke="#63b8ff" d="M459.44,-194.27C467.27,-176.21 474.02,-151.09 463,-132 431.37,-77.22 362.94,-46 314.74,-30.05"/>
<polygon fill="#63b8ff" stroke="#63b8ff" points="456.18,-192.96 455.08,-203.5 462.51,-195.95 456.18,-192.96"/>
</a>
</g>
</g>
<!-- Node10 -->
<g id="Node000010" class="node">
<title>Node10</title>
<g id="a_Node000010"><a xlink:href="_response_head_8hpp.html" target="_top" xlink:title=" ">
<polygon fill="white" stroke="#666666" points="454,-162 290,-162 290,-132 454,-132 454,-162"/>
<text text-anchor="start" x="298" y="-150" font-family="Helvetica,sans-Serif" font-size="10.00">include/Thoth/Http</text>
<text text-anchor="middle" x="372" y="-139" font-family="Helvetica,sans-Serif" font-size="10.00">/Response/ResponseHead.hpp</text>
</a>
</g>
</g>
<!-- Node9&#45;&gt;Node10 -->
<g id="edge10_Node000009_Node000010" class="edge">
<title>Node9&#45;&gt;Node10</title>
<g id="a_edge10_Node000009_Node000010"><a xlink:title=" ">
<path fill="none" stroke="#63b8ff" d="M424.33,-196.49C412.29,-185.34 397.82,-171.93 387.15,-162.04"/>
<polygon fill="#63b8ff" stroke="#63b8ff" points="422.11,-199.21 431.82,-203.44 426.87,-194.07 422.11,-199.21"/>
</a>
</g>
</g>
<!-- Node10&#45;&gt;Node11 -->
<g id="edge11_Node000010_Node000011" class="edge">
<title>Node10&#45;&gt;Node11</title>
<g id="a_edge11_Node000010_Node000011"><a xlink:title=" ">
<path fill="none" stroke="#63b8ff" d="M338.82,-126.69C321.84,-116.82 301.55,-105.01 286.08,-96.01"/>
<polygon fill="#63b8ff" stroke="#63b8ff" points="337.46,-129.95 347.86,-131.95 340.98,-123.9 337.46,-129.95"/>
</a>
</g>
</g>
<!-- Node11&#45;&gt;Node2 -->
<g id="edge12_Node000011_Node000002" class="edge">
<title>Node11&#45;&gt;Node2</title>
<g id="a_edge12_Node000011_Node000002"><a xlink:title=" ">
<path fill="none" stroke="#63b8ff" d="M262,-55.54C262,-46.96 262,-37.61 262,-30.16"/>
<polygon fill="#63b8ff" stroke="#63b8ff" points="258.5,-55.8 262,-65.8 265.5,-55.8 258.5,-55.8"/>
</a>
</g>
</g>
<!-- Node15&#45;&gt;Node9 -->
<g id="edge18_Node000015_Node000009" class="edge">
<title>Node15&#45;&gt;Node9</title>
<g id="a_edge18_Node000015_Node000009"><a xlink:title=" ">
<path fill="none" stroke="#63b8ff" d="M836.22,-274.96C696.18,-255.46 657.9,-263.92 523,-239 514.83,-237.49 506.24,-235.59 497.89,-233.58"/>
<polygon fill="#63b8ff" stroke="#63b8ff" points="836.09,-278.47 846.48,-276.41 837.07,-271.54 836.09,-278.47"/>
</a>
</g>
</g>
<!-- Node15&#45;&gt;Node11 -->
<g id="edge19_Node000015_Node000011" class="edge">
<title>Node15&#45;&gt;Node11</title>
<g id="a_edge19_Node000015_Node000011"><a xlink:title=" ">
<path fill="none" stroke="#63b8ff" d="M871.39,-271.38C789.49,-240.78 614.1,-176.77 463,-132 416.97,-118.36 364.29,-105.35 324.41,-96.02"/>
<polygon fill="#63b8ff" stroke="#63b8ff" points="870.32,-274.72 880.91,-274.95 872.77,-268.16 870.32,-274.72"/>
</a>
</g>
</g>
<!-- Node18&#45;&gt;Node5 -->
<g id="edge23_Node000018_Node000005" class="edge">
<title>Node18&#45;&gt;Node5</title>
<g id="a_edge23_Node000018_Node000005"><a xlink:title=" ">
<path fill="none" stroke="#63b8ff" d="M568.41,-409.52C640.14,-398.74 747.6,-382.6 824.43,-371.06"/>
<polygon fill="#63b8ff" stroke="#63b8ff" points="567.46,-406.12 558.1,-411.07 568.5,-413.05 567.46,-406.12"/>
</a>
</g>
</g>
<!-- Node18&#45;&gt;Node10 -->
<g id="edge30_Node000018_Node000010" class="edge">
<title>Node18&#45;&gt;Node10</title>
<g id="a_edge30_Node000018_Node000010"><a xlink:title=" ">
<path fill="none" stroke="#63b8ff" d="M492.62,-396.52C491.71,-378.77 487.49,-355.44 473,-341 423.21,-291.39 362.68,-360.07 319,-305 283.78,-260.6 334.15,-191.56 359.24,-162.1"/>
<polygon fill="#63b8ff" stroke="#63b8ff" points="489.12,-396.79 492.82,-406.72 496.12,-396.66 489.12,-396.79"/>
</a>
</g>
</g>
<!-- Node19 -->
<g id="Node000019" class="node">
<title>Node19</title>
<g id="a_Node000019"><a xlink:href="_list_proxy_8hpp.html" target="_top" xlink:title=" ">
<polygon fill="white" stroke="#666666" points="270,-371 104,-371 104,-341 270,-341 270,-371"/>
<text text-anchor="start" x="112" y="-359" font-family="Helvetica,sans-Serif" font-size="10.00">include/Thoth/Http</text>
<text text-anchor="middle" x="187" y="-348" font-family="Helvetica,sans-Serif" font-size="10.00">/NHeaders/Proxy/ListProxy.hpp</text>
</a>
</g>
</g>
<!-- Node18&#45;&gt;Node19 -->
<g id="edge24_Node000018_Node000019" class="edge">
<title>Node18&#45;&gt;Node19</title>
<g id="a_edge24_Node000018_Node000019"><a xlink:title=" ">
<path fill="none" stroke="#63b8ff" d="M415.75,-405C365.98,-394.56 301.61,-381.05 253.84,-371.03"/>
<polygon fill="#63b8ff" stroke="#63b8ff" points="415.31,-408.48 425.82,-407.11 416.75,-401.63 415.31,-408.48"/>
</a>
</g>
</g>
<!-- Node20 -->
<g id="Node000020" class="node">
<title>Node20</title>
<g id="a_Node000020"><a xlink:href="_value_proxy_8hpp.html" target="_top" xlink:title=" ">
<polygon fill="white" stroke="#666666" points="464,-371 288,-371 288,-341 464,-341 464,-371"/>
<text text-anchor="start" x="296" y="-359" font-family="Helvetica,sans-Serif" font-size="10.00">include/Thoth/Http</text>
<text text-anchor="middle" x="376" y="-348" font-family="Helvetica,sans-Serif" font-size="10.00">/NHeaders/Proxy/ValueProxy.hpp</text>
</a>
</g>
</g>
<!-- Node18&#45;&gt;Node20 -->
<g id="edge25_Node000018_Node000020" class="edge">
<title>Node18&#45;&gt;Node20</title>
<g id="a_edge25_Node000018_Node000020"><a xlink:title=" ">
<path fill="none" stroke="#63b8ff" d="M457.51,-401.97C439.5,-392.03 417.85,-380.09 401.4,-371.01"/>
<polygon fill="#63b8ff" stroke="#63b8ff" points="456.1,-405.19 466.54,-406.95 459.48,-399.06 456.1,-405.19"/>
</a>
</g>
</g>
<!-- Node21 -->
<g id="Node000021" class="node">
<title>Node21</title>
<g id="a_Node000021"><a xlink:href="_request_headers_8hpp.html" target="_top" xlink:title=" ">
<polygon fill="white" stroke="#666666" points="735.5,-371 520.5,-371 520.5,-341 735.5,-341 735.5,-371"/>
<text text-anchor="start" x="528.5" y="-359" font-family="Helvetica,sans-Serif" font-size="10.00">include/Thoth/Http</text>
<text text-anchor="middle" x="628" y="-348" font-family="Helvetica,sans-Serif" font-size="10.00">/NHeaders/Request/RequestHeaders.hpp</text>
</a>
</g>
</g>
<!-- Node18&#45;&gt;Node21 -->
<g id="edge26_Node000018_Node000021" class="edge">
<title>Node18&#45;&gt;Node21</title>
<g id="a_edge26_Node000018_Node000021"><a xlink:title=" ">
<path fill="none" stroke="#63b8ff" d="M531,-402.65C552.39,-392.58 578.49,-380.3 598.22,-371.01"/>
<polygon fill="#63b8ff" stroke="#63b8ff" points="529.4,-399.53 521.85,-406.95 532.38,-405.86 529.4,-399.53"/>
</a>
</g>
</g>
<!-- Node22 -->
<g id="Node000022" class="node">
<title>Node22</title>
<g id="a_Node000022"><a xlink:href="_response_headers_8hpp.html" target="_top" xlink:title=" ">
<polygon fill="white" stroke="#666666" points="234,-239 66,-239 66,-198 234,-198 234,-239"/>
<text text-anchor="start" x="74" y="-227" font-family="Helvetica,sans-Serif" font-size="10.00">include/Thoth/Http</text>
<text text-anchor="start" x="74" y="-216" font-family="Helvetica,sans-Serif" font-size="10.00">/NHeaders/Response/Response</text>
<text text-anchor="middle" x="150" y="-205" font-family="Helvetica,sans-Serif" font-size="10.00">Headers.hpp</text>
</a>
</g>
</g>
<!-- Node18&#45;&gt;Node22 -->
<g id="edge28_Node000018_Node000022" class="edge">
<title>Node18&#45;&gt;Node22</title>
<g id="a_edge28_Node000018_Node000022"><a xlink:title=" ">
<path fill="none" stroke="#63b8ff" d="M415.71,-416.75C306.35,-409.87 115.83,-394.62 95,-371 60.76,-332.18 104.73,-270.35 131.75,-239.04"/>
<polygon fill="#63b8ff" stroke="#63b8ff" points="415.51,-420.24 425.71,-417.37 415.94,-413.26 415.51,-420.24"/>
</a>
</g>
</g>
<!-- Node21&#45;&gt;Node9 -->
<g id="edge27_Node000021_Node000009" class="edge">
<title>Node21&#45;&gt;Node9</title>
<g id="a_edge27_Node000021_Node000009"><a xlink:title=" ">
<path fill="none" stroke="#63b8ff" d="M573.97,-337.27C554.25,-329.27 532.51,-318.52 515,-305 488.73,-284.71 466.6,-252.21 455.23,-233.67"/>
<polygon fill="#63b8ff" stroke="#63b8ff" points="572.87,-340.6 583.46,-340.98 575.42,-334.08 572.87,-340.6"/>
</a>
</g>
</g>
<!-- Node22&#45;&gt;Node11 -->
<g id="edge29_Node000022_Node000011" class="edge">
<title>Node22&#45;&gt;Node11</title>
<g id="a_edge29_Node000022_Node000011"><a xlink:title=" ">
<path fill="none" stroke="#63b8ff" d="M172.84,-189.86C196.28,-161.5 231.83,-118.5 250.16,-96.33"/>
<polygon fill="#63b8ff" stroke="#63b8ff" points="169.96,-187.86 166.29,-197.8 175.35,-192.32 169.96,-187.86"/>
</a>
</g>
</g>
<!-- Node23&#45;&gt;Node11 -->
<g id="edge33_Node000023_Node000011" class="edge">
<title>Node23&#45;&gt;Node11</title>
<g id="a_edge33_Node000023_Node000011"><a xlink:title=" ">
<path fill="none" stroke="#63b8ff" d="M71.16,-463.97C57.3,-438.66 38,-396.37 38,-357 38,-357 38,-357 38,-217.5 38,-144.1 127.15,-109.38 192.96,-93.75"/>
<polygon fill="#63b8ff" stroke="#63b8ff" points="68.19,-465.82 76.16,-472.79 74.28,-462.37 68.19,-465.82"/>
</a>
</g>
</g>
</g>
</svg>
