<?xml version="1.0" encoding="UTF-8" standalone="no"?>
<!DOCTYPE svg PUBLIC "-//W3C//DTD SVG 1.1//EN"
 "http://www.w3.org/Graphics/SVG/1.1/DTD/svg11.dtd">
<!-- Generated by graphviz version 2.43.0 (0)
 -->
<!-- Title: include/Thoth/Http/RequestError.hpp Pages: 1 -->
<svg width="1616pt" height="643pt"
 viewBox="0.00 0.00 1616.41 643.00" xmlns="http://www.w3.org/2000/svg" xmlns:xlink="http://www.w3.org/1999/xlink">
<g id="graph0" class="graph" transform="scale(1 1) rotate(0) translate(4 639)">
<title>include/Thoth/Http/RequestError.hpp</title>
<!-- Node1 -->
<g id="Node000001" class="node">
<title>Node1</title>
<g id="a_Node000001"><a xlink:title=" ">
<polygon fill="#999999" stroke="#666666" points="138.5,-635 31.5,-635 31.5,-605 138.5,-605 138.5,-635"/>
<text text-anchor="start" x="39.5" y="-623" font-family="Helvetica,sans-Serif" font-size="10.00">include/Thoth/Http</text>
<text text-anchor="middle" x="85" y="-612" font-family="Helvetica,sans-Serif" font-size="10.00">/RequestError.hpp</text>
</a>
</g>
</g>
<!-- Node2 -->
<g id="Node000002" class="node">
<title>Node2</title>
<g id="a_Node000002"><a xlink:href="_client_8hpp.html" target="_top" xlink:title=" ">
<polygon fill="white" stroke="#666666" points="1141.5,-30 1034.5,-30 1034.5,0 1141.5,0 1141.5,-30"/>
<text text-anchor="start" x="1042.5" y="-18" font-family="Helvetica,sans-Serif" font-size="10.00">include/Thoth/Http</text>
<text text-anchor="middle" x="1088" y="-7" font-family="Helvetica,sans-Serif" font-size="10.00">/Client.hpp</text>
</a>
</g>
</g>
<!-- Node1&#45;&gt;Node2 -->
<g id="edge1_Node000001_Node000002" class="edge">
<title>Node1&#45;&gt;Node2</title>
<g id="a_edge1_Node000001_Node000002"><a xlink:title=" ">
<path fill="none" stroke="#63b8ff" d="M60.39,-598.24C35.28,-574.61 0,-533.48 0,-489 0,-489 0,-489 0,-146 0,-40.6 815.43,-20.26 1034.42,-16.7"/>
<polygon fill="#63b8ff" stroke="#63b8ff" points="58.05,-600.85 67.8,-604.99 62.77,-595.67 58.05,-600.85"/>
</a>
</g>
</g>
<!-- Node3 -->
<g id="Node000003" class="node">
<title>Node3</title>
<g id="a_Node000003"><a xlink:href="_query_params_8hpp.html" target="_top" xlink:title=" ">
<polygon fill="white" stroke="#666666" points="471.5,-569 322.5,-569 322.5,-539 471.5,-539 471.5,-569"/>
<text text-anchor="start" x="330.5" y="-557" font-family="Helvetica,sans-Serif" font-size="10.00">include/Thoth/Http</text>
<text text-anchor="middle" x="397" y="-546" font-family="Helvetica,sans-Serif" font-size="10.00">/Request/QueryParams.hpp</text>
</a>
</g>
</g>
<!-- Node1&#45;&gt;Node3 -->
<g id="edge2_Node000001_Node000003" class="edge">
<title>Node1&#45;&gt;Node3</title>
<g id="a_edge2_Node000001_Node000003"><a xlink:title=" ">
<path fill="none" stroke="#63b8ff" d="M148.47,-605.98C200.8,-595.25 274.88,-580.05 328.53,-569.04"/>
<polygon fill="#63b8ff" stroke="#63b8ff" points="147.73,-602.56 138.63,-608 149.13,-609.42 147.73,-602.56"/>
</a>
</g>
</g>
<!-- Node23 -->
<g id="Node000023" class="node">
<title>Node23</title>
<g id="a_Node000023"><a xlink:href="_json_8hpp.html" target="_top" xlink:title=" ">
<polygon fill="white" stroke="#666666" points="141.5,-503 28.5,-503 28.5,-473 141.5,-473 141.5,-503"/>
<text text-anchor="start" x="36.5" y="-491" font-family="Helvetica,sans-Serif" font-size="10.00">include/Thoth/NJson</text>
<text text-anchor="middle" x="85" y="-480" font-family="Helvetica,sans-Serif" font-size="10.00">/Json.hpp</text>
</a>
</g>
</g>
<!-- Node1&#45;&gt;Node23 -->
<g id="edge30_Node000001_Node000023" class="edge">
<title>Node1&#45;&gt;Node23</title>
<g id="a_edge30_Node000001_Node000023"><a xlink:title=" ">
<path fill="none" stroke="#63b8ff" d="M85,-594.68C85,-567.7 85,-525.11 85,-503.14"/>
<polygon fill="#63b8ff" stroke="#63b8ff" points="81.5,-594.84 85,-604.84 88.5,-594.84 81.5,-594.84"/>
</a>
</g>
</g>
<!-- Node4 -->
<g id="Node000004" class="node">
<title>Node4</title>
<g id="a_Node000004"><a xlink:href="_url_8hpp.html" target="_top" xlink:title=" ">
<polygon fill="white" stroke="#666666" points="781.5,-503 674.5,-503 674.5,-473 781.5,-473 781.5,-503"/>
<text text-anchor="start" x="682.5" y="-491" font-family="Helvetica,sans-Serif" font-size="10.00">include/Thoth/Http</text>
<text text-anchor="middle" x="728" y="-480" font-family="Helvetica,sans-Serif" font-size="10.00">/Request/Url.hpp</text>
</a>
</g>
</g>
<!-- Node3&#45;&gt;Node4 -->
<g id="edge3_Node000003_Node000004" class="edge">
<title>Node3&#45;&gt;Node4</title>
<g id="a_edge3_Node000003_Node000004"><a xlink:title=" ">
<path fill="none" stroke="#63b8ff" d="M479.61,-537.03C540.51,-525.25 621.58,-509.58 674.28,-499.39"/>
<polygon fill="#63b8ff" stroke="#63b8ff" points="478.79,-533.62 469.64,-538.95 480.12,-540.49 478.79,-533.62"/>
</a>
</g>
</g>
<!-- Node5 -->
<g id="Node000005" class="node">
<title>Node5</title>
<g id="a_Node000005"><a xlink:href="_method_concept_8hpp.html" target="_top" xlink:title=" ">
<polygon fill="white" stroke="#666666" points="1096,-365.5 902,-365.5 902,-335.5 1096,-335.5 1096,-365.5"/>
<text text-anchor="start" x="910" y="-353.5" font-family="Helvetica,sans-Serif" font-size="10.00">include/Thoth/Http</text>
<text text-anchor="middle" x="999" y="-342.5" font-family="Helvetica,sans-Serif" font-size="10.00">/Methods/_base/MethodConcept.hpp</text>
</a>
</g>
</g>
<!-- Node4&#45;&gt;Node5 -->
<g id="edge4_Node000004_Node000005" class="edge">
<title>Node4&#45;&gt;Node5</title>
<g id="a_edge4_Node000004_Node000005"><a xlink:title=" ">
<path fill="none" stroke="#63b8ff" d="M765.28,-468.36C820.21,-440.9 921.66,-390.17 970.83,-365.59"/>
<polygon fill="#63b8ff" stroke="#63b8ff" points="763.61,-465.28 756.23,-472.88 766.74,-471.54 763.61,-465.28"/>
</a>
</g>
</g>
<!-- Node9 -->
<g id="Node000009" class="node">
<title>Node9</title>
<g id="a_Node000009"><a xlink:href="_request_8hpp.html" target="_top" xlink:title=" ">
<polygon fill="white" stroke="#666666" points="1332.5,-228 1209.5,-228 1209.5,-198 1332.5,-198 1332.5,-228"/>
<text text-anchor="start" x="1217.5" y="-216" font-family="Helvetica,sans-Serif" font-size="10.00">include/Thoth/Http</text>
<text text-anchor="middle" x="1271" y="-205" font-family="Helvetica,sans-Serif" font-size="10.00">/Request/Request.hpp</text>
</a>
</g>
</g>
<!-- Node4&#45;&gt;Node9 -->
<g id="edge29_Node000004_Node000009" class="edge">
<title>Node4&#45;&gt;Node9</title>
<g id="a_edge29_Node000004_Node000009"><a xlink:title=" ">
<path fill="none" stroke="#63b8ff" d="M791.58,-482.94C975.17,-469.77 1499.63,-421.45 1602,-294 1610.35,-283.61 1610.7,-274.11 1602,-264 1567.94,-224.4 1418.52,-215.76 1332.54,-214.13"/>
<polygon fill="#63b8ff" stroke="#63b8ff" points="791.26,-479.45 781.53,-483.65 791.76,-486.44 791.26,-479.45"/>
</a>
</g>
</g>
<!-- Node18 -->
<g id="Node000018" class="node">
<title>Node18</title>
<g id="a_Node000018"><a xlink:href="_headers_8hpp.html" target="_top" xlink:title=" ">
<polygon fill="white" stroke="#666666" points="673,-437 541,-437 541,-407 673,-407 673,-437"/>
<text text-anchor="start" x="549" y="-425" font-family="Helvetica,sans-Serif" font-size="10.00">include/Thoth/Http</text>
<text text-anchor="middle" x="607" y="-414" font-family="Helvetica,sans-Serif" font-size="10.00">/NHeaders/Headers.hpp</text>
</a>
</g>
</g>
<!-- Node4&#45;&gt;Node18 -->
<g id="edge22_Node000004_Node000018" class="edge">
<title>Node4&#45;&gt;Node18</title>
<g id="a_edge22_Node000004_Node000018"><a xlink:title=" ">
<path fill="none" stroke="#63b8ff" d="M692.53,-468.24C673.65,-458.25 650.82,-446.18 633.49,-437.01"/>
<polygon fill="#63b8ff" stroke="#63b8ff" points="690.97,-471.37 701.45,-472.95 694.24,-465.19 690.97,-471.37"/>
</a>
</g>
</g>
<!-- Node6 -->
<g id="Node000006" class="node">
<title>Node6</title>
<g id="a_Node000006"><a xlink:href="_connect_method_8hpp.html" target="_top" xlink:title=" ">
<polygon fill="white" stroke="#666666" points="432,-294 270,-294 270,-264 432,-264 432,-294"/>
<text text-anchor="start" x="278" y="-282" font-family="Helvetica,sans-Serif" font-size="10.00">include/Thoth/Http</text>
<text text-anchor="middle" x="351" y="-271" font-family="Helvetica,sans-Serif" font-size="10.00">/Methods/ConnectMethod.hpp</text>
</a>
</g>
</g>
<!-- Node5&#45;&gt;Node6 -->
<g id="edge5_Node000005_Node000006" class="edge">
<title>Node5&#45;&gt;Node6</title>
<g id="a_edge5_Node000005_Node000006"><a xlink:title=" ">
<path fill="none" stroke="#63b8ff" d="M918.44,-333.79C909.87,-332.39 901.27,-331.09 893,-330 693.64,-303.78 641.73,-317.3 442,-294 438.82,-293.63 435.59,-293.23 432.32,-292.81"/>
<polygon fill="#63b8ff" stroke="#63b8ff" points="918.01,-337.27 928.46,-335.48 919.18,-330.37 918.01,-337.27"/>
</a>
</g>
</g>
<!-- Node7 -->
<g id="Node000007" class="node">
<title>Node7</title>
<g id="a_Node000007"><a xlink:href="_delete_method_8hpp.html" target="_top" xlink:title=" ">
<polygon fill="white" stroke="#666666" points="605.5,-294 450.5,-294 450.5,-264 605.5,-264 605.5,-294"/>
<text text-anchor="start" x="458.5" y="-282" font-family="Helvetica,sans-Serif" font-size="10.00">include/Thoth/Http</text>
<text text-anchor="middle" x="528" y="-271" font-family="Helvetica,sans-Serif" font-size="10.00">/Methods/DeleteMethod.hpp</text>
</a>
</g>
</g>
<!-- Node5&#45;&gt;Node7 -->
<g id="edge6_Node000005_Node000007" class="edge">
<title>Node5&#45;&gt;Node7</title>
<g id="a_edge6_Node000005_Node000007"><a xlink:title=" ">
<path fill="none" stroke="#63b8ff" d="M915.54,-333.72C907.93,-332.41 900.33,-331.15 893,-330 769.91,-310.72 738.29,-311.9 615,-294 611.97,-293.56 608.89,-293.1 605.77,-292.64"/>
<polygon fill="#63b8ff" stroke="#63b8ff" points="915.07,-337.19 925.53,-335.46 916.28,-330.29 915.07,-337.19"/>
</a>
</g>
</g>
<!-- Node8 -->
<g id="Node000008" class="node">
<title>Node8</title>
<g id="a_Node000008"><a xlink:href="_get_method_8hpp.html" target="_top" xlink:title=" ">
<polygon fill="white" stroke="#666666" points="1593,-294 1453,-294 1453,-264 1593,-264 1593,-294"/>
<text text-anchor="start" x="1461" y="-282" font-family="Helvetica,sans-Serif" font-size="10.00">include/Thoth/Http</text>
<text text-anchor="middle" x="1523" y="-271" font-family="Helvetica,sans-Serif" font-size="10.00">/Methods/GetMethod.hpp</text>
</a>
</g>
</g>
<!-- Node5&#45;&gt;Node8 -->
<g id="edge7_Node000005_Node000008" class="edge">
<title>Node5&#45;&gt;Node8</title>
<g id="a_edge7_Node000005_Node000008"><a xlink:title=" ">
<path fill="none" stroke="#63b8ff" d="M1106.39,-337.67C1196.66,-327.35 1328.99,-311.35 1444,-294 1446.89,-293.56 1449.84,-293.1 1452.82,-292.63"/>
<polygon fill="#63b8ff" stroke="#63b8ff" points="1105.96,-334.2 1096.42,-338.81 1106.75,-341.15 1105.96,-334.2"/>
</a>
</g>
</g>
<!-- Node12 -->
<g id="Node000012" class="node">
<title>Node12</title>
<g id="a_Node000012"><a xlink:href="_head_method_8hpp.html" target="_top" xlink:title=" ">
<polygon fill="white" stroke="#666666" points="772,-294 624,-294 624,-264 772,-264 772,-294"/>
<text text-anchor="start" x="632" y="-282" font-family="Helvetica,sans-Serif" font-size="10.00">include/Thoth/Http</text>
<text text-anchor="middle" x="698" y="-271" font-family="Helvetica,sans-Serif" font-size="10.00">/Methods/HeadMethod.hpp</text>
</a>
</g>
</g>
<!-- Node5&#45;&gt;Node12 -->
<g id="edge14_Node000005_Node000012" class="edge">
<title>Node5&#45;&gt;Node12</title>
<g id="a_edge14_Node000005_Node000012"><a xlink:title=" ">
<path fill="none" stroke="#63b8ff" d="M928.04,-333.12C876.6,-321.24 807.75,-305.34 758.82,-294.04"/>
<polygon fill="#63b8ff" stroke="#63b8ff" points="927.56,-336.6 938.09,-335.44 929.13,-329.78 927.56,-336.6"/>
</a>
</g>
</g>
<!-- Node13 -->
<g id="Node000013" class="node">
<title>Node13</title>
<g id="a_Node000013"><a xlink:href="_options_method_8hpp.html" target="_top" xlink:title=" ">
<polygon fill="white" stroke="#666666" points="950,-294 790,-294 790,-264 950,-264 950,-294"/>
<text text-anchor="start" x="798" y="-282" font-family="Helvetica,sans-Serif" font-size="10.00">include/Thoth/Http</text>
<text text-anchor="middle" x="870" y="-271" font-family="Helvetica,sans-Serif" font-size="10.00">/Methods/OptionsMethod.hpp</text>
</a>
</g>
</g>
<!-- Node5&#45;&gt;Node13 -->
<g id="edge15_Node000005_Node000013" class="edge">
<title>Node5&#45;&gt;Node13</title>
<g id="a_edge15_Node000005_Node000013"><a xlink:title=" ">
<path fill="none" stroke="#63b8ff" d="M964.09,-330.69C942.65,-319.14 915.64,-304.59 896.07,-294.04"/>
<polygon fill="#63b8ff" stroke="#63b8ff" points="962.43,-333.77 972.89,-335.44 965.75,-327.61 962.43,-333.77"/>
</a>
</g>
</g>
<!-- Node14 -->
<g id="Node000014" class="node">
<title>Node14</title>
<g id="a_Node000014"><a xlink:href="_patch_method_8hpp.html" target="_top" xlink:title=" ">
<polygon fill="white" stroke="#666666" points="1117.5,-294 968.5,-294 968.5,-264 1117.5,-264 1117.5,-294"/>
<text text-anchor="start" x="976.5" y="-282" font-family="Helvetica,sans-Serif" font-size="10.00">include/Thoth/Http</text>
<text text-anchor="middle" x="1043" y="-271" font-family="Helvetica,sans-Serif" font-size="10.00">/Methods/PatchMethod.hpp</text>
</a>
</g>
</g>
<!-- Node5&#45;&gt;Node14 -->
<g id="edge16_Node000005_Node000014" class="edge">
<title>Node5&#45;&gt;Node14</title>
<g id="a_edge16_Node000005_Node000014"><a xlink:title=" ">
<path fill="none" stroke="#63b8ff" d="M1013.32,-326.88C1020.17,-316.07 1028.15,-303.46 1034.11,-294.04"/>
<polygon fill="#63b8ff" stroke="#63b8ff" points="1010.3,-325.11 1007.9,-335.44 1016.21,-328.86 1010.3,-325.11"/>
</a>
</g>
</g>
<!-- Node15 -->
<g id="Node000015" class="node">
<title>Node15</title>
<g id="a_Node000015"><a xlink:href="_post_method_8hpp.html" target="_top" xlink:title=" ">
<polygon fill="white" stroke="#666666" points="1278.5,-294 1135.5,-294 1135.5,-264 1278.5,-264 1278.5,-294"/>
<text text-anchor="start" x="1143.5" y="-282" font-family="Helvetica,sans-Serif" font-size="10.00">include/Thoth/Http</text>
<text text-anchor="middle" x="1207" y="-271" font-family="Helvetica,sans-Serif" font-size="10.00">/Methods/PostMethod.hpp</text>
</a>
</g>
</g>
<!-- Node5&#45;&gt;Node15 -->
<g id="edge17_Node000005_Node000015" class="edge">
<title>Node5&#45;&gt;Node15</title>
<g id="a_edge17_Node000005_Node000015"><a xlink:title=" ">
<path fill="none" stroke="#63b8ff" d="M1050.72,-332.22C1085.95,-320.45 1132,-305.06 1164.97,-294.04"/>
<polygon fill="#63b8ff" stroke="#63b8ff" points="1049.47,-328.95 1041.09,-335.44 1051.69,-335.59 1049.47,-328.95"/>
</a>
</g>
</g>
<!-- Node16 -->
<g id="Node000016" class="node">
<title>Node16</title>
<g id="a_Node000016"><a xlink:href="_put_method_8hpp.html" target="_top" xlink:title=" ">
<polygon fill="white" stroke="#666666" points="1435,-294 1297,-294 1297,-264 1435,-264 1435,-294"/>
<text text-anchor="start" x="1305" y="-282" font-family="Helvetica,sans-Serif" font-size="10.00">include/Thoth/Http</text>
<text text-anchor="middle" x="1366" y="-271" font-family="Helvetica,sans-Serif" font-size="10.00">/Methods/PutMethod.hpp</text>
</a>
</g>
</g>
<!-- Node5&#45;&gt;Node16 -->
<g id="edge20_Node000005_Node000016" class="edge">
<title>Node5&#45;&gt;Node16</title>
<g id="a_edge20_Node000005_Node000016"><a xlink:title=" ">
<path fill="none" stroke="#63b8ff" d="M1083.44,-333.51C1148.13,-321.26 1236.26,-304.57 1296.81,-293.1"/>
<polygon fill="#63b8ff" stroke="#63b8ff" points="1082.44,-330.14 1073.27,-335.44 1083.74,-337.01 1082.44,-330.14"/>
</a>
</g>
</g>
<!-- Node17 -->
<g id="Node000017" class="node">
<title>Node17</title>
<g id="a_Node000017"><a xlink:href="_trace_method_8hpp.html" target="_top" xlink:title=" ">
<polygon fill="white" stroke="#666666" points="252,-294 104,-294 104,-264 252,-264 252,-294"/>
<text text-anchor="start" x="112" y="-282" font-family="Helvetica,sans-Serif" font-size="10.00">include/Thoth/Http</text>
<text text-anchor="middle" x="178" y="-271" font-family="Helvetica,sans-Serif" font-size="10.00">/Methods/TraceMethod.hpp</text>
</a>
</g>
</g>
<!-- Node5&#45;&gt;Node17 -->
<g id="edge21_Node000005_Node000017" class="edge">
<title>Node5&#45;&gt;Node17</title>
<g id="a_edge21_Node000005_Node000017"><a xlink:title=" ">
<path fill="none" stroke="#63b8ff" d="M919.58,-333.78C910.64,-332.34 901.64,-331.04 893,-330 613.66,-296.48 540.58,-325.45 261,-294 258.1,-293.67 255.14,-293.31 252.15,-292.92"/>
<polygon fill="#63b8ff" stroke="#63b8ff" points="919.19,-337.26 929.63,-335.45 920.34,-330.36 919.19,-337.26"/>
</a>
</g>
</g>
<!-- Node8&#45;&gt;Node9 -->
<g id="edge8_Node000008_Node000009" class="edge">
<title>Node8&#45;&gt;Node9</title>
<g id="a_edge8_Node000008_Node000009"><a xlink:title=" ">
<path fill="none" stroke="#63b8ff" d="M1457.84,-261.45C1417.01,-251.08 1364.96,-237.86 1326.17,-228.01"/>
<polygon fill="#63b8ff" stroke="#63b8ff" points="1457.14,-264.89 1467.7,-263.95 1458.87,-258.1 1457.14,-264.89"/>
</a>
</g>
</g>
<!-- Node11 -->
<g id="Node000011" class="node">
<title>Node11</title>
<g id="a_Node000011"><a xlink:href="_response_8hpp.html" target="_top" xlink:title=" ">
<polygon fill="white" stroke="#666666" points="1157,-96 1019,-96 1019,-66 1157,-66 1157,-96"/>
<text text-anchor="start" x="1027" y="-84" font-family="Helvetica,sans-Serif" font-size="10.00">include/Thoth/Http</text>
<text text-anchor="middle" x="1088" y="-73" font-family="Helvetica,sans-Serif" font-size="10.00">/Response/Response.hpp</text>
</a>
</g>
</g>
<!-- Node8&#45;&gt;Node11 -->
<g id="edge13_Node000008_Node000011" class="edge">
<title>Node8&#45;&gt;Node11</title>
<g id="a_edge13_Node000008_Node000011"><a xlink:title=" ">
<path fill="none" stroke="#63b8ff" d="M1442.74,-263.94C1333.57,-248.89 1288.77,-287.39 1201,-228 1160.09,-200.32 1176.42,-170.11 1145,-132 1133.86,-118.49 1118.91,-105.52 1107.12,-96.18"/>
<polygon fill="#63b8ff" stroke="#63b8ff" points="1442.4,-267.43 1452.81,-265.45 1443.44,-260.51 1442.4,-267.43"/>
</a>
</g>
</g>
<!-- Node9&#45;&gt;Node2 -->
<g id="edge9_Node000009_Node000002" class="edge">
<title>Node9&#45;&gt;Node2</title>
<g id="a_edge9_Node000009_Node000002"><a xlink:title=" ">
<path fill="none" stroke="#63b8ff" d="M1258.04,-188.72C1240.18,-158.05 1205.67,-103.6 1166,-66 1150.94,-51.72 1131.25,-39.14 1115.42,-30.17"/>
<polygon fill="#63b8ff" stroke="#63b8ff" points="1255.23,-190.85 1263.24,-197.79 1261.31,-187.37 1255.23,-190.85"/>
</a>
</g>
</g>
<!-- Node10 -->
<g id="Node000010" class="node">
<title>Node10</title>
<g id="a_Node000010"><a xlink:href="_response_head_8hpp.html" target="_top" xlink:title=" ">
<polygon fill="white" stroke="#666666" points="1115,-162 951,-162 951,-132 1115,-132 1115,-162"/>
<text text-anchor="start" x="959" y="-150" font-family="Helvetica,sans-Serif" font-size="10.00">include/Thoth/Http</text>
<text text-anchor="middle" x="1033" y="-139" font-family="Helvetica,sans-Serif" font-size="10.00">/Response/ResponseHead.hpp</text>
</a>
</g>
</g>
<!-- Node9&#45;&gt;Node10 -->
<g id="edge10_Node000009_Node000010" class="edge">
<title>Node9&#45;&gt;Node10</title>
<g id="a_edge10_Node000009_Node000010"><a xlink:title=" ">
<path fill="none" stroke="#63b8ff" d="M1208.72,-195.25C1170.27,-184.91 1121.51,-171.8 1085.11,-162.01"/>
<polygon fill="#63b8ff" stroke="#63b8ff" points="1208.2,-198.74 1218.77,-197.95 1210.02,-191.98 1208.2,-198.74"/>
</a>
</g>
</g>
<!-- Node10&#45;&gt;Node11 -->
<g id="edge11_Node000010_Node000011" class="edge">
<title>Node10&#45;&gt;Node11</title>
<g id="a_edge11_Node000010_Node000011"><a xlink:title=" ">
<path fill="none" stroke="#63b8ff" d="M1051.83,-124.09C1059.77,-114.85 1068.78,-104.36 1075.83,-96.16"/>
<polygon fill="#63b8ff" stroke="#63b8ff" points="1049.07,-121.93 1045.21,-131.8 1054.38,-126.49 1049.07,-121.93"/>
</a>
</g>
</g>
<!-- Node11&#45;&gt;Node2 -->
<g id="edge12_Node000011_Node000002" class="edge">
<title>Node11&#45;&gt;Node2</title>
<g id="a_edge12_Node000011_Node000002"><a xlink:title=" ">
<path fill="none" stroke="#63b8ff" d="M1088,-55.54C1088,-46.96 1088,-37.61 1088,-30.16"/>
<polygon fill="#63b8ff" stroke="#63b8ff" points="1084.5,-55.8 1088,-65.8 1091.5,-55.8 1084.5,-55.8"/>
</a>
</g>
</g>
<!-- Node15&#45;&gt;Node9 -->
<g id="edge18_Node000015_Node000009" class="edge">
<title>Node15&#45;&gt;Node9</title>
<g id="a_edge18_Node000015_Node000009"><a xlink:title=" ">
<path fill="none" stroke="#63b8ff" d="M1228.35,-256.65C1237.73,-247.27 1248.47,-236.53 1256.84,-228.16"/>
<polygon fill="#63b8ff" stroke="#63b8ff" points="1225.8,-254.25 1221.2,-263.8 1230.75,-259.2 1225.8,-254.25"/>
</a>
</g>
</g>
<!-- Node15&#45;&gt;Node11 -->
<g id="edge19_Node000015_Node000011" class="edge">
<title>Node15&#45;&gt;Node11</title>
<g id="a_edge19_Node000015_Node000011"><a xlink:title=" ">
<path fill="none" stroke="#63b8ff" d="M1187.4,-256C1180.46,-247.58 1172.91,-237.68 1167,-228 1142.65,-188.09 1147.33,-172.51 1124,-132 1116.74,-119.39 1107.03,-106.07 1099.53,-96.35"/>
<polygon fill="#63b8ff" stroke="#63b8ff" points="1184.93,-258.49 1194.06,-263.85 1190.26,-253.96 1184.93,-258.49"/>
</a>
</g>
</g>
<!-- Node18&#45;&gt;Node5 -->
<g id="edge23_Node000018_Node000005" class="edge">
<title>Node18&#45;&gt;Node5</title>
<g id="a_edge23_Node000018_Node000005"><a xlink:title=" ">
<path fill="none" stroke="#63b8ff" d="M683.32,-407.85C740.95,-397.87 821.98,-383.74 893,-371 902.76,-369.25 913.02,-367.39 923.16,-365.54"/>
<polygon fill="#63b8ff" stroke="#63b8ff" points="682.46,-404.44 673.2,-409.6 683.65,-411.34 682.46,-404.44"/>
</a>
</g>
</g>
<!-- Node18&#45;&gt;Node10 -->
<g id="edge28_Node000018_Node000010" class="edge">
<title>Node18&#45;&gt;Node10</title>
<g id="a_edge28_Node000018_Node000010"><a xlink:title=" ">
<path fill="none" stroke="#63b8ff" d="M530.52,-419.03C395.14,-414.75 124.8,-402.35 96,-371 63.82,-335.98 63.5,-299.63 95,-264 151.37,-200.22 732.61,-163.62 950.83,-152.05"/>
<polygon fill="#63b8ff" stroke="#63b8ff" points="530.71,-422.54 540.82,-419.35 530.93,-415.54 530.71,-422.54"/>
</a>
</g>
</g>
<!-- Node19 -->
<g id="Node000019" class="node">
<title>Node19</title>
<g id="a_Node000019"><a xlink:href="_list_proxy_8hpp.html" target="_top" xlink:title=" ">
<polygon fill="white" stroke="#666666" points="690,-365.5 524,-365.5 524,-335.5 690,-335.5 690,-365.5"/>
<text text-anchor="start" x="532" y="-353.5" font-family="Helvetica,sans-Serif" font-size="10.00">include/Thoth/Http</text>
<text text-anchor="middle" x="607" y="-342.5" font-family="Helvetica,sans-Serif" font-size="10.00">/NHeaders/Proxy/ListProxy.hpp</text>
</a>
</g>
</g>
<!-- Node18&#45;&gt;Node19 -->
<g id="edge24_Node000018_Node000019" class="edge">
<title>Node18&#45;&gt;Node19</title>
<g id="a_edge24_Node000018_Node000019"><a xlink:title=" ">
<path fill="none" stroke="#63b8ff" d="M607,-396.75C607,-386.31 607,-374.49 607,-365.54"/>
<polygon fill="#63b8ff" stroke="#63b8ff" points="603.5,-396.94 607,-406.94 610.5,-396.94 603.5,-396.94"/>
</a>
</g>
</g>
<!-- Node20 -->
<g id="Node000020" class="node">
<title>Node20</title>
<g id="a_Node000020"><a xlink:href="_value_proxy_8hpp.html" target="_top" xlink:title=" ">
<polygon fill="white" stroke="#666666" points="884,-365.5 708,-365.5 708,-335.5 884,-335.5 884,-365.5"/>
<text text-anchor="start" x="716" y="-353.5" font-family="Helvetica,sans-Serif" font-size="10.00">include/Thoth/Http</text>
<text text-anchor="middle" x="796" y="-342.5" font-family="Helvetica,sans-Serif" font-size="10.00">/NHeaders/Proxy/ValueProxy.hpp</text>
</a>
</g>
</g>
<!-- Node18&#45;&gt;Node20 -->
<g id="edge25_Node000018_Node000020" class="edge">
<title>Node18&#45;&gt;Node20</title>
<g id="a_edge25_Node000018_Node000020"><a xlink:title=" ">
<path fill="none" stroke="#63b8ff" d="M654.82,-403.42C686.72,-391.68 728.11,-376.47 757.81,-365.54"/>
<polygon fill="#63b8ff" stroke="#63b8ff" points="653.42,-400.2 645.25,-406.94 655.84,-406.77 653.42,-400.2"/>
</a>
</g>
</g>
<!-- Node21 -->
<g id="Node000021" class="node">
<title>Node21</title>
<g id="a_Node000021"><a xlink:href="_request_headers_8hpp.html" target="_top" xlink:title=" ">
<polygon fill="white" stroke="#666666" points="319.5,-365.5 104.5,-365.5 104.5,-335.5 319.5,-335.5 319.5,-365.5"/>
<text text-anchor="start" x="112.5" y="-353.5" font-family="Helvetica,sans-Serif" font-size="10.00">include/Thoth/Http</text>
<text text-anchor="middle" x="212" y="-342.5" font-family="Helvetica,sans-Serif" font-size="10.00">/NHeaders/Request/RequestHeaders.hpp</text>
</a>
</g>
</g>
<!-- Node18&#45;&gt;Node21 -->
<g id="edge26_Node000018_Node000021" class="edge">
<title>Node18&#45;&gt;Node21</title>
<g id="a_edge26_Node000018_Node000021"><a xlink:title=" ">
<path fill="none" stroke="#63b8ff" d="M530.99,-407.63C462.26,-395.53 361.45,-377.8 291.63,-365.51"/>
<polygon fill="#63b8ff" stroke="#63b8ff" points="530.43,-411.08 540.89,-409.37 531.64,-404.19 530.43,-411.08"/>
</a>
</g>
</g>
<!-- Node22 -->
<g id="Node000022" class="node">
<title>Node22</title>
<g id="a_Node000022"><a xlink:href="_response_headers_8hpp.html" target="_top" xlink:title=" ">
<polygon fill="white" stroke="#666666" points="506,-371 338,-371 338,-330 506,-330 506,-371"/>
<text text-anchor="start" x="346" y="-359" font-family="Helvetica,sans-Serif" font-size="10.00">include/Thoth/Http</text>
<text text-anchor="start" x="346" y="-348" font-family="Helvetica,sans-Serif" font-size="10.00">/NHeaders/Response/Response</text>
<text text-anchor="middle" x="422" y="-337" font-family="Helvetica,sans-Serif" font-size="10.00">Headers.hpp</text>
</a>
</g>
</g>
<!-- Node18&#45;&gt;Node22 -->
<g id="edge27_Node000018_Node000022" class="edge">
<title>Node18&#45;&gt;Node22</title>
<g id="a_edge27_Node000018_Node000022"><a xlink:title=" ">
<path fill="none" stroke="#63b8ff" d="M559.87,-403.29C533.68,-393.46 501.05,-381.2 474.1,-371.07"/>
<polygon fill="#63b8ff" stroke="#63b8ff" points="558.97,-406.7 569.56,-406.94 561.43,-400.14 558.97,-406.7"/>
</a>
</g>
</g>
<!-- Node23&#45;&gt;Node11 -->
<g id="edge31_Node000023_Node000011" class="edge">
<title>Node23&#45;&gt;Node11</title>
<g id="a_edge31_Node000023_Node000011"><a xlink:title=" ">
<path fill="none" stroke="#63b8ff" d="M71.79,-464.12C57.89,-437.83 38,-392.97 38,-351.5 38,-351.5 38,-351.5 38,-212 38,-112.87 784.64,-88.48 1018.7,-83.27"/>
<polygon fill="#63b8ff" stroke="#63b8ff" points="68.74,-465.82 76.6,-472.92 74.88,-462.47 68.74,-465.82"/>
</a>
</g>
</g>
</g>
</svg>
