<?xml version="1.0" encoding="UTF-8" standalone="no"?>
<!DOCTYPE svg PUBLIC "-//W3C//DTD SVG 1.1//EN"
 "http://www.w3.org/Graphics/SVG/1.1/DTD/svg11.dtd">
<!-- Generated by graphviz version 2.43.0 (0)
 -->
<!-- Title: include/Thoth/Http/RequestError.hpp Pages: 1 -->
<svg width="759pt" height="214pt"
 viewBox="0.00 0.00 759.00 214.00" xmlns="http://www.w3.org/2000/svg" xmlns:xlink="http://www.w3.org/1999/xlink">
<g id="graph0" class="graph" transform="scale(1 1) rotate(0) translate(4 210)">
<title>include/Thoth/Http/RequestError.hpp</title>
<!-- Node1 -->
<g id="Node000001" class="node">
<title>Node1</title>
<g id="a_Node000001"><a xlink:title=" ">
<polygon fill="#999999" stroke="#666666" points="507,-206 400,-206 400,-176 507,-176 507,-206"/>
<text text-anchor="start" x="408" y="-194" font-family="Helvetica,sans-Serif" font-size="10.00">include/Thoth/Http</text>
<text text-anchor="middle" x="453.5" y="-183" font-family="Helvetica,sans-Serif" font-size="10.00">/RequestError.hpp</text>
</a>
</g>
</g>
<!-- Node2 -->
<g id="Node000002" class="node">
<title>Node2</title>
<g id="a_Node000002"><a xlink:title=" ">
<polygon fill="#e0e0e0" stroke="#999999" points="307,-140 140,-140 140,-110 307,-110 307,-140"/>
<text text-anchor="start" x="148" y="-128" font-family="Helvetica,sans-Serif" font-size="10.00">Hermes/_base/ConnectionError</text>
<text text-anchor="middle" x="223.5" y="-117" font-family="Helvetica,sans-Serif" font-size="10.00">Enum.hpp</text>
</a>
</g>
</g>
<!-- Node1&#45;&gt;Node2 -->
<g id="edge1_Node000001_Node000002" class="edge">
<title>Node1&#45;&gt;Node2</title>
<g id="a_edge1_Node000001_Node000002"><a xlink:title=" ">
<path fill="none" stroke="#63b8ff" d="M403.03,-175.95C367.82,-166.16 320.69,-153.05 283.56,-142.71"/>
<polygon fill="#63b8ff" stroke="#63b8ff" points="284.43,-139.32 273.86,-140.01 282.55,-146.07 284.43,-139.32"/>
</a>
</g>
</g>
<!-- Node3 -->
<g id="Node000003" class="node">
<title>Node3</title>
<g id="a_Node000003"><a xlink:href="_definitions_8hpp.html" target="_top" xlink:title=" ">
<polygon fill="white" stroke="#666666" points="477.5,-134.5 325.5,-134.5 325.5,-115.5 477.5,-115.5 477.5,-134.5"/>
<text text-anchor="middle" x="401.5" y="-122.5" font-family="Helvetica,sans-Serif" font-size="10.00">Thoth/NJson/Definitions.hpp</text>
</a>
</g>
</g>
<!-- Node1&#45;&gt;Node3 -->
<g id="edge2_Node000001_Node000003" class="edge">
<title>Node1&#45;&gt;Node3</title>
<g id="a_edge2_Node000001_Node000003"><a xlink:title=" ">
<path fill="none" stroke="#63b8ff" d="M441.96,-175.8C434.01,-166.01 423.42,-152.98 415.07,-142.7"/>
<polygon fill="#63b8ff" stroke="#63b8ff" points="417.71,-140.4 408.69,-134.84 412.28,-144.81 417.71,-140.4"/>
</a>
</g>
</g>
<!-- Node6 -->
<g id="Node000006" class="node">
<title>Node6</title>
<g id="a_Node000006"><a xlink:title=" ">
<polygon fill="#e0e0e0" stroke="#999999" points="751,-74 704,-74 704,-55 751,-55 751,-74"/>
<text text-anchor="middle" x="727.5" y="-62" font-family="Helvetica,sans-Serif" font-size="10.00">vector</text>
</a>
</g>
</g>
<!-- Node1&#45;&gt;Node6 -->
<g id="edge20_Node000001_Node000006" class="edge">
<title>Node1&#45;&gt;Node6</title>
<g id="a_edge20_Node000001_Node000006"><a xlink:title=" ">
<path fill="none" stroke="#63b8ff" d="M461.89,-175.95C473.55,-157.72 496.41,-126.34 524.5,-110 588.52,-72.76 616.94,-90.06 693.63,-74"/>
<polygon fill="#63b8ff" stroke="#63b8ff" points="694.74,-77.34 703.74,-71.75 693.22,-70.51 694.74,-77.34"/>
</a>
</g>
</g>
<!-- Node17 -->
<g id="Node000017" class="node">
<title>Node17</title>
<g id="a_Node000017"><a xlink:title=" ">
<polygon fill="#e0e0e0" stroke="#999999" points="685.5,-134.5 533.5,-134.5 533.5,-115.5 685.5,-115.5 685.5,-134.5"/>
<text text-anchor="middle" x="609.5" y="-122.5" font-family="Helvetica,sans-Serif" font-size="10.00">Thoth/Http/RequestError.tpp</text>
</a>
</g>
</g>
<!-- Node1&#45;&gt;Node17 -->
<g id="edge21_Node000001_Node000017" class="edge">
<title>Node1&#45;&gt;Node17</title>
<g id="a_edge21_Node000001_Node000017"><a xlink:title=" ">
<path fill="none" stroke="#63b8ff" d="M487.73,-175.95C515.09,-164.73 553.07,-149.15 579.31,-138.39"/>
<polygon fill="#63b8ff" stroke="#63b8ff" points="580.82,-141.55 588.74,-134.52 578.16,-135.07 580.82,-141.55"/>
</a>
</g>
</g>
<!-- Node4 -->
<g id="Node000004" class="node">
<title>Node4</title>
<g id="a_Node000004"><a xlink:title=" ">
<polygon fill="#e0e0e0" stroke="#999999" points="51,-19 0,-19 0,0 51,0 51,-19"/>
<text text-anchor="middle" x="25.5" y="-7" font-family="Helvetica,sans-Serif" font-size="10.00">variant</text>
</a>
</g>
</g>
<!-- Node3&#45;&gt;Node4 -->
<g id="edge3_Node000003_Node000004" class="edge">
<title>Node3&#45;&gt;Node4</title>
<g id="a_edge3_Node000003_Node000004"><a xlink:title=" ">
<path fill="none" stroke="#63b8ff" d="M350.13,-115.49C338.74,-113.65 326.71,-111.73 315.5,-110 205.86,-93.09 162.48,-132.94 68.5,-74 51.62,-63.41 39.78,-43.5 32.85,-28.78"/>
<polygon fill="#63b8ff" stroke="#63b8ff" points="35.88,-26.97 28.68,-19.2 29.46,-29.76 35.88,-26.97"/>
</a>
</g>
</g>
<!-- Node5 -->
<g id="Node000005" class="node">
<title>Node5</title>
<g id="a_Node000005"><a xlink:title=" ">
<polygon fill="#e0e0e0" stroke="#999999" points="331.5,-19 273.5,-19 273.5,0 331.5,0 331.5,-19"/>
<text text-anchor="middle" x="302.5" y="-7" font-family="Helvetica,sans-Serif" font-size="10.00">memory</text>
</a>
</g>
</g>
<!-- Node3&#45;&gt;Node5 -->
<g id="edge4_Node000003_Node000005" class="edge">
<title>Node3&#45;&gt;Node5</title>
<g id="a_edge4_Node000003_Node000005"><a xlink:title=" ">
<path fill="none" stroke="#63b8ff" d="M374.46,-115.4C354.75,-107.71 329.03,-94.45 314.5,-74 305.26,-61 302.58,-42.85 302.03,-29.28"/>
<polygon fill="#63b8ff" stroke="#63b8ff" points="305.53,-29.16 301.96,-19.18 298.53,-29.2 305.53,-29.16"/>
</a>
</g>
</g>
<!-- Node3&#45;&gt;Node6 -->
<g id="edge5_Node000003_Node000006" class="edge">
<title>Node3&#45;&gt;Node6</title>
<g id="a_edge5_Node000003_Node000006"><a xlink:title=" ">
<path fill="none" stroke="#63b8ff" d="M454.62,-115.48C522.12,-104.56 635.89,-85.85 693.93,-73.93"/>
<polygon fill="#63b8ff" stroke="#63b8ff" points="694.7,-77.35 703.76,-71.87 693.26,-70.5 694.7,-77.35"/>
</a>
</g>
</g>
<!-- Node7 -->
<g id="Node000007" class="node">
<title>Node7</title>
<g id="a_Node000007"><a xlink:title=" ">
<polygon fill="#e0e0e0" stroke="#999999" points="393.5,-19 349.5,-19 349.5,0 393.5,0 393.5,-19"/>
<text text-anchor="middle" x="371.5" y="-7" font-family="Helvetica,sans-Serif" font-size="10.00">string</text>
</a>
</g>
</g>
<!-- Node3&#45;&gt;Node7 -->
<g id="edge6_Node000003_Node000007" class="edge">
<title>Node3&#45;&gt;Node7</title>
<g id="a_edge6_Node000003_Node000007"><a xlink:title=" ">
<path fill="none" stroke="#63b8ff" d="M374.82,-115.44C355.94,-107.82 332.01,-94.64 320.5,-74 310.14,-55.43 329.55,-36.76 347.33,-24.52"/>
<polygon fill="#63b8ff" stroke="#63b8ff" points="349.29,-27.42 355.79,-19.06 345.49,-21.54 349.29,-27.42"/>
</a>
</g>
</g>
<!-- Node8 -->
<g id="Node000008" class="node">
<title>Node8</title>
<g id="a_Node000008"><a xlink:title=" ">
<polygon fill="#e0e0e0" stroke="#999999" points="547.5,-74 491.5,-74 491.5,-55 547.5,-55 547.5,-74"/>
<text text-anchor="middle" x="519.5" y="-62" font-family="Helvetica,sans-Serif" font-size="10.00">optional</text>
</a>
</g>
</g>
<!-- Node3&#45;&gt;Node8 -->
<g id="edge7_Node000003_Node000008" class="edge">
<title>Node3&#45;&gt;Node8</title>
<g id="a_edge7_Node000003_Node000008"><a xlink:title=" ">
<path fill="none" stroke="#63b8ff" d="M418.66,-115.49C438.23,-105.79 470.47,-89.81 493.22,-78.53"/>
<polygon fill="#63b8ff" stroke="#63b8ff" points="494.92,-81.59 502.32,-74.02 491.81,-75.32 494.92,-81.59"/>
</a>
</g>
</g>
<!-- Node9 -->
<g id="Node000009" class="node">
<title>Node9</title>
<g id="a_Node000009"><a xlink:title=" ">
<polygon fill="#e0e0e0" stroke="#999999" points="627.5,-74 565.5,-74 565.5,-55 627.5,-55 627.5,-74"/>
<text text-anchor="middle" x="596.5" y="-62" font-family="Helvetica,sans-Serif" font-size="10.00">expected</text>
</a>
</g>
</g>
<!-- Node3&#45;&gt;Node9 -->
<g id="edge8_Node000003_Node000009" class="edge">
<title>Node3&#45;&gt;Node9</title>
<g id="a_edge8_Node000003_Node000009"><a xlink:title=" ">
<path fill="none" stroke="#63b8ff" d="M429.85,-115.49C463.79,-105.31 520.76,-88.22 558.49,-76.9"/>
<polygon fill="#63b8ff" stroke="#63b8ff" points="559.54,-80.24 568.11,-74.02 557.53,-73.54 559.54,-80.24"/>
</a>
</g>
</g>
<!-- Node10 -->
<g id="Node000010" class="node">
<title>Node10</title>
<g id="a_Node000010"><a xlink:title=" ">
<polygon fill="#e0e0e0" stroke="#999999" points="255.5,-19 195.5,-19 195.5,0 255.5,0 255.5,-19"/>
<text text-anchor="middle" x="225.5" y="-7" font-family="Helvetica,sans-Serif" font-size="10.00">concepts</text>
</a>
</g>
</g>
<!-- Node3&#45;&gt;Node10 -->
<g id="edge9_Node000003_Node000010" class="edge">
<title>Node3&#45;&gt;Node10</title>
<g id="a_edge9_Node000003_Node000010"><a xlink:title=" ">
<path fill="none" stroke="#63b8ff" d="M381.44,-115.46C360.92,-106.36 328.45,-90.95 302.5,-74 280.22,-59.45 256.97,-39.51 241.92,-25.88"/>
<polygon fill="#63b8ff" stroke="#63b8ff" points="244.2,-23.21 234.46,-19.03 239.46,-28.37 244.2,-23.21"/>
</a>
</g>
</g>
<!-- Node11 -->
<g id="Node000011" class="node">
<title>Node11</title>
<g id="a_Node000011"><a xlink:title=" ">
<polygon fill="#e0e0e0" stroke="#999999" points="685.5,-74 645.5,-74 645.5,-55 685.5,-55 685.5,-74"/>
<text text-anchor="middle" x="665.5" y="-62" font-family="Helvetica,sans-Serif" font-size="10.00">span</text>
</a>
</g>
</g>
<!-- Node3&#45;&gt;Node11 -->
<g id="edge10_Node000003_Node000011" class="edge">
<title>Node3&#45;&gt;Node11</title>
<g id="a_edge10_Node000003_Node000011"><a xlink:title=" ">
<path fill="none" stroke="#63b8ff" d="M446.78,-115.42C492.15,-106.59 564.15,-91.94 635.25,-74.17"/>
<polygon fill="#63b8ff" stroke="#63b8ff" points="636.43,-77.48 645.27,-71.64 634.72,-70.69 636.43,-77.48"/>
</a>
</g>
</g>
<!-- Node12 -->
<g id="Node000012" class="node">
<title>Node12</title>
<g id="a_Node000012"><a xlink:href="_cow_8hpp.html" target="_top" xlink:title=" ">
<polygon fill="white" stroke="#666666" points="187.5,-74 77.5,-74 77.5,-55 187.5,-55 187.5,-74"/>
<text text-anchor="middle" x="132.5" y="-62" font-family="Helvetica,sans-Serif" font-size="10.00">Thoth/Dsa/Cow.hpp</text>
</a>
</g>
</g>
<!-- Node3&#45;&gt;Node12 -->
<g id="edge11_Node000003_Node000012" class="edge">
<title>Node3&#45;&gt;Node12</title>
<g id="a_edge11_Node000003_Node000012"><a xlink:title=" ">
<path fill="none" stroke="#63b8ff" d="M362.39,-115.49C314.57,-105.1 233.63,-87.49 181.65,-76.19"/>
<polygon fill="#63b8ff" stroke="#63b8ff" points="182.18,-72.72 171.66,-74.02 180.69,-79.56 182.18,-72.72"/>
</a>
</g>
</g>
<!-- Node14 -->
<g id="Node000014" class="node">
<title>Node14</title>
<g id="a_Node000014"><a xlink:href="_string_ref_8hpp.html" target="_top" xlink:title=" ">
<polygon fill="white" stroke="#666666" points="473,-74 330,-74 330,-55 473,-55 473,-74"/>
<text text-anchor="middle" x="401.5" y="-62" font-family="Helvetica,sans-Serif" font-size="10.00">Thoth/NJson/StringRef.hpp</text>
</a>
</g>
</g>
<!-- Node3&#45;&gt;Node14 -->
<g id="edge15_Node000003_Node000014" class="edge">
<title>Node3&#45;&gt;Node14</title>
<g id="a_edge15_Node000003_Node000014"><a xlink:title=" ">
<path fill="none" stroke="#63b8ff" d="M401.5,-115.37C401.5,-107.25 401.5,-94.81 401.5,-84.39"/>
<polygon fill="#63b8ff" stroke="#63b8ff" points="405,-84.17 401.5,-74.17 398,-84.17 405,-84.17"/>
</a>
</g>
</g>
<!-- Node12&#45;&gt;Node4 -->
<g id="edge13_Node000012_Node000004" class="edge">
<title>Node12&#45;&gt;Node4</title>
<g id="a_edge13_Node000012_Node000004"><a xlink:title=" ">
<path fill="none" stroke="#63b8ff" d="M115.31,-54.98C98.25,-46.54 71.87,-33.47 52.1,-23.68"/>
<polygon fill="#63b8ff" stroke="#63b8ff" points="53.52,-20.47 43,-19.17 50.41,-26.75 53.52,-20.47"/>
</a>
</g>
</g>
<!-- Node12&#45;&gt;Node10 -->
<g id="edge12_Node000012_Node000010" class="edge">
<title>Node12&#45;&gt;Node10</title>
<g id="a_edge12_Node000012_Node000010"><a xlink:title=" ">
<path fill="none" stroke="#63b8ff" d="M147.44,-54.98C162,-46.69 184.37,-33.94 201.43,-24.22"/>
<polygon fill="#63b8ff" stroke="#63b8ff" points="203.33,-27.16 210.29,-19.17 199.86,-21.08 203.33,-27.16"/>
</a>
</g>
</g>
<!-- Node13 -->
<g id="Node000013" class="node">
<title>Node13</title>
<g id="a_Node000013"><a xlink:title=" ">
<polygon fill="#e0e0e0" stroke="#999999" points="177.5,-19 69.5,-19 69.5,0 177.5,0 177.5,-19"/>
<text text-anchor="middle" x="123.5" y="-7" font-family="Helvetica,sans-Serif" font-size="10.00">Thoth/Dsa/Cow.tpp</text>
</a>
</g>
</g>
<!-- Node12&#45;&gt;Node13 -->
<g id="edge14_Node000012_Node000013" class="edge">
<title>Node12&#45;&gt;Node13</title>
<g id="a_edge14_Node000012_Node000013"><a xlink:title=" ">
<path fill="none" stroke="#63b8ff" d="M131.01,-54.75C129.83,-47.8 128.14,-37.85 126.66,-29.13"/>
<polygon fill="#63b8ff" stroke="#63b8ff" points="130.08,-28.36 124.96,-19.09 123.18,-29.53 130.08,-28.36"/>
</a>
</g>
</g>
<!-- Node14&#45;&gt;Node5 -->
<g id="edge16_Node000014_Node000005" class="edge">
<title>Node14&#45;&gt;Node5</title>
<g id="a_edge16_Node000014_Node000005"><a xlink:title=" ">
<path fill="none" stroke="#63b8ff" d="M385.59,-54.98C369.95,-46.61 345.84,-33.7 327.62,-23.95"/>
<polygon fill="#63b8ff" stroke="#63b8ff" points="329.16,-20.8 318.7,-19.17 325.86,-26.98 329.16,-20.8"/>
</a>
</g>
</g>
<!-- Node14&#45;&gt;Node7 -->
<g id="edge18_Node000014_Node000007" class="edge">
<title>Node14&#45;&gt;Node7</title>
<g id="a_edge18_Node000014_Node000007"><a xlink:title=" ">
<path fill="none" stroke="#63b8ff" d="M396.55,-54.75C392.44,-47.49 386.47,-36.95 381.4,-27.98"/>
<polygon fill="#63b8ff" stroke="#63b8ff" points="384.33,-26.07 376.36,-19.09 378.24,-29.52 384.33,-26.07"/>
</a>
</g>
</g>
<!-- Node15 -->
<g id="Node000015" class="node">
<title>Node15</title>
<g id="a_Node000015"><a xlink:title=" ">
<polygon fill="#e0e0e0" stroke="#999999" points="485,-19 412,-19 412,0 485,0 485,-19"/>
<text text-anchor="middle" x="448.5" y="-7" font-family="Helvetica,sans-Serif" font-size="10.00">string_view</text>
</a>
</g>
</g>
<!-- Node14&#45;&gt;Node15 -->
<g id="edge17_Node000014_Node000015" class="edge">
<title>Node14&#45;&gt;Node15</title>
<g id="a_edge17_Node000014_Node000015"><a xlink:title=" ">
<path fill="none" stroke="#63b8ff" d="M409.26,-54.75C415.97,-47.18 425.84,-36.05 434.01,-26.84"/>
<polygon fill="#63b8ff" stroke="#63b8ff" points="436.87,-28.89 440.88,-19.09 431.63,-24.25 436.87,-28.89"/>
</a>
</g>
</g>
<!-- Node16 -->
<g id="Node000016" class="node">
<title>Node16</title>
<g id="a_Node000016"><a xlink:title=" ">
<polygon fill="#e0e0e0" stroke="#999999" points="644,-19 503,-19 503,0 644,0 644,-19"/>
<text text-anchor="middle" x="573.5" y="-7" font-family="Helvetica,sans-Serif" font-size="10.00">Thoth/NJson/StringRef.tpp</text>
</a>
</g>
</g>
<!-- Node14&#45;&gt;Node16 -->
<g id="edge19_Node000014_Node000016" class="edge">
<title>Node14&#45;&gt;Node16</title>
<g id="a_edge19_Node000014_Node000016"><a xlink:title=" ">
<path fill="none" stroke="#63b8ff" d="M429.13,-54.98C458.01,-46.09 503.51,-32.07 535.7,-22.15"/>
<polygon fill="#63b8ff" stroke="#63b8ff" points="537.12,-25.37 545.65,-19.08 535.06,-18.68 537.12,-25.37"/>
</a>
</g>
</g>
</g>
</svg>
