<?xml version="1.0" encoding="UTF-8" standalone="no"?>
<!DOCTYPE svg PUBLIC "-//W3C//DTD SVG 1.1//EN"
 "http://www.w3.org/Graphics/SVG/1.1/DTD/svg11.dtd">
<!-- Generated by graphviz version 2.43.0 (0)
 -->
<!-- Title: include/Thoth/Http/RequestError.hpp Pages: 1 -->
<svg width="1581pt" height="434pt"
 viewBox="0.00 0.00 1581.06 434.00" xmlns="http://www.w3.org/2000/svg" xmlns:xlink="http://www.w3.org/1999/xlink">
<g id="graph0" class="graph" transform="scale(1 1) rotate(0) translate(4 430)">
<title>include/Thoth/Http/RequestError.hpp</title>
<!-- Node1 -->
<g id="Node000001" class="node">
<title>Node1</title>
<g id="a_Node000001"><a xlink:title=" ">
<polygon fill="#999999" stroke="#666666" points="420.5,-426 313.5,-426 313.5,-396 420.5,-396 420.5,-426"/>
<text text-anchor="start" x="321.5" y="-414" font-family="Helvetica,sans-Serif" font-size="10.00">include/Thoth/Http</text>
<text text-anchor="middle" x="367" y="-403" font-family="Helvetica,sans-Serif" font-size="10.00">/RequestError.hpp</text>
</a>
</g>
</g>
<!-- Node2 -->
<g id="Node000002" class="node">
<title>Node2</title>
<g id="a_Node000002"><a xlink:href="_client_8hpp.html" target="_top" xlink:title=" ">
<polygon fill="white" stroke="#666666" points="150.5,-30 43.5,-30 43.5,0 150.5,0 150.5,-30"/>
<text text-anchor="start" x="51.5" y="-18" font-family="Helvetica,sans-Serif" font-size="10.00">include/Thoth/Http</text>
<text text-anchor="middle" x="97" y="-7" font-family="Helvetica,sans-Serif" font-size="10.00">/Client.hpp</text>
</a>
</g>
</g>
<!-- Node1&#45;&gt;Node2 -->
<g id="edge1_Node000001_Node000002" class="edge">
<title>Node1&#45;&gt;Node2</title>
<g id="a_edge1_Node000001_Node000002"><a xlink:title=" ">
<path fill="none" stroke="#63b8ff" d="M303.06,-400.8C197.9,-383.86 0,-343.54 0,-280 0,-280 0,-280 0,-146 0,-95.31 47.96,-51.63 76.43,-30.17"/>
<polygon fill="#63b8ff" stroke="#63b8ff" points="302.82,-404.31 313.24,-402.42 303.91,-397.39 302.82,-404.31"/>
</a>
</g>
</g>
<!-- Node3 -->
<g id="Node000003" class="node">
<title>Node3</title>
<g id="a_Node000003"><a xlink:href="_query_params_8hpp.html" target="_top" xlink:title=" ">
<polygon fill="white" stroke="#666666" points="441.5,-360 292.5,-360 292.5,-330 441.5,-330 441.5,-360"/>
<text text-anchor="start" x="300.5" y="-348" font-family="Helvetica,sans-Serif" font-size="10.00">include/Thoth/Http</text>
<text text-anchor="middle" x="367" y="-337" font-family="Helvetica,sans-Serif" font-size="10.00">/Request/QueryParams.hpp</text>
</a>
</g>
</g>
<!-- Node1&#45;&gt;Node3 -->
<g id="edge2_Node000001_Node000003" class="edge">
<title>Node1&#45;&gt;Node3</title>
<g id="a_edge2_Node000001_Node000003"><a xlink:title=" ">
<path fill="none" stroke="#63b8ff" d="M367,-385.54C367,-376.96 367,-367.61 367,-360.16"/>
<polygon fill="#63b8ff" stroke="#63b8ff" points="363.5,-385.8 367,-395.8 370.5,-385.8 363.5,-385.8"/>
</a>
</g>
</g>
<!-- Node17 -->
<g id="Node000017" class="node">
<title>Node17</title>
<g id="a_Node000017"><a xlink:href="_json_8hpp.html" target="_top" xlink:title=" ">
<polygon fill="white" stroke="#666666" points="1095.5,-294 982.5,-294 982.5,-264 1095.5,-264 1095.5,-294"/>
<text text-anchor="start" x="990.5" y="-282" font-family="Helvetica,sans-Serif" font-size="10.00">include/Thoth/NJson</text>
<text text-anchor="middle" x="1039" y="-271" font-family="Helvetica,sans-Serif" font-size="10.00">/Json.hpp</text>
</a>
</g>
</g>
<!-- Node1&#45;&gt;Node17 -->
<g id="edge21_Node000001_Node000017" class="edge">
<title>Node1&#45;&gt;Node17</title>
<g id="a_edge21_Node000001_Node000017"><a xlink:title=" ">
<path fill="none" stroke="#63b8ff" d="M430.43,-397.73C561.01,-372.47 858,-315.02 982.46,-290.94"/>
<polygon fill="#63b8ff" stroke="#63b8ff" points="429.73,-394.3 420.57,-399.64 431.06,-401.17 429.73,-394.3"/>
</a>
</g>
</g>
<!-- Node4 -->
<g id="Node000004" class="node">
<title>Node4</title>
<g id="a_Node000004"><a xlink:href="_url_8hpp.html" target="_top" xlink:title=" ">
<polygon fill="white" stroke="#666666" points="420.5,-294 313.5,-294 313.5,-264 420.5,-264 420.5,-294"/>
<text text-anchor="start" x="321.5" y="-282" font-family="Helvetica,sans-Serif" font-size="10.00">include/Thoth/Http</text>
<text text-anchor="middle" x="367" y="-271" font-family="Helvetica,sans-Serif" font-size="10.00">/Request/Url.hpp</text>
</a>
</g>
</g>
<!-- Node3&#45;&gt;Node4 -->
<g id="edge3_Node000003_Node000004" class="edge">
<title>Node3&#45;&gt;Node4</title>
<g id="a_edge3_Node000003_Node000004"><a xlink:title=" ">
<path fill="none" stroke="#63b8ff" d="M367,-319.54C367,-310.96 367,-301.61 367,-294.16"/>
<polygon fill="#63b8ff" stroke="#63b8ff" points="363.5,-319.8 367,-329.8 370.5,-319.8 363.5,-319.8"/>
</a>
</g>
</g>
<!-- Node5 -->
<g id="Node000005" class="node">
<title>Node5</title>
<g id="a_Node000005"><a xlink:href="_method_concept_8hpp.html" target="_top" xlink:title=" ">
<polygon fill="white" stroke="#666666" points="818,-228 624,-228 624,-198 818,-198 818,-228"/>
<text text-anchor="start" x="632" y="-216" font-family="Helvetica,sans-Serif" font-size="10.00">include/Thoth/Http</text>
<text text-anchor="middle" x="721" y="-205" font-family="Helvetica,sans-Serif" font-size="10.00">/Methods/_base/MethodConcept.hpp</text>
</a>
</g>
</g>
<!-- Node4&#45;&gt;Node5 -->
<g id="edge4_Node000004_Node000005" class="edge">
<title>Node4&#45;&gt;Node5</title>
<g id="a_edge4_Node000004_Node000005"><a xlink:title=" ">
<path fill="none" stroke="#63b8ff" d="M430.81,-266.46C490.45,-255.68 579.63,-239.56 643.38,-228.03"/>
<polygon fill="#63b8ff" stroke="#63b8ff" points="429.98,-263.06 420.76,-268.28 431.23,-269.94 429.98,-263.06"/>
</a>
</g>
</g>
<!-- Node9 -->
<g id="Node000009" class="node">
<title>Node9</title>
<g id="a_Node000009"><a xlink:href="_request_8hpp.html" target="_top" xlink:title=" ">
<polygon fill="white" stroke="#666666" points="199.5,-96 76.5,-96 76.5,-66 199.5,-66 199.5,-96"/>
<text text-anchor="start" x="84.5" y="-84" font-family="Helvetica,sans-Serif" font-size="10.00">include/Thoth/Http</text>
<text text-anchor="middle" x="138" y="-73" font-family="Helvetica,sans-Serif" font-size="10.00">/Request/Request.hpp</text>
</a>
</g>
</g>
<!-- Node4&#45;&gt;Node9 -->
<g id="edge20_Node000004_Node000009" class="edge">
<title>Node4&#45;&gt;Node9</title>
<g id="a_edge20_Node000004_Node000009"><a xlink:title=" ">
<path fill="none" stroke="#63b8ff" d="M303.16,-274.57C229.78,-266.81 112.36,-241.82 57,-162 49.4,-151.04 50.5,-143.64 57,-132 66.1,-115.69 82.95,-104.04 98.93,-96.11"/>
<polygon fill="#63b8ff" stroke="#63b8ff" points="302.92,-278.06 313.22,-275.56 303.6,-271.1 302.92,-278.06"/>
</a>
</g>
</g>
<!-- Node6 -->
<g id="Node000006" class="node">
<title>Node6</title>
<g id="a_Node000006"><a xlink:href="_connect_method_8hpp.html" target="_top" xlink:title=" ">
<polygon fill="white" stroke="#666666" points="714,-162 552,-162 552,-132 714,-132 714,-162"/>
<text text-anchor="start" x="560" y="-150" font-family="Helvetica,sans-Serif" font-size="10.00">include/Thoth/Http</text>
<text text-anchor="middle" x="633" y="-139" font-family="Helvetica,sans-Serif" font-size="10.00">/Methods/ConnectMethod.hpp</text>
</a>
</g>
</g>
<!-- Node5&#45;&gt;Node6 -->
<g id="edge5_Node000005_Node000006" class="edge">
<title>Node5&#45;&gt;Node6</title>
<g id="a_edge5_Node000005_Node000006"><a xlink:title=" ">
<path fill="none" stroke="#63b8ff" d="M693.16,-191.75C679.93,-182.13 664.43,-170.86 652.48,-162.16"/>
<polygon fill="#63b8ff" stroke="#63b8ff" points="691.32,-194.75 701.47,-197.8 695.44,-189.08 691.32,-194.75"/>
</a>
</g>
</g>
<!-- Node7 -->
<g id="Node000007" class="node">
<title>Node7</title>
<g id="a_Node000007"><a xlink:href="_delete_method_8hpp.html" target="_top" xlink:title=" ">
<polygon fill="white" stroke="#666666" points="887.5,-162 732.5,-162 732.5,-132 887.5,-132 887.5,-162"/>
<text text-anchor="start" x="740.5" y="-150" font-family="Helvetica,sans-Serif" font-size="10.00">include/Thoth/Http</text>
<text text-anchor="middle" x="810" y="-139" font-family="Helvetica,sans-Serif" font-size="10.00">/Methods/DeleteMethod.hpp</text>
</a>
</g>
</g>
<!-- Node5&#45;&gt;Node7 -->
<g id="edge6_Node000005_Node000007" class="edge">
<title>Node5&#45;&gt;Node7</title>
<g id="a_edge6_Node000005_Node000007"><a xlink:title=" ">
<path fill="none" stroke="#63b8ff" d="M749.16,-191.75C762.54,-182.13 778.22,-170.86 790.3,-162.16"/>
<polygon fill="#63b8ff" stroke="#63b8ff" points="746.83,-189.12 740.75,-197.8 750.91,-194.8 746.83,-189.12"/>
</a>
</g>
</g>
<!-- Node8 -->
<g id="Node000008" class="node">
<title>Node8</title>
<g id="a_Node000008"><a xlink:href="_get_method_8hpp.html" target="_top" xlink:title=" ">
<polygon fill="white" stroke="#666666" points="534,-162 394,-162 394,-132 534,-132 534,-162"/>
<text text-anchor="start" x="402" y="-150" font-family="Helvetica,sans-Serif" font-size="10.00">include/Thoth/Http</text>
<text text-anchor="middle" x="464" y="-139" font-family="Helvetica,sans-Serif" font-size="10.00">/Methods/GetMethod.hpp</text>
</a>
</g>
</g>
<!-- Node5&#45;&gt;Node8 -->
<g id="edge7_Node000005_Node000008" class="edge">
<title>Node5&#45;&gt;Node8</title>
<g id="a_edge7_Node000005_Node000008"><a xlink:title=" ">
<path fill="none" stroke="#63b8ff" d="M654.81,-195.52C613.13,-185.14 559.91,-171.88 520.27,-162.01"/>
<polygon fill="#63b8ff" stroke="#63b8ff" points="654.05,-198.93 664.6,-197.95 655.74,-192.14 654.05,-198.93"/>
</a>
</g>
</g>
<!-- Node11 -->
<g id="Node000011" class="node">
<title>Node11</title>
<g id="a_Node000011"><a xlink:href="_head_method_8hpp.html" target="_top" xlink:title=" ">
<polygon fill="white" stroke="#666666" points="1054,-162 906,-162 906,-132 1054,-132 1054,-162"/>
<text text-anchor="start" x="914" y="-150" font-family="Helvetica,sans-Serif" font-size="10.00">include/Thoth/Http</text>
<text text-anchor="middle" x="980" y="-139" font-family="Helvetica,sans-Serif" font-size="10.00">/Methods/HeadMethod.hpp</text>
</a>
</g>
</g>
<!-- Node5&#45;&gt;Node11 -->
<g id="edge12_Node000005_Node000011" class="edge">
<title>Node5&#45;&gt;Node11</title>
<g id="a_edge12_Node000005_Node000011"><a xlink:title=" ">
<path fill="none" stroke="#63b8ff" d="M787.7,-195.52C829.71,-185.14 883.35,-171.88 923.29,-162.01"/>
<polygon fill="#63b8ff" stroke="#63b8ff" points="786.71,-192.16 777.84,-197.95 788.39,-198.95 786.71,-192.16"/>
</a>
</g>
</g>
<!-- Node12 -->
<g id="Node000012" class="node">
<title>Node12</title>
<g id="a_Node000012"><a xlink:href="_options_method_8hpp.html" target="_top" xlink:title=" ">
<polygon fill="white" stroke="#666666" points="1232,-162 1072,-162 1072,-132 1232,-132 1232,-162"/>
<text text-anchor="start" x="1080" y="-150" font-family="Helvetica,sans-Serif" font-size="10.00">include/Thoth/Http</text>
<text text-anchor="middle" x="1152" y="-139" font-family="Helvetica,sans-Serif" font-size="10.00">/Methods/OptionsMethod.hpp</text>
</a>
</g>
</g>
<!-- Node5&#45;&gt;Node12 -->
<g id="edge13_Node000005_Node000012" class="edge">
<title>Node5&#45;&gt;Node12</title>
<g id="a_edge13_Node000005_Node000012"><a xlink:title=" ">
<path fill="none" stroke="#63b8ff" d="M828.54,-196.58C895.92,-186.85 984.56,-173.9 1063,-162 1065.94,-161.55 1068.93,-161.1 1071.95,-160.63"/>
<polygon fill="#63b8ff" stroke="#63b8ff" points="827.73,-193.16 818.34,-198.06 828.73,-200.09 827.73,-193.16"/>
</a>
</g>
</g>
<!-- Node13 -->
<g id="Node000013" class="node">
<title>Node13</title>
<g id="a_Node000013"><a xlink:href="_patch_method_8hpp.html" target="_top" xlink:title=" ">
<polygon fill="white" stroke="#666666" points="1399.5,-162 1250.5,-162 1250.5,-132 1399.5,-132 1399.5,-162"/>
<text text-anchor="start" x="1258.5" y="-150" font-family="Helvetica,sans-Serif" font-size="10.00">include/Thoth/Http</text>
<text text-anchor="middle" x="1325" y="-139" font-family="Helvetica,sans-Serif" font-size="10.00">/Methods/PatchMethod.hpp</text>
</a>
</g>
</g>
<!-- Node5&#45;&gt;Node13 -->
<g id="edge14_Node000005_Node000013" class="edge">
<title>Node5&#45;&gt;Node13</title>
<g id="a_edge14_Node000005_Node000013"><a xlink:title=" ">
<path fill="none" stroke="#63b8ff" d="M828.02,-203.89C933.33,-195.4 1098.57,-180.69 1241,-162 1244.08,-161.6 1247.22,-161.16 1250.39,-160.71"/>
<polygon fill="#63b8ff" stroke="#63b8ff" points="827.71,-200.4 818.02,-204.69 828.27,-207.38 827.71,-200.4"/>
</a>
</g>
</g>
<!-- Node14 -->
<g id="Node000014" class="node">
<title>Node14</title>
<g id="a_Node000014"><a xlink:href="_post_method_8hpp.html" target="_top" xlink:title=" ">
<polygon fill="white" stroke="#666666" points="209.5,-162 66.5,-162 66.5,-132 209.5,-132 209.5,-162"/>
<text text-anchor="start" x="74.5" y="-150" font-family="Helvetica,sans-Serif" font-size="10.00">include/Thoth/Http</text>
<text text-anchor="middle" x="138" y="-139" font-family="Helvetica,sans-Serif" font-size="10.00">/Methods/PostMethod.hpp</text>
</a>
</g>
</g>
<!-- Node5&#45;&gt;Node14 -->
<g id="edge15_Node000005_Node000014" class="edge">
<title>Node5&#45;&gt;Node14</title>
<g id="a_edge15_Node000005_Node000014"><a xlink:title=" ">
<path fill="none" stroke="#63b8ff" d="M613.6,-203.55C511.77,-195.01 354.64,-180.45 219,-162 215.89,-161.58 212.71,-161.12 209.51,-160.65"/>
<polygon fill="#63b8ff" stroke="#63b8ff" points="613.33,-207.04 623.58,-204.38 613.91,-200.07 613.33,-207.04"/>
</a>
</g>
</g>
<!-- Node15 -->
<g id="Node000015" class="node">
<title>Node15</title>
<g id="a_Node000015"><a xlink:href="_put_method_8hpp.html" target="_top" xlink:title=" ">
<polygon fill="white" stroke="#666666" points="1556,-162 1418,-162 1418,-132 1556,-132 1556,-162"/>
<text text-anchor="start" x="1426" y="-150" font-family="Helvetica,sans-Serif" font-size="10.00">include/Thoth/Http</text>
<text text-anchor="middle" x="1487" y="-139" font-family="Helvetica,sans-Serif" font-size="10.00">/Methods/PutMethod.hpp</text>
</a>
</g>
</g>
<!-- Node5&#45;&gt;Node15 -->
<g id="edge18_Node000005_Node000015" class="edge">
<title>Node5&#45;&gt;Node15</title>
<g id="a_edge18_Node000005_Node000015"><a xlink:title=" ">
<path fill="none" stroke="#63b8ff" d="M828.55,-207.68C964.25,-201.44 1204.6,-187.7 1409,-162 1411.87,-161.64 1414.79,-161.24 1417.74,-160.82"/>
<polygon fill="#63b8ff" stroke="#63b8ff" points="827.99,-204.21 818.16,-208.16 828.31,-211.2 827.99,-204.21"/>
</a>
</g>
</g>
<!-- Node16 -->
<g id="Node000016" class="node">
<title>Node16</title>
<g id="a_Node000016"><a xlink:href="_trace_method_8hpp.html" target="_top" xlink:title=" ">
<polygon fill="white" stroke="#666666" points="376,-162 228,-162 228,-132 376,-132 376,-162"/>
<text text-anchor="start" x="236" y="-150" font-family="Helvetica,sans-Serif" font-size="10.00">include/Thoth/Http</text>
<text text-anchor="middle" x="302" y="-139" font-family="Helvetica,sans-Serif" font-size="10.00">/Methods/TraceMethod.hpp</text>
</a>
</g>
</g>
<!-- Node5&#45;&gt;Node16 -->
<g id="edge19_Node000005_Node000016" class="edge">
<title>Node5&#45;&gt;Node16</title>
<g id="a_edge19_Node000005_Node000016"><a xlink:title=" ">
<path fill="none" stroke="#63b8ff" d="M613.88,-196.6C547.84,-186.97 461.46,-174.14 385,-162 382.11,-161.54 379.17,-161.07 376.2,-160.59"/>
<polygon fill="#63b8ff" stroke="#63b8ff" points="613.48,-200.08 623.88,-198.06 614.49,-193.15 613.48,-200.08"/>
</a>
</g>
</g>
<!-- Node8&#45;&gt;Node9 -->
<g id="edge8_Node000008_Node000009" class="edge">
<title>Node8&#45;&gt;Node9</title>
<g id="a_edge8_Node000008_Node000009"><a xlink:title=" ">
<path fill="none" stroke="#63b8ff" d="M383.64,-130.22C326.83,-119.07 251.81,-104.34 199.69,-94.11"/>
<polygon fill="#63b8ff" stroke="#63b8ff" points="383.18,-133.7 393.66,-132.19 384.53,-126.83 383.18,-133.7"/>
</a>
</g>
</g>
<!-- Node10 -->
<g id="Node000010" class="node">
<title>Node10</title>
<g id="a_Node000010"><a xlink:href="_response_8hpp.html" target="_top" xlink:title=" ">
<polygon fill="white" stroke="#666666" points="363,-30 225,-30 225,0 363,0 363,-30"/>
<text text-anchor="start" x="233" y="-18" font-family="Helvetica,sans-Serif" font-size="10.00">include/Thoth/Http</text>
<text text-anchor="middle" x="294" y="-7" font-family="Helvetica,sans-Serif" font-size="10.00">/Response/Response.hpp</text>
</a>
</g>
</g>
<!-- Node8&#45;&gt;Node10 -->
<g id="edge11_Node000008_Node000010" class="edge">
<title>Node8&#45;&gt;Node10</title>
<g id="a_edge11_Node000008_Node000010"><a xlink:title=" ">
<path fill="none" stroke="#63b8ff" d="M437.21,-125.52C402.43,-98.92 342.63,-53.18 312.49,-30.14"/>
<polygon fill="#63b8ff" stroke="#63b8ff" points="435.41,-128.55 445.48,-131.84 439.67,-122.99 435.41,-128.55"/>
</a>
</g>
</g>
<!-- Node9&#45;&gt;Node2 -->
<g id="edge9_Node000009_Node000002" class="edge">
<title>Node9&#45;&gt;Node2</title>
<g id="a_edge9_Node000009_Node000002"><a xlink:title=" ">
<path fill="none" stroke="#63b8ff" d="M123.42,-57.24C117.64,-48.21 111.16,-38.11 106.07,-30.16"/>
<polygon fill="#63b8ff" stroke="#63b8ff" points="120.56,-59.26 128.9,-65.8 126.45,-55.49 120.56,-59.26"/>
</a>
</g>
</g>
<!-- Node9&#45;&gt;Node10 -->
<g id="edge10_Node000009_Node000010" class="edge">
<title>Node9&#45;&gt;Node10</title>
<g id="a_edge10_Node000009_Node000010"><a xlink:title=" ">
<path fill="none" stroke="#63b8ff" d="M181.74,-62.05C206.46,-51.91 236.9,-39.43 259.84,-30.01"/>
<polygon fill="#63b8ff" stroke="#63b8ff" points="180.16,-58.92 172.23,-65.95 182.82,-65.4 180.16,-58.92"/>
</a>
</g>
</g>
<!-- Node14&#45;&gt;Node9 -->
<g id="edge16_Node000014_Node000009" class="edge">
<title>Node14&#45;&gt;Node9</title>
<g id="a_edge16_Node000014_Node000009"><a xlink:title=" ">
<path fill="none" stroke="#63b8ff" d="M138,-121.54C138,-112.96 138,-103.61 138,-96.16"/>
<polygon fill="#63b8ff" stroke="#63b8ff" points="134.5,-121.8 138,-131.8 141.5,-121.8 134.5,-121.8"/>
</a>
</g>
</g>
<!-- Node14&#45;&gt;Node10 -->
<g id="edge17_Node000014_Node000010" class="edge">
<title>Node14&#45;&gt;Node10</title>
<g id="a_edge17_Node000014_Node000010"><a xlink:title=" ">
<path fill="none" stroke="#63b8ff" d="M167.75,-126.02C180.43,-117.18 195.22,-106.44 208,-96 234.54,-74.33 263.28,-46.65 279.91,-30.18"/>
<polygon fill="#63b8ff" stroke="#63b8ff" points="165.6,-123.25 159.35,-131.81 169.57,-129.01 165.6,-123.25"/>
</a>
</g>
</g>
<!-- Node17&#45;&gt;Node10 -->
<g id="edge22_Node000017_Node000010" class="edge">
<title>Node17&#45;&gt;Node10</title>
<g id="a_edge22_Node000017_Node000010"><a xlink:title=" ">
<path fill="none" stroke="#63b8ff" d="M1106.01,-270.91C1261.69,-253.14 1629.8,-202.99 1565,-132 1483.44,-42.66 616.18,-21.33 363.01,-16.99"/>
<polygon fill="#63b8ff" stroke="#63b8ff" points="1105.17,-267.48 1095.62,-272.08 1105.95,-274.44 1105.17,-267.48"/>
</a>
</g>
</g>
</g>
</svg>
