<?xml version="1.0" encoding="UTF-8" standalone="no"?>
<!DOCTYPE svg PUBLIC "-//W3C//DTD SVG 1.1//EN"
 "http://www.w3.org/Graphics/SVG/1.1/DTD/svg11.dtd">
<!-- Generated by graphviz version 2.43.0 (0)
 -->
<!-- Title: include/Thoth/Http/Request/Request.hpp Pages: 1 -->
<svg width="926pt" height="423pt"
 viewBox="0.00 0.00 926.00 423.00" xmlns="http://www.w3.org/2000/svg" xmlns:xlink="http://www.w3.org/1999/xlink">
<g id="graph0" class="graph" transform="scale(1 1) rotate(0) translate(4 419)">
<title>include/Thoth/Http/Request/Request.hpp</title>
<!-- Node1 -->
<g id="Node000001" class="node">
<title>Node1</title>
<g id="a_Node000001"><a xlink:title=" ">
<polygon fill="#999999" stroke="#666666" points="496.5,-415 373.5,-415 373.5,-385 496.5,-385 496.5,-415"/>
<text text-anchor="start" x="381.5" y="-403" font-family="Helvetica,sans-Serif" font-size="10.00">include/Thoth/Http</text>
<text text-anchor="middle" x="435" y="-392" font-family="Helvetica,sans-Serif" font-size="10.00">/Request/Request.hpp</text>
</a>
</g>
</g>
<!-- Node2 -->
<g id="Node000002" class="node">
<title>Node2</title>
<g id="a_Node000002"><a xlink:title=" ">
<polygon fill="#e0e0e0" stroke="#999999" points="321.5,-343.5 146.5,-343.5 146.5,-324.5 321.5,-324.5 321.5,-343.5"/>
<text text-anchor="middle" x="234" y="-331.5" font-family="Helvetica,sans-Serif" font-size="10.00">Hermes/Socket/ClientSocket.hpp</text>
</a>
</g>
</g>
<!-- Node1&#45;&gt;Node2 -->
<g id="edge1_Node000001_Node000002" class="edge">
<title>Node1&#45;&gt;Node2</title>
<g id="a_edge1_Node000001_Node000002"><a xlink:title=" ">
<path fill="none" stroke="#63b8ff" d="M390.89,-384.95C354.86,-373.48 304.54,-357.46 270.69,-346.68"/>
<polygon fill="#63b8ff" stroke="#63b8ff" points="271.34,-343.22 260.75,-343.52 269.22,-349.89 271.34,-343.22"/>
</a>
</g>
</g>
<!-- Node3 -->
<g id="Node000003" class="node">
<title>Node3</title>
<g id="a_Node000003"><a xlink:href="_url_8hpp.html" target="_top" xlink:title=" ">
<polygon fill="white" stroke="#666666" points="405.5,-217 294.5,-217 294.5,-187 405.5,-187 405.5,-217"/>
<text text-anchor="start" x="302.5" y="-205" font-family="Helvetica,sans-Serif" font-size="10.00">Thoth/Http/Request</text>
<text text-anchor="middle" x="350" y="-194" font-family="Helvetica,sans-Serif" font-size="10.00">/Url.hpp</text>
</a>
</g>
</g>
<!-- Node1&#45;&gt;Node3 -->
<g id="edge2_Node000001_Node000003" class="edge">
<title>Node1&#45;&gt;Node3</title>
<g id="a_edge2_Node000001_Node000003"><a xlink:title=" ">
<path fill="none" stroke="#63b8ff" d="M407.26,-384.92C393.46,-376.43 377.88,-364.29 369,-349 346.94,-311 345.94,-258.21 347.66,-227.62"/>
<polygon fill="#63b8ff" stroke="#63b8ff" points="351.17,-227.65 348.39,-217.42 344.19,-227.15 351.17,-227.65"/>
</a>
</g>
</g>
<!-- Node17 -->
<g id="Node000017" class="node">
<title>Node17</title>
<g id="a_Node000017"><a xlink:href="_get_method_8hpp.html" target="_top" xlink:title=" ">
<polygon fill="white" stroke="#666666" points="491.5,-349 378.5,-349 378.5,-319 491.5,-319 491.5,-349"/>
<text text-anchor="start" x="386.5" y="-337" font-family="Helvetica,sans-Serif" font-size="10.00">Thoth/Http/Methods</text>
<text text-anchor="middle" x="435" y="-326" font-family="Helvetica,sans-Serif" font-size="10.00">/GetMethod.hpp</text>
</a>
</g>
</g>
<!-- Node1&#45;&gt;Node17 -->
<g id="edge19_Node000001_Node000017" class="edge">
<title>Node1&#45;&gt;Node17</title>
<g id="a_edge19_Node000001_Node000017"><a xlink:title=" ">
<path fill="none" stroke="#63b8ff" d="M435,-384.8C435,-377.34 435,-367.99 435,-359.41"/>
<polygon fill="#63b8ff" stroke="#63b8ff" points="438.5,-359.16 435,-349.16 431.5,-359.16 438.5,-359.16"/>
</a>
</g>
</g>
<!-- Node25 -->
<g id="Node000025" class="node">
<title>Node25</title>
<g id="a_Node000025"><a xlink:href="_post_method_8hpp.html" target="_top" xlink:title=" ">
<polygon fill="white" stroke="#666666" points="622.5,-349 509.5,-349 509.5,-319 622.5,-319 622.5,-349"/>
<text text-anchor="start" x="517.5" y="-337" font-family="Helvetica,sans-Serif" font-size="10.00">Thoth/Http/Methods</text>
<text text-anchor="middle" x="566" y="-326" font-family="Helvetica,sans-Serif" font-size="10.00">/PostMethod.hpp</text>
</a>
</g>
</g>
<!-- Node1&#45;&gt;Node25 -->
<g id="edge34_Node000001_Node000025" class="edge">
<title>Node1&#45;&gt;Node25</title>
<g id="a_edge34_Node000001_Node000025"><a xlink:title=" ">
<path fill="none" stroke="#63b8ff" d="M463.75,-384.95C482.69,-375.7 507.69,-363.49 528.23,-353.45"/>
<polygon fill="#63b8ff" stroke="#63b8ff" points="529.87,-356.55 537.32,-349.01 526.8,-350.26 529.87,-356.55"/>
</a>
</g>
</g>
<!-- Node26 -->
<g id="Node000026" class="node">
<title>Node26</title>
<g id="a_Node000026"><a xlink:title=" ">
<polygon fill="#e0e0e0" stroke="#999999" points="751.5,-349 640.5,-349 640.5,-319 751.5,-319 751.5,-349"/>
<text text-anchor="start" x="648.5" y="-337" font-family="Helvetica,sans-Serif" font-size="10.00">Thoth/Http/Request</text>
<text text-anchor="middle" x="696" y="-326" font-family="Helvetica,sans-Serif" font-size="10.00">/Request.tpp</text>
</a>
</g>
</g>
<!-- Node1&#45;&gt;Node26 -->
<g id="edge36_Node000001_Node000026" class="edge">
<title>Node1&#45;&gt;Node26</title>
<g id="a_edge36_Node000001_Node000026"><a xlink:title=" ">
<path fill="none" stroke="#63b8ff" d="M492.28,-384.95C532.98,-374.97 587.74,-361.55 630.23,-351.13"/>
<polygon fill="#63b8ff" stroke="#63b8ff" points="631.32,-354.46 640.2,-348.68 629.65,-347.67 631.32,-354.46"/>
</a>
</g>
</g>
<!-- Node4 -->
<g id="Node000004" class="node">
<title>Node4</title>
<g id="a_Node000004"><a xlink:title=" ">
<polygon fill="#e0e0e0" stroke="#999999" points="541,-79.5 479,-79.5 479,-60.5 541,-60.5 541,-79.5"/>
<text text-anchor="middle" x="510" y="-67.5" font-family="Helvetica,sans-Serif" font-size="10.00">expected</text>
</a>
</g>
</g>
<!-- Node3&#45;&gt;Node4 -->
<g id="edge3_Node000003_Node000004" class="edge">
<title>Node3&#45;&gt;Node4</title>
<g id="a_edge3_Node000003_Node000004"><a xlink:title=" ">
<path fill="none" stroke="#63b8ff" d="M368.33,-186.93C381.19,-176.99 398.75,-163.31 414,-151 441.65,-128.69 473.21,-102.18 492.36,-85.98"/>
<polygon fill="#63b8ff" stroke="#63b8ff" points="494.63,-88.65 500,-79.51 490.1,-83.31 494.63,-88.65"/>
</a>
</g>
</g>
<!-- Node5 -->
<g id="Node000005" class="node">
<title>Node5</title>
<g id="a_Node000005"><a xlink:title=" ">
<polygon fill="#e0e0e0" stroke="#999999" points="134,-79.5 90,-79.5 90,-60.5 134,-60.5 134,-79.5"/>
<text text-anchor="middle" x="112" y="-67.5" font-family="Helvetica,sans-Serif" font-size="10.00">string</text>
</a>
</g>
</g>
<!-- Node3&#45;&gt;Node5 -->
<g id="edge4_Node000003_Node000005" class="edge">
<title>Node3&#45;&gt;Node5</title>
<g id="a_edge4_Node000003_Node000005"><a xlink:title=" ">
<path fill="none" stroke="#63b8ff" d="M294.37,-196.67C232.94,-190.64 139.68,-177.33 117,-151 102.56,-134.23 104.13,-107.43 107.39,-89.53"/>
<polygon fill="#63b8ff" stroke="#63b8ff" points="110.82,-90.22 109.51,-79.7 103.98,-88.74 110.82,-90.22"/>
</a>
</g>
</g>
<!-- Node6 -->
<g id="Node000006" class="node">
<title>Node6</title>
<g id="a_Node000006"><a xlink:href="_query_params_8hpp.html" target="_top" xlink:title=" ">
<polygon fill="white" stroke="#666666" points="405.5,-151 294.5,-151 294.5,-121 405.5,-121 405.5,-151"/>
<text text-anchor="start" x="302.5" y="-139" font-family="Helvetica,sans-Serif" font-size="10.00">Thoth/Http/Request</text>
<text text-anchor="middle" x="350" y="-128" font-family="Helvetica,sans-Serif" font-size="10.00">/QueryParams.hpp</text>
</a>
</g>
</g>
<!-- Node3&#45;&gt;Node6 -->
<g id="edge5_Node000003_Node000006" class="edge">
<title>Node3&#45;&gt;Node6</title>
<g id="a_edge5_Node000003_Node000006"><a xlink:title=" ">
<path fill="none" stroke="#63b8ff" d="M350,-186.8C350,-179.34 350,-169.99 350,-161.41"/>
<polygon fill="#63b8ff" stroke="#63b8ff" points="353.5,-161.16 350,-151.16 346.5,-161.16 353.5,-161.16"/>
</a>
</g>
</g>
<!-- Node16 -->
<g id="Node000016" class="node">
<title>Node16</title>
<g id="a_Node000016"><a xlink:title=" ">
<polygon fill="#e0e0e0" stroke="#999999" points="237.5,-151 126.5,-151 126.5,-121 237.5,-121 237.5,-151"/>
<text text-anchor="start" x="134.5" y="-139" font-family="Helvetica,sans-Serif" font-size="10.00">Thoth/Http/Request</text>
<text text-anchor="middle" x="182" y="-128" font-family="Helvetica,sans-Serif" font-size="10.00">/Url.tpp</text>
</a>
</g>
</g>
<!-- Node3&#45;&gt;Node16 -->
<g id="edge18_Node000003_Node000016" class="edge">
<title>Node3&#45;&gt;Node16</title>
<g id="a_edge18_Node000003_Node000016"><a xlink:title=" ">
<path fill="none" stroke="#63b8ff" d="M313.13,-186.95C288.18,-177.45 255.04,-164.82 228.31,-154.64"/>
<polygon fill="#63b8ff" stroke="#63b8ff" points="229.37,-151.3 218.78,-151.01 226.88,-157.84 229.37,-151.3"/>
</a>
</g>
</g>
<!-- Node6&#45;&gt;Node4 -->
<g id="edge6_Node000006_Node000004" class="edge">
<title>Node6&#45;&gt;Node4</title>
<g id="a_edge6_Node000006_Node000004"><a xlink:title=" ">
<path fill="none" stroke="#63b8ff" d="M385.11,-120.95C413.3,-109.68 452.47,-94.01 479.39,-83.25"/>
<polygon fill="#63b8ff" stroke="#63b8ff" points="480.72,-86.48 488.71,-79.52 478.12,-79.98 480.72,-86.48"/>
</a>
</g>
</g>
<!-- Node6&#45;&gt;Node5 -->
<g id="edge9_Node000006_Node000005" class="edge">
<title>Node6&#45;&gt;Node5</title>
<g id="a_edge9_Node000006_Node000005"><a xlink:title=" ">
<path fill="none" stroke="#63b8ff" d="M294.37,-122.8C243,-111.3 170.63,-94.48 143,-85 141.6,-84.52 140.18,-84 138.76,-83.45"/>
<polygon fill="#63b8ff" stroke="#63b8ff" points="140.05,-80.2 129.47,-79.58 137.35,-86.66 140.05,-80.2"/>
</a>
</g>
</g>
<!-- Node7 -->
<g id="Node000007" class="node">
<title>Node7</title>
<g id="a_Node000007"><a xlink:title=" ">
<polygon fill="#e0e0e0" stroke="#999999" points="642,-79.5 592,-79.5 592,-60.5 642,-60.5 642,-79.5"/>
<text text-anchor="middle" x="617" y="-67.5" font-family="Helvetica,sans-Serif" font-size="10.00">format</text>
</a>
</g>
</g>
<!-- Node6&#45;&gt;Node7 -->
<g id="edge7_Node000006_Node000007" class="edge">
<title>Node6&#45;&gt;Node7</title>
<g id="a_edge7_Node000006_Node000007"><a xlink:title=" ">
<path fill="none" stroke="#63b8ff" d="M405.65,-121.66C458.68,-108.95 536.9,-90.2 581.81,-79.44"/>
<polygon fill="#63b8ff" stroke="#63b8ff" points="582.76,-82.81 591.67,-77.07 581.13,-76 582.76,-82.81"/>
</a>
</g>
</g>
<!-- Node8 -->
<g id="Node000008" class="node">
<title>Node8</title>
<g id="a_Node000008"><a xlink:title=" ">
<polygon fill="#e0e0e0" stroke="#999999" points="505.5,-19 458.5,-19 458.5,0 505.5,0 505.5,-19"/>
<text text-anchor="middle" x="482" y="-7" font-family="Helvetica,sans-Serif" font-size="10.00">vector</text>
</a>
</g>
</g>
<!-- Node6&#45;&gt;Node8 -->
<g id="edge8_Node000006_Node000008" class="edge">
<title>Node6&#45;&gt;Node8</title>
<g id="a_edge8_Node000006_Node000008"><a xlink:title=" ">
<path fill="none" stroke="#63b8ff" d="M379.02,-120.95C395.44,-112.1 415.69,-99.6 431,-85 448.66,-68.16 463.7,-44.25 472.78,-28.09"/>
<polygon fill="#63b8ff" stroke="#63b8ff" points="475.93,-29.63 477.63,-19.17 469.78,-26.29 475.93,-29.63"/>
</a>
</g>
</g>
<!-- Node9 -->
<g id="Node000009" class="node">
<title>Node9</title>
<g id="a_Node000009"><a xlink:href="_linear_map_8hpp.html" target="_top" xlink:title=" ">
<polygon fill="white" stroke="#666666" points="293.5,-79.5 152.5,-79.5 152.5,-60.5 293.5,-60.5 293.5,-79.5"/>
<text text-anchor="middle" x="223" y="-67.5" font-family="Helvetica,sans-Serif" font-size="10.00">Thoth/Dsa/LinearMap.hpp</text>
</a>
</g>
</g>
<!-- Node6&#45;&gt;Node9 -->
<g id="edge10_Node000006_Node000009" class="edge">
<title>Node6&#45;&gt;Node9</title>
<g id="a_edge10_Node000006_Node000009"><a xlink:title=" ">
<path fill="none" stroke="#63b8ff" d="M322.13,-120.95C300.35,-109.98 270.3,-94.83 249.01,-84.11"/>
<polygon fill="#63b8ff" stroke="#63b8ff" points="250.41,-80.89 239.9,-79.52 247.26,-87.14 250.41,-80.89"/>
</a>
</g>
</g>
<!-- Node15 -->
<g id="Node000015" class="node">
<title>Node15</title>
<g id="a_Node000015"><a xlink:title=" ">
<polygon fill="#e0e0e0" stroke="#999999" points="422.5,-85 311.5,-85 311.5,-55 422.5,-55 422.5,-85"/>
<text text-anchor="start" x="319.5" y="-73" font-family="Helvetica,sans-Serif" font-size="10.00">Thoth/Http/Request</text>
<text text-anchor="middle" x="367" y="-62" font-family="Helvetica,sans-Serif" font-size="10.00">/QueryParams.tpp</text>
</a>
</g>
</g>
<!-- Node6&#45;&gt;Node15 -->
<g id="edge17_Node000006_Node000015" class="edge">
<title>Node6&#45;&gt;Node15</title>
<g id="a_edge17_Node000006_Node000015"><a xlink:title=" ">
<path fill="none" stroke="#63b8ff" d="M353.77,-120.8C355.8,-113.17 358.35,-103.57 360.67,-94.84"/>
<polygon fill="#63b8ff" stroke="#63b8ff" points="364.05,-95.73 363.24,-85.16 357.29,-93.93 364.05,-95.73"/>
</a>
</g>
</g>
<!-- Node9&#45;&gt;Node8 -->
<g id="edge11_Node000009_Node000008" class="edge">
<title>Node9&#45;&gt;Node8</title>
<g id="a_edge11_Node000009_Node000008"><a xlink:title=" ">
<path fill="none" stroke="#63b8ff" d="M263.51,-60.48C306.78,-51.27 377.6,-35.94 448.26,-19.11"/>
<polygon fill="#63b8ff" stroke="#63b8ff" points="449.32,-22.46 458.23,-16.73 447.69,-15.65 449.32,-22.46"/>
</a>
</g>
</g>
<!-- Node10 -->
<g id="Node000010" class="node">
<title>Node10</title>
<g id="a_Node000010"><a xlink:title=" ">
<polygon fill="#e0e0e0" stroke="#999999" points="440.5,-19 395.5,-19 395.5,0 440.5,0 440.5,-19"/>
<text text-anchor="middle" x="418" y="-7" font-family="Helvetica,sans-Serif" font-size="10.00">utility</text>
</a>
</g>
</g>
<!-- Node9&#45;&gt;Node10 -->
<g id="edge12_Node000009_Node000010" class="edge">
<title>Node9&#45;&gt;Node10</title>
<g id="a_edge12_Node000009_Node000010"><a xlink:title=" ">
<path fill="none" stroke="#63b8ff" d="M251.35,-60.49C286.98,-49.81 347.99,-31.5 385.48,-20.26"/>
<polygon fill="#63b8ff" stroke="#63b8ff" points="386.81,-23.51 395.38,-17.28 384.8,-16.81 386.81,-23.51"/>
</a>
</g>
</g>
<!-- Node11 -->
<g id="Node000011" class="node">
<title>Node11</title>
<g id="a_Node000011"><a xlink:title=" ">
<polygon fill="#e0e0e0" stroke="#999999" points="60,-19 0,-19 0,0 60,0 60,-19"/>
<text text-anchor="middle" x="30" y="-7" font-family="Helvetica,sans-Serif" font-size="10.00">concepts</text>
</a>
</g>
</g>
<!-- Node9&#45;&gt;Node11 -->
<g id="edge13_Node000009_Node000011" class="edge">
<title>Node9&#45;&gt;Node11</title>
<g id="a_edge13_Node000009_Node000011"><a xlink:title=" ">
<path fill="none" stroke="#63b8ff" d="M194.94,-60.49C161.49,-50.36 105.44,-33.37 68.1,-22.05"/>
<polygon fill="#63b8ff" stroke="#63b8ff" points="68.68,-18.57 58.1,-19.02 66.65,-25.27 68.68,-18.57"/>
</a>
</g>
</g>
<!-- Node12 -->
<g id="Node000012" class="node">
<title>Node12</title>
<g id="a_Node000012"><a xlink:title=" ">
<polygon fill="#e0e0e0" stroke="#999999" points="143.5,-19 78.5,-19 78.5,0 143.5,0 143.5,-19"/>
<text text-anchor="middle" x="111" y="-7" font-family="Helvetica,sans-Serif" font-size="10.00">functional</text>
</a>
</g>
</g>
<!-- Node9&#45;&gt;Node12 -->
<g id="edge14_Node000009_Node000012" class="edge">
<title>Node9&#45;&gt;Node12</title>
<g id="a_edge14_Node000009_Node000012"><a xlink:title=" ">
<path fill="none" stroke="#63b8ff" d="M206.47,-60.37C188.03,-50.73 157.96,-35.03 136.49,-23.81"/>
<polygon fill="#63b8ff" stroke="#63b8ff" points="138.08,-20.69 127.59,-19.17 134.84,-26.9 138.08,-20.69"/>
</a>
</g>
</g>
<!-- Node13 -->
<g id="Node000013" class="node">
<title>Node13</title>
<g id="a_Node000013"><a xlink:title=" ">
<polygon fill="#e0e0e0" stroke="#999999" points="220.5,-19 161.5,-19 161.5,0 220.5,0 220.5,-19"/>
<text text-anchor="middle" x="191" y="-7" font-family="Helvetica,sans-Serif" font-size="10.00">compare</text>
</a>
</g>
</g>
<!-- Node9&#45;&gt;Node13 -->
<g id="edge15_Node000009_Node000013" class="edge">
<title>Node9&#45;&gt;Node13</title>
<g id="a_edge15_Node000009_Node000013"><a xlink:title=" ">
<path fill="none" stroke="#63b8ff" d="M218.28,-60.37C213.65,-51.9 206.45,-38.74 200.61,-28.07"/>
<polygon fill="#63b8ff" stroke="#63b8ff" points="203.61,-26.26 195.74,-19.17 197.47,-29.62 203.61,-26.26"/>
</a>
</g>
</g>
<!-- Node14 -->
<g id="Node000014" class="node">
<title>Node14</title>
<g id="a_Node000014"><a xlink:title=" ">
<polygon fill="#e0e0e0" stroke="#999999" points="377.5,-19 238.5,-19 238.5,0 377.5,0 377.5,-19"/>
<text text-anchor="middle" x="308" y="-7" font-family="Helvetica,sans-Serif" font-size="10.00">Thoth/Dsa/LinearMap.tpp</text>
</a>
</g>
</g>
<!-- Node9&#45;&gt;Node14 -->
<g id="edge16_Node000009_Node000014" class="edge">
<title>Node9&#45;&gt;Node14</title>
<g id="a_edge16_Node000009_Node000014"><a xlink:title=" ">
<path fill="none" stroke="#63b8ff" d="M235.54,-60.37C249.1,-51.04 270.94,-36.01 287.1,-24.88"/>
<polygon fill="#63b8ff" stroke="#63b8ff" points="289.15,-27.72 295.41,-19.17 285.18,-21.95 289.15,-27.72"/>
</a>
</g>
</g>
<!-- Node18 -->
<g id="Node000018" class="node">
<title>Node18</title>
<g id="a_Node000018"><a xlink:href="_method_concept_8hpp.html" target="_top" xlink:title=" ">
<polygon fill="white" stroke="#666666" points="629.5,-283 480.5,-283 480.5,-253 629.5,-253 629.5,-283"/>
<text text-anchor="start" x="488.5" y="-271" font-family="Helvetica,sans-Serif" font-size="10.00">Thoth/Http/Methods</text>
<text text-anchor="middle" x="555" y="-260" font-family="Helvetica,sans-Serif" font-size="10.00">/_base/MethodConcept.hpp</text>
</a>
</g>
</g>
<!-- Node17&#45;&gt;Node18 -->
<g id="edge20_Node000017_Node000018" class="edge">
<title>Node17&#45;&gt;Node18</title>
<g id="a_edge20_Node000017_Node000018"><a xlink:title=" ">
<path fill="none" stroke="#63b8ff" d="M461.33,-318.95C478.53,-309.78 501.18,-297.71 519.89,-287.72"/>
<polygon fill="#63b8ff" stroke="#63b8ff" points="521.55,-290.81 528.73,-283.01 518.26,-284.63 521.55,-290.81"/>
</a>
</g>
</g>
<!-- Node18&#45;&gt;Node3 -->
<g id="edge24_Node000018_Node000003" class="edge">
<title>Node18&#45;&gt;Node3</title>
<g id="a_edge24_Node000018_Node000003"><a xlink:title=" ">
<path fill="none" stroke="#63b8ff" d="M510.01,-252.95C479.04,-243.28 437.7,-230.38 404.8,-220.11"/>
<polygon fill="#63b8ff" stroke="#63b8ff" points="405.47,-216.65 394.88,-217.01 403.39,-223.33 405.47,-216.65"/>
</a>
</g>
</g>
<!-- Node19 -->
<g id="Node000019" class="node">
<title>Node19</title>
<g id="a_Node000019"><a xlink:href="_status_code_enum_8hpp.html" target="_top" xlink:title=" ">
<polygon fill="white" stroke="#666666" points="586,-151 462,-151 462,-121 586,-121 586,-151"/>
<text text-anchor="start" x="470" y="-139" font-family="Helvetica,sans-Serif" font-size="10.00">Thoth/Http/Response</text>
<text text-anchor="middle" x="524" y="-128" font-family="Helvetica,sans-Serif" font-size="10.00">/StatusCodeEnum.hpp</text>
</a>
</g>
</g>
<!-- Node18&#45;&gt;Node19 -->
<g id="edge21_Node000018_Node000019" class="edge">
<title>Node18&#45;&gt;Node19</title>
<g id="a_edge21_Node000018_Node000019"><a xlink:title=" ">
<path fill="none" stroke="#63b8ff" d="M551.62,-252.84C546.36,-230.76 536.13,-187.89 529.71,-160.94"/>
<polygon fill="#63b8ff" stroke="#63b8ff" points="533.1,-160.06 527.37,-151.14 526.29,-161.68 533.1,-160.06"/>
</a>
</g>
</g>
<!-- Node21 -->
<g id="Node000021" class="node">
<title>Node21</title>
<g id="a_Node000021"><a xlink:href="_headers_8hpp.html" target="_top" xlink:title=" ">
<polygon fill="white" stroke="#666666" points="736.5,-211.5 603.5,-211.5 603.5,-192.5 736.5,-192.5 736.5,-211.5"/>
<text text-anchor="middle" x="670" y="-199.5" font-family="Helvetica,sans-Serif" font-size="10.00">Thoth/Http/Headers.hpp</text>
</a>
</g>
</g>
<!-- Node18&#45;&gt;Node21 -->
<g id="edge25_Node000018_Node000021" class="edge">
<title>Node18&#45;&gt;Node21</title>
<g id="a_edge25_Node000018_Node000021"><a xlink:title=" ">
<path fill="none" stroke="#63b8ff" d="M580.24,-252.95C599.78,-242.08 626.68,-227.11 645.93,-216.4"/>
<polygon fill="#63b8ff" stroke="#63b8ff" points="647.66,-219.44 654.7,-211.52 644.26,-213.32 647.66,-219.44"/>
</a>
</g>
</g>
<!-- Node24 -->
<g id="Node000024" class="node">
<title>Node24</title>
<g id="a_Node000024"><a xlink:title=" ">
<polygon fill="#e0e0e0" stroke="#999999" points="827.5,-211.5 754.5,-211.5 754.5,-192.5 827.5,-192.5 827.5,-211.5"/>
<text text-anchor="middle" x="791" y="-199.5" font-family="Helvetica,sans-Serif" font-size="10.00">string_view</text>
</a>
</g>
</g>
<!-- Node18&#45;&gt;Node24 -->
<g id="edge33_Node000018_Node000024" class="edge">
<title>Node18&#45;&gt;Node24</title>
<g id="a_edge33_Node000018_Node000024"><a xlink:title=" ">
<path fill="none" stroke="#63b8ff" d="M611.6,-252.9C649.7,-243.24 701.02,-229.88 746,-217 748.64,-216.24 751.36,-215.45 754.09,-214.63"/>
<polygon fill="#63b8ff" stroke="#63b8ff" points="755.38,-217.9 763.93,-211.64 753.35,-211.2 755.38,-217.9"/>
</a>
</g>
</g>
<!-- Node19&#45;&gt;Node4 -->
<g id="edge22_Node000019_Node000004" class="edge">
<title>Node19&#45;&gt;Node4</title>
<g id="a_edge22_Node000019_Node000004"><a xlink:title=" ">
<path fill="none" stroke="#63b8ff" d="M520.89,-120.8C518.9,-111.7 516.3,-99.79 514.13,-89.9"/>
<polygon fill="#63b8ff" stroke="#63b8ff" points="517.49,-88.87 511.93,-79.84 510.65,-90.36 517.49,-88.87"/>
</a>
</g>
</g>
<!-- Node20 -->
<g id="Node000020" class="node">
<title>Node20</title>
<g id="a_Node000020"><a xlink:title=" ">
<polygon fill="#e0e0e0" stroke="#999999" points="780,-79.5 724,-79.5 724,-60.5 780,-60.5 780,-79.5"/>
<text text-anchor="middle" x="752" y="-67.5" font-family="Helvetica,sans-Serif" font-size="10.00">optional</text>
</a>
</g>
</g>
<!-- Node19&#45;&gt;Node20 -->
<g id="edge23_Node000019_Node000020" class="edge">
<title>Node19&#45;&gt;Node20</title>
<g id="a_edge23_Node000019_Node000020"><a xlink:title=" ">
<path fill="none" stroke="#63b8ff" d="M574.04,-120.95C616.27,-109.1 675.83,-92.38 714.18,-81.62"/>
<polygon fill="#63b8ff" stroke="#63b8ff" points="715.24,-84.95 723.92,-78.88 713.35,-78.21 715.24,-84.95"/>
</a>
</g>
</g>
<!-- Node21&#45;&gt;Node5 -->
<g id="edge30_Node000021_Node000005" class="edge">
<title>Node21&#45;&gt;Node5</title>
<g id="a_edge30_Node000021_Node000005"><a xlink:title=" ">
<path fill="none" stroke="#63b8ff" d="M603.17,-196.53C508.62,-189.49 341.05,-174.2 285,-151 264.79,-142.64 265.23,-131.41 246,-121 203.35,-97.92 188.03,-103 143,-85 141.83,-84.53 140.64,-84.04 139.43,-83.54"/>
<polygon fill="#63b8ff" stroke="#63b8ff" points="140.81,-80.33 130.24,-79.56 138.03,-86.75 140.81,-80.33"/>
</a>
</g>
</g>
<!-- Node21&#45;&gt;Node7 -->
<g id="edge28_Node000021_Node000007" class="edge">
<title>Node21&#45;&gt;Node7</title>
<g id="a_edge28_Node000021_Node000007"><a xlink:title=" ">
<path fill="none" stroke="#63b8ff" d="M693.67,-192.4C711.34,-184.57 734.22,-171.14 745,-151 751.29,-139.24 752.52,-132.01 745,-121 724.36,-90.78 682.49,-78.82 652.25,-74.09"/>
<polygon fill="#63b8ff" stroke="#63b8ff" points="652.47,-70.59 642.09,-72.7 651.52,-77.53 652.47,-70.59"/>
</a>
</g>
</g>
<!-- Node21&#45;&gt;Node8 -->
<g id="edge29_Node000021_Node000008" class="edge">
<title>Node21&#45;&gt;Node8</title>
<g id="a_edge29_Node000021_Node000008"><a xlink:title=" ">
<path fill="none" stroke="#63b8ff" d="M709.83,-192.44C733.27,-185.31 761.47,-172.69 778,-151 804.03,-116.84 817.1,-87.47 789,-55 753.97,-14.52 588.22,-10.08 515.89,-10.11"/>
<polygon fill="#63b8ff" stroke="#63b8ff" points="515.51,-6.61 505.52,-10.15 515.53,-13.61 515.51,-6.61"/>
</a>
</g>
</g>
<!-- Node21&#45;&gt;Node19 -->
<g id="edge26_Node000021_Node000019" class="edge">
<title>Node21&#45;&gt;Node19</title>
<g id="a_edge26_Node000021_Node000019"><a xlink:title=" ">
<path fill="none" stroke="#63b8ff" d="M650.31,-192.37C628.73,-182.91 593.47,-167.45 565.68,-155.27"/>
<polygon fill="#63b8ff" stroke="#63b8ff" points="566.77,-151.92 556.2,-151.12 563.95,-158.34 566.77,-151.92"/>
</a>
</g>
</g>
<!-- Node21&#45;&gt;Node20 -->
<g id="edge27_Node000021_Node000020" class="edge">
<title>Node21&#45;&gt;Node20</title>
<g id="a_edge27_Node000021_Node000020"><a xlink:title=" ">
<path fill="none" stroke="#63b8ff" d="M702.56,-192.41C723.25,-185.08 748.43,-172.26 761,-151 772.2,-132.07 766.23,-106.19 759.97,-89.05"/>
<polygon fill="#63b8ff" stroke="#63b8ff" points="763.16,-87.62 756.18,-79.65 756.67,-90.24 763.16,-87.62"/>
</a>
</g>
</g>
<!-- Node22 -->
<g id="Node000022" class="node">
<title>Node22</title>
<g id="a_Node000022"><a xlink:title=" ">
<polygon fill="#e0e0e0" stroke="#999999" points="918,-145.5 868,-145.5 868,-126.5 918,-126.5 918,-145.5"/>
<text text-anchor="middle" x="893" y="-133.5" font-family="Helvetica,sans-Serif" font-size="10.00">ranges</text>
</a>
</g>
</g>
<!-- Node21&#45;&gt;Node22 -->
<g id="edge31_Node000021_Node000022" class="edge">
<title>Node21&#45;&gt;Node22</title>
<g id="a_edge31_Node000021_Node000022"><a xlink:title=" ">
<path fill="none" stroke="#63b8ff" d="M704.49,-192.5C741.64,-183.14 802.37,-167.25 854,-151 856.12,-150.33 858.29,-149.62 860.48,-148.89"/>
<polygon fill="#63b8ff" stroke="#63b8ff" points="861.7,-152.17 870.01,-145.6 859.41,-145.56 861.7,-152.17"/>
</a>
</g>
</g>
<!-- Node23 -->
<g id="Node000023" class="node">
<title>Node23</title>
<g id="a_Node000023"><a xlink:title=" ">
<polygon fill="#e0e0e0" stroke="#999999" points="735.5,-145.5 604.5,-145.5 604.5,-126.5 735.5,-126.5 735.5,-145.5"/>
<text text-anchor="middle" x="670" y="-133.5" font-family="Helvetica,sans-Serif" font-size="10.00">Thoth/Http/Headers.tpp</text>
</a>
</g>
</g>
<!-- Node21&#45;&gt;Node23 -->
<g id="edge32_Node000021_Node000023" class="edge">
<title>Node21&#45;&gt;Node23</title>
<g id="a_edge32_Node000021_Node000023"><a xlink:title=" ">
<path fill="none" stroke="#63b8ff" d="M670,-192.37C670,-183.16 670,-168.29 670,-156.27"/>
<polygon fill="#63b8ff" stroke="#63b8ff" points="673.5,-155.91 670,-145.91 666.5,-155.91 673.5,-155.91"/>
</a>
</g>
</g>
<!-- Node25&#45;&gt;Node18 -->
<g id="edge35_Node000025_Node000018" class="edge">
<title>Node25&#45;&gt;Node18</title>
<g id="a_edge35_Node000025_Node000018"><a xlink:title=" ">
<path fill="none" stroke="#63b8ff" d="M563.56,-318.8C562.26,-311.26 560.63,-301.78 559.15,-293.13"/>
<polygon fill="#63b8ff" stroke="#63b8ff" points="562.58,-292.43 557.43,-283.16 555.68,-293.61 562.58,-292.43"/>
</a>
</g>
</g>
</g>
</svg>
