<?xml version="1.0" encoding="UTF-8" standalone="no"?>
<!DOCTYPE svg PUBLIC "-//W3C//DTD SVG 1.1//EN"
 "http://www.w3.org/Graphics/SVG/1.1/DTD/svg11.dtd">
<!-- Generated by graphviz version 2.43.0 (0)
 -->
<!-- Title: include/Thoth/Http/RequestError.hpp Pages: 1 -->
<svg width="1592pt" height="566pt"
 viewBox="0.00 0.00 1592.00 566.00" xmlns="http://www.w3.org/2000/svg" xmlns:xlink="http://www.w3.org/1999/xlink">
<g id="graph0" class="graph" transform="scale(1 1) rotate(0) translate(4 562)">
<title>include/Thoth/Http/RequestError.hpp</title>
<!-- Node1 -->
<g id="Node000001" class="node">
<title>Node1</title>
<g id="a_Node000001"><a xlink:title=" ">
<polygon fill="#999999" stroke="#666666" points="777.5,-558 670.5,-558 670.5,-528 777.5,-528 777.5,-558"/>
<text text-anchor="start" x="678.5" y="-546" font-family="Helvetica,sans-Serif" font-size="10.00">include/Thoth/Http</text>
<text text-anchor="middle" x="724" y="-535" font-family="Helvetica,sans-Serif" font-size="10.00">/RequestError.hpp</text>
</a>
</g>
</g>
<!-- Node2 -->
<g id="Node000002" class="node">
<title>Node2</title>
<g id="a_Node000002"><a xlink:href="_client_8hpp.html" target="_top" xlink:title=" ">
<polygon fill="white" stroke="#666666" points="857.5,-30 750.5,-30 750.5,0 857.5,0 857.5,-30"/>
<text text-anchor="start" x="758.5" y="-18" font-family="Helvetica,sans-Serif" font-size="10.00">include/Thoth/Http</text>
<text text-anchor="middle" x="804" y="-7" font-family="Helvetica,sans-Serif" font-size="10.00">/Client.hpp</text>
</a>
</g>
</g>
<!-- Node1&#45;&gt;Node2 -->
<g id="edge1_Node000001_Node000002" class="edge">
<title>Node1&#45;&gt;Node2</title>
<g id="a_edge1_Node000001_Node000002"><a xlink:title=" ">
<path fill="none" stroke="#63b8ff" d="M660.28,-537.25C483.52,-523.24 0,-478.79 0,-412 0,-412 0,-412 0,-146 0,-69.78 570.39,-29.73 750.31,-18.99"/>
<polygon fill="#63b8ff" stroke="#63b8ff" points="660.22,-540.76 670.47,-538.05 660.77,-533.78 660.22,-540.76"/>
</a>
</g>
</g>
<!-- Node3 -->
<g id="Node000003" class="node">
<title>Node3</title>
<g id="a_Node000003"><a xlink:href="_query_params_8hpp.html" target="_top" xlink:title=" ">
<polygon fill="white" stroke="#666666" points="798.5,-492 649.5,-492 649.5,-462 798.5,-462 798.5,-492"/>
<text text-anchor="start" x="657.5" y="-480" font-family="Helvetica,sans-Serif" font-size="10.00">include/Thoth/Http</text>
<text text-anchor="middle" x="724" y="-469" font-family="Helvetica,sans-Serif" font-size="10.00">/Request/QueryParams.hpp</text>
</a>
</g>
</g>
<!-- Node1&#45;&gt;Node3 -->
<g id="edge2_Node000001_Node000003" class="edge">
<title>Node1&#45;&gt;Node3</title>
<g id="a_edge2_Node000001_Node000003"><a xlink:title=" ">
<path fill="none" stroke="#63b8ff" d="M724,-517.54C724,-508.96 724,-499.61 724,-492.16"/>
<polygon fill="#63b8ff" stroke="#63b8ff" points="720.5,-517.8 724,-527.8 727.5,-517.8 720.5,-517.8"/>
</a>
</g>
</g>
<!-- Node20 -->
<g id="Node000020" class="node">
<title>Node20</title>
<g id="a_Node000020"><a xlink:href="_json_8hpp.html" target="_top" xlink:title=" ">
<polygon fill="white" stroke="#666666" points="1315.5,-426 1202.5,-426 1202.5,-396 1315.5,-396 1315.5,-426"/>
<text text-anchor="start" x="1210.5" y="-414" font-family="Helvetica,sans-Serif" font-size="10.00">include/Thoth/NJson</text>
<text text-anchor="middle" x="1259" y="-403" font-family="Helvetica,sans-Serif" font-size="10.00">/Json.hpp</text>
</a>
</g>
</g>
<!-- Node1&#45;&gt;Node20 -->
<g id="edge26_Node000001_Node000020" class="edge">
<title>Node1&#45;&gt;Node20</title>
<g id="a_edge26_Node000001_Node000020"><a xlink:title=" ">
<path fill="none" stroke="#63b8ff" d="M787.61,-526.54C892.97,-500.94 1102,-450.15 1202.48,-425.73"/>
<polygon fill="#63b8ff" stroke="#63b8ff" points="786.64,-523.18 777.75,-528.94 788.29,-529.98 786.64,-523.18"/>
</a>
</g>
</g>
<!-- Node4 -->
<g id="Node000004" class="node">
<title>Node4</title>
<g id="a_Node000004"><a xlink:href="_url_8hpp.html" target="_top" xlink:title=" ">
<polygon fill="white" stroke="#666666" points="777.5,-426 670.5,-426 670.5,-396 777.5,-396 777.5,-426"/>
<text text-anchor="start" x="678.5" y="-414" font-family="Helvetica,sans-Serif" font-size="10.00">include/Thoth/Http</text>
<text text-anchor="middle" x="724" y="-403" font-family="Helvetica,sans-Serif" font-size="10.00">/Request/Url.hpp</text>
</a>
</g>
</g>
<!-- Node3&#45;&gt;Node4 -->
<g id="edge3_Node000003_Node000004" class="edge">
<title>Node3&#45;&gt;Node4</title>
<g id="a_edge3_Node000003_Node000004"><a xlink:title=" ">
<path fill="none" stroke="#63b8ff" d="M724,-451.54C724,-442.96 724,-433.61 724,-426.16"/>
<polygon fill="#63b8ff" stroke="#63b8ff" points="720.5,-451.8 724,-461.8 727.5,-451.8 720.5,-451.8"/>
</a>
</g>
</g>
<!-- Node5 -->
<g id="Node000005" class="node">
<title>Node5</title>
<g id="a_Node000005"><a xlink:href="_method_concept_8hpp.html" target="_top" xlink:title=" ">
<polygon fill="white" stroke="#666666" points="821,-294 627,-294 627,-264 821,-264 821,-294"/>
<text text-anchor="start" x="635" y="-282" font-family="Helvetica,sans-Serif" font-size="10.00">include/Thoth/Http</text>
<text text-anchor="middle" x="724" y="-271" font-family="Helvetica,sans-Serif" font-size="10.00">/Methods/_base/MethodConcept.hpp</text>
</a>
</g>
</g>
<!-- Node4&#45;&gt;Node5 -->
<g id="edge4_Node000004_Node000005" class="edge">
<title>Node4&#45;&gt;Node5</title>
<g id="a_edge4_Node000004_Node000005"><a xlink:title=" ">
<path fill="none" stroke="#63b8ff" d="M724,-385.68C724,-358.7 724,-316.11 724,-294.14"/>
<polygon fill="#63b8ff" stroke="#63b8ff" points="720.5,-385.84 724,-395.84 727.5,-385.84 720.5,-385.84"/>
</a>
</g>
</g>
<!-- Node9 -->
<g id="Node000009" class="node">
<title>Node9</title>
<g id="a_Node000009"><a xlink:href="_request_8hpp.html" target="_top" xlink:title=" ">
<polygon fill="white" stroke="#666666" points="867.5,-162 744.5,-162 744.5,-132 867.5,-132 867.5,-162"/>
<text text-anchor="start" x="752.5" y="-150" font-family="Helvetica,sans-Serif" font-size="10.00">include/Thoth/Http</text>
<text text-anchor="middle" x="806" y="-139" font-family="Helvetica,sans-Serif" font-size="10.00">/Request/Request.hpp</text>
</a>
</g>
</g>
<!-- Node4&#45;&gt;Node9 -->
<g id="edge25_Node000004_Node000009" class="edge">
<title>Node4&#45;&gt;Node9</title>
<g id="a_edge25_Node000004_Node000009"><a xlink:title=" ">
<path fill="none" stroke="#63b8ff" d="M660.11,-410.07C461.7,-408.34 -120.16,-387.39 57,-198 103.52,-148.27 573.3,-146.41 744.24,-147.41"/>
<polygon fill="#63b8ff" stroke="#63b8ff" points="660.36,-413.58 670.38,-410.15 660.41,-406.58 660.36,-413.58"/>
</a>
</g>
</g>
<!-- Node17 -->
<g id="Node000017" class="node">
<title>Node17</title>
<g id="a_Node000017"><a xlink:href="_headers_8hpp.html" target="_top" xlink:title=" ">
<polygon fill="white" stroke="#666666" points="936,-360 804,-360 804,-330 936,-330 936,-360"/>
<text text-anchor="start" x="812" y="-348" font-family="Helvetica,sans-Serif" font-size="10.00">include/Thoth/Http</text>
<text text-anchor="middle" x="870" y="-337" font-family="Helvetica,sans-Serif" font-size="10.00">/NHeaders/Headers.hpp</text>
</a>
</g>
</g>
<!-- Node4&#45;&gt;Node17 -->
<g id="edge21_Node000004_Node000017" class="edge">
<title>Node4&#45;&gt;Node17</title>
<g id="a_edge21_Node000004_Node000017"><a xlink:title=" ">
<path fill="none" stroke="#63b8ff" d="M765.25,-391.92C788.32,-381.8 816.66,-369.38 838.03,-360.01"/>
<polygon fill="#63b8ff" stroke="#63b8ff" points="763.79,-388.73 756.04,-395.95 766.6,-395.15 763.79,-388.73"/>
</a>
</g>
</g>
<!-- Node6 -->
<g id="Node000006" class="node">
<title>Node6</title>
<g id="a_Node000006"><a xlink:href="_connect_method_8hpp.html" target="_top" xlink:title=" ">
<polygon fill="white" stroke="#666666" points="1216,-228 1054,-228 1054,-198 1216,-198 1216,-228"/>
<text text-anchor="start" x="1062" y="-216" font-family="Helvetica,sans-Serif" font-size="10.00">include/Thoth/Http</text>
<text text-anchor="middle" x="1135" y="-205" font-family="Helvetica,sans-Serif" font-size="10.00">/Methods/ConnectMethod.hpp</text>
</a>
</g>
</g>
<!-- Node5&#45;&gt;Node6 -->
<g id="edge5_Node000005_Node000006" class="edge">
<title>Node5&#45;&gt;Node6</title>
<g id="a_edge5_Node000005_Node000006"><a xlink:title=" ">
<path fill="none" stroke="#63b8ff" d="M824.18,-262.4C894.77,-251.41 988.07,-236.88 1053.97,-226.62"/>
<polygon fill="#63b8ff" stroke="#63b8ff" points="823.28,-259 813.94,-263.99 824.36,-265.91 823.28,-259"/>
</a>
</g>
</g>
<!-- Node7 -->
<g id="Node000007" class="node">
<title>Node7</title>
<g id="a_Node000007"><a xlink:href="_delete_method_8hpp.html" target="_top" xlink:title=" ">
<polygon fill="white" stroke="#666666" points="1389.5,-228 1234.5,-228 1234.5,-198 1389.5,-198 1389.5,-228"/>
<text text-anchor="start" x="1242.5" y="-216" font-family="Helvetica,sans-Serif" font-size="10.00">include/Thoth/Http</text>
<text text-anchor="middle" x="1312" y="-205" font-family="Helvetica,sans-Serif" font-size="10.00">/Methods/DeleteMethod.hpp</text>
</a>
</g>
</g>
<!-- Node5&#45;&gt;Node7 -->
<g id="edge6_Node000005_Node000007" class="edge">
<title>Node5&#45;&gt;Node7</title>
<g id="a_edge6_Node000005_Node000007"><a xlink:title=" ">
<path fill="none" stroke="#63b8ff" d="M831.14,-263.91C1006.91,-244.65 1053.34,-249.61 1225,-228 1228.04,-227.62 1231.13,-227.21 1234.25,-226.78"/>
<polygon fill="#63b8ff" stroke="#63b8ff" points="830.58,-260.45 821.03,-265.03 831.35,-267.4 830.58,-260.45"/>
</a>
</g>
</g>
<!-- Node8 -->
<g id="Node000008" class="node">
<title>Node8</title>
<g id="a_Node000008"><a xlink:href="_get_method_8hpp.html" target="_top" xlink:title=" ">
<polygon fill="white" stroke="#666666" points="1036,-228 896,-228 896,-198 1036,-198 1036,-228"/>
<text text-anchor="start" x="904" y="-216" font-family="Helvetica,sans-Serif" font-size="10.00">include/Thoth/Http</text>
<text text-anchor="middle" x="966" y="-205" font-family="Helvetica,sans-Serif" font-size="10.00">/Methods/GetMethod.hpp</text>
</a>
</g>
</g>
<!-- Node5&#45;&gt;Node8 -->
<g id="edge7_Node000005_Node000008" class="edge">
<title>Node5&#45;&gt;Node8</title>
<g id="a_edge7_Node000005_Node000008"><a xlink:title=" ">
<path fill="none" stroke="#63b8ff" d="M786.82,-261.39C826,-251.03 875.85,-237.84 913.02,-228.01"/>
<polygon fill="#63b8ff" stroke="#63b8ff" points="785.88,-258.01 777.11,-263.95 787.67,-264.78 785.88,-258.01"/>
</a>
</g>
</g>
<!-- Node11 -->
<g id="Node000011" class="node">
<title>Node11</title>
<g id="a_Node000011"><a xlink:href="_head_method_8hpp.html" target="_top" xlink:title=" ">
<polygon fill="white" stroke="#666666" points="1556,-228 1408,-228 1408,-198 1556,-198 1556,-228"/>
<text text-anchor="start" x="1416" y="-216" font-family="Helvetica,sans-Serif" font-size="10.00">include/Thoth/Http</text>
<text text-anchor="middle" x="1482" y="-205" font-family="Helvetica,sans-Serif" font-size="10.00">/Methods/HeadMethod.hpp</text>
</a>
</g>
</g>
<!-- Node5&#45;&gt;Node11 -->
<g id="edge13_Node000005_Node000011" class="edge">
<title>Node5&#45;&gt;Node11</title>
<g id="a_edge13_Node000005_Node000011"><a xlink:title=" ">
<path fill="none" stroke="#63b8ff" d="M831.24,-263.93C1083.95,-239.86 1150.6,-256.73 1399,-228 1401.9,-227.66 1404.86,-227.3 1407.84,-226.9"/>
<polygon fill="#63b8ff" stroke="#63b8ff" points="830.63,-260.47 821.02,-264.92 831.31,-267.44 830.63,-260.47"/>
</a>
</g>
</g>
<!-- Node12 -->
<g id="Node000012" class="node">
<title>Node12</title>
<g id="a_Node000012"><a xlink:href="_options_method_8hpp.html" target="_top" xlink:title=" ">
<polygon fill="white" stroke="#666666" points="226,-228 66,-228 66,-198 226,-198 226,-228"/>
<text text-anchor="start" x="74" y="-216" font-family="Helvetica,sans-Serif" font-size="10.00">include/Thoth/Http</text>
<text text-anchor="middle" x="146" y="-205" font-family="Helvetica,sans-Serif" font-size="10.00">/Methods/OptionsMethod.hpp</text>
</a>
</g>
</g>
<!-- Node5&#45;&gt;Node12 -->
<g id="edge14_Node000005_Node000012" class="edge">
<title>Node5&#45;&gt;Node12</title>
<g id="a_edge14_Node000005_Node000012"><a xlink:title=" ">
<path fill="none" stroke="#63b8ff" d="M616.83,-268.72C517.63,-259.74 366.12,-245 235,-228 232.05,-227.62 229.05,-227.22 226.02,-226.8"/>
<polygon fill="#63b8ff" stroke="#63b8ff" points="616.59,-272.22 626.87,-269.63 617.22,-265.24 616.59,-272.22"/>
</a>
</g>
</g>
<!-- Node13 -->
<g id="Node000013" class="node">
<title>Node13</title>
<g id="a_Node000013"><a xlink:href="_patch_method_8hpp.html" target="_top" xlink:title=" ">
<polygon fill="white" stroke="#666666" points="393.5,-228 244.5,-228 244.5,-198 393.5,-198 393.5,-228"/>
<text text-anchor="start" x="252.5" y="-216" font-family="Helvetica,sans-Serif" font-size="10.00">include/Thoth/Http</text>
<text text-anchor="middle" x="319" y="-205" font-family="Helvetica,sans-Serif" font-size="10.00">/Methods/PatchMethod.hpp</text>
</a>
</g>
</g>
<!-- Node5&#45;&gt;Node13 -->
<g id="edge15_Node000005_Node000013" class="edge">
<title>Node5&#45;&gt;Node13</title>
<g id="a_edge15_Node000005_Node000013"><a xlink:title=" ">
<path fill="none" stroke="#63b8ff" d="M622.33,-262.45C559.18,-252.71 476.34,-239.82 403,-228 399.93,-227.51 396.81,-227 393.65,-226.48"/>
<polygon fill="#63b8ff" stroke="#63b8ff" points="621.88,-265.92 632.29,-263.98 622.94,-259 621.88,-265.92"/>
</a>
</g>
</g>
<!-- Node14 -->
<g id="Node000014" class="node">
<title>Node14</title>
<g id="a_Node000014"><a xlink:href="_post_method_8hpp.html" target="_top" xlink:title=" ">
<polygon fill="white" stroke="#666666" points="877.5,-228 734.5,-228 734.5,-198 877.5,-198 877.5,-228"/>
<text text-anchor="start" x="742.5" y="-216" font-family="Helvetica,sans-Serif" font-size="10.00">include/Thoth/Http</text>
<text text-anchor="middle" x="806" y="-205" font-family="Helvetica,sans-Serif" font-size="10.00">/Methods/PostMethod.hpp</text>
</a>
</g>
</g>
<!-- Node5&#45;&gt;Node14 -->
<g id="edge16_Node000005_Node000014" class="edge">
<title>Node5&#45;&gt;Node14</title>
<g id="a_edge16_Node000005_Node000014"><a xlink:title=" ">
<path fill="none" stroke="#63b8ff" d="M750.29,-257.48C762.55,-247.91 776.82,-236.77 787.85,-228.16"/>
<polygon fill="#63b8ff" stroke="#63b8ff" points="747.93,-254.88 742.2,-263.8 752.24,-260.4 747.93,-254.88"/>
</a>
</g>
</g>
<!-- Node15 -->
<g id="Node000015" class="node">
<title>Node15</title>
<g id="a_Node000015"><a xlink:href="_put_method_8hpp.html" target="_top" xlink:title=" ">
<polygon fill="white" stroke="#666666" points="550,-228 412,-228 412,-198 550,-198 550,-228"/>
<text text-anchor="start" x="420" y="-216" font-family="Helvetica,sans-Serif" font-size="10.00">include/Thoth/Http</text>
<text text-anchor="middle" x="481" y="-205" font-family="Helvetica,sans-Serif" font-size="10.00">/Methods/PutMethod.hpp</text>
</a>
</g>
</g>
<!-- Node5&#45;&gt;Node15 -->
<g id="edge19_Node000005_Node000015" class="edge">
<title>Node5&#45;&gt;Node15</title>
<g id="a_edge19_Node000005_Node000015"><a xlink:title=" ">
<path fill="none" stroke="#63b8ff" d="M660.92,-261.39C621.58,-251.03 571.53,-237.84 534.2,-228.01"/>
<polygon fill="#63b8ff" stroke="#63b8ff" points="660.11,-264.79 670.67,-263.95 661.89,-258.02 660.11,-264.79"/>
</a>
</g>
</g>
<!-- Node16 -->
<g id="Node000016" class="node">
<title>Node16</title>
<g id="a_Node000016"><a xlink:href="_trace_method_8hpp.html" target="_top" xlink:title=" ">
<polygon fill="white" stroke="#666666" points="716,-228 568,-228 568,-198 716,-198 716,-228"/>
<text text-anchor="start" x="576" y="-216" font-family="Helvetica,sans-Serif" font-size="10.00">include/Thoth/Http</text>
<text text-anchor="middle" x="642" y="-205" font-family="Helvetica,sans-Serif" font-size="10.00">/Methods/TraceMethod.hpp</text>
</a>
</g>
</g>
<!-- Node5&#45;&gt;Node16 -->
<g id="edge20_Node000005_Node000016" class="edge">
<title>Node5&#45;&gt;Node16</title>
<g id="a_edge20_Node000005_Node000016"><a xlink:title=" ">
<path fill="none" stroke="#63b8ff" d="M697.71,-257.48C685.45,-247.91 671.18,-236.77 660.15,-228.16"/>
<polygon fill="#63b8ff" stroke="#63b8ff" points="695.76,-260.4 705.8,-263.8 700.07,-254.88 695.76,-260.4"/>
</a>
</g>
</g>
<!-- Node8&#45;&gt;Node9 -->
<g id="edge8_Node000008_Node000009" class="edge">
<title>Node8&#45;&gt;Node9</title>
<g id="a_edge8_Node000008_Node000009"><a xlink:title=" ">
<path fill="none" stroke="#63b8ff" d="M921.47,-194.19C896.06,-184.02 864.67,-171.47 841.03,-162.01"/>
<polygon fill="#63b8ff" stroke="#63b8ff" points="920.3,-197.49 930.89,-197.95 922.9,-190.99 920.3,-197.49"/>
</a>
</g>
</g>
<!-- Node10 -->
<g id="Node000010" class="node">
<title>Node10</title>
<g id="a_Node000010"><a xlink:href="_response_8hpp.html" target="_top" xlink:title=" ">
<polygon fill="white" stroke="#666666" points="970,-96 832,-96 832,-66 970,-66 970,-96"/>
<text text-anchor="start" x="840" y="-84" font-family="Helvetica,sans-Serif" font-size="10.00">include/Thoth/Http</text>
<text text-anchor="middle" x="901" y="-73" font-family="Helvetica,sans-Serif" font-size="10.00">/Response/Response.hpp</text>
</a>
</g>
</g>
<!-- Node8&#45;&gt;Node10 -->
<g id="edge12_Node000008_Node000010" class="edge">
<title>Node8&#45;&gt;Node10</title>
<g id="a_edge12_Node000008_Node000010"><a xlink:title=" ">
<path fill="none" stroke="#63b8ff" d="M954.37,-188.75C940.92,-161.84 919.2,-118.4 908.07,-96.14"/>
<polygon fill="#63b8ff" stroke="#63b8ff" points="951.32,-190.46 958.92,-197.84 957.58,-187.33 951.32,-190.46"/>
</a>
</g>
</g>
<!-- Node9&#45;&gt;Node2 -->
<g id="edge9_Node000009_Node000002" class="edge">
<title>Node9&#45;&gt;Node2</title>
<g id="a_edge9_Node000009_Node000002"><a xlink:title=" ">
<path fill="none" stroke="#63b8ff" d="M805.63,-121.68C805.21,-94.7 804.56,-52.11 804.22,-30.14"/>
<polygon fill="#63b8ff" stroke="#63b8ff" points="802.13,-121.9 805.78,-131.84 809.13,-121.79 802.13,-121.9"/>
</a>
</g>
</g>
<!-- Node9&#45;&gt;Node10 -->
<g id="edge10_Node000009_Node000010" class="edge">
<title>Node9&#45;&gt;Node10</title>
<g id="a_edge10_Node000009_Node000010"><a xlink:title=" ">
<path fill="none" stroke="#63b8ff" d="M835.65,-126.03C850.02,-116.34 866.95,-104.94 879.98,-96.16"/>
<polygon fill="#63b8ff" stroke="#63b8ff" points="833.42,-123.31 827.08,-131.8 837.33,-129.11 833.42,-123.31"/>
</a>
</g>
</g>
<!-- Node10&#45;&gt;Node2 -->
<g id="edge11_Node000010_Node000002" class="edge">
<title>Node10&#45;&gt;Node2</title>
<g id="a_edge11_Node000010_Node000002"><a xlink:title=" ">
<path fill="none" stroke="#63b8ff" d="M870.73,-60.03C856.05,-50.34 838.77,-38.94 825.47,-30.16"/>
<polygon fill="#63b8ff" stroke="#63b8ff" points="869.2,-63.21 879.47,-65.8 873.05,-57.37 869.2,-63.21"/>
</a>
</g>
</g>
<!-- Node14&#45;&gt;Node9 -->
<g id="edge17_Node000014_Node000009" class="edge">
<title>Node14&#45;&gt;Node9</title>
<g id="a_edge17_Node000014_Node000009"><a xlink:title=" ">
<path fill="none" stroke="#63b8ff" d="M806,-187.54C806,-178.96 806,-169.61 806,-162.16"/>
<polygon fill="#63b8ff" stroke="#63b8ff" points="802.5,-187.8 806,-197.8 809.5,-187.8 802.5,-187.8"/>
</a>
</g>
</g>
<!-- Node14&#45;&gt;Node10 -->
<g id="edge18_Node000014_Node000010" class="edge">
<title>Node14&#45;&gt;Node10</title>
<g id="a_edge18_Node000014_Node000010"><a xlink:title=" ">
<path fill="none" stroke="#63b8ff" d="M843.23,-192.5C855.48,-184.49 868.21,-174.21 877,-162 891.41,-142 897.27,-113.28 899.57,-96.25"/>
<polygon fill="#63b8ff" stroke="#63b8ff" points="841.11,-189.69 834.45,-197.93 844.79,-195.65 841.11,-189.69"/>
</a>
</g>
</g>
<!-- Node17&#45;&gt;Node5 -->
<g id="edge22_Node000017_Node000005" class="edge">
<title>Node17&#45;&gt;Node5</title>
<g id="a_edge22_Node000017_Node000005"><a xlink:title=" ">
<path fill="none" stroke="#63b8ff" d="M828.75,-325.92C805.68,-315.8 777.34,-303.38 755.97,-294.01"/>
<polygon fill="#63b8ff" stroke="#63b8ff" points="827.4,-329.15 837.96,-329.95 830.21,-322.73 827.4,-329.15"/>
</a>
</g>
</g>
<!-- Node18 -->
<g id="Node000018" class="node">
<title>Node18</title>
<g id="a_Node000018"><a xlink:href="_list_proxy_8hpp.html" target="_top" xlink:title=" ">
<polygon fill="white" stroke="#666666" points="1005,-294 839,-294 839,-264 1005,-264 1005,-294"/>
<text text-anchor="start" x="847" y="-282" font-family="Helvetica,sans-Serif" font-size="10.00">include/Thoth/Http</text>
<text text-anchor="middle" x="922" y="-271" font-family="Helvetica,sans-Serif" font-size="10.00">/NHeaders/Proxy/ListProxy.hpp</text>
</a>
</g>
</g>
<!-- Node17&#45;&gt;Node18 -->
<g id="edge23_Node000017_Node000018" class="edge">
<title>Node17&#45;&gt;Node18</title>
<g id="a_edge23_Node000017_Node000018"><a xlink:title=" ">
<path fill="none" stroke="#63b8ff" d="M888.03,-321.81C895.48,-312.64 903.9,-302.28 910.49,-294.16"/>
<polygon fill="#63b8ff" stroke="#63b8ff" points="885.13,-319.83 881.54,-329.8 890.56,-324.24 885.13,-319.83"/>
</a>
</g>
</g>
<!-- Node19 -->
<g id="Node000019" class="node">
<title>Node19</title>
<g id="a_Node000019"><a xlink:href="_value_proxy_8hpp.html" target="_top" xlink:title=" ">
<polygon fill="white" stroke="#666666" points="1199,-294 1023,-294 1023,-264 1199,-264 1199,-294"/>
<text text-anchor="start" x="1031" y="-282" font-family="Helvetica,sans-Serif" font-size="10.00">include/Thoth/Http</text>
<text text-anchor="middle" x="1111" y="-271" font-family="Helvetica,sans-Serif" font-size="10.00">/NHeaders/Proxy/ValueProxy.hpp</text>
</a>
</g>
</g>
<!-- Node17&#45;&gt;Node19 -->
<g id="edge24_Node000017_Node000019" class="edge">
<title>Node17&#45;&gt;Node19</title>
<g id="a_edge24_Node000017_Node000019"><a xlink:title=" ">
<path fill="none" stroke="#63b8ff" d="M932.56,-327.39C971.58,-317.03 1021.22,-303.84 1058.23,-294.01"/>
<polygon fill="#63b8ff" stroke="#63b8ff" points="931.66,-324.01 922.89,-329.95 933.45,-330.77 931.66,-324.01"/>
</a>
</g>
</g>
<!-- Node20&#45;&gt;Node10 -->
<g id="edge27_Node000020_Node000010" class="edge">
<title>Node20&#45;&gt;Node10</title>
<g id="a_edge27_Node000020_Node000010"><a xlink:title=" ">
<path fill="none" stroke="#63b8ff" d="M1325.44,-397.42C1420.5,-377.48 1584,-335.17 1584,-280 1584,-280 1584,-280 1584,-212 1584,-149.99 1143.89,-103.76 970.25,-87.94"/>
<polygon fill="#63b8ff" stroke="#63b8ff" points="1324.69,-393.99 1315.61,-399.45 1326.11,-400.85 1324.69,-393.99"/>
</a>
</g>
</g>
</g>
</svg>
