<?xml version="1.0" encoding="UTF-8" standalone="no"?>
<!DOCTYPE svg PUBLIC "-//W3C//DTD SVG 1.1//EN"
 "http://www.w3.org/Graphics/SVG/1.1/DTD/svg11.dtd">
<!-- Generated by graphviz version 2.43.0 (0)
 -->
<!-- Title: include/Thoth/Http/RequestError.hpp Pages: 1 -->
<svg width="1821pt" height="643pt"
 viewBox="0.00 0.00 1820.62 643.00" xmlns="http://www.w3.org/2000/svg" xmlns:xlink="http://www.w3.org/1999/xlink">
<g id="graph0" class="graph" transform="scale(1 1) rotate(0) translate(4 639)">
<title>include/Thoth/Http/RequestError.hpp</title>
<!-- Node1 -->
<g id="Node000001" class="node">
<title>Node1</title>
<g id="a_Node000001"><a xlink:title=" ">
<polygon fill="#999999" stroke="#666666" points="138.5,-635 31.5,-635 31.5,-605 138.5,-605 138.5,-635"/>
<text text-anchor="start" x="39.5" y="-623" font-family="Helvetica,sans-Serif" font-size="10.00">include/Thoth/Http</text>
<text text-anchor="middle" x="85" y="-612" font-family="Helvetica,sans-Serif" font-size="10.00">/RequestError.hpp</text>
</a>
</g>
</g>
<!-- Node2 -->
<g id="Node000002" class="node">
<title>Node2</title>
<g id="a_Node000002"><a xlink:href="_client_8hpp.html" target="_top" xlink:title=" ">
<polygon fill="white" stroke="#666666" points="339.5,-30 232.5,-30 232.5,0 339.5,0 339.5,-30"/>
<text text-anchor="start" x="240.5" y="-18" font-family="Helvetica,sans-Serif" font-size="10.00">include/Thoth/Http</text>
<text text-anchor="middle" x="286" y="-7" font-family="Helvetica,sans-Serif" font-size="10.00">/Client.hpp</text>
</a>
</g>
</g>
<!-- Node1&#45;&gt;Node2 -->
<g id="edge1_Node000001_Node000002" class="edge">
<title>Node1&#45;&gt;Node2</title>
<g id="a_edge1_Node000001_Node000002"><a xlink:title=" ">
<path fill="none" stroke="#63b8ff" d="M60.39,-598.24C35.28,-574.61 0,-533.48 0,-489 0,-489 0,-489 0,-151.5 0,-49.85 149.36,-24.36 232.21,-18.03"/>
<polygon fill="#63b8ff" stroke="#63b8ff" points="58.05,-600.85 67.8,-604.99 62.77,-595.67 58.05,-600.85"/>
</a>
</g>
</g>
<!-- Node3 -->
<g id="Node000003" class="node">
<title>Node3</title>
<g id="a_Node000003"><a xlink:href="_query_params_8hpp.html" target="_top" xlink:title=" ">
<polygon fill="white" stroke="#666666" points="338.5,-569 189.5,-569 189.5,-539 338.5,-539 338.5,-569"/>
<text text-anchor="start" x="197.5" y="-557" font-family="Helvetica,sans-Serif" font-size="10.00">include/Thoth/Http</text>
<text text-anchor="middle" x="264" y="-546" font-family="Helvetica,sans-Serif" font-size="10.00">/Request/QueryParams.hpp</text>
</a>
</g>
</g>
<!-- Node1&#45;&gt;Node3 -->
<g id="edge2_Node000001_Node000003" class="edge">
<title>Node1&#45;&gt;Node3</title>
<g id="a_edge2_Node000001_Node000003"><a xlink:title=" ">
<path fill="none" stroke="#63b8ff" d="M134.07,-601.46C162.62,-591.25 198.13,-578.55 224.81,-569.01"/>
<polygon fill="#63b8ff" stroke="#63b8ff" points="132.52,-598.29 124.28,-604.95 134.88,-604.88 132.52,-598.29"/>
</a>
</g>
</g>
<!-- Node24 -->
<g id="Node000024" class="node">
<title>Node24</title>
<g id="a_Node000024"><a xlink:href="_json_8hpp.html" target="_top" xlink:title=" ">
<polygon fill="white" stroke="#666666" points="141.5,-503 28.5,-503 28.5,-473 141.5,-473 141.5,-503"/>
<text text-anchor="start" x="36.5" y="-491" font-family="Helvetica,sans-Serif" font-size="10.00">include/Thoth/NJson</text>
<text text-anchor="middle" x="85" y="-480" font-family="Helvetica,sans-Serif" font-size="10.00">/Json.hpp</text>
</a>
</g>
</g>
<!-- Node1&#45;&gt;Node24 -->
<g id="edge35_Node000001_Node000024" class="edge">
<title>Node1&#45;&gt;Node24</title>
<g id="a_edge35_Node000001_Node000024"><a xlink:title=" ">
<path fill="none" stroke="#63b8ff" d="M85,-594.68C85,-567.7 85,-525.11 85,-503.14"/>
<polygon fill="#63b8ff" stroke="#63b8ff" points="81.5,-594.84 85,-604.84 88.5,-594.84 81.5,-594.84"/>
</a>
</g>
</g>
<!-- Node4 -->
<g id="Node000004" class="node">
<title>Node4</title>
<g id="a_Node000004"><a xlink:href="_url_8hpp.html" target="_top" xlink:title=" ">
<polygon fill="white" stroke="#666666" points="664.5,-503 557.5,-503 557.5,-473 664.5,-473 664.5,-503"/>
<text text-anchor="start" x="565.5" y="-491" font-family="Helvetica,sans-Serif" font-size="10.00">include/Thoth/Http</text>
<text text-anchor="middle" x="611" y="-480" font-family="Helvetica,sans-Serif" font-size="10.00">/Url/Url.hpp</text>
</a>
</g>
</g>
<!-- Node3&#45;&gt;Node4 -->
<g id="edge3_Node000003_Node000004" class="edge">
<title>Node3&#45;&gt;Node4</title>
<g id="a_edge3_Node000003_Node000004"><a xlink:title=" ">
<path fill="none" stroke="#63b8ff" d="M348.71,-537.38C413.83,-525.37 501.8,-509.14 557.48,-498.87"/>
<polygon fill="#63b8ff" stroke="#63b8ff" points="348.07,-533.94 338.87,-539.19 349.34,-540.82 348.07,-533.94"/>
</a>
</g>
</g>
<!-- Node5 -->
<g id="Node000005" class="node">
<title>Node5</title>
<g id="a_Node000005"><a xlink:href="_method_concept_8hpp.html" target="_top" xlink:title=" ">
<polygon fill="white" stroke="#666666" points="1064,-371 870,-371 870,-341 1064,-341 1064,-371"/>
<text text-anchor="start" x="878" y="-359" font-family="Helvetica,sans-Serif" font-size="10.00">include/Thoth/Http</text>
<text text-anchor="middle" x="967" y="-348" font-family="Helvetica,sans-Serif" font-size="10.00">/Methods/_base/MethodConcept.hpp</text>
</a>
</g>
</g>
<!-- Node4&#45;&gt;Node5 -->
<g id="edge4_Node000004_Node000005" class="edge">
<title>Node4&#45;&gt;Node5</title>
<g id="a_edge4_Node000004_Node000005"><a xlink:title=" ">
<path fill="none" stroke="#63b8ff" d="M659.09,-469.44C730.47,-443.37 863.04,-394.96 928.45,-371.08"/>
<polygon fill="#63b8ff" stroke="#63b8ff" points="657.63,-466.25 649.44,-472.96 660.03,-472.82 657.63,-466.25"/>
</a>
</g>
</g>
<!-- Node9 -->
<g id="Node000009" class="node">
<title>Node9</title>
<g id="a_Node000009"><a xlink:href="_request_8hpp.html" target="_top" xlink:title=" ">
<polygon fill="white" stroke="#666666" points="497.5,-239 374.5,-239 374.5,-209 497.5,-209 497.5,-239"/>
<text text-anchor="start" x="382.5" y="-227" font-family="Helvetica,sans-Serif" font-size="10.00">include/Thoth/Http</text>
<text text-anchor="middle" x="436" y="-216" font-family="Helvetica,sans-Serif" font-size="10.00">/Request/Request.hpp</text>
</a>
</g>
</g>
<!-- Node4&#45;&gt;Node9 -->
<g id="edge34_Node000004_Node000009" class="edge">
<title>Node4&#45;&gt;Node9</title>
<g id="a_edge34_Node000004_Node000009"><a xlink:title=" ">
<path fill="none" stroke="#63b8ff" d="M675.15,-485.64C943.67,-478.89 1956.16,-442.19 1795,-275 1749.46,-227.75 757.59,-224.86 497.82,-224.92"/>
<polygon fill="#63b8ff" stroke="#63b8ff" points="674.7,-482.15 664.79,-485.9 674.87,-489.15 674.7,-482.15"/>
</a>
</g>
</g>
<!-- Node18 -->
<g id="Node000018" class="node">
<title>Node18</title>
<g id="a_Node000018"><a xlink:href="_headers_8hpp.html" target="_top" xlink:title=" ">
<polygon fill="white" stroke="#666666" points="497,-437 365,-437 365,-407 497,-407 497,-437"/>
<text text-anchor="start" x="373" y="-425" font-family="Helvetica,sans-Serif" font-size="10.00">include/Thoth/Http</text>
<text text-anchor="middle" x="431" y="-414" font-family="Helvetica,sans-Serif" font-size="10.00">/NHeaders/Headers.hpp</text>
</a>
</g>
</g>
<!-- Node4&#45;&gt;Node18 -->
<g id="edge22_Node000004_Node000018" class="edge">
<title>Node4&#45;&gt;Node18</title>
<g id="a_edge22_Node000004_Node000018"><a xlink:title=" ">
<path fill="none" stroke="#63b8ff" d="M562.03,-469.59C533.26,-459.36 497.35,-446.59 470.41,-437.01"/>
<polygon fill="#63b8ff" stroke="#63b8ff" points="560.9,-472.9 571.5,-472.95 563.25,-466.31 560.9,-472.9"/>
</a>
</g>
</g>
<!-- Node6 -->
<g id="Node000006" class="node">
<title>Node6</title>
<g id="a_Node000006"><a xlink:href="_connect_method_8hpp.html" target="_top" xlink:title=" ">
<polygon fill="white" stroke="#666666" points="778,-305 616,-305 616,-275 778,-275 778,-305"/>
<text text-anchor="start" x="624" y="-293" font-family="Helvetica,sans-Serif" font-size="10.00">include/Thoth/Http</text>
<text text-anchor="middle" x="697" y="-282" font-family="Helvetica,sans-Serif" font-size="10.00">/Methods/ConnectMethod.hpp</text>
</a>
</g>
</g>
<!-- Node5&#45;&gt;Node6 -->
<g id="edge5_Node000005_Node000006" class="edge">
<title>Node5&#45;&gt;Node6</title>
<g id="a_edge5_Node000005_Node000006"><a xlink:title=" ">
<path fill="none" stroke="#63b8ff" d="M898.02,-338.65C854.15,-328.25 797.93,-314.93 756.11,-305.01"/>
<polygon fill="#63b8ff" stroke="#63b8ff" points="897.21,-342.05 907.75,-340.95 898.82,-335.24 897.21,-342.05"/>
</a>
</g>
</g>
<!-- Node7 -->
<g id="Node000007" class="node">
<title>Node7</title>
<g id="a_Node000007"><a xlink:href="_delete_method_8hpp.html" target="_top" xlink:title=" ">
<polygon fill="white" stroke="#666666" points="951.5,-305 796.5,-305 796.5,-275 951.5,-275 951.5,-305"/>
<text text-anchor="start" x="804.5" y="-293" font-family="Helvetica,sans-Serif" font-size="10.00">include/Thoth/Http</text>
<text text-anchor="middle" x="874" y="-282" font-family="Helvetica,sans-Serif" font-size="10.00">/Methods/DeleteMethod.hpp</text>
</a>
</g>
</g>
<!-- Node5&#45;&gt;Node7 -->
<g id="edge6_Node000005_Node000007" class="edge">
<title>Node5&#45;&gt;Node7</title>
<g id="a_edge6_Node000005_Node000007"><a xlink:title=" ">
<path fill="none" stroke="#63b8ff" d="M937.98,-335.03C923.91,-325.34 907.33,-313.94 894.58,-305.16"/>
<polygon fill="#63b8ff" stroke="#63b8ff" points="936.14,-338.01 946.36,-340.8 940.11,-332.24 936.14,-338.01"/>
</a>
</g>
</g>
<!-- Node8 -->
<g id="Node000008" class="node">
<title>Node8</title>
<g id="a_Node000008"><a xlink:href="_get_method_8hpp.html" target="_top" xlink:title=" ">
<polygon fill="white" stroke="#666666" points="398,-305 258,-305 258,-275 398,-275 398,-305"/>
<text text-anchor="start" x="266" y="-293" font-family="Helvetica,sans-Serif" font-size="10.00">include/Thoth/Http</text>
<text text-anchor="middle" x="328" y="-282" font-family="Helvetica,sans-Serif" font-size="10.00">/Methods/GetMethod.hpp</text>
</a>
</g>
</g>
<!-- Node5&#45;&gt;Node8 -->
<g id="edge7_Node000005_Node000008" class="edge">
<title>Node5&#45;&gt;Node8</title>
<g id="a_edge7_Node000005_Node000008"><a xlink:title=" ">
<path fill="none" stroke="#63b8ff" d="M859.93,-340.92C675.27,-320.97 626.93,-323.58 446,-305 430.51,-303.41 413.89,-301.54 398.16,-299.69"/>
<polygon fill="#63b8ff" stroke="#63b8ff" points="859.66,-344.41 869.98,-342.01 860.41,-337.45 859.66,-344.41"/>
</a>
</g>
</g>
<!-- Node12 -->
<g id="Node000012" class="node">
<title>Node12</title>
<g id="a_Node000012"><a xlink:href="_head_method_8hpp.html" target="_top" xlink:title=" ">
<polygon fill="white" stroke="#666666" points="1118,-305 970,-305 970,-275 1118,-275 1118,-305"/>
<text text-anchor="start" x="978" y="-293" font-family="Helvetica,sans-Serif" font-size="10.00">include/Thoth/Http</text>
<text text-anchor="middle" x="1044" y="-282" font-family="Helvetica,sans-Serif" font-size="10.00">/Methods/HeadMethod.hpp</text>
</a>
</g>
</g>
<!-- Node5&#45;&gt;Node12 -->
<g id="edge14_Node000005_Node000012" class="edge">
<title>Node5&#45;&gt;Node12</title>
<g id="a_edge14_Node000005_Node000012"><a xlink:title=" ">
<path fill="none" stroke="#63b8ff" d="M992.02,-334.2C1003.45,-324.7 1016.7,-313.69 1026.96,-305.16"/>
<polygon fill="#63b8ff" stroke="#63b8ff" points="989.54,-331.71 984.09,-340.8 994.02,-337.1 989.54,-331.71"/>
</a>
</g>
</g>
<!-- Node13 -->
<g id="Node000013" class="node">
<title>Node13</title>
<g id="a_Node000013"><a xlink:href="_options_method_8hpp.html" target="_top" xlink:title=" ">
<polygon fill="white" stroke="#666666" points="1296,-305 1136,-305 1136,-275 1296,-275 1296,-305"/>
<text text-anchor="start" x="1144" y="-293" font-family="Helvetica,sans-Serif" font-size="10.00">include/Thoth/Http</text>
<text text-anchor="middle" x="1216" y="-282" font-family="Helvetica,sans-Serif" font-size="10.00">/Methods/OptionsMethod.hpp</text>
</a>
</g>
</g>
<!-- Node5&#45;&gt;Node13 -->
<g id="edge15_Node000005_Node000013" class="edge">
<title>Node5&#45;&gt;Node13</title>
<g id="a_edge15_Node000005_Node000013"><a xlink:title=" ">
<path fill="none" stroke="#63b8ff" d="M1031.38,-338.45C1071.73,-328.08 1123.16,-314.86 1161.48,-305.01"/>
<polygon fill="#63b8ff" stroke="#63b8ff" points="1030.46,-335.08 1021.64,-340.95 1032.2,-341.86 1030.46,-335.08"/>
</a>
</g>
</g>
<!-- Node14 -->
<g id="Node000014" class="node">
<title>Node14</title>
<g id="a_Node000014"><a xlink:href="_patch_method_8hpp.html" target="_top" xlink:title=" ">
<polygon fill="white" stroke="#666666" points="1463.5,-305 1314.5,-305 1314.5,-275 1463.5,-275 1463.5,-305"/>
<text text-anchor="start" x="1322.5" y="-293" font-family="Helvetica,sans-Serif" font-size="10.00">include/Thoth/Http</text>
<text text-anchor="middle" x="1389" y="-282" font-family="Helvetica,sans-Serif" font-size="10.00">/Methods/PatchMethod.hpp</text>
</a>
</g>
</g>
<!-- Node5&#45;&gt;Node14 -->
<g id="edge16_Node000005_Node000014" class="edge">
<title>Node5&#45;&gt;Node14</title>
<g id="a_edge16_Node000005_Node000014"><a xlink:title=" ">
<path fill="none" stroke="#63b8ff" d="M1074.4,-339.62C1140.87,-329.98 1227.94,-317.12 1305,-305 1308.07,-304.52 1311.2,-304.02 1314.36,-303.51"/>
<polygon fill="#63b8ff" stroke="#63b8ff" points="1073.72,-336.19 1064.33,-341.08 1074.72,-343.11 1073.72,-336.19"/>
</a>
</g>
</g>
<!-- Node15 -->
<g id="Node000015" class="node">
<title>Node15</title>
<g id="a_Node000015"><a xlink:href="_post_method_8hpp.html" target="_top" xlink:title=" ">
<polygon fill="white" stroke="#666666" points="597.5,-305 454.5,-305 454.5,-275 597.5,-275 597.5,-305"/>
<text text-anchor="start" x="462.5" y="-293" font-family="Helvetica,sans-Serif" font-size="10.00">include/Thoth/Http</text>
<text text-anchor="middle" x="526" y="-282" font-family="Helvetica,sans-Serif" font-size="10.00">/Methods/PostMethod.hpp</text>
</a>
</g>
</g>
<!-- Node5&#45;&gt;Node15 -->
<g id="edge17_Node000005_Node000015" class="edge">
<title>Node5&#45;&gt;Node15</title>
<g id="a_edge17_Node000005_Node000015"><a xlink:title=" ">
<path fill="none" stroke="#63b8ff" d="M859.89,-340.52C771.88,-328.55 654.28,-312.37 607,-305 603.9,-304.52 600.73,-304.01 597.53,-303.5"/>
<polygon fill="#63b8ff" stroke="#63b8ff" points="859.55,-344.01 869.93,-341.89 860.49,-337.07 859.55,-344.01"/>
</a>
</g>
</g>
<!-- Node16 -->
<g id="Node000016" class="node">
<title>Node16</title>
<g id="a_Node000016"><a xlink:href="_put_method_8hpp.html" target="_top" xlink:title=" ">
<polygon fill="white" stroke="#666666" points="1620,-305 1482,-305 1482,-275 1620,-275 1620,-305"/>
<text text-anchor="start" x="1490" y="-293" font-family="Helvetica,sans-Serif" font-size="10.00">include/Thoth/Http</text>
<text text-anchor="middle" x="1551" y="-282" font-family="Helvetica,sans-Serif" font-size="10.00">/Methods/PutMethod.hpp</text>
</a>
</g>
</g>
<!-- Node5&#45;&gt;Node16 -->
<g id="edge20_Node000005_Node000016" class="edge">
<title>Node5&#45;&gt;Node16</title>
<g id="a_edge20_Node000005_Node000016"><a xlink:title=" ">
<path fill="none" stroke="#63b8ff" d="M1074.34,-346.87C1176.96,-338.52 1335.92,-324.04 1473,-305 1475.86,-304.6 1478.78,-304.18 1481.72,-303.73"/>
<polygon fill="#63b8ff" stroke="#63b8ff" points="1073.96,-343.39 1064.27,-347.69 1074.52,-350.37 1073.96,-343.39"/>
</a>
</g>
</g>
<!-- Node17 -->
<g id="Node000017" class="node">
<title>Node17</title>
<g id="a_Node000017"><a xlink:href="_trace_method_8hpp.html" target="_top" xlink:title=" ">
<polygon fill="white" stroke="#666666" points="1786,-305 1638,-305 1638,-275 1786,-275 1786,-305"/>
<text text-anchor="start" x="1646" y="-293" font-family="Helvetica,sans-Serif" font-size="10.00">include/Thoth/Http</text>
<text text-anchor="middle" x="1712" y="-282" font-family="Helvetica,sans-Serif" font-size="10.00">/Methods/TraceMethod.hpp</text>
</a>
</g>
</g>
<!-- Node5&#45;&gt;Node17 -->
<g id="edge21_Node000005_Node000017" class="edge">
<title>Node5&#45;&gt;Node17</title>
<g id="a_edge21_Node000005_Node000017"><a xlink:title=" ">
<path fill="none" stroke="#63b8ff" d="M1074.08,-349.94C1205.23,-343.04 1434,-328.76 1629,-305 1631.9,-304.65 1634.86,-304.26 1637.84,-303.86"/>
<polygon fill="#63b8ff" stroke="#63b8ff" points="1073.83,-346.45 1064.03,-350.46 1074.2,-353.44 1073.83,-346.45"/>
</a>
</g>
</g>
<!-- Node8&#45;&gt;Node9 -->
<g id="edge8_Node000008_Node000009" class="edge">
<title>Node8&#45;&gt;Node9</title>
<g id="a_edge8_Node000008_Node000009"><a xlink:title=" ">
<path fill="none" stroke="#63b8ff" d="M360.58,-269.69C377.25,-259.82 397.17,-248.01 412.35,-239.01"/>
<polygon fill="#63b8ff" stroke="#63b8ff" points="358.52,-266.85 351.7,-274.95 362.09,-272.87 358.52,-266.85"/>
</a>
</g>
</g>
<!-- Node11 -->
<g id="Node000011" class="node">
<title>Node11</title>
<g id="a_Node000011"><a xlink:href="_response_8hpp.html" target="_top" xlink:title=" ">
<polygon fill="white" stroke="#666666" points="355,-96 217,-96 217,-66 355,-66 355,-96"/>
<text text-anchor="start" x="225" y="-84" font-family="Helvetica,sans-Serif" font-size="10.00">include/Thoth/Http</text>
<text text-anchor="middle" x="286" y="-73" font-family="Helvetica,sans-Serif" font-size="10.00">/Response/Response.hpp</text>
</a>
</g>
</g>
<!-- Node8&#45;&gt;Node11 -->
<g id="edge13_Node000008_Node000011" class="edge">
<title>Node8&#45;&gt;Node11</title>
<g id="a_edge13_Node000008_Node000011"><a xlink:title=" ">
<path fill="none" stroke="#63b8ff" d="M323.08,-264.76C314.23,-221.15 295.9,-130.81 288.85,-96.05"/>
<polygon fill="#63b8ff" stroke="#63b8ff" points="319.69,-265.67 325.11,-274.77 326.55,-264.28 319.69,-265.67"/>
</a>
</g>
</g>
<!-- Node9&#45;&gt;Node2 -->
<g id="edge9_Node000009_Node000002" class="edge">
<title>Node9&#45;&gt;Node2</title>
<g id="a_edge9_Node000009_Node000002"><a xlink:title=" ">
<path fill="none" stroke="#63b8ff" d="M477.11,-203.62C488.94,-195.87 500.41,-185.71 507,-173 515.39,-156.83 516.43,-147.59 507,-132 470.91,-72.3 392.8,-41.81 339.8,-27.4"/>
<polygon fill="#63b8ff" stroke="#63b8ff" points="475.24,-200.66 468.51,-208.84 478.87,-206.65 475.24,-200.66"/>
</a>
</g>
</g>
<!-- Node10 -->
<g id="Node000010" class="node">
<title>Node10</title>
<g id="a_Node000010"><a xlink:href="_response_head_8hpp.html" target="_top" xlink:title=" ">
<polygon fill="white" stroke="#666666" points="498,-167.5 334,-167.5 334,-137.5 498,-137.5 498,-167.5"/>
<text text-anchor="start" x="342" y="-155.5" font-family="Helvetica,sans-Serif" font-size="10.00">include/Thoth/Http</text>
<text text-anchor="middle" x="416" y="-144.5" font-family="Helvetica,sans-Serif" font-size="10.00">/Response/ResponseHead.hpp</text>
</a>
</g>
</g>
<!-- Node9&#45;&gt;Node10 -->
<g id="edge10_Node000009_Node000010" class="edge">
<title>Node9&#45;&gt;Node10</title>
<g id="a_edge10_Node000009_Node000010"><a xlink:title=" ">
<path fill="none" stroke="#63b8ff" d="M429.12,-199.08C426.09,-188.56 422.64,-176.58 420.04,-167.54"/>
<polygon fill="#63b8ff" stroke="#63b8ff" points="425.82,-200.29 431.95,-208.94 432.55,-198.36 425.82,-200.29"/>
</a>
</g>
</g>
<!-- Node10&#45;&gt;Node11 -->
<g id="edge11_Node000010_Node000011" class="edge">
<title>Node10&#45;&gt;Node11</title>
<g id="a_edge11_Node000010_Node000011"><a xlink:title=" ">
<path fill="none" stroke="#63b8ff" d="M380.81,-132.69C359.21,-121.14 331.99,-106.59 312.27,-96.04"/>
<polygon fill="#63b8ff" stroke="#63b8ff" points="379.22,-135.81 389.69,-137.44 382.52,-129.63 379.22,-135.81"/>
</a>
</g>
</g>
<!-- Node11&#45;&gt;Node2 -->
<g id="edge12_Node000011_Node000002" class="edge">
<title>Node11&#45;&gt;Node2</title>
<g id="a_edge12_Node000011_Node000002"><a xlink:title=" ">
<path fill="none" stroke="#63b8ff" d="M286,-55.54C286,-46.96 286,-37.61 286,-30.16"/>
<polygon fill="#63b8ff" stroke="#63b8ff" points="282.5,-55.8 286,-65.8 289.5,-55.8 282.5,-55.8"/>
</a>
</g>
</g>
<!-- Node15&#45;&gt;Node9 -->
<g id="edge18_Node000015_Node000009" class="edge">
<title>Node15&#45;&gt;Node9</title>
<g id="a_edge18_Node000015_Node000009"><a xlink:title=" ">
<path fill="none" stroke="#63b8ff" d="M497.53,-268.75C483.99,-259.13 468.14,-247.86 455.92,-239.16"/>
<polygon fill="#63b8ff" stroke="#63b8ff" points="495.85,-271.85 506.03,-274.8 499.9,-266.15 495.85,-271.85"/>
</a>
</g>
</g>
<!-- Node15&#45;&gt;Node11 -->
<g id="edge19_Node000015_Node000011" class="edge">
<title>Node15&#45;&gt;Node11</title>
<g id="a_edge19_Node000015_Node000011"><a xlink:title=" ">
<path fill="none" stroke="#63b8ff" d="M530.85,-264.64C536.12,-230.47 539.87,-168.41 507,-132 486.87,-109.7 412.08,-96.21 355.03,-88.96"/>
<polygon fill="#63b8ff" stroke="#63b8ff" points="527.36,-264.24 529.13,-274.69 534.26,-265.42 527.36,-264.24"/>
</a>
</g>
</g>
<!-- Node18&#45;&gt;Node5 -->
<g id="edge26_Node000018_Node000005" class="edge">
<title>Node18&#45;&gt;Node5</title>
<g id="a_edge26_Node000018_Node000005"><a xlink:title=" ">
<path fill="none" stroke="#63b8ff" d="M507.53,-412.46C593.56,-402.79 737.37,-386.35 861,-371 863.95,-370.63 866.94,-370.26 869.96,-369.88"/>
<polygon fill="#63b8ff" stroke="#63b8ff" points="506.88,-409.02 497.34,-413.61 507.66,-415.97 506.88,-409.02"/>
</a>
</g>
</g>
<!-- Node18&#45;&gt;Node10 -->
<g id="edge33_Node000018_Node000010" class="edge">
<title>Node18&#45;&gt;Node10</title>
<g id="a_edge33_Node000018_Node000010"><a xlink:title=" ">
<path fill="none" stroke="#63b8ff" d="M354.61,-409.49C310.91,-401.17 262.22,-388.35 249,-371 223.13,-337.07 229.64,-313.02 249,-275 256.99,-259.3 351.11,-196.12 394.42,-167.6"/>
<polygon fill="#63b8ff" stroke="#63b8ff" points="354.24,-412.98 364.71,-411.35 355.51,-406.1 354.24,-412.98"/>
</a>
</g>
</g>
<!-- Node19 -->
<g id="Node000019" class="node">
<title>Node19</title>
<g id="a_Node000019"><a xlink:href="_file_output_range_8hpp.html" target="_top" xlink:title=" ">
<polygon fill="white" stroke="#666666" points="262,-239 104,-239 104,-209 262,-209 262,-239"/>
<text text-anchor="start" x="112" y="-227" font-family="Helvetica,sans-Serif" font-size="10.00">include/Thoth/Dsa/FileOutput</text>
<text text-anchor="middle" x="183" y="-216" font-family="Helvetica,sans-Serif" font-size="10.00">Range.hpp</text>
</a>
</g>
</g>
<!-- Node18&#45;&gt;Node19 -->
<g id="edge23_Node000018_Node000019" class="edge">
<title>Node18&#45;&gt;Node19</title>
<g id="a_edge23_Node000018_Node000019"><a xlink:title=" ">
<path fill="none" stroke="#63b8ff" d="M354.69,-411.9C301.02,-403.94 235.45,-390.57 216,-371 180.1,-334.87 179.83,-268.48 181.67,-239.35"/>
<polygon fill="#63b8ff" stroke="#63b8ff" points="354.5,-415.41 364.9,-413.37 355.5,-408.48 354.5,-415.41"/>
</a>
</g>
</g>
<!-- Node20 -->
<g id="Node000020" class="node">
<title>Node20</title>
<g id="a_Node000020"><a xlink:href="_list_proxy_8hpp.html" target="_top" xlink:title=" ">
<polygon fill="white" stroke="#666666" points="424,-371 258,-371 258,-341 424,-341 424,-371"/>
<text text-anchor="start" x="266" y="-359" font-family="Helvetica,sans-Serif" font-size="10.00">include/Thoth/Http</text>
<text text-anchor="middle" x="341" y="-348" font-family="Helvetica,sans-Serif" font-size="10.00">/NHeaders/Proxy/ListProxy.hpp</text>
</a>
</g>
</g>
<!-- Node18&#45;&gt;Node20 -->
<g id="edge27_Node000018_Node000020" class="edge">
<title>Node18&#45;&gt;Node20</title>
<g id="a_edge27_Node000018_Node000020"><a xlink:title=" ">
<path fill="none" stroke="#63b8ff" d="M402.53,-400.75C388.99,-391.13 373.14,-379.86 360.92,-371.16"/>
<polygon fill="#63b8ff" stroke="#63b8ff" points="400.85,-403.85 411.03,-406.8 404.9,-398.15 400.85,-403.85"/>
</a>
</g>
</g>
<!-- Node21 -->
<g id="Node000021" class="node">
<title>Node21</title>
<g id="a_Node000021"><a xlink:href="_value_proxy_8hpp.html" target="_top" xlink:title=" ">
<polygon fill="white" stroke="#666666" points="618,-371 442,-371 442,-341 618,-341 618,-371"/>
<text text-anchor="start" x="450" y="-359" font-family="Helvetica,sans-Serif" font-size="10.00">include/Thoth/Http</text>
<text text-anchor="middle" x="530" y="-348" font-family="Helvetica,sans-Serif" font-size="10.00">/NHeaders/Proxy/ValueProxy.hpp</text>
</a>
</g>
</g>
<!-- Node18&#45;&gt;Node21 -->
<g id="edge28_Node000018_Node000021" class="edge">
<title>Node18&#45;&gt;Node21</title>
<g id="a_edge28_Node000018_Node000021"><a xlink:title=" ">
<path fill="none" stroke="#63b8ff" d="M461.47,-401.3C476.54,-391.56 494.39,-380.02 508.09,-371.16"/>
<polygon fill="#63b8ff" stroke="#63b8ff" points="459.47,-398.43 452.97,-406.8 463.27,-404.31 459.47,-398.43"/>
</a>
</g>
</g>
<!-- Node22 -->
<g id="Node000022" class="node">
<title>Node22</title>
<g id="a_Node000022"><a xlink:href="_request_headers_8hpp.html" target="_top" xlink:title=" ">
<polygon fill="white" stroke="#666666" points="851.5,-371 636.5,-371 636.5,-341 851.5,-341 851.5,-371"/>
<text text-anchor="start" x="644.5" y="-359" font-family="Helvetica,sans-Serif" font-size="10.00">include/Thoth/Http</text>
<text text-anchor="middle" x="744" y="-348" font-family="Helvetica,sans-Serif" font-size="10.00">/NHeaders/Request/RequestHeaders.hpp</text>
</a>
</g>
</g>
<!-- Node18&#45;&gt;Node22 -->
<g id="edge29_Node000018_Node000022" class="edge">
<title>Node18&#45;&gt;Node22</title>
<g id="a_edge29_Node000018_Node000022"><a xlink:title=" ">
<path fill="none" stroke="#63b8ff" d="M507.42,-405.37C558.7,-394.89 625.68,-381.19 675.28,-371.05"/>
<polygon fill="#63b8ff" stroke="#63b8ff" points="506.48,-401.99 497.38,-407.43 507.88,-408.85 506.48,-401.99"/>
</a>
</g>
</g>
<!-- Node23 -->
<g id="Node000023" class="node">
<title>Node23</title>
<g id="a_Node000023"><a xlink:href="_response_headers_8hpp.html" target="_top" xlink:title=" ">
<polygon fill="white" stroke="#666666" points="237,-173 69,-173 69,-132 237,-132 237,-173"/>
<text text-anchor="start" x="77" y="-161" font-family="Helvetica,sans-Serif" font-size="10.00">include/Thoth/Http</text>
<text text-anchor="start" x="77" y="-150" font-family="Helvetica,sans-Serif" font-size="10.00">/NHeaders/Response/Response</text>
<text text-anchor="middle" x="153" y="-139" font-family="Helvetica,sans-Serif" font-size="10.00">Headers.hpp</text>
</a>
</g>
</g>
<!-- Node18&#45;&gt;Node23 -->
<g id="edge31_Node000018_Node000023" class="edge">
<title>Node18&#45;&gt;Node23</title>
<g id="a_edge31_Node000018_Node000023"><a xlink:title=" ">
<path fill="none" stroke="#63b8ff" d="M354.78,-418.91C305.02,-414.37 240.53,-402.22 192,-371 130.77,-331.61 117.68,-308.18 95,-239 90.85,-226.33 89.76,-221.26 95,-209 101.08,-194.77 112.79,-182.45 124.11,-173.05"/>
<polygon fill="#63b8ff" stroke="#63b8ff" points="354.59,-422.41 364.85,-419.75 355.17,-415.43 354.59,-422.41"/>
</a>
</g>
</g>
<!-- Node19&#45;&gt;Node11 -->
<g id="edge25_Node000019_Node000011" class="edge">
<title>Node19&#45;&gt;Node11</title>
<g id="a_edge25_Node000019_Node000011"><a xlink:title=" ">
<path fill="none" stroke="#63b8ff" d="M214.26,-202.92C225.35,-194.67 237.23,-184.37 246,-173 264.55,-148.95 276.5,-114.96 282.16,-96.06"/>
<polygon fill="#63b8ff" stroke="#63b8ff" points="212.11,-200.16 206.01,-208.82 216.18,-205.86 212.11,-200.16"/>
</a>
</g>
</g>
<!-- Node19&#45;&gt;Node19 -->
<g id="edge24_Node000019_Node000019" class="edge">
<title>Node19&#45;&gt;Node19</title>
<g id="a_edge24_Node000019_Node000019"><a xlink:title=" ">
<path fill="none" stroke="#63b8ff" d="M272.16,-232.29C277.07,-230.27 280,-227.51 280,-224 280,-218.52 272.87,-214.86 262.16,-213.02"/>
<polygon fill="#63b8ff" stroke="#63b8ff" points="270.91,-229 262.16,-234.98 272.73,-235.76 270.91,-229"/>
</a>
</g>
</g>
<!-- Node22&#45;&gt;Node9 -->
<g id="edge30_Node000022_Node000009" class="edge">
<title>Node22&#45;&gt;Node9</title>
<g id="a_edge30_Node000022_Node000009"><a xlink:title=" ">
<path fill="none" stroke="#63b8ff" d="M633.2,-339.55C551.25,-327.62 452.72,-312 446,-305 429.24,-287.52 430.57,-257.13 433.19,-239.26"/>
<polygon fill="#63b8ff" stroke="#63b8ff" points="632.7,-343.01 643.1,-340.98 633.71,-336.09 632.7,-343.01"/>
</a>
</g>
</g>
<!-- Node23&#45;&gt;Node11 -->
<g id="edge32_Node000023_Node000011" class="edge">
<title>Node23&#45;&gt;Node11</title>
<g id="a_edge32_Node000023_Node000011"><a xlink:title=" ">
<path fill="none" stroke="#63b8ff" d="M199.34,-127.28C219.27,-116.87 241.87,-105.06 258.99,-96.11"/>
<polygon fill="#63b8ff" stroke="#63b8ff" points="197.64,-124.22 190.4,-131.96 200.89,-130.43 197.64,-124.22"/>
</a>
</g>
</g>
<!-- Node24&#45;&gt;Node11 -->
<g id="edge36_Node000024_Node000011" class="edge">
<title>Node24&#45;&gt;Node11</title>
<g id="a_edge36_Node000024_Node000011"><a xlink:title=" ">
<path fill="none" stroke="#63b8ff" d="M71.16,-463.97C57.3,-438.66 38,-396.37 38,-357 38,-357 38,-357 38,-223 38,-181.39 30.29,-161.13 60,-132 82.02,-110.4 158.89,-96.73 216.91,-89.24"/>
<polygon fill="#63b8ff" stroke="#63b8ff" points="68.19,-465.82 76.16,-472.79 74.28,-462.37 68.19,-465.82"/>
</a>
</g>
</g>
</g>
</svg>
