<?xml version="1.0" encoding="UTF-8" standalone="no"?>
<!DOCTYPE svg PUBLIC "-//W3C//DTD SVG 1.1//EN"
 "http://www.w3.org/Graphics/SVG/1.1/DTD/svg11.dtd">
<!-- Generated by graphviz version 2.43.0 (0)
 -->
<!-- Title: include/Thoth/Http/RequestError.hpp Pages: 1 -->
<svg width="1584pt" height="500pt"
 viewBox="0.00 0.00 1584.18 500.00" xmlns="http://www.w3.org/2000/svg" xmlns:xlink="http://www.w3.org/1999/xlink">
<g id="graph0" class="graph" transform="scale(1 1) rotate(0) translate(4 496)">
<title>include/Thoth/Http/RequestError.hpp</title>
<!-- Node1 -->
<g id="Node000001" class="node">
<title>Node1</title>
<g id="a_Node000001"><a xlink:title=" ">
<polygon fill="#999999" stroke="#666666" points="138.5,-492 31.5,-492 31.5,-462 138.5,-462 138.5,-492"/>
<text text-anchor="start" x="39.5" y="-480" font-family="Helvetica,sans-Serif" font-size="10.00">include/Thoth/Http</text>
<text text-anchor="middle" x="85" y="-469" font-family="Helvetica,sans-Serif" font-size="10.00">/RequestError.hpp</text>
</a>
</g>
</g>
<!-- Node2 -->
<g id="Node000002" class="node">
<title>Node2</title>
<g id="a_Node000002"><a xlink:href="_client_8hpp.html" target="_top" xlink:title=" ">
<polygon fill="white" stroke="#666666" points="370.5,-30 263.5,-30 263.5,0 370.5,0 370.5,-30"/>
<text text-anchor="start" x="271.5" y="-18" font-family="Helvetica,sans-Serif" font-size="10.00">include/Thoth/Http</text>
<text text-anchor="middle" x="317" y="-7" font-family="Helvetica,sans-Serif" font-size="10.00">/Client.hpp</text>
</a>
</g>
</g>
<!-- Node1&#45;&gt;Node2 -->
<g id="edge1_Node000001_Node000002" class="edge">
<title>Node1&#45;&gt;Node2</title>
<g id="a_edge1_Node000001_Node000002"><a xlink:title=" ">
<path fill="none" stroke="#63b8ff" d="M60.39,-455.24C35.28,-431.61 0,-390.48 0,-346 0,-346 0,-346 0,-146 0,-89.79 172.78,-45.72 263.23,-26.5"/>
<polygon fill="#63b8ff" stroke="#63b8ff" points="58.05,-457.85 67.8,-461.99 62.77,-452.67 58.05,-457.85"/>
</a>
</g>
</g>
<!-- Node3 -->
<g id="Node000003" class="node">
<title>Node3</title>
<g id="a_Node000003"><a xlink:href="_query_params_8hpp.html" target="_top" xlink:title=" ">
<polygon fill="white" stroke="#666666" points="572.5,-426 423.5,-426 423.5,-396 572.5,-396 572.5,-426"/>
<text text-anchor="start" x="431.5" y="-414" font-family="Helvetica,sans-Serif" font-size="10.00">include/Thoth/Http</text>
<text text-anchor="middle" x="498" y="-403" font-family="Helvetica,sans-Serif" font-size="10.00">/Request/QueryParams.hpp</text>
</a>
</g>
</g>
<!-- Node1&#45;&gt;Node3 -->
<g id="edge2_Node000001_Node000003" class="edge">
<title>Node1&#45;&gt;Node3</title>
<g id="a_edge2_Node000001_Node000003"><a xlink:title=" ">
<path fill="none" stroke="#63b8ff" d="M148.69,-466.13C222.71,-454.66 344.73,-435.75 423.2,-423.59"/>
<polygon fill="#63b8ff" stroke="#63b8ff" points="147.92,-462.71 138.57,-467.7 148.99,-469.63 147.92,-462.71"/>
</a>
</g>
</g>
<!-- Node17 -->
<g id="Node000017" class="node">
<title>Node17</title>
<g id="a_Node000017"><a xlink:href="_json_8hpp.html" target="_top" xlink:title=" ">
<polygon fill="white" stroke="#666666" points="141.5,-360 28.5,-360 28.5,-330 141.5,-330 141.5,-360"/>
<text text-anchor="start" x="36.5" y="-348" font-family="Helvetica,sans-Serif" font-size="10.00">include/Thoth/NJson</text>
<text text-anchor="middle" x="85" y="-337" font-family="Helvetica,sans-Serif" font-size="10.00">/Json.hpp</text>
</a>
</g>
</g>
<!-- Node1&#45;&gt;Node17 -->
<g id="edge22_Node000001_Node000017" class="edge">
<title>Node1&#45;&gt;Node17</title>
<g id="a_edge22_Node000001_Node000017"><a xlink:title=" ">
<path fill="none" stroke="#63b8ff" d="M85,-451.68C85,-424.7 85,-382.11 85,-360.14"/>
<polygon fill="#63b8ff" stroke="#63b8ff" points="81.5,-451.84 85,-461.84 88.5,-451.84 81.5,-451.84"/>
</a>
</g>
</g>
<!-- Node4 -->
<g id="Node000004" class="node">
<title>Node4</title>
<g id="a_Node000004"><a xlink:href="_url_8hpp.html" target="_top" xlink:title=" ">
<polygon fill="white" stroke="#666666" points="863.5,-360 756.5,-360 756.5,-330 863.5,-330 863.5,-360"/>
<text text-anchor="start" x="764.5" y="-348" font-family="Helvetica,sans-Serif" font-size="10.00">include/Thoth/Http</text>
<text text-anchor="middle" x="810" y="-337" font-family="Helvetica,sans-Serif" font-size="10.00">/Request/Url.hpp</text>
</a>
</g>
</g>
<!-- Node3&#45;&gt;Node4 -->
<g id="edge3_Node000003_Node000004" class="edge">
<title>Node3&#45;&gt;Node4</title>
<g id="a_edge3_Node000003_Node000004"><a xlink:title=" ">
<path fill="none" stroke="#63b8ff" d="M576.38,-393.92C632.5,-382.41 706.62,-367.21 756.17,-357.04"/>
<polygon fill="#63b8ff" stroke="#63b8ff" points="575.56,-390.52 566.47,-395.95 576.97,-397.37 575.56,-390.52"/>
</a>
</g>
</g>
<!-- Node5 -->
<g id="Node000005" class="node">
<title>Node5</title>
<g id="a_Node000005"><a xlink:href="_method_concept_8hpp.html" target="_top" xlink:title=" ">
<polygon fill="white" stroke="#666666" points="907,-294 713,-294 713,-264 907,-264 907,-294"/>
<text text-anchor="start" x="721" y="-282" font-family="Helvetica,sans-Serif" font-size="10.00">include/Thoth/Http</text>
<text text-anchor="middle" x="810" y="-271" font-family="Helvetica,sans-Serif" font-size="10.00">/Methods/_base/MethodConcept.hpp</text>
</a>
</g>
</g>
<!-- Node4&#45;&gt;Node5 -->
<g id="edge4_Node000004_Node000005" class="edge">
<title>Node4&#45;&gt;Node5</title>
<g id="a_edge4_Node000004_Node000005"><a xlink:title=" ">
<path fill="none" stroke="#63b8ff" d="M810,-319.54C810,-310.96 810,-301.61 810,-294.16"/>
<polygon fill="#63b8ff" stroke="#63b8ff" points="806.5,-319.8 810,-329.8 813.5,-319.8 806.5,-319.8"/>
</a>
</g>
</g>
<!-- Node9 -->
<g id="Node000009" class="node">
<title>Node9</title>
<g id="a_Node000009"><a xlink:href="_request_8hpp.html" target="_top" xlink:title=" ">
<polygon fill="white" stroke="#666666" points="491.5,-162 368.5,-162 368.5,-132 491.5,-132 491.5,-162"/>
<text text-anchor="start" x="376.5" y="-150" font-family="Helvetica,sans-Serif" font-size="10.00">include/Thoth/Http</text>
<text text-anchor="middle" x="430" y="-139" font-family="Helvetica,sans-Serif" font-size="10.00">/Request/Request.hpp</text>
</a>
</g>
</g>
<!-- Node4&#45;&gt;Node9 -->
<g id="edge21_Node000004_Node000009" class="edge">
<title>Node4&#45;&gt;Node9</title>
<g id="a_edge21_Node000004_Node000009"><a xlink:title=" ">
<path fill="none" stroke="#63b8ff" d="M873.56,-341.78C1072.38,-333.75 1663.55,-300.99 1565,-198 1527.65,-158.97 722.67,-150.12 491.54,-148.38"/>
<polygon fill="#63b8ff" stroke="#63b8ff" points="873.4,-338.29 863.55,-342.18 873.68,-345.28 873.4,-338.29"/>
</a>
</g>
</g>
<!-- Node6 -->
<g id="Node000006" class="node">
<title>Node6</title>
<g id="a_Node000006"><a xlink:href="_connect_method_8hpp.html" target="_top" xlink:title=" ">
<polygon fill="white" stroke="#666666" points="714,-228 552,-228 552,-198 714,-198 714,-228"/>
<text text-anchor="start" x="560" y="-216" font-family="Helvetica,sans-Serif" font-size="10.00">include/Thoth/Http</text>
<text text-anchor="middle" x="633" y="-205" font-family="Helvetica,sans-Serif" font-size="10.00">/Methods/ConnectMethod.hpp</text>
</a>
</g>
</g>
<!-- Node5&#45;&gt;Node6 -->
<g id="edge5_Node000005_Node000006" class="edge">
<title>Node5&#45;&gt;Node6</title>
<g id="a_edge5_Node000005_Node000006"><a xlink:title=" ">
<path fill="none" stroke="#63b8ff" d="M761.48,-260.46C733.24,-250.25 698.13,-237.55 671.75,-228.01"/>
<polygon fill="#63b8ff" stroke="#63b8ff" points="760.56,-263.85 771.16,-263.95 762.94,-257.26 760.56,-263.85"/>
</a>
</g>
</g>
<!-- Node7 -->
<g id="Node000007" class="node">
<title>Node7</title>
<g id="a_Node000007"><a xlink:href="_delete_method_8hpp.html" target="_top" xlink:title=" ">
<polygon fill="white" stroke="#666666" points="887.5,-228 732.5,-228 732.5,-198 887.5,-198 887.5,-228"/>
<text text-anchor="start" x="740.5" y="-216" font-family="Helvetica,sans-Serif" font-size="10.00">include/Thoth/Http</text>
<text text-anchor="middle" x="810" y="-205" font-family="Helvetica,sans-Serif" font-size="10.00">/Methods/DeleteMethod.hpp</text>
</a>
</g>
</g>
<!-- Node5&#45;&gt;Node7 -->
<g id="edge6_Node000005_Node000007" class="edge">
<title>Node5&#45;&gt;Node7</title>
<g id="a_edge6_Node000005_Node000007"><a xlink:title=" ">
<path fill="none" stroke="#63b8ff" d="M810,-253.54C810,-244.96 810,-235.61 810,-228.16"/>
<polygon fill="#63b8ff" stroke="#63b8ff" points="806.5,-253.8 810,-263.8 813.5,-253.8 806.5,-253.8"/>
</a>
</g>
</g>
<!-- Node8 -->
<g id="Node000008" class="node">
<title>Node8</title>
<g id="a_Node000008"><a xlink:href="_get_method_8hpp.html" target="_top" xlink:title=" ">
<polygon fill="white" stroke="#666666" points="372,-228 232,-228 232,-198 372,-198 372,-228"/>
<text text-anchor="start" x="240" y="-216" font-family="Helvetica,sans-Serif" font-size="10.00">include/Thoth/Http</text>
<text text-anchor="middle" x="302" y="-205" font-family="Helvetica,sans-Serif" font-size="10.00">/Methods/GetMethod.hpp</text>
</a>
</g>
</g>
<!-- Node5&#45;&gt;Node8 -->
<g id="edge7_Node000005_Node000008" class="edge">
<title>Node5&#45;&gt;Node8</title>
<g id="a_edge7_Node000005_Node000008"><a xlink:title=" ">
<path fill="none" stroke="#63b8ff" d="M702.79,-267.19C616.09,-258.03 490.95,-243.88 382,-228 378.79,-227.53 375.51,-227.04 372.2,-226.52"/>
<polygon fill="#63b8ff" stroke="#63b8ff" points="702.59,-270.68 712.9,-268.25 703.32,-263.72 702.59,-270.68"/>
</a>
</g>
</g>
<!-- Node11 -->
<g id="Node000011" class="node">
<title>Node11</title>
<g id="a_Node000011"><a xlink:href="_head_method_8hpp.html" target="_top" xlink:title=" ">
<polygon fill="white" stroke="#666666" points="1054,-228 906,-228 906,-198 1054,-198 1054,-228"/>
<text text-anchor="start" x="914" y="-216" font-family="Helvetica,sans-Serif" font-size="10.00">include/Thoth/Http</text>
<text text-anchor="middle" x="980" y="-205" font-family="Helvetica,sans-Serif" font-size="10.00">/Methods/HeadMethod.hpp</text>
</a>
</g>
</g>
<!-- Node5&#45;&gt;Node11 -->
<g id="edge13_Node000005_Node000011" class="edge">
<title>Node5&#45;&gt;Node11</title>
<g id="a_edge13_Node000005_Node000011"><a xlink:title=" ">
<path fill="none" stroke="#63b8ff" d="M856.96,-260.32C884.01,-250.14 917.55,-237.51 942.78,-228.01"/>
<polygon fill="#63b8ff" stroke="#63b8ff" points="855.43,-257.16 847.31,-263.95 857.9,-263.71 855.43,-257.16"/>
</a>
</g>
</g>
<!-- Node12 -->
<g id="Node000012" class="node">
<title>Node12</title>
<g id="a_Node000012"><a xlink:href="_options_method_8hpp.html" target="_top" xlink:title=" ">
<polygon fill="white" stroke="#666666" points="1232,-228 1072,-228 1072,-198 1232,-198 1232,-228"/>
<text text-anchor="start" x="1080" y="-216" font-family="Helvetica,sans-Serif" font-size="10.00">include/Thoth/Http</text>
<text text-anchor="middle" x="1152" y="-205" font-family="Helvetica,sans-Serif" font-size="10.00">/Methods/OptionsMethod.hpp</text>
</a>
</g>
</g>
<!-- Node5&#45;&gt;Node12 -->
<g id="edge14_Node000005_Node000012" class="edge">
<title>Node5&#45;&gt;Node12</title>
<g id="a_edge14_Node000005_Node000012"><a xlink:title=" ">
<path fill="none" stroke="#63b8ff" d="M894.94,-262.11C950.85,-251.64 1023.37,-238.07 1077.12,-228.01"/>
<polygon fill="#63b8ff" stroke="#63b8ff" points="894.24,-258.68 885.05,-263.95 895.53,-265.56 894.24,-258.68"/>
</a>
</g>
</g>
<!-- Node13 -->
<g id="Node000013" class="node">
<title>Node13</title>
<g id="a_Node000013"><a xlink:href="_patch_method_8hpp.html" target="_top" xlink:title=" ">
<polygon fill="white" stroke="#666666" points="1399.5,-228 1250.5,-228 1250.5,-198 1399.5,-198 1399.5,-228"/>
<text text-anchor="start" x="1258.5" y="-216" font-family="Helvetica,sans-Serif" font-size="10.00">include/Thoth/Http</text>
<text text-anchor="middle" x="1325" y="-205" font-family="Helvetica,sans-Serif" font-size="10.00">/Methods/PatchMethod.hpp</text>
</a>
</g>
</g>
<!-- Node5&#45;&gt;Node13 -->
<g id="edge15_Node000005_Node000013" class="edge">
<title>Node5&#45;&gt;Node13</title>
<g id="a_edge15_Node000005_Node000013"><a xlink:title=" ">
<path fill="none" stroke="#63b8ff" d="M917.5,-267.03C1004.81,-257.75 1131.05,-243.53 1241,-228 1244.07,-227.57 1247.21,-227.11 1250.37,-226.64"/>
<polygon fill="#63b8ff" stroke="#63b8ff" points="916.89,-263.57 907.32,-268.1 917.63,-270.53 916.89,-263.57"/>
</a>
</g>
</g>
<!-- Node14 -->
<g id="Node000014" class="node">
<title>Node14</title>
<g id="a_Node000014"><a xlink:href="_post_method_8hpp.html" target="_top" xlink:title=" ">
<polygon fill="white" stroke="#666666" points="533.5,-228 390.5,-228 390.5,-198 533.5,-198 533.5,-228"/>
<text text-anchor="start" x="398.5" y="-216" font-family="Helvetica,sans-Serif" font-size="10.00">include/Thoth/Http</text>
<text text-anchor="middle" x="462" y="-205" font-family="Helvetica,sans-Serif" font-size="10.00">/Methods/PostMethod.hpp</text>
</a>
</g>
</g>
<!-- Node5&#45;&gt;Node14 -->
<g id="edge16_Node000005_Node000014" class="edge">
<title>Node5&#45;&gt;Node14</title>
<g id="a_edge16_Node000005_Node000014"><a xlink:title=" ">
<path fill="none" stroke="#63b8ff" d="M723.67,-262.12C665.2,-251.37 588.86,-237.33 533.74,-227.19"/>
<polygon fill="#63b8ff" stroke="#63b8ff" points="723.16,-265.59 733.63,-263.95 724.43,-258.7 723.16,-265.59"/>
</a>
</g>
</g>
<!-- Node15 -->
<g id="Node000015" class="node">
<title>Node15</title>
<g id="a_Node000015"><a xlink:href="_put_method_8hpp.html" target="_top" xlink:title=" ">
<polygon fill="white" stroke="#666666" points="1556,-228 1418,-228 1418,-198 1556,-198 1556,-228"/>
<text text-anchor="start" x="1426" y="-216" font-family="Helvetica,sans-Serif" font-size="10.00">include/Thoth/Http</text>
<text text-anchor="middle" x="1487" y="-205" font-family="Helvetica,sans-Serif" font-size="10.00">/Methods/PutMethod.hpp</text>
</a>
</g>
</g>
<!-- Node5&#45;&gt;Node15 -->
<g id="edge19_Node000005_Node000015" class="edge">
<title>Node5&#45;&gt;Node15</title>
<g id="a_edge19_Node000005_Node000015"><a xlink:title=" ">
<path fill="none" stroke="#63b8ff" d="M917.34,-272.1C1037.46,-264.79 1237.71,-250.47 1409,-228 1411.86,-227.62 1414.78,-227.22 1417.73,-226.78"/>
<polygon fill="#63b8ff" stroke="#63b8ff" points="916.81,-268.63 907.04,-272.72 917.24,-275.61 916.81,-268.63"/>
</a>
</g>
</g>
<!-- Node16 -->
<g id="Node000016" class="node">
<title>Node16</title>
<g id="a_Node000016"><a xlink:href="_trace_method_8hpp.html" target="_top" xlink:title=" ">
<polygon fill="white" stroke="#666666" points="214,-228 66,-228 66,-198 214,-198 214,-228"/>
<text text-anchor="start" x="74" y="-216" font-family="Helvetica,sans-Serif" font-size="10.00">include/Thoth/Http</text>
<text text-anchor="middle" x="140" y="-205" font-family="Helvetica,sans-Serif" font-size="10.00">/Methods/TraceMethod.hpp</text>
</a>
</g>
</g>
<!-- Node5&#45;&gt;Node16 -->
<g id="edge20_Node000005_Node000016" class="edge">
<title>Node5&#45;&gt;Node16</title>
<g id="a_edge20_Node000005_Node000016"><a xlink:title=" ">
<path fill="none" stroke="#63b8ff" d="M702.78,-271.52C584.88,-263.78 389.99,-249.16 223,-228 220.1,-227.63 217.15,-227.24 214.17,-226.82"/>
<polygon fill="#63b8ff" stroke="#63b8ff" points="702.68,-275.02 712.89,-272.18 703.13,-268.04 702.68,-275.02"/>
</a>
</g>
</g>
<!-- Node8&#45;&gt;Node9 -->
<g id="edge8_Node000008_Node000009" class="edge">
<title>Node8&#45;&gt;Node9</title>
<g id="a_edge8_Node000008_Node000009"><a xlink:title=" ">
<path fill="none" stroke="#63b8ff" d="M339.24,-193.38C359.27,-183.36 383.57,-171.22 401.98,-162.01"/>
<polygon fill="#63b8ff" stroke="#63b8ff" points="337.47,-190.35 330.09,-197.95 340.6,-196.61 337.47,-190.35"/>
</a>
</g>
</g>
<!-- Node10 -->
<g id="Node000010" class="node">
<title>Node10</title>
<g id="a_Node000010"><a xlink:href="_response_8hpp.html" target="_top" xlink:title=" ">
<polygon fill="white" stroke="#666666" points="386,-96 248,-96 248,-66 386,-66 386,-96"/>
<text text-anchor="start" x="256" y="-84" font-family="Helvetica,sans-Serif" font-size="10.00">include/Thoth/Http</text>
<text text-anchor="middle" x="317" y="-73" font-family="Helvetica,sans-Serif" font-size="10.00">/Response/Response.hpp</text>
</a>
</g>
</g>
<!-- Node8&#45;&gt;Node10 -->
<g id="edge12_Node000008_Node000010" class="edge">
<title>Node8&#45;&gt;Node10</title>
<g id="a_edge12_Node000008_Node000010"><a xlink:title=" ">
<path fill="none" stroke="#63b8ff" d="M304.81,-187.68C307.92,-160.7 312.83,-118.11 315.37,-96.14"/>
<polygon fill="#63b8ff" stroke="#63b8ff" points="301.3,-187.5 303.63,-197.84 308.26,-188.31 301.3,-187.5"/>
</a>
</g>
</g>
<!-- Node9&#45;&gt;Node2 -->
<g id="edge9_Node000009_Node000002" class="edge">
<title>Node9&#45;&gt;Node2</title>
<g id="a_edge9_Node000009_Node000002"><a xlink:title=" ">
<path fill="none" stroke="#63b8ff" d="M423.63,-122.14C418.17,-105.07 408.94,-82.33 395,-66 382.05,-50.83 363.35,-38.62 347.5,-30.07"/>
<polygon fill="#63b8ff" stroke="#63b8ff" points="420.34,-123.34 426.55,-131.92 427.04,-121.34 420.34,-123.34"/>
</a>
</g>
</g>
<!-- Node9&#45;&gt;Node10 -->
<g id="edge10_Node000009_Node000010" class="edge">
<title>Node9&#45;&gt;Node10</title>
<g id="a_edge10_Node000009_Node000010"><a xlink:title=" ">
<path fill="none" stroke="#63b8ff" d="M396.4,-126.97C378.86,-117.03 357.77,-105.09 341.74,-96.01"/>
<polygon fill="#63b8ff" stroke="#63b8ff" points="394.78,-130.07 405.2,-131.95 398.23,-123.98 394.78,-130.07"/>
</a>
</g>
</g>
<!-- Node10&#45;&gt;Node2 -->
<g id="edge11_Node000010_Node000002" class="edge">
<title>Node10&#45;&gt;Node2</title>
<g id="a_edge11_Node000010_Node000002"><a xlink:title=" ">
<path fill="none" stroke="#63b8ff" d="M317,-55.54C317,-46.96 317,-37.61 317,-30.16"/>
<polygon fill="#63b8ff" stroke="#63b8ff" points="313.5,-55.8 317,-65.8 320.5,-55.8 313.5,-55.8"/>
</a>
</g>
</g>
<!-- Node14&#45;&gt;Node9 -->
<g id="edge17_Node000014_Node000009" class="edge">
<title>Node14&#45;&gt;Node9</title>
<g id="a_edge17_Node000014_Node000009"><a xlink:title=" ">
<path fill="none" stroke="#63b8ff" d="M450.34,-188.68C445.9,-179.79 440.97,-169.95 437.08,-162.16"/>
<polygon fill="#63b8ff" stroke="#63b8ff" points="447.3,-190.42 454.9,-197.8 453.56,-187.29 447.3,-190.42"/>
</a>
</g>
</g>
<!-- Node14&#45;&gt;Node10 -->
<g id="edge18_Node000014_Node000010" class="edge">
<title>Node14&#45;&gt;Node10</title>
<g id="a_edge18_Node000014_Node000010"><a xlink:title=" ">
<path fill="none" stroke="#63b8ff" d="M409.68,-193.87C392.4,-186.03 374.02,-175.51 360,-162 340.47,-143.18 327.77,-113.54 321.54,-96.11"/>
<polygon fill="#63b8ff" stroke="#63b8ff" points="408.57,-197.2 419.14,-197.94 411.34,-190.77 408.57,-197.2"/>
</a>
</g>
</g>
<!-- Node17&#45;&gt;Node10 -->
<g id="edge23_Node000017_Node000010" class="edge">
<title>Node17&#45;&gt;Node10</title>
<g id="a_edge23_Node000017_Node000010"><a xlink:title=" ">
<path fill="none" stroke="#63b8ff" d="M71,-320.81C54.54,-290.24 32.41,-235.9 57,-198 98.9,-133.42 186.06,-104.48 247.89,-91.72"/>
<polygon fill="#63b8ff" stroke="#63b8ff" points="68.12,-322.84 76.07,-329.85 74.23,-319.42 68.12,-322.84"/>
</a>
</g>
</g>
</g>
</svg>
