<?xml version="1.0" encoding="UTF-8" standalone="no"?>
<!DOCTYPE svg PUBLIC "-//W3C//DTD SVG 1.1//EN"
 "http://www.w3.org/Graphics/SVG/1.1/DTD/svg11.dtd">
<!-- Generated by graphviz version 2.43.0 (0)
 -->
<!-- Title: include/Thoth/Http/Request/Request.hpp Pages: 1 -->
<svg width="1119pt" height="423pt"
 viewBox="0.00 0.00 1119.08 423.00" xmlns="http://www.w3.org/2000/svg" xmlns:xlink="http://www.w3.org/1999/xlink">
<g id="graph0" class="graph" transform="scale(1 1) rotate(0) translate(4 419)">
<title>include/Thoth/Http/Request/Request.hpp</title>
<!-- Node1 -->
<g id="Node000001" class="node">
<title>Node1</title>
<g id="a_Node000001"><a xlink:title=" ">
<polygon fill="#999999" stroke="#666666" points="750,-415 627,-415 627,-385 750,-385 750,-415"/>
<text text-anchor="start" x="635" y="-403" font-family="Helvetica,sans-Serif" font-size="10.00">include/Thoth/Http</text>
<text text-anchor="middle" x="688.5" y="-392" font-family="Helvetica,sans-Serif" font-size="10.00">/Request/Request.hpp</text>
</a>
</g>
</g>
<!-- Node2 -->
<g id="Node000002" class="node">
<title>Node2</title>
<g id="a_Node000002"><a xlink:title=" ">
<polygon fill="#e0e0e0" stroke="#999999" points="575,-343.5 400,-343.5 400,-324.5 575,-324.5 575,-343.5"/>
<text text-anchor="middle" x="487.5" y="-331.5" font-family="Helvetica,sans-Serif" font-size="10.00">Hermes/Socket/ClientSocket.hpp</text>
</a>
</g>
</g>
<!-- Node1&#45;&gt;Node2 -->
<g id="edge1_Node000001_Node000002" class="edge">
<title>Node1&#45;&gt;Node2</title>
<g id="a_edge1_Node000001_Node000002"><a xlink:title=" ">
<path fill="none" stroke="#63b8ff" d="M644.39,-384.95C608.36,-373.48 558.04,-357.46 524.19,-346.68"/>
<polygon fill="#63b8ff" stroke="#63b8ff" points="524.84,-343.22 514.25,-343.52 522.72,-349.89 524.84,-343.22"/>
</a>
</g>
</g>
<!-- Node3 -->
<g id="Node000003" class="node">
<title>Node3</title>
<g id="a_Node000003"><a xlink:href="_url_8hpp.html" target="_top" xlink:title=" ">
<polygon fill="white" stroke="#666666" points="625,-217 514,-217 514,-187 625,-187 625,-217"/>
<text text-anchor="start" x="522" y="-205" font-family="Helvetica,sans-Serif" font-size="10.00">Thoth/Http/Request</text>
<text text-anchor="middle" x="569.5" y="-194" font-family="Helvetica,sans-Serif" font-size="10.00">/Url.hpp</text>
</a>
</g>
</g>
<!-- Node1&#45;&gt;Node3 -->
<g id="edge2_Node000001_Node000003" class="edge">
<title>Node1&#45;&gt;Node3</title>
<g id="a_edge2_Node000001_Node000003"><a xlink:title=" ">
<path fill="none" stroke="#63b8ff" d="M663.37,-384.9C649.66,-376.11 633.33,-363.69 622.5,-349 594.73,-311.34 580.25,-257.64 573.81,-226.96"/>
<polygon fill="#63b8ff" stroke="#63b8ff" points="577.24,-226.26 571.86,-217.13 570.37,-227.62 577.24,-226.26"/>
</a>
</g>
</g>
<!-- Node18 -->
<g id="Node000018" class="node">
<title>Node18</title>
<g id="a_Node000018"><a xlink:href="_get_method_8hpp.html" target="_top" xlink:title=" ">
<polygon fill="white" stroke="#666666" points="876,-349 763,-349 763,-319 876,-319 876,-349"/>
<text text-anchor="start" x="771" y="-337" font-family="Helvetica,sans-Serif" font-size="10.00">Thoth/Http/Methods</text>
<text text-anchor="middle" x="819.5" y="-326" font-family="Helvetica,sans-Serif" font-size="10.00">/GetMethod.hpp</text>
</a>
</g>
</g>
<!-- Node1&#45;&gt;Node18 -->
<g id="edge19_Node000001_Node000018" class="edge">
<title>Node1&#45;&gt;Node18</title>
<g id="a_edge19_Node000001_Node000018"><a xlink:title=" ">
<path fill="none" stroke="#63b8ff" d="M717.25,-384.95C736.19,-375.7 761.19,-363.49 781.73,-353.45"/>
<polygon fill="#63b8ff" stroke="#63b8ff" points="783.37,-356.55 790.82,-349.01 780.3,-350.26 783.37,-356.55"/>
</a>
</g>
</g>
<!-- Node25 -->
<g id="Node000025" class="node">
<title>Node25</title>
<g id="a_Node000025"><a xlink:href="_post_method_8hpp.html" target="_top" xlink:title=" ">
<polygon fill="white" stroke="#666666" points="745,-349 632,-349 632,-319 745,-319 745,-349"/>
<text text-anchor="start" x="640" y="-337" font-family="Helvetica,sans-Serif" font-size="10.00">Thoth/Http/Methods</text>
<text text-anchor="middle" x="688.5" y="-326" font-family="Helvetica,sans-Serif" font-size="10.00">/PostMethod.hpp</text>
</a>
</g>
</g>
<!-- Node1&#45;&gt;Node25 -->
<g id="edge34_Node000001_Node000025" class="edge">
<title>Node1&#45;&gt;Node25</title>
<g id="a_edge34_Node000001_Node000025"><a xlink:title=" ">
<path fill="none" stroke="#63b8ff" d="M688.5,-384.8C688.5,-377.34 688.5,-367.99 688.5,-359.41"/>
<polygon fill="#63b8ff" stroke="#63b8ff" points="692,-359.16 688.5,-349.16 685,-359.16 692,-359.16"/>
</a>
</g>
</g>
<!-- Node26 -->
<g id="Node000026" class="node">
<title>Node26</title>
<g id="a_Node000026"><a xlink:title=" ">
<polygon fill="#e0e0e0" stroke="#999999" points="1005,-349 894,-349 894,-319 1005,-319 1005,-349"/>
<text text-anchor="start" x="902" y="-337" font-family="Helvetica,sans-Serif" font-size="10.00">Thoth/Http/Request</text>
<text text-anchor="middle" x="949.5" y="-326" font-family="Helvetica,sans-Serif" font-size="10.00">/Request.tpp</text>
</a>
</g>
</g>
<!-- Node1&#45;&gt;Node26 -->
<g id="edge36_Node000001_Node000026" class="edge">
<title>Node1&#45;&gt;Node26</title>
<g id="a_edge36_Node000001_Node000026"><a xlink:title=" ">
<path fill="none" stroke="#63b8ff" d="M745.78,-384.95C786.48,-374.97 841.24,-361.55 883.73,-351.13"/>
<polygon fill="#63b8ff" stroke="#63b8ff" points="884.82,-354.46 893.7,-348.68 883.15,-347.67 884.82,-354.46"/>
</a>
</g>
</g>
<!-- Node4 -->
<g id="Node000004" class="node">
<title>Node4</title>
<g id="a_Node000004"><a xlink:title=" ">
<polygon fill="#e0e0e0" stroke="#999999" points="1057.5,-79.5 995.5,-79.5 995.5,-60.5 1057.5,-60.5 1057.5,-79.5"/>
<text text-anchor="middle" x="1026.5" y="-67.5" font-family="Helvetica,sans-Serif" font-size="10.00">expected</text>
</a>
</g>
</g>
<!-- Node3&#45;&gt;Node4 -->
<g id="edge3_Node000003_Node000004" class="edge">
<title>Node3&#45;&gt;Node4</title>
<g id="a_edge3_Node000003_Node000004"><a xlink:title=" ">
<path fill="none" stroke="#63b8ff" d="M581.8,-186.85C598.93,-168.21 631.89,-136.04 667.5,-121 796.08,-66.67 842.76,-113.03 979.5,-85 983.22,-84.24 987.07,-83.31 990.9,-82.31"/>
<polygon fill="#63b8ff" stroke="#63b8ff" points="992.16,-85.59 1000.85,-79.52 990.27,-78.85 992.16,-85.59"/>
</a>
</g>
</g>
<!-- Node5 -->
<g id="Node000005" class="node">
<title>Node5</title>
<g id="a_Node000005"><a xlink:title=" ">
<polygon fill="#e0e0e0" stroke="#999999" points="514.5,-79.5 470.5,-79.5 470.5,-60.5 514.5,-60.5 514.5,-79.5"/>
<text text-anchor="middle" x="492.5" y="-67.5" font-family="Helvetica,sans-Serif" font-size="10.00">string</text>
</a>
</g>
</g>
<!-- Node3&#45;&gt;Node5 -->
<g id="edge4_Node000003_Node000005" class="edge">
<title>Node3&#45;&gt;Node5</title>
<g id="a_edge4_Node000003_Node000005"><a xlink:title=" ">
<path fill="none" stroke="#63b8ff" d="M513.86,-188.63C493.84,-181.2 473.29,-169.46 461.5,-151 448.66,-130.91 464,-104.66 477.3,-87.81"/>
<polygon fill="#63b8ff" stroke="#63b8ff" points="480.16,-89.85 483.91,-79.94 474.8,-85.35 480.16,-89.85"/>
</a>
</g>
</g>
<!-- Node6 -->
<g id="Node000006" class="node">
<title>Node6</title>
<g id="a_Node000006"><a xlink:href="_query_params_8hpp.html" target="_top" xlink:title=" ">
<polygon fill="white" stroke="#666666" points="414,-151 303,-151 303,-121 414,-121 414,-151"/>
<text text-anchor="start" x="311" y="-139" font-family="Helvetica,sans-Serif" font-size="10.00">Thoth/Http/Request</text>
<text text-anchor="middle" x="358.5" y="-128" font-family="Helvetica,sans-Serif" font-size="10.00">/QueryParams.hpp</text>
</a>
</g>
</g>
<!-- Node3&#45;&gt;Node6 -->
<g id="edge5_Node000003_Node000006" class="edge">
<title>Node3&#45;&gt;Node6</title>
<g id="a_edge5_Node000003_Node000006"><a xlink:title=" ">
<path fill="none" stroke="#63b8ff" d="M523.2,-186.95C491.18,-177.24 448.4,-164.27 414.47,-153.98"/>
<polygon fill="#63b8ff" stroke="#63b8ff" points="415.28,-150.57 404.7,-151.01 413.25,-157.26 415.28,-150.57"/>
</a>
</g>
</g>
<!-- Node17 -->
<g id="Node000017" class="node">
<title>Node17</title>
<g id="a_Node000017"><a xlink:title=" ">
<polygon fill="#e0e0e0" stroke="#999999" points="582,-151 471,-151 471,-121 582,-121 582,-151"/>
<text text-anchor="start" x="479" y="-139" font-family="Helvetica,sans-Serif" font-size="10.00">Thoth/Http/Request</text>
<text text-anchor="middle" x="526.5" y="-128" font-family="Helvetica,sans-Serif" font-size="10.00">/Url.tpp</text>
</a>
</g>
</g>
<!-- Node3&#45;&gt;Node17 -->
<g id="edge18_Node000003_Node000017" class="edge">
<title>Node3&#45;&gt;Node17</title>
<g id="a_edge18_Node000003_Node000017"><a xlink:title=" ">
<path fill="none" stroke="#63b8ff" d="M559.96,-186.8C554.61,-178.84 547.82,-168.74 541.76,-159.71"/>
<polygon fill="#63b8ff" stroke="#63b8ff" points="544.5,-157.51 536.02,-151.16 538.69,-161.42 544.5,-157.51"/>
</a>
</g>
</g>
<!-- Node6&#45;&gt;Node5 -->
<g id="edge9_Node000006_Node000005" class="edge">
<title>Node6&#45;&gt;Node5</title>
<g id="a_edge9_Node000006_Node000005"><a xlink:title=" ">
<path fill="none" stroke="#63b8ff" d="M387.91,-120.95C410.99,-109.93 442.88,-94.7 465.36,-83.96"/>
<polygon fill="#63b8ff" stroke="#63b8ff" points="467.15,-86.99 474.67,-79.52 464.13,-80.67 467.15,-86.99"/>
</a>
</g>
</g>
<!-- Node7 -->
<g id="Node000007" class="node">
<title>Node7</title>
<g id="a_Node000007"><a xlink:title=" ">
<polygon fill="#e0e0e0" stroke="#999999" points="970.5,-79.5 914.5,-79.5 914.5,-60.5 970.5,-60.5 970.5,-79.5"/>
<text text-anchor="middle" x="942.5" y="-67.5" font-family="Helvetica,sans-Serif" font-size="10.00">optional</text>
</a>
</g>
</g>
<!-- Node6&#45;&gt;Node7 -->
<g id="edge6_Node000006_Node000007" class="edge">
<title>Node6&#45;&gt;Node7</title>
<g id="a_edge6_Node000006_Node000007"><a xlink:title=" ">
<path fill="none" stroke="#63b8ff" d="M414.05,-127.12C429.41,-125.03 446.09,-122.85 461.5,-121 625.84,-101.29 822.33,-82.29 903.98,-74.59"/>
<polygon fill="#63b8ff" stroke="#63b8ff" points="904.64,-78.04 914.27,-73.62 903.99,-71.07 904.64,-78.04"/>
</a>
</g>
</g>
<!-- Node8 -->
<g id="Node000008" class="node">
<title>Node8</title>
<g id="a_Node000008"><a xlink:title=" ">
<polygon fill="#e0e0e0" stroke="#999999" points="739.5,-79.5 689.5,-79.5 689.5,-60.5 739.5,-60.5 739.5,-79.5"/>
<text text-anchor="middle" x="714.5" y="-67.5" font-family="Helvetica,sans-Serif" font-size="10.00">format</text>
</a>
</g>
</g>
<!-- Node6&#45;&gt;Node8 -->
<g id="edge7_Node000006_Node000008" class="edge">
<title>Node6&#45;&gt;Node8</title>
<g id="a_edge7_Node000006_Node000008"><a xlink:title=" ">
<path fill="none" stroke="#63b8ff" d="M414.12,-125C488.25,-111.67 617.27,-88.48 679.26,-77.33"/>
<polygon fill="#63b8ff" stroke="#63b8ff" points="680.1,-80.74 689.32,-75.53 678.86,-73.85 680.1,-80.74"/>
</a>
</g>
</g>
<!-- Node9 -->
<g id="Node000009" class="node">
<title>Node9</title>
<g id="a_Node000009"><a xlink:title=" ">
<polygon fill="#e0e0e0" stroke="#999999" points="506,-19 459,-19 459,0 506,0 506,-19"/>
<text text-anchor="middle" x="482.5" y="-7" font-family="Helvetica,sans-Serif" font-size="10.00">vector</text>
</a>
</g>
</g>
<!-- Node6&#45;&gt;Node9 -->
<g id="edge8_Node000006_Node000009" class="edge">
<title>Node6&#45;&gt;Node9</title>
<g id="a_edge8_Node000006_Node000009"><a xlink:title=" ">
<path fill="none" stroke="#63b8ff" d="M379.08,-120.79C392.14,-111.34 409.04,-98.26 422.5,-85 440.89,-66.88 459.08,-43.29 470.52,-27.56"/>
<polygon fill="#63b8ff" stroke="#63b8ff" points="473.45,-29.47 476.43,-19.3 467.76,-25.39 473.45,-29.47"/>
</a>
</g>
</g>
<!-- Node10 -->
<g id="Node000010" class="node">
<title>Node10</title>
<g id="a_Node000010"><a xlink:href="_linear_map_8hpp.html" target="_top" xlink:title=" ">
<polygon fill="white" stroke="#666666" points="285,-79.5 144,-79.5 144,-60.5 285,-60.5 285,-79.5"/>
<text text-anchor="middle" x="214.5" y="-67.5" font-family="Helvetica,sans-Serif" font-size="10.00">Thoth/Dsa/LinearMap.hpp</text>
</a>
</g>
</g>
<!-- Node6&#45;&gt;Node10 -->
<g id="edge10_Node000006_Node000010" class="edge">
<title>Node6&#45;&gt;Node10</title>
<g id="a_edge10_Node000006_Node000010"><a xlink:title=" ">
<path fill="none" stroke="#63b8ff" d="M326.9,-120.95C301.87,-109.83 267.2,-94.42 243.01,-83.67"/>
<polygon fill="#63b8ff" stroke="#63b8ff" points="244.22,-80.38 233.66,-79.52 241.38,-86.78 244.22,-80.38"/>
</a>
</g>
</g>
<!-- Node16 -->
<g id="Node000016" class="node">
<title>Node16</title>
<g id="a_Node000016"><a xlink:title=" ">
<polygon fill="#e0e0e0" stroke="#999999" points="414,-85 303,-85 303,-55 414,-55 414,-85"/>
<text text-anchor="start" x="311" y="-73" font-family="Helvetica,sans-Serif" font-size="10.00">Thoth/Http/Request</text>
<text text-anchor="middle" x="358.5" y="-62" font-family="Helvetica,sans-Serif" font-size="10.00">/QueryParams.tpp</text>
</a>
</g>
</g>
<!-- Node6&#45;&gt;Node16 -->
<g id="edge17_Node000006_Node000016" class="edge">
<title>Node6&#45;&gt;Node16</title>
<g id="a_edge17_Node000006_Node000016"><a xlink:title=" ">
<path fill="none" stroke="#63b8ff" d="M358.5,-120.8C358.5,-113.34 358.5,-103.99 358.5,-95.41"/>
<polygon fill="#63b8ff" stroke="#63b8ff" points="362,-95.16 358.5,-85.16 355,-95.16 362,-95.16"/>
</a>
</g>
</g>
<!-- Node10&#45;&gt;Node9 -->
<g id="edge11_Node000010_Node000009" class="edge">
<title>Node10&#45;&gt;Node9</title>
<g id="a_edge11_Node000010_Node000009"><a xlink:title=" ">
<path fill="none" stroke="#63b8ff" d="M257.5,-60.42C302.69,-51.28 376.06,-36.08 448.93,-19.05"/>
<polygon fill="#63b8ff" stroke="#63b8ff" points="449.8,-22.44 458.74,-16.75 448.2,-15.63 449.8,-22.44"/>
</a>
</g>
</g>
<!-- Node11 -->
<g id="Node000011" class="node">
<title>Node11</title>
<g id="a_Node000011"><a xlink:title=" ">
<polygon fill="#e0e0e0" stroke="#999999" points="45,-19 0,-19 0,0 45,0 45,-19"/>
<text text-anchor="middle" x="22.5" y="-7" font-family="Helvetica,sans-Serif" font-size="10.00">utility</text>
</a>
</g>
</g>
<!-- Node10&#45;&gt;Node11 -->
<g id="edge12_Node000010_Node000011" class="edge">
<title>Node10&#45;&gt;Node11</title>
<g id="a_edge12_Node000010_Node000011"><a xlink:title=" ">
<path fill="none" stroke="#63b8ff" d="M186.58,-60.49C151.6,-49.83 91.76,-31.6 54.82,-20.35"/>
<polygon fill="#63b8ff" stroke="#63b8ff" points="55.64,-16.94 45.05,-17.37 53.6,-23.63 55.64,-16.94"/>
</a>
</g>
</g>
<!-- Node12 -->
<g id="Node000012" class="node">
<title>Node12</title>
<g id="a_Node000012"><a xlink:title=" ">
<polygon fill="#e0e0e0" stroke="#999999" points="123.5,-19 63.5,-19 63.5,0 123.5,0 123.5,-19"/>
<text text-anchor="middle" x="93.5" y="-7" font-family="Helvetica,sans-Serif" font-size="10.00">concepts</text>
</a>
</g>
</g>
<!-- Node10&#45;&gt;Node12 -->
<g id="edge13_Node000010_Node000012" class="edge">
<title>Node10&#45;&gt;Node12</title>
<g id="a_edge13_Node000010_Node000012"><a xlink:title=" ">
<path fill="none" stroke="#63b8ff" d="M196.91,-60.49C176.74,-50.75 143.48,-34.66 120.14,-23.38"/>
<polygon fill="#63b8ff" stroke="#63b8ff" points="121.64,-20.22 111.12,-19.02 118.6,-26.52 121.64,-20.22"/>
</a>
</g>
</g>
<!-- Node13 -->
<g id="Node000013" class="node">
<title>Node13</title>
<g id="a_Node000013"><a xlink:title=" ">
<polygon fill="#e0e0e0" stroke="#999999" points="207,-19 142,-19 142,0 207,0 207,-19"/>
<text text-anchor="middle" x="174.5" y="-7" font-family="Helvetica,sans-Serif" font-size="10.00">functional</text>
</a>
</g>
</g>
<!-- Node10&#45;&gt;Node13 -->
<g id="edge14_Node000010_Node000013" class="edge">
<title>Node10&#45;&gt;Node13</title>
<g id="a_edge14_Node000010_Node000013"><a xlink:title=" ">
<path fill="none" stroke="#63b8ff" d="M208.6,-60.37C202.75,-51.81 193.63,-38.47 186.29,-27.74"/>
<polygon fill="#63b8ff" stroke="#63b8ff" points="188.96,-25.45 180.43,-19.17 183.18,-29.4 188.96,-25.45"/>
</a>
</g>
</g>
<!-- Node14 -->
<g id="Node000014" class="node">
<title>Node14</title>
<g id="a_Node000014"><a xlink:title=" ">
<polygon fill="#e0e0e0" stroke="#999999" points="284,-19 225,-19 225,0 284,0 284,-19"/>
<text text-anchor="middle" x="254.5" y="-7" font-family="Helvetica,sans-Serif" font-size="10.00">compare</text>
</a>
</g>
</g>
<!-- Node10&#45;&gt;Node14 -->
<g id="edge15_Node000010_Node000014" class="edge">
<title>Node10&#45;&gt;Node14</title>
<g id="a_edge15_Node000010_Node000014"><a xlink:title=" ">
<path fill="none" stroke="#63b8ff" d="M220.4,-60.37C226.25,-51.81 235.37,-38.47 242.71,-27.74"/>
<polygon fill="#63b8ff" stroke="#63b8ff" points="245.82,-29.4 248.57,-19.17 240.04,-25.45 245.82,-29.4"/>
</a>
</g>
</g>
<!-- Node15 -->
<g id="Node000015" class="node">
<title>Node15</title>
<g id="a_Node000015"><a xlink:title=" ">
<polygon fill="#e0e0e0" stroke="#999999" points="441,-19 302,-19 302,0 441,0 441,-19"/>
<text text-anchor="middle" x="371.5" y="-7" font-family="Helvetica,sans-Serif" font-size="10.00">Thoth/Dsa/LinearMap.tpp</text>
</a>
</g>
</g>
<!-- Node10&#45;&gt;Node15 -->
<g id="edge16_Node000010_Node000015" class="edge">
<title>Node10&#45;&gt;Node15</title>
<g id="a_edge16_Node000010_Node000015"><a xlink:title=" ">
<path fill="none" stroke="#63b8ff" d="M237.33,-60.49C264.07,-50.53 308.58,-33.95 338.94,-22.63"/>
<polygon fill="#63b8ff" stroke="#63b8ff" points="340.49,-25.79 348.64,-19.02 338.05,-19.23 340.49,-25.79"/>
</a>
</g>
</g>
<!-- Node19 -->
<g id="Node000019" class="node">
<title>Node19</title>
<g id="a_Node000019"><a xlink:href="_method_concept_8hpp.html" target="_top" xlink:title=" ">
<polygon fill="white" stroke="#666666" points="894,-283 745,-283 745,-253 894,-253 894,-283"/>
<text text-anchor="start" x="753" y="-271" font-family="Helvetica,sans-Serif" font-size="10.00">Thoth/Http/Methods</text>
<text text-anchor="middle" x="819.5" y="-260" font-family="Helvetica,sans-Serif" font-size="10.00">/_base/MethodConcept.hpp</text>
</a>
</g>
</g>
<!-- Node18&#45;&gt;Node19 -->
<g id="edge20_Node000018_Node000019" class="edge">
<title>Node18&#45;&gt;Node19</title>
<g id="a_edge20_Node000018_Node000019"><a xlink:title=" ">
<path fill="none" stroke="#63b8ff" d="M819.5,-318.8C819.5,-311.34 819.5,-301.99 819.5,-293.41"/>
<polygon fill="#63b8ff" stroke="#63b8ff" points="823,-293.16 819.5,-283.16 816,-293.16 823,-293.16"/>
</a>
</g>
</g>
<!-- Node19&#45;&gt;Node3 -->
<g id="edge24_Node000019_Node000003" class="edge">
<title>Node19&#45;&gt;Node3</title>
<g id="a_edge24_Node000019_Node000003"><a xlink:title=" ">
<path fill="none" stroke="#63b8ff" d="M764.64,-252.95C726.13,-243.1 674.49,-229.88 634.01,-219.51"/>
<polygon fill="#63b8ff" stroke="#63b8ff" points="634.79,-216.1 624.24,-217.01 633.06,-222.88 634.79,-216.1"/>
</a>
</g>
</g>
<!-- Node20 -->
<g id="Node000020" class="node">
<title>Node20</title>
<g id="a_Node000020"><a xlink:href="_status_code_enum_8hpp.html" target="_top" xlink:title=" ">
<polygon fill="white" stroke="#666666" points="1094.5,-151 970.5,-151 970.5,-121 1094.5,-121 1094.5,-151"/>
<text text-anchor="start" x="978.5" y="-139" font-family="Helvetica,sans-Serif" font-size="10.00">Thoth/Http/Response</text>
<text text-anchor="middle" x="1032.5" y="-128" font-family="Helvetica,sans-Serif" font-size="10.00">/StatusCodeEnum.hpp</text>
</a>
</g>
</g>
<!-- Node19&#45;&gt;Node20 -->
<g id="edge21_Node000019_Node000020" class="edge">
<title>Node19&#45;&gt;Node20</title>
<g id="a_edge21_Node000019_Node000020"><a xlink:title=" ">
<path fill="none" stroke="#63b8ff" d="M894.19,-257.13C925.27,-250.03 960.17,-237.86 986.5,-217 1004.85,-202.46 1017.24,-178.45 1024.5,-160.52"/>
<polygon fill="#63b8ff" stroke="#63b8ff" points="1027.82,-161.63 1028.09,-151.04 1021.27,-159.15 1027.82,-161.63"/>
</a>
</g>
</g>
<!-- Node21 -->
<g id="Node000021" class="node">
<title>Node21</title>
<g id="a_Node000021"><a xlink:href="_headers_8hpp.html" target="_top" xlink:title=" ">
<polygon fill="white" stroke="#666666" points="886,-211.5 753,-211.5 753,-192.5 886,-192.5 886,-211.5"/>
<text text-anchor="middle" x="819.5" y="-199.5" font-family="Helvetica,sans-Serif" font-size="10.00">Thoth/Http/Headers.hpp</text>
</a>
</g>
</g>
<!-- Node19&#45;&gt;Node21 -->
<g id="edge25_Node000019_Node000021" class="edge">
<title>Node19&#45;&gt;Node21</title>
<g id="a_edge25_Node000019_Node000021"><a xlink:title=" ">
<path fill="none" stroke="#63b8ff" d="M819.5,-252.8C819.5,-243.7 819.5,-231.79 819.5,-221.9"/>
<polygon fill="#63b8ff" stroke="#63b8ff" points="823,-221.84 819.5,-211.84 816,-221.84 823,-221.84"/>
</a>
</g>
</g>
<!-- Node24 -->
<g id="Node000024" class="node">
<title>Node24</title>
<g id="a_Node000024"><a xlink:title=" ">
<polygon fill="#e0e0e0" stroke="#999999" points="977,-211.5 904,-211.5 904,-192.5 977,-192.5 977,-211.5"/>
<text text-anchor="middle" x="940.5" y="-199.5" font-family="Helvetica,sans-Serif" font-size="10.00">string_view</text>
</a>
</g>
</g>
<!-- Node19&#45;&gt;Node24 -->
<g id="edge33_Node000019_Node000024" class="edge">
<title>Node19&#45;&gt;Node24</title>
<g id="a_edge33_Node000019_Node000024"><a xlink:title=" ">
<path fill="none" stroke="#63b8ff" d="M846.05,-252.95C866.71,-242.03 895.18,-226.97 915.45,-216.25"/>
<polygon fill="#63b8ff" stroke="#63b8ff" points="917.19,-219.29 924.4,-211.52 913.92,-213.1 917.19,-219.29"/>
</a>
</g>
</g>
<!-- Node20&#45;&gt;Node4 -->
<g id="edge22_Node000020_Node000004" class="edge">
<title>Node20&#45;&gt;Node4</title>
<g id="a_edge22_Node000020_Node000004"><a xlink:title=" ">
<path fill="none" stroke="#63b8ff" d="M1031.17,-120.8C1030.32,-111.7 1029.2,-99.79 1028.27,-89.9"/>
<polygon fill="#63b8ff" stroke="#63b8ff" points="1031.75,-89.47 1027.33,-79.84 1024.78,-90.13 1031.75,-89.47"/>
</a>
</g>
</g>
<!-- Node20&#45;&gt;Node7 -->
<g id="edge23_Node000020_Node000007" class="edge">
<title>Node20&#45;&gt;Node7</title>
<g id="a_edge23_Node000020_Node000007"><a xlink:title=" ">
<path fill="none" stroke="#63b8ff" d="M1012.53,-120.8C997.86,-110.37 977.99,-96.24 963.16,-85.69"/>
<polygon fill="#63b8ff" stroke="#63b8ff" points="964.85,-82.6 954.68,-79.66 960.8,-88.31 964.85,-82.6"/>
</a>
</g>
</g>
<!-- Node21&#45;&gt;Node5 -->
<g id="edge30_Node000021_Node000005" class="edge">
<title>Node21&#45;&gt;Node5</title>
<g id="a_edge30_Node000021_Node000005"><a xlink:title=" ">
<path fill="none" stroke="#63b8ff" d="M790.3,-192.45C759.45,-183.17 709.53,-167.46 667.5,-151 613.71,-129.93 552.74,-100.82 518.83,-84.15"/>
<polygon fill="#63b8ff" stroke="#63b8ff" points="520.13,-80.89 509.61,-79.59 517.03,-87.16 520.13,-80.89"/>
</a>
</g>
</g>
<!-- Node21&#45;&gt;Node7 -->
<g id="edge27_Node000021_Node000007" class="edge">
<title>Node21&#45;&gt;Node7</title>
<g id="a_edge27_Node000021_Node000007"><a xlink:title=" ">
<path fill="none" stroke="#63b8ff" d="M839.86,-192.47C857.9,-184.09 884.03,-169.82 901.5,-151 918.3,-132.91 929.99,-106.64 936.47,-89.19"/>
<polygon fill="#63b8ff" stroke="#63b8ff" points="939.82,-90.22 939.84,-79.63 933.22,-87.9 939.82,-90.22"/>
</a>
</g>
</g>
<!-- Node21&#45;&gt;Node8 -->
<g id="edge28_Node000021_Node000008" class="edge">
<title>Node21&#45;&gt;Node8</title>
<g id="a_edge28_Node000021_Node000008"><a xlink:title=" ">
<path fill="none" stroke="#63b8ff" d="M836.11,-192.34C861.64,-177.89 905.59,-147.8 885.5,-121 869.19,-99.24 794.64,-83.79 749.53,-76.24"/>
<polygon fill="#63b8ff" stroke="#63b8ff" points="750,-72.77 739.56,-74.62 748.87,-79.68 750,-72.77"/>
</a>
</g>
</g>
<!-- Node21&#45;&gt;Node9 -->
<g id="edge29_Node000021_Node000009" class="edge">
<title>Node21&#45;&gt;Node9</title>
<g id="a_edge29_Node000021_Node000009"><a xlink:title=" ">
<path fill="none" stroke="#63b8ff" d="M865.3,-192.48C875.25,-190.65 885.73,-188.75 895.5,-187 941.68,-178.75 1073.29,-186.89 1103.5,-151 1129.93,-119.61 1077.3,-61.89 1066.5,-55 1020.05,-25.36 633.66,-14.01 516.23,-11.23"/>
<polygon fill="#63b8ff" stroke="#63b8ff" points="516.11,-7.72 506.03,-10.99 515.95,-14.72 516.11,-7.72"/>
</a>
</g>
</g>
<!-- Node21&#45;&gt;Node20 -->
<g id="edge26_Node000021_Node000020" class="edge">
<title>Node21&#45;&gt;Node20</title>
<g id="a_edge26_Node000021_Node000020"><a xlink:title=" ">
<path fill="none" stroke="#63b8ff" d="M848.23,-192.37C880.82,-182.58 934.77,-166.37 975.9,-154.01"/>
<polygon fill="#63b8ff" stroke="#63b8ff" points="976.95,-157.35 985.52,-151.12 974.94,-150.64 976.95,-157.35"/>
</a>
</g>
</g>
<!-- Node22 -->
<g id="Node000022" class="node">
<title>Node22</title>
<g id="a_Node000022"><a xlink:title=" ">
<polygon fill="#e0e0e0" stroke="#999999" points="726.5,-145.5 676.5,-145.5 676.5,-126.5 726.5,-126.5 726.5,-145.5"/>
<text text-anchor="middle" x="701.5" y="-133.5" font-family="Helvetica,sans-Serif" font-size="10.00">ranges</text>
</a>
</g>
</g>
<!-- Node21&#45;&gt;Node22 -->
<g id="edge31_Node000021_Node000022" class="edge">
<title>Node21&#45;&gt;Node22</title>
<g id="a_edge31_Node000021_Node000022"><a xlink:title=" ">
<path fill="none" stroke="#63b8ff" d="M803.59,-192.37C783.79,-181.63 749.77,-163.18 726.49,-150.55"/>
<polygon fill="#63b8ff" stroke="#63b8ff" points="728,-147.39 717.54,-145.7 724.66,-153.54 728,-147.39"/>
</a>
</g>
</g>
<!-- Node23 -->
<g id="Node000023" class="node">
<title>Node23</title>
<g id="a_Node000023"><a xlink:title=" ">
<polygon fill="#e0e0e0" stroke="#999999" points="876,-145.5 745,-145.5 745,-126.5 876,-126.5 876,-145.5"/>
<text text-anchor="middle" x="810.5" y="-133.5" font-family="Helvetica,sans-Serif" font-size="10.00">Thoth/Http/Headers.tpp</text>
</a>
</g>
</g>
<!-- Node21&#45;&gt;Node23 -->
<g id="edge32_Node000021_Node000023" class="edge">
<title>Node21&#45;&gt;Node23</title>
<g id="a_edge32_Node000021_Node000023"><a xlink:title=" ">
<path fill="none" stroke="#63b8ff" d="M818.29,-192.37C816.98,-183.07 814.86,-167.98 813.16,-155.9"/>
<polygon fill="#63b8ff" stroke="#63b8ff" points="816.61,-155.32 811.75,-145.91 809.68,-156.3 816.61,-155.32"/>
</a>
</g>
</g>
<!-- Node25&#45;&gt;Node19 -->
<g id="edge35_Node000025_Node000019" class="edge">
<title>Node25&#45;&gt;Node19</title>
<g id="a_edge35_Node000025_Node000019"><a xlink:title=" ">
<path fill="none" stroke="#63b8ff" d="M717.25,-318.95C736.19,-309.7 761.19,-297.49 781.73,-287.45"/>
<polygon fill="#63b8ff" stroke="#63b8ff" points="783.37,-290.55 790.82,-283.01 780.3,-284.26 783.37,-290.55"/>
</a>
</g>
</g>
</g>
</svg>
