<?xml version="1.0" encoding="UTF-8" standalone="no"?>
<!DOCTYPE svg PUBLIC "-//W3C//DTD SVG 1.1//EN"
 "http://www.w3.org/Graphics/SVG/1.1/DTD/svg11.dtd">
<!-- Generated by graphviz version 2.43.0 (0)
 -->
<!-- Title: include/Thoth/Http/Request/Request.hpp Pages: 1 -->
<svg width="1655pt" height="544pt"
 viewBox="0.00 0.00 1654.50 544.00" xmlns="http://www.w3.org/2000/svg" xmlns:xlink="http://www.w3.org/1999/xlink">
<g id="graph0" class="graph" transform="scale(1 1) rotate(0) translate(4 540)">
<title>include/Thoth/Http/Request/Request.hpp</title>
<!-- Node1 -->
<g id="Node000001" class="node">
<title>Node1</title>
<g id="a_Node000001"><a xlink:title=" ">
<polygon fill="#999999" stroke="#666666" points="1213,-536 1090,-536 1090,-506 1213,-506 1213,-536"/>
<text text-anchor="start" x="1098" y="-524" font-family="Helvetica,sans-Serif" font-size="10.00">include/Thoth/Http</text>
<text text-anchor="middle" x="1151.5" y="-513" font-family="Helvetica,sans-Serif" font-size="10.00">/Request/Request.hpp</text>
</a>
</g>
</g>
<!-- Node2 -->
<g id="Node000002" class="node">
<title>Node2</title>
<g id="a_Node000002"><a xlink:title=" ">
<polygon fill="#e0e0e0" stroke="#999999" points="1038,-464.5 863,-464.5 863,-445.5 1038,-445.5 1038,-464.5"/>
<text text-anchor="middle" x="950.5" y="-452.5" font-family="Helvetica,sans-Serif" font-size="10.00">Hermes/Socket/ClientSocket.hpp</text>
</a>
</g>
</g>
<!-- Node1&#45;&gt;Node2 -->
<g id="edge1_Node000001_Node000002" class="edge">
<title>Node1&#45;&gt;Node2</title>
<g id="a_edge1_Node000001_Node000002"><a xlink:title=" ">
<path fill="none" stroke="#63b8ff" d="M1107.39,-505.95C1071.36,-494.48 1021.04,-478.46 987.19,-467.68"/>
<polygon fill="#63b8ff" stroke="#63b8ff" points="987.84,-464.22 977.25,-464.52 985.72,-470.89 987.84,-464.22"/>
</a>
</g>
</g>
<!-- Node3 -->
<g id="Node000003" class="node">
<title>Node3</title>
<g id="a_Node000003"><a xlink:href="_url_8hpp.html" target="_top" xlink:title=" ">
<polygon fill="white" stroke="#666666" points="1122,-338 1011,-338 1011,-308 1122,-308 1122,-338"/>
<text text-anchor="start" x="1019" y="-326" font-family="Helvetica,sans-Serif" font-size="10.00">Thoth/Http/Request</text>
<text text-anchor="middle" x="1066.5" y="-315" font-family="Helvetica,sans-Serif" font-size="10.00">/Url.hpp</text>
</a>
</g>
</g>
<!-- Node1&#45;&gt;Node3 -->
<g id="edge2_Node000001_Node000003" class="edge">
<title>Node1&#45;&gt;Node3</title>
<g id="a_edge2_Node000001_Node000003"><a xlink:title=" ">
<path fill="none" stroke="#63b8ff" d="M1123.76,-505.92C1109.96,-497.43 1094.38,-485.29 1085.5,-470 1063.44,-432 1062.44,-379.21 1064.16,-348.62"/>
<polygon fill="#63b8ff" stroke="#63b8ff" points="1067.67,-348.65 1064.89,-338.42 1060.69,-348.15 1067.67,-348.65"/>
</a>
</g>
</g>
<!-- Node30 -->
<g id="Node000030" class="node">
<title>Node30</title>
<g id="a_Node000030"><a xlink:href="_get_method_8hpp.html" target="_top" xlink:title=" ">
<polygon fill="white" stroke="#666666" points="1339,-470 1226,-470 1226,-440 1339,-440 1339,-470"/>
<text text-anchor="start" x="1234" y="-458" font-family="Helvetica,sans-Serif" font-size="10.00">Thoth/Http/Methods</text>
<text text-anchor="middle" x="1282.5" y="-447" font-family="Helvetica,sans-Serif" font-size="10.00">/GetMethod.hpp</text>
</a>
</g>
</g>
<!-- Node1&#45;&gt;Node30 -->
<g id="edge41_Node000001_Node000030" class="edge">
<title>Node1&#45;&gt;Node30</title>
<g id="a_edge41_Node000001_Node000030"><a xlink:title=" ">
<path fill="none" stroke="#63b8ff" d="M1180.25,-505.95C1199.19,-496.7 1224.19,-484.49 1244.73,-474.45"/>
<polygon fill="#63b8ff" stroke="#63b8ff" points="1246.37,-477.55 1253.82,-470.01 1243.3,-471.26 1246.37,-477.55"/>
</a>
</g>
</g>
<!-- Node36 -->
<g id="Node000036" class="node">
<title>Node36</title>
<g id="a_Node000036"><a xlink:href="_post_method_8hpp.html" target="_top" xlink:title=" ">
<polygon fill="white" stroke="#666666" points="1208,-470 1095,-470 1095,-440 1208,-440 1208,-470"/>
<text text-anchor="start" x="1103" y="-458" font-family="Helvetica,sans-Serif" font-size="10.00">Thoth/Http/Methods</text>
<text text-anchor="middle" x="1151.5" y="-447" font-family="Helvetica,sans-Serif" font-size="10.00">/PostMethod.hpp</text>
</a>
</g>
</g>
<!-- Node1&#45;&gt;Node36 -->
<g id="edge56_Node000001_Node000036" class="edge">
<title>Node1&#45;&gt;Node36</title>
<g id="a_edge56_Node000001_Node000036"><a xlink:title=" ">
<path fill="none" stroke="#63b8ff" d="M1151.5,-505.8C1151.5,-498.34 1151.5,-488.99 1151.5,-480.41"/>
<polygon fill="#63b8ff" stroke="#63b8ff" points="1155,-480.16 1151.5,-470.16 1148,-480.16 1155,-480.16"/>
</a>
</g>
</g>
<!-- Node37 -->
<g id="Node000037" class="node">
<title>Node37</title>
<g id="a_Node000037"><a xlink:title=" ">
<polygon fill="#e0e0e0" stroke="#999999" points="1468,-470 1357,-470 1357,-440 1468,-440 1468,-470"/>
<text text-anchor="start" x="1365" y="-458" font-family="Helvetica,sans-Serif" font-size="10.00">Thoth/Http/Request</text>
<text text-anchor="middle" x="1412.5" y="-447" font-family="Helvetica,sans-Serif" font-size="10.00">/Request.tpp</text>
</a>
</g>
</g>
<!-- Node1&#45;&gt;Node37 -->
<g id="edge58_Node000001_Node000037" class="edge">
<title>Node1&#45;&gt;Node37</title>
<g id="a_edge58_Node000001_Node000037"><a xlink:title=" ">
<path fill="none" stroke="#63b8ff" d="M1208.78,-505.95C1249.48,-495.97 1304.24,-482.55 1346.73,-472.13"/>
<polygon fill="#63b8ff" stroke="#63b8ff" points="1347.82,-475.46 1356.7,-469.68 1346.15,-468.67 1347.82,-475.46"/>
</a>
</g>
</g>
<!-- Node4 -->
<g id="Node000004" class="node">
<title>Node4</title>
<g id="a_Node000004"><a xlink:title=" ">
<polygon fill="#e0e0e0" stroke="#999999" points="1114.5,-74 1052.5,-74 1052.5,-55 1114.5,-55 1114.5,-74"/>
<text text-anchor="middle" x="1083.5" y="-62" font-family="Helvetica,sans-Serif" font-size="10.00">expected</text>
</a>
</g>
</g>
<!-- Node3&#45;&gt;Node4 -->
<g id="edge3_Node000003_Node000004" class="edge">
<title>Node3&#45;&gt;Node4</title>
<g id="a_edge3_Node000003_Node000004"><a xlink:title=" ">
<path fill="none" stroke="#63b8ff" d="M1067.44,-307.84C1070.31,-264.48 1079,-133.45 1082.25,-84.35"/>
<polygon fill="#63b8ff" stroke="#63b8ff" points="1085.75,-84.42 1082.92,-74.21 1078.77,-83.95 1085.75,-84.42"/>
</a>
</g>
</g>
<!-- Node5 -->
<g id="Node000005" class="node">
<title>Node5</title>
<g id="a_Node000005"><a xlink:title=" ">
<polygon fill="#e0e0e0" stroke="#999999" points="1046.5,-19 1002.5,-19 1002.5,0 1046.5,0 1046.5,-19"/>
<text text-anchor="middle" x="1024.5" y="-7" font-family="Helvetica,sans-Serif" font-size="10.00">string</text>
</a>
</g>
</g>
<!-- Node3&#45;&gt;Node5 -->
<g id="edge4_Node000003_Node000005" class="edge">
<title>Node3&#45;&gt;Node5</title>
<g id="a_edge4_Node000003_Node000005"><a xlink:title=" ">
<path fill="none" stroke="#63b8ff" d="M1089.5,-307.94C1120.68,-286.92 1172.5,-244.13 1172.5,-192 1172.5,-192 1172.5,-192 1172.5,-124 1172.5,-65.87 1099.72,-33.46 1056.24,-19.27"/>
<polygon fill="#63b8ff" stroke="#63b8ff" points="1057.25,-15.92 1046.66,-16.29 1055.16,-22.61 1057.25,-15.92"/>
</a>
</g>
</g>
<!-- Node6 -->
<g id="Node000006" class="node">
<title>Node6</title>
<g id="a_Node000006"><a xlink:href="_query_params_8hpp.html" target="_top" xlink:title=" ">
<polygon fill="white" stroke="#666666" points="1038,-272 927,-272 927,-242 1038,-242 1038,-272"/>
<text text-anchor="start" x="935" y="-260" font-family="Helvetica,sans-Serif" font-size="10.00">Thoth/Http/Request</text>
<text text-anchor="middle" x="982.5" y="-249" font-family="Helvetica,sans-Serif" font-size="10.00">/QueryParams.hpp</text>
</a>
</g>
</g>
<!-- Node3&#45;&gt;Node6 -->
<g id="edge5_Node000003_Node000006" class="edge">
<title>Node3&#45;&gt;Node6</title>
<g id="a_edge5_Node000003_Node000006"><a xlink:title=" ">
<path fill="none" stroke="#63b8ff" d="M1047.86,-307.8C1036.55,-299.18 1021.92,-288.04 1009.38,-278.48"/>
<polygon fill="#63b8ff" stroke="#63b8ff" points="1011.17,-275.44 1001.09,-272.16 1006.92,-281.01 1011.17,-275.44"/>
</a>
</g>
</g>
<!-- Node29 -->
<g id="Node000029" class="node">
<title>Node29</title>
<g id="a_Node000029"><a xlink:title=" ">
<polygon fill="#e0e0e0" stroke="#999999" points="909,-272 798,-272 798,-242 909,-242 909,-272"/>
<text text-anchor="start" x="806" y="-260" font-family="Helvetica,sans-Serif" font-size="10.00">Thoth/Http/Request</text>
<text text-anchor="middle" x="853.5" y="-249" font-family="Helvetica,sans-Serif" font-size="10.00">/Url.tpp</text>
</a>
</g>
</g>
<!-- Node3&#45;&gt;Node29 -->
<g id="edge40_Node000003_Node000029" class="edge">
<title>Node3&#45;&gt;Node29</title>
<g id="a_edge40_Node000003_Node000029"><a xlink:title=" ">
<path fill="none" stroke="#63b8ff" d="M1019.76,-307.95C987.43,-298.24 944.25,-285.27 910,-274.98"/>
<polygon fill="#63b8ff" stroke="#63b8ff" points="910.72,-271.54 900.13,-272.01 908.7,-278.24 910.72,-271.54"/>
</a>
</g>
</g>
<!-- Node6&#45;&gt;Node4 -->
<g id="edge6_Node000006_Node000004" class="edge">
<title>Node6&#45;&gt;Node4</title>
<g id="a_edge6_Node000006_Node000004"><a xlink:title=" ">
<path fill="none" stroke="#63b8ff" d="M989.05,-241.58C1003.58,-209.74 1038.34,-134.29 1052.5,-110 1058.01,-100.54 1064.91,-90.5 1070.8,-82.35"/>
<polygon fill="#63b8ff" stroke="#63b8ff" points="1073.77,-84.22 1076.89,-74.09 1068.14,-80.06 1073.77,-84.22"/>
</a>
</g>
</g>
<!-- Node6&#45;&gt;Node5 -->
<g id="edge9_Node000006_Node000005" class="edge">
<title>Node6&#45;&gt;Node5</title>
<g id="a_edge9_Node000006_Node000005"><a xlink:title=" ">
<path fill="none" stroke="#63b8ff" d="M984.94,-241.74C992.12,-199.76 1013.19,-76.63 1021.28,-29.32"/>
<polygon fill="#63b8ff" stroke="#63b8ff" points="1024.77,-29.7 1023,-19.25 1017.87,-28.52 1024.77,-29.7"/>
</a>
</g>
</g>
<!-- Node7 -->
<g id="Node000007" class="node">
<title>Node7</title>
<g id="a_Node000007"><a xlink:title=" ">
<polygon fill="#e0e0e0" stroke="#999999" points="1144.5,-134.5 1094.5,-134.5 1094.5,-115.5 1144.5,-115.5 1144.5,-134.5"/>
<text text-anchor="middle" x="1119.5" y="-122.5" font-family="Helvetica,sans-Serif" font-size="10.00">format</text>
</a>
</g>
</g>
<!-- Node6&#45;&gt;Node7 -->
<g id="edge7_Node000006_Node000007" class="edge">
<title>Node6&#45;&gt;Node7</title>
<g id="a_edge7_Node000006_Node000007"><a xlink:title=" ">
<path fill="none" stroke="#63b8ff" d="M1000.53,-241.84C1012.68,-232.09 1028.9,-218.66 1042.5,-206 1065.09,-184.97 1089.54,-158.96 1104.69,-142.42"/>
<polygon fill="#63b8ff" stroke="#63b8ff" points="1107.56,-144.46 1111.7,-134.71 1102.38,-139.75 1107.56,-144.46"/>
</a>
</g>
</g>
<!-- Node8 -->
<g id="Node000008" class="node">
<title>Node8</title>
<g id="a_Node000008"><a xlink:title=" ">
<polygon fill="#e0e0e0" stroke="#999999" points="466,-74 419,-74 419,-55 466,-55 466,-74"/>
<text text-anchor="middle" x="442.5" y="-62" font-family="Helvetica,sans-Serif" font-size="10.00">vector</text>
</a>
</g>
</g>
<!-- Node6&#45;&gt;Node8 -->
<g id="edge8_Node000006_Node000008" class="edge">
<title>Node6&#45;&gt;Node8</title>
<g id="a_edge8_Node000006_Node000008"><a xlink:title=" ">
<path fill="none" stroke="#63b8ff" d="M926.91,-243.6C923.73,-243.03 920.58,-242.49 917.5,-242 760.85,-217.27 716.43,-244.14 562.5,-206 486.64,-187.2 443.18,-204.81 399.5,-140 386.23,-120.31 406.03,-96.34 422.94,-81.01"/>
<polygon fill="#63b8ff" stroke="#63b8ff" points="425.53,-83.39 430.85,-74.23 420.98,-78.08 425.53,-83.39"/>
</a>
</g>
</g>
<!-- Node9 -->
<g id="Node000009" class="node">
<title>Node9</title>
<g id="a_Node000009"><a xlink:href="_linear_map_8hpp.html" target="_top" xlink:title=" ">
<polygon fill="white" stroke="#666666" points="323,-134.5 182,-134.5 182,-115.5 323,-115.5 323,-134.5"/>
<text text-anchor="middle" x="252.5" y="-122.5" font-family="Helvetica,sans-Serif" font-size="10.00">Thoth/Dsa/LinearMap.hpp</text>
</a>
</g>
</g>
<!-- Node6&#45;&gt;Node9 -->
<g id="edge10_Node000006_Node000009" class="edge">
<title>Node6&#45;&gt;Node9</title>
<g id="a_edge10_Node000006_Node000009"><a xlink:title=" ">
<path fill="none" stroke="#63b8ff" d="M926.93,-243.46C923.75,-242.92 920.59,-242.43 917.5,-242 789.57,-224.36 456.01,-257.3 337.5,-206 306.03,-192.38 279.03,-161.81 264.34,-142.66"/>
<polygon fill="#63b8ff" stroke="#63b8ff" points="267.08,-140.48 258.31,-134.52 261.45,-144.64 267.08,-140.48"/>
</a>
</g>
</g>
<!-- Node15 -->
<g id="Node000015" class="node">
<title>Node15</title>
<g id="a_Node000015"><a xlink:href="_request_error_8hpp.html" target="_top" xlink:title=" ">
<polygon fill="white" stroke="#666666" points="856,-200.5 701,-200.5 701,-181.5 856,-181.5 856,-200.5"/>
<text text-anchor="middle" x="778.5" y="-188.5" font-family="Helvetica,sans-Serif" font-size="10.00">Thoth/Http/RequestError.hpp</text>
</a>
</g>
</g>
<!-- Node6&#45;&gt;Node15 -->
<g id="edge17_Node000006_Node000015" class="edge">
<title>Node6&#45;&gt;Node15</title>
<g id="a_edge17_Node000006_Node000015"><a xlink:title=" ">
<path fill="none" stroke="#63b8ff" d="M937.73,-241.95C901.01,-230.43 849.66,-214.32 815.3,-203.54"/>
<polygon fill="#63b8ff" stroke="#63b8ff" points="816.24,-200.17 805.65,-200.52 814.14,-206.85 816.24,-200.17"/>
</a>
</g>
</g>
<!-- Node28 -->
<g id="Node000028" class="node">
<title>Node28</title>
<g id="a_Node000028"><a xlink:title=" ">
<polygon fill="#e0e0e0" stroke="#999999" points="683,-206 572,-206 572,-176 683,-176 683,-206"/>
<text text-anchor="start" x="580" y="-194" font-family="Helvetica,sans-Serif" font-size="10.00">Thoth/Http/Request</text>
<text text-anchor="middle" x="627.5" y="-183" font-family="Helvetica,sans-Serif" font-size="10.00">/QueryParams.tpp</text>
</a>
</g>
</g>
<!-- Node6&#45;&gt;Node28 -->
<g id="edge39_Node000006_Node000028" class="edge">
<title>Node6&#45;&gt;Node28</title>
<g id="a_edge39_Node000006_Node000028"><a xlink:title=" ">
<path fill="none" stroke="#63b8ff" d="M926.87,-243.81C923.7,-243.18 920.56,-242.57 917.5,-242 820.65,-223.87 793.15,-224.8 693.21,-206.26"/>
<polygon fill="#63b8ff" stroke="#63b8ff" points="693.78,-202.81 683.31,-204.41 692.49,-209.69 693.78,-202.81"/>
</a>
</g>
</g>
<!-- Node9&#45;&gt;Node8 -->
<g id="edge11_Node000009_Node000008" class="edge">
<title>Node9&#45;&gt;Node8</title>
<g id="a_edge11_Node000009_Node000008"><a xlink:title=" ">
<path fill="none" stroke="#63b8ff" d="M280.13,-115.49C314.28,-104.98 372.36,-87.1 409.01,-75.81"/>
<polygon fill="#63b8ff" stroke="#63b8ff" points="410.21,-79.1 418.74,-72.81 408.15,-72.41 410.21,-79.1"/>
</a>
</g>
</g>
<!-- Node10 -->
<g id="Node000010" class="node">
<title>Node10</title>
<g id="a_Node000010"><a xlink:title=" ">
<polygon fill="#e0e0e0" stroke="#999999" points="202,-74 157,-74 157,-55 202,-55 202,-74"/>
<text text-anchor="middle" x="179.5" y="-62" font-family="Helvetica,sans-Serif" font-size="10.00">utility</text>
</a>
</g>
</g>
<!-- Node9&#45;&gt;Node10 -->
<g id="edge12_Node000009_Node000010" class="edge">
<title>Node9&#45;&gt;Node10</title>
<g id="a_edge12_Node000009_Node000010"><a xlink:title=" ">
<path fill="none" stroke="#63b8ff" d="M241.73,-115.37C230.3,-106.21 212.02,-91.56 198.22,-80.51"/>
<polygon fill="#63b8ff" stroke="#63b8ff" points="200.31,-77.69 190.32,-74.17 195.93,-83.15 200.31,-77.69"/>
</a>
</g>
</g>
<!-- Node11 -->
<g id="Node000011" class="node">
<title>Node11</title>
<g id="a_Node000011"><a xlink:title=" ">
<polygon fill="#e0e0e0" stroke="#999999" points="521.5,-19 461.5,-19 461.5,0 521.5,0 521.5,-19"/>
<text text-anchor="middle" x="491.5" y="-7" font-family="Helvetica,sans-Serif" font-size="10.00">concepts</text>
</a>
</g>
</g>
<!-- Node9&#45;&gt;Node11 -->
<g id="edge13_Node000009_Node000011" class="edge">
<title>Node9&#45;&gt;Node11</title>
<g id="a_edge13_Node000009_Node000011"><a xlink:title=" ">
<path fill="none" stroke="#63b8ff" d="M274.05,-115.49C297.89,-105.94 337.32,-89.7 370.5,-74 404.58,-57.87 442.97,-37.3 467.19,-24.01"/>
<polygon fill="#63b8ff" stroke="#63b8ff" points="468.98,-27.03 476.04,-19.14 465.6,-20.9 468.98,-27.03"/>
</a>
</g>
</g>
<!-- Node12 -->
<g id="Node000012" class="node">
<title>Node12</title>
<g id="a_Node000012"><a xlink:title=" ">
<polygon fill="#e0e0e0" stroke="#999999" points="285,-74 220,-74 220,-55 285,-55 285,-74"/>
<text text-anchor="middle" x="252.5" y="-62" font-family="Helvetica,sans-Serif" font-size="10.00">functional</text>
</a>
</g>
</g>
<!-- Node9&#45;&gt;Node12 -->
<g id="edge14_Node000009_Node000012" class="edge">
<title>Node9&#45;&gt;Node12</title>
<g id="a_edge14_Node000009_Node000012"><a xlink:title=" ">
<path fill="none" stroke="#63b8ff" d="M252.5,-115.37C252.5,-107.25 252.5,-94.81 252.5,-84.39"/>
<polygon fill="#63b8ff" stroke="#63b8ff" points="256,-84.17 252.5,-74.17 249,-84.17 256,-84.17"/>
</a>
</g>
</g>
<!-- Node13 -->
<g id="Node000013" class="node">
<title>Node13</title>
<g id="a_Node000013"><a xlink:title=" ">
<polygon fill="#e0e0e0" stroke="#999999" points="362,-74 303,-74 303,-55 362,-55 362,-74"/>
<text text-anchor="middle" x="332.5" y="-62" font-family="Helvetica,sans-Serif" font-size="10.00">compare</text>
</a>
</g>
</g>
<!-- Node9&#45;&gt;Node13 -->
<g id="edge15_Node000009_Node000013" class="edge">
<title>Node9&#45;&gt;Node13</title>
<g id="a_edge15_Node000009_Node000013"><a xlink:title=" ">
<path fill="none" stroke="#63b8ff" d="M264.3,-115.37C276.95,-106.12 297.24,-91.28 312.41,-80.19"/>
<polygon fill="#63b8ff" stroke="#63b8ff" points="314.64,-82.9 320.65,-74.17 310.51,-77.24 314.64,-82.9"/>
</a>
</g>
</g>
<!-- Node14 -->
<g id="Node000014" class="node">
<title>Node14</title>
<g id="a_Node000014"><a xlink:title=" ">
<polygon fill="#e0e0e0" stroke="#999999" points="139,-74 0,-74 0,-55 139,-55 139,-74"/>
<text text-anchor="middle" x="69.5" y="-62" font-family="Helvetica,sans-Serif" font-size="10.00">Thoth/Dsa/LinearMap.tpp</text>
</a>
</g>
</g>
<!-- Node9&#45;&gt;Node14 -->
<g id="edge16_Node000009_Node000014" class="edge">
<title>Node9&#45;&gt;Node14</title>
<g id="a_edge16_Node000009_Node000014"><a xlink:title=" ">
<path fill="none" stroke="#63b8ff" d="M225.89,-115.49C194.31,-105.4 141.49,-88.51 106.08,-77.19"/>
<polygon fill="#63b8ff" stroke="#63b8ff" points="106.73,-73.73 96.14,-74.02 104.6,-80.4 106.73,-73.73"/>
</a>
</g>
</g>
<!-- Node15&#45;&gt;Node8 -->
<g id="edge37_Node000015_Node000008" class="edge">
<title>Node15&#45;&gt;Node8</title>
<g id="a_edge37_Node000015_Node000008"><a xlink:title=" ">
<path fill="none" stroke="#63b8ff" d="M727.02,-181.43C715.35,-179.56 703.01,-177.66 691.5,-176 628.75,-166.96 450.4,-187.57 408.5,-140 393.32,-122.76 410.84,-97.61 425.83,-81.4"/>
<polygon fill="#63b8ff" stroke="#63b8ff" points="428.35,-83.83 432.84,-74.23 423.35,-78.94 428.35,-83.83"/>
</a>
</g>
</g>
<!-- Node16 -->
<g id="Node000016" class="node">
<title>Node16</title>
<g id="a_Node000016"><a xlink:title=" ">
<polygon fill="#e0e0e0" stroke="#999999" points="755,-140 588,-140 588,-110 755,-110 755,-140"/>
<text text-anchor="start" x="596" y="-128" font-family="Helvetica,sans-Serif" font-size="10.00">Hermes/_base/ConnectionError</text>
<text text-anchor="middle" x="671.5" y="-117" font-family="Helvetica,sans-Serif" font-size="10.00">Enum.hpp</text>
</a>
</g>
</g>
<!-- Node15&#45;&gt;Node16 -->
<g id="edge18_Node000015_Node000016" class="edge">
<title>Node15&#45;&gt;Node16</title>
<g id="a_edge18_Node000015_Node000016"><a xlink:title=" ">
<path fill="none" stroke="#63b8ff" d="M764.07,-181.37C748.73,-172.2 723.98,-157.39 703.93,-145.4"/>
<polygon fill="#63b8ff" stroke="#63b8ff" points="705.48,-142.25 695.1,-140.12 701.88,-148.25 705.48,-142.25"/>
</a>
</g>
</g>
<!-- Node17 -->
<g id="Node000017" class="node">
<title>Node17</title>
<g id="a_Node000017"><a xlink:href="_definitions_8hpp.html" target="_top" xlink:title=" ">
<polygon fill="white" stroke="#666666" points="962.5,-134.5 810.5,-134.5 810.5,-115.5 962.5,-115.5 962.5,-134.5"/>
<text text-anchor="middle" x="886.5" y="-122.5" font-family="Helvetica,sans-Serif" font-size="10.00">Thoth/NJson/Definitions.hpp</text>
</a>
</g>
</g>
<!-- Node15&#45;&gt;Node17 -->
<g id="edge19_Node000015_Node000017" class="edge">
<title>Node15&#45;&gt;Node17</title>
<g id="a_edge19_Node000015_Node000017"><a xlink:title=" ">
<path fill="none" stroke="#63b8ff" d="M793.07,-181.37C811.02,-170.73 841.77,-152.51 863.06,-139.89"/>
<polygon fill="#63b8ff" stroke="#63b8ff" points="865,-142.81 871.82,-134.7 861.43,-136.79 865,-142.81"/>
</a>
</g>
</g>
<!-- Node27 -->
<g id="Node000027" class="node">
<title>Node27</title>
<g id="a_Node000027"><a xlink:title=" ">
<polygon fill="#e0e0e0" stroke="#999999" points="569.5,-134.5 417.5,-134.5 417.5,-115.5 569.5,-115.5 569.5,-134.5"/>
<text text-anchor="middle" x="493.5" y="-122.5" font-family="Helvetica,sans-Serif" font-size="10.00">Thoth/Http/RequestError.tpp</text>
</a>
</g>
</g>
<!-- Node15&#45;&gt;Node27 -->
<g id="edge38_Node000015_Node000027" class="edge">
<title>Node15&#45;&gt;Node27</title>
<g id="a_edge38_Node000015_Node000027"><a xlink:title=" ">
<path fill="none" stroke="#63b8ff" d="M740.36,-181.44C688.95,-169.89 597.44,-149.34 541.44,-136.77"/>
<polygon fill="#63b8ff" stroke="#63b8ff" points="541.94,-133.29 531.41,-134.51 540.4,-140.12 541.94,-133.29"/>
</a>
</g>
</g>
<!-- Node17&#45;&gt;Node4 -->
<g id="edge25_Node000017_Node000004" class="edge">
<title>Node17&#45;&gt;Node4</title>
<g id="a_edge25_Node000017_Node000004"><a xlink:title=" ">
<path fill="none" stroke="#63b8ff" d="M915.15,-115.49C949.43,-105.31 1006.98,-88.22 1045.1,-76.9"/>
<polygon fill="#63b8ff" stroke="#63b8ff" points="1046.23,-80.22 1054.82,-74.02 1044.24,-73.51 1046.23,-80.22"/>
</a>
</g>
</g>
<!-- Node17&#45;&gt;Node5 -->
<g id="edge23_Node000017_Node000005" class="edge">
<title>Node17&#45;&gt;Node5</title>
<g id="a_edge23_Node000017_Node000005"><a xlink:title=" ">
<path fill="none" stroke="#63b8ff" d="M903,-115.43C919.82,-106.3 946.24,-90.88 966.5,-74 983.44,-59.89 1000.13,-40.93 1011.23,-27.41"/>
<polygon fill="#63b8ff" stroke="#63b8ff" points="1014.12,-29.4 1017.66,-19.42 1008.66,-25.02 1014.12,-29.4"/>
</a>
</g>
</g>
<!-- Node17&#45;&gt;Node8 -->
<g id="edge22_Node000017_Node000008" class="edge">
<title>Node17&#45;&gt;Node8</title>
<g id="a_edge22_Node000017_Node000008"><a xlink:title=" ">
<path fill="none" stroke="#63b8ff" d="M833.72,-115.45C821.51,-113.56 808.56,-111.64 796.5,-110 659.94,-91.4 624.78,-94.53 488.5,-74 484.55,-73.4 480.41,-72.72 476.32,-72.01"/>
<polygon fill="#63b8ff" stroke="#63b8ff" points="476.79,-68.54 466.32,-70.21 475.55,-75.43 476.79,-68.54"/>
</a>
</g>
</g>
<!-- Node17&#45;&gt;Node11 -->
<g id="edge26_Node000017_Node000011" class="edge">
<title>Node17&#45;&gt;Node11</title>
<g id="a_edge26_Node000017_Node000011"><a xlink:title=" ">
<path fill="none" stroke="#63b8ff" d="M832.74,-115.49C820.82,-113.64 808.23,-111.72 796.5,-110 681.08,-93.03 636.2,-134.57 536.5,-74 519.05,-63.4 506.52,-43.18 499.18,-28.4"/>
<polygon fill="#63b8ff" stroke="#63b8ff" points="502.31,-26.83 494.94,-19.22 495.96,-29.77 502.31,-26.83"/>
</a>
</g>
</g>
<!-- Node18 -->
<g id="Node000018" class="node">
<title>Node18</title>
<g id="a_Node000018"><a xlink:title=" ">
<polygon fill="#e0e0e0" stroke="#999999" points="717,-19 666,-19 666,0 717,0 717,-19"/>
<text text-anchor="middle" x="691.5" y="-7" font-family="Helvetica,sans-Serif" font-size="10.00">variant</text>
</a>
</g>
</g>
<!-- Node17&#45;&gt;Node18 -->
<g id="edge20_Node000017_Node000018" class="edge">
<title>Node17&#45;&gt;Node18</title>
<g id="a_edge20_Node000017_Node000018"><a xlink:title=" ">
<path fill="none" stroke="#63b8ff" d="M839.47,-115.49C808.85,-108.24 769.22,-95.47 739.5,-74 722.75,-61.9 709.2,-42.28 700.82,-28.04"/>
<polygon fill="#63b8ff" stroke="#63b8ff" points="703.81,-26.22 695.86,-19.21 697.7,-29.64 703.81,-26.22"/>
</a>
</g>
</g>
<!-- Node19 -->
<g id="Node000019" class="node">
<title>Node19</title>
<g id="a_Node000019"><a xlink:title=" ">
<polygon fill="#e0e0e0" stroke="#999999" points="795.5,-19 737.5,-19 737.5,0 795.5,0 795.5,-19"/>
<text text-anchor="middle" x="766.5" y="-7" font-family="Helvetica,sans-Serif" font-size="10.00">memory</text>
</a>
</g>
</g>
<!-- Node17&#45;&gt;Node19 -->
<g id="edge21_Node000017_Node000019" class="edge">
<title>Node17&#45;&gt;Node19</title>
<g id="a_edge21_Node000017_Node000019"><a xlink:title=" ">
<path fill="none" stroke="#63b8ff" d="M815,-115.43C789.4,-108.52 763.06,-96.13 747.5,-74 737.71,-60.08 745.57,-41.05 753.96,-27.46"/>
<polygon fill="#63b8ff" stroke="#63b8ff" points="756.94,-29.3 759.64,-19.06 751.14,-25.38 756.94,-29.3"/>
</a>
</g>
</g>
<!-- Node20 -->
<g id="Node000020" class="node">
<title>Node20</title>
<g id="a_Node000020"><a xlink:title=" ">
<polygon fill="#e0e0e0" stroke="#999999" points="1290.5,-74 1234.5,-74 1234.5,-55 1290.5,-55 1290.5,-74"/>
<text text-anchor="middle" x="1262.5" y="-62" font-family="Helvetica,sans-Serif" font-size="10.00">optional</text>
</a>
</g>
</g>
<!-- Node17&#45;&gt;Node20 -->
<g id="edge24_Node000017_Node000020" class="edge">
<title>Node17&#45;&gt;Node20</title>
<g id="a_edge24_Node000017_Node000020"><a xlink:title=" ">
<path fill="none" stroke="#63b8ff" d="M941.17,-115.49C1018.31,-103.49 1157.16,-81.89 1224.2,-71.46"/>
<polygon fill="#63b8ff" stroke="#63b8ff" points="1224.99,-74.88 1234.33,-69.88 1223.91,-67.96 1224.99,-74.88"/>
</a>
</g>
</g>
<!-- Node21 -->
<g id="Node000021" class="node">
<title>Node21</title>
<g id="a_Node000021"><a xlink:title=" ">
<polygon fill="#e0e0e0" stroke="#999999" points="796.5,-74 756.5,-74 756.5,-55 796.5,-55 796.5,-74"/>
<text text-anchor="middle" x="776.5" y="-62" font-family="Helvetica,sans-Serif" font-size="10.00">span</text>
</a>
</g>
</g>
<!-- Node17&#45;&gt;Node21 -->
<g id="edge27_Node000017_Node000021" class="edge">
<title>Node17&#45;&gt;Node21</title>
<g id="a_edge27_Node000017_Node000021"><a xlink:title=" ">
<path fill="none" stroke="#63b8ff" d="M870.27,-115.37C852.23,-105.78 822.88,-90.17 801.82,-78.97"/>
<polygon fill="#63b8ff" stroke="#63b8ff" points="803.27,-75.77 792.8,-74.17 799.98,-81.95 803.27,-75.77"/>
</a>
</g>
</g>
<!-- Node22 -->
<g id="Node000022" class="node">
<title>Node22</title>
<g id="a_Node000022"><a xlink:href="_cow_8hpp.html" target="_top" xlink:title=" ">
<polygon fill="white" stroke="#666666" points="655.5,-74 545.5,-74 545.5,-55 655.5,-55 655.5,-74"/>
<text text-anchor="middle" x="600.5" y="-62" font-family="Helvetica,sans-Serif" font-size="10.00">Thoth/Dsa/Cow.hpp</text>
</a>
</g>
</g>
<!-- Node17&#45;&gt;Node22 -->
<g id="edge28_Node000017_Node000022" class="edge">
<title>Node17&#45;&gt;Node22</title>
<g id="a_edge28_Node000017_Node000022"><a xlink:title=" ">
<path fill="none" stroke="#63b8ff" d="M844.91,-115.49C793.87,-105.05 707.3,-87.35 652.07,-76.05"/>
<polygon fill="#63b8ff" stroke="#63b8ff" points="652.64,-72.59 642.14,-74.02 651.23,-79.45 652.64,-72.59"/>
</a>
</g>
</g>
<!-- Node24 -->
<g id="Node000024" class="node">
<title>Node24</title>
<g id="a_Node000024"><a xlink:href="_string_ref_8hpp.html" target="_top" xlink:title=" ">
<polygon fill="white" stroke="#666666" points="958,-74 815,-74 815,-55 958,-55 958,-74"/>
<text text-anchor="middle" x="886.5" y="-62" font-family="Helvetica,sans-Serif" font-size="10.00">Thoth/NJson/StringRef.hpp</text>
</a>
</g>
</g>
<!-- Node17&#45;&gt;Node24 -->
<g id="edge32_Node000017_Node000024" class="edge">
<title>Node17&#45;&gt;Node24</title>
<g id="a_edge32_Node000017_Node000024"><a xlink:title=" ">
<path fill="none" stroke="#63b8ff" d="M886.5,-115.37C886.5,-107.25 886.5,-94.81 886.5,-84.39"/>
<polygon fill="#63b8ff" stroke="#63b8ff" points="890,-84.17 886.5,-74.17 883,-84.17 890,-84.17"/>
</a>
</g>
</g>
<!-- Node22&#45;&gt;Node11 -->
<g id="edge29_Node000022_Node000011" class="edge">
<title>Node22&#45;&gt;Node11</title>
<g id="a_edge29_Node000022_Node000011"><a xlink:title=" ">
<path fill="none" stroke="#63b8ff" d="M582.99,-54.98C565.53,-46.5 538.49,-33.35 518.33,-23.54"/>
<polygon fill="#63b8ff" stroke="#63b8ff" points="519.86,-20.4 509.33,-19.17 516.79,-26.69 519.86,-20.4"/>
</a>
</g>
</g>
<!-- Node22&#45;&gt;Node18 -->
<g id="edge30_Node000022_Node000018" class="edge">
<title>Node22&#45;&gt;Node18</title>
<g id="a_edge30_Node000022_Node000018"><a xlink:title=" ">
<path fill="none" stroke="#63b8ff" d="M615.12,-54.98C629.36,-46.69 651.25,-33.94 667.95,-24.22"/>
<polygon fill="#63b8ff" stroke="#63b8ff" points="669.73,-27.23 676.61,-19.17 666.21,-21.18 669.73,-27.23"/>
</a>
</g>
</g>
<!-- Node23 -->
<g id="Node000023" class="node">
<title>Node23</title>
<g id="a_Node000023"><a xlink:title=" ">
<polygon fill="#e0e0e0" stroke="#999999" points="647.5,-19 539.5,-19 539.5,0 647.5,0 647.5,-19"/>
<text text-anchor="middle" x="593.5" y="-7" font-family="Helvetica,sans-Serif" font-size="10.00">Thoth/Dsa/Cow.tpp</text>
</a>
</g>
</g>
<!-- Node22&#45;&gt;Node23 -->
<g id="edge31_Node000022_Node000023" class="edge">
<title>Node22&#45;&gt;Node23</title>
<g id="a_edge31_Node000022_Node000023"><a xlink:title=" ">
<path fill="none" stroke="#63b8ff" d="M599.34,-54.75C598.43,-47.8 597.11,-37.85 595.96,-29.13"/>
<polygon fill="#63b8ff" stroke="#63b8ff" points="599.41,-28.54 594.63,-19.09 592.47,-29.46 599.41,-28.54"/>
</a>
</g>
</g>
<!-- Node24&#45;&gt;Node5 -->
<g id="edge35_Node000024_Node000005" class="edge">
<title>Node24&#45;&gt;Node5</title>
<g id="a_edge35_Node000024_Node000005"><a xlink:title=" ">
<path fill="none" stroke="#63b8ff" d="M908.67,-54.98C931.41,-46.25 966.98,-32.59 992.71,-22.71"/>
<polygon fill="#63b8ff" stroke="#63b8ff" points="994.3,-25.85 1002.38,-18.99 991.79,-19.31 994.3,-25.85"/>
</a>
</g>
</g>
<!-- Node24&#45;&gt;Node19 -->
<g id="edge33_Node000024_Node000019" class="edge">
<title>Node24&#45;&gt;Node19</title>
<g id="a_edge33_Node000024_Node000019"><a xlink:title=" ">
<path fill="none" stroke="#63b8ff" d="M867.22,-54.98C847.83,-46.42 817.69,-33.11 795.43,-23.28"/>
<polygon fill="#63b8ff" stroke="#63b8ff" points="796.69,-20.01 786.13,-19.17 793.86,-26.41 796.69,-20.01"/>
</a>
</g>
</g>
<!-- Node25 -->
<g id="Node000025" class="node">
<title>Node25</title>
<g id="a_Node000025"><a xlink:title=" ">
<polygon fill="#e0e0e0" stroke="#999999" points="1410,-19 1337,-19 1337,0 1410,0 1410,-19"/>
<text text-anchor="middle" x="1373.5" y="-7" font-family="Helvetica,sans-Serif" font-size="10.00">string_view</text>
</a>
</g>
</g>
<!-- Node24&#45;&gt;Node25 -->
<g id="edge34_Node000024_Node000025" class="edge">
<title>Node24&#45;&gt;Node25</title>
<g id="a_edge34_Node000024_Node000025"><a xlink:title=" ">
<path fill="none" stroke="#63b8ff" d="M958.1,-55.71C1059.24,-44.7 1241.14,-24.9 1326.66,-15.6"/>
<polygon fill="#63b8ff" stroke="#63b8ff" points="1327.28,-19.05 1336.84,-14.49 1326.52,-12.09 1327.28,-19.05"/>
</a>
</g>
</g>
<!-- Node26 -->
<g id="Node000026" class="node">
<title>Node26</title>
<g id="a_Node000026"><a xlink:title=" ">
<polygon fill="#e0e0e0" stroke="#999999" points="957,-19 816,-19 816,0 957,0 957,-19"/>
<text text-anchor="middle" x="886.5" y="-7" font-family="Helvetica,sans-Serif" font-size="10.00">Thoth/NJson/StringRef.tpp</text>
</a>
</g>
</g>
<!-- Node24&#45;&gt;Node26 -->
<g id="edge36_Node000024_Node000026" class="edge">
<title>Node24&#45;&gt;Node26</title>
<g id="a_edge36_Node000024_Node000026"><a xlink:title=" ">
<path fill="none" stroke="#63b8ff" d="M886.5,-54.75C886.5,-47.8 886.5,-37.85 886.5,-29.13"/>
<polygon fill="#63b8ff" stroke="#63b8ff" points="890,-29.09 886.5,-19.09 883,-29.09 890,-29.09"/>
</a>
</g>
</g>
<!-- Node31 -->
<g id="Node000031" class="node">
<title>Node31</title>
<g id="a_Node000031"><a xlink:href="_method_concept_8hpp.html" target="_top" xlink:title=" ">
<polygon fill="white" stroke="#666666" points="1349,-404 1200,-404 1200,-374 1349,-374 1349,-404"/>
<text text-anchor="start" x="1208" y="-392" font-family="Helvetica,sans-Serif" font-size="10.00">Thoth/Http/Methods</text>
<text text-anchor="middle" x="1274.5" y="-381" font-family="Helvetica,sans-Serif" font-size="10.00">/_base/MethodConcept.hpp</text>
</a>
</g>
</g>
<!-- Node30&#45;&gt;Node31 -->
<g id="edge42_Node000030_Node000031" class="edge">
<title>Node30&#45;&gt;Node31</title>
<g id="a_edge42_Node000030_Node000031"><a xlink:title=" ">
<path fill="none" stroke="#63b8ff" d="M1280.72,-439.8C1279.78,-432.26 1278.6,-422.78 1277.52,-414.13"/>
<polygon fill="#63b8ff" stroke="#63b8ff" points="1280.98,-413.65 1276.27,-404.16 1274.04,-414.52 1280.98,-413.65"/>
</a>
</g>
</g>
<!-- Node31&#45;&gt;Node3 -->
<g id="edge46_Node000031_Node000003" class="edge">
<title>Node31&#45;&gt;Node3</title>
<g id="a_edge46_Node000031_Node000003"><a xlink:title=" ">
<path fill="none" stroke="#63b8ff" d="M1228.85,-373.95C1197.29,-364.24 1155.12,-351.27 1121.67,-340.98"/>
<polygon fill="#63b8ff" stroke="#63b8ff" points="1122.63,-337.61 1112.04,-338.01 1120.57,-344.3 1122.63,-337.61"/>
</a>
</g>
</g>
<!-- Node31&#45;&gt;Node25 -->
<g id="edge55_Node000031_Node000025" class="edge">
<title>Node31&#45;&gt;Node25</title>
<g id="a_edge55_Node000031_Node000025"><a xlink:title=" ">
<path fill="none" stroke="#63b8ff" d="M1349.33,-377.37C1457.96,-359.81 1646.5,-320.34 1646.5,-258 1646.5,-258 1646.5,-258 1646.5,-124 1646.5,-27.1 1498.05,-11.39 1420.09,-9.82"/>
<polygon fill="#63b8ff" stroke="#63b8ff" points="1420.08,-6.32 1410.03,-9.69 1419.99,-13.32 1420.08,-6.32"/>
</a>
</g>
</g>
<!-- Node32 -->
<g id="Node000032" class="node">
<title>Node32</title>
<g id="a_Node000032"><a xlink:href="_status_code_enum_8hpp.html" target="_top" xlink:title=" ">
<polygon fill="white" stroke="#666666" points="1324.5,-140 1200.5,-140 1200.5,-110 1324.5,-110 1324.5,-140"/>
<text text-anchor="start" x="1208.5" y="-128" font-family="Helvetica,sans-Serif" font-size="10.00">Thoth/Http/Response</text>
<text text-anchor="middle" x="1262.5" y="-117" font-family="Helvetica,sans-Serif" font-size="10.00">/StatusCodeEnum.hpp</text>
</a>
</g>
</g>
<!-- Node31&#45;&gt;Node32 -->
<g id="edge43_Node000031_Node000032" class="edge">
<title>Node31&#45;&gt;Node32</title>
<g id="a_edge43_Node000031_Node000032"><a xlink:title=" ">
<path fill="none" stroke="#63b8ff" d="M1273.85,-373.91C1271.91,-331.44 1266.08,-204.27 1263.62,-150.47"/>
<polygon fill="#63b8ff" stroke="#63b8ff" points="1267.1,-149.99 1263.15,-140.16 1260.11,-150.31 1267.1,-149.99"/>
</a>
</g>
</g>
<!-- Node33 -->
<g id="Node000033" class="node">
<title>Node33</title>
<g id="a_Node000033"><a xlink:href="_headers_8hpp.html" target="_top" xlink:title=" ">
<polygon fill="white" stroke="#666666" points="1429,-200.5 1296,-200.5 1296,-181.5 1429,-181.5 1429,-200.5"/>
<text text-anchor="middle" x="1362.5" y="-188.5" font-family="Helvetica,sans-Serif" font-size="10.00">Thoth/Http/Headers.hpp</text>
</a>
</g>
</g>
<!-- Node31&#45;&gt;Node33 -->
<g id="edge47_Node000031_Node000033" class="edge">
<title>Node31&#45;&gt;Node33</title>
<g id="a_edge47_Node000031_Node000033"><a xlink:title=" ">
<path fill="none" stroke="#63b8ff" d="M1280.83,-373.9C1296.46,-339.08 1336.9,-249.02 1354.32,-210.22"/>
<polygon fill="#63b8ff" stroke="#63b8ff" points="1357.68,-211.28 1358.58,-200.73 1351.29,-208.42 1357.68,-211.28"/>
</a>
</g>
</g>
<!-- Node32&#45;&gt;Node4 -->
<g id="edge44_Node000032_Node000004" class="edge">
<title>Node32&#45;&gt;Node4</title>
<g id="a_edge44_Node000032_Node000004"><a xlink:title=" ">
<path fill="none" stroke="#63b8ff" d="M1219.63,-109.99C1189,-99.98 1148.27,-86.67 1119.37,-77.22"/>
<polygon fill="#63b8ff" stroke="#63b8ff" points="1120.27,-73.83 1109.67,-74.05 1118.09,-80.49 1120.27,-73.83"/>
</a>
</g>
</g>
<!-- Node32&#45;&gt;Node20 -->
<g id="edge45_Node000032_Node000020" class="edge">
<title>Node32&#45;&gt;Node20</title>
<g id="a_edge45_Node000032_Node000020"><a xlink:title=" ">
<path fill="none" stroke="#63b8ff" d="M1262.5,-109.84C1262.5,-102.21 1262.5,-92.7 1262.5,-84.45"/>
<polygon fill="#63b8ff" stroke="#63b8ff" points="1266,-84.27 1262.5,-74.27 1259,-84.27 1266,-84.27"/>
</a>
</g>
</g>
<!-- Node33&#45;&gt;Node5 -->
<g id="edge52_Node000033_Node000005" class="edge">
<title>Node33&#45;&gt;Node5</title>
<g id="a_edge52_Node000033_Node000005"><a xlink:title=" ">
<path fill="none" stroke="#63b8ff" d="M1372.44,-181.34C1388.38,-166.4 1416.39,-134.94 1401.5,-110 1375.1,-65.78 1348.27,-71.57 1299.5,-55 1214.89,-26.26 1109.16,-15.82 1056.87,-12.24"/>
<polygon fill="#63b8ff" stroke="#63b8ff" points="1057.05,-8.75 1046.85,-11.6 1056.6,-15.73 1057.05,-8.75"/>
</a>
</g>
</g>
<!-- Node33&#45;&gt;Node7 -->
<g id="edge50_Node000033_Node000007" class="edge">
<title>Node33&#45;&gt;Node7</title>
<g id="a_edge50_Node000033_Node000007"><a xlink:title=" ">
<path fill="none" stroke="#63b8ff" d="M1329.98,-181.44C1284.32,-169.41 1201.53,-147.61 1154.54,-135.23"/>
<polygon fill="#63b8ff" stroke="#63b8ff" points="1155.37,-131.83 1144.81,-132.67 1153.59,-138.6 1155.37,-131.83"/>
</a>
</g>
</g>
<!-- Node33&#45;&gt;Node8 -->
<g id="edge51_Node000033_Node000008" class="edge">
<title>Node33&#45;&gt;Node8</title>
<g id="a_edge51_Node000033_Node000008"><a xlink:title=" ">
<path fill="none" stroke="#63b8ff" d="M1295.73,-188.8C1167.07,-185.72 889.75,-175.1 801.5,-140 781.51,-132.05 783.29,-118.44 763.5,-110 750.36,-104.4 555.97,-79.67 476.24,-69.69"/>
<polygon fill="#63b8ff" stroke="#63b8ff" points="476.57,-66.21 466.22,-68.44 475.71,-73.15 476.57,-66.21"/>
</a>
</g>
</g>
<!-- Node33&#45;&gt;Node20 -->
<g id="edge49_Node000033_Node000020" class="edge">
<title>Node33&#45;&gt;Node20</title>
<g id="a_edge49_Node000033_Node000020"><a xlink:title=" ">
<path fill="none" stroke="#63b8ff" d="M1429.32,-187.68C1512.44,-182.44 1637.87,-165.4 1589.5,-110 1552.43,-67.54 1379.2,-64.06 1300.99,-64.72"/>
<polygon fill="#63b8ff" stroke="#63b8ff" points="1300.57,-61.23 1290.61,-64.84 1300.65,-68.23 1300.57,-61.23"/>
</a>
</g>
</g>
<!-- Node33&#45;&gt;Node32 -->
<g id="edge48_Node000033_Node000032" class="edge">
<title>Node33&#45;&gt;Node32</title>
<g id="a_edge48_Node000033_Node000032"><a xlink:title=" ">
<path fill="none" stroke="#63b8ff" d="M1349.01,-181.37C1334.75,-172.24 1311.76,-157.53 1293.06,-145.56"/>
<polygon fill="#63b8ff" stroke="#63b8ff" points="1294.87,-142.56 1284.56,-140.12 1291.09,-148.45 1294.87,-142.56"/>
</a>
</g>
</g>
<!-- Node34 -->
<g id="Node000034" class="node">
<title>Node34</title>
<g id="a_Node000034"><a xlink:title=" ">
<polygon fill="#e0e0e0" stroke="#999999" points="1392.5,-134.5 1342.5,-134.5 1342.5,-115.5 1392.5,-115.5 1392.5,-134.5"/>
<text text-anchor="middle" x="1367.5" y="-122.5" font-family="Helvetica,sans-Serif" font-size="10.00">ranges</text>
</a>
</g>
</g>
<!-- Node33&#45;&gt;Node34 -->
<g id="edge53_Node000033_Node000034" class="edge">
<title>Node33&#45;&gt;Node34</title>
<g id="a_edge53_Node000033_Node000034"><a xlink:title=" ">
<path fill="none" stroke="#63b8ff" d="M1363.17,-181.37C1363.9,-172.07 1365.08,-156.98 1366.02,-144.9"/>
<polygon fill="#63b8ff" stroke="#63b8ff" points="1369.51,-145.15 1366.8,-134.91 1362.54,-144.6 1369.51,-145.15"/>
</a>
</g>
</g>
<!-- Node35 -->
<g id="Node000035" class="node">
<title>Node35</title>
<g id="a_Node000035"><a xlink:title=" ">
<polygon fill="#e0e0e0" stroke="#999999" points="1580,-134.5 1449,-134.5 1449,-115.5 1580,-115.5 1580,-134.5"/>
<text text-anchor="middle" x="1514.5" y="-122.5" font-family="Helvetica,sans-Serif" font-size="10.00">Thoth/Http/Headers.tpp</text>
</a>
</g>
</g>
<!-- Node33&#45;&gt;Node35 -->
<g id="edge54_Node000033_Node000035" class="edge">
<title>Node33&#45;&gt;Node35</title>
<g id="a_edge54_Node000033_Node000035"><a xlink:title=" ">
<path fill="none" stroke="#63b8ff" d="M1383,-181.37C1409.06,-170.39 1454.28,-151.36 1484.29,-138.72"/>
<polygon fill="#63b8ff" stroke="#63b8ff" points="1485.98,-141.81 1493.84,-134.7 1483.27,-135.35 1485.98,-141.81"/>
</a>
</g>
</g>
<!-- Node36&#45;&gt;Node31 -->
<g id="edge57_Node000036_Node000031" class="edge">
<title>Node36&#45;&gt;Node31</title>
<g id="a_edge57_Node000036_Node000031"><a xlink:title=" ">
<path fill="none" stroke="#63b8ff" d="M1178.49,-439.95C1196.12,-430.78 1219.33,-418.71 1238.52,-408.72"/>
<polygon fill="#63b8ff" stroke="#63b8ff" points="1240.31,-411.73 1247.57,-404.01 1237.08,-405.52 1240.31,-411.73"/>
</a>
</g>
</g>
</g>
</svg>
