<?xml version="1.0" encoding="UTF-8" standalone="no"?>
<!DOCTYPE svg PUBLIC "-//W3C//DTD SVG 1.1//EN"
 "http://www.w3.org/Graphics/SVG/1.1/DTD/svg11.dtd">
<!-- Generated by graphviz version 2.43.0 (0)
 -->
<!-- Title: include/Thoth/Http/Response/Response.hpp Pages: 1 -->
<svg width="1676pt" height="489pt"
 viewBox="0.00 0.00 1676.00 489.00" xmlns="http://www.w3.org/2000/svg" xmlns:xlink="http://www.w3.org/1999/xlink">
<g id="graph0" class="graph" transform="scale(1 1) rotate(0) translate(4 485)">
<title>include/Thoth/Http/Response/Response.hpp</title>
<!-- Node1 -->
<g id="Node000001" class="node">
<title>Node1</title>
<g id="a_Node000001"><a xlink:title=" ">
<polygon fill="#999999" stroke="#666666" points="679,-481 541,-481 541,-451 679,-451 679,-481"/>
<text text-anchor="start" x="549" y="-469" font-family="Helvetica,sans-Serif" font-size="10.00">include/Thoth/Http</text>
<text text-anchor="middle" x="610" y="-458" font-family="Helvetica,sans-Serif" font-size="10.00">/Response/Response.hpp</text>
</a>
</g>
</g>
<!-- Node2 -->
<g id="Node000002" class="node">
<title>Node2</title>
<g id="a_Node000002"><a xlink:href="_status_code_enum_8hpp.html" target="_top" xlink:title=" ">
<polygon fill="white" stroke="#666666" points="456,-151 332,-151 332,-121 456,-121 456,-151"/>
<text text-anchor="start" x="340" y="-139" font-family="Helvetica,sans-Serif" font-size="10.00">Thoth/Http/Response</text>
<text text-anchor="middle" x="394" y="-128" font-family="Helvetica,sans-Serif" font-size="10.00">/StatusCodeEnum.hpp</text>
</a>
</g>
</g>
<!-- Node1&#45;&gt;Node2 -->
<g id="edge1_Node000001_Node000002" class="edge">
<title>Node1&#45;&gt;Node2</title>
<g id="a_edge1_Node000001_Node000002"><a xlink:title=" ">
<path fill="none" stroke="#63b8ff" d="M540.76,-453.2C477.59,-437.99 394,-404.7 394,-335 394,-335 394,-335 394,-267 394,-230.07 394,-187.24 394,-161.14"/>
<polygon fill="#63b8ff" stroke="#63b8ff" points="397.5,-161.04 394,-151.04 390.5,-161.04 397.5,-161.04"/>
</a>
</g>
</g>
<!-- Node5 -->
<g id="Node000005" class="node">
<title>Node5</title>
<g id="a_Node000005"><a xlink:href="_post_method_8hpp.html" target="_top" xlink:title=" ">
<polygon fill="white" stroke="#666666" points="535.5,-349 422.5,-349 422.5,-319 535.5,-319 535.5,-349"/>
<text text-anchor="start" x="430.5" y="-337" font-family="Helvetica,sans-Serif" font-size="10.00">Thoth/Http/Methods</text>
<text text-anchor="middle" x="479" y="-326" font-family="Helvetica,sans-Serif" font-size="10.00">/PostMethod.hpp</text>
</a>
</g>
</g>
<!-- Node1&#45;&gt;Node5 -->
<g id="edge4_Node000001_Node000005" class="edge">
<title>Node1&#45;&gt;Node5</title>
<g id="a_edge4_Node000001_Node000005"><a xlink:title=" ">
<path fill="none" stroke="#63b8ff" d="M595.73,-450.84C572.8,-428.08 527.58,-383.21 500.65,-356.49"/>
<polygon fill="#63b8ff" stroke="#63b8ff" points="502.81,-353.7 493.25,-349.14 497.88,-358.67 502.81,-353.7"/>
</a>
</g>
</g>
<!-- Node20 -->
<g id="Node000020" class="node">
<title>Node20</title>
<g id="a_Node000020"><a xlink:href="_headers_8hpp.html" target="_top" xlink:title=" ">
<polygon fill="white" stroke="#666666" points="365.5,-211.5 232.5,-211.5 232.5,-192.5 365.5,-192.5 365.5,-211.5"/>
<text text-anchor="middle" x="299" y="-199.5" font-family="Helvetica,sans-Serif" font-size="10.00">Thoth/Http/Headers.hpp</text>
</a>
</g>
</g>
<!-- Node1&#45;&gt;Node20 -->
<g id="edge41_Node000001_Node000020" class="edge">
<title>Node1&#45;&gt;Node20</title>
<g id="a_edge41_Node000001_Node000020"><a xlink:title=" ">
<path fill="none" stroke="#63b8ff" d="M540.92,-457.28C482.25,-449.44 403.86,-435.51 380,-415 320.46,-363.83 304.53,-263.87 300.4,-222.08"/>
<polygon fill="#63b8ff" stroke="#63b8ff" points="303.87,-221.59 299.52,-211.93 296.89,-222.19 303.87,-221.59"/>
</a>
</g>
</g>
<!-- Node24 -->
<g id="Node000024" class="node">
<title>Node24</title>
<g id="a_Node000024"><a xlink:href="_get_method_8hpp.html" target="_top" xlink:title=" ">
<polygon fill="white" stroke="#666666" points="666.5,-349 553.5,-349 553.5,-319 666.5,-319 666.5,-349"/>
<text text-anchor="start" x="561.5" y="-337" font-family="Helvetica,sans-Serif" font-size="10.00">Thoth/Http/Methods</text>
<text text-anchor="middle" x="610" y="-326" font-family="Helvetica,sans-Serif" font-size="10.00">/GetMethod.hpp</text>
</a>
</g>
</g>
<!-- Node1&#45;&gt;Node24 -->
<g id="edge33_Node000001_Node000024" class="edge">
<title>Node1&#45;&gt;Node24</title>
<g id="a_edge33_Node000001_Node000024"><a xlink:title=" ">
<path fill="none" stroke="#63b8ff" d="M610,-450.84C610,-428.86 610,-386.27 610,-359.3"/>
<polygon fill="#63b8ff" stroke="#63b8ff" points="613.5,-359.14 610,-349.14 606.5,-359.14 613.5,-359.14"/>
</a>
</g>
</g>
<!-- Node25 -->
<g id="Node000025" class="node">
<title>Node25</title>
<g id="a_Node000025"><a xlink:href="_request_8hpp.html" target="_top" xlink:title=" ">
<polygon fill="white" stroke="#666666" points="772.5,-415 661.5,-415 661.5,-385 772.5,-385 772.5,-415"/>
<text text-anchor="start" x="669.5" y="-403" font-family="Helvetica,sans-Serif" font-size="10.00">Thoth/Http/Request</text>
<text text-anchor="middle" x="717" y="-392" font-family="Helvetica,sans-Serif" font-size="10.00">/Request.hpp</text>
</a>
</g>
</g>
<!-- Node1&#45;&gt;Node25 -->
<g id="edge35_Node000001_Node000025" class="edge">
<title>Node1&#45;&gt;Node25</title>
<g id="a_edge35_Node000001_Node000025"><a xlink:title=" ">
<path fill="none" stroke="#63b8ff" d="M633.48,-450.95C648.53,-441.95 668.27,-430.14 684.78,-420.27"/>
<polygon fill="#63b8ff" stroke="#63b8ff" points="686.79,-423.15 693.57,-415.01 683.19,-417.14 686.79,-423.15"/>
</a>
</g>
</g>
<!-- Node28 -->
<g id="Node000028" class="node">
<title>Node28</title>
<g id="a_Node000028"><a xlink:href="_json_8hpp.html" target="_top" xlink:title=" ">
<polygon fill="white" stroke="#666666" points="1263.5,-211.5 1144.5,-211.5 1144.5,-192.5 1263.5,-192.5 1263.5,-211.5"/>
<text text-anchor="middle" x="1204" y="-199.5" font-family="Helvetica,sans-Serif" font-size="10.00">Thoth/NJson/Json.hpp</text>
</a>
</g>
</g>
<!-- Node1&#45;&gt;Node28 -->
<g id="edge42_Node000001_Node000028" class="edge">
<title>Node1&#45;&gt;Node28</title>
<g id="a_edge42_Node000001_Node000028"><a xlink:title=" ">
<path fill="none" stroke="#63b8ff" d="M679.37,-456C766.93,-442.49 920.19,-411.58 1037,-349 1101.88,-314.24 1162.97,-250 1189.76,-219.68"/>
<polygon fill="#63b8ff" stroke="#63b8ff" points="1192.74,-221.59 1196.67,-211.75 1187.46,-216.99 1192.74,-221.59"/>
</a>
</g>
</g>
<!-- Node37 -->
<g id="Node000037" class="node">
<title>Node37</title>
<g id="a_Node000037"><a xlink:title=" ">
<polygon fill="#e0e0e0" stroke="#999999" points="1203.5,-415 1084.5,-415 1084.5,-385 1203.5,-385 1203.5,-415"/>
<text text-anchor="start" x="1092.5" y="-403" font-family="Helvetica,sans-Serif" font-size="10.00">Thoth/Http/Response</text>
<text text-anchor="middle" x="1144" y="-392" font-family="Helvetica,sans-Serif" font-size="10.00">/Response.tpp</text>
</a>
</g>
</g>
<!-- Node1&#45;&gt;Node37 -->
<g id="edge61_Node000001_Node000037" class="edge">
<title>Node1&#45;&gt;Node37</title>
<g id="a_edge61_Node000001_Node000037"><a xlink:title=" ">
<path fill="none" stroke="#63b8ff" d="M679.19,-459.19C769.39,-451.22 931.94,-435.53 1070,-415 1071.45,-414.78 1072.92,-414.56 1074.41,-414.33"/>
<polygon fill="#63b8ff" stroke="#63b8ff" points="1074.99,-417.78 1084.29,-412.71 1073.86,-410.87 1074.99,-417.78"/>
</a>
</g>
</g>
<!-- Node3 -->
<g id="Node000003" class="node">
<title>Node3</title>
<g id="a_Node000003"><a xlink:title=" ">
<polygon fill="#e0e0e0" stroke="#999999" points="618,-79.5 556,-79.5 556,-60.5 618,-60.5 618,-79.5"/>
<text text-anchor="middle" x="587" y="-67.5" font-family="Helvetica,sans-Serif" font-size="10.00">expected</text>
</a>
</g>
</g>
<!-- Node2&#45;&gt;Node3 -->
<g id="edge2_Node000002_Node000003" class="edge">
<title>Node2&#45;&gt;Node3</title>
<g id="a_edge2_Node000002_Node000003"><a xlink:title=" ">
<path fill="none" stroke="#63b8ff" d="M436.35,-120.95C470.95,-109.48 519.26,-93.46 551.77,-82.68"/>
<polygon fill="#63b8ff" stroke="#63b8ff" points="552.92,-85.99 561.31,-79.52 550.72,-79.34 552.92,-85.99"/>
</a>
</g>
</g>
<!-- Node4 -->
<g id="Node000004" class="node">
<title>Node4</title>
<g id="a_Node000004"><a xlink:title=" ">
<polygon fill="#e0e0e0" stroke="#999999" points="422,-79.5 366,-79.5 366,-60.5 422,-60.5 422,-79.5"/>
<text text-anchor="middle" x="394" y="-67.5" font-family="Helvetica,sans-Serif" font-size="10.00">optional</text>
</a>
</g>
</g>
<!-- Node2&#45;&gt;Node4 -->
<g id="edge3_Node000002_Node000004" class="edge">
<title>Node2&#45;&gt;Node4</title>
<g id="a_edge3_Node000002_Node000004"><a xlink:title=" ">
<path fill="none" stroke="#63b8ff" d="M394,-120.8C394,-111.7 394,-99.79 394,-89.9"/>
<polygon fill="#63b8ff" stroke="#63b8ff" points="397.5,-89.84 394,-79.84 390.5,-89.84 397.5,-89.84"/>
</a>
</g>
</g>
<!-- Node6 -->
<g id="Node000006" class="node">
<title>Node6</title>
<g id="a_Node000006"><a xlink:href="_method_concept_8hpp.html" target="_top" xlink:title=" ">
<polygon fill="white" stroke="#666666" points="627.5,-283 478.5,-283 478.5,-253 627.5,-253 627.5,-283"/>
<text text-anchor="start" x="486.5" y="-271" font-family="Helvetica,sans-Serif" font-size="10.00">Thoth/Http/Methods</text>
<text text-anchor="middle" x="553" y="-260" font-family="Helvetica,sans-Serif" font-size="10.00">/_base/MethodConcept.hpp</text>
</a>
</g>
</g>
<!-- Node5&#45;&gt;Node6 -->
<g id="edge5_Node000005_Node000006" class="edge">
<title>Node5&#45;&gt;Node6</title>
<g id="a_edge5_Node000005_Node000006"><a xlink:title=" ">
<path fill="none" stroke="#63b8ff" d="M495.42,-318.8C505.29,-310.26 518.02,-299.25 529,-289.75"/>
<polygon fill="#63b8ff" stroke="#63b8ff" points="531.35,-292.35 536.62,-283.16 526.77,-287.06 531.35,-292.35"/>
</a>
</g>
</g>
<!-- Node6&#45;&gt;Node2 -->
<g id="edge6_Node000006_Node000002" class="edge">
<title>Node6&#45;&gt;Node2</title>
<g id="a_edge6_Node000006_Node000002"><a xlink:title=" ">
<path fill="none" stroke="#63b8ff" d="M535.68,-252.84C507.61,-229.88 452.02,-184.44 419.44,-157.8"/>
<polygon fill="#63b8ff" stroke="#63b8ff" points="421.25,-154.76 411.3,-151.14 416.82,-160.18 421.25,-154.76"/>
</a>
</g>
</g>
<!-- Node7 -->
<g id="Node000007" class="node">
<title>Node7</title>
<g id="a_Node000007"><a xlink:href="_url_8hpp.html" target="_top" xlink:title=" ">
<polygon fill="white" stroke="#666666" points="731.5,-217 620.5,-217 620.5,-187 731.5,-187 731.5,-217"/>
<text text-anchor="start" x="628.5" y="-205" font-family="Helvetica,sans-Serif" font-size="10.00">Thoth/Http/Request</text>
<text text-anchor="middle" x="676" y="-194" font-family="Helvetica,sans-Serif" font-size="10.00">/Url.hpp</text>
</a>
</g>
</g>
<!-- Node6&#45;&gt;Node7 -->
<g id="edge7_Node000006_Node000007" class="edge">
<title>Node6&#45;&gt;Node7</title>
<g id="a_edge7_Node000006_Node000007"><a xlink:title=" ">
<path fill="none" stroke="#63b8ff" d="M579.99,-252.95C597.62,-243.78 620.83,-231.71 640.02,-221.72"/>
<polygon fill="#63b8ff" stroke="#63b8ff" points="641.81,-224.73 649.07,-217.01 638.58,-218.52 641.81,-224.73"/>
</a>
</g>
</g>
<!-- Node6&#45;&gt;Node20 -->
<g id="edge24_Node000006_Node000020" class="edge">
<title>Node6&#45;&gt;Node20</title>
<g id="a_edge24_Node000006_Node000020"><a xlink:title=" ">
<path fill="none" stroke="#63b8ff" d="M497.26,-252.95C450.75,-241.24 385.39,-224.77 342.63,-213.99"/>
<polygon fill="#63b8ff" stroke="#63b8ff" points="343.36,-210.57 332.8,-211.52 341.64,-217.35 343.36,-210.57"/>
</a>
</g>
</g>
<!-- Node23 -->
<g id="Node000023" class="node">
<title>Node23</title>
<g id="a_Node000023"><a xlink:title=" ">
<polygon fill="#e0e0e0" stroke="#999999" points="1160.5,-79.5 1087.5,-79.5 1087.5,-60.5 1160.5,-60.5 1160.5,-79.5"/>
<text text-anchor="middle" x="1124" y="-67.5" font-family="Helvetica,sans-Serif" font-size="10.00">string_view</text>
</a>
</g>
</g>
<!-- Node6&#45;&gt;Node23 -->
<g id="edge32_Node000006_Node000023" class="edge">
<title>Node6&#45;&gt;Node23</title>
<g id="a_edge32_Node000006_Node000023"><a xlink:title=" ">
<path fill="none" stroke="#63b8ff" d="M611.57,-252.97C648.65,-243.69 697.47,-230.73 740,-217 874.01,-173.73 1029.72,-110.36 1093.95,-83.63"/>
<polygon fill="#63b8ff" stroke="#63b8ff" points="1095.57,-86.75 1103.45,-79.67 1092.88,-80.29 1095.57,-86.75"/>
</a>
</g>
</g>
<!-- Node7&#45;&gt;Node3 -->
<g id="edge8_Node000007_Node000003" class="edge">
<title>Node7&#45;&gt;Node3</title>
<g id="a_edge8_Node000007_Node000003"><a xlink:title=" ">
<path fill="none" stroke="#63b8ff" d="M620.17,-192.27C575.21,-183.96 517.23,-169.93 503,-151 494.99,-140.34 496.41,-132.59 503,-121 512.98,-103.45 531.82,-91.41 549.14,-83.55"/>
<polygon fill="#63b8ff" stroke="#63b8ff" points="550.67,-86.71 558.54,-79.61 547.96,-80.25 550.67,-86.71"/>
</a>
</g>
</g>
<!-- Node8 -->
<g id="Node000008" class="node">
<title>Node8</title>
<g id="a_Node000008"><a xlink:title=" ">
<polygon fill="#e0e0e0" stroke="#999999" points="872,-79.5 828,-79.5 828,-60.5 872,-60.5 872,-79.5"/>
<text text-anchor="middle" x="850" y="-67.5" font-family="Helvetica,sans-Serif" font-size="10.00">string</text>
</a>
</g>
</g>
<!-- Node7&#45;&gt;Node8 -->
<g id="edge9_Node000007_Node000008" class="edge">
<title>Node7&#45;&gt;Node8</title>
<g id="a_edge9_Node000007_Node000008"><a xlink:title=" ">
<path fill="none" stroke="#63b8ff" d="M731.72,-194.4C783.41,-187 854.87,-173.05 872,-151 886.24,-132.67 873.83,-105.71 862.69,-88.26"/>
<polygon fill="#63b8ff" stroke="#63b8ff" points="865.33,-85.93 856.8,-79.65 859.56,-89.88 865.33,-85.93"/>
</a>
</g>
</g>
<!-- Node9 -->
<g id="Node000009" class="node">
<title>Node9</title>
<g id="a_Node000009"><a xlink:href="_query_params_8hpp.html" target="_top" xlink:title=" ">
<polygon fill="white" stroke="#666666" points="829.5,-151 718.5,-151 718.5,-121 829.5,-121 829.5,-151"/>
<text text-anchor="start" x="726.5" y="-139" font-family="Helvetica,sans-Serif" font-size="10.00">Thoth/Http/Request</text>
<text text-anchor="middle" x="774" y="-128" font-family="Helvetica,sans-Serif" font-size="10.00">/QueryParams.hpp</text>
</a>
</g>
</g>
<!-- Node7&#45;&gt;Node9 -->
<g id="edge10_Node000007_Node000009" class="edge">
<title>Node7&#45;&gt;Node9</title>
<g id="a_edge10_Node000007_Node000009"><a xlink:title=" ">
<path fill="none" stroke="#63b8ff" d="M697.75,-186.8C711.33,-177.93 728.99,-166.39 743.9,-156.66"/>
<polygon fill="#63b8ff" stroke="#63b8ff" points="745.85,-159.56 752.31,-151.16 742.02,-153.7 745.85,-159.56"/>
</a>
</g>
</g>
<!-- Node19 -->
<g id="Node000019" class="node">
<title>Node19</title>
<g id="a_Node000019"><a xlink:title=" ">
<polygon fill="#e0e0e0" stroke="#999999" points="623.5,-151 512.5,-151 512.5,-121 623.5,-121 623.5,-151"/>
<text text-anchor="start" x="520.5" y="-139" font-family="Helvetica,sans-Serif" font-size="10.00">Thoth/Http/Request</text>
<text text-anchor="middle" x="568" y="-128" font-family="Helvetica,sans-Serif" font-size="10.00">/Url.tpp</text>
</a>
</g>
</g>
<!-- Node7&#45;&gt;Node19 -->
<g id="edge23_Node000007_Node000019" class="edge">
<title>Node7&#45;&gt;Node19</title>
<g id="a_edge23_Node000007_Node000019"><a xlink:title=" ">
<path fill="none" stroke="#63b8ff" d="M652.3,-186.95C637.11,-177.95 617.18,-166.14 600.52,-156.27"/>
<polygon fill="#63b8ff" stroke="#63b8ff" points="602.03,-153.1 591.65,-151.01 598.46,-159.12 602.03,-153.1"/>
</a>
</g>
</g>
<!-- Node9&#45;&gt;Node3 -->
<g id="edge11_Node000009_Node000003" class="edge">
<title>Node9&#45;&gt;Node3</title>
<g id="a_edge11_Node000009_Node000003"><a xlink:title=" ">
<path fill="none" stroke="#63b8ff" d="M732.96,-120.95C699.59,-109.53 653.03,-93.6 621.54,-82.82"/>
<polygon fill="#63b8ff" stroke="#63b8ff" points="622.48,-79.44 611.89,-79.52 620.21,-86.07 622.48,-79.44"/>
</a>
</g>
</g>
<!-- Node9&#45;&gt;Node8 -->
<g id="edge14_Node000009_Node000008" class="edge">
<title>Node9&#45;&gt;Node8</title>
<g id="a_edge14_Node000009_Node000008"><a xlink:title=" ">
<path fill="none" stroke="#63b8ff" d="M790.87,-120.8C802.95,-110.62 819.21,-96.93 831.62,-86.48"/>
<polygon fill="#63b8ff" stroke="#63b8ff" points="834.1,-88.96 839.5,-79.84 829.59,-83.61 834.1,-88.96"/>
</a>
</g>
</g>
<!-- Node10 -->
<g id="Node000010" class="node">
<title>Node10</title>
<g id="a_Node000010"><a xlink:title=" ">
<polygon fill="#e0e0e0" stroke="#999999" points="522,-79.5 472,-79.5 472,-60.5 522,-60.5 522,-79.5"/>
<text text-anchor="middle" x="497" y="-67.5" font-family="Helvetica,sans-Serif" font-size="10.00">format</text>
</a>
</g>
</g>
<!-- Node9&#45;&gt;Node10 -->
<g id="edge12_Node000009_Node000010" class="edge">
<title>Node9&#45;&gt;Node10</title>
<g id="a_edge12_Node000009_Node000010"><a xlink:title=" ">
<path fill="none" stroke="#63b8ff" d="M718.29,-123.64C672.21,-114.03 605.14,-99.53 547,-85 542.17,-83.79 537.1,-82.46 532.11,-81.1"/>
<polygon fill="#63b8ff" stroke="#63b8ff" points="532.68,-77.62 522.11,-78.33 530.81,-84.37 532.68,-77.62"/>
</a>
</g>
</g>
<!-- Node11 -->
<g id="Node000011" class="node">
<title>Node11</title>
<g id="a_Node000011"><a xlink:title=" ">
<polygon fill="#e0e0e0" stroke="#999999" points="764.5,-19 717.5,-19 717.5,0 764.5,0 764.5,-19"/>
<text text-anchor="middle" x="741" y="-7" font-family="Helvetica,sans-Serif" font-size="10.00">vector</text>
</a>
</g>
</g>
<!-- Node9&#45;&gt;Node11 -->
<g id="edge13_Node000009_Node000011" class="edge">
<title>Node9&#45;&gt;Node11</title>
<g id="a_edge13_Node000009_Node000011"><a xlink:title=" ">
<path fill="none" stroke="#63b8ff" d="M732.16,-120.93C715.67,-113.09 698.44,-101.5 689,-85 682.38,-73.43 683.42,-67.11 689,-55 694.75,-42.52 705.91,-32.24 716.42,-24.71"/>
<polygon fill="#63b8ff" stroke="#63b8ff" points="718.57,-27.49 724.97,-19.05 714.7,-21.65 718.57,-27.49"/>
</a>
</g>
</g>
<!-- Node12 -->
<g id="Node000012" class="node">
<title>Node12</title>
<g id="a_Node000012"><a xlink:href="_linear_map_8hpp.html" target="_top" xlink:title=" ">
<polygon fill="white" stroke="#666666" points="1069.5,-79.5 928.5,-79.5 928.5,-60.5 1069.5,-60.5 1069.5,-79.5"/>
<text text-anchor="middle" x="999" y="-67.5" font-family="Helvetica,sans-Serif" font-size="10.00">Thoth/Dsa/LinearMap.hpp</text>
</a>
</g>
</g>
<!-- Node9&#45;&gt;Node12 -->
<g id="edge15_Node000009_Node000012" class="edge">
<title>Node9&#45;&gt;Node12</title>
<g id="a_edge15_Node000009_Node000012"><a xlink:title=" ">
<path fill="none" stroke="#63b8ff" d="M823.38,-120.95C864.23,-109.34 921.49,-93.05 959.39,-82.27"/>
<polygon fill="#63b8ff" stroke="#63b8ff" points="960.4,-85.62 969.06,-79.52 958.48,-78.89 960.4,-85.62"/>
</a>
</g>
</g>
<!-- Node18 -->
<g id="Node000018" class="node">
<title>Node18</title>
<g id="a_Node000018"><a xlink:title=" ">
<polygon fill="#e0e0e0" stroke="#999999" points="809.5,-85 698.5,-85 698.5,-55 809.5,-55 809.5,-85"/>
<text text-anchor="start" x="706.5" y="-73" font-family="Helvetica,sans-Serif" font-size="10.00">Thoth/Http/Request</text>
<text text-anchor="middle" x="754" y="-62" font-family="Helvetica,sans-Serif" font-size="10.00">/QueryParams.tpp</text>
</a>
</g>
</g>
<!-- Node9&#45;&gt;Node18 -->
<g id="edge22_Node000009_Node000018" class="edge">
<title>Node9&#45;&gt;Node18</title>
<g id="a_edge22_Node000009_Node000018"><a xlink:title=" ">
<path fill="none" stroke="#63b8ff" d="M769.56,-120.8C767.18,-113.17 764.18,-103.57 761.45,-94.84"/>
<polygon fill="#63b8ff" stroke="#63b8ff" points="764.75,-93.66 758.43,-85.16 758.07,-95.75 764.75,-93.66"/>
</a>
</g>
</g>
<!-- Node12&#45;&gt;Node11 -->
<g id="edge16_Node000012_Node000011" class="edge">
<title>Node12&#45;&gt;Node11</title>
<g id="a_edge16_Node000012_Node000011"><a xlink:title=" ">
<path fill="none" stroke="#63b8ff" d="M961.48,-60.49C911.23,-49.1 822.8,-29.05 774.61,-18.12"/>
<polygon fill="#63b8ff" stroke="#63b8ff" points="775.21,-14.67 764.69,-15.87 773.66,-21.5 775.21,-14.67"/>
</a>
</g>
</g>
<!-- Node13 -->
<g id="Node000013" class="node">
<title>Node13</title>
<g id="a_Node000013"><a xlink:title=" ">
<polygon fill="#e0e0e0" stroke="#999999" points="1076.5,-19 1031.5,-19 1031.5,0 1076.5,0 1076.5,-19"/>
<text text-anchor="middle" x="1054" y="-7" font-family="Helvetica,sans-Serif" font-size="10.00">utility</text>
</a>
</g>
</g>
<!-- Node12&#45;&gt;Node13 -->
<g id="edge17_Node000012_Node000013" class="edge">
<title>Node12&#45;&gt;Node13</title>
<g id="a_edge17_Node000012_Node000013"><a xlink:title=" ">
<path fill="none" stroke="#63b8ff" d="M1007.12,-60.37C1015.4,-51.55 1028.47,-37.66 1038.7,-26.77"/>
<polygon fill="#63b8ff" stroke="#63b8ff" points="1041.55,-28.85 1045.85,-19.17 1036.45,-24.06 1041.55,-28.85"/>
</a>
</g>
</g>
<!-- Node14 -->
<g id="Node000014" class="node">
<title>Node14</title>
<g id="a_Node000014"><a xlink:title=" ">
<polygon fill="#e0e0e0" stroke="#999999" points="1454,-19 1394,-19 1394,0 1454,0 1454,-19"/>
<text text-anchor="middle" x="1424" y="-7" font-family="Helvetica,sans-Serif" font-size="10.00">concepts</text>
</a>
</g>
</g>
<!-- Node12&#45;&gt;Node14 -->
<g id="edge18_Node000012_Node000014" class="edge">
<title>Node12&#45;&gt;Node14</title>
<g id="a_edge18_Node000012_Node000014"><a xlink:title=" ">
<path fill="none" stroke="#63b8ff" d="M1045.9,-60.43C1056.75,-58.55 1068.27,-56.63 1079,-55 1189.01,-38.29 1319.37,-22.58 1383.81,-15.09"/>
<polygon fill="#63b8ff" stroke="#63b8ff" points="1384.41,-18.54 1393.94,-13.92 1383.6,-11.59 1384.41,-18.54"/>
</a>
</g>
</g>
<!-- Node15 -->
<g id="Node000015" class="node">
<title>Node15</title>
<g id="a_Node000015"><a xlink:title=" ">
<polygon fill="#e0e0e0" stroke="#999999" points="1159.5,-19 1094.5,-19 1094.5,0 1159.5,0 1159.5,-19"/>
<text text-anchor="middle" x="1127" y="-7" font-family="Helvetica,sans-Serif" font-size="10.00">functional</text>
</a>
</g>
</g>
<!-- Node12&#45;&gt;Node15 -->
<g id="edge19_Node000012_Node000015" class="edge">
<title>Node12&#45;&gt;Node15</title>
<g id="a_edge19_Node000012_Node000015"><a xlink:title=" ">
<path fill="none" stroke="#63b8ff" d="M1017.61,-60.49C1039.04,-50.7 1074.44,-34.52 1099.15,-23.23"/>
<polygon fill="#63b8ff" stroke="#63b8ff" points="1100.72,-26.36 1108.37,-19.02 1097.82,-19.99 1100.72,-26.36"/>
</a>
</g>
</g>
<!-- Node16 -->
<g id="Node000016" class="node">
<title>Node16</title>
<g id="a_Node000016"><a xlink:title=" ">
<polygon fill="#e0e0e0" stroke="#999999" points="856.5,-19 797.5,-19 797.5,0 856.5,0 856.5,-19"/>
<text text-anchor="middle" x="827" y="-7" font-family="Helvetica,sans-Serif" font-size="10.00">compare</text>
</a>
</g>
</g>
<!-- Node12&#45;&gt;Node16 -->
<g id="edge20_Node000012_Node000016" class="edge">
<title>Node12&#45;&gt;Node16</title>
<g id="a_edge20_Node000012_Node000016"><a xlink:title=" ">
<path fill="none" stroke="#63b8ff" d="M973.99,-60.49C944.44,-50.44 895.09,-33.66 861.81,-22.34"/>
<polygon fill="#63b8ff" stroke="#63b8ff" points="862.63,-18.92 852.04,-19.02 860.38,-25.55 862.63,-18.92"/>
</a>
</g>
</g>
<!-- Node17 -->
<g id="Node000017" class="node">
<title>Node17</title>
<g id="a_Node000017"><a xlink:title=" ">
<polygon fill="#e0e0e0" stroke="#999999" points="1013.5,-19 874.5,-19 874.5,0 1013.5,0 1013.5,-19"/>
<text text-anchor="middle" x="944" y="-7" font-family="Helvetica,sans-Serif" font-size="10.00">Thoth/Dsa/LinearMap.tpp</text>
</a>
</g>
</g>
<!-- Node12&#45;&gt;Node17 -->
<g id="edge21_Node000012_Node000017" class="edge">
<title>Node12&#45;&gt;Node17</title>
<g id="a_edge21_Node000012_Node000017"><a xlink:title=" ">
<path fill="none" stroke="#63b8ff" d="M990.88,-60.37C982.6,-51.55 969.53,-37.66 959.3,-26.77"/>
<polygon fill="#63b8ff" stroke="#63b8ff" points="961.55,-24.06 952.15,-19.17 956.45,-28.85 961.55,-24.06"/>
</a>
</g>
</g>
<!-- Node20&#45;&gt;Node2 -->
<g id="edge25_Node000020_Node000002" class="edge">
<title>Node20&#45;&gt;Node2</title>
<g id="a_edge25_Node000020_Node000002"><a xlink:title=" ">
<path fill="none" stroke="#63b8ff" d="M311.81,-192.37C325.3,-183.28 347.01,-168.66 364.72,-156.72"/>
<polygon fill="#63b8ff" stroke="#63b8ff" points="366.71,-159.61 373.05,-151.12 362.8,-153.8 366.71,-159.61"/>
</a>
</g>
</g>
<!-- Node20&#45;&gt;Node4 -->
<g id="edge26_Node000020_Node000004" class="edge">
<title>Node20&#45;&gt;Node4</title>
<g id="a_edge26_Node000020_Node000004"><a xlink:title=" ">
<path fill="none" stroke="#63b8ff" d="M294.7,-192.27C287.67,-176.66 275.86,-143.48 290,-121 304.46,-98 332.79,-85.34 356.23,-78.51"/>
<polygon fill="#63b8ff" stroke="#63b8ff" points="357.16,-81.89 365.93,-75.93 355.36,-75.12 357.16,-81.89"/>
</a>
</g>
</g>
<!-- Node20&#45;&gt;Node8 -->
<g id="edge29_Node000020_Node000008" class="edge">
<title>Node20&#45;&gt;Node8</title>
<g id="a_edge29_Node000020_Node000008"><a xlink:title=" ">
<path fill="none" stroke="#63b8ff" d="M365.53,-197.01C505.93,-188.28 821.04,-167.03 838,-151 854.4,-135.5 854.94,-107.95 853.07,-89.58"/>
<polygon fill="#63b8ff" stroke="#63b8ff" points="856.52,-88.95 851.71,-79.51 849.58,-89.89 856.52,-88.95"/>
</a>
</g>
</g>
<!-- Node20&#45;&gt;Node10 -->
<g id="edge27_Node000020_Node000010" class="edge">
<title>Node20&#45;&gt;Node10</title>
<g id="a_edge27_Node000020_Node000010"><a xlink:title=" ">
<path fill="none" stroke="#63b8ff" d="M299.04,-192.17C299.6,-175.79 303.2,-140.57 323,-121 333,-111.12 413.97,-90.64 461.86,-79.19"/>
<polygon fill="#63b8ff" stroke="#63b8ff" points="462.9,-82.54 471.82,-76.82 461.29,-75.73 462.9,-82.54"/>
</a>
</g>
</g>
<!-- Node20&#45;&gt;Node11 -->
<g id="edge28_Node000020_Node000011" class="edge">
<title>Node20&#45;&gt;Node11</title>
<g id="a_edge28_Node000020_Node000011"><a xlink:title=" ">
<path fill="none" stroke="#63b8ff" d="M293.32,-192.23C284.29,-177.1 268.79,-145.38 280,-121 298.83,-80.05 315.7,-73.05 357,-55 419.61,-27.64 625.53,-15.65 707.2,-11.89"/>
<polygon fill="#63b8ff" stroke="#63b8ff" points="707.59,-15.38 717.42,-11.43 707.28,-8.38 707.59,-15.38"/>
</a>
</g>
</g>
<!-- Node21 -->
<g id="Node000021" class="node">
<title>Node21</title>
<g id="a_Node000021"><a xlink:title=" ">
<polygon fill="#e0e0e0" stroke="#999999" points="50,-145.5 0,-145.5 0,-126.5 50,-126.5 50,-145.5"/>
<text text-anchor="middle" x="25" y="-133.5" font-family="Helvetica,sans-Serif" font-size="10.00">ranges</text>
</a>
</g>
</g>
<!-- Node20&#45;&gt;Node21 -->
<g id="edge30_Node000020_Node000021" class="edge">
<title>Node20&#45;&gt;Node21</title>
<g id="a_edge30_Node000020_Node000021"><a xlink:title=" ">
<path fill="none" stroke="#63b8ff" d="M243.46,-192.44C194.34,-184.15 121.05,-170.06 59,-151 57.32,-150.48 55.61,-149.92 53.9,-149.32"/>
<polygon fill="#63b8ff" stroke="#63b8ff" points="54.78,-145.91 44.19,-145.63 52.29,-152.45 54.78,-145.91"/>
</a>
</g>
</g>
<!-- Node22 -->
<g id="Node000022" class="node">
<title>Node22</title>
<g id="a_Node000022"><a xlink:title=" ">
<polygon fill="#e0e0e0" stroke="#999999" points="199.5,-145.5 68.5,-145.5 68.5,-126.5 199.5,-126.5 199.5,-145.5"/>
<text text-anchor="middle" x="134" y="-133.5" font-family="Helvetica,sans-Serif" font-size="10.00">Thoth/Http/Headers.tpp</text>
</a>
</g>
</g>
<!-- Node20&#45;&gt;Node22 -->
<g id="edge31_Node000020_Node000022" class="edge">
<title>Node20&#45;&gt;Node22</title>
<g id="a_edge31_Node000020_Node000022"><a xlink:title=" ">
<path fill="none" stroke="#63b8ff" d="M276.75,-192.37C248.13,-181.27 198.24,-161.92 165.67,-149.28"/>
<polygon fill="#63b8ff" stroke="#63b8ff" points="166.75,-145.95 156.16,-145.6 164.22,-152.48 166.75,-145.95"/>
</a>
</g>
</g>
<!-- Node24&#45;&gt;Node6 -->
<g id="edge34_Node000024_Node000006" class="edge">
<title>Node24&#45;&gt;Node6</title>
<g id="a_edge34_Node000024_Node000006"><a xlink:title=" ">
<path fill="none" stroke="#63b8ff" d="M597.35,-318.8C590.04,-310.59 580.7,-300.1 572.48,-290.87"/>
<polygon fill="#63b8ff" stroke="#63b8ff" points="574.88,-288.3 565.61,-283.16 569.65,-292.96 574.88,-288.3"/>
</a>
</g>
</g>
<!-- Node25&#45;&gt;Node5 -->
<g id="edge39_Node000025_Node000005" class="edge">
<title>Node25&#45;&gt;Node5</title>
<g id="a_edge39_Node000025_Node000005"><a xlink:title=" ">
<path fill="none" stroke="#63b8ff" d="M664.77,-384.95C628.34,-375.16 579.57,-362.05 541.15,-351.71"/>
<polygon fill="#63b8ff" stroke="#63b8ff" points="541.67,-348.23 531.11,-349.01 539.86,-354.99 541.67,-348.23"/>
</a>
</g>
</g>
<!-- Node25&#45;&gt;Node7 -->
<g id="edge37_Node000025_Node000007" class="edge">
<title>Node25&#45;&gt;Node7</title>
<g id="a_edge37_Node000025_Node000007"><a xlink:title=" ">
<path fill="none" stroke="#63b8ff" d="M760.25,-384.95C776.99,-377.15 794.4,-365.59 804,-349 810.68,-337.46 809.4,-331.19 804,-319 784.97,-276.08 741.35,-242.27 710.33,-222.49"/>
<polygon fill="#63b8ff" stroke="#63b8ff" points="711.89,-219.34 701.55,-217.04 708.2,-225.28 711.89,-219.34"/>
</a>
</g>
</g>
<!-- Node25&#45;&gt;Node24 -->
<g id="edge38_Node000025_Node000024" class="edge">
<title>Node25&#45;&gt;Node24</title>
<g id="a_edge38_Node000025_Node000024"><a xlink:title=" ">
<path fill="none" stroke="#63b8ff" d="M693.52,-384.95C678.47,-375.95 658.73,-364.14 642.22,-354.27"/>
<polygon fill="#63b8ff" stroke="#63b8ff" points="643.81,-351.14 633.43,-349.01 640.21,-357.15 643.81,-351.14"/>
</a>
</g>
</g>
<!-- Node26 -->
<g id="Node000026" class="node">
<title>Node26</title>
<g id="a_Node000026"><a xlink:title=" ">
<polygon fill="#e0e0e0" stroke="#999999" points="1027.5,-343.5 852.5,-343.5 852.5,-324.5 1027.5,-324.5 1027.5,-343.5"/>
<text text-anchor="middle" x="940" y="-331.5" font-family="Helvetica,sans-Serif" font-size="10.00">Hermes/Socket/ClientSocket.hpp</text>
</a>
</g>
</g>
<!-- Node25&#45;&gt;Node26 -->
<g id="edge36_Node000025_Node000026" class="edge">
<title>Node25&#45;&gt;Node26</title>
<g id="a_edge36_Node000025_Node000026"><a xlink:title=" ">
<path fill="none" stroke="#63b8ff" d="M765.94,-384.95C806.25,-373.38 862.7,-357.18 900.26,-346.41"/>
<polygon fill="#63b8ff" stroke="#63b8ff" points="901.68,-349.64 910.32,-343.52 899.74,-342.91 901.68,-349.64"/>
</a>
</g>
</g>
<!-- Node27 -->
<g id="Node000027" class="node">
<title>Node27</title>
<g id="a_Node000027"><a xlink:title=" ">
<polygon fill="#e0e0e0" stroke="#999999" points="795.5,-349 684.5,-349 684.5,-319 795.5,-319 795.5,-349"/>
<text text-anchor="start" x="692.5" y="-337" font-family="Helvetica,sans-Serif" font-size="10.00">Thoth/Http/Request</text>
<text text-anchor="middle" x="740" y="-326" font-family="Helvetica,sans-Serif" font-size="10.00">/Request.tpp</text>
</a>
</g>
</g>
<!-- Node25&#45;&gt;Node27 -->
<g id="edge40_Node000025_Node000027" class="edge">
<title>Node25&#45;&gt;Node27</title>
<g id="a_edge40_Node000025_Node000027"><a xlink:title=" ">
<path fill="none" stroke="#63b8ff" d="M722.1,-384.8C724.84,-377.17 728.29,-367.57 731.43,-358.84"/>
<polygon fill="#63b8ff" stroke="#63b8ff" points="734.82,-359.76 734.91,-349.16 728.23,-357.39 734.82,-359.76"/>
</a>
</g>
</g>
<!-- Node28&#45;&gt;Node3 -->
<g id="edge48_Node000028_Node000003" class="edge">
<title>Node28&#45;&gt;Node3</title>
<g id="a_edge48_Node000028_Node000003"><a xlink:title=" ">
<path fill="none" stroke="#63b8ff" d="M1144.35,-198.73C1030.69,-193.78 787.46,-180.08 709,-151 687.15,-142.9 685.41,-133.9 666,-121 647.24,-108.53 625.61,-94.89 609.73,-85.01"/>
<polygon fill="#63b8ff" stroke="#63b8ff" points="611.45,-81.96 601.11,-79.66 607.76,-87.91 611.45,-81.96"/>
</a>
</g>
</g>
<!-- Node28&#45;&gt;Node4 -->
<g id="edge47_Node000028_Node000004" class="edge">
<title>Node28&#45;&gt;Node4</title>
<g id="a_edge47_Node000028_Node000004"><a xlink:title=" ">
<path fill="none" stroke="#63b8ff" d="M1144.5,-200.09C1023,-197.48 750.71,-187.6 666,-151 647.5,-143.01 650.01,-130.04 632,-121 627.51,-118.75 498.16,-92.21 432.08,-78.74"/>
<polygon fill="#63b8ff" stroke="#63b8ff" points="432.54,-75.26 422.04,-76.7 431.14,-82.12 432.54,-75.26"/>
</a>
</g>
</g>
<!-- Node28&#45;&gt;Node8 -->
<g id="edge46_Node000028_Node000008" class="edge">
<title>Node28&#45;&gt;Node8</title>
<g id="a_edge46_Node000028_Node000008"><a xlink:title=" ">
<path fill="none" stroke="#63b8ff" d="M1144.39,-196.21C1093.15,-190.4 1018.21,-177.82 958,-151 921.82,-134.88 886.13,-104.97 866.2,-86.64"/>
<polygon fill="#63b8ff" stroke="#63b8ff" points="868.35,-83.85 858.66,-79.56 863.56,-88.96 868.35,-83.85"/>
</a>
</g>
</g>
<!-- Node28&#45;&gt;Node11 -->
<g id="edge45_Node000028_Node000011" class="edge">
<title>Node28&#45;&gt;Node11</title>
<g id="a_edge45_Node000028_Node000011"><a xlink:title=" ">
<path fill="none" stroke="#63b8ff" d="M1180.88,-192.41C1154.81,-182.65 1111.19,-166.11 1074,-151 1005.01,-122.96 984.24,-122.66 920,-85 901.14,-73.94 900.38,-65.13 881,-55 846.68,-37.06 803.82,-24.74 774.62,-17.69"/>
<polygon fill="#63b8ff" stroke="#63b8ff" points="775.06,-14.2 764.52,-15.33 773.46,-21.02 775.06,-14.2"/>
</a>
</g>
</g>
<!-- Node28&#45;&gt;Node14 -->
<g id="edge49_Node000028_Node000014" class="edge">
<title>Node28&#45;&gt;Node14</title>
<g id="a_edge49_Node000028_Node000014"><a xlink:title=" ">
<path fill="none" stroke="#63b8ff" d="M1209.04,-192.28C1219.05,-175.76 1243.06,-139.88 1273,-121 1324.43,-88.56 1362.36,-128.35 1405,-85 1419.45,-70.31 1423.38,-46.25 1424.23,-29.45"/>
<polygon fill="#63b8ff" stroke="#63b8ff" points="1427.73,-29.26 1424.41,-19.2 1420.73,-29.13 1427.73,-29.26"/>
</a>
</g>
</g>
<!-- Node29 -->
<g id="Node000029" class="node">
<title>Node29</title>
<g id="a_Node000029"><a xlink:title=" ">
<polygon fill="#e0e0e0" stroke="#999999" points="1503.5,-79.5 1452.5,-79.5 1452.5,-60.5 1503.5,-60.5 1503.5,-79.5"/>
<text text-anchor="middle" x="1478" y="-67.5" font-family="Helvetica,sans-Serif" font-size="10.00">variant</text>
</a>
</g>
</g>
<!-- Node28&#45;&gt;Node29 -->
<g id="edge43_Node000028_Node000029" class="edge">
<title>Node28&#45;&gt;Node29</title>
<g id="a_edge43_Node000028_Node000029"><a xlink:title=" ">
<path fill="none" stroke="#63b8ff" d="M1237.95,-192.45C1269.21,-183.97 1316.42,-169.55 1355,-151 1394.08,-132.21 1435.58,-103.03 1459,-85.59"/>
<polygon fill="#63b8ff" stroke="#63b8ff" points="1461.17,-88.34 1467.05,-79.53 1456.95,-82.75 1461.17,-88.34"/>
</a>
</g>
</g>
<!-- Node30 -->
<g id="Node000030" class="node">
<title>Node30</title>
<g id="a_Node000030"><a xlink:title=" ">
<polygon fill="#e0e0e0" stroke="#999999" points="1396,-79.5 1338,-79.5 1338,-60.5 1396,-60.5 1396,-79.5"/>
<text text-anchor="middle" x="1367" y="-67.5" font-family="Helvetica,sans-Serif" font-size="10.00">memory</text>
</a>
</g>
</g>
<!-- Node28&#45;&gt;Node30 -->
<g id="edge44_Node000028_Node000030" class="edge">
<title>Node28&#45;&gt;Node30</title>
<g id="a_edge44_Node000028_Node000030"><a xlink:title=" ">
<path fill="none" stroke="#63b8ff" d="M1248.29,-192.44C1275.05,-185.3 1308.27,-172.66 1331,-151 1348.53,-134.29 1358.17,-107.48 1362.96,-89.56"/>
<polygon fill="#63b8ff" stroke="#63b8ff" points="1366.39,-90.26 1365.34,-79.72 1359.59,-88.61 1366.39,-90.26"/>
</a>
</g>
</g>
<!-- Node31 -->
<g id="Node000031" class="node">
<title>Node31</title>
<g id="a_Node000031"><a xlink:title=" ">
<polygon fill="#e0e0e0" stroke="#999999" points="1322,-145.5 1282,-145.5 1282,-126.5 1322,-126.5 1322,-145.5"/>
<text text-anchor="middle" x="1302" y="-133.5" font-family="Helvetica,sans-Serif" font-size="10.00">span</text>
</a>
</g>
</g>
<!-- Node28&#45;&gt;Node31 -->
<g id="edge50_Node000028_Node000031" class="edge">
<title>Node28&#45;&gt;Node31</title>
<g id="a_edge50_Node000028_Node000031"><a xlink:title=" ">
<path fill="none" stroke="#63b8ff" d="M1217.22,-192.37C1233.36,-181.82 1260.91,-163.84 1280.21,-151.23"/>
<polygon fill="#63b8ff" stroke="#63b8ff" points="1282.22,-154.1 1288.68,-145.7 1278.39,-148.24 1282.22,-154.1"/>
</a>
</g>
</g>
<!-- Node32 -->
<g id="Node000032" class="node">
<title>Node32</title>
<g id="a_Node000032"><a xlink:href="_cow_8hpp.html" target="_top" xlink:title=" ">
<polygon fill="white" stroke="#666666" points="1662,-145.5 1552,-145.5 1552,-126.5 1662,-126.5 1662,-145.5"/>
<text text-anchor="middle" x="1607" y="-133.5" font-family="Helvetica,sans-Serif" font-size="10.00">Thoth/Dsa/Cow.hpp</text>
</a>
</g>
</g>
<!-- Node28&#45;&gt;Node32 -->
<g id="edge51_Node000028_Node000032" class="edge">
<title>Node28&#45;&gt;Node32</title>
<g id="a_edge51_Node000028_Node000032"><a xlink:title=" ">
<path fill="none" stroke="#63b8ff" d="M1263.6,-193.47C1331.47,-184.61 1445.56,-168.82 1543,-151 1548.52,-149.99 1554.3,-148.85 1560.02,-147.66"/>
<polygon fill="#63b8ff" stroke="#63b8ff" points="1561.14,-151 1570.2,-145.5 1559.69,-144.16 1561.14,-151"/>
</a>
</g>
</g>
<!-- Node34 -->
<g id="Node000034" class="node">
<title>Node34</title>
<g id="a_Node000034"><a xlink:href="_string_ref_8hpp.html" target="_top" xlink:title=" ">
<polygon fill="white" stroke="#666666" points="1225.5,-145.5 1082.5,-145.5 1082.5,-126.5 1225.5,-126.5 1225.5,-145.5"/>
<text text-anchor="middle" x="1154" y="-133.5" font-family="Helvetica,sans-Serif" font-size="10.00">Thoth/NJson/StringRef.hpp</text>
</a>
</g>
</g>
<!-- Node28&#45;&gt;Node34 -->
<g id="edge55_Node000028_Node000034" class="edge">
<title>Node28&#45;&gt;Node34</title>
<g id="a_edge55_Node000028_Node000034"><a xlink:title=" ">
<path fill="none" stroke="#63b8ff" d="M1197.26,-192.37C1189.62,-182.59 1176.99,-166.42 1167.34,-154.08"/>
<polygon fill="#63b8ff" stroke="#63b8ff" points="1169.87,-151.63 1160.96,-145.91 1164.36,-155.94 1169.87,-151.63"/>
</a>
</g>
</g>
<!-- Node36 -->
<g id="Node000036" class="node">
<title>Node36</title>
<g id="a_Node000036"><a xlink:title=" ">
<polygon fill="#e0e0e0" stroke="#999999" points="1533.5,-145.5 1416.5,-145.5 1416.5,-126.5 1533.5,-126.5 1533.5,-145.5"/>
<text text-anchor="middle" x="1475" y="-133.5" font-family="Helvetica,sans-Serif" font-size="10.00">Thoth/NJson/Json.tpp</text>
</a>
</g>
</g>
<!-- Node28&#45;&gt;Node36 -->
<g id="edge60_Node000028_Node000036" class="edge">
<title>Node28&#45;&gt;Node36</title>
<g id="a_edge60_Node000028_Node000036"><a xlink:title=" ">
<path fill="none" stroke="#63b8ff" d="M1240.27,-192.44C1289.05,-180.92 1375.8,-160.43 1429.08,-147.84"/>
<polygon fill="#63b8ff" stroke="#63b8ff" points="1430.02,-151.22 1438.95,-145.51 1428.41,-144.41 1430.02,-151.22"/>
</a>
</g>
</g>
<!-- Node32&#45;&gt;Node14 -->
<g id="edge52_Node000032_Node000014" class="edge">
<title>Node32&#45;&gt;Node14</title>
<g id="a_edge52_Node000032_Node000014"><a xlink:title=" ">
<path fill="none" stroke="#63b8ff" d="M1597.44,-126.34C1577.25,-108.16 1530.69,-66.7 1513,-55 1494.28,-42.62 1471.63,-31.34 1453.87,-23.24"/>
<polygon fill="#63b8ff" stroke="#63b8ff" points="1455.12,-19.96 1444.56,-19.07 1452.26,-26.35 1455.12,-19.96"/>
</a>
</g>
</g>
<!-- Node32&#45;&gt;Node29 -->
<g id="edge53_Node000032_Node000029" class="edge">
<title>Node32&#45;&gt;Node29</title>
<g id="a_edge53_Node000032_Node000029"><a xlink:title=" ">
<path fill="none" stroke="#63b8ff" d="M1589.6,-126.37C1567.77,-115.54 1530.11,-96.85 1504.64,-84.22"/>
<polygon fill="#63b8ff" stroke="#63b8ff" points="1506.05,-81.01 1495.53,-79.7 1502.94,-87.28 1506.05,-81.01"/>
</a>
</g>
</g>
<!-- Node33 -->
<g id="Node000033" class="node">
<title>Node33</title>
<g id="a_Node000033"><a xlink:title=" ">
<polygon fill="#e0e0e0" stroke="#999999" points="1668,-79.5 1560,-79.5 1560,-60.5 1668,-60.5 1668,-79.5"/>
<text text-anchor="middle" x="1614" y="-67.5" font-family="Helvetica,sans-Serif" font-size="10.00">Thoth/Dsa/Cow.tpp</text>
</a>
</g>
</g>
<!-- Node32&#45;&gt;Node33 -->
<g id="edge54_Node000032_Node000033" class="edge">
<title>Node32&#45;&gt;Node33</title>
<g id="a_edge54_Node000032_Node000033"><a xlink:title=" ">
<path fill="none" stroke="#63b8ff" d="M1607.94,-126.37C1608.96,-117.07 1610.61,-101.98 1611.93,-89.9"/>
<polygon fill="#63b8ff" stroke="#63b8ff" points="1615.42,-90.23 1613.03,-79.91 1608.46,-89.47 1615.42,-90.23"/>
</a>
</g>
</g>
<!-- Node34&#45;&gt;Node8 -->
<g id="edge58_Node000034_Node000008" class="edge">
<title>Node34&#45;&gt;Node8</title>
<g id="a_edge58_Node000034_Node000008"><a xlink:title=" ">
<path fill="none" stroke="#63b8ff" d="M1113.32,-126.44C1052.21,-113.57 937.99,-89.52 882.25,-77.79"/>
<polygon fill="#63b8ff" stroke="#63b8ff" points="882.74,-74.32 872.23,-75.68 881.3,-81.17 882.74,-74.32"/>
</a>
</g>
</g>
<!-- Node34&#45;&gt;Node23 -->
<g id="edge57_Node000034_Node000023" class="edge">
<title>Node34&#45;&gt;Node23</title>
<g id="a_edge57_Node000034_Node000023"><a xlink:title=" ">
<path fill="none" stroke="#63b8ff" d="M1149.95,-126.37C1145.51,-116.88 1138.23,-101.36 1132.51,-89.16"/>
<polygon fill="#63b8ff" stroke="#63b8ff" points="1135.59,-87.47 1128.17,-79.91 1129.25,-90.45 1135.59,-87.47"/>
</a>
</g>
</g>
<!-- Node34&#45;&gt;Node30 -->
<g id="edge56_Node000034_Node000030" class="edge">
<title>Node34&#45;&gt;Node30</title>
<g id="a_edge56_Node000034_Node000030"><a xlink:title=" ">
<path fill="none" stroke="#63b8ff" d="M1186.8,-126.42C1222.13,-116.98 1279.89,-101.04 1329,-85 1330.9,-84.38 1332.86,-83.72 1334.82,-83.04"/>
<polygon fill="#63b8ff" stroke="#63b8ff" points="1336.34,-86.22 1344.59,-79.57 1334,-79.62 1336.34,-86.22"/>
</a>
</g>
</g>
<!-- Node35 -->
<g id="Node000035" class="node">
<title>Node35</title>
<g id="a_Node000035"><a xlink:title=" ">
<polygon fill="#e0e0e0" stroke="#999999" points="1319.5,-79.5 1178.5,-79.5 1178.5,-60.5 1319.5,-60.5 1319.5,-79.5"/>
<text text-anchor="middle" x="1249" y="-67.5" font-family="Helvetica,sans-Serif" font-size="10.00">Thoth/NJson/StringRef.tpp</text>
</a>
</g>
</g>
<!-- Node34&#45;&gt;Node35 -->
<g id="edge59_Node000034_Node000035" class="edge">
<title>Node34&#45;&gt;Node35</title>
<g id="a_edge59_Node000034_Node000035"><a xlink:title=" ">
<path fill="none" stroke="#63b8ff" d="M1166.81,-126.37C1182.39,-115.87 1208.93,-98 1227.62,-85.4"/>
<polygon fill="#63b8ff" stroke="#63b8ff" points="1229.75,-88.19 1236.09,-79.7 1225.84,-82.38 1229.75,-88.19"/>
</a>
</g>
</g>
</g>
</svg>
