<?xml version="1.0" encoding="UTF-8" standalone="no"?>
<!DOCTYPE svg PUBLIC "-//W3C//DTD SVG 1.1//EN"
 "http://www.w3.org/Graphics/SVG/1.1/DTD/svg11.dtd">
<!-- Generated by graphviz version 2.43.0 (0)
 -->
<!-- Title: include/Thoth/Http/Response/Response.hpp Pages: 1 -->
<svg width="1604pt" height="489pt"
 viewBox="0.00 0.00 1603.50 489.00" xmlns="http://www.w3.org/2000/svg" xmlns:xlink="http://www.w3.org/1999/xlink">
<g id="graph0" class="graph" transform="scale(1 1) rotate(0) translate(4 485)">
<title>include/Thoth/Http/Response/Response.hpp</title>
<!-- Node1 -->
<g id="Node000001" class="node">
<title>Node1</title>
<g id="a_Node000001"><a xlink:title=" ">
<polygon fill="#999999" stroke="#666666" points="495,-481 357,-481 357,-451 495,-451 495,-481"/>
<text text-anchor="start" x="365" y="-469" font-family="Helvetica,sans-Serif" font-size="10.00">include/Thoth/Http</text>
<text text-anchor="middle" x="426" y="-458" font-family="Helvetica,sans-Serif" font-size="10.00">/Response/Response.hpp</text>
</a>
</g>
</g>
<!-- Node2 -->
<g id="Node000002" class="node">
<title>Node2</title>
<g id="a_Node000002"><a xlink:href="_status_code_enum_8hpp.html" target="_top" xlink:title=" ">
<polygon fill="white" stroke="#666666" points="124,-151 0,-151 0,-121 124,-121 124,-151"/>
<text text-anchor="start" x="8" y="-139" font-family="Helvetica,sans-Serif" font-size="10.00">Thoth/Http/Response</text>
<text text-anchor="middle" x="62" y="-128" font-family="Helvetica,sans-Serif" font-size="10.00">/StatusCodeEnum.hpp</text>
</a>
</g>
</g>
<!-- Node1&#45;&gt;Node2 -->
<g id="edge1_Node000001_Node000002" class="edge">
<title>Node1&#45;&gt;Node2</title>
<g id="a_edge1_Node000001_Node000002"><a xlink:title=" ">
<path fill="none" stroke="#63b8ff" d="M356.65,-462.94C271.43,-456.28 138,-430.59 138,-335 138,-335 138,-335 138,-267 138,-224.02 106.65,-182.62 84.22,-158.51"/>
<polygon fill="#63b8ff" stroke="#63b8ff" points="86.47,-155.79 77.02,-151.01 81.42,-160.65 86.47,-155.79"/>
</a>
</g>
</g>
<!-- Node5 -->
<g id="Node000005" class="node">
<title>Node5</title>
<g id="a_Node000005"><a xlink:href="_post_method_8hpp.html" target="_top" xlink:title=" ">
<polygon fill="white" stroke="#666666" points="351.5,-349 238.5,-349 238.5,-319 351.5,-319 351.5,-349"/>
<text text-anchor="start" x="246.5" y="-337" font-family="Helvetica,sans-Serif" font-size="10.00">Thoth/Http/Methods</text>
<text text-anchor="middle" x="295" y="-326" font-family="Helvetica,sans-Serif" font-size="10.00">/PostMethod.hpp</text>
</a>
</g>
</g>
<!-- Node1&#45;&gt;Node5 -->
<g id="edge4_Node000001_Node000005" class="edge">
<title>Node1&#45;&gt;Node5</title>
<g id="a_edge4_Node000001_Node000005"><a xlink:title=" ">
<path fill="none" stroke="#63b8ff" d="M411.73,-450.84C388.8,-428.08 343.58,-383.21 316.65,-356.49"/>
<polygon fill="#63b8ff" stroke="#63b8ff" points="318.81,-353.7 309.25,-349.14 313.88,-358.67 318.81,-353.7"/>
</a>
</g>
</g>
<!-- Node20 -->
<g id="Node000020" class="node">
<title>Node20</title>
<g id="a_Node000020"><a xlink:href="_headers_8hpp.html" target="_top" xlink:title=" ">
<polygon fill="white" stroke="#666666" points="436.5,-211.5 303.5,-211.5 303.5,-192.5 436.5,-192.5 436.5,-211.5"/>
<text text-anchor="middle" x="370" y="-199.5" font-family="Helvetica,sans-Serif" font-size="10.00">Thoth/Http/Headers.hpp</text>
</a>
</g>
</g>
<!-- Node1&#45;&gt;Node20 -->
<g id="edge41_Node000001_Node000020" class="edge">
<title>Node1&#45;&gt;Node20</title>
<g id="a_edge41_Node000001_Node000020"><a xlink:title=" ">
<path fill="none" stroke="#63b8ff" d="M375.43,-450.88C328.35,-434.74 260.94,-403.27 230,-349 196.99,-291.11 289.85,-238.82 340.11,-215.64"/>
<polygon fill="#63b8ff" stroke="#63b8ff" points="341.57,-218.82 349.25,-211.52 338.69,-212.43 341.57,-218.82"/>
</a>
</g>
</g>
<!-- Node24 -->
<g id="Node000024" class="node">
<title>Node24</title>
<g id="a_Node000024"><a xlink:href="_get_method_8hpp.html" target="_top" xlink:title=" ">
<polygon fill="white" stroke="#666666" points="482.5,-349 369.5,-349 369.5,-319 482.5,-319 482.5,-349"/>
<text text-anchor="start" x="377.5" y="-337" font-family="Helvetica,sans-Serif" font-size="10.00">Thoth/Http/Methods</text>
<text text-anchor="middle" x="426" y="-326" font-family="Helvetica,sans-Serif" font-size="10.00">/GetMethod.hpp</text>
</a>
</g>
</g>
<!-- Node1&#45;&gt;Node24 -->
<g id="edge33_Node000001_Node000024" class="edge">
<title>Node1&#45;&gt;Node24</title>
<g id="a_edge33_Node000001_Node000024"><a xlink:title=" ">
<path fill="none" stroke="#63b8ff" d="M426,-450.84C426,-428.86 426,-386.27 426,-359.3"/>
<polygon fill="#63b8ff" stroke="#63b8ff" points="429.5,-359.14 426,-349.14 422.5,-359.14 429.5,-359.14"/>
</a>
</g>
</g>
<!-- Node25 -->
<g id="Node000025" class="node">
<title>Node25</title>
<g id="a_Node000025"><a xlink:href="_request_8hpp.html" target="_top" xlink:title=" ">
<polygon fill="white" stroke="#666666" points="588.5,-415 477.5,-415 477.5,-385 588.5,-385 588.5,-415"/>
<text text-anchor="start" x="485.5" y="-403" font-family="Helvetica,sans-Serif" font-size="10.00">Thoth/Http/Request</text>
<text text-anchor="middle" x="533" y="-392" font-family="Helvetica,sans-Serif" font-size="10.00">/Request.hpp</text>
</a>
</g>
</g>
<!-- Node1&#45;&gt;Node25 -->
<g id="edge35_Node000001_Node000025" class="edge">
<title>Node1&#45;&gt;Node25</title>
<g id="a_edge35_Node000001_Node000025"><a xlink:title=" ">
<path fill="none" stroke="#63b8ff" d="M449.48,-450.95C464.53,-441.95 484.27,-430.14 500.78,-420.27"/>
<polygon fill="#63b8ff" stroke="#63b8ff" points="502.79,-423.15 509.57,-415.01 499.19,-417.14 502.79,-423.15"/>
</a>
</g>
</g>
<!-- Node28 -->
<g id="Node000028" class="node">
<title>Node28</title>
<g id="a_Node000028"><a xlink:href="_json_8hpp.html" target="_top" xlink:title=" ">
<polygon fill="white" stroke="#666666" points="1231.5,-211.5 1112.5,-211.5 1112.5,-192.5 1231.5,-192.5 1231.5,-211.5"/>
<text text-anchor="middle" x="1172" y="-199.5" font-family="Helvetica,sans-Serif" font-size="10.00">Thoth/NJson/Json.hpp</text>
</a>
</g>
</g>
<!-- Node1&#45;&gt;Node28 -->
<g id="edge42_Node000001_Node000028" class="edge">
<title>Node1&#45;&gt;Node28</title>
<g id="a_edge42_Node000001_Node000028"><a xlink:title=" ">
<path fill="none" stroke="#63b8ff" d="M490.68,-450.92C575.22,-431.73 727.31,-394.49 853,-349 965.68,-308.22 1093.59,-243.88 1146.76,-216.29"/>
<polygon fill="#63b8ff" stroke="#63b8ff" points="1148.55,-219.3 1155.79,-211.58 1145.31,-213.1 1148.55,-219.3"/>
</a>
</g>
</g>
<!-- Node37 -->
<g id="Node000037" class="node">
<title>Node37</title>
<g id="a_Node000037"><a xlink:title=" ">
<polygon fill="#e0e0e0" stroke="#999999" points="1019.5,-415 900.5,-415 900.5,-385 1019.5,-385 1019.5,-415"/>
<text text-anchor="start" x="908.5" y="-403" font-family="Helvetica,sans-Serif" font-size="10.00">Thoth/Http/Response</text>
<text text-anchor="middle" x="960" y="-392" font-family="Helvetica,sans-Serif" font-size="10.00">/Response.tpp</text>
</a>
</g>
</g>
<!-- Node1&#45;&gt;Node37 -->
<g id="edge60_Node000001_Node000037" class="edge">
<title>Node1&#45;&gt;Node37</title>
<g id="a_edge60_Node000001_Node000037"><a xlink:title=" ">
<path fill="none" stroke="#63b8ff" d="M495.19,-459.19C585.39,-451.22 747.94,-435.53 886,-415 887.45,-414.78 888.92,-414.56 890.41,-414.33"/>
<polygon fill="#63b8ff" stroke="#63b8ff" points="890.99,-417.78 900.29,-412.71 889.86,-410.87 890.99,-417.78"/>
</a>
</g>
</g>
<!-- Node3 -->
<g id="Node000003" class="node">
<title>Node3</title>
<g id="a_Node000003"><a xlink:title=" ">
<polygon fill="#e0e0e0" stroke="#999999" points="170,-79.5 108,-79.5 108,-60.5 170,-60.5 170,-79.5"/>
<text text-anchor="middle" x="139" y="-67.5" font-family="Helvetica,sans-Serif" font-size="10.00">expected</text>
</a>
</g>
</g>
<!-- Node2&#45;&gt;Node3 -->
<g id="edge2_Node000002_Node000003" class="edge">
<title>Node2&#45;&gt;Node3</title>
<g id="a_edge2_Node000002_Node000003"><a xlink:title=" ">
<path fill="none" stroke="#63b8ff" d="M79.09,-120.8C91.33,-110.62 107.8,-96.93 120.38,-86.48"/>
<polygon fill="#63b8ff" stroke="#63b8ff" points="122.91,-88.93 128.36,-79.84 118.43,-83.54 122.91,-88.93"/>
</a>
</g>
</g>
<!-- Node4 -->
<g id="Node000004" class="node">
<title>Node4</title>
<g id="a_Node000004"><a xlink:title=" ">
<polygon fill="#e0e0e0" stroke="#999999" points="321,-79.5 265,-79.5 265,-60.5 321,-60.5 321,-79.5"/>
<text text-anchor="middle" x="293" y="-67.5" font-family="Helvetica,sans-Serif" font-size="10.00">optional</text>
</a>
</g>
</g>
<!-- Node2&#45;&gt;Node4 -->
<g id="edge3_Node000002_Node000004" class="edge">
<title>Node2&#45;&gt;Node4</title>
<g id="a_edge3_Node000002_Node000004"><a xlink:title=" ">
<path fill="none" stroke="#63b8ff" d="M112.69,-120.95C155.61,-109.07 216.17,-92.29 255.01,-81.52"/>
<polygon fill="#63b8ff" stroke="#63b8ff" points="256.17,-84.83 264.88,-78.79 254.31,-78.09 256.17,-84.83"/>
</a>
</g>
</g>
<!-- Node6 -->
<g id="Node000006" class="node">
<title>Node6</title>
<g id="a_Node000006"><a xlink:href="_method_concept_8hpp.html" target="_top" xlink:title=" ">
<polygon fill="white" stroke="#666666" points="472.5,-283 323.5,-283 323.5,-253 472.5,-253 472.5,-283"/>
<text text-anchor="start" x="331.5" y="-271" font-family="Helvetica,sans-Serif" font-size="10.00">Thoth/Http/Methods</text>
<text text-anchor="middle" x="398" y="-260" font-family="Helvetica,sans-Serif" font-size="10.00">/_base/MethodConcept.hpp</text>
</a>
</g>
</g>
<!-- Node5&#45;&gt;Node6 -->
<g id="edge5_Node000005_Node000006" class="edge">
<title>Node5&#45;&gt;Node6</title>
<g id="a_edge5_Node000005_Node000006"><a xlink:title=" ">
<path fill="none" stroke="#63b8ff" d="M317.6,-318.95C331.96,-310.03 350.74,-298.36 366.55,-288.54"/>
<polygon fill="#63b8ff" stroke="#63b8ff" points="368.8,-291.26 375.45,-283.01 365.11,-285.32 368.8,-291.26"/>
</a>
</g>
</g>
<!-- Node6&#45;&gt;Node2 -->
<g id="edge6_Node000006_Node000002" class="edge">
<title>Node6&#45;&gt;Node2</title>
<g id="a_edge6_Node000006_Node000002"><a xlink:title=" ">
<path fill="none" stroke="#63b8ff" d="M361.72,-252.96C300.18,-229.15 175.44,-180.89 107.91,-154.76"/>
<polygon fill="#63b8ff" stroke="#63b8ff" points="108.97,-151.42 98.38,-151.08 106.44,-157.95 108.97,-151.42"/>
</a>
</g>
</g>
<!-- Node7 -->
<g id="Node000007" class="node">
<title>Node7</title>
<g id="a_Node000007"><a xlink:href="_url_8hpp.html" target="_top" xlink:title=" ">
<polygon fill="white" stroke="#666666" points="678.5,-217 567.5,-217 567.5,-187 678.5,-187 678.5,-217"/>
<text text-anchor="start" x="575.5" y="-205" font-family="Helvetica,sans-Serif" font-size="10.00">Thoth/Http/Request</text>
<text text-anchor="middle" x="623" y="-194" font-family="Helvetica,sans-Serif" font-size="10.00">/Url.hpp</text>
</a>
</g>
</g>
<!-- Node6&#45;&gt;Node7 -->
<g id="edge7_Node000006_Node000007" class="edge">
<title>Node6&#45;&gt;Node7</title>
<g id="a_edge7_Node000006_Node000007"><a xlink:title=" ">
<path fill="none" stroke="#63b8ff" d="M447.38,-252.95C481.67,-243.2 527.53,-230.16 563.78,-219.84"/>
<polygon fill="#63b8ff" stroke="#63b8ff" points="565.08,-223.11 573.74,-217.01 563.16,-216.38 565.08,-223.11"/>
</a>
</g>
</g>
<!-- Node6&#45;&gt;Node20 -->
<g id="edge24_Node000006_Node000020" class="edge">
<title>Node6&#45;&gt;Node20</title>
<g id="a_edge24_Node000006_Node000020"><a xlink:title=" ">
<path fill="none" stroke="#63b8ff" d="M391.79,-252.8C387.72,-243.5 382.37,-231.27 377.99,-221.26"/>
<polygon fill="#63b8ff" stroke="#63b8ff" points="381.08,-219.6 373.87,-211.84 374.67,-222.41 381.08,-219.6"/>
</a>
</g>
</g>
<!-- Node23 -->
<g id="Node000023" class="node">
<title>Node23</title>
<g id="a_Node000023"><a xlink:title=" ">
<polygon fill="#e0e0e0" stroke="#999999" points="908.5,-79.5 835.5,-79.5 835.5,-60.5 908.5,-60.5 908.5,-79.5"/>
<text text-anchor="middle" x="872" y="-67.5" font-family="Helvetica,sans-Serif" font-size="10.00">string_view</text>
</a>
</g>
</g>
<!-- Node6&#45;&gt;Node23 -->
<g id="edge32_Node000006_Node000023" class="edge">
<title>Node6&#45;&gt;Node23</title>
<g id="a_edge32_Node000006_Node000023"><a xlink:title=" ">
<path fill="none" stroke="#63b8ff" d="M472.68,-258.52C589.22,-243.65 806.11,-208.82 855,-151 869.44,-133.92 872.55,-107.58 872.8,-89.83"/>
<polygon fill="#63b8ff" stroke="#63b8ff" points="876.3,-89.54 872.64,-79.6 869.3,-89.65 876.3,-89.54"/>
</a>
</g>
</g>
<!-- Node7&#45;&gt;Node3 -->
<g id="edge8_Node000007_Node000003" class="edge">
<title>Node7&#45;&gt;Node3</title>
<g id="a_edge8_Node000007_Node000003"><a xlink:title=" ">
<path fill="none" stroke="#63b8ff" d="M577.97,-186.94C524.2,-170.34 431.41,-142.29 351,-121 291.78,-105.32 222.6,-89.46 179.8,-79.93"/>
<polygon fill="#63b8ff" stroke="#63b8ff" points="180.55,-76.51 170.03,-77.76 179.03,-83.34 180.55,-76.51"/>
</a>
</g>
</g>
<!-- Node8 -->
<g id="Node000008" class="node">
<title>Node8</title>
<g id="a_Node000008"><a xlink:title=" ">
<polygon fill="#e0e0e0" stroke="#999999" points="817,-79.5 773,-79.5 773,-60.5 817,-60.5 817,-79.5"/>
<text text-anchor="middle" x="795" y="-67.5" font-family="Helvetica,sans-Serif" font-size="10.00">string</text>
</a>
</g>
</g>
<!-- Node7&#45;&gt;Node8 -->
<g id="edge9_Node000007_Node000008" class="edge">
<title>Node7&#45;&gt;Node8</title>
<g id="a_edge9_Node000007_Node000008"><a xlink:title=" ">
<path fill="none" stroke="#63b8ff" d="M678.51,-195.9C735.73,-189.36 819.3,-175.78 839,-151 855.25,-130.56 832.36,-103.29 813.97,-86.45"/>
<polygon fill="#63b8ff" stroke="#63b8ff" points="815.84,-83.44 806,-79.51 811.25,-88.72 815.84,-83.44"/>
</a>
</g>
</g>
<!-- Node9 -->
<g id="Node000009" class="node">
<title>Node9</title>
<g id="a_Node000009"><a xlink:href="_query_params_8hpp.html" target="_top" xlink:title=" ">
<polygon fill="white" stroke="#666666" points="661.5,-151 550.5,-151 550.5,-121 661.5,-121 661.5,-151"/>
<text text-anchor="start" x="558.5" y="-139" font-family="Helvetica,sans-Serif" font-size="10.00">Thoth/Http/Request</text>
<text text-anchor="middle" x="606" y="-128" font-family="Helvetica,sans-Serif" font-size="10.00">/QueryParams.hpp</text>
</a>
</g>
</g>
<!-- Node7&#45;&gt;Node9 -->
<g id="edge10_Node000007_Node000009" class="edge">
<title>Node7&#45;&gt;Node9</title>
<g id="a_edge10_Node000007_Node000009"><a xlink:title=" ">
<path fill="none" stroke="#63b8ff" d="M619.23,-186.8C617.2,-179.17 614.65,-169.57 612.33,-160.84"/>
<polygon fill="#63b8ff" stroke="#63b8ff" points="615.71,-159.93 609.76,-151.16 608.95,-161.73 615.71,-159.93"/>
</a>
</g>
</g>
<!-- Node19 -->
<g id="Node000019" class="node">
<title>Node19</title>
<g id="a_Node000019"><a xlink:title=" ">
<polygon fill="#e0e0e0" stroke="#999999" points="829.5,-151 718.5,-151 718.5,-121 829.5,-121 829.5,-151"/>
<text text-anchor="start" x="726.5" y="-139" font-family="Helvetica,sans-Serif" font-size="10.00">Thoth/Http/Request</text>
<text text-anchor="middle" x="774" y="-128" font-family="Helvetica,sans-Serif" font-size="10.00">/Url.tpp</text>
</a>
</g>
</g>
<!-- Node7&#45;&gt;Node19 -->
<g id="edge23_Node000007_Node000019" class="edge">
<title>Node7&#45;&gt;Node19</title>
<g id="a_edge23_Node000007_Node000019"><a xlink:title=" ">
<path fill="none" stroke="#63b8ff" d="M656.14,-186.95C678.27,-177.58 707.57,-165.16 731.42,-155.05"/>
<polygon fill="#63b8ff" stroke="#63b8ff" points="733.1,-158.14 740.94,-151.01 730.37,-151.69 733.1,-158.14"/>
</a>
</g>
</g>
<!-- Node9&#45;&gt;Node4 -->
<g id="edge11_Node000009_Node000004" class="edge">
<title>Node9&#45;&gt;Node4</title>
<g id="a_edge11_Node000009_Node000004"><a xlink:title=" ">
<path fill="none" stroke="#63b8ff" d="M550.35,-127.96C494.12,-120.14 405.08,-105.82 330,-85 327.71,-84.37 325.36,-83.65 323.02,-82.88"/>
<polygon fill="#63b8ff" stroke="#63b8ff" points="324.12,-79.55 313.52,-79.53 321.79,-86.15 324.12,-79.55"/>
</a>
</g>
</g>
<!-- Node9&#45;&gt;Node8 -->
<g id="edge14_Node000009_Node000008" class="edge">
<title>Node9&#45;&gt;Node8</title>
<g id="a_edge14_Node000009_Node000008"><a xlink:title=" ">
<path fill="none" stroke="#63b8ff" d="M655.62,-120.93C687.01,-111.63 728.26,-98.67 764,-85 765.21,-84.54 766.44,-84.05 767.68,-83.55"/>
<polygon fill="#63b8ff" stroke="#63b8ff" points="769.3,-86.66 777.12,-79.51 766.55,-80.22 769.3,-86.66"/>
</a>
</g>
</g>
<!-- Node10 -->
<g id="Node000010" class="node">
<title>Node10</title>
<g id="a_Node000010"><a xlink:title=" ">
<polygon fill="#e0e0e0" stroke="#999999" points="389,-79.5 339,-79.5 339,-60.5 389,-60.5 389,-79.5"/>
<text text-anchor="middle" x="364" y="-67.5" font-family="Helvetica,sans-Serif" font-size="10.00">format</text>
</a>
</g>
</g>
<!-- Node9&#45;&gt;Node10 -->
<g id="edge12_Node000009_Node000010" class="edge">
<title>Node9&#45;&gt;Node10</title>
<g id="a_edge12_Node000009_Node000010"><a xlink:title=" ">
<path fill="none" stroke="#63b8ff" d="M550.49,-123.86C508.47,-114.88 449.54,-101.12 399,-85 397.33,-84.47 395.62,-83.89 393.91,-83.29"/>
<polygon fill="#63b8ff" stroke="#63b8ff" points="394.77,-79.87 384.18,-79.64 392.31,-86.43 394.77,-79.87"/>
</a>
</g>
</g>
<!-- Node11 -->
<g id="Node000011" class="node">
<title>Node11</title>
<g id="a_Node000011"><a xlink:title=" ">
<polygon fill="#e0e0e0" stroke="#999999" points="643.5,-19 596.5,-19 596.5,0 643.5,0 643.5,-19"/>
<text text-anchor="middle" x="620" y="-7" font-family="Helvetica,sans-Serif" font-size="10.00">vector</text>
</a>
</g>
</g>
<!-- Node9&#45;&gt;Node11 -->
<g id="edge13_Node000009_Node000011" class="edge">
<title>Node9&#45;&gt;Node11</title>
<g id="a_edge13_Node000009_Node000011"><a xlink:title=" ">
<path fill="none" stroke="#63b8ff" d="M607.61,-120.72C610.15,-98.12 615.09,-54.12 617.91,-29.09"/>
<polygon fill="#63b8ff" stroke="#63b8ff" points="621.4,-29.4 619.04,-19.07 614.44,-28.62 621.4,-29.4"/>
</a>
</g>
</g>
<!-- Node12 -->
<g id="Node000012" class="node">
<title>Node12</title>
<g id="a_Node000012"><a xlink:href="_linear_map_8hpp.html" target="_top" xlink:title=" ">
<polygon fill="white" stroke="#666666" points="548.5,-79.5 407.5,-79.5 407.5,-60.5 548.5,-60.5 548.5,-79.5"/>
<text text-anchor="middle" x="478" y="-67.5" font-family="Helvetica,sans-Serif" font-size="10.00">Thoth/Dsa/LinearMap.hpp</text>
</a>
</g>
</g>
<!-- Node9&#45;&gt;Node12 -->
<g id="edge15_Node000009_Node000012" class="edge">
<title>Node9&#45;&gt;Node12</title>
<g id="a_edge15_Node000009_Node000012"><a xlink:title=" ">
<path fill="none" stroke="#63b8ff" d="M577.91,-120.95C555.96,-109.98 525.67,-94.83 504.21,-84.11"/>
<polygon fill="#63b8ff" stroke="#63b8ff" points="505.54,-80.86 495.03,-79.52 502.41,-87.12 505.54,-80.86"/>
</a>
</g>
</g>
<!-- Node18 -->
<g id="Node000018" class="node">
<title>Node18</title>
<g id="a_Node000018"><a xlink:title=" ">
<polygon fill="#e0e0e0" stroke="#999999" points="754.5,-85 643.5,-85 643.5,-55 754.5,-55 754.5,-85"/>
<text text-anchor="start" x="651.5" y="-73" font-family="Helvetica,sans-Serif" font-size="10.00">Thoth/Http/Request</text>
<text text-anchor="middle" x="699" y="-62" font-family="Helvetica,sans-Serif" font-size="10.00">/QueryParams.tpp</text>
</a>
</g>
</g>
<!-- Node9&#45;&gt;Node18 -->
<g id="edge22_Node000009_Node000018" class="edge">
<title>Node9&#45;&gt;Node18</title>
<g id="a_edge22_Node000009_Node000018"><a xlink:title=" ">
<path fill="none" stroke="#63b8ff" d="M626.64,-120.8C639.4,-112.01 655.98,-100.61 670.04,-90.93"/>
<polygon fill="#63b8ff" stroke="#63b8ff" points="672.16,-93.72 678.42,-85.16 668.2,-87.95 672.16,-93.72"/>
</a>
</g>
</g>
<!-- Node12&#45;&gt;Node11 -->
<g id="edge16_Node000012_Node000011" class="edge">
<title>Node12&#45;&gt;Node11</title>
<g id="a_edge16_Node000012_Node000011"><a xlink:title=" ">
<path fill="none" stroke="#63b8ff" d="M498.65,-60.49C522.63,-50.62 562.39,-34.23 589.83,-22.93"/>
<polygon fill="#63b8ff" stroke="#63b8ff" points="591.41,-26.06 599.33,-19.02 588.75,-19.59 591.41,-26.06"/>
</a>
</g>
</g>
<!-- Node13 -->
<g id="Node000013" class="node">
<title>Node13</title>
<g id="a_Node000013"><a xlink:title=" ">
<polygon fill="#e0e0e0" stroke="#999999" points="495.5,-19 450.5,-19 450.5,0 495.5,0 495.5,-19"/>
<text text-anchor="middle" x="473" y="-7" font-family="Helvetica,sans-Serif" font-size="10.00">utility</text>
</a>
</g>
</g>
<!-- Node12&#45;&gt;Node13 -->
<g id="edge17_Node000012_Node000013" class="edge">
<title>Node12&#45;&gt;Node13</title>
<g id="a_edge17_Node000012_Node000013"><a xlink:title=" ">
<path fill="none" stroke="#63b8ff" d="M477.26,-60.37C476.57,-52.25 475.5,-39.81 474.61,-29.39"/>
<polygon fill="#63b8ff" stroke="#63b8ff" points="478.08,-28.83 473.74,-19.17 471.11,-29.43 478.08,-28.83"/>
</a>
</g>
</g>
<!-- Node14 -->
<g id="Node000014" class="node">
<title>Node14</title>
<g id="a_Node000014"><a xlink:title=" ">
<polygon fill="#e0e0e0" stroke="#999999" points="1240,-19 1180,-19 1180,0 1240,0 1240,-19"/>
<text text-anchor="middle" x="1210" y="-7" font-family="Helvetica,sans-Serif" font-size="10.00">concepts</text>
</a>
</g>
</g>
<!-- Node12&#45;&gt;Node14 -->
<g id="edge18_Node000012_Node000014" class="edge">
<title>Node12&#45;&gt;Node14</title>
<g id="a_edge18_Node000012_Node000014"><a xlink:title=" ">
<path fill="none" stroke="#63b8ff" d="M548.71,-62.52C575.71,-60.09 606.77,-57.35 635,-55 835.56,-38.3 1075.66,-20.39 1169.56,-13.47"/>
<polygon fill="#63b8ff" stroke="#63b8ff" points="1170.04,-16.94 1179.75,-12.72 1169.52,-9.96 1170.04,-16.94"/>
</a>
</g>
</g>
<!-- Node15 -->
<g id="Node000015" class="node">
<title>Node15</title>
<g id="a_Node000015"><a xlink:title=" ">
<polygon fill="#e0e0e0" stroke="#999999" points="578.5,-19 513.5,-19 513.5,0 578.5,0 578.5,-19"/>
<text text-anchor="middle" x="546" y="-7" font-family="Helvetica,sans-Serif" font-size="10.00">functional</text>
</a>
</g>
</g>
<!-- Node12&#45;&gt;Node15 -->
<g id="edge19_Node000012_Node000015" class="edge">
<title>Node12&#45;&gt;Node15</title>
<g id="a_edge19_Node000012_Node000015"><a xlink:title=" ">
<path fill="none" stroke="#63b8ff" d="M488.03,-60.37C498.58,-51.3 515.39,-36.84 528.19,-25.82"/>
<polygon fill="#63b8ff" stroke="#63b8ff" points="530.63,-28.34 535.93,-19.17 526.06,-23.04 530.63,-28.34"/>
</a>
</g>
</g>
<!-- Node16 -->
<g id="Node000016" class="node">
<title>Node16</title>
<g id="a_Node000016"><a xlink:title=" ">
<polygon fill="#e0e0e0" stroke="#999999" points="275.5,-19 216.5,-19 216.5,0 275.5,0 275.5,-19"/>
<text text-anchor="middle" x="246" y="-7" font-family="Helvetica,sans-Serif" font-size="10.00">compare</text>
</a>
</g>
</g>
<!-- Node12&#45;&gt;Node16 -->
<g id="edge20_Node000012_Node000016" class="edge">
<title>Node12&#45;&gt;Node16</title>
<g id="a_edge20_Node000012_Node000016"><a xlink:title=" ">
<path fill="none" stroke="#63b8ff" d="M444.27,-60.49C402.18,-49.88 330.32,-31.76 285.64,-20.5"/>
<polygon fill="#63b8ff" stroke="#63b8ff" points="286.28,-17.05 275.72,-18 284.57,-23.83 286.28,-17.05"/>
</a>
</g>
</g>
<!-- Node17 -->
<g id="Node000017" class="node">
<title>Node17</title>
<g id="a_Node000017"><a xlink:title=" ">
<polygon fill="#e0e0e0" stroke="#999999" points="432.5,-19 293.5,-19 293.5,0 432.5,0 432.5,-19"/>
<text text-anchor="middle" x="363" y="-7" font-family="Helvetica,sans-Serif" font-size="10.00">Thoth/Dsa/LinearMap.tpp</text>
</a>
</g>
</g>
<!-- Node12&#45;&gt;Node17 -->
<g id="edge21_Node000012_Node000017" class="edge">
<title>Node12&#45;&gt;Node17</title>
<g id="a_edge21_Node000012_Node000017"><a xlink:title=" ">
<path fill="none" stroke="#63b8ff" d="M461.03,-60.37C442.09,-50.73 411.21,-35.03 389.17,-23.81"/>
<polygon fill="#63b8ff" stroke="#63b8ff" points="390.54,-20.58 380.04,-19.17 387.36,-26.82 390.54,-20.58"/>
</a>
</g>
</g>
<!-- Node20&#45;&gt;Node2 -->
<g id="edge25_Node000020_Node000002" class="edge">
<title>Node20&#45;&gt;Node2</title>
<g id="a_edge25_Node000020_Node000002"><a xlink:title=" ">
<path fill="none" stroke="#63b8ff" d="M328.78,-192.44C279.09,-182.11 194.73,-164.58 134.17,-152"/>
<polygon fill="#63b8ff" stroke="#63b8ff" points="134.78,-148.55 124.28,-149.94 133.36,-155.4 134.78,-148.55"/>
</a>
</g>
</g>
<!-- Node20&#45;&gt;Node4 -->
<g id="edge26_Node000020_Node000004" class="edge">
<title>Node20&#45;&gt;Node4</title>
<g id="a_edge26_Node000020_Node000004"><a xlink:title=" ">
<path fill="none" stroke="#63b8ff" d="M369.67,-192.41C368.73,-177.02 365.09,-144.18 351,-121 342.27,-106.65 328.04,-94.28 315.85,-85.44"/>
<polygon fill="#63b8ff" stroke="#63b8ff" points="317.67,-82.44 307.45,-79.65 313.69,-88.21 317.67,-82.44"/>
</a>
</g>
</g>
<!-- Node20&#45;&gt;Node8 -->
<g id="edge29_Node000020_Node000008" class="edge">
<title>Node20&#45;&gt;Node8</title>
<g id="a_edge29_Node000020_Node000008"><a xlink:title=" ">
<path fill="none" stroke="#63b8ff" d="M436.61,-199.19C499.41,-195.38 594.97,-184.06 671,-151 691.05,-142.28 691.87,-133.23 710,-121 729.64,-107.75 752.88,-94.21 770.09,-84.57"/>
<polygon fill="#63b8ff" stroke="#63b8ff" points="771.93,-87.56 778.97,-79.65 768.53,-81.44 771.93,-87.56"/>
</a>
</g>
</g>
<!-- Node20&#45;&gt;Node10 -->
<g id="edge27_Node000020_Node000010" class="edge">
<title>Node20&#45;&gt;Node10</title>
<g id="a_edge27_Node000020_Node000010"><a xlink:title=" ">
<path fill="none" stroke="#63b8ff" d="M373.68,-192.1C379.32,-177.31 388.96,-146.75 384,-121 381.84,-109.81 377.21,-97.94 372.94,-88.57"/>
<polygon fill="#63b8ff" stroke="#63b8ff" points="376.08,-87.03 368.59,-79.54 369.78,-90.07 376.08,-87.03"/>
</a>
</g>
</g>
<!-- Node20&#45;&gt;Node11 -->
<g id="edge28_Node000020_Node000011" class="edge">
<title>Node20&#45;&gt;Node11</title>
<g id="a_edge28_Node000020_Node000011"><a xlink:title=" ">
<path fill="none" stroke="#63b8ff" d="M387.85,-192.47C422.82,-175.24 501.81,-133.77 558,-85 577.97,-67.67 596.79,-43.54 608.34,-27.49"/>
<polygon fill="#63b8ff" stroke="#63b8ff" points="611.36,-29.28 614.26,-19.09 605.64,-25.25 611.36,-29.28"/>
</a>
</g>
</g>
<!-- Node21 -->
<g id="Node000021" class="node">
<title>Node21</title>
<g id="a_Node000021"><a xlink:title=" ">
<polygon fill="#e0e0e0" stroke="#999999" points="192,-145.5 142,-145.5 142,-126.5 192,-126.5 192,-145.5"/>
<text text-anchor="middle" x="167" y="-133.5" font-family="Helvetica,sans-Serif" font-size="10.00">ranges</text>
</a>
</g>
</g>
<!-- Node20&#45;&gt;Node21 -->
<g id="edge30_Node000020_Node000021" class="edge">
<title>Node20&#45;&gt;Node21</title>
<g id="a_edge30_Node000020_Node000021"><a xlink:title=" ">
<path fill="none" stroke="#63b8ff" d="M337.6,-192.48C303.35,-183.23 247.89,-167.54 201,-151 199.57,-150.5 198.11,-149.96 196.65,-149.42"/>
<polygon fill="#63b8ff" stroke="#63b8ff" points="197.59,-146.03 187,-145.64 195.04,-152.54 197.59,-146.03"/>
</a>
</g>
</g>
<!-- Node22 -->
<g id="Node000022" class="node">
<title>Node22</title>
<g id="a_Node000022"><a xlink:title=" ">
<polygon fill="#e0e0e0" stroke="#999999" points="341.5,-145.5 210.5,-145.5 210.5,-126.5 341.5,-126.5 341.5,-145.5"/>
<text text-anchor="middle" x="276" y="-133.5" font-family="Helvetica,sans-Serif" font-size="10.00">Thoth/Http/Headers.tpp</text>
</a>
</g>
</g>
<!-- Node20&#45;&gt;Node22 -->
<g id="edge31_Node000020_Node000022" class="edge">
<title>Node20&#45;&gt;Node22</title>
<g id="a_edge31_Node000020_Node000022"><a xlink:title=" ">
<path fill="none" stroke="#63b8ff" d="M357.32,-192.37C341.91,-181.87 315.65,-164 297.15,-151.4"/>
<polygon fill="#63b8ff" stroke="#63b8ff" points="299.01,-148.43 288.78,-145.7 295.07,-154.22 299.01,-148.43"/>
</a>
</g>
</g>
<!-- Node24&#45;&gt;Node6 -->
<g id="edge34_Node000024_Node000006" class="edge">
<title>Node24&#45;&gt;Node6</title>
<g id="a_edge34_Node000024_Node000006"><a xlink:title=" ">
<path fill="none" stroke="#63b8ff" d="M419.79,-318.8C416.41,-311.09 412.16,-301.37 408.31,-292.56"/>
<polygon fill="#63b8ff" stroke="#63b8ff" points="411.41,-290.92 404.2,-283.16 405,-293.73 411.41,-290.92"/>
</a>
</g>
</g>
<!-- Node25&#45;&gt;Node5 -->
<g id="edge39_Node000025_Node000005" class="edge">
<title>Node25&#45;&gt;Node5</title>
<g id="a_edge39_Node000025_Node000005"><a xlink:title=" ">
<path fill="none" stroke="#63b8ff" d="M480.77,-384.95C444.34,-375.16 395.57,-362.05 357.15,-351.71"/>
<polygon fill="#63b8ff" stroke="#63b8ff" points="357.67,-348.23 347.11,-349.01 355.86,-354.99 357.67,-348.23"/>
</a>
</g>
</g>
<!-- Node25&#45;&gt;Node7 -->
<g id="edge37_Node000025_Node000007" class="edge">
<title>Node25&#45;&gt;Node7</title>
<g id="a_edge37_Node000025_Node000007"><a xlink:title=" ">
<path fill="none" stroke="#63b8ff" d="M576.62,-385C593.53,-377.21 611.16,-365.64 621,-349 643.39,-311.13 636.34,-257.51 629.48,-226.9"/>
<polygon fill="#63b8ff" stroke="#63b8ff" points="632.86,-225.99 627.11,-217.09 626.06,-227.64 632.86,-225.99"/>
</a>
</g>
</g>
<!-- Node25&#45;&gt;Node24 -->
<g id="edge38_Node000025_Node000024" class="edge">
<title>Node25&#45;&gt;Node24</title>
<g id="a_edge38_Node000025_Node000024"><a xlink:title=" ">
<path fill="none" stroke="#63b8ff" d="M509.52,-384.95C494.47,-375.95 474.73,-364.14 458.22,-354.27"/>
<polygon fill="#63b8ff" stroke="#63b8ff" points="459.81,-351.14 449.43,-349.01 456.21,-357.15 459.81,-351.14"/>
</a>
</g>
</g>
<!-- Node26 -->
<g id="Node000026" class="node">
<title>Node26</title>
<g id="a_Node000026"><a xlink:title=" ">
<polygon fill="#e0e0e0" stroke="#999999" points="843.5,-343.5 668.5,-343.5 668.5,-324.5 843.5,-324.5 843.5,-343.5"/>
<text text-anchor="middle" x="756" y="-331.5" font-family="Helvetica,sans-Serif" font-size="10.00">Hermes/Socket/ClientSocket.hpp</text>
</a>
</g>
</g>
<!-- Node25&#45;&gt;Node26 -->
<g id="edge36_Node000025_Node000026" class="edge">
<title>Node25&#45;&gt;Node26</title>
<g id="a_edge36_Node000025_Node000026"><a xlink:title=" ">
<path fill="none" stroke="#63b8ff" d="M581.94,-384.95C622.25,-373.38 678.7,-357.18 716.26,-346.41"/>
<polygon fill="#63b8ff" stroke="#63b8ff" points="717.68,-349.64 726.32,-343.52 715.74,-342.91 717.68,-349.64"/>
</a>
</g>
</g>
<!-- Node27 -->
<g id="Node000027" class="node">
<title>Node27</title>
<g id="a_Node000027"><a xlink:title=" ">
<polygon fill="#e0e0e0" stroke="#999999" points="611.5,-349 500.5,-349 500.5,-319 611.5,-319 611.5,-349"/>
<text text-anchor="start" x="508.5" y="-337" font-family="Helvetica,sans-Serif" font-size="10.00">Thoth/Http/Request</text>
<text text-anchor="middle" x="556" y="-326" font-family="Helvetica,sans-Serif" font-size="10.00">/Request.tpp</text>
</a>
</g>
</g>
<!-- Node25&#45;&gt;Node27 -->
<g id="edge40_Node000025_Node000027" class="edge">
<title>Node25&#45;&gt;Node27</title>
<g id="a_edge40_Node000025_Node000027"><a xlink:title=" ">
<path fill="none" stroke="#63b8ff" d="M538.1,-384.8C540.84,-377.17 544.29,-367.57 547.43,-358.84"/>
<polygon fill="#63b8ff" stroke="#63b8ff" points="550.82,-359.76 550.91,-349.16 544.23,-357.39 550.82,-359.76"/>
</a>
</g>
</g>
<!-- Node28&#45;&gt;Node4 -->
<g id="edge47_Node000028_Node000004" class="edge">
<title>Node28&#45;&gt;Node4</title>
<g id="a_edge47_Node000028_Node000004"><a xlink:title=" ">
<path fill="none" stroke="#63b8ff" d="M1112.35,-200.67C999.8,-199.07 748.85,-190.89 542,-151 461,-135.38 369.57,-101.64 323.3,-83.37"/>
<polygon fill="#63b8ff" stroke="#63b8ff" points="324.45,-80.06 313.87,-79.61 321.86,-86.56 324.45,-80.06"/>
</a>
</g>
</g>
<!-- Node28&#45;&gt;Node8 -->
<g id="edge46_Node000028_Node000008" class="edge">
<title>Node28&#45;&gt;Node8</title>
<g id="a_edge46_Node000028_Node000008"><a xlink:title=" ">
<path fill="none" stroke="#63b8ff" d="M1118.56,-192.46C1073.79,-184.42 1008.61,-170.68 954,-151 903.63,-132.85 848.62,-102.63 818.31,-84.98"/>
<polygon fill="#63b8ff" stroke="#63b8ff" points="819.77,-81.78 809.38,-79.73 816.22,-87.82 819.77,-81.78"/>
</a>
</g>
</g>
<!-- Node28&#45;&gt;Node11 -->
<g id="edge45_Node000028_Node000011" class="edge">
<title>Node28&#45;&gt;Node11</title>
<g id="a_edge45_Node000028_Node000011"><a xlink:title=" ">
<path fill="none" stroke="#63b8ff" d="M1174.14,-192.14C1179.74,-166.57 1191.82,-92.07 1153,-55 1116.89,-20.52 765.29,-12.57 653.76,-10.9"/>
<polygon fill="#63b8ff" stroke="#63b8ff" points="653.78,-7.4 643.74,-10.76 653.68,-14.4 653.78,-7.4"/>
</a>
</g>
</g>
<!-- Node28&#45;&gt;Node14 -->
<g id="edge48_Node000028_Node000014" class="edge">
<title>Node28&#45;&gt;Node14</title>
<g id="a_edge48_Node000028_Node000014"><a xlink:title=" ">
<path fill="none" stroke="#63b8ff" d="M1174.76,-192.22C1177.81,-182.29 1182.72,-165.6 1186,-151 1195.73,-107.69 1203.61,-56.1 1207.45,-29.09"/>
<polygon fill="#63b8ff" stroke="#63b8ff" points="1210.93,-29.5 1208.85,-19.11 1204,-28.53 1210.93,-29.5"/>
</a>
</g>
</g>
<!-- Node29 -->
<g id="Node000029" class="node">
<title>Node29</title>
<g id="a_Node000029"><a xlink:title=" ">
<polygon fill="#e0e0e0" stroke="#999999" points="1595.5,-79.5 1544.5,-79.5 1544.5,-60.5 1595.5,-60.5 1595.5,-79.5"/>
<text text-anchor="middle" x="1570" y="-67.5" font-family="Helvetica,sans-Serif" font-size="10.00">variant</text>
</a>
</g>
</g>
<!-- Node28&#45;&gt;Node29 -->
<g id="edge43_Node000028_Node000029" class="edge">
<title>Node28&#45;&gt;Node29</title>
<g id="a_edge43_Node000028_Node000029"><a xlink:title=" ">
<path fill="none" stroke="#63b8ff" d="M1231.62,-201.1C1326.36,-199.99 1505.25,-192.31 1551,-151 1568.02,-135.63 1571.16,-108.05 1571.14,-89.63"/>
<polygon fill="#63b8ff" stroke="#63b8ff" points="1574.64,-89.42 1570.81,-79.54 1567.64,-89.65 1574.64,-89.42"/>
</a>
</g>
</g>
<!-- Node30 -->
<g id="Node000030" class="node">
<title>Node30</title>
<g id="a_Node000030"><a xlink:title=" ">
<polygon fill="#e0e0e0" stroke="#999999" points="1144,-79.5 1086,-79.5 1086,-60.5 1144,-60.5 1144,-79.5"/>
<text text-anchor="middle" x="1115" y="-67.5" font-family="Helvetica,sans-Serif" font-size="10.00">memory</text>
</a>
</g>
</g>
<!-- Node28&#45;&gt;Node30 -->
<g id="edge44_Node000028_Node000030" class="edge">
<title>Node28&#45;&gt;Node30</title>
<g id="a_edge44_Node000028_Node000030"><a xlink:title=" ">
<path fill="none" stroke="#63b8ff" d="M1168.26,-192.47C1159.08,-171.54 1135.3,-117.3 1122.85,-88.91"/>
<polygon fill="#63b8ff" stroke="#63b8ff" points="1126.05,-87.48 1118.83,-79.73 1119.64,-90.3 1126.05,-87.48"/>
</a>
</g>
</g>
<!-- Node31 -->
<g id="Node000031" class="node">
<title>Node31</title>
<g id="a_Node000031"><a xlink:title=" ">
<polygon fill="#e0e0e0" stroke="#999999" points="1278,-145.5 1238,-145.5 1238,-126.5 1278,-126.5 1278,-145.5"/>
<text text-anchor="middle" x="1258" y="-133.5" font-family="Helvetica,sans-Serif" font-size="10.00">span</text>
</a>
</g>
</g>
<!-- Node28&#45;&gt;Node31 -->
<g id="edge49_Node000028_Node000031" class="edge">
<title>Node28&#45;&gt;Node31</title>
<g id="a_edge49_Node000028_Node000031"><a xlink:title=" ">
<path fill="none" stroke="#63b8ff" d="M1183.6,-192.37C1197.58,-181.97 1221.29,-164.32 1238.18,-151.75"/>
<polygon fill="#63b8ff" stroke="#63b8ff" points="1240.38,-154.48 1246.31,-145.7 1236.2,-148.86 1240.38,-154.48"/>
</a>
</g>
</g>
<!-- Node32 -->
<g id="Node000032" class="node">
<title>Node32</title>
<g id="a_Node000032"><a xlink:href="_cow_8hpp.html" target="_top" xlink:title=" ">
<polygon fill="white" stroke="#666666" points="1542,-145.5 1432,-145.5 1432,-126.5 1542,-126.5 1542,-145.5"/>
<text text-anchor="middle" x="1487" y="-133.5" font-family="Helvetica,sans-Serif" font-size="10.00">Thoth/Dsa/Cow.hpp</text>
</a>
</g>
</g>
<!-- Node28&#45;&gt;Node32 -->
<g id="edge50_Node000028_Node000032" class="edge">
<title>Node28&#45;&gt;Node32</title>
<g id="a_edge50_Node000028_Node000032"><a xlink:title=" ">
<path fill="none" stroke="#63b8ff" d="M1216.03,-192.49C1266.19,-182.73 1350.58,-166.13 1423,-151 1428.02,-149.95 1433.26,-148.84 1438.48,-147.71"/>
<polygon fill="#63b8ff" stroke="#63b8ff" points="1439.41,-151.09 1448.44,-145.56 1437.93,-144.25 1439.41,-151.09"/>
</a>
</g>
</g>
<!-- Node34 -->
<g id="Node000034" class="node">
<title>Node34</title>
<g id="a_Node000034"><a xlink:href="_string_ref_8hpp.html" target="_top" xlink:title=" ">
<polygon fill="white" stroke="#666666" points="1105.5,-145.5 962.5,-145.5 962.5,-126.5 1105.5,-126.5 1105.5,-145.5"/>
<text text-anchor="middle" x="1034" y="-133.5" font-family="Helvetica,sans-Serif" font-size="10.00">Thoth/NJson/StringRef.hpp</text>
</a>
</g>
</g>
<!-- Node28&#45;&gt;Node34 -->
<g id="edge54_Node000028_Node000034" class="edge">
<title>Node28&#45;&gt;Node34</title>
<g id="a_edge54_Node000028_Node000034"><a xlink:title=" ">
<path fill="none" stroke="#63b8ff" d="M1153.39,-192.37C1129.93,-181.49 1089.39,-162.69 1062.14,-150.05"/>
<polygon fill="#63b8ff" stroke="#63b8ff" points="1063.3,-146.73 1052.76,-145.7 1060.36,-153.08 1063.3,-146.73"/>
</a>
</g>
</g>
<!-- Node36 -->
<g id="Node000036" class="node">
<title>Node36</title>
<g id="a_Node000036"><a xlink:title=" ">
<polygon fill="#e0e0e0" stroke="#999999" points="1413.5,-145.5 1296.5,-145.5 1296.5,-126.5 1413.5,-126.5 1413.5,-145.5"/>
<text text-anchor="middle" x="1355" y="-133.5" font-family="Helvetica,sans-Serif" font-size="10.00">Thoth/NJson/Json.tpp</text>
</a>
</g>
</g>
<!-- Node28&#45;&gt;Node36 -->
<g id="edge59_Node000028_Node000036" class="edge">
<title>Node28&#45;&gt;Node36</title>
<g id="a_edge59_Node000028_Node000036"><a xlink:title=" ">
<path fill="none" stroke="#63b8ff" d="M1196.68,-192.37C1228.69,-181.17 1284.71,-161.58 1320.8,-148.96"/>
<polygon fill="#63b8ff" stroke="#63b8ff" points="1322.14,-152.2 1330.42,-145.6 1319.82,-145.59 1322.14,-152.2"/>
</a>
</g>
</g>
<!-- Node32&#45;&gt;Node14 -->
<g id="edge51_Node000032_Node000014" class="edge">
<title>Node32&#45;&gt;Node14</title>
<g id="a_edge51_Node000032_Node000014"><a xlink:title=" ">
<path fill="none" stroke="#63b8ff" d="M1467.96,-126.44C1420.22,-104.99 1295.22,-48.8 1238.6,-23.35"/>
<polygon fill="#63b8ff" stroke="#63b8ff" points="1239.73,-20.02 1229.17,-19.12 1236.86,-26.41 1239.73,-20.02"/>
</a>
</g>
</g>
<!-- Node32&#45;&gt;Node29 -->
<g id="edge52_Node000032_Node000029" class="edge">
<title>Node32&#45;&gt;Node29</title>
<g id="a_edge52_Node000032_Node000029"><a xlink:title=" ">
<path fill="none" stroke="#63b8ff" d="M1498.19,-126.37C1511.56,-116.06 1534.15,-98.65 1550.42,-86.09"/>
<polygon fill="#63b8ff" stroke="#63b8ff" points="1552.94,-88.58 1558.72,-79.7 1548.66,-83.03 1552.94,-88.58"/>
</a>
</g>
</g>
<!-- Node33 -->
<g id="Node000033" class="node">
<title>Node33</title>
<g id="a_Node000033"><a xlink:title=" ">
<polygon fill="#e0e0e0" stroke="#999999" points="1526,-79.5 1418,-79.5 1418,-60.5 1526,-60.5 1526,-79.5"/>
<text text-anchor="middle" x="1472" y="-67.5" font-family="Helvetica,sans-Serif" font-size="10.00">Thoth/Dsa/Cow.tpp</text>
</a>
</g>
</g>
<!-- Node32&#45;&gt;Node33 -->
<g id="edge53_Node000032_Node000033" class="edge">
<title>Node32&#45;&gt;Node33</title>
<g id="a_edge53_Node000032_Node000033"><a xlink:title=" ">
<path fill="none" stroke="#63b8ff" d="M1484.98,-126.37C1482.8,-117.07 1479.26,-101.98 1476.43,-89.9"/>
<polygon fill="#63b8ff" stroke="#63b8ff" points="1479.78,-88.84 1474.09,-79.91 1472.96,-90.44 1479.78,-88.84"/>
</a>
</g>
</g>
<!-- Node34&#45;&gt;Node8 -->
<g id="edge57_Node000034_Node000008" class="edge">
<title>Node34&#45;&gt;Node8</title>
<g id="a_edge57_Node000034_Node000008"><a xlink:title=" ">
<path fill="none" stroke="#63b8ff" d="M988.94,-126.5C946.57,-117.94 881.66,-103.4 827,-85 825.56,-84.52 824.1,-83.99 822.63,-83.44"/>
<polygon fill="#63b8ff" stroke="#63b8ff" points="823.64,-80.08 813.06,-79.56 821.01,-86.56 823.64,-80.08"/>
</a>
</g>
</g>
<!-- Node34&#45;&gt;Node23 -->
<g id="edge56_Node000034_Node000023" class="edge">
<title>Node34&#45;&gt;Node23</title>
<g id="a_edge56_Node000034_Node000023"><a xlink:title=" ">
<path fill="none" stroke="#63b8ff" d="M1012.15,-126.37C984.05,-115.27 935.07,-95.92 903.1,-83.28"/>
<polygon fill="#63b8ff" stroke="#63b8ff" points="904.35,-80.02 893.76,-79.6 901.77,-86.53 904.35,-80.02"/>
</a>
</g>
</g>
<!-- Node34&#45;&gt;Node30 -->
<g id="edge55_Node000034_Node000030" class="edge">
<title>Node34&#45;&gt;Node30</title>
<g id="a_edge55_Node000034_Node000030"><a xlink:title=" ">
<path fill="none" stroke="#63b8ff" d="M1044.92,-126.37C1057.97,-116.06 1080.01,-98.65 1095.9,-86.09"/>
<polygon fill="#63b8ff" stroke="#63b8ff" points="1098.31,-88.64 1103.99,-79.7 1093.97,-83.15 1098.31,-88.64"/>
</a>
</g>
</g>
<!-- Node35 -->
<g id="Node000035" class="node">
<title>Node35</title>
<g id="a_Node000035"><a xlink:title=" ">
<polygon fill="#e0e0e0" stroke="#999999" points="1067.5,-79.5 926.5,-79.5 926.5,-60.5 1067.5,-60.5 1067.5,-79.5"/>
<text text-anchor="middle" x="997" y="-67.5" font-family="Helvetica,sans-Serif" font-size="10.00">Thoth/NJson/StringRef.tpp</text>
</a>
</g>
</g>
<!-- Node34&#45;&gt;Node35 -->
<g id="edge58_Node000034_Node000035" class="edge">
<title>Node34&#45;&gt;Node35</title>
<g id="a_edge58_Node000034_Node000035"><a xlink:title=" ">
<path fill="none" stroke="#63b8ff" d="M1029.01,-126.37C1023.47,-116.78 1014.37,-101.05 1007.29,-88.8"/>
<polygon fill="#63b8ff" stroke="#63b8ff" points="1010.18,-86.81 1002.15,-79.91 1004.12,-90.31 1010.18,-86.81"/>
</a>
</g>
</g>
</g>
</svg>
