<?xml version="1.0" encoding="UTF-8" standalone="no"?>
<!DOCTYPE svg PUBLIC "-//W3C//DTD SVG 1.1//EN"
 "http://www.w3.org/Graphics/SVG/1.1/DTD/svg11.dtd">
<!-- Generated by graphviz version 2.43.0 (0)
 -->
<!-- Title: include/Thoth/Utils/Scanner.hpp Pages: 1 -->
<svg width="2054pt" height="577pt"
 viewBox="0.00 0.00 2054.33 577.00" xmlns="http://www.w3.org/2000/svg" xmlns:xlink="http://www.w3.org/1999/xlink">
<g id="graph0" class="graph" transform="scale(1 1) rotate(0) translate(4 573)">
<title>include/Thoth/Utils/Scanner.hpp</title>
<!-- Node1 -->
<g id="Node000001" class="node">
<title>Node1</title>
<g id="a_Node000001"><a xlink:title=" ">
<polygon fill="#999999" stroke="#666666" points="1382.33,-569 1274.33,-569 1274.33,-539 1382.33,-539 1382.33,-569"/>
<text text-anchor="start" x="1282.33" y="-557" font-family="Helvetica,sans-Serif" font-size="10.00">include/Thoth/Utils</text>
<text text-anchor="middle" x="1328.33" y="-546" font-family="Helvetica,sans-Serif" font-size="10.00">/Scanner.hpp</text>
</a>
</g>
</g>
<!-- Node2 -->
<g id="Node000002" class="node">
<title>Node2</title>
<g id="a_Node000002"><a xlink:href="_http_2_n_headers_2_proxy_2__base_8hpp.html" target="_top" xlink:title=" ">
<polygon fill="white" stroke="#666666" points="1742.83,-503 1591.83,-503 1591.83,-473 1742.83,-473 1742.83,-503"/>
<text text-anchor="start" x="1599.83" y="-491" font-family="Helvetica,sans-Serif" font-size="10.00">include/Thoth/Http</text>
<text text-anchor="middle" x="1667.33" y="-480" font-family="Helvetica,sans-Serif" font-size="10.00">/NHeaders/Proxy/_base.hpp</text>
</a>
</g>
</g>
<!-- Node1&#45;&gt;Node2 -->
<g id="edge1_Node000001_Node000002" class="edge">
<title>Node1&#45;&gt;Node2</title>
<g id="a_edge1_Node000001_Node000002"><a xlink:title=" ">
<path fill="none" stroke="#63b8ff" d="M1392.4,-540.9C1449.46,-530.13 1532.94,-514.37 1592.93,-503.05"/>
<polygon fill="#63b8ff" stroke="#63b8ff" points="1391.6,-537.49 1382.43,-542.79 1392.9,-544.37 1391.6,-537.49"/>
</a>
</g>
</g>
<!-- Node23 -->
<g id="Node000023" class="node">
<title>Node23</title>
<g id="a_Node000023"><a xlink:href="_url_8hpp.html" target="_top" xlink:title=" ">
<polygon fill="white" stroke="#666666" points="1308.83,-503 1201.83,-503 1201.83,-473 1308.83,-473 1308.83,-503"/>
<text text-anchor="start" x="1209.83" y="-491" font-family="Helvetica,sans-Serif" font-size="10.00">include/Thoth/Http</text>
<text text-anchor="middle" x="1255.33" y="-480" font-family="Helvetica,sans-Serif" font-size="10.00">/Url/Url.hpp</text>
</a>
</g>
</g>
<!-- Node1&#45;&gt;Node23 -->
<g id="edge33_Node000001_Node000023" class="edge">
<title>Node1&#45;&gt;Node23</title>
<g id="a_edge33_Node000001_Node000023"><a xlink:title=" ">
<path fill="none" stroke="#63b8ff" d="M1304.61,-532.2C1293.77,-522.7 1281.22,-511.69 1271.49,-503.16"/>
<polygon fill="#63b8ff" stroke="#63b8ff" points="1302.31,-534.84 1312.13,-538.8 1306.92,-529.57 1302.31,-534.84"/>
</a>
</g>
</g>
<!-- Node3 -->
<g id="Node000003" class="node">
<title>Node3</title>
<g id="a_Node000003"><a xlink:href="_headers_8hpp.html" target="_top" xlink:title=" ">
<polygon fill="white" stroke="#666666" points="1686.33,-437 1554.33,-437 1554.33,-407 1686.33,-407 1686.33,-437"/>
<text text-anchor="start" x="1562.33" y="-425" font-family="Helvetica,sans-Serif" font-size="10.00">include/Thoth/Http</text>
<text text-anchor="middle" x="1620.33" y="-414" font-family="Helvetica,sans-Serif" font-size="10.00">/NHeaders/Headers.hpp</text>
</a>
</g>
</g>
<!-- Node2&#45;&gt;Node3 -->
<g id="edge2_Node000002_Node000003" class="edge">
<title>Node2&#45;&gt;Node3</title>
<g id="a_edge2_Node000002_Node000003"><a xlink:title=" ">
<path fill="none" stroke="#63b8ff" d="M1650.83,-464.53C1644.15,-455.43 1636.63,-445.19 1630.74,-437.16"/>
<polygon fill="#63b8ff" stroke="#63b8ff" points="1648.16,-466.81 1656.9,-472.8 1653.81,-462.66 1648.16,-466.81"/>
</a>
</g>
</g>
<!-- Node19 -->
<g id="Node000019" class="node">
<title>Node19</title>
<g id="a_Node000019"><a xlink:href="_list_proxy_8hpp.html" target="_top" xlink:title=" ">
<polygon fill="white" stroke="#666666" points="2046.33,-371 1880.33,-371 1880.33,-341 2046.33,-341 2046.33,-371"/>
<text text-anchor="start" x="1888.33" y="-359" font-family="Helvetica,sans-Serif" font-size="10.00">include/Thoth/Http</text>
<text text-anchor="middle" x="1963.33" y="-348" font-family="Helvetica,sans-Serif" font-size="10.00">/NHeaders/Proxy/ListProxy.hpp</text>
</a>
</g>
</g>
<!-- Node2&#45;&gt;Node19 -->
<g id="edge31_Node000002_Node000019" class="edge">
<title>Node2&#45;&gt;Node19</title>
<g id="a_edge31_Node000002_Node000019"><a xlink:title=" ">
<path fill="none" stroke="#63b8ff" d="M1708.77,-468.8C1768.37,-442.63 1877.04,-394.9 1931.06,-371.17"/>
<polygon fill="#63b8ff" stroke="#63b8ff" points="1707.04,-465.74 1699.29,-472.96 1709.86,-472.15 1707.04,-465.74"/>
</a>
</g>
</g>
<!-- Node20 -->
<g id="Node000020" class="node">
<title>Node20</title>
<g id="a_Node000020"><a xlink:href="_value_proxy_8hpp.html" target="_top" xlink:title=" ">
<polygon fill="white" stroke="#666666" points="1862.33,-371 1686.33,-371 1686.33,-341 1862.33,-341 1862.33,-371"/>
<text text-anchor="start" x="1694.33" y="-359" font-family="Helvetica,sans-Serif" font-size="10.00">include/Thoth/Http</text>
<text text-anchor="middle" x="1774.33" y="-348" font-family="Helvetica,sans-Serif" font-size="10.00">/NHeaders/Proxy/ValueProxy.hpp</text>
</a>
</g>
</g>
<!-- Node2&#45;&gt;Node20 -->
<g id="edge32_Node000002_Node000020" class="edge">
<title>Node2&#45;&gt;Node20</title>
<g id="a_edge32_Node000002_Node000020"><a xlink:title=" ">
<path fill="none" stroke="#63b8ff" d="M1685.61,-464.8C1707.67,-437.99 1744.13,-393.7 1762.69,-371.14"/>
<polygon fill="#63b8ff" stroke="#63b8ff" points="1682.64,-462.89 1678.99,-472.84 1688.05,-467.34 1682.64,-462.89"/>
</a>
</g>
</g>
<!-- Node4 -->
<g id="Node000004" class="node">
<title>Node4</title>
<g id="a_Node000004"><a xlink:href="_file_output_range_8hpp.html" target="_top" xlink:title=" ">
<polygon fill="white" stroke="#666666" points="1699.33,-239 1541.33,-239 1541.33,-209 1699.33,-209 1699.33,-239"/>
<text text-anchor="start" x="1549.33" y="-227" font-family="Helvetica,sans-Serif" font-size="10.00">include/Thoth/Dsa/FileOutput</text>
<text text-anchor="middle" x="1620.33" y="-216" font-family="Helvetica,sans-Serif" font-size="10.00">Range.hpp</text>
</a>
</g>
</g>
<!-- Node3&#45;&gt;Node4 -->
<g id="edge3_Node000003_Node000004" class="edge">
<title>Node3&#45;&gt;Node4</title>
<g id="a_edge3_Node000003_Node000004"><a xlink:title=" ">
<path fill="none" stroke="#63b8ff" d="M1620.33,-396.89C1620.33,-355.58 1620.33,-272.48 1620.33,-239.23"/>
<polygon fill="#63b8ff" stroke="#63b8ff" points="1616.84,-396.9 1620.33,-406.9 1623.84,-396.9 1616.84,-396.9"/>
</a>
</g>
</g>
<!-- Node7 -->
<g id="Node000007" class="node">
<title>Node7</title>
<g id="a_Node000007"><a xlink:href="_method_concept_8hpp.html" target="_top" xlink:title=" ">
<polygon fill="white" stroke="#666666" points="1040.33,-371 846.33,-371 846.33,-341 1040.33,-341 1040.33,-371"/>
<text text-anchor="start" x="854.33" y="-359" font-family="Helvetica,sans-Serif" font-size="10.00">include/Thoth/Http</text>
<text text-anchor="middle" x="943.33" y="-348" font-family="Helvetica,sans-Serif" font-size="10.00">/Methods/_base/MethodConcept.hpp</text>
</a>
</g>
</g>
<!-- Node3&#45;&gt;Node7 -->
<g id="edge7_Node000003_Node000007" class="edge">
<title>Node3&#45;&gt;Node7</title>
<g id="a_edge7_Node000003_Node000007"><a xlink:title=" ">
<path fill="none" stroke="#63b8ff" d="M1544.05,-413.79C1420.35,-402.09 1176.2,-379.01 1040.34,-366.17"/>
<polygon fill="#63b8ff" stroke="#63b8ff" points="1543.9,-417.29 1554.19,-414.75 1544.56,-410.32 1543.9,-417.29"/>
</a>
</g>
</g>
<!-- Node12 -->
<g id="Node000012" class="node">
<title>Node12</title>
<g id="a_Node000012"><a xlink:href="_response_head_8hpp.html" target="_top" xlink:title=" ">
<polygon fill="white" stroke="#666666" points="1595.33,-167.5 1431.33,-167.5 1431.33,-137.5 1595.33,-137.5 1595.33,-167.5"/>
<text text-anchor="start" x="1439.33" y="-155.5" font-family="Helvetica,sans-Serif" font-size="10.00">include/Thoth/Http</text>
<text text-anchor="middle" x="1513.33" y="-144.5" font-family="Helvetica,sans-Serif" font-size="10.00">/Response/ResponseHead.hpp</text>
</a>
</g>
</g>
<!-- Node3&#45;&gt;Node12 -->
<g id="edge30_Node000003_Node000012" class="edge">
<title>Node3&#45;&gt;Node12</title>
<g id="a_edge30_Node000003_Node000012"><a xlink:title=" ">
<path fill="none" stroke="#63b8ff" d="M1606.93,-397.79C1587.88,-363.9 1553,-298.44 1532.33,-239 1523.85,-214.58 1518.25,-184.89 1515.45,-167.7"/>
<polygon fill="#63b8ff" stroke="#63b8ff" points="1604.11,-399.89 1612.08,-406.86 1610.19,-396.44 1604.11,-399.89"/>
</a>
</g>
</g>
<!-- Node3&#45;&gt;Node19 -->
<g id="edge24_Node000003_Node000019" class="edge">
<title>Node3&#45;&gt;Node19</title>
<g id="a_edge24_Node000003_Node000019"><a xlink:title=" ">
<path fill="none" stroke="#63b8ff" d="M1696.52,-406.79C1753.6,-396.13 1831.32,-381.63 1888.15,-371.03"/>
<polygon fill="#63b8ff" stroke="#63b8ff" points="1695.66,-403.39 1686.47,-408.66 1696.94,-410.27 1695.66,-403.39"/>
</a>
</g>
</g>
<!-- Node3&#45;&gt;Node20 -->
<g id="edge25_Node000003_Node000020" class="edge">
<title>Node3&#45;&gt;Node20</title>
<g id="a_edge25_Node000003_Node000020"><a xlink:title=" ">
<path fill="none" stroke="#63b8ff" d="M1663.52,-403.05C1687.92,-392.91 1717.97,-380.43 1740.62,-371.01"/>
<polygon fill="#63b8ff" stroke="#63b8ff" points="1662.02,-399.89 1654.13,-406.95 1664.71,-406.35 1662.02,-399.89"/>
</a>
</g>
</g>
<!-- Node21 -->
<g id="Node000021" class="node">
<title>Node21</title>
<g id="a_Node000021"><a xlink:href="_request_headers_8hpp.html" target="_top" xlink:title=" ">
<polygon fill="white" stroke="#666666" points="1553.83,-371 1338.83,-371 1338.83,-341 1553.83,-341 1553.83,-371"/>
<text text-anchor="start" x="1346.83" y="-359" font-family="Helvetica,sans-Serif" font-size="10.00">include/Thoth/Http</text>
<text text-anchor="middle" x="1446.33" y="-348" font-family="Helvetica,sans-Serif" font-size="10.00">/NHeaders/Request/RequestHeaders.hpp</text>
</a>
</g>
</g>
<!-- Node3&#45;&gt;Node21 -->
<g id="edge26_Node000003_Node000021" class="edge">
<title>Node3&#45;&gt;Node21</title>
<g id="a_edge26_Node000003_Node000021"><a xlink:title=" ">
<path fill="none" stroke="#63b8ff" d="M1572.64,-403.46C1544.88,-393.25 1510.36,-380.55 1484.43,-371.01"/>
<polygon fill="#63b8ff" stroke="#63b8ff" points="1571.56,-406.79 1582.15,-406.95 1573.97,-400.22 1571.56,-406.79"/>
</a>
</g>
</g>
<!-- Node22 -->
<g id="Node000022" class="node">
<title>Node22</title>
<g id="a_Node000022"><a xlink:href="_response_headers_8hpp.html" target="_top" xlink:title=" ">
<polygon fill="white" stroke="#666666" points="1824.33,-173 1656.33,-173 1656.33,-132 1824.33,-132 1824.33,-173"/>
<text text-anchor="start" x="1664.33" y="-161" font-family="Helvetica,sans-Serif" font-size="10.00">include/Thoth/Http</text>
<text text-anchor="start" x="1664.33" y="-150" font-family="Helvetica,sans-Serif" font-size="10.00">/NHeaders/Response/Response</text>
<text text-anchor="middle" x="1740.33" y="-139" font-family="Helvetica,sans-Serif" font-size="10.00">Headers.hpp</text>
</a>
</g>
</g>
<!-- Node3&#45;&gt;Node22 -->
<g id="edge28_Node000003_Node000022" class="edge">
<title>Node3&#45;&gt;Node22</title>
<g id="a_edge28_Node000003_Node000022"><a xlink:title=" ">
<path fill="none" stroke="#63b8ff" d="M1637.27,-398.31C1661.13,-365.15 1704.19,-300.65 1726.33,-239 1734.17,-217.2 1737.64,-190.69 1739.17,-173.02"/>
<polygon fill="#63b8ff" stroke="#63b8ff" points="1634.14,-396.66 1631.08,-406.81 1639.8,-400.79 1634.14,-396.66"/>
</a>
</g>
</g>
<!-- Node4&#45;&gt;Node4 -->
<g id="edge4_Node000004_Node000004" class="edge">
<title>Node4&#45;&gt;Node4</title>
<g id="a_edge4_Node000004_Node000004"><a xlink:title=" ">
<path fill="none" stroke="#63b8ff" d="M1709.49,-232.29C1714.41,-230.27 1717.33,-227.51 1717.33,-224 1717.33,-218.52 1710.21,-214.86 1699.5,-213.02"/>
<polygon fill="#63b8ff" stroke="#63b8ff" points="1708.25,-229 1699.5,-234.98 1710.06,-235.76 1708.25,-229"/>
</a>
</g>
</g>
<!-- Node5 -->
<g id="Node000005" class="node">
<title>Node5</title>
<g id="a_Node000005"><a xlink:href="_response_8hpp.html" target="_top" xlink:title=" ">
<polygon fill="white" stroke="#666666" points="1556.33,-96 1418.33,-96 1418.33,-66 1556.33,-66 1556.33,-96"/>
<text text-anchor="start" x="1426.33" y="-84" font-family="Helvetica,sans-Serif" font-size="10.00">include/Thoth/Http</text>
<text text-anchor="middle" x="1487.33" y="-73" font-family="Helvetica,sans-Serif" font-size="10.00">/Response/Response.hpp</text>
</a>
</g>
</g>
<!-- Node4&#45;&gt;Node5 -->
<g id="edge5_Node000004_Node000005" class="edge">
<title>Node4&#45;&gt;Node5</title>
<g id="a_edge5_Node000004_Node000005"><a xlink:title=" ">
<path fill="none" stroke="#63b8ff" d="M1622.07,-198.55C1622.18,-178.61 1619.22,-150.77 1604.33,-132 1590.75,-114.87 1570.17,-103.51 1550.04,-96.02"/>
<polygon fill="#63b8ff" stroke="#63b8ff" points="1618.57,-198.6 1621.74,-208.71 1625.56,-198.82 1618.57,-198.6"/>
</a>
</g>
</g>
<!-- Node6 -->
<g id="Node000006" class="node">
<title>Node6</title>
<g id="a_Node000006"><a xlink:href="_client_8hpp.html" target="_top" xlink:title=" ">
<polygon fill="white" stroke="#666666" points="1440.83,-30 1333.83,-30 1333.83,0 1440.83,0 1440.83,-30"/>
<text text-anchor="start" x="1341.83" y="-18" font-family="Helvetica,sans-Serif" font-size="10.00">include/Thoth/Http</text>
<text text-anchor="middle" x="1387.33" y="-7" font-family="Helvetica,sans-Serif" font-size="10.00">/Client.hpp</text>
</a>
</g>
</g>
<!-- Node5&#45;&gt;Node6 -->
<g id="edge6_Node000005_Node000006" class="edge">
<title>Node5&#45;&gt;Node6</title>
<g id="a_edge6_Node000005_Node000006"><a xlink:title=" ">
<path fill="none" stroke="#63b8ff" d="M1456.56,-60.3C1441.33,-50.56 1423.31,-39.02 1409.47,-30.16"/>
<polygon fill="#63b8ff" stroke="#63b8ff" points="1454.83,-63.35 1465.14,-65.8 1458.61,-57.46 1454.83,-63.35"/>
</a>
</g>
</g>
<!-- Node8 -->
<g id="Node000008" class="node">
<title>Node8</title>
<g id="a_Node000008"><a xlink:href="_connect_method_8hpp.html" target="_top" xlink:title=" ">
<polygon fill="white" stroke="#666666" points="1358.33,-305 1196.33,-305 1196.33,-275 1358.33,-275 1358.33,-305"/>
<text text-anchor="start" x="1204.33" y="-293" font-family="Helvetica,sans-Serif" font-size="10.00">include/Thoth/Http</text>
<text text-anchor="middle" x="1277.33" y="-282" font-family="Helvetica,sans-Serif" font-size="10.00">/Methods/ConnectMethod.hpp</text>
</a>
</g>
</g>
<!-- Node7&#45;&gt;Node8 -->
<g id="edge8_Node000007_Node000008" class="edge">
<title>Node7&#45;&gt;Node8</title>
<g id="a_edge8_Node000007_Node000008"><a xlink:title=" ">
<path fill="none" stroke="#63b8ff" d="M1026.63,-339.04C1081.18,-328.59 1151.82,-315.05 1204.21,-305.01"/>
<polygon fill="#63b8ff" stroke="#63b8ff" points="1025.8,-335.64 1016.63,-340.95 1027.11,-342.51 1025.8,-335.64"/>
</a>
</g>
</g>
<!-- Node9 -->
<g id="Node000009" class="node">
<title>Node9</title>
<g id="a_Node000009"><a xlink:href="_delete_method_8hpp.html" target="_top" xlink:title=" ">
<polygon fill="white" stroke="#666666" points="343.83,-305 188.83,-305 188.83,-275 343.83,-275 343.83,-305"/>
<text text-anchor="start" x="196.83" y="-293" font-family="Helvetica,sans-Serif" font-size="10.00">include/Thoth/Http</text>
<text text-anchor="middle" x="266.33" y="-282" font-family="Helvetica,sans-Serif" font-size="10.00">/Methods/DeleteMethod.hpp</text>
</a>
</g>
</g>
<!-- Node7&#45;&gt;Node9 -->
<g id="edge9_Node000007_Node000009" class="edge">
<title>Node7&#45;&gt;Node9</title>
<g id="a_edge9_Node000007_Node000009"><a xlink:title=" ">
<path fill="none" stroke="#63b8ff" d="M836.12,-348.34C717.7,-340.42 521.51,-325.63 353.33,-305 350.3,-304.63 347.2,-304.23 344.08,-303.81"/>
<polygon fill="#63b8ff" stroke="#63b8ff" points="836.06,-351.84 846.27,-349.02 836.52,-344.86 836.06,-351.84"/>
</a>
</g>
</g>
<!-- Node10 -->
<g id="Node000010" class="node">
<title>Node10</title>
<g id="a_Node000010"><a xlink:href="_get_method_8hpp.html" target="_top" xlink:title=" ">
<polygon fill="white" stroke="#666666" points="1516.33,-305 1376.33,-305 1376.33,-275 1516.33,-275 1516.33,-305"/>
<text text-anchor="start" x="1384.33" y="-293" font-family="Helvetica,sans-Serif" font-size="10.00">include/Thoth/Http</text>
<text text-anchor="middle" x="1446.33" y="-282" font-family="Helvetica,sans-Serif" font-size="10.00">/Methods/GetMethod.hpp</text>
</a>
</g>
</g>
<!-- Node7&#45;&gt;Node10 -->
<g id="edge10_Node000007_Node000010" class="edge">
<title>Node7&#45;&gt;Node10</title>
<g id="a_edge10_Node000007_Node000010"><a xlink:title=" ">
<path fill="none" stroke="#63b8ff" d="M1050.39,-344.11C1136.26,-334.96 1259.77,-320.86 1367.33,-305 1370.23,-304.57 1373.18,-304.12 1376.16,-303.65"/>
<polygon fill="#63b8ff" stroke="#63b8ff" points="1049.95,-340.64 1040.38,-345.18 1050.69,-347.6 1049.95,-340.64"/>
</a>
</g>
</g>
<!-- Node13 -->
<g id="Node000013" class="node">
<title>Node13</title>
<g id="a_Node000013"><a xlink:href="_head_method_8hpp.html" target="_top" xlink:title=" ">
<polygon fill="white" stroke="#666666" points="510.33,-305 362.33,-305 362.33,-275 510.33,-275 510.33,-305"/>
<text text-anchor="start" x="370.33" y="-293" font-family="Helvetica,sans-Serif" font-size="10.00">include/Thoth/Http</text>
<text text-anchor="middle" x="436.33" y="-282" font-family="Helvetica,sans-Serif" font-size="10.00">/Methods/HeadMethod.hpp</text>
</a>
</g>
</g>
<!-- Node7&#45;&gt;Node13 -->
<g id="edge16_Node000007_Node000013" class="edge">
<title>Node7&#45;&gt;Node13</title>
<g id="a_edge16_Node000007_Node000013"><a xlink:title=" ">
<path fill="none" stroke="#63b8ff" d="M836.31,-343.87C750.47,-334.58 626.97,-320.41 519.33,-305 516.44,-304.59 513.49,-304.15 510.52,-303.7"/>
<polygon fill="#63b8ff" stroke="#63b8ff" points="836.01,-347.36 846.33,-344.95 836.76,-340.4 836.01,-347.36"/>
</a>
</g>
</g>
<!-- Node14 -->
<g id="Node000014" class="node">
<title>Node14</title>
<g id="a_Node000014"><a xlink:href="_options_method_8hpp.html" target="_top" xlink:title=" ">
<polygon fill="white" stroke="#666666" points="688.33,-305 528.33,-305 528.33,-275 688.33,-275 688.33,-305"/>
<text text-anchor="start" x="536.33" y="-293" font-family="Helvetica,sans-Serif" font-size="10.00">include/Thoth/Http</text>
<text text-anchor="middle" x="608.33" y="-282" font-family="Helvetica,sans-Serif" font-size="10.00">/Methods/OptionsMethod.hpp</text>
</a>
</g>
</g>
<!-- Node7&#45;&gt;Node14 -->
<g id="edge17_Node000007_Node000014" class="edge">
<title>Node7&#45;&gt;Node14</title>
<g id="a_edge17_Node000007_Node000014"><a xlink:title=" ">
<path fill="none" stroke="#63b8ff" d="M859.8,-339.04C805.07,-328.59 734.22,-315.05 681.68,-305.01"/>
<polygon fill="#63b8ff" stroke="#63b8ff" points="859.34,-342.52 869.82,-340.95 860.65,-335.64 859.34,-342.52"/>
</a>
</g>
</g>
<!-- Node15 -->
<g id="Node000015" class="node">
<title>Node15</title>
<g id="a_Node000015"><a xlink:href="_patch_method_8hpp.html" target="_top" xlink:title=" ">
<polygon fill="white" stroke="#666666" points="855.83,-305 706.83,-305 706.83,-275 855.83,-275 855.83,-305"/>
<text text-anchor="start" x="714.83" y="-293" font-family="Helvetica,sans-Serif" font-size="10.00">include/Thoth/Http</text>
<text text-anchor="middle" x="781.33" y="-282" font-family="Helvetica,sans-Serif" font-size="10.00">/Methods/PatchMethod.hpp</text>
</a>
</g>
</g>
<!-- Node7&#45;&gt;Node15 -->
<g id="edge18_Node000007_Node000015" class="edge">
<title>Node7&#45;&gt;Node15</title>
<g id="a_edge18_Node000007_Node000015"><a xlink:title=" ">
<path fill="none" stroke="#63b8ff" d="M898.25,-337.19C872.52,-327.02 840.74,-314.47 816.8,-305.01"/>
<polygon fill="#63b8ff" stroke="#63b8ff" points="897.2,-340.54 907.78,-340.95 899.77,-334.03 897.2,-340.54"/>
</a>
</g>
</g>
<!-- Node16 -->
<g id="Node000016" class="node">
<title>Node16</title>
<g id="a_Node000016"><a xlink:href="_post_method_8hpp.html" target="_top" xlink:title=" ">
<polygon fill="white" stroke="#666666" points="170.83,-305 27.83,-305 27.83,-275 170.83,-275 170.83,-305"/>
<text text-anchor="start" x="35.83" y="-293" font-family="Helvetica,sans-Serif" font-size="10.00">include/Thoth/Http</text>
<text text-anchor="middle" x="99.33" y="-282" font-family="Helvetica,sans-Serif" font-size="10.00">/Methods/PostMethod.hpp</text>
</a>
</g>
</g>
<!-- Node7&#45;&gt;Node16 -->
<g id="edge19_Node000007_Node000016" class="edge">
<title>Node7&#45;&gt;Node16</title>
<g id="a_edge19_Node000007_Node000016"><a xlink:title=" ">
<path fill="none" stroke="#63b8ff" d="M836.24,-351.64C688.15,-346.16 412.69,-332.97 179.33,-305 176.68,-304.68 173.97,-304.33 171.24,-303.96"/>
<polygon fill="#63b8ff" stroke="#63b8ff" points="836.12,-355.13 846.24,-352 836.38,-348.14 836.12,-355.13"/>
</a>
</g>
</g>
<!-- Node17 -->
<g id="Node000017" class="node">
<title>Node17</title>
<g id="a_Node000017"><a xlink:href="_put_method_8hpp.html" target="_top" xlink:title=" ">
<polygon fill="white" stroke="#666666" points="1012.33,-305 874.33,-305 874.33,-275 1012.33,-275 1012.33,-305"/>
<text text-anchor="start" x="882.33" y="-293" font-family="Helvetica,sans-Serif" font-size="10.00">include/Thoth/Http</text>
<text text-anchor="middle" x="943.33" y="-282" font-family="Helvetica,sans-Serif" font-size="10.00">/Methods/PutMethod.hpp</text>
</a>
</g>
</g>
<!-- Node7&#45;&gt;Node17 -->
<g id="edge22_Node000007_Node000017" class="edge">
<title>Node7&#45;&gt;Node17</title>
<g id="a_edge22_Node000007_Node000017"><a xlink:title=" ">
<path fill="none" stroke="#63b8ff" d="M943.33,-330.54C943.33,-321.96 943.33,-312.61 943.33,-305.16"/>
<polygon fill="#63b8ff" stroke="#63b8ff" points="939.84,-330.8 943.33,-340.8 946.84,-330.8 939.84,-330.8"/>
</a>
</g>
</g>
<!-- Node18 -->
<g id="Node000018" class="node">
<title>Node18</title>
<g id="a_Node000018"><a xlink:href="_trace_method_8hpp.html" target="_top" xlink:title=" ">
<polygon fill="white" stroke="#666666" points="1178.33,-305 1030.33,-305 1030.33,-275 1178.33,-275 1178.33,-305"/>
<text text-anchor="start" x="1038.33" y="-293" font-family="Helvetica,sans-Serif" font-size="10.00">include/Thoth/Http</text>
<text text-anchor="middle" x="1104.33" y="-282" font-family="Helvetica,sans-Serif" font-size="10.00">/Methods/TraceMethod.hpp</text>
</a>
</g>
</g>
<!-- Node7&#45;&gt;Node18 -->
<g id="edge23_Node000007_Node000018" class="edge">
<title>Node7&#45;&gt;Node18</title>
<g id="a_edge23_Node000007_Node000018"><a xlink:title=" ">
<path fill="none" stroke="#63b8ff" d="M988.14,-337.19C1013.71,-327.02 1045.3,-314.47 1069.09,-305.01"/>
<polygon fill="#63b8ff" stroke="#63b8ff" points="986.67,-334.01 978.67,-340.95 989.25,-340.51 986.67,-334.01"/>
</a>
</g>
</g>
<!-- Node10&#45;&gt;Node5 -->
<g id="edge15_Node000010_Node000005" class="edge">
<title>Node10&#45;&gt;Node5</title>
<g id="a_edge15_Node000010_Node000005"><a xlink:title=" ">
<path fill="none" stroke="#63b8ff" d="M1434.48,-265.32C1420.27,-233.39 1400.9,-175.53 1422.33,-132 1429.95,-116.55 1444.88,-104.53 1458.52,-96.16"/>
<polygon fill="#63b8ff" stroke="#63b8ff" points="1431.46,-267.13 1438.85,-274.72 1437.81,-264.18 1431.46,-267.13"/>
</a>
</g>
</g>
<!-- Node11 -->
<g id="Node000011" class="node">
<title>Node11</title>
<g id="a_Node000011"><a xlink:href="_request_8hpp.html" target="_top" xlink:title=" ">
<polygon fill="white" stroke="#666666" points="1374.83,-239 1251.83,-239 1251.83,-209 1374.83,-209 1374.83,-239"/>
<text text-anchor="start" x="1259.83" y="-227" font-family="Helvetica,sans-Serif" font-size="10.00">include/Thoth/Http</text>
<text text-anchor="middle" x="1313.33" y="-216" font-family="Helvetica,sans-Serif" font-size="10.00">/Request/Request.hpp</text>
</a>
</g>
</g>
<!-- Node10&#45;&gt;Node11 -->
<g id="edge11_Node000010_Node000011" class="edge">
<title>Node10&#45;&gt;Node11</title>
<g id="a_edge11_Node000010_Node000011"><a xlink:title=" ">
<path fill="none" stroke="#63b8ff" d="M1407.92,-270.51C1387.05,-260.47 1361.67,-248.26 1342.45,-239.01"/>
<polygon fill="#63b8ff" stroke="#63b8ff" points="1406.62,-273.77 1417.15,-274.95 1409.65,-267.46 1406.62,-273.77"/>
</a>
</g>
</g>
<!-- Node11&#45;&gt;Node6 -->
<g id="edge12_Node000011_Node000006" class="edge">
<title>Node11&#45;&gt;Node6</title>
<g id="a_edge12_Node000011_Node000006"><a xlink:title=" ">
<path fill="none" stroke="#63b8ff" d="M1321.8,-199.31C1337.32,-155.92 1369.83,-64.96 1382.31,-30.05"/>
<polygon fill="#63b8ff" stroke="#63b8ff" points="1318.49,-198.18 1318.42,-208.77 1325.08,-200.53 1318.49,-198.18"/>
</a>
</g>
</g>
<!-- Node11&#45;&gt;Node12 -->
<g id="edge13_Node000011_Node000012" class="edge">
<title>Node11&#45;&gt;Node12</title>
<g id="a_edge13_Node000011_Node000012"><a xlink:title=" ">
<path fill="none" stroke="#63b8ff" d="M1363.5,-205.57C1397.32,-193.81 1441.36,-178.51 1472.92,-167.54"/>
<polygon fill="#63b8ff" stroke="#63b8ff" points="1362.11,-202.35 1353.81,-208.94 1364.4,-208.96 1362.11,-202.35"/>
</a>
</g>
</g>
<!-- Node12&#45;&gt;Node5 -->
<g id="edge14_Node000012_Node000005" class="edge">
<title>Node12&#45;&gt;Node5</title>
<g id="a_edge14_Node000012_Node000005"><a xlink:title=" ">
<path fill="none" stroke="#63b8ff" d="M1504.51,-127.9C1500.55,-117.31 1496.01,-105.18 1492.59,-96.04"/>
<polygon fill="#63b8ff" stroke="#63b8ff" points="1501.29,-129.3 1508.07,-137.44 1507.85,-126.84 1501.29,-129.3"/>
</a>
</g>
</g>
<!-- Node16&#45;&gt;Node5 -->
<g id="edge21_Node000016_Node000005" class="edge">
<title>Node16&#45;&gt;Node5</title>
<g id="a_edge21_Node000016_Node000005"><a xlink:title=" ">
<path fill="none" stroke="#63b8ff" d="M180.73,-274.8C659.9,-197.67 1224.33,-118.42 1418.1,-91.55"/>
<polygon fill="#63b8ff" stroke="#63b8ff" points="180.16,-271.34 170.85,-276.39 181.28,-278.25 180.16,-271.34"/>
</a>
</g>
</g>
<!-- Node16&#45;&gt;Node11 -->
<g id="edge20_Node000016_Node000011" class="edge">
<title>Node16&#45;&gt;Node11</title>
<g id="a_edge20_Node000016_Node000011"><a xlink:title=" ">
<path fill="none" stroke="#63b8ff" d="M181.46,-274.88C409.71,-251.44 1049.75,-232.29 1251.6,-226.67"/>
<polygon fill="#63b8ff" stroke="#63b8ff" points="180.81,-271.43 171.23,-275.97 181.54,-278.39 180.81,-271.43"/>
</a>
</g>
</g>
<!-- Node21&#45;&gt;Node11 -->
<g id="edge27_Node000021_Node000011" class="edge">
<title>Node21&#45;&gt;Node11</title>
<g id="a_edge27_Node000021_Node000011"><a xlink:title=" ">
<path fill="none" stroke="#63b8ff" d="M1486.74,-336.1C1514.42,-320.56 1543.15,-297.51 1525.33,-275 1506.82,-251.61 1430.63,-238.06 1374.87,-231.11"/>
<polygon fill="#63b8ff" stroke="#63b8ff" points="1485.01,-333.06 1477.86,-340.87 1488.32,-339.23 1485.01,-333.06"/>
</a>
</g>
</g>
<!-- Node22&#45;&gt;Node5 -->
<g id="edge29_Node000022_Node000005" class="edge">
<title>Node22&#45;&gt;Node5</title>
<g id="a_edge29_Node000022_Node000005"><a xlink:title=" ">
<path fill="none" stroke="#63b8ff" d="M1659.51,-129.3C1619.75,-118.37 1573.04,-105.54 1538.31,-96"/>
<polygon fill="#63b8ff" stroke="#63b8ff" points="1658.62,-132.68 1669.19,-131.96 1660.47,-125.93 1658.62,-132.68"/>
</a>
</g>
</g>
<!-- Node23&#45;&gt;Node3 -->
<g id="edge35_Node000023_Node000003" class="edge">
<title>Node23&#45;&gt;Node3</title>
<g id="a_edge35_Node000023_Node000003"><a xlink:title=" ">
<path fill="none" stroke="#63b8ff" d="M1319.04,-475.83C1384.95,-464.27 1487.4,-446.31 1554.19,-434.6"/>
<polygon fill="#63b8ff" stroke="#63b8ff" points="1318.44,-472.38 1309.19,-477.56 1319.65,-479.28 1318.44,-472.38"/>
</a>
</g>
</g>
<!-- Node23&#45;&gt;Node7 -->
<g id="edge34_Node000023_Node000007" class="edge">
<title>Node23&#45;&gt;Node7</title>
<g id="a_edge34_Node000023_Node000007"><a xlink:title=" ">
<path fill="none" stroke="#63b8ff" d="M1212.05,-468.96C1149.31,-442.82 1034.42,-394.95 977.35,-371.17"/>
<polygon fill="#63b8ff" stroke="#63b8ff" points="1211.07,-472.35 1221.65,-472.96 1213.76,-465.89 1211.07,-472.35"/>
</a>
</g>
</g>
<!-- Node23&#45;&gt;Node11 -->
<g id="edge36_Node000023_Node000011" class="edge">
<title>Node23&#45;&gt;Node11</title>
<g id="a_edge36_Node000023_Node000011"><a xlink:title=" ">
<path fill="none" stroke="#63b8ff" d="M1191.52,-486.08C915.98,-481.07 -150.3,-450.27 18.33,-275 61.53,-230.11 999.45,-225.47 1251.47,-225.03"/>
<polygon fill="#63b8ff" stroke="#63b8ff" points="1191.69,-489.59 1201.75,-486.27 1191.81,-482.59 1191.69,-489.59"/>
</a>
</g>
</g>
</g>
</svg>
