<?xml version="1.0" encoding="UTF-8" standalone="no"?>
<!DOCTYPE svg PUBLIC "-//W3C//DTD SVG 1.1//EN"
 "http://www.w3.org/Graphics/SVG/1.1/DTD/svg11.dtd">
<!-- Generated by graphviz version 2.43.0 (0)
 -->
<!-- Title: include/Thoth/Utils/Ranges/SharedInputView.hpp Pages: 1 -->
<svg width="344pt" height="104pt"
 viewBox="0.00 0.00 344.00 104.00" xmlns="http://www.w3.org/2000/svg" xmlns:xlink="http://www.w3.org/1999/xlink">
<g id="graph0" class="graph" transform="scale(1 1) rotate(0) translate(4 100)">
<title>include/Thoth/Utils/Ranges/SharedInputView.hpp</title>
<!-- Node1 -->
<g id="Node000001" class="node">
<title>Node1</title>
<g id="a_Node000001"><a xlink:title=" ">
<polygon fill="#999999" stroke="#666666" points="214.5,-96 53.5,-96 53.5,-66 214.5,-66 214.5,-96"/>
<text text-anchor="start" x="61.5" y="-84" font-family="Helvetica,sans-Serif" font-size="10.00">include/Thoth/Utils</text>
<text text-anchor="middle" x="134" y="-73" font-family="Helvetica,sans-Serif" font-size="10.00">/Ranges/SharedInputView.hpp</text>
</a>
</g>
</g>
<!-- Node2 -->
<g id="Node000002" class="node">
<title>Node2</title>
<g id="a_Node000002"><a xlink:title=" ">
<polygon fill="#e0e0e0" stroke="#999999" points="50,-24.5 0,-24.5 0,-5.5 50,-5.5 50,-24.5"/>
<text text-anchor="middle" x="25" y="-12.5" font-family="Helvetica,sans-Serif" font-size="10.00">ranges</text>
</a>
</g>
</g>
<!-- Node1&#45;&gt;Node2 -->
<g id="edge1_Node000001_Node000002" class="edge">
<title>Node1&#45;&gt;Node2</title>
<g id="a_edge1_Node000001_Node000002"><a xlink:title=" ">
<path fill="none" stroke="#63b8ff" d="M110.08,-65.95C91.72,-55.18 66.52,-40.38 48.31,-29.69"/>
<polygon fill="#63b8ff" stroke="#63b8ff" points="49.9,-26.56 39.51,-24.52 46.36,-32.6 49.9,-26.56"/>
</a>
</g>
</g>
<!-- Node3 -->
<g id="Node000003" class="node">
<title>Node3</title>
<g id="a_Node000003"><a xlink:title=" ">
<polygon fill="#e0e0e0" stroke="#999999" points="126,-24.5 68,-24.5 68,-5.5 126,-5.5 126,-24.5"/>
<text text-anchor="middle" x="97" y="-12.5" font-family="Helvetica,sans-Serif" font-size="10.00">memory</text>
</a>
</g>
</g>
<!-- Node1&#45;&gt;Node3 -->
<g id="edge2_Node000001_Node000003" class="edge">
<title>Node1&#45;&gt;Node3</title>
<g id="a_edge2_Node000001_Node000003"><a xlink:title=" ">
<path fill="none" stroke="#63b8ff" d="M125.79,-65.8C120.3,-56.31 113.05,-43.76 107.19,-33.63"/>
<polygon fill="#63b8ff" stroke="#63b8ff" points="110.15,-31.75 102.11,-24.84 104.09,-35.25 110.15,-31.75"/>
</a>
</g>
</g>
<!-- Node4 -->
<g id="Node000004" class="node">
<title>Node4</title>
<g id="a_Node000004"><a xlink:title=" ">
<polygon fill="#e0e0e0" stroke="#999999" points="197.5,-24.5 144.5,-24.5 144.5,-5.5 197.5,-5.5 197.5,-24.5"/>
<text text-anchor="middle" x="171" y="-12.5" font-family="Helvetica,sans-Serif" font-size="10.00">iterator</text>
</a>
</g>
</g>
<!-- Node1&#45;&gt;Node4 -->
<g id="edge3_Node000001_Node000004" class="edge">
<title>Node1&#45;&gt;Node4</title>
<g id="a_edge3_Node000001_Node000004"><a xlink:title=" ">
<path fill="none" stroke="#63b8ff" d="M142.21,-65.8C147.7,-56.31 154.95,-43.76 160.81,-33.63"/>
<polygon fill="#63b8ff" stroke="#63b8ff" points="163.91,-35.25 165.89,-24.84 157.85,-31.75 163.91,-35.25"/>
</a>
</g>
</g>
<!-- Node5 -->
<g id="Node000005" class="node">
<title>Node5</title>
<g id="a_Node000005"><a xlink:title=" ">
<polygon fill="#e0e0e0" stroke="#999999" points="336,-30 216,-30 216,0 336,0 336,-30"/>
<text text-anchor="start" x="224" y="-18" font-family="Helvetica,sans-Serif" font-size="10.00">Thoth/Utils/Ranges</text>
<text text-anchor="middle" x="276" y="-7" font-family="Helvetica,sans-Serif" font-size="10.00">/SharedInputView.tpp</text>
</a>
</g>
</g>
<!-- Node1&#45;&gt;Node5 -->
<g id="edge4_Node000001_Node000005" class="edge">
<title>Node1&#45;&gt;Node5</title>
<g id="a_edge4_Node000001_Node000005"><a xlink:title=" ">
<path fill="none" stroke="#63b8ff" d="M165.16,-65.95C185.88,-56.62 213.29,-44.27 235.66,-34.18"/>
<polygon fill="#63b8ff" stroke="#63b8ff" points="237.23,-37.31 244.91,-30.01 234.36,-30.93 237.23,-37.31"/>
</a>
</g>
</g>
</g>
</svg>
