<?xml version="1.0" encoding="UTF-8" standalone="no"?>
<!DOCTYPE svg PUBLIC "-//W3C//DTD SVG 1.1//EN"
 "http://www.w3.org/Graphics/SVG/1.1/DTD/svg11.dtd">
<!-- Generated by graphviz version 2.43.0 (0)
 -->
<!-- Title: include/Thoth/Http/Response/StatusCodeEnum.hpp Pages: 1 -->
<svg width="2177pt" height="511pt"
 viewBox="0.00 0.00 2176.50 511.00" xmlns="http://www.w3.org/2000/svg" xmlns:xlink="http://www.w3.org/1999/xlink">
<g id="graph0" class="graph" transform="scale(1 1) rotate(0) translate(4 507)">
<title>include/Thoth/Http/Response/StatusCodeEnum.hpp</title>
<!-- Node1 -->
<g id="Node000001" class="node">
<title>Node1</title>
<g id="a_Node000001"><a xlink:title=" ">
<polygon fill="#999999" stroke="#666666" points="1661.5,-503 1487.5,-503 1487.5,-473 1661.5,-473 1661.5,-503"/>
<text text-anchor="start" x="1495.5" y="-491" font-family="Helvetica,sans-Serif" font-size="10.00">include/Thoth/Http</text>
<text text-anchor="middle" x="1574.5" y="-480" font-family="Helvetica,sans-Serif" font-size="10.00">/Response/StatusCodeEnum.hpp</text>
</a>
</g>
</g>
<!-- Node2 -->
<g id="Node000002" class="node">
<title>Node2</title>
<g id="a_Node000002"><a xlink:href="_method_concept_8hpp.html" target="_top" xlink:title=" ">
<polygon fill="white" stroke="#666666" points="1011.5,-365.5 817.5,-365.5 817.5,-335.5 1011.5,-335.5 1011.5,-365.5"/>
<text text-anchor="start" x="825.5" y="-353.5" font-family="Helvetica,sans-Serif" font-size="10.00">include/Thoth/Http</text>
<text text-anchor="middle" x="914.5" y="-342.5" font-family="Helvetica,sans-Serif" font-size="10.00">/Methods/_base/MethodConcept.hpp</text>
</a>
</g>
</g>
<!-- Node1&#45;&gt;Node2 -->
<g id="edge1_Node000001_Node000002" class="edge">
<title>Node1&#45;&gt;Node2</title>
<g id="a_edge1_Node000001_Node000002"><a xlink:title=" ">
<path fill="none" stroke="#63b8ff" d="M1496.13,-470.91C1365.83,-444.16 1106.77,-390.97 983.19,-365.6"/>
<polygon fill="#63b8ff" stroke="#63b8ff" points="1495.55,-474.36 1506.05,-472.95 1496.95,-467.51 1495.55,-474.36"/>
</a>
</g>
</g>
<!-- Node8 -->
<g id="Node000008" class="node">
<title>Node8</title>
<g id="a_Node000008"><a xlink:href="_response_head_8hpp.html" target="_top" xlink:title=" ">
<polygon fill="white" stroke="#666666" points="1604.5,-162 1440.5,-162 1440.5,-132 1604.5,-132 1604.5,-162"/>
<text text-anchor="start" x="1448.5" y="-150" font-family="Helvetica,sans-Serif" font-size="10.00">include/Thoth/Http</text>
<text text-anchor="middle" x="1522.5" y="-139" font-family="Helvetica,sans-Serif" font-size="10.00">/Response/ResponseHead.hpp</text>
</a>
</g>
</g>
<!-- Node1&#45;&gt;Node8 -->
<g id="edge26_Node000001_Node000008" class="edge">
<title>Node1&#45;&gt;Node8</title>
<g id="a_edge26_Node000001_Node000008"><a xlink:title=" ">
<path fill="none" stroke="#63b8ff" d="M1671.63,-484.7C1840.05,-478.05 2168.5,-452.18 2168.5,-351.5 2168.5,-351.5 2168.5,-351.5 2168.5,-278 2168.5,-164.24 1778.64,-148.78 1604.64,-147.54"/>
<polygon fill="#63b8ff" stroke="#63b8ff" points="1671.37,-481.21 1661.51,-485.08 1671.63,-488.2 1671.37,-481.21"/>
</a>
</g>
</g>
<!-- Node16 -->
<g id="Node000016" class="node">
<title>Node16</title>
<g id="a_Node000016"><a xlink:href="_headers_8hpp.html" target="_top" xlink:title=" ">
<polygon fill="white" stroke="#666666" points="1640.5,-437 1508.5,-437 1508.5,-407 1640.5,-407 1640.5,-437"/>
<text text-anchor="start" x="1516.5" y="-425" font-family="Helvetica,sans-Serif" font-size="10.00">include/Thoth/Http</text>
<text text-anchor="middle" x="1574.5" y="-414" font-family="Helvetica,sans-Serif" font-size="10.00">/NHeaders/Headers.hpp</text>
</a>
</g>
</g>
<!-- Node1&#45;&gt;Node16 -->
<g id="edge19_Node000001_Node000016" class="edge">
<title>Node1&#45;&gt;Node16</title>
<g id="a_edge19_Node000001_Node000016"><a xlink:title=" ">
<path fill="none" stroke="#63b8ff" d="M1574.5,-462.54C1574.5,-453.96 1574.5,-444.61 1574.5,-437.16"/>
<polygon fill="#63b8ff" stroke="#63b8ff" points="1571,-462.8 1574.5,-472.8 1578,-462.8 1571,-462.8"/>
</a>
</g>
</g>
<!-- Node3 -->
<g id="Node000003" class="node">
<title>Node3</title>
<g id="a_Node000003"><a xlink:href="_connect_method_8hpp.html" target="_top" xlink:title=" ">
<polygon fill="white" stroke="#666666" points="651.5,-294 489.5,-294 489.5,-264 651.5,-264 651.5,-294"/>
<text text-anchor="start" x="497.5" y="-282" font-family="Helvetica,sans-Serif" font-size="10.00">include/Thoth/Http</text>
<text text-anchor="middle" x="570.5" y="-271" font-family="Helvetica,sans-Serif" font-size="10.00">/Methods/ConnectMethod.hpp</text>
</a>
</g>
</g>
<!-- Node2&#45;&gt;Node3 -->
<g id="edge2_Node000002_Node000003" class="edge">
<title>Node2&#45;&gt;Node3</title>
<g id="a_edge2_Node000002_Node000003"><a xlink:title=" ">
<path fill="none" stroke="#63b8ff" d="M834.87,-333.41C775.93,-321.5 696.4,-305.44 640.01,-294.04"/>
<polygon fill="#63b8ff" stroke="#63b8ff" points="834.39,-336.89 844.89,-335.44 835.78,-330.02 834.39,-336.89"/>
</a>
</g>
</g>
<!-- Node4 -->
<g id="Node000004" class="node">
<title>Node4</title>
<g id="a_Node000004"><a xlink:href="_delete_method_8hpp.html" target="_top" xlink:title=" ">
<polygon fill="white" stroke="#666666" points="825,-294 670,-294 670,-264 825,-264 825,-294"/>
<text text-anchor="start" x="678" y="-282" font-family="Helvetica,sans-Serif" font-size="10.00">include/Thoth/Http</text>
<text text-anchor="middle" x="747.5" y="-271" font-family="Helvetica,sans-Serif" font-size="10.00">/Methods/DeleteMethod.hpp</text>
</a>
</g>
</g>
<!-- Node2&#45;&gt;Node4 -->
<g id="edge3_Node000002_Node000004" class="edge">
<title>Node2&#45;&gt;Node4</title>
<g id="a_edge3_Node000002_Node000004"><a xlink:title=" ">
<path fill="none" stroke="#63b8ff" d="M871.15,-331.46C843.11,-319.79 807.15,-304.82 781.24,-294.04"/>
<polygon fill="#63b8ff" stroke="#63b8ff" points="870.13,-334.82 880.71,-335.44 872.82,-328.36 870.13,-334.82"/>
</a>
</g>
</g>
<!-- Node5 -->
<g id="Node000005" class="node">
<title>Node5</title>
<g id="a_Node000005"><a xlink:href="_get_method_8hpp.html" target="_top" xlink:title=" ">
<polygon fill="white" stroke="#666666" points="1488.5,-294 1348.5,-294 1348.5,-264 1488.5,-264 1488.5,-294"/>
<text text-anchor="start" x="1356.5" y="-282" font-family="Helvetica,sans-Serif" font-size="10.00">include/Thoth/Http</text>
<text text-anchor="middle" x="1418.5" y="-271" font-family="Helvetica,sans-Serif" font-size="10.00">/Methods/GetMethod.hpp</text>
</a>
</g>
</g>
<!-- Node2&#45;&gt;Node5 -->
<g id="edge4_Node000002_Node000005" class="edge">
<title>Node2&#45;&gt;Node5</title>
<g id="a_edge4_Node000002_Node000005"><a xlink:title=" ">
<path fill="none" stroke="#63b8ff" d="M1021.78,-336.86C1107.82,-326.39 1231.61,-310.6 1339.5,-294 1342.39,-293.56 1345.34,-293.09 1348.32,-292.61"/>
<polygon fill="#63b8ff" stroke="#63b8ff" points="1021.24,-333.4 1011.74,-338.08 1022.08,-340.35 1021.24,-333.4"/>
</a>
</g>
</g>
<!-- Node10 -->
<g id="Node000010" class="node">
<title>Node10</title>
<g id="a_Node000010"><a xlink:href="_head_method_8hpp.html" target="_top" xlink:title=" ">
<polygon fill="white" stroke="#666666" points="1152.5,-294 1004.5,-294 1004.5,-264 1152.5,-264 1152.5,-294"/>
<text text-anchor="start" x="1012.5" y="-282" font-family="Helvetica,sans-Serif" font-size="10.00">include/Thoth/Http</text>
<text text-anchor="middle" x="1078.5" y="-271" font-family="Helvetica,sans-Serif" font-size="10.00">/Methods/HeadMethod.hpp</text>
</a>
</g>
</g>
<!-- Node2&#45;&gt;Node10 -->
<g id="edge11_Node000002_Node000010" class="edge">
<title>Node2&#45;&gt;Node10</title>
<g id="a_edge11_Node000002_Node000010"><a xlink:title=" ">
<path fill="none" stroke="#63b8ff" d="M957.07,-331.46C984.61,-319.79 1019.92,-304.82 1045.36,-294.04"/>
<polygon fill="#63b8ff" stroke="#63b8ff" points="955.53,-328.31 947.69,-335.44 958.26,-334.76 955.53,-328.31"/>
</a>
</g>
</g>
<!-- Node11 -->
<g id="Node000011" class="node">
<title>Node11</title>
<g id="a_Node000011"><a xlink:href="_options_method_8hpp.html" target="_top" xlink:title=" ">
<polygon fill="white" stroke="#666666" points="1330.5,-294 1170.5,-294 1170.5,-264 1330.5,-264 1330.5,-294"/>
<text text-anchor="start" x="1178.5" y="-282" font-family="Helvetica,sans-Serif" font-size="10.00">include/Thoth/Http</text>
<text text-anchor="middle" x="1250.5" y="-271" font-family="Helvetica,sans-Serif" font-size="10.00">/Methods/OptionsMethod.hpp</text>
</a>
</g>
</g>
<!-- Node2&#45;&gt;Node11 -->
<g id="edge12_Node000002_Node000011" class="edge">
<title>Node2&#45;&gt;Node11</title>
<g id="a_edge12_Node000002_Node000011"><a xlink:title=" ">
<path fill="none" stroke="#63b8ff" d="M992.63,-333.34C1050.17,-321.44 1127.64,-305.41 1182.61,-294.04"/>
<polygon fill="#63b8ff" stroke="#63b8ff" points="991.58,-329.98 982.49,-335.44 993,-336.84 991.58,-329.98"/>
</a>
</g>
</g>
<!-- Node12 -->
<g id="Node000012" class="node">
<title>Node12</title>
<g id="a_Node000012"><a xlink:href="_patch_method_8hpp.html" target="_top" xlink:title=" ">
<polygon fill="white" stroke="#666666" points="149,-294 0,-294 0,-264 149,-264 149,-294"/>
<text text-anchor="start" x="8" y="-282" font-family="Helvetica,sans-Serif" font-size="10.00">include/Thoth/Http</text>
<text text-anchor="middle" x="74.5" y="-271" font-family="Helvetica,sans-Serif" font-size="10.00">/Methods/PatchMethod.hpp</text>
</a>
</g>
</g>
<!-- Node2&#45;&gt;Node12 -->
<g id="edge13_Node000002_Node000012" class="edge">
<title>Node2&#45;&gt;Node12</title>
<g id="a_edge13_Node000002_Node000012"><a xlink:title=" ">
<path fill="none" stroke="#63b8ff" d="M806.9,-344.72C660.02,-337.48 388.67,-321.57 158.5,-294 155.42,-293.63 152.28,-293.23 149.1,-292.8"/>
<polygon fill="#63b8ff" stroke="#63b8ff" points="807.1,-348.23 817.26,-345.22 807.44,-341.24 807.1,-348.23"/>
</a>
</g>
</g>
<!-- Node13 -->
<g id="Node000013" class="node">
<title>Node13</title>
<g id="a_Node000013"><a xlink:href="_post_method_8hpp.html" target="_top" xlink:title=" ">
<polygon fill="white" stroke="#666666" points="986,-294 843,-294 843,-264 986,-264 986,-294"/>
<text text-anchor="start" x="851" y="-282" font-family="Helvetica,sans-Serif" font-size="10.00">include/Thoth/Http</text>
<text text-anchor="middle" x="914.5" y="-271" font-family="Helvetica,sans-Serif" font-size="10.00">/Methods/PostMethod.hpp</text>
</a>
</g>
</g>
<!-- Node2&#45;&gt;Node13 -->
<g id="edge14_Node000002_Node000013" class="edge">
<title>Node2&#45;&gt;Node13</title>
<g id="a_edge14_Node000002_Node000013"><a xlink:title=" ">
<path fill="none" stroke="#63b8ff" d="M914.5,-325.25C914.5,-314.81 914.5,-302.99 914.5,-294.04"/>
<polygon fill="#63b8ff" stroke="#63b8ff" points="911,-325.44 914.5,-335.44 918,-325.44 911,-325.44"/>
</a>
</g>
</g>
<!-- Node14 -->
<g id="Node000014" class="node">
<title>Node14</title>
<g id="a_Node000014"><a xlink:href="_put_method_8hpp.html" target="_top" xlink:title=" ">
<polygon fill="white" stroke="#666666" points="305.5,-294 167.5,-294 167.5,-264 305.5,-264 305.5,-294"/>
<text text-anchor="start" x="175.5" y="-282" font-family="Helvetica,sans-Serif" font-size="10.00">include/Thoth/Http</text>
<text text-anchor="middle" x="236.5" y="-271" font-family="Helvetica,sans-Serif" font-size="10.00">/Methods/PutMethod.hpp</text>
</a>
</g>
</g>
<!-- Node2&#45;&gt;Node14 -->
<g id="edge17_Node000002_Node000014" class="edge">
<title>Node2&#45;&gt;Node14</title>
<g id="a_edge17_Node000002_Node000014"><a xlink:title=" ">
<path fill="none" stroke="#63b8ff" d="M806.99,-342.33C686.68,-333.67 486.11,-317.29 314.5,-294 311.64,-293.61 308.72,-293.19 305.77,-292.75"/>
<polygon fill="#63b8ff" stroke="#63b8ff" points="807.08,-345.85 817.31,-343.07 807.58,-338.87 807.08,-345.85"/>
</a>
</g>
</g>
<!-- Node15 -->
<g id="Node000015" class="node">
<title>Node15</title>
<g id="a_Node000015"><a xlink:href="_trace_method_8hpp.html" target="_top" xlink:title=" ">
<polygon fill="white" stroke="#666666" points="471.5,-294 323.5,-294 323.5,-264 471.5,-264 471.5,-294"/>
<text text-anchor="start" x="331.5" y="-282" font-family="Helvetica,sans-Serif" font-size="10.00">include/Thoth/Http</text>
<text text-anchor="middle" x="397.5" y="-271" font-family="Helvetica,sans-Serif" font-size="10.00">/Methods/TraceMethod.hpp</text>
</a>
</g>
</g>
<!-- Node2&#45;&gt;Node15 -->
<g id="edge18_Node000002_Node000015" class="edge">
<title>Node2&#45;&gt;Node15</title>
<g id="a_edge18_Node000002_Node000015"><a xlink:title=" ">
<path fill="none" stroke="#63b8ff" d="M807.4,-337.01C719.46,-326.47 591.74,-310.49 480.5,-294 477.61,-293.57 474.66,-293.12 471.69,-292.66"/>
<polygon fill="#63b8ff" stroke="#63b8ff" points="807.04,-340.49 817.39,-338.21 807.88,-333.54 807.04,-340.49"/>
</a>
</g>
</g>
<!-- Node6 -->
<g id="Node000006" class="node">
<title>Node6</title>
<g id="a_Node000006"><a xlink:href="_request_8hpp.html" target="_top" xlink:title=" ">
<polygon fill="white" stroke="#666666" points="1382,-228 1259,-228 1259,-198 1382,-198 1382,-228"/>
<text text-anchor="start" x="1267" y="-216" font-family="Helvetica,sans-Serif" font-size="10.00">include/Thoth/Http</text>
<text text-anchor="middle" x="1320.5" y="-205" font-family="Helvetica,sans-Serif" font-size="10.00">/Request/Request.hpp</text>
</a>
</g>
</g>
<!-- Node5&#45;&gt;Node6 -->
<g id="edge5_Node000005_Node000006" class="edge">
<title>Node5&#45;&gt;Node6</title>
<g id="a_edge5_Node000005_Node000006"><a xlink:title=" ">
<path fill="none" stroke="#63b8ff" d="M1388.34,-258.3C1373.42,-248.56 1355.75,-237.02 1342.19,-228.16"/>
<polygon fill="#63b8ff" stroke="#63b8ff" points="1386.46,-261.26 1396.75,-263.8 1390.29,-255.4 1386.46,-261.26"/>
</a>
</g>
</g>
<!-- Node9 -->
<g id="Node000009" class="node">
<title>Node9</title>
<g id="a_Node000009"><a xlink:href="_response_8hpp.html" target="_top" xlink:title=" ">
<polygon fill="white" stroke="#666666" points="1483.5,-96 1345.5,-96 1345.5,-66 1483.5,-66 1483.5,-96"/>
<text text-anchor="start" x="1353.5" y="-84" font-family="Helvetica,sans-Serif" font-size="10.00">include/Thoth/Http</text>
<text text-anchor="middle" x="1414.5" y="-73" font-family="Helvetica,sans-Serif" font-size="10.00">/Response/Response.hpp</text>
</a>
</g>
</g>
<!-- Node5&#45;&gt;Node9 -->
<g id="edge10_Node000005_Node000009" class="edge">
<title>Node5&#45;&gt;Node9</title>
<g id="a_edge10_Node000005_Node000009"><a xlink:title=" ">
<path fill="none" stroke="#63b8ff" d="M1418.01,-253.89C1417.16,-212.58 1415.47,-129.48 1414.79,-96.23"/>
<polygon fill="#63b8ff" stroke="#63b8ff" points="1414.51,-253.98 1418.21,-263.9 1421.51,-253.83 1414.51,-253.98"/>
</a>
</g>
</g>
<!-- Node7 -->
<g id="Node000007" class="node">
<title>Node7</title>
<g id="a_Node000007"><a xlink:href="_client_8hpp.html" target="_top" xlink:title=" ">
<polygon fill="white" stroke="#666666" points="1419,-30 1312,-30 1312,0 1419,0 1419,-30"/>
<text text-anchor="start" x="1320" y="-18" font-family="Helvetica,sans-Serif" font-size="10.00">include/Thoth/Http</text>
<text text-anchor="middle" x="1365.5" y="-7" font-family="Helvetica,sans-Serif" font-size="10.00">/Client.hpp</text>
</a>
</g>
</g>
<!-- Node6&#45;&gt;Node7 -->
<g id="edge6_Node000006_Node000007" class="edge">
<title>Node6&#45;&gt;Node7</title>
<g id="a_edge6_Node000006_Node000007"><a xlink:title=" ">
<path fill="none" stroke="#63b8ff" d="M1320.12,-187.71C1320.35,-158.2 1322.95,-107.24 1336.5,-66 1340.76,-53.03 1348.68,-39.73 1355.17,-30.11"/>
<polygon fill="#63b8ff" stroke="#63b8ff" points="1316.62,-187.91 1320.14,-197.91 1323.62,-187.9 1316.62,-187.91"/>
</a>
</g>
</g>
<!-- Node6&#45;&gt;Node8 -->
<g id="edge7_Node000006_Node000008" class="edge">
<title>Node6&#45;&gt;Node8</title>
<g id="a_edge7_Node000006_Node000008"><a xlink:title=" ">
<path fill="none" stroke="#63b8ff" d="M1374.61,-194.86C1407.05,-184.58 1447.77,-171.68 1478.27,-162.01"/>
<polygon fill="#63b8ff" stroke="#63b8ff" points="1373.31,-191.6 1364.83,-197.95 1375.42,-198.27 1373.31,-191.6"/>
</a>
</g>
</g>
<!-- Node8&#45;&gt;Node9 -->
<g id="edge8_Node000008_Node000009" class="edge">
<title>Node8&#45;&gt;Node9</title>
<g id="a_edge8_Node000008_Node000009"><a xlink:title=" ">
<path fill="none" stroke="#63b8ff" d="M1489.92,-126.69C1473.25,-116.82 1453.33,-105.01 1438.15,-96.01"/>
<polygon fill="#63b8ff" stroke="#63b8ff" points="1488.41,-129.87 1498.8,-131.95 1491.98,-123.85 1488.41,-129.87"/>
</a>
</g>
</g>
<!-- Node9&#45;&gt;Node7 -->
<g id="edge9_Node000009_Node000007" class="edge">
<title>Node9&#45;&gt;Node7</title>
<g id="a_edge9_Node000009_Node000007"><a xlink:title=" ">
<path fill="none" stroke="#63b8ff" d="M1397.51,-57.81C1390.49,-48.64 1382.56,-38.28 1376.34,-30.16"/>
<polygon fill="#63b8ff" stroke="#63b8ff" points="1394.77,-59.98 1403.63,-65.8 1400.33,-55.73 1394.77,-59.98"/>
</a>
</g>
</g>
<!-- Node13&#45;&gt;Node6 -->
<g id="edge15_Node000013_Node000006" class="edge">
<title>Node13&#45;&gt;Node6</title>
<g id="a_edge15_Node000013_Node000006"><a xlink:title=" ">
<path fill="none" stroke="#63b8ff" d="M996.12,-263.92C1094.07,-247.98 1195.5,-232.61 1258.75,-223.15"/>
<polygon fill="#63b8ff" stroke="#63b8ff" points="995.35,-260.5 986.04,-265.56 996.47,-267.41 995.35,-260.5"/>
</a>
</g>
</g>
<!-- Node13&#45;&gt;Node9 -->
<g id="edge16_Node000013_Node000009" class="edge">
<title>Node13&#45;&gt;Node9</title>
<g id="a_edge16_Node000013_Node000009"><a xlink:title=" ">
<path fill="none" stroke="#63b8ff" d="M959.83,-260.23C1058.16,-221.69 1289.35,-131.06 1378.53,-96.1"/>
<polygon fill="#63b8ff" stroke="#63b8ff" points="958.49,-257 950.46,-263.9 961.05,-263.51 958.49,-257"/>
</a>
</g>
</g>
<!-- Node16&#45;&gt;Node2 -->
<g id="edge20_Node000016_Node000002" class="edge">
<title>Node16&#45;&gt;Node2</title>
<g id="a_edge20_Node000016_Node000002"><a xlink:title=" ">
<path fill="none" stroke="#63b8ff" d="M1498.27,-412.97C1377.9,-400.3 1143.93,-375.66 1011.67,-361.73"/>
<polygon fill="#63b8ff" stroke="#63b8ff" points="1498.19,-416.48 1508.5,-414.05 1498.92,-409.52 1498.19,-416.48"/>
</a>
</g>
</g>
<!-- Node16&#45;&gt;Node8 -->
<g id="edge25_Node000016_Node000008" class="edge">
<title>Node16&#45;&gt;Node8</title>
<g id="a_edge25_Node000016_Node000008"><a xlink:title=" ">
<path fill="none" stroke="#63b8ff" d="M1552.82,-399.16C1546.05,-390.99 1539.34,-381.2 1535.5,-371 1507.47,-296.6 1516,-198.36 1520.5,-162.17"/>
<polygon fill="#63b8ff" stroke="#63b8ff" points="1550.28,-401.56 1559.52,-406.74 1555.53,-396.93 1550.28,-401.56"/>
</a>
</g>
</g>
<!-- Node17 -->
<g id="Node000017" class="node">
<title>Node17</title>
<g id="a_Node000017"><a xlink:href="_list_proxy_8hpp.html" target="_top" xlink:title=" ">
<polygon fill="white" stroke="#666666" points="1488.5,-365.5 1322.5,-365.5 1322.5,-335.5 1488.5,-335.5 1488.5,-365.5"/>
<text text-anchor="start" x="1330.5" y="-353.5" font-family="Helvetica,sans-Serif" font-size="10.00">include/Thoth/Http</text>
<text text-anchor="middle" x="1405.5" y="-342.5" font-family="Helvetica,sans-Serif" font-size="10.00">/NHeaders/Proxy/ListProxy.hpp</text>
</a>
</g>
</g>
<!-- Node16&#45;&gt;Node17 -->
<g id="edge21_Node000016_Node000017" class="edge">
<title>Node16&#45;&gt;Node17</title>
<g id="a_edge21_Node000016_Node000017"><a xlink:title=" ">
<path fill="none" stroke="#63b8ff" d="M1531,-403.11C1502.57,-391.42 1465.98,-376.37 1439.65,-365.54"/>
<polygon fill="#63b8ff" stroke="#63b8ff" points="1529.72,-406.37 1540.3,-406.94 1532.38,-399.9 1529.72,-406.37"/>
</a>
</g>
</g>
<!-- Node18 -->
<g id="Node000018" class="node">
<title>Node18</title>
<g id="a_Node000018"><a xlink:href="_value_proxy_8hpp.html" target="_top" xlink:title=" ">
<polygon fill="white" stroke="#666666" points="1720.5,-365.5 1544.5,-365.5 1544.5,-335.5 1720.5,-335.5 1720.5,-365.5"/>
<text text-anchor="start" x="1552.5" y="-353.5" font-family="Helvetica,sans-Serif" font-size="10.00">include/Thoth/Http</text>
<text text-anchor="middle" x="1632.5" y="-342.5" font-family="Helvetica,sans-Serif" font-size="10.00">/NHeaders/Proxy/ValueProxy.hpp</text>
</a>
</g>
</g>
<!-- Node16&#45;&gt;Node18 -->
<g id="edge22_Node000016_Node000018" class="edge">
<title>Node16&#45;&gt;Node18</title>
<g id="a_edge22_Node000016_Node000018"><a xlink:title=" ">
<path fill="none" stroke="#63b8ff" d="M1592.84,-399.03C1601.98,-388.07 1612.77,-375.15 1620.78,-365.54"/>
<polygon fill="#63b8ff" stroke="#63b8ff" points="1589.96,-397.02 1586.24,-406.94 1595.33,-401.5 1589.96,-397.02"/>
</a>
</g>
</g>
<!-- Node19 -->
<g id="Node000019" class="node">
<title>Node19</title>
<g id="a_Node000019"><a xlink:href="_request_headers_8hpp.html" target="_top" xlink:title=" ">
<polygon fill="white" stroke="#666666" points="1954,-365.5 1739,-365.5 1739,-335.5 1954,-335.5 1954,-365.5"/>
<text text-anchor="start" x="1747" y="-353.5" font-family="Helvetica,sans-Serif" font-size="10.00">include/Thoth/Http</text>
<text text-anchor="middle" x="1846.5" y="-342.5" font-family="Helvetica,sans-Serif" font-size="10.00">/NHeaders/Request/RequestHeaders.hpp</text>
</a>
</g>
</g>
<!-- Node16&#45;&gt;Node19 -->
<g id="edge23_Node000016_Node000019" class="edge">
<title>Node16&#45;&gt;Node19</title>
<g id="a_edge23_Node000016_Node000019"><a xlink:title=" ">
<path fill="none" stroke="#63b8ff" d="M1639.49,-404.39C1685.89,-392.54 1747.6,-376.77 1791.54,-365.54"/>
<polygon fill="#63b8ff" stroke="#63b8ff" points="1638.37,-401.07 1629.54,-406.94 1640.1,-407.85 1638.37,-401.07"/>
</a>
</g>
</g>
<!-- Node20 -->
<g id="Node000020" class="node">
<title>Node20</title>
<g id="a_Node000020"><a xlink:href="_response_headers_8hpp.html" target="_top" xlink:title=" ">
<polygon fill="white" stroke="#666666" points="2140.5,-371 1972.5,-371 1972.5,-330 2140.5,-330 2140.5,-371"/>
<text text-anchor="start" x="1980.5" y="-359" font-family="Helvetica,sans-Serif" font-size="10.00">include/Thoth/Http</text>
<text text-anchor="start" x="1980.5" y="-348" font-family="Helvetica,sans-Serif" font-size="10.00">/NHeaders/Response/Response</text>
<text text-anchor="middle" x="2056.5" y="-337" font-family="Helvetica,sans-Serif" font-size="10.00">Headers.hpp</text>
</a>
</g>
</g>
<!-- Node16&#45;&gt;Node20 -->
<g id="edge24_Node000016_Node000020" class="edge">
<title>Node16&#45;&gt;Node20</title>
<g id="a_edge24_Node000016_Node000020"><a xlink:title=" ">
<path fill="none" stroke="#63b8ff" d="M1651.11,-412.96C1729.76,-404.28 1855.55,-389.23 1963.5,-371 1966.43,-370.51 1969.4,-369.98 1972.41,-369.44"/>
<polygon fill="#63b8ff" stroke="#63b8ff" points="1650.37,-409.52 1640.81,-414.09 1651.13,-416.48 1650.37,-409.52"/>
</a>
</g>
</g>
</g>
</svg>
