<?xml version="1.0" encoding="UTF-8" standalone="no"?>
<!DOCTYPE svg PUBLIC "-//W3C//DTD SVG 1.1//EN"
 "http://www.w3.org/Graphics/SVG/1.1/DTD/svg11.dtd">
<!-- Generated by graphviz version 2.43.0 (0)
 -->
<!-- Title: include/Thoth/Http/Response/StatusCodeEnum.hpp Pages: 1 -->
<svg width="1564pt" height="434pt"
 viewBox="0.00 0.00 1563.50 434.00" xmlns="http://www.w3.org/2000/svg" xmlns:xlink="http://www.w3.org/1999/xlink">
<g id="graph0" class="graph" transform="scale(1 1) rotate(0) translate(4 430)">
<title>include/Thoth/Http/Response/StatusCodeEnum.hpp</title>
<!-- Node1 -->
<g id="Node000001" class="node">
<title>Node1</title>
<g id="a_Node000001"><a xlink:title=" ">
<polygon fill="#999999" stroke="#666666" points="1441.5,-426 1267.5,-426 1267.5,-396 1441.5,-396 1441.5,-426"/>
<text text-anchor="start" x="1275.5" y="-414" font-family="Helvetica,sans-Serif" font-size="10.00">include/Thoth/Http</text>
<text text-anchor="middle" x="1354.5" y="-403" font-family="Helvetica,sans-Serif" font-size="10.00">/Response/StatusCodeEnum.hpp</text>
</a>
</g>
</g>
<!-- Node2 -->
<g id="Node000002" class="node">
<title>Node2</title>
<g id="a_Node000002"><a xlink:href="_headers_8hpp.html" target="_top" xlink:title=" ">
<polygon fill="white" stroke="#666666" points="1408,-360 1301,-360 1301,-330 1408,-330 1408,-360"/>
<text text-anchor="start" x="1309" y="-348" font-family="Helvetica,sans-Serif" font-size="10.00">include/Thoth/Http</text>
<text text-anchor="middle" x="1354.5" y="-337" font-family="Helvetica,sans-Serif" font-size="10.00">/Headers.hpp</text>
</a>
</g>
</g>
<!-- Node1&#45;&gt;Node2 -->
<g id="edge1_Node000001_Node000002" class="edge">
<title>Node1&#45;&gt;Node2</title>
<g id="a_edge1_Node000001_Node000002"><a xlink:title=" ">
<path fill="none" stroke="#63b8ff" d="M1354.5,-385.54C1354.5,-376.96 1354.5,-367.61 1354.5,-360.16"/>
<polygon fill="#63b8ff" stroke="#63b8ff" points="1351,-385.8 1354.5,-395.8 1358,-385.8 1351,-385.8"/>
</a>
</g>
</g>
<!-- Node3 -->
<g id="Node000003" class="node">
<title>Node3</title>
<g id="a_Node000003"><a xlink:href="_method_concept_8hpp.html" target="_top" xlink:title=" ">
<polygon fill="white" stroke="#666666" points="1010.5,-294 816.5,-294 816.5,-264 1010.5,-264 1010.5,-294"/>
<text text-anchor="start" x="824.5" y="-282" font-family="Helvetica,sans-Serif" font-size="10.00">include/Thoth/Http</text>
<text text-anchor="middle" x="913.5" y="-271" font-family="Helvetica,sans-Serif" font-size="10.00">/Methods/_base/MethodConcept.hpp</text>
</a>
</g>
</g>
<!-- Node1&#45;&gt;Node3 -->
<g id="edge20_Node000001_Node000003" class="edge">
<title>Node1&#45;&gt;Node3</title>
<g id="a_edge20_Node000001_Node000003"><a xlink:title=" ">
<path fill="none" stroke="#63b8ff" d="M1297.08,-393.07C1209.2,-367.17 1042.94,-318.16 961.25,-294.08"/>
<polygon fill="#63b8ff" stroke="#63b8ff" points="1296.3,-396.49 1306.89,-395.96 1298.28,-389.78 1296.3,-396.49"/>
</a>
</g>
</g>
<!-- Node9 -->
<g id="Node000009" class="node">
<title>Node9</title>
<g id="a_Node000009"><a xlink:href="_response_8hpp.html" target="_top" xlink:title=" ">
<polygon fill="white" stroke="#666666" points="1519.5,-96 1381.5,-96 1381.5,-66 1519.5,-66 1519.5,-96"/>
<text text-anchor="start" x="1389.5" y="-84" font-family="Helvetica,sans-Serif" font-size="10.00">include/Thoth/Http</text>
<text text-anchor="middle" x="1450.5" y="-73" font-family="Helvetica,sans-Serif" font-size="10.00">/Response/Response.hpp</text>
</a>
</g>
</g>
<!-- Node1&#45;&gt;Node9 -->
<g id="edge21_Node000001_Node000009" class="edge">
<title>Node1&#45;&gt;Node9</title>
<g id="a_edge21_Node000001_Node000009"><a xlink:title=" ">
<path fill="none" stroke="#63b8ff" d="M1431.16,-393.1C1487.94,-375.53 1555.5,-341.68 1555.5,-280 1555.5,-280 1555.5,-280 1555.5,-212 1555.5,-160.07 1504.16,-117.2 1473.28,-96.11"/>
<polygon fill="#63b8ff" stroke="#63b8ff" points="1430.02,-389.79 1421.43,-395.99 1432.01,-396.5 1430.02,-389.79"/>
</a>
</g>
</g>
<!-- Node2&#45;&gt;Node3 -->
<g id="edge2_Node000002_Node000003" class="edge">
<title>Node2&#45;&gt;Node3</title>
<g id="a_edge2_Node000002_Node000003"><a xlink:title=" ">
<path fill="none" stroke="#63b8ff" d="M1290.81,-334.76C1217.25,-324.08 1095.41,-306.4 1010.15,-294.03"/>
<polygon fill="#63b8ff" stroke="#63b8ff" points="1290.47,-338.24 1300.87,-336.22 1291.47,-331.32 1290.47,-338.24"/>
</a>
</g>
</g>
<!-- Node2&#45;&gt;Node9 -->
<g id="edge19_Node000002_Node000009" class="edge">
<title>Node2&#45;&gt;Node9</title>
<g id="a_edge19_Node000002_Node000009"><a xlink:title=" ">
<path fill="none" stroke="#63b8ff" d="M1393.36,-325.19C1427.89,-306.08 1476.11,-272.9 1497.5,-228 1519.49,-181.84 1482.06,-122.8 1461.97,-96.16"/>
<polygon fill="#63b8ff" stroke="#63b8ff" points="1391.61,-322.15 1384.46,-329.97 1394.93,-328.32 1391.61,-322.15"/>
</a>
</g>
</g>
<!-- Node4 -->
<g id="Node000004" class="node">
<title>Node4</title>
<g id="a_Node000004"><a xlink:href="_connect_method_8hpp.html" target="_top" xlink:title=" ">
<polygon fill="white" stroke="#666666" points="651.5,-228 489.5,-228 489.5,-198 651.5,-198 651.5,-228"/>
<text text-anchor="start" x="497.5" y="-216" font-family="Helvetica,sans-Serif" font-size="10.00">include/Thoth/Http</text>
<text text-anchor="middle" x="570.5" y="-205" font-family="Helvetica,sans-Serif" font-size="10.00">/Methods/ConnectMethod.hpp</text>
</a>
</g>
</g>
<!-- Node3&#45;&gt;Node4 -->
<g id="edge3_Node000003_Node000004" class="edge">
<title>Node3&#45;&gt;Node4</title>
<g id="a_edge3_Node000003_Node000004"><a xlink:title=" ">
<path fill="none" stroke="#63b8ff" d="M828.31,-262.11C772.24,-251.64 699.51,-238.07 645.6,-228.01"/>
<polygon fill="#63b8ff" stroke="#63b8ff" points="827.75,-265.56 838.23,-263.95 829.04,-258.68 827.75,-265.56"/>
</a>
</g>
</g>
<!-- Node5 -->
<g id="Node000005" class="node">
<title>Node5</title>
<g id="a_Node000005"><a xlink:href="_delete_method_8hpp.html" target="_top" xlink:title=" ">
<polygon fill="white" stroke="#666666" points="825,-228 670,-228 670,-198 825,-198 825,-228"/>
<text text-anchor="start" x="678" y="-216" font-family="Helvetica,sans-Serif" font-size="10.00">include/Thoth/Http</text>
<text text-anchor="middle" x="747.5" y="-205" font-family="Helvetica,sans-Serif" font-size="10.00">/Methods/DeleteMethod.hpp</text>
</a>
</g>
</g>
<!-- Node3&#45;&gt;Node5 -->
<g id="edge4_Node000003_Node000005" class="edge">
<title>Node3&#45;&gt;Node5</title>
<g id="a_edge4_Node000003_Node000005"><a xlink:title=" ">
<path fill="none" stroke="#63b8ff" d="M867.65,-260.32C841.23,-250.14 808.48,-237.51 783.84,-228.01"/>
<polygon fill="#63b8ff" stroke="#63b8ff" points="866.48,-263.62 877.07,-263.95 869,-257.09 866.48,-263.62"/>
</a>
</g>
</g>
<!-- Node6 -->
<g id="Node000006" class="node">
<title>Node6</title>
<g id="a_Node000006"><a xlink:href="_get_method_8hpp.html" target="_top" xlink:title=" ">
<polygon fill="white" stroke="#666666" points="983.5,-228 843.5,-228 843.5,-198 983.5,-198 983.5,-228"/>
<text text-anchor="start" x="851.5" y="-216" font-family="Helvetica,sans-Serif" font-size="10.00">include/Thoth/Http</text>
<text text-anchor="middle" x="913.5" y="-205" font-family="Helvetica,sans-Serif" font-size="10.00">/Methods/GetMethod.hpp</text>
</a>
</g>
</g>
<!-- Node3&#45;&gt;Node6 -->
<g id="edge5_Node000003_Node000006" class="edge">
<title>Node3&#45;&gt;Node6</title>
<g id="a_edge5_Node000003_Node000006"><a xlink:title=" ">
<path fill="none" stroke="#63b8ff" d="M913.5,-253.54C913.5,-244.96 913.5,-235.61 913.5,-228.16"/>
<polygon fill="#63b8ff" stroke="#63b8ff" points="910,-253.8 913.5,-263.8 917,-253.8 910,-253.8"/>
</a>
</g>
</g>
<!-- Node10 -->
<g id="Node000010" class="node">
<title>Node10</title>
<g id="a_Node000010"><a xlink:href="_head_method_8hpp.html" target="_top" xlink:title=" ">
<polygon fill="white" stroke="#666666" points="1149.5,-228 1001.5,-228 1001.5,-198 1149.5,-198 1149.5,-228"/>
<text text-anchor="start" x="1009.5" y="-216" font-family="Helvetica,sans-Serif" font-size="10.00">include/Thoth/Http</text>
<text text-anchor="middle" x="1075.5" y="-205" font-family="Helvetica,sans-Serif" font-size="10.00">/Methods/HeadMethod.hpp</text>
</a>
</g>
</g>
<!-- Node3&#45;&gt;Node10 -->
<g id="edge11_Node000003_Node000010" class="edge">
<title>Node3&#45;&gt;Node10</title>
<g id="a_edge11_Node000003_Node000010"><a xlink:title=" ">
<path fill="none" stroke="#63b8ff" d="M958.59,-260.19C984.31,-250.02 1016.1,-237.47 1040.03,-228.01"/>
<polygon fill="#63b8ff" stroke="#63b8ff" points="957.07,-257.03 949.05,-263.95 959.64,-263.54 957.07,-257.03"/>
</a>
</g>
</g>
<!-- Node11 -->
<g id="Node000011" class="node">
<title>Node11</title>
<g id="a_Node000011"><a xlink:href="_options_method_8hpp.html" target="_top" xlink:title=" ">
<polygon fill="white" stroke="#666666" points="1327.5,-228 1167.5,-228 1167.5,-198 1327.5,-198 1327.5,-228"/>
<text text-anchor="start" x="1175.5" y="-216" font-family="Helvetica,sans-Serif" font-size="10.00">include/Thoth/Http</text>
<text text-anchor="middle" x="1247.5" y="-205" font-family="Helvetica,sans-Serif" font-size="10.00">/Methods/OptionsMethod.hpp</text>
</a>
</g>
</g>
<!-- Node3&#45;&gt;Node11 -->
<g id="edge12_Node000003_Node000011" class="edge">
<title>Node3&#45;&gt;Node11</title>
<g id="a_edge12_Node000003_Node000011"><a xlink:title=" ">
<path fill="none" stroke="#63b8ff" d="M996.79,-262.04C1051.35,-251.59 1121.99,-238.05 1174.37,-228.01"/>
<polygon fill="#63b8ff" stroke="#63b8ff" points="995.96,-258.64 986.8,-263.95 997.28,-265.51 995.96,-258.64"/>
</a>
</g>
</g>
<!-- Node12 -->
<g id="Node000012" class="node">
<title>Node12</title>
<g id="a_Node000012"><a xlink:href="_patch_method_8hpp.html" target="_top" xlink:title=" ">
<polygon fill="white" stroke="#666666" points="149,-228 0,-228 0,-198 149,-198 149,-228"/>
<text text-anchor="start" x="8" y="-216" font-family="Helvetica,sans-Serif" font-size="10.00">include/Thoth/Http</text>
<text text-anchor="middle" x="74.5" y="-205" font-family="Helvetica,sans-Serif" font-size="10.00">/Methods/PatchMethod.hpp</text>
</a>
</g>
</g>
<!-- Node3&#45;&gt;Node12 -->
<g id="edge13_Node000003_Node000012" class="edge">
<title>Node3&#45;&gt;Node12</title>
<g id="a_edge13_Node000003_Node000012"><a xlink:title=" ">
<path fill="none" stroke="#63b8ff" d="M806.04,-274.23C659.34,-268.33 388.35,-254.7 158.5,-228 155.42,-227.64 152.27,-227.25 149.1,-226.83"/>
<polygon fill="#63b8ff" stroke="#63b8ff" points="806.25,-277.74 816.39,-274.65 806.53,-270.75 806.25,-277.74"/>
</a>
</g>
</g>
<!-- Node13 -->
<g id="Node000013" class="node">
<title>Node13</title>
<g id="a_Node000013"><a xlink:href="_post_method_8hpp.html" target="_top" xlink:title=" ">
<polygon fill="white" stroke="#666666" points="1489,-228 1346,-228 1346,-198 1489,-198 1489,-228"/>
<text text-anchor="start" x="1354" y="-216" font-family="Helvetica,sans-Serif" font-size="10.00">include/Thoth/Http</text>
<text text-anchor="middle" x="1417.5" y="-205" font-family="Helvetica,sans-Serif" font-size="10.00">/Methods/PostMethod.hpp</text>
</a>
</g>
</g>
<!-- Node3&#45;&gt;Node13 -->
<g id="edge14_Node000003_Node000013" class="edge">
<title>Node3&#45;&gt;Node13</title>
<g id="a_edge14_Node000003_Node000013"><a xlink:title=" ">
<path fill="none" stroke="#63b8ff" d="M1020.71,-266.93C1106.34,-257.7 1229.33,-243.58 1336.5,-228 1339.61,-227.55 1342.78,-227.07 1345.98,-226.58"/>
<polygon fill="#63b8ff" stroke="#63b8ff" points="1020.29,-263.45 1010.72,-268 1021.03,-270.41 1020.29,-263.45"/>
</a>
</g>
</g>
<!-- Node14 -->
<g id="Node000014" class="node">
<title>Node14</title>
<g id="a_Node000014"><a xlink:href="_put_method_8hpp.html" target="_top" xlink:title=" ">
<polygon fill="white" stroke="#666666" points="305.5,-228 167.5,-228 167.5,-198 305.5,-198 305.5,-228"/>
<text text-anchor="start" x="175.5" y="-216" font-family="Helvetica,sans-Serif" font-size="10.00">include/Thoth/Http</text>
<text text-anchor="middle" x="236.5" y="-205" font-family="Helvetica,sans-Serif" font-size="10.00">/Methods/PutMethod.hpp</text>
</a>
</g>
</g>
<!-- Node3&#45;&gt;Node14 -->
<g id="edge17_Node000003_Node000014" class="edge">
<title>Node3&#45;&gt;Node14</title>
<g id="a_edge17_Node000003_Node000014"><a xlink:title=" ">
<path fill="none" stroke="#63b8ff" d="M806.16,-272.1C686.04,-264.79 485.79,-250.47 314.5,-228 311.64,-227.62 308.72,-227.22 305.77,-226.78"/>
<polygon fill="#63b8ff" stroke="#63b8ff" points="806.26,-275.61 816.46,-272.72 806.69,-268.63 806.26,-275.61"/>
</a>
</g>
</g>
<!-- Node15 -->
<g id="Node000015" class="node">
<title>Node15</title>
<g id="a_Node000015"><a xlink:href="_trace_method_8hpp.html" target="_top" xlink:title=" ">
<polygon fill="white" stroke="#666666" points="471.5,-228 323.5,-228 323.5,-198 471.5,-198 471.5,-228"/>
<text text-anchor="start" x="331.5" y="-216" font-family="Helvetica,sans-Serif" font-size="10.00">include/Thoth/Http</text>
<text text-anchor="middle" x="397.5" y="-205" font-family="Helvetica,sans-Serif" font-size="10.00">/Methods/TraceMethod.hpp</text>
</a>
</g>
</g>
<!-- Node3&#45;&gt;Node15 -->
<g id="edge18_Node000003_Node000015" class="edge">
<title>Node3&#45;&gt;Node15</title>
<g id="a_edge18_Node000003_Node000015"><a xlink:title=" ">
<path fill="none" stroke="#63b8ff" d="M806.18,-267.18C718.44,-257.96 591.24,-243.72 480.5,-228 477.61,-227.59 474.66,-227.16 471.68,-226.71"/>
<polygon fill="#63b8ff" stroke="#63b8ff" points="805.84,-270.66 816.15,-268.22 806.57,-263.7 805.84,-270.66"/>
</a>
</g>
</g>
<!-- Node7 -->
<g id="Node000007" class="node">
<title>Node7</title>
<g id="a_Node000007"><a xlink:href="_request_8hpp.html" target="_top" xlink:title=" ">
<polygon fill="white" stroke="#666666" points="1417,-162 1294,-162 1294,-132 1417,-132 1417,-162"/>
<text text-anchor="start" x="1302" y="-150" font-family="Helvetica,sans-Serif" font-size="10.00">include/Thoth/Http</text>
<text text-anchor="middle" x="1355.5" y="-139" font-family="Helvetica,sans-Serif" font-size="10.00">/Request/Request.hpp</text>
</a>
</g>
</g>
<!-- Node6&#45;&gt;Node7 -->
<g id="edge6_Node000006_Node000007" class="edge">
<title>Node6&#45;&gt;Node7</title>
<g id="a_edge6_Node000006_Node000007"><a xlink:title=" ">
<path fill="none" stroke="#63b8ff" d="M993.76,-197.84C1105.26,-180.43 1223.53,-164.77 1293.73,-155.77"/>
<polygon fill="#63b8ff" stroke="#63b8ff" points="993.02,-194.41 983.69,-199.42 994.11,-201.32 993.02,-194.41"/>
</a>
</g>
</g>
<!-- Node6&#45;&gt;Node9 -->
<g id="edge10_Node000006_Node000009" class="edge">
<title>Node6&#45;&gt;Node9</title>
<g id="a_edge10_Node000006_Node000009"><a xlink:title=" ">
<path fill="none" stroke="#63b8ff" d="M981.47,-195.54C1087.96,-169.77 1292.27,-120.3 1392.36,-96.08"/>
<polygon fill="#63b8ff" stroke="#63b8ff" points="980.37,-192.21 971.48,-197.96 982.02,-199.01 980.37,-192.21"/>
</a>
</g>
</g>
<!-- Node8 -->
<g id="Node000008" class="node">
<title>Node8</title>
<g id="a_Node000008"><a xlink:href="_client_8hpp.html" target="_top" xlink:title=" ">
<polygon fill="white" stroke="#666666" points="1455,-30 1348,-30 1348,0 1455,0 1455,-30"/>
<text text-anchor="start" x="1356" y="-18" font-family="Helvetica,sans-Serif" font-size="10.00">include/Thoth/Http</text>
<text text-anchor="middle" x="1401.5" y="-7" font-family="Helvetica,sans-Serif" font-size="10.00">/Client.hpp</text>
</a>
</g>
</g>
<!-- Node7&#45;&gt;Node8 -->
<g id="edge7_Node000007_Node000008" class="edge">
<title>Node7&#45;&gt;Node8</title>
<g id="a_edge7_Node000007_Node000008"><a xlink:title=" ">
<path fill="none" stroke="#63b8ff" d="M1358.65,-121.51C1361.22,-105.37 1365.58,-83.98 1372.5,-66 1377.4,-53.26 1385.28,-39.95 1391.59,-30.26"/>
<polygon fill="#63b8ff" stroke="#63b8ff" points="1355.14,-121.34 1357.15,-131.74 1362.06,-122.35 1355.14,-121.34"/>
</a>
</g>
</g>
<!-- Node7&#45;&gt;Node9 -->
<g id="edge8_Node000007_Node000009" class="edge">
<title>Node7&#45;&gt;Node9</title>
<g id="a_edge8_Node000007_Node000009"><a xlink:title=" ">
<path fill="none" stroke="#63b8ff" d="M1385.15,-126.03C1399.52,-116.34 1416.45,-104.94 1429.48,-96.16"/>
<polygon fill="#63b8ff" stroke="#63b8ff" points="1382.92,-123.31 1376.58,-131.8 1386.83,-129.11 1382.92,-123.31"/>
</a>
</g>
</g>
<!-- Node9&#45;&gt;Node8 -->
<g id="edge9_Node000009_Node000008" class="edge">
<title>Node9&#45;&gt;Node8</title>
<g id="a_edge9_Node000009_Node000008"><a xlink:title=" ">
<path fill="none" stroke="#63b8ff" d="M1433.51,-57.81C1426.49,-48.64 1418.56,-38.28 1412.34,-30.16"/>
<polygon fill="#63b8ff" stroke="#63b8ff" points="1430.77,-59.98 1439.63,-65.8 1436.33,-55.73 1430.77,-59.98"/>
</a>
</g>
</g>
<!-- Node13&#45;&gt;Node7 -->
<g id="edge15_Node000013_Node000007" class="edge">
<title>Node13&#45;&gt;Node7</title>
<g id="a_edge15_Node000013_Node000007"><a xlink:title=" ">
<path fill="none" stroke="#63b8ff" d="M1396.54,-190.37C1387.53,-181.06 1377.24,-170.44 1369.22,-162.16"/>
<polygon fill="#63b8ff" stroke="#63b8ff" points="1394.27,-193.05 1403.74,-197.8 1399.3,-188.18 1394.27,-193.05"/>
</a>
</g>
</g>
<!-- Node13&#45;&gt;Node9 -->
<g id="edge16_Node000013_Node000009" class="edge">
<title>Node13&#45;&gt;Node9</title>
<g id="a_edge16_Node000013_Node000009"><a xlink:title=" ">
<path fill="none" stroke="#63b8ff" d="M1423.58,-188.04C1430.42,-161.08 1441.31,-118.21 1446.91,-96.14"/>
<polygon fill="#63b8ff" stroke="#63b8ff" points="1420.16,-187.29 1421.09,-197.84 1426.95,-189.01 1420.16,-187.29"/>
</a>
</g>
</g>
</g>
</svg>
