<?xml version="1.0" encoding="UTF-8" standalone="no"?>
<!DOCTYPE svg PUBLIC "-//W3C//DTD SVG 1.1//EN"
 "http://www.w3.org/Graphics/SVG/1.1/DTD/svg11.dtd">
<!-- Generated by graphviz version 2.43.0 (0)
 -->
<!-- Title: include/Thoth/Http/Response/StatusCodeEnum.hpp Pages: 1 -->
<svg width="1564pt" height="368pt"
 viewBox="0.00 0.00 1563.50 368.00" xmlns="http://www.w3.org/2000/svg" xmlns:xlink="http://www.w3.org/1999/xlink">
<g id="graph0" class="graph" transform="scale(1 1) rotate(0) translate(4 364)">
<title>include/Thoth/Http/Response/StatusCodeEnum.hpp</title>
<!-- Node1 -->
<g id="Node000001" class="node">
<title>Node1</title>
<g id="a_Node000001"><a xlink:title=" ">
<polygon fill="#999999" stroke="#666666" points="1441.5,-360 1267.5,-360 1267.5,-330 1441.5,-330 1441.5,-360"/>
<text text-anchor="start" x="1275.5" y="-348" font-family="Helvetica,sans-Serif" font-size="10.00">include/Thoth/Http</text>
<text text-anchor="middle" x="1354.5" y="-337" font-family="Helvetica,sans-Serif" font-size="10.00">/Response/StatusCodeEnum.hpp</text>
</a>
</g>
</g>
<!-- Node2 -->
<g id="Node000002" class="node">
<title>Node2</title>
<g id="a_Node000002"><a xlink:href="_headers_8hpp.html" target="_top" xlink:title=" ">
<polygon fill="white" stroke="#666666" points="1408,-294 1301,-294 1301,-264 1408,-264 1408,-294"/>
<text text-anchor="start" x="1309" y="-282" font-family="Helvetica,sans-Serif" font-size="10.00">include/Thoth/Http</text>
<text text-anchor="middle" x="1354.5" y="-271" font-family="Helvetica,sans-Serif" font-size="10.00">/Headers.hpp</text>
</a>
</g>
</g>
<!-- Node1&#45;&gt;Node2 -->
<g id="edge1_Node000001_Node000002" class="edge">
<title>Node1&#45;&gt;Node2</title>
<g id="a_edge1_Node000001_Node000002"><a xlink:title=" ">
<path fill="none" stroke="#63b8ff" d="M1354.5,-319.54C1354.5,-310.96 1354.5,-301.61 1354.5,-294.16"/>
<polygon fill="#63b8ff" stroke="#63b8ff" points="1351,-319.8 1354.5,-329.8 1358,-319.8 1351,-319.8"/>
</a>
</g>
</g>
<!-- Node3 -->
<g id="Node000003" class="node">
<title>Node3</title>
<g id="a_Node000003"><a xlink:href="_method_concept_8hpp.html" target="_top" xlink:title=" ">
<polygon fill="white" stroke="#666666" points="1010.5,-228 816.5,-228 816.5,-198 1010.5,-198 1010.5,-228"/>
<text text-anchor="start" x="824.5" y="-216" font-family="Helvetica,sans-Serif" font-size="10.00">include/Thoth/Http</text>
<text text-anchor="middle" x="913.5" y="-205" font-family="Helvetica,sans-Serif" font-size="10.00">/Methods/_base/MethodConcept.hpp</text>
</a>
</g>
</g>
<!-- Node1&#45;&gt;Node3 -->
<g id="edge19_Node000001_Node000003" class="edge">
<title>Node1&#45;&gt;Node3</title>
<g id="a_edge19_Node000001_Node000003"><a xlink:title=" ">
<path fill="none" stroke="#63b8ff" d="M1297.08,-327.07C1209.2,-301.17 1042.94,-252.16 961.25,-228.08"/>
<polygon fill="#63b8ff" stroke="#63b8ff" points="1296.3,-330.49 1306.89,-329.96 1298.28,-323.78 1296.3,-330.49"/>
</a>
</g>
</g>
<!-- Node9 -->
<g id="Node000009" class="node">
<title>Node9</title>
<g id="a_Node000009"><a xlink:href="_response_8hpp.html" target="_top" xlink:title=" ">
<polygon fill="white" stroke="#666666" points="1530.5,-30 1392.5,-30 1392.5,0 1530.5,0 1530.5,-30"/>
<text text-anchor="start" x="1400.5" y="-18" font-family="Helvetica,sans-Serif" font-size="10.00">include/Thoth/Http</text>
<text text-anchor="middle" x="1461.5" y="-7" font-family="Helvetica,sans-Serif" font-size="10.00">/Response/Response.hpp</text>
</a>
</g>
</g>
<!-- Node1&#45;&gt;Node9 -->
<g id="edge20_Node000001_Node000009" class="edge">
<title>Node1&#45;&gt;Node9</title>
<g id="a_edge20_Node000001_Node000009"><a xlink:title=" ">
<path fill="none" stroke="#63b8ff" d="M1431.16,-327.1C1487.94,-309.53 1555.5,-275.68 1555.5,-214 1555.5,-214 1555.5,-214 1555.5,-146 1555.5,-95.87 1509.03,-51.96 1481.43,-30.31"/>
<polygon fill="#63b8ff" stroke="#63b8ff" points="1430.02,-323.79 1421.43,-329.99 1432.01,-330.5 1430.02,-323.79"/>
</a>
</g>
</g>
<!-- Node2&#45;&gt;Node3 -->
<g id="edge2_Node000002_Node000003" class="edge">
<title>Node2&#45;&gt;Node3</title>
<g id="a_edge2_Node000002_Node000003"><a xlink:title=" ">
<path fill="none" stroke="#63b8ff" d="M1290.81,-268.76C1217.25,-258.08 1095.41,-240.4 1010.15,-228.03"/>
<polygon fill="#63b8ff" stroke="#63b8ff" points="1290.47,-272.24 1300.87,-270.22 1291.47,-265.32 1290.47,-272.24"/>
</a>
</g>
</g>
<!-- Node2&#45;&gt;Node9 -->
<g id="edge18_Node000002_Node000009" class="edge">
<title>Node2&#45;&gt;Node9</title>
<g id="a_edge18_Node000002_Node000009"><a xlink:title=" ">
<path fill="none" stroke="#63b8ff" d="M1393.36,-259.19C1427.89,-240.08 1476.11,-206.9 1497.5,-162 1519.06,-116.75 1488.03,-57.25 1471.17,-30.33"/>
<polygon fill="#63b8ff" stroke="#63b8ff" points="1391.61,-256.15 1384.46,-263.97 1394.93,-262.32 1391.61,-256.15"/>
</a>
</g>
</g>
<!-- Node4 -->
<g id="Node000004" class="node">
<title>Node4</title>
<g id="a_Node000004"><a xlink:href="_connect_method_8hpp.html" target="_top" xlink:title=" ">
<polygon fill="white" stroke="#666666" points="651.5,-162 489.5,-162 489.5,-132 651.5,-132 651.5,-162"/>
<text text-anchor="start" x="497.5" y="-150" font-family="Helvetica,sans-Serif" font-size="10.00">include/Thoth/Http</text>
<text text-anchor="middle" x="570.5" y="-139" font-family="Helvetica,sans-Serif" font-size="10.00">/Methods/ConnectMethod.hpp</text>
</a>
</g>
</g>
<!-- Node3&#45;&gt;Node4 -->
<g id="edge3_Node000003_Node000004" class="edge">
<title>Node3&#45;&gt;Node4</title>
<g id="a_edge3_Node000003_Node000004"><a xlink:title=" ">
<path fill="none" stroke="#63b8ff" d="M828.31,-196.11C772.24,-185.64 699.51,-172.07 645.6,-162.01"/>
<polygon fill="#63b8ff" stroke="#63b8ff" points="827.75,-199.56 838.23,-197.95 829.04,-192.68 827.75,-199.56"/>
</a>
</g>
</g>
<!-- Node5 -->
<g id="Node000005" class="node">
<title>Node5</title>
<g id="a_Node000005"><a xlink:href="_delete_method_8hpp.html" target="_top" xlink:title=" ">
<polygon fill="white" stroke="#666666" points="825,-162 670,-162 670,-132 825,-132 825,-162"/>
<text text-anchor="start" x="678" y="-150" font-family="Helvetica,sans-Serif" font-size="10.00">include/Thoth/Http</text>
<text text-anchor="middle" x="747.5" y="-139" font-family="Helvetica,sans-Serif" font-size="10.00">/Methods/DeleteMethod.hpp</text>
</a>
</g>
</g>
<!-- Node3&#45;&gt;Node5 -->
<g id="edge4_Node000003_Node000005" class="edge">
<title>Node3&#45;&gt;Node5</title>
<g id="a_edge4_Node000003_Node000005"><a xlink:title=" ">
<path fill="none" stroke="#63b8ff" d="M867.65,-194.32C841.23,-184.14 808.48,-171.51 783.84,-162.01"/>
<polygon fill="#63b8ff" stroke="#63b8ff" points="866.48,-197.62 877.07,-197.95 869,-191.09 866.48,-197.62"/>
</a>
</g>
</g>
<!-- Node6 -->
<g id="Node000006" class="node">
<title>Node6</title>
<g id="a_Node000006"><a xlink:href="_get_method_8hpp.html" target="_top" xlink:title=" ">
<polygon fill="white" stroke="#666666" points="983.5,-162 843.5,-162 843.5,-132 983.5,-132 983.5,-162"/>
<text text-anchor="start" x="851.5" y="-150" font-family="Helvetica,sans-Serif" font-size="10.00">include/Thoth/Http</text>
<text text-anchor="middle" x="913.5" y="-139" font-family="Helvetica,sans-Serif" font-size="10.00">/Methods/GetMethod.hpp</text>
</a>
</g>
</g>
<!-- Node3&#45;&gt;Node6 -->
<g id="edge5_Node000003_Node000006" class="edge">
<title>Node3&#45;&gt;Node6</title>
<g id="a_edge5_Node000003_Node000006"><a xlink:title=" ">
<path fill="none" stroke="#63b8ff" d="M913.5,-187.54C913.5,-178.96 913.5,-169.61 913.5,-162.16"/>
<polygon fill="#63b8ff" stroke="#63b8ff" points="910,-187.8 913.5,-197.8 917,-187.8 910,-187.8"/>
</a>
</g>
</g>
<!-- Node10 -->
<g id="Node000010" class="node">
<title>Node10</title>
<g id="a_Node000010"><a xlink:href="_head_method_8hpp.html" target="_top" xlink:title=" ">
<polygon fill="white" stroke="#666666" points="1149.5,-162 1001.5,-162 1001.5,-132 1149.5,-132 1149.5,-162"/>
<text text-anchor="start" x="1009.5" y="-150" font-family="Helvetica,sans-Serif" font-size="10.00">include/Thoth/Http</text>
<text text-anchor="middle" x="1075.5" y="-139" font-family="Helvetica,sans-Serif" font-size="10.00">/Methods/HeadMethod.hpp</text>
</a>
</g>
</g>
<!-- Node3&#45;&gt;Node10 -->
<g id="edge10_Node000003_Node000010" class="edge">
<title>Node3&#45;&gt;Node10</title>
<g id="a_edge10_Node000003_Node000010"><a xlink:title=" ">
<path fill="none" stroke="#63b8ff" d="M958.59,-194.19C984.31,-184.02 1016.1,-171.47 1040.03,-162.01"/>
<polygon fill="#63b8ff" stroke="#63b8ff" points="957.07,-191.03 949.05,-197.95 959.64,-197.54 957.07,-191.03"/>
</a>
</g>
</g>
<!-- Node11 -->
<g id="Node000011" class="node">
<title>Node11</title>
<g id="a_Node000011"><a xlink:href="_options_method_8hpp.html" target="_top" xlink:title=" ">
<polygon fill="white" stroke="#666666" points="1327.5,-162 1167.5,-162 1167.5,-132 1327.5,-132 1327.5,-162"/>
<text text-anchor="start" x="1175.5" y="-150" font-family="Helvetica,sans-Serif" font-size="10.00">include/Thoth/Http</text>
<text text-anchor="middle" x="1247.5" y="-139" font-family="Helvetica,sans-Serif" font-size="10.00">/Methods/OptionsMethod.hpp</text>
</a>
</g>
</g>
<!-- Node3&#45;&gt;Node11 -->
<g id="edge11_Node000003_Node000011" class="edge">
<title>Node3&#45;&gt;Node11</title>
<g id="a_edge11_Node000003_Node000011"><a xlink:title=" ">
<path fill="none" stroke="#63b8ff" d="M996.79,-196.04C1051.35,-185.59 1121.99,-172.05 1174.37,-162.01"/>
<polygon fill="#63b8ff" stroke="#63b8ff" points="995.96,-192.64 986.8,-197.95 997.28,-199.51 995.96,-192.64"/>
</a>
</g>
</g>
<!-- Node12 -->
<g id="Node000012" class="node">
<title>Node12</title>
<g id="a_Node000012"><a xlink:href="_patch_method_8hpp.html" target="_top" xlink:title=" ">
<polygon fill="white" stroke="#666666" points="149,-162 0,-162 0,-132 149,-132 149,-162"/>
<text text-anchor="start" x="8" y="-150" font-family="Helvetica,sans-Serif" font-size="10.00">include/Thoth/Http</text>
<text text-anchor="middle" x="74.5" y="-139" font-family="Helvetica,sans-Serif" font-size="10.00">/Methods/PatchMethod.hpp</text>
</a>
</g>
</g>
<!-- Node3&#45;&gt;Node12 -->
<g id="edge12_Node000003_Node000012" class="edge">
<title>Node3&#45;&gt;Node12</title>
<g id="a_edge12_Node000003_Node000012"><a xlink:title=" ">
<path fill="none" stroke="#63b8ff" d="M806.04,-208.23C659.34,-202.33 388.35,-188.7 158.5,-162 155.42,-161.64 152.27,-161.25 149.1,-160.83"/>
<polygon fill="#63b8ff" stroke="#63b8ff" points="806.25,-211.74 816.39,-208.65 806.53,-204.75 806.25,-211.74"/>
</a>
</g>
</g>
<!-- Node13 -->
<g id="Node000013" class="node">
<title>Node13</title>
<g id="a_Node000013"><a xlink:href="_post_method_8hpp.html" target="_top" xlink:title=" ">
<polygon fill="white" stroke="#666666" points="1489,-162 1346,-162 1346,-132 1489,-132 1489,-162"/>
<text text-anchor="start" x="1354" y="-150" font-family="Helvetica,sans-Serif" font-size="10.00">include/Thoth/Http</text>
<text text-anchor="middle" x="1417.5" y="-139" font-family="Helvetica,sans-Serif" font-size="10.00">/Methods/PostMethod.hpp</text>
</a>
</g>
</g>
<!-- Node3&#45;&gt;Node13 -->
<g id="edge13_Node000003_Node000013" class="edge">
<title>Node3&#45;&gt;Node13</title>
<g id="a_edge13_Node000003_Node000013"><a xlink:title=" ">
<path fill="none" stroke="#63b8ff" d="M1020.71,-200.93C1106.34,-191.7 1229.33,-177.58 1336.5,-162 1339.61,-161.55 1342.78,-161.07 1345.98,-160.58"/>
<polygon fill="#63b8ff" stroke="#63b8ff" points="1020.29,-197.45 1010.72,-202 1021.03,-204.41 1020.29,-197.45"/>
</a>
</g>
</g>
<!-- Node14 -->
<g id="Node000014" class="node">
<title>Node14</title>
<g id="a_Node000014"><a xlink:href="_put_method_8hpp.html" target="_top" xlink:title=" ">
<polygon fill="white" stroke="#666666" points="305.5,-162 167.5,-162 167.5,-132 305.5,-132 305.5,-162"/>
<text text-anchor="start" x="175.5" y="-150" font-family="Helvetica,sans-Serif" font-size="10.00">include/Thoth/Http</text>
<text text-anchor="middle" x="236.5" y="-139" font-family="Helvetica,sans-Serif" font-size="10.00">/Methods/PutMethod.hpp</text>
</a>
</g>
</g>
<!-- Node3&#45;&gt;Node14 -->
<g id="edge16_Node000003_Node000014" class="edge">
<title>Node3&#45;&gt;Node14</title>
<g id="a_edge16_Node000003_Node000014"><a xlink:title=" ">
<path fill="none" stroke="#63b8ff" d="M806.16,-206.1C686.04,-198.79 485.79,-184.47 314.5,-162 311.64,-161.62 308.72,-161.22 305.77,-160.78"/>
<polygon fill="#63b8ff" stroke="#63b8ff" points="806.26,-209.61 816.46,-206.72 806.69,-202.63 806.26,-209.61"/>
</a>
</g>
</g>
<!-- Node15 -->
<g id="Node000015" class="node">
<title>Node15</title>
<g id="a_Node000015"><a xlink:href="_trace_method_8hpp.html" target="_top" xlink:title=" ">
<polygon fill="white" stroke="#666666" points="471.5,-162 323.5,-162 323.5,-132 471.5,-132 471.5,-162"/>
<text text-anchor="start" x="331.5" y="-150" font-family="Helvetica,sans-Serif" font-size="10.00">include/Thoth/Http</text>
<text text-anchor="middle" x="397.5" y="-139" font-family="Helvetica,sans-Serif" font-size="10.00">/Methods/TraceMethod.hpp</text>
</a>
</g>
</g>
<!-- Node3&#45;&gt;Node15 -->
<g id="edge17_Node000003_Node000015" class="edge">
<title>Node3&#45;&gt;Node15</title>
<g id="a_edge17_Node000003_Node000015"><a xlink:title=" ">
<path fill="none" stroke="#63b8ff" d="M806.18,-201.18C718.44,-191.96 591.24,-177.72 480.5,-162 477.61,-161.59 474.66,-161.16 471.68,-160.71"/>
<polygon fill="#63b8ff" stroke="#63b8ff" points="805.84,-204.66 816.15,-202.22 806.57,-197.7 805.84,-204.66"/>
</a>
</g>
</g>
<!-- Node7 -->
<g id="Node000007" class="node">
<title>Node7</title>
<g id="a_Node000007"><a xlink:href="_request_8hpp.html" target="_top" xlink:title=" ">
<polygon fill="white" stroke="#666666" points="1395,-96 1272,-96 1272,-66 1395,-66 1395,-96"/>
<text text-anchor="start" x="1280" y="-84" font-family="Helvetica,sans-Serif" font-size="10.00">include/Thoth/Http</text>
<text text-anchor="middle" x="1333.5" y="-73" font-family="Helvetica,sans-Serif" font-size="10.00">/Request/Request.hpp</text>
</a>
</g>
</g>
<!-- Node6&#45;&gt;Node7 -->
<g id="edge6_Node000006_Node000007" class="edge">
<title>Node6&#45;&gt;Node7</title>
<g id="a_edge6_Node000006_Node000007"><a xlink:title=" ">
<path fill="none" stroke="#63b8ff" d="M993.67,-131.84C1097.01,-115.22 1205.58,-99.71 1271.81,-90.48"/>
<polygon fill="#63b8ff" stroke="#63b8ff" points="993.01,-128.4 983.69,-133.45 994.12,-135.31 993.01,-128.4"/>
</a>
</g>
</g>
<!-- Node6&#45;&gt;Node9 -->
<g id="edge9_Node000006_Node000009" class="edge">
<title>Node6&#45;&gt;Node9</title>
<g id="a_edge9_Node000006_Node000009"><a xlink:title=" ">
<path fill="none" stroke="#63b8ff" d="M982.54,-129.62C1091.11,-103.87 1299.93,-54.33 1402.17,-30.08"/>
<polygon fill="#63b8ff" stroke="#63b8ff" points="981.59,-126.25 972.67,-131.96 983.2,-133.06 981.59,-126.25"/>
</a>
</g>
</g>
<!-- Node8 -->
<g id="Node000008" class="node">
<title>Node8</title>
<g id="a_Node000008"><a xlink:href="_client_8hpp.html" target="_top" xlink:title=" ">
<polygon fill="white" stroke="#666666" points="1374,-30 1267,-30 1267,0 1374,0 1374,-30"/>
<text text-anchor="start" x="1275" y="-18" font-family="Helvetica,sans-Serif" font-size="10.00">include/Thoth/Http</text>
<text text-anchor="middle" x="1320.5" y="-7" font-family="Helvetica,sans-Serif" font-size="10.00">/Client.hpp</text>
</a>
</g>
</g>
<!-- Node7&#45;&gt;Node8 -->
<g id="edge7_Node000007_Node000008" class="edge">
<title>Node7&#45;&gt;Node8</title>
<g id="a_edge7_Node000007_Node000008"><a xlink:title=" ">
<path fill="none" stroke="#63b8ff" d="M1328.59,-55.83C1326.83,-47.17 1324.91,-37.7 1323.38,-30.16"/>
<polygon fill="#63b8ff" stroke="#63b8ff" points="1325.19,-56.69 1330.61,-65.8 1332.05,-55.3 1325.19,-56.69"/>
</a>
</g>
</g>
<!-- Node7&#45;&gt;Node9 -->
<g id="edge8_Node000007_Node000009" class="edge">
<title>Node7&#45;&gt;Node9</title>
<g id="a_edge8_Node000007_Node000009"><a xlink:title=" ">
<path fill="none" stroke="#63b8ff" d="M1370.74,-61.38C1390.77,-51.36 1415.07,-39.22 1433.48,-30.01"/>
<polygon fill="#63b8ff" stroke="#63b8ff" points="1368.97,-58.35 1361.59,-65.95 1372.1,-64.61 1368.97,-58.35"/>
</a>
</g>
</g>
<!-- Node13&#45;&gt;Node7 -->
<g id="edge14_Node000013_Node000007" class="edge">
<title>Node13&#45;&gt;Node7</title>
<g id="a_edge14_Node000013_Node000007"><a xlink:title=" ">
<path fill="none" stroke="#63b8ff" d="M1390.56,-125.48C1378.01,-115.91 1363.39,-104.77 1352.09,-96.16"/>
<polygon fill="#63b8ff" stroke="#63b8ff" points="1388.78,-128.52 1398.86,-131.8 1393.02,-122.95 1388.78,-128.52"/>
</a>
</g>
</g>
<!-- Node13&#45;&gt;Node9 -->
<g id="edge15_Node000013_Node000009" class="edge">
<title>Node13&#45;&gt;Node9</title>
<g id="a_edge15_Node000013_Node000009"><a xlink:title=" ">
<path fill="none" stroke="#63b8ff" d="M1425.61,-122.04C1434.73,-95.08 1449.25,-52.21 1456.71,-30.14"/>
<polygon fill="#63b8ff" stroke="#63b8ff" points="1422.18,-121.25 1422.29,-131.84 1428.81,-123.49 1422.18,-121.25"/>
</a>
</g>
</g>
</g>
</svg>
