<?xml version="1.0" encoding="UTF-8" standalone="no"?>
<!DOCTYPE svg PUBLIC "-//W3C//DTD SVG 1.1//EN"
 "http://www.w3.org/Graphics/SVG/1.1/DTD/svg11.dtd">
<!-- Generated by graphviz version 2.43.0 (0)
 -->
<!-- Title: include/Thoth/Http/Response/StatusCodeEnum.hpp Pages: 1 -->
<svg width="1883pt" height="511pt"
 viewBox="0.00 0.00 1883.00 511.00" xmlns="http://www.w3.org/2000/svg" xmlns:xlink="http://www.w3.org/1999/xlink">
<g id="graph0" class="graph" transform="scale(1 1) rotate(0) translate(4 507)">
<title>include/Thoth/Http/Response/StatusCodeEnum.hpp</title>
<!-- Node1 -->
<g id="Node000001" class="node">
<title>Node1</title>
<g id="a_Node000001"><a xlink:title=" ">
<polygon fill="#999999" stroke="#666666" points="1642,-503 1468,-503 1468,-473 1642,-473 1642,-503"/>
<text text-anchor="start" x="1476" y="-491" font-family="Helvetica,sans-Serif" font-size="10.00">include/Thoth/Http</text>
<text text-anchor="middle" x="1555" y="-480" font-family="Helvetica,sans-Serif" font-size="10.00">/Response/StatusCodeEnum.hpp</text>
</a>
</g>
</g>
<!-- Node2 -->
<g id="Node000002" class="node">
<title>Node2</title>
<g id="a_Node000002"><a xlink:href="_method_concept_8hpp.html" target="_top" xlink:title=" ">
<polygon fill="white" stroke="#666666" points="1009,-371 815,-371 815,-341 1009,-341 1009,-371"/>
<text text-anchor="start" x="823" y="-359" font-family="Helvetica,sans-Serif" font-size="10.00">include/Thoth/Http</text>
<text text-anchor="middle" x="912" y="-348" font-family="Helvetica,sans-Serif" font-size="10.00">/Methods/_base/MethodConcept.hpp</text>
</a>
</g>
</g>
<!-- Node1&#45;&gt;Node2 -->
<g id="edge1_Node000001_Node000002" class="edge">
<title>Node1&#45;&gt;Node2</title>
<g id="a_edge1_Node000001_Node000002"><a xlink:title=" ">
<path fill="none" stroke="#63b8ff" d="M1475.53,-470.93C1348.57,-445.26 1102.06,-395.43 981.62,-371.08"/>
<polygon fill="#63b8ff" stroke="#63b8ff" points="1475.08,-474.41 1485.58,-472.96 1476.47,-467.55 1475.08,-474.41"/>
</a>
</g>
</g>
<!-- Node8 -->
<g id="Node000008" class="node">
<title>Node8</title>
<g id="a_Node000008"><a xlink:href="_response_head_8hpp.html" target="_top" xlink:title=" ">
<polygon fill="white" stroke="#666666" points="1600,-167.5 1436,-167.5 1436,-137.5 1600,-137.5 1600,-167.5"/>
<text text-anchor="start" x="1444" y="-155.5" font-family="Helvetica,sans-Serif" font-size="10.00">include/Thoth/Http</text>
<text text-anchor="middle" x="1518" y="-144.5" font-family="Helvetica,sans-Serif" font-size="10.00">/Response/ResponseHead.hpp</text>
</a>
</g>
</g>
<!-- Node1&#45;&gt;Node8 -->
<g id="edge31_Node000001_Node000008" class="edge">
<title>Node1&#45;&gt;Node8</title>
<g id="a_edge31_Node000001_Node000008"><a xlink:title=" ">
<path fill="none" stroke="#63b8ff" d="M1627.9,-470C1679.14,-453.83 1744.04,-423.87 1776,-371 1796.83,-336.54 1848.36,-303.17 1768,-209 1746.39,-183.68 1664.52,-168.99 1600.28,-161.16"/>
<polygon fill="#63b8ff" stroke="#63b8ff" points="1626.72,-466.7 1618.17,-472.95 1628.76,-473.39 1626.72,-466.7"/>
</a>
</g>
</g>
<!-- Node16 -->
<g id="Node000016" class="node">
<title>Node16</title>
<g id="a_Node000016"><a xlink:href="_headers_8hpp.html" target="_top" xlink:title=" ">
<polygon fill="white" stroke="#666666" points="1621,-437 1489,-437 1489,-407 1621,-407 1621,-437"/>
<text text-anchor="start" x="1497" y="-425" font-family="Helvetica,sans-Serif" font-size="10.00">include/Thoth/Http</text>
<text text-anchor="middle" x="1555" y="-414" font-family="Helvetica,sans-Serif" font-size="10.00">/NHeaders/Headers.hpp</text>
</a>
</g>
</g>
<!-- Node1&#45;&gt;Node16 -->
<g id="edge19_Node000001_Node000016" class="edge">
<title>Node1&#45;&gt;Node16</title>
<g id="a_edge19_Node000001_Node000016"><a xlink:title=" ">
<path fill="none" stroke="#63b8ff" d="M1555,-462.54C1555,-453.96 1555,-444.61 1555,-437.16"/>
<polygon fill="#63b8ff" stroke="#63b8ff" points="1551.5,-462.8 1555,-472.8 1558.5,-462.8 1551.5,-462.8"/>
</a>
</g>
</g>
<!-- Node3 -->
<g id="Node000003" class="node">
<title>Node3</title>
<g id="a_Node000003"><a xlink:href="_connect_method_8hpp.html" target="_top" xlink:title=" ">
<polygon fill="white" stroke="#666666" points="484,-305 322,-305 322,-275 484,-275 484,-305"/>
<text text-anchor="start" x="330" y="-293" font-family="Helvetica,sans-Serif" font-size="10.00">include/Thoth/Http</text>
<text text-anchor="middle" x="403" y="-282" font-family="Helvetica,sans-Serif" font-size="10.00">/Methods/ConnectMethod.hpp</text>
</a>
</g>
</g>
<!-- Node2&#45;&gt;Node3 -->
<g id="edge2_Node000002_Node000003" class="edge">
<title>Node2&#45;&gt;Node3</title>
<g id="a_edge2_Node000002_Node000003"><a xlink:title=" ">
<path fill="none" stroke="#63b8ff" d="M804.78,-343.27C720.05,-333.74 598.83,-319.54 493,-305 490.18,-304.61 487.31,-304.21 484.42,-303.8"/>
<polygon fill="#63b8ff" stroke="#63b8ff" points="804.6,-346.77 814.93,-344.41 805.38,-339.81 804.6,-346.77"/>
</a>
</g>
</g>
<!-- Node4 -->
<g id="Node000004" class="node">
<title>Node4</title>
<g id="a_Node000004"><a xlink:href="_delete_method_8hpp.html" target="_top" xlink:title=" ">
<polygon fill="white" stroke="#666666" points="657.5,-305 502.5,-305 502.5,-275 657.5,-275 657.5,-305"/>
<text text-anchor="start" x="510.5" y="-293" font-family="Helvetica,sans-Serif" font-size="10.00">include/Thoth/Http</text>
<text text-anchor="middle" x="580" y="-282" font-family="Helvetica,sans-Serif" font-size="10.00">/Methods/DeleteMethod.hpp</text>
</a>
</g>
</g>
<!-- Node2&#45;&gt;Node4 -->
<g id="edge3_Node000002_Node000004" class="edge">
<title>Node2&#45;&gt;Node4</title>
<g id="a_edge3_Node000002_Node000004"><a xlink:title=" ">
<path fill="none" stroke="#63b8ff" d="M829.21,-339.04C774.98,-328.59 704.76,-315.05 652.69,-305.01"/>
<polygon fill="#63b8ff" stroke="#63b8ff" points="828.66,-342.5 839.14,-340.95 829.98,-335.63 828.66,-342.5"/>
</a>
</g>
</g>
<!-- Node5 -->
<g id="Node000005" class="node">
<title>Node5</title>
<g id="a_Node000005"><a xlink:href="_get_method_8hpp.html" target="_top" xlink:title=" ">
<polygon fill="white" stroke="#666666" points="982,-305 842,-305 842,-275 982,-275 982,-305"/>
<text text-anchor="start" x="850" y="-293" font-family="Helvetica,sans-Serif" font-size="10.00">include/Thoth/Http</text>
<text text-anchor="middle" x="912" y="-282" font-family="Helvetica,sans-Serif" font-size="10.00">/Methods/GetMethod.hpp</text>
</a>
</g>
</g>
<!-- Node2&#45;&gt;Node5 -->
<g id="edge4_Node000002_Node000005" class="edge">
<title>Node2&#45;&gt;Node5</title>
<g id="a_edge4_Node000002_Node000005"><a xlink:title=" ">
<path fill="none" stroke="#63b8ff" d="M912,-330.54C912,-321.96 912,-312.61 912,-305.16"/>
<polygon fill="#63b8ff" stroke="#63b8ff" points="908.5,-330.8 912,-340.8 915.5,-330.8 908.5,-330.8"/>
</a>
</g>
</g>
<!-- Node10 -->
<g id="Node000010" class="node">
<title>Node10</title>
<g id="a_Node000010"><a xlink:href="_head_method_8hpp.html" target="_top" xlink:title=" ">
<polygon fill="white" stroke="#666666" points="824,-305 676,-305 676,-275 824,-275 824,-305"/>
<text text-anchor="start" x="684" y="-293" font-family="Helvetica,sans-Serif" font-size="10.00">include/Thoth/Http</text>
<text text-anchor="middle" x="750" y="-282" font-family="Helvetica,sans-Serif" font-size="10.00">/Methods/HeadMethod.hpp</text>
</a>
</g>
</g>
<!-- Node2&#45;&gt;Node10 -->
<g id="edge11_Node000002_Node000010" class="edge">
<title>Node2&#45;&gt;Node10</title>
<g id="a_edge11_Node000002_Node000010"><a xlink:title=" ">
<path fill="none" stroke="#63b8ff" d="M866.91,-337.19C841.19,-327.02 809.4,-314.47 785.47,-305.01"/>
<polygon fill="#63b8ff" stroke="#63b8ff" points="865.86,-340.54 876.45,-340.95 868.43,-334.03 865.86,-340.54"/>
</a>
</g>
</g>
<!-- Node11 -->
<g id="Node000011" class="node">
<title>Node11</title>
<g id="a_Node000011"><a xlink:href="_options_method_8hpp.html" target="_top" xlink:title=" ">
<polygon fill="white" stroke="#666666" points="1160,-305 1000,-305 1000,-275 1160,-275 1160,-305"/>
<text text-anchor="start" x="1008" y="-293" font-family="Helvetica,sans-Serif" font-size="10.00">include/Thoth/Http</text>
<text text-anchor="middle" x="1080" y="-282" font-family="Helvetica,sans-Serif" font-size="10.00">/Methods/OptionsMethod.hpp</text>
</a>
</g>
</g>
<!-- Node2&#45;&gt;Node11 -->
<g id="edge12_Node000002_Node000011" class="edge">
<title>Node2&#45;&gt;Node11</title>
<g id="a_edge12_Node000002_Node000011"><a xlink:title=" ">
<path fill="none" stroke="#63b8ff" d="M958.4,-337.32C985.14,-327.14 1018.29,-314.51 1043.22,-305.01"/>
<polygon fill="#63b8ff" stroke="#63b8ff" points="956.97,-334.12 948.87,-340.95 959.46,-340.67 956.97,-334.12"/>
</a>
</g>
</g>
<!-- Node12 -->
<g id="Node000012" class="node">
<title>Node12</title>
<g id="a_Node000012"><a xlink:href="_patch_method_8hpp.html" target="_top" xlink:title=" ">
<polygon fill="white" stroke="#666666" points="1327.5,-305 1178.5,-305 1178.5,-275 1327.5,-275 1327.5,-305"/>
<text text-anchor="start" x="1186.5" y="-293" font-family="Helvetica,sans-Serif" font-size="10.00">include/Thoth/Http</text>
<text text-anchor="middle" x="1253" y="-282" font-family="Helvetica,sans-Serif" font-size="10.00">/Methods/PatchMethod.hpp</text>
</a>
</g>
</g>
<!-- Node2&#45;&gt;Node12 -->
<g id="edge13_Node000002_Node000012" class="edge">
<title>Node2&#45;&gt;Node12</title>
<g id="a_edge13_Node000002_Node000012"><a xlink:title=" ">
<path fill="none" stroke="#63b8ff" d="M996.69,-339.11C1052.44,-328.64 1124.75,-315.07 1178.34,-305.01"/>
<polygon fill="#63b8ff" stroke="#63b8ff" points="996.02,-335.67 986.83,-340.95 997.31,-342.55 996.02,-335.67"/>
</a>
</g>
</g>
<!-- Node13 -->
<g id="Node000013" class="node">
<title>Node13</title>
<g id="a_Node000013"><a xlink:href="_post_method_8hpp.html" target="_top" xlink:title=" ">
<polygon fill="white" stroke="#666666" points="1488.5,-305 1345.5,-305 1345.5,-275 1488.5,-275 1488.5,-305"/>
<text text-anchor="start" x="1353.5" y="-293" font-family="Helvetica,sans-Serif" font-size="10.00">include/Thoth/Http</text>
<text text-anchor="middle" x="1417" y="-282" font-family="Helvetica,sans-Serif" font-size="10.00">/Methods/PostMethod.hpp</text>
</a>
</g>
</g>
<!-- Node2&#45;&gt;Node13 -->
<g id="edge14_Node000002_Node000013" class="edge">
<title>Node2&#45;&gt;Node13</title>
<g id="a_edge14_Node000002_Node000013"><a xlink:title=" ">
<path fill="none" stroke="#63b8ff" d="M1019.04,-343.99C1104.89,-334.77 1228.4,-320.63 1336,-305 1339.11,-304.55 1342.28,-304.07 1345.48,-303.58"/>
<polygon fill="#63b8ff" stroke="#63b8ff" points="1018.59,-340.51 1009.02,-345.06 1019.34,-347.47 1018.59,-340.51"/>
</a>
</g>
</g>
<!-- Node14 -->
<g id="Node000014" class="node">
<title>Node14</title>
<g id="a_Node000014"><a xlink:href="_put_method_8hpp.html" target="_top" xlink:title=" ">
<polygon fill="white" stroke="#666666" points="138,-305 0,-305 0,-275 138,-275 138,-305"/>
<text text-anchor="start" x="8" y="-293" font-family="Helvetica,sans-Serif" font-size="10.00">include/Thoth/Http</text>
<text text-anchor="middle" x="69" y="-282" font-family="Helvetica,sans-Serif" font-size="10.00">/Methods/PutMethod.hpp</text>
</a>
</g>
</g>
<!-- Node2&#45;&gt;Node14 -->
<g id="edge17_Node000002_Node000014" class="edge">
<title>Node2&#45;&gt;Node14</title>
<g id="a_edge17_Node000002_Node000014"><a xlink:title=" ">
<path fill="none" stroke="#63b8ff" d="M804.75,-351.79C656.44,-346.49 380.6,-333.51 147,-305 144.13,-304.65 141.21,-304.26 138.26,-303.85"/>
<polygon fill="#63b8ff" stroke="#63b8ff" points="804.65,-355.29 814.76,-352.14 804.89,-348.29 804.65,-355.29"/>
</a>
</g>
</g>
<!-- Node15 -->
<g id="Node000015" class="node">
<title>Node15</title>
<g id="a_Node000015"><a xlink:href="_trace_method_8hpp.html" target="_top" xlink:title=" ">
<polygon fill="white" stroke="#666666" points="304,-305 156,-305 156,-275 304,-275 304,-305"/>
<text text-anchor="start" x="164" y="-293" font-family="Helvetica,sans-Serif" font-size="10.00">include/Thoth/Http</text>
<text text-anchor="middle" x="230" y="-282" font-family="Helvetica,sans-Serif" font-size="10.00">/Methods/TraceMethod.hpp</text>
</a>
</g>
</g>
<!-- Node2&#45;&gt;Node15 -->
<g id="edge18_Node000002_Node000015" class="edge">
<title>Node2&#45;&gt;Node15</title>
<g id="a_edge18_Node000002_Node000015"><a xlink:title=" ">
<path fill="none" stroke="#63b8ff" d="M804.7,-348.76C684.62,-341.15 484.41,-326.57 313,-305 310.1,-304.64 307.15,-304.24 304.17,-303.83"/>
<polygon fill="#63b8ff" stroke="#63b8ff" points="804.8,-352.28 815,-349.41 805.24,-345.29 804.8,-352.28"/>
</a>
</g>
</g>
<!-- Node6 -->
<g id="Node000006" class="node">
<title>Node6</title>
<g id="a_Node000006"><a xlink:href="_request_8hpp.html" target="_top" xlink:title=" ">
<polygon fill="white" stroke="#666666" points="1526.5,-239 1403.5,-239 1403.5,-209 1526.5,-209 1526.5,-239"/>
<text text-anchor="start" x="1411.5" y="-227" font-family="Helvetica,sans-Serif" font-size="10.00">include/Thoth/Http</text>
<text text-anchor="middle" x="1465" y="-216" font-family="Helvetica,sans-Serif" font-size="10.00">/Request/Request.hpp</text>
</a>
</g>
</g>
<!-- Node5&#45;&gt;Node6 -->
<g id="edge5_Node000005_Node000006" class="edge">
<title>Node5&#45;&gt;Node6</title>
<g id="a_edge5_Node000005_Node000006"><a xlink:title=" ">
<path fill="none" stroke="#63b8ff" d="M992.27,-274.88C1145.94,-253.48 1314.85,-237.75 1403.47,-230.1"/>
<polygon fill="#63b8ff" stroke="#63b8ff" points="991.59,-271.44 982.17,-276.3 992.56,-278.38 991.59,-271.44"/>
</a>
</g>
</g>
<!-- Node9 -->
<g id="Node000009" class="node">
<title>Node9</title>
<g id="a_Node000009"><a xlink:href="_response_8hpp.html" target="_top" xlink:title=" ">
<polygon fill="white" stroke="#666666" points="1545,-96 1407,-96 1407,-66 1545,-66 1545,-96"/>
<text text-anchor="start" x="1415" y="-84" font-family="Helvetica,sans-Serif" font-size="10.00">include/Thoth/Http</text>
<text text-anchor="middle" x="1476" y="-73" font-family="Helvetica,sans-Serif" font-size="10.00">/Response/Response.hpp</text>
</a>
</g>
</g>
<!-- Node5&#45;&gt;Node9 -->
<g id="edge10_Node000005_Node000009" class="edge">
<title>Node5&#45;&gt;Node9</title>
<g id="a_edge10_Node000005_Node000009"><a xlink:title=" ">
<path fill="none" stroke="#63b8ff" d="M959.82,-271.45C1069.55,-231.17 1337.69,-132.76 1437.62,-96.08"/>
<polygon fill="#63b8ff" stroke="#63b8ff" points="958.5,-268.2 950.32,-274.93 960.92,-274.77 958.5,-268.2"/>
</a>
</g>
</g>
<!-- Node7 -->
<g id="Node000007" class="node">
<title>Node7</title>
<g id="a_Node000007"><a xlink:href="_client_8hpp.html" target="_top" xlink:title=" ">
<polygon fill="white" stroke="#666666" points="1438.5,-30 1331.5,-30 1331.5,0 1438.5,0 1438.5,-30"/>
<text text-anchor="start" x="1339.5" y="-18" font-family="Helvetica,sans-Serif" font-size="10.00">include/Thoth/Http</text>
<text text-anchor="middle" x="1385" y="-7" font-family="Helvetica,sans-Serif" font-size="10.00">/Client.hpp</text>
</a>
</g>
</g>
<!-- Node6&#45;&gt;Node7 -->
<g id="edge6_Node000006_Node000007" class="edge">
<title>Node6&#45;&gt;Node7</title>
<g id="a_edge6_Node000006_Node000007"><a xlink:title=" ">
<path fill="none" stroke="#63b8ff" d="M1446.13,-201.05C1439.51,-192.65 1432.38,-182.73 1427,-173 1409.31,-141 1407.42,-131.33 1398,-96 1391.94,-73.29 1388.26,-46.17 1386.43,-30.05"/>
<polygon fill="#63b8ff" stroke="#63b8ff" points="1443.48,-203.34 1452.51,-208.89 1448.91,-198.93 1443.48,-203.34"/>
</a>
</g>
</g>
<!-- Node6&#45;&gt;Node8 -->
<g id="edge7_Node000006_Node000008" class="edge">
<title>Node6&#45;&gt;Node8</title>
<g id="a_edge7_Node000006_Node000008"><a xlink:title=" ">
<path fill="none" stroke="#63b8ff" d="M1482,-200.71C1490.3,-189.82 1500.04,-177.05 1507.29,-167.54"/>
<polygon fill="#63b8ff" stroke="#63b8ff" points="1479.01,-198.86 1475.73,-208.94 1484.57,-203.11 1479.01,-198.86"/>
</a>
</g>
</g>
<!-- Node8&#45;&gt;Node9 -->
<g id="edge8_Node000008_Node000009" class="edge">
<title>Node8&#45;&gt;Node9</title>
<g id="a_edge8_Node000008_Node000009"><a xlink:title=" ">
<path fill="none" stroke="#63b8ff" d="M1504.14,-128.56C1497.64,-117.82 1490.12,-105.36 1484.49,-96.04"/>
<polygon fill="#63b8ff" stroke="#63b8ff" points="1501.33,-130.69 1509.5,-137.44 1507.32,-127.07 1501.33,-130.69"/>
</a>
</g>
</g>
<!-- Node9&#45;&gt;Node7 -->
<g id="edge9_Node000009_Node000007" class="edge">
<title>Node9&#45;&gt;Node7</title>
<g id="a_edge9_Node000009_Node000007"><a xlink:title=" ">
<path fill="none" stroke="#63b8ff" d="M1447.6,-60.03C1433.83,-50.34 1417.62,-38.94 1405.14,-30.16"/>
<polygon fill="#63b8ff" stroke="#63b8ff" points="1445.61,-62.91 1455.8,-65.8 1449.64,-57.18 1445.61,-62.91"/>
</a>
</g>
</g>
<!-- Node13&#45;&gt;Node6 -->
<g id="edge15_Node000013_Node000006" class="edge">
<title>Node13&#45;&gt;Node6</title>
<g id="a_edge15_Node000013_Node000006"><a xlink:title=" ">
<path fill="none" stroke="#63b8ff" d="M1433.86,-266.53C1440.68,-257.43 1448.35,-247.19 1454.38,-239.16"/>
<polygon fill="#63b8ff" stroke="#63b8ff" points="1430.85,-264.7 1427.65,-274.8 1436.45,-268.9 1430.85,-264.7"/>
</a>
</g>
</g>
<!-- Node13&#45;&gt;Node9 -->
<g id="edge16_Node000013_Node000009" class="edge">
<title>Node13&#45;&gt;Node9</title>
<g id="a_edge16_Node000013_Node000009"><a xlink:title=" ">
<path fill="none" stroke="#63b8ff" d="M1403.79,-265.76C1399.82,-257.57 1396,-248.12 1394,-239 1391.15,-225.98 1391.32,-222.06 1394,-209 1401.49,-172.53 1406.28,-162.94 1427,-132 1436.06,-118.47 1449.06,-105.4 1459.4,-96.02"/>
<polygon fill="#63b8ff" stroke="#63b8ff" points="1400.71,-267.43 1408.41,-274.71 1406.93,-264.22 1400.71,-267.43"/>
</a>
</g>
</g>
<!-- Node16&#45;&gt;Node2 -->
<g id="edge23_Node000016_Node000002" class="edge">
<title>Node16&#45;&gt;Node2</title>
<g id="a_edge23_Node000016_Node000002"><a xlink:title=" ">
<path fill="none" stroke="#63b8ff" d="M1478.95,-413.43C1361.91,-401.78 1137.71,-379.47 1009.1,-366.66"/>
<polygon fill="#63b8ff" stroke="#63b8ff" points="1478.61,-416.91 1488.91,-414.42 1479.31,-409.95 1478.61,-416.91"/>
</a>
</g>
</g>
<!-- Node16&#45;&gt;Node8 -->
<g id="edge30_Node000016_Node000008" class="edge">
<title>Node16&#45;&gt;Node8</title>
<g id="a_edge30_Node000016_Node000008"><a xlink:title=" ">
<path fill="none" stroke="#63b8ff" d="M1554.59,-396.94C1553.53,-357.35 1549.72,-276.18 1536,-209 1533.08,-194.71 1527.75,-178.93 1523.64,-167.87"/>
<polygon fill="#63b8ff" stroke="#63b8ff" points="1551.09,-397.04 1554.82,-406.95 1558.09,-396.87 1551.09,-397.04"/>
</a>
</g>
</g>
<!-- Node17 -->
<g id="Node000017" class="node">
<title>Node17</title>
<g id="a_Node000017"><a xlink:href="_file_output_range_8hpp.html" target="_top" xlink:title=" ">
<polygon fill="white" stroke="#666666" points="1741,-239 1583,-239 1583,-209 1741,-209 1741,-239"/>
<text text-anchor="start" x="1591" y="-227" font-family="Helvetica,sans-Serif" font-size="10.00">include/Thoth/Dsa/FileOutput</text>
<text text-anchor="middle" x="1662" y="-216" font-family="Helvetica,sans-Serif" font-size="10.00">Range.hpp</text>
</a>
</g>
</g>
<!-- Node16&#45;&gt;Node17 -->
<g id="edge20_Node000016_Node000017" class="edge">
<title>Node16&#45;&gt;Node17</title>
<g id="a_edge20_Node000016_Node000017"><a xlink:title=" ">
<path fill="none" stroke="#63b8ff" d="M1631.18,-412.04C1681.96,-404.33 1742.18,-391.19 1758,-371 1794.02,-325.03 1721.59,-265.64 1683.44,-239.01"/>
<polygon fill="#63b8ff" stroke="#63b8ff" points="1630.55,-408.6 1621.17,-413.51 1631.57,-415.52 1630.55,-408.6"/>
</a>
</g>
</g>
<!-- Node18 -->
<g id="Node000018" class="node">
<title>Node18</title>
<g id="a_Node000018"><a xlink:href="_list_proxy_8hpp.html" target="_top" xlink:title=" ">
<polygon fill="white" stroke="#666666" points="1749,-371 1583,-371 1583,-341 1749,-341 1749,-371"/>
<text text-anchor="start" x="1591" y="-359" font-family="Helvetica,sans-Serif" font-size="10.00">include/Thoth/Http</text>
<text text-anchor="middle" x="1666" y="-348" font-family="Helvetica,sans-Serif" font-size="10.00">/NHeaders/Proxy/ListProxy.hpp</text>
</a>
</g>
</g>
<!-- Node16&#45;&gt;Node18 -->
<g id="edge24_Node000016_Node000018" class="edge">
<title>Node16&#45;&gt;Node18</title>
<g id="a_edge24_Node000016_Node000018"><a xlink:title=" ">
<path fill="none" stroke="#63b8ff" d="M1588.48,-401.69C1605.62,-391.82 1626.09,-380.01 1641.7,-371.01"/>
<polygon fill="#63b8ff" stroke="#63b8ff" points="1586.27,-398.93 1579.36,-406.95 1589.77,-404.99 1586.27,-398.93"/>
</a>
</g>
</g>
<!-- Node19 -->
<g id="Node000019" class="node">
<title>Node19</title>
<g id="a_Node000019"><a xlink:href="_value_proxy_8hpp.html" target="_top" xlink:title=" ">
<polygon fill="white" stroke="#666666" points="1527,-371 1351,-371 1351,-341 1527,-341 1527,-371"/>
<text text-anchor="start" x="1359" y="-359" font-family="Helvetica,sans-Serif" font-size="10.00">include/Thoth/Http</text>
<text text-anchor="middle" x="1439" y="-348" font-family="Helvetica,sans-Serif" font-size="10.00">/NHeaders/Proxy/ValueProxy.hpp</text>
</a>
</g>
</g>
<!-- Node16&#45;&gt;Node19 -->
<g id="edge25_Node000016_Node000019" class="edge">
<title>Node16&#45;&gt;Node19</title>
<g id="a_edge25_Node000016_Node000019"><a xlink:title=" ">
<path fill="none" stroke="#63b8ff" d="M1520.51,-401.97C1502.5,-392.03 1480.85,-380.09 1464.4,-371.01"/>
<polygon fill="#63b8ff" stroke="#63b8ff" points="1519.1,-405.19 1529.54,-406.95 1522.48,-399.06 1519.1,-405.19"/>
</a>
</g>
</g>
<!-- Node20 -->
<g id="Node000020" class="node">
<title>Node20</title>
<g id="a_Node000020"><a xlink:href="_request_headers_8hpp.html" target="_top" xlink:title=" ">
<polygon fill="white" stroke="#666666" points="1332.5,-371 1117.5,-371 1117.5,-341 1332.5,-341 1332.5,-371"/>
<text text-anchor="start" x="1125.5" y="-359" font-family="Helvetica,sans-Serif" font-size="10.00">include/Thoth/Http</text>
<text text-anchor="middle" x="1225" y="-348" font-family="Helvetica,sans-Serif" font-size="10.00">/NHeaders/Request/RequestHeaders.hpp</text>
</a>
</g>
</g>
<!-- Node16&#45;&gt;Node20 -->
<g id="edge26_Node000016_Node000020" class="edge">
<title>Node16&#45;&gt;Node20</title>
<g id="a_edge26_Node000016_Node000020"><a xlink:title=" ">
<path fill="none" stroke="#63b8ff" d="M1478.64,-406.19C1424.02,-395.6 1350.97,-381.43 1297.29,-371.02"/>
<polygon fill="#63b8ff" stroke="#63b8ff" points="1478.13,-409.66 1488.62,-408.13 1479.47,-402.79 1478.13,-409.66"/>
</a>
</g>
</g>
<!-- Node21 -->
<g id="Node000021" class="node">
<title>Node21</title>
<g id="a_Node000021"><a xlink:href="_response_headers_8hpp.html" target="_top" xlink:title=" ">
<polygon fill="white" stroke="#666666" points="1875,-173 1707,-173 1707,-132 1875,-132 1875,-173"/>
<text text-anchor="start" x="1715" y="-161" font-family="Helvetica,sans-Serif" font-size="10.00">include/Thoth/Http</text>
<text text-anchor="start" x="1715" y="-150" font-family="Helvetica,sans-Serif" font-size="10.00">/NHeaders/Response/Response</text>
<text text-anchor="middle" x="1791" y="-139" font-family="Helvetica,sans-Serif" font-size="10.00">Headers.hpp</text>
</a>
</g>
</g>
<!-- Node16&#45;&gt;Node21 -->
<g id="edge28_Node000016_Node000021" class="edge">
<title>Node16&#45;&gt;Node21</title>
<g id="a_edge28_Node000016_Node000021"><a xlink:title=" ">
<path fill="none" stroke="#63b8ff" d="M1631.2,-413.42C1687.4,-406.13 1757.22,-392.91 1776,-371 1824.77,-314.1 1807.07,-215.11 1796.55,-173.17"/>
<polygon fill="#63b8ff" stroke="#63b8ff" points="1630.72,-409.95 1621.24,-414.67 1631.59,-416.9 1630.72,-409.95"/>
</a>
</g>
</g>
<!-- Node17&#45;&gt;Node9 -->
<g id="edge22_Node000017_Node000009" class="edge">
<title>Node17&#45;&gt;Node9</title>
<g id="a_edge22_Node000017_Node000009"><a xlink:title=" ">
<path fill="none" stroke="#63b8ff" d="M1653.56,-199.48C1645.15,-179.08 1630.39,-150.07 1609,-132 1589.03,-115.12 1562.79,-103.65 1538.9,-96"/>
<polygon fill="#63b8ff" stroke="#63b8ff" points="1650.38,-200.95 1657.28,-208.99 1656.9,-198.4 1650.38,-200.95"/>
</a>
</g>
</g>
<!-- Node17&#45;&gt;Node17 -->
<g id="edge21_Node000017_Node000017" class="edge">
<title>Node17&#45;&gt;Node17</title>
<g id="a_edge21_Node000017_Node000017"><a xlink:title=" ">
<path fill="none" stroke="#63b8ff" d="M1751.16,-232.29C1756.07,-230.27 1759,-227.51 1759,-224 1759,-218.52 1751.87,-214.86 1741.16,-213.02"/>
<polygon fill="#63b8ff" stroke="#63b8ff" points="1749.91,-229 1741.16,-234.98 1751.73,-235.76 1749.91,-229"/>
</a>
</g>
</g>
<!-- Node20&#45;&gt;Node6 -->
<g id="edge27_Node000020_Node000006" class="edge">
<title>Node20&#45;&gt;Node6</title>
<g id="a_edge27_Node000020_Node000006"><a xlink:title=" ">
<path fill="none" stroke="#63b8ff" d="M1342.81,-340.5C1411.85,-330.78 1487.56,-317.52 1498,-305 1514.45,-285.26 1494.2,-256.2 1478.94,-239.07"/>
<polygon fill="#63b8ff" stroke="#63b8ff" points="1342.1,-337.06 1332.68,-341.9 1343.07,-343.99 1342.1,-337.06"/>
</a>
</g>
</g>
<!-- Node21&#45;&gt;Node9 -->
<g id="edge29_Node000021_Node000009" class="edge">
<title>Node21&#45;&gt;Node9</title>
<g id="a_edge29_Node000021_Node000009"><a xlink:title=" ">
<path fill="none" stroke="#63b8ff" d="M1697,-130.76C1646.27,-119.57 1584.97,-106.04 1539.82,-96.08"/>
<polygon fill="#63b8ff" stroke="#63b8ff" points="1696.48,-134.23 1707,-132.97 1697.99,-127.39 1696.48,-134.23"/>
</a>
</g>
</g>
</g>
</svg>
