<?xml version="1.0" encoding="UTF-8" standalone="no"?>
<!DOCTYPE svg PUBLIC "-//W3C//DTD SVG 1.1//EN"
 "http://www.w3.org/Graphics/SVG/1.1/DTD/svg11.dtd">
<!-- Generated by graphviz version 2.43.0 (0)
 -->
<!-- Title: include/Thoth/Http/Response/StatusCodeEnum.hpp Pages: 1 -->
<svg width="2273pt" height="511pt"
 viewBox="0.00 0.00 2273.00 511.00" xmlns="http://www.w3.org/2000/svg" xmlns:xlink="http://www.w3.org/1999/xlink">
<g id="graph0" class="graph" transform="scale(1 1) rotate(0) translate(4 507)">
<title>include/Thoth/Http/Response/StatusCodeEnum.hpp</title>
<!-- Node1 -->
<g id="Node000001" class="node">
<title>Node1</title>
<g id="a_Node000001"><a xlink:title=" ">
<polygon fill="#999999" stroke="#666666" points="1506,-503 1332,-503 1332,-473 1506,-473 1506,-503"/>
<text text-anchor="start" x="1340" y="-491" font-family="Helvetica,sans-Serif" font-size="10.00">include/Thoth/Http</text>
<text text-anchor="middle" x="1419" y="-480" font-family="Helvetica,sans-Serif" font-size="10.00">/Response/StatusCodeEnum.hpp</text>
</a>
</g>
</g>
<!-- Node2 -->
<g id="Node000002" class="node">
<title>Node2</title>
<g id="a_Node000002"><a xlink:href="_method_concept_8hpp.html" target="_top" xlink:title=" ">
<polygon fill="white" stroke="#666666" points="1012,-371 818,-371 818,-341 1012,-341 1012,-371"/>
<text text-anchor="start" x="826" y="-359" font-family="Helvetica,sans-Serif" font-size="10.00">include/Thoth/Http</text>
<text text-anchor="middle" x="915" y="-348" font-family="Helvetica,sans-Serif" font-size="10.00">/Methods/_base/MethodConcept.hpp</text>
</a>
</g>
</g>
<!-- Node1&#45;&gt;Node2 -->
<g id="edge1_Node000001_Node000002" class="edge">
<title>Node1&#45;&gt;Node2</title>
<g id="a_edge1_Node000001_Node000002"><a xlink:title=" ">
<path fill="none" stroke="#63b8ff" d="M1354.6,-470.39C1254.49,-444.57 1063.31,-395.26 969.57,-371.08"/>
<polygon fill="#63b8ff" stroke="#63b8ff" points="1354.03,-473.86 1364.58,-472.96 1355.78,-467.08 1354.03,-473.86"/>
</a>
</g>
</g>
<!-- Node8 -->
<g id="Node000008" class="node">
<title>Node8</title>
<g id="a_Node000008"><a xlink:href="_response_head_8hpp.html" target="_top" xlink:title=" ">
<polygon fill="white" stroke="#666666" points="1615,-162 1451,-162 1451,-132 1615,-132 1615,-162"/>
<text text-anchor="start" x="1459" y="-150" font-family="Helvetica,sans-Serif" font-size="10.00">include/Thoth/Http</text>
<text text-anchor="middle" x="1533" y="-139" font-family="Helvetica,sans-Serif" font-size="10.00">/Response/ResponseHead.hpp</text>
</a>
</g>
</g>
<!-- Node1&#45;&gt;Node8 -->
<g id="edge28_Node000001_Node000008" class="edge">
<title>Node1&#45;&gt;Node8</title>
<g id="a_edge28_Node000001_Node000008"><a xlink:title=" ">
<path fill="none" stroke="#63b8ff" d="M1416.29,-462.47C1414.15,-431.55 1414.79,-377.99 1439,-341 1455.82,-315.3 1480.12,-329.98 1498,-305 1530.02,-260.26 1533.48,-191.41 1533.38,-162.04"/>
<polygon fill="#63b8ff" stroke="#63b8ff" points="1412.83,-463.1 1417.17,-472.76 1419.81,-462.5 1412.83,-463.1"/>
</a>
</g>
</g>
<!-- Node16 -->
<g id="Node000016" class="node">
<title>Node16</title>
<g id="a_Node000016"><a xlink:href="_headers_8hpp.html" target="_top" xlink:title=" ">
<polygon fill="white" stroke="#666666" points="1830,-437 1698,-437 1698,-407 1830,-407 1830,-437"/>
<text text-anchor="start" x="1706" y="-425" font-family="Helvetica,sans-Serif" font-size="10.00">include/Thoth/Http</text>
<text text-anchor="middle" x="1764" y="-414" font-family="Helvetica,sans-Serif" font-size="10.00">/NHeaders/Headers.hpp</text>
</a>
</g>
</g>
<!-- Node1&#45;&gt;Node16 -->
<g id="edge19_Node000001_Node000016" class="edge">
<title>Node1&#45;&gt;Node16</title>
<g id="a_edge19_Node000001_Node000016"><a xlink:title=" ">
<path fill="none" stroke="#63b8ff" d="M1504.87,-471.07C1564.55,-460 1642.91,-445.46 1697.78,-435.28"/>
<polygon fill="#63b8ff" stroke="#63b8ff" points="1503.91,-467.69 1494.71,-472.95 1505.18,-474.57 1503.91,-467.69"/>
</a>
</g>
</g>
<!-- Node3 -->
<g id="Node000003" class="node">
<title>Node3</title>
<g id="a_Node000003"><a xlink:href="_connect_method_8hpp.html" target="_top" xlink:title=" ">
<polygon fill="white" stroke="#666666" points="996,-305 834,-305 834,-275 996,-275 996,-305"/>
<text text-anchor="start" x="842" y="-293" font-family="Helvetica,sans-Serif" font-size="10.00">include/Thoth/Http</text>
<text text-anchor="middle" x="915" y="-282" font-family="Helvetica,sans-Serif" font-size="10.00">/Methods/ConnectMethod.hpp</text>
</a>
</g>
</g>
<!-- Node2&#45;&gt;Node3 -->
<g id="edge2_Node000002_Node000003" class="edge">
<title>Node2&#45;&gt;Node3</title>
<g id="a_edge2_Node000002_Node000003"><a xlink:title=" ">
<path fill="none" stroke="#63b8ff" d="M915,-330.54C915,-321.96 915,-312.61 915,-305.16"/>
<polygon fill="#63b8ff" stroke="#63b8ff" points="911.5,-330.8 915,-340.8 918.5,-330.8 911.5,-330.8"/>
</a>
</g>
</g>
<!-- Node4 -->
<g id="Node000004" class="node">
<title>Node4</title>
<g id="a_Node000004"><a xlink:href="_delete_method_8hpp.html" target="_top" xlink:title=" ">
<polygon fill="white" stroke="#666666" points="1169.5,-305 1014.5,-305 1014.5,-275 1169.5,-275 1169.5,-305"/>
<text text-anchor="start" x="1022.5" y="-293" font-family="Helvetica,sans-Serif" font-size="10.00">include/Thoth/Http</text>
<text text-anchor="middle" x="1092" y="-282" font-family="Helvetica,sans-Serif" font-size="10.00">/Methods/DeleteMethod.hpp</text>
</a>
</g>
</g>
<!-- Node2&#45;&gt;Node4 -->
<g id="edge3_Node000002_Node000004" class="edge">
<title>Node2&#45;&gt;Node4</title>
<g id="a_edge3_Node000002_Node000004"><a xlink:title=" ">
<path fill="none" stroke="#63b8ff" d="M963.52,-337.46C991.76,-327.25 1026.87,-314.55 1053.25,-305.01"/>
<polygon fill="#63b8ff" stroke="#63b8ff" points="962.06,-334.26 953.84,-340.95 964.44,-340.85 962.06,-334.26"/>
</a>
</g>
</g>
<!-- Node5 -->
<g id="Node000005" class="node">
<title>Node5</title>
<g id="a_Node000005"><a xlink:href="_get_method_8hpp.html" target="_top" xlink:title=" ">
<polygon fill="white" stroke="#666666" points="1489,-305 1349,-305 1349,-275 1489,-275 1489,-305"/>
<text text-anchor="start" x="1357" y="-293" font-family="Helvetica,sans-Serif" font-size="10.00">include/Thoth/Http</text>
<text text-anchor="middle" x="1419" y="-282" font-family="Helvetica,sans-Serif" font-size="10.00">/Methods/GetMethod.hpp</text>
</a>
</g>
</g>
<!-- Node2&#45;&gt;Node5 -->
<g id="edge4_Node000002_Node000005" class="edge">
<title>Node2&#45;&gt;Node5</title>
<g id="a_edge4_Node000002_Node000005"><a xlink:title=" ">
<path fill="none" stroke="#63b8ff" d="M1022.05,-344.05C1107.91,-334.86 1231.42,-320.74 1339,-305 1342.21,-304.53 1345.49,-304.03 1348.8,-303.51"/>
<polygon fill="#63b8ff" stroke="#63b8ff" points="1021.6,-340.58 1012.03,-345.12 1022.35,-347.54 1021.6,-340.58"/>
</a>
</g>
</g>
<!-- Node10 -->
<g id="Node000010" class="node">
<title>Node10</title>
<g id="a_Node000010"><a xlink:href="_head_method_8hpp.html" target="_top" xlink:title=" ">
<polygon fill="white" stroke="#666666" points="148,-305 0,-305 0,-275 148,-275 148,-305"/>
<text text-anchor="start" x="8" y="-293" font-family="Helvetica,sans-Serif" font-size="10.00">include/Thoth/Http</text>
<text text-anchor="middle" x="74" y="-282" font-family="Helvetica,sans-Serif" font-size="10.00">/Methods/HeadMethod.hpp</text>
</a>
</g>
</g>
<!-- Node2&#45;&gt;Node10 -->
<g id="edge11_Node000002_Node000010" class="edge">
<title>Node2&#45;&gt;Node10</title>
<g id="a_edge11_Node000002_Node000010"><a xlink:title=" ">
<path fill="none" stroke="#63b8ff" d="M807.41,-351.33C660.19,-345.53 387.89,-332.02 157,-305 154.1,-304.66 151.14,-304.29 148.16,-303.89"/>
<polygon fill="#63b8ff" stroke="#63b8ff" points="807.66,-354.85 817.79,-351.74 807.94,-347.85 807.66,-354.85"/>
</a>
</g>
</g>
<!-- Node11 -->
<g id="Node000011" class="node">
<title>Node11</title>
<g id="a_Node000011"><a xlink:href="_options_method_8hpp.html" target="_top" xlink:title=" ">
<polygon fill="white" stroke="#666666" points="326,-305 166,-305 166,-275 326,-275 326,-305"/>
<text text-anchor="start" x="174" y="-293" font-family="Helvetica,sans-Serif" font-size="10.00">include/Thoth/Http</text>
<text text-anchor="middle" x="246" y="-282" font-family="Helvetica,sans-Serif" font-size="10.00">/Methods/OptionsMethod.hpp</text>
</a>
</g>
</g>
<!-- Node2&#45;&gt;Node11 -->
<g id="edge12_Node000002_Node000011" class="edge">
<title>Node2&#45;&gt;Node11</title>
<g id="a_edge12_Node000002_Node000011"><a xlink:title=" ">
<path fill="none" stroke="#63b8ff" d="M807.81,-348.02C691.23,-339.9 499.51,-325.01 335,-305 332.05,-304.64 329.05,-304.26 326.02,-303.86"/>
<polygon fill="#63b8ff" stroke="#63b8ff" points="807.59,-351.51 817.81,-348.71 808.07,-344.53 807.59,-351.51"/>
</a>
</g>
</g>
<!-- Node12 -->
<g id="Node000012" class="node">
<title>Node12</title>
<g id="a_Node000012"><a xlink:href="_patch_method_8hpp.html" target="_top" xlink:title=" ">
<polygon fill="white" stroke="#666666" points="493.5,-305 344.5,-305 344.5,-275 493.5,-275 493.5,-305"/>
<text text-anchor="start" x="352.5" y="-293" font-family="Helvetica,sans-Serif" font-size="10.00">include/Thoth/Http</text>
<text text-anchor="middle" x="419" y="-282" font-family="Helvetica,sans-Serif" font-size="10.00">/Methods/PatchMethod.hpp</text>
</a>
</g>
</g>
<!-- Node2&#45;&gt;Node12 -->
<g id="edge13_Node000002_Node000012" class="edge">
<title>Node2&#45;&gt;Node12</title>
<g id="a_edge13_Node000002_Node000012"><a xlink:title=" ">
<path fill="none" stroke="#63b8ff" d="M807.88,-343.32C724.63,-333.92 606.31,-319.87 503,-305 499.93,-304.56 496.79,-304.09 493.63,-303.61"/>
<polygon fill="#63b8ff" stroke="#63b8ff" points="807.53,-346.8 817.86,-344.44 808.31,-339.85 807.53,-346.8"/>
</a>
</g>
</g>
<!-- Node13 -->
<g id="Node000013" class="node">
<title>Node13</title>
<g id="a_Node000013"><a xlink:href="_post_method_8hpp.html" target="_top" xlink:title=" ">
<polygon fill="white" stroke="#666666" points="1330.5,-305 1187.5,-305 1187.5,-275 1330.5,-275 1330.5,-305"/>
<text text-anchor="start" x="1195.5" y="-293" font-family="Helvetica,sans-Serif" font-size="10.00">include/Thoth/Http</text>
<text text-anchor="middle" x="1259" y="-282" font-family="Helvetica,sans-Serif" font-size="10.00">/Methods/PostMethod.hpp</text>
</a>
</g>
</g>
<!-- Node2&#45;&gt;Node13 -->
<g id="edge14_Node000002_Node000013" class="edge">
<title>Node2&#45;&gt;Node13</title>
<g id="a_edge14_Node000002_Node000013"><a xlink:title=" ">
<path fill="none" stroke="#63b8ff" d="M1000.64,-339.07C1058.09,-328.38 1132.89,-314.46 1187.21,-304.36"/>
<polygon fill="#63b8ff" stroke="#63b8ff" points="999.68,-335.68 990.49,-340.95 1000.96,-342.57 999.68,-335.68"/>
</a>
</g>
</g>
<!-- Node14 -->
<g id="Node000014" class="node">
<title>Node14</title>
<g id="a_Node000014"><a xlink:href="_put_method_8hpp.html" target="_top" xlink:title=" ">
<polygon fill="white" stroke="#666666" points="650,-305 512,-305 512,-275 650,-275 650,-305"/>
<text text-anchor="start" x="520" y="-293" font-family="Helvetica,sans-Serif" font-size="10.00">include/Thoth/Http</text>
<text text-anchor="middle" x="581" y="-282" font-family="Helvetica,sans-Serif" font-size="10.00">/Methods/PutMethod.hpp</text>
</a>
</g>
</g>
<!-- Node2&#45;&gt;Node14 -->
<g id="edge17_Node000002_Node000014" class="edge">
<title>Node2&#45;&gt;Node14</title>
<g id="a_edge17_Node000002_Node000014"><a xlink:title=" ">
<path fill="none" stroke="#63b8ff" d="M831.81,-339.06C775.84,-328.33 702.91,-314.36 650.13,-304.25"/>
<polygon fill="#63b8ff" stroke="#63b8ff" points="831.22,-342.51 841.7,-340.95 832.54,-335.64 831.22,-342.51"/>
</a>
</g>
</g>
<!-- Node15 -->
<g id="Node000015" class="node">
<title>Node15</title>
<g id="a_Node000015"><a xlink:href="_trace_method_8hpp.html" target="_top" xlink:title=" ">
<polygon fill="white" stroke="#666666" points="816,-305 668,-305 668,-275 816,-275 816,-305"/>
<text text-anchor="start" x="676" y="-293" font-family="Helvetica,sans-Serif" font-size="10.00">include/Thoth/Http</text>
<text text-anchor="middle" x="742" y="-282" font-family="Helvetica,sans-Serif" font-size="10.00">/Methods/TraceMethod.hpp</text>
</a>
</g>
</g>
<!-- Node2&#45;&gt;Node15 -->
<g id="edge18_Node000002_Node000015" class="edge">
<title>Node2&#45;&gt;Node15</title>
<g id="a_edge18_Node000002_Node000015"><a xlink:title=" ">
<path fill="none" stroke="#63b8ff" d="M867.58,-337.46C839.98,-327.25 805.66,-314.55 779.88,-305.01"/>
<polygon fill="#63b8ff" stroke="#63b8ff" points="866.44,-340.77 877.03,-340.95 868.87,-334.2 866.44,-340.77"/>
</a>
</g>
</g>
<!-- Node6 -->
<g id="Node000006" class="node">
<title>Node6</title>
<g id="a_Node000006"><a xlink:href="_request_8hpp.html" target="_top" xlink:title=" ">
<polygon fill="white" stroke="#666666" points="1484.5,-233.5 1361.5,-233.5 1361.5,-203.5 1484.5,-203.5 1484.5,-233.5"/>
<text text-anchor="start" x="1369.5" y="-221.5" font-family="Helvetica,sans-Serif" font-size="10.00">include/Thoth/Http</text>
<text text-anchor="middle" x="1423" y="-210.5" font-family="Helvetica,sans-Serif" font-size="10.00">/Request/Request.hpp</text>
</a>
</g>
</g>
<!-- Node5&#45;&gt;Node6 -->
<g id="edge5_Node000005_Node000006" class="edge">
<title>Node5&#45;&gt;Node6</title>
<g id="a_edge5_Node000005_Node000006"><a xlink:title=" ">
<path fill="none" stroke="#63b8ff" d="M1420.4,-264.75C1421,-254.31 1421.68,-242.49 1422.19,-233.54"/>
<polygon fill="#63b8ff" stroke="#63b8ff" points="1416.89,-264.75 1419.81,-274.94 1423.88,-265.15 1416.89,-264.75"/>
</a>
</g>
</g>
<!-- Node9 -->
<g id="Node000009" class="node">
<title>Node9</title>
<g id="a_Node000009"><a xlink:href="_response_8hpp.html" target="_top" xlink:title=" ">
<polygon fill="white" stroke="#666666" points="1395,-96 1257,-96 1257,-66 1395,-66 1395,-96"/>
<text text-anchor="start" x="1265" y="-84" font-family="Helvetica,sans-Serif" font-size="10.00">include/Thoth/Http</text>
<text text-anchor="middle" x="1326" y="-73" font-family="Helvetica,sans-Serif" font-size="10.00">/Response/Response.hpp</text>
</a>
</g>
</g>
<!-- Node5&#45;&gt;Node9 -->
<g id="edge10_Node000005_Node000009" class="edge">
<title>Node5&#45;&gt;Node9</title>
<g id="a_edge10_Node000005_Node000009"><a xlink:title=" ">
<path fill="none" stroke="#63b8ff" d="M1382.4,-269.26C1370.95,-261.33 1359.4,-251.15 1352,-239 1323.84,-192.75 1323.56,-125.29 1324.97,-96.21"/>
<polygon fill="#63b8ff" stroke="#63b8ff" points="1380.76,-272.37 1391.06,-274.88 1384.58,-266.5 1380.76,-272.37"/>
</a>
</g>
</g>
<!-- Node7 -->
<g id="Node000007" class="node">
<title>Node7</title>
<g id="a_Node000007"><a xlink:href="_client_8hpp.html" target="_top" xlink:title=" ">
<polygon fill="white" stroke="#666666" points="1427.5,-30 1320.5,-30 1320.5,0 1427.5,0 1427.5,-30"/>
<text text-anchor="start" x="1328.5" y="-18" font-family="Helvetica,sans-Serif" font-size="10.00">include/Thoth/Http</text>
<text text-anchor="middle" x="1374" y="-7" font-family="Helvetica,sans-Serif" font-size="10.00">/Client.hpp</text>
</a>
</g>
</g>
<!-- Node6&#45;&gt;Node7 -->
<g id="edge6_Node000006_Node000007" class="edge">
<title>Node6&#45;&gt;Node7</title>
<g id="a_edge6_Node000006_Node000007"><a xlink:title=" ">
<path fill="none" stroke="#63b8ff" d="M1423.01,-193.13C1422.34,-162.6 1418.88,-109.07 1404,-66 1399.51,-52.99 1391.32,-39.69 1384.63,-30.08"/>
<polygon fill="#63b8ff" stroke="#63b8ff" points="1419.51,-193.32 1423.15,-203.28 1426.51,-193.23 1419.51,-193.32"/>
</a>
</g>
</g>
<!-- Node6&#45;&gt;Node8 -->
<g id="edge7_Node000006_Node000008" class="edge">
<title>Node6&#45;&gt;Node8</title>
<g id="a_edge7_Node000006_Node000008"><a xlink:title=" ">
<path fill="none" stroke="#63b8ff" d="M1453.76,-198.07C1471.87,-186.62 1494.38,-172.4 1510.77,-162.04"/>
<polygon fill="#63b8ff" stroke="#63b8ff" points="1451.84,-195.14 1445.26,-203.44 1455.58,-201.05 1451.84,-195.14"/>
</a>
</g>
</g>
<!-- Node8&#45;&gt;Node9 -->
<g id="edge8_Node000008_Node000009" class="edge">
<title>Node8&#45;&gt;Node9</title>
<g id="a_edge8_Node000008_Node000009"><a xlink:title=" ">
<path fill="none" stroke="#63b8ff" d="M1477.98,-128.99C1444.67,-118.69 1402.71,-105.72 1371.32,-96.01"/>
<polygon fill="#63b8ff" stroke="#63b8ff" points="1476.99,-132.34 1487.57,-131.95 1479.05,-125.66 1476.99,-132.34"/>
</a>
</g>
</g>
<!-- Node9&#45;&gt;Node7 -->
<g id="edge9_Node000009_Node000007" class="edge">
<title>Node9&#45;&gt;Node7</title>
<g id="a_edge9_Node000009_Node000007"><a xlink:title=" ">
<path fill="none" stroke="#63b8ff" d="M1342.86,-57.53C1349.68,-48.43 1357.35,-38.19 1363.38,-30.16"/>
<polygon fill="#63b8ff" stroke="#63b8ff" points="1339.85,-55.7 1336.65,-65.8 1345.45,-59.9 1339.85,-55.7"/>
</a>
</g>
</g>
<!-- Node13&#45;&gt;Node6 -->
<g id="edge15_Node000013_Node000006" class="edge">
<title>Node13&#45;&gt;Node6</title>
<g id="a_edge15_Node000013_Node000006"><a xlink:title=" ">
<path fill="none" stroke="#63b8ff" d="M1301.57,-270.96C1329.11,-259.29 1364.42,-244.32 1389.86,-233.54"/>
<polygon fill="#63b8ff" stroke="#63b8ff" points="1300.03,-267.81 1292.19,-274.94 1302.76,-274.26 1300.03,-267.81"/>
</a>
</g>
</g>
<!-- Node13&#45;&gt;Node9 -->
<g id="edge16_Node000013_Node000009" class="edge">
<title>Node13&#45;&gt;Node9</title>
<g id="a_edge16_Node000013_Node000009"><a xlink:title=" ">
<path fill="none" stroke="#63b8ff" d="M1266.76,-265.03C1280.84,-221.54 1310.18,-130.89 1321.45,-96.05"/>
<polygon fill="#63b8ff" stroke="#63b8ff" points="1263.35,-264.18 1263.61,-274.77 1270.01,-266.34 1263.35,-264.18"/>
</a>
</g>
</g>
<!-- Node16&#45;&gt;Node2 -->
<g id="edge20_Node000016_Node000002" class="edge">
<title>Node16&#45;&gt;Node2</title>
<g id="a_edge20_Node000016_Node000002"><a xlink:title=" ">
<path fill="none" stroke="#63b8ff" d="M1687.38,-415.22C1532.59,-403.56 1182.87,-377.19 1012.27,-364.33"/>
<polygon fill="#63b8ff" stroke="#63b8ff" points="1687.5,-418.74 1697.73,-416 1688.03,-411.76 1687.5,-418.74"/>
</a>
</g>
</g>
<!-- Node16&#45;&gt;Node8 -->
<g id="edge27_Node000016_Node000008" class="edge">
<title>Node16&#45;&gt;Node8</title>
<g id="a_edge27_Node000016_Node000008"><a xlink:title=" ">
<path fill="none" stroke="#63b8ff" d="M1840.57,-418.38C1916.02,-414 2023.71,-402.28 2050,-371 2058.58,-360.79 2057.6,-351.95 2050,-341 1996.39,-263.77 1721.15,-191.53 1595.58,-162.01"/>
<polygon fill="#63b8ff" stroke="#63b8ff" points="1839.94,-414.91 1830.14,-418.95 1840.32,-421.9 1839.94,-414.91"/>
</a>
</g>
</g>
<!-- Node17 -->
<g id="Node000017" class="node">
<title>Node17</title>
<g id="a_Node000017"><a xlink:href="_list_proxy_8hpp.html" target="_top" xlink:title=" ">
<polygon fill="white" stroke="#666666" points="1847,-371 1681,-371 1681,-341 1847,-341 1847,-371"/>
<text text-anchor="start" x="1689" y="-359" font-family="Helvetica,sans-Serif" font-size="10.00">include/Thoth/Http</text>
<text text-anchor="middle" x="1764" y="-348" font-family="Helvetica,sans-Serif" font-size="10.00">/NHeaders/Proxy/ListProxy.hpp</text>
</a>
</g>
</g>
<!-- Node16&#45;&gt;Node17 -->
<g id="edge21_Node000016_Node000017" class="edge">
<title>Node16&#45;&gt;Node17</title>
<g id="a_edge21_Node000016_Node000017"><a xlink:title=" ">
<path fill="none" stroke="#63b8ff" d="M1764,-396.54C1764,-387.96 1764,-378.61 1764,-371.16"/>
<polygon fill="#63b8ff" stroke="#63b8ff" points="1760.5,-396.8 1764,-406.8 1767.5,-396.8 1760.5,-396.8"/>
</a>
</g>
</g>
<!-- Node18 -->
<g id="Node000018" class="node">
<title>Node18</title>
<g id="a_Node000018"><a xlink:href="_value_proxy_8hpp.html" target="_top" xlink:title=" ">
<polygon fill="white" stroke="#666666" points="2041,-371 1865,-371 1865,-341 2041,-341 2041,-371"/>
<text text-anchor="start" x="1873" y="-359" font-family="Helvetica,sans-Serif" font-size="10.00">include/Thoth/Http</text>
<text text-anchor="middle" x="1953" y="-348" font-family="Helvetica,sans-Serif" font-size="10.00">/NHeaders/Proxy/ValueProxy.hpp</text>
</a>
</g>
</g>
<!-- Node16&#45;&gt;Node18 -->
<g id="edge22_Node000016_Node000018" class="edge">
<title>Node16&#45;&gt;Node18</title>
<g id="a_edge22_Node000016_Node000018"><a xlink:title=" ">
<path fill="none" stroke="#63b8ff" d="M1815.02,-403.72C1845.3,-393.47 1883.21,-380.63 1911.62,-371.01"/>
<polygon fill="#63b8ff" stroke="#63b8ff" points="1813.83,-400.43 1805.48,-406.95 1816.07,-407.06 1813.83,-400.43"/>
</a>
</g>
</g>
<!-- Node19 -->
<g id="Node000019" class="node">
<title>Node19</title>
<g id="a_Node000019"><a xlink:href="_request_headers_8hpp.html" target="_top" xlink:title=" ">
<polygon fill="white" stroke="#666666" points="1662.5,-371 1447.5,-371 1447.5,-341 1662.5,-341 1662.5,-371"/>
<text text-anchor="start" x="1455.5" y="-359" font-family="Helvetica,sans-Serif" font-size="10.00">include/Thoth/Http</text>
<text text-anchor="middle" x="1555" y="-348" font-family="Helvetica,sans-Serif" font-size="10.00">/NHeaders/Request/RequestHeaders.hpp</text>
</a>
</g>
</g>
<!-- Node16&#45;&gt;Node19 -->
<g id="edge23_Node000016_Node000019" class="edge">
<title>Node16&#45;&gt;Node19</title>
<g id="a_edge23_Node000016_Node000019"><a xlink:title=" ">
<path fill="none" stroke="#63b8ff" d="M1708.45,-403.99C1674.82,-393.69 1632.45,-380.72 1600.76,-371.01"/>
<polygon fill="#63b8ff" stroke="#63b8ff" points="1707.55,-407.37 1718.13,-406.95 1709.6,-400.68 1707.55,-407.37"/>
</a>
</g>
</g>
<!-- Node20 -->
<g id="Node000020" class="node">
<title>Node20</title>
<g id="a_Node000020"><a xlink:href="_response_headers_8hpp.html" target="_top" xlink:title=" ">
<polygon fill="white" stroke="#666666" points="2265,-239 2097,-239 2097,-198 2265,-198 2265,-239"/>
<text text-anchor="start" x="2105" y="-227" font-family="Helvetica,sans-Serif" font-size="10.00">include/Thoth/Http</text>
<text text-anchor="start" x="2105" y="-216" font-family="Helvetica,sans-Serif" font-size="10.00">/NHeaders/Response/Response</text>
<text text-anchor="middle" x="2181" y="-205" font-family="Helvetica,sans-Serif" font-size="10.00">Headers.hpp</text>
</a>
</g>
</g>
<!-- Node16&#45;&gt;Node20 -->
<g id="edge25_Node000016_Node000020" class="edge">
<title>Node16&#45;&gt;Node20</title>
<g id="a_edge25_Node000016_Node000020"><a xlink:title=" ">
<path fill="none" stroke="#63b8ff" d="M1840.23,-416.19C1921.58,-409.83 2044,-396.33 2083,-371 2132.39,-338.92 2162.09,-272.25 2174.38,-239.1"/>
<polygon fill="#63b8ff" stroke="#63b8ff" points="1839.74,-412.72 1830.03,-416.97 1840.27,-419.7 1839.74,-412.72"/>
</a>
</g>
</g>
<!-- Node19&#45;&gt;Node6 -->
<g id="edge24_Node000019_Node000006" class="edge">
<title>Node19&#45;&gt;Node6</title>
<g id="a_edge24_Node000019_Node000006"><a xlink:title=" ">
<path fill="none" stroke="#63b8ff" d="M1541.57,-332.32C1530.97,-315.46 1515.14,-292.45 1498,-275 1482.22,-258.94 1461.47,-243.95 1445.79,-233.62"/>
<polygon fill="#63b8ff" stroke="#63b8ff" points="1538.68,-334.3 1546.9,-340.98 1544.64,-330.63 1538.68,-334.3"/>
</a>
</g>
</g>
<!-- Node20&#45;&gt;Node9 -->
<g id="edge26_Node000020_Node000009" class="edge">
<title>Node20&#45;&gt;Node9</title>
<g id="a_edge26_Node000020_Node000009"><a xlink:title=" ">
<path fill="none" stroke="#63b8ff" d="M2086.85,-198.68C2085.56,-198.45 2084.27,-198.22 2083,-198 1830.28,-153.52 1528.35,-110.17 1395.06,-91.54"/>
<polygon fill="#63b8ff" stroke="#63b8ff" points="2086.38,-202.16 2096.85,-200.51 2087.64,-195.27 2086.38,-202.16"/>
</a>
</g>
</g>
</g>
</svg>
