<?xml version="1.0" encoding="UTF-8" standalone="no"?>
<!DOCTYPE svg PUBLIC "-//W3C//DTD SVG 1.1//EN"
 "http://www.w3.org/Graphics/SVG/1.1/DTD/svg11.dtd">
<!-- Generated by graphviz version 2.43.0 (0)
 -->
<!-- Title: include/Thoth/Http/Response/StatusCodeEnum.hpp Pages: 1 -->
<svg width="1526pt" height="434pt"
 viewBox="0.00 0.00 1526.00 434.00" xmlns="http://www.w3.org/2000/svg" xmlns:xlink="http://www.w3.org/1999/xlink">
<g id="graph0" class="graph" transform="scale(1 1) rotate(0) translate(4 430)">
<title>include/Thoth/Http/Response/StatusCodeEnum.hpp</title>
<!-- Node1 -->
<g id="Node000001" class="node">
<title>Node1</title>
<g id="a_Node000001"><a xlink:title=" ">
<polygon fill="#999999" stroke="#666666" points="777,-426 603,-426 603,-396 777,-396 777,-426"/>
<text text-anchor="start" x="611" y="-414" font-family="Helvetica,sans-Serif" font-size="10.00">include/Thoth/Http</text>
<text text-anchor="middle" x="690" y="-403" font-family="Helvetica,sans-Serif" font-size="10.00">/Response/StatusCodeEnum.hpp</text>
</a>
</g>
</g>
<!-- Node2 -->
<g id="Node000002" class="node">
<title>Node2</title>
<g id="a_Node000002"><a xlink:href="_method_concept_8hpp.html" target="_top" xlink:title=" ">
<polygon fill="white" stroke="#666666" points="787,-294 593,-294 593,-264 787,-264 787,-294"/>
<text text-anchor="start" x="601" y="-282" font-family="Helvetica,sans-Serif" font-size="10.00">include/Thoth/Http</text>
<text text-anchor="middle" x="690" y="-271" font-family="Helvetica,sans-Serif" font-size="10.00">/Methods/_base/MethodConcept.hpp</text>
</a>
</g>
</g>
<!-- Node1&#45;&gt;Node2 -->
<g id="edge1_Node000001_Node000002" class="edge">
<title>Node1&#45;&gt;Node2</title>
<g id="a_edge1_Node000001_Node000002"><a xlink:title=" ">
<path fill="none" stroke="#63b8ff" d="M690,-385.68C690,-358.7 690,-316.11 690,-294.14"/>
<polygon fill="#63b8ff" stroke="#63b8ff" points="686.5,-385.84 690,-395.84 693.5,-385.84 686.5,-385.84"/>
</a>
</g>
</g>
<!-- Node8 -->
<g id="Node000008" class="node">
<title>Node8</title>
<g id="a_Node000008"><a xlink:href="_response_8hpp.html" target="_top" xlink:title=" ">
<polygon fill="white" stroke="#666666" points="169,-96 31,-96 31,-66 169,-66 169,-96"/>
<text text-anchor="start" x="39" y="-84" font-family="Helvetica,sans-Serif" font-size="10.00">include/Thoth/Http</text>
<text text-anchor="middle" x="100" y="-73" font-family="Helvetica,sans-Serif" font-size="10.00">/Response/Response.hpp</text>
</a>
</g>
</g>
<!-- Node1&#45;&gt;Node8 -->
<g id="edge22_Node000001_Node000008" class="edge">
<title>Node1&#45;&gt;Node8</title>
<g id="a_edge22_Node000001_Node000008"><a xlink:title=" ">
<path fill="none" stroke="#63b8ff" d="M592.97,-401.67C402.92,-384.03 0,-339.62 0,-280 0,-280 0,-280 0,-212 0,-160.75 49.44,-117.3 78.79,-96.02"/>
<polygon fill="#63b8ff" stroke="#63b8ff" points="592.68,-405.15 602.96,-402.59 593.32,-398.18 592.68,-405.15"/>
</a>
</g>
</g>
<!-- Node15 -->
<g id="Node000015" class="node">
<title>Node15</title>
<g id="a_Node000015"><a xlink:href="_headers_8hpp.html" target="_top" xlink:title=" ">
<polygon fill="white" stroke="#666666" points="902,-360 770,-360 770,-330 902,-330 902,-360"/>
<text text-anchor="start" x="778" y="-348" font-family="Helvetica,sans-Serif" font-size="10.00">include/Thoth/Http</text>
<text text-anchor="middle" x="836" y="-337" font-family="Helvetica,sans-Serif" font-size="10.00">/NHeaders/Headers.hpp</text>
</a>
</g>
</g>
<!-- Node1&#45;&gt;Node15 -->
<g id="edge18_Node000001_Node000015" class="edge">
<title>Node1&#45;&gt;Node15</title>
<g id="a_edge18_Node000001_Node000015"><a xlink:title=" ">
<path fill="none" stroke="#63b8ff" d="M731.25,-391.92C754.32,-381.8 782.66,-369.38 804.03,-360.01"/>
<polygon fill="#63b8ff" stroke="#63b8ff" points="729.79,-388.73 722.04,-395.95 732.6,-395.15 729.79,-388.73"/>
</a>
</g>
</g>
<!-- Node3 -->
<g id="Node000003" class="node">
<title>Node3</title>
<g id="a_Node000003"><a xlink:href="_connect_method_8hpp.html" target="_top" xlink:title=" ">
<polygon fill="white" stroke="#666666" points="1186,-228 1024,-228 1024,-198 1186,-198 1186,-228"/>
<text text-anchor="start" x="1032" y="-216" font-family="Helvetica,sans-Serif" font-size="10.00">include/Thoth/Http</text>
<text text-anchor="middle" x="1105" y="-205" font-family="Helvetica,sans-Serif" font-size="10.00">/Methods/ConnectMethod.hpp</text>
</a>
</g>
</g>
<!-- Node2&#45;&gt;Node3 -->
<g id="edge2_Node000002_Node000003" class="edge">
<title>Node2&#45;&gt;Node3</title>
<g id="a_edge2_Node000002_Node000003"><a xlink:title=" ">
<path fill="none" stroke="#63b8ff" d="M791.52,-262.43C855.62,-252.58 940.16,-239.58 1015,-228 1017.81,-227.56 1020.68,-227.12 1023.57,-226.67"/>
<polygon fill="#63b8ff" stroke="#63b8ff" points="790.77,-259 781.41,-263.98 791.83,-265.92 790.77,-259"/>
</a>
</g>
</g>
<!-- Node4 -->
<g id="Node000004" class="node">
<title>Node4</title>
<g id="a_Node000004"><a xlink:href="_delete_method_8hpp.html" target="_top" xlink:title=" ">
<polygon fill="white" stroke="#666666" points="1359.5,-228 1204.5,-228 1204.5,-198 1359.5,-198 1359.5,-228"/>
<text text-anchor="start" x="1212.5" y="-216" font-family="Helvetica,sans-Serif" font-size="10.00">include/Thoth/Http</text>
<text text-anchor="middle" x="1282" y="-205" font-family="Helvetica,sans-Serif" font-size="10.00">/Methods/DeleteMethod.hpp</text>
</a>
</g>
</g>
<!-- Node2&#45;&gt;Node4 -->
<g id="edge3_Node000002_Node000004" class="edge">
<title>Node2&#45;&gt;Node4</title>
<g id="a_edge3_Node000002_Node000004"><a xlink:title=" ">
<path fill="none" stroke="#63b8ff" d="M796.97,-263.93C974.65,-244.54 1021.52,-249.76 1195,-228 1198.04,-227.62 1201.13,-227.21 1204.25,-226.79"/>
<polygon fill="#63b8ff" stroke="#63b8ff" points="796.58,-260.45 787.03,-265.02 797.35,-267.41 796.58,-260.45"/>
</a>
</g>
</g>
<!-- Node5 -->
<g id="Node000005" class="node">
<title>Node5</title>
<g id="a_Node000005"><a xlink:href="_get_method_8hpp.html" target="_top" xlink:title=" ">
<polygon fill="white" stroke="#666666" points="1518,-228 1378,-228 1378,-198 1518,-198 1518,-228"/>
<text text-anchor="start" x="1386" y="-216" font-family="Helvetica,sans-Serif" font-size="10.00">include/Thoth/Http</text>
<text text-anchor="middle" x="1448" y="-205" font-family="Helvetica,sans-Serif" font-size="10.00">/Methods/GetMethod.hpp</text>
</a>
</g>
</g>
<!-- Node2&#45;&gt;Node5 -->
<g id="edge4_Node000002_Node000005" class="edge">
<title>Node2&#45;&gt;Node5</title>
<g id="a_edge4_Node000002_Node000005"><a xlink:title=" ">
<path fill="none" stroke="#63b8ff" d="M797.31,-263.93C1051.73,-239.77 1118.98,-257.91 1369,-228 1371.9,-227.65 1374.86,-227.27 1377.85,-226.85"/>
<polygon fill="#63b8ff" stroke="#63b8ff" points="796.63,-260.47 787.02,-264.92 797.3,-267.44 796.63,-260.47"/>
</a>
</g>
</g>
<!-- Node9 -->
<g id="Node000009" class="node">
<title>Node9</title>
<g id="a_Node000009"><a xlink:href="_head_method_8hpp.html" target="_top" xlink:title=" ">
<polygon fill="white" stroke="#666666" points="338,-228 190,-228 190,-198 338,-198 338,-228"/>
<text text-anchor="start" x="198" y="-216" font-family="Helvetica,sans-Serif" font-size="10.00">include/Thoth/Http</text>
<text text-anchor="middle" x="264" y="-205" font-family="Helvetica,sans-Serif" font-size="10.00">/Methods/HeadMethod.hpp</text>
</a>
</g>
</g>
<!-- Node2&#45;&gt;Node9 -->
<g id="edge10_Node000002_Node000009" class="edge">
<title>Node2&#45;&gt;Node9</title>
<g id="a_edge10_Node000002_Node000009"><a xlink:title=" ">
<path fill="none" stroke="#63b8ff" d="M582.46,-262.95C514.82,-253.33 425.74,-240.38 347,-228 344.11,-227.55 341.17,-227.08 338.2,-226.6"/>
<polygon fill="#63b8ff" stroke="#63b8ff" points="582.31,-266.47 592.7,-264.41 583.3,-259.54 582.31,-266.47"/>
</a>
</g>
</g>
<!-- Node10 -->
<g id="Node000010" class="node">
<title>Node10</title>
<g id="a_Node000010"><a xlink:href="_options_method_8hpp.html" target="_top" xlink:title=" ">
<polygon fill="white" stroke="#666666" points="516,-228 356,-228 356,-198 516,-198 516,-228"/>
<text text-anchor="start" x="364" y="-216" font-family="Helvetica,sans-Serif" font-size="10.00">include/Thoth/Http</text>
<text text-anchor="middle" x="436" y="-205" font-family="Helvetica,sans-Serif" font-size="10.00">/Methods/OptionsMethod.hpp</text>
</a>
</g>
</g>
<!-- Node2&#45;&gt;Node10 -->
<g id="edge11_Node000002_Node000010" class="edge">
<title>Node2&#45;&gt;Node10</title>
<g id="a_edge11_Node000002_Node000010"><a xlink:title=" ">
<path fill="none" stroke="#63b8ff" d="M624.32,-261.45C583.17,-251.08 530.71,-237.86 491.61,-228.01"/>
<polygon fill="#63b8ff" stroke="#63b8ff" points="623.71,-264.91 634.26,-263.95 625.42,-258.12 623.71,-264.91"/>
</a>
</g>
</g>
<!-- Node11 -->
<g id="Node000011" class="node">
<title>Node11</title>
<g id="a_Node000011"><a xlink:href="_patch_method_8hpp.html" target="_top" xlink:title=" ">
<polygon fill="white" stroke="#666666" points="683.5,-228 534.5,-228 534.5,-198 683.5,-198 683.5,-228"/>
<text text-anchor="start" x="542.5" y="-216" font-family="Helvetica,sans-Serif" font-size="10.00">include/Thoth/Http</text>
<text text-anchor="middle" x="609" y="-205" font-family="Helvetica,sans-Serif" font-size="10.00">/Methods/PatchMethod.hpp</text>
</a>
</g>
</g>
<!-- Node2&#45;&gt;Node11 -->
<g id="edge12_Node000002_Node000011" class="edge">
<title>Node2&#45;&gt;Node11</title>
<g id="a_edge12_Node000002_Node000011"><a xlink:title=" ">
<path fill="none" stroke="#63b8ff" d="M664.03,-257.48C651.92,-247.91 637.82,-236.77 626.93,-228.16"/>
<polygon fill="#63b8ff" stroke="#63b8ff" points="662.01,-260.34 672.02,-263.8 666.35,-254.85 662.01,-260.34"/>
</a>
</g>
</g>
<!-- Node12 -->
<g id="Node000012" class="node">
<title>Node12</title>
<g id="a_Node000012"><a xlink:href="_post_method_8hpp.html" target="_top" xlink:title=" ">
<polygon fill="white" stroke="#666666" points="171.5,-228 28.5,-228 28.5,-198 171.5,-198 171.5,-228"/>
<text text-anchor="start" x="36.5" y="-216" font-family="Helvetica,sans-Serif" font-size="10.00">include/Thoth/Http</text>
<text text-anchor="middle" x="100" y="-205" font-family="Helvetica,sans-Serif" font-size="10.00">/Methods/PostMethod.hpp</text>
</a>
</g>
</g>
<!-- Node2&#45;&gt;Node12 -->
<g id="edge13_Node000002_Node000012" class="edge">
<title>Node2&#45;&gt;Node12</title>
<g id="a_edge13_Node000002_Node000012"><a xlink:title=" ">
<path fill="none" stroke="#63b8ff" d="M582.53,-269.74C479.33,-261.27 319.16,-246.7 181,-228 177.89,-227.58 174.71,-227.13 171.51,-226.65"/>
<polygon fill="#63b8ff" stroke="#63b8ff" points="582.4,-273.24 592.65,-270.57 582.97,-266.27 582.4,-273.24"/>
</a>
</g>
</g>
<!-- Node13 -->
<g id="Node000013" class="node">
<title>Node13</title>
<g id="a_Node000013"><a xlink:href="_put_method_8hpp.html" target="_top" xlink:title=" ">
<polygon fill="white" stroke="#666666" points="840,-228 702,-228 702,-198 840,-198 840,-228"/>
<text text-anchor="start" x="710" y="-216" font-family="Helvetica,sans-Serif" font-size="10.00">include/Thoth/Http</text>
<text text-anchor="middle" x="771" y="-205" font-family="Helvetica,sans-Serif" font-size="10.00">/Methods/PutMethod.hpp</text>
</a>
</g>
</g>
<!-- Node2&#45;&gt;Node13 -->
<g id="edge16_Node000002_Node000013" class="edge">
<title>Node2&#45;&gt;Node13</title>
<g id="a_edge16_Node000002_Node000013"><a xlink:title=" ">
<path fill="none" stroke="#63b8ff" d="M715.97,-257.48C728.08,-247.91 742.18,-236.77 753.07,-228.16"/>
<polygon fill="#63b8ff" stroke="#63b8ff" points="713.65,-254.85 707.98,-263.8 717.99,-260.34 713.65,-254.85"/>
</a>
</g>
</g>
<!-- Node14 -->
<g id="Node000014" class="node">
<title>Node14</title>
<g id="a_Node000014"><a xlink:href="_trace_method_8hpp.html" target="_top" xlink:title=" ">
<polygon fill="white" stroke="#666666" points="1006,-228 858,-228 858,-198 1006,-198 1006,-228"/>
<text text-anchor="start" x="866" y="-216" font-family="Helvetica,sans-Serif" font-size="10.00">include/Thoth/Http</text>
<text text-anchor="middle" x="932" y="-205" font-family="Helvetica,sans-Serif" font-size="10.00">/Methods/TraceMethod.hpp</text>
</a>
</g>
</g>
<!-- Node2&#45;&gt;Node14 -->
<g id="edge17_Node000002_Node000014" class="edge">
<title>Node2&#45;&gt;Node14</title>
<g id="a_edge17_Node000002_Node000014"><a xlink:title=" ">
<path fill="none" stroke="#63b8ff" d="M752.82,-261.39C792,-251.03 841.85,-237.84 879.02,-228.01"/>
<polygon fill="#63b8ff" stroke="#63b8ff" points="751.88,-258.01 743.11,-263.95 753.67,-264.78 751.88,-258.01"/>
</a>
</g>
</g>
<!-- Node6 -->
<g id="Node000006" class="node">
<title>Node6</title>
<g id="a_Node000006"><a xlink:href="_request_8hpp.html" target="_top" xlink:title=" ">
<polygon fill="white" stroke="#666666" points="255.5,-162 132.5,-162 132.5,-132 255.5,-132 255.5,-162"/>
<text text-anchor="start" x="140.5" y="-150" font-family="Helvetica,sans-Serif" font-size="10.00">include/Thoth/Http</text>
<text text-anchor="middle" x="194" y="-139" font-family="Helvetica,sans-Serif" font-size="10.00">/Request/Request.hpp</text>
</a>
</g>
</g>
<!-- Node5&#45;&gt;Node6 -->
<g id="edge5_Node000005_Node000006" class="edge">
<title>Node5&#45;&gt;Node6</title>
<g id="a_edge5_Node000005_Node000006"><a xlink:title=" ">
<path fill="none" stroke="#63b8ff" d="M1367.91,-198.01C1130.76,-173.51 462.62,-154.88 255.77,-149.54"/>
<polygon fill="#63b8ff" stroke="#63b8ff" points="1367.54,-201.49 1377.86,-199.07 1368.29,-194.53 1367.54,-201.49"/>
</a>
</g>
</g>
<!-- Node5&#45;&gt;Node8 -->
<g id="edge9_Node000005_Node000008" class="edge">
<title>Node5&#45;&gt;Node8</title>
<g id="a_edge9_Node000005_Node000008"><a xlink:title=" ">
<path fill="none" stroke="#63b8ff" d="M1367.61,-197.88C904.84,-136.29 358.83,-98.4 169.01,-86.26"/>
<polygon fill="#63b8ff" stroke="#63b8ff" points="1367.46,-201.39 1377.84,-199.25 1368.39,-194.46 1367.46,-201.39"/>
</a>
</g>
</g>
<!-- Node7 -->
<g id="Node000007" class="node">
<title>Node7</title>
<g id="a_Node000007"><a xlink:href="_client_8hpp.html" target="_top" xlink:title=" ">
<polygon fill="white" stroke="#666666" points="201.5,-30 94.5,-30 94.5,0 201.5,0 201.5,-30"/>
<text text-anchor="start" x="102.5" y="-18" font-family="Helvetica,sans-Serif" font-size="10.00">include/Thoth/Http</text>
<text text-anchor="middle" x="148" y="-7" font-family="Helvetica,sans-Serif" font-size="10.00">/Client.hpp</text>
</a>
</g>
</g>
<!-- Node6&#45;&gt;Node7 -->
<g id="edge6_Node000006_Node000007" class="edge">
<title>Node6&#45;&gt;Node7</title>
<g id="a_edge6_Node000006_Node000007"><a xlink:title=" ">
<path fill="none" stroke="#63b8ff" d="M191.31,-121.48C189.01,-105.32 184.93,-83.93 178,-66 173.04,-53.16 164.88,-39.85 158.32,-30.19"/>
<polygon fill="#63b8ff" stroke="#63b8ff" points="187.88,-122.25 192.64,-131.72 194.82,-121.35 187.88,-122.25"/>
</a>
</g>
</g>
<!-- Node6&#45;&gt;Node8 -->
<g id="edge7_Node000006_Node000008" class="edge">
<title>Node6&#45;&gt;Node8</title>
<g id="a_edge7_Node000006_Node000008"><a xlink:title=" ">
<path fill="none" stroke="#63b8ff" d="M164.67,-126.03C150.44,-116.34 133.69,-104.94 120.8,-96.16"/>
<polygon fill="#63b8ff" stroke="#63b8ff" points="162.9,-129.06 173.14,-131.8 166.84,-123.28 162.9,-129.06"/>
</a>
</g>
</g>
<!-- Node8&#45;&gt;Node7 -->
<g id="edge8_Node000008_Node000007" class="edge">
<title>Node8&#45;&gt;Node7</title>
<g id="a_edge8_Node000008_Node000007"><a xlink:title=" ">
<path fill="none" stroke="#63b8ff" d="M116.86,-57.53C123.68,-48.43 131.35,-38.19 137.38,-30.16"/>
<polygon fill="#63b8ff" stroke="#63b8ff" points="113.85,-55.7 110.65,-65.8 119.45,-59.9 113.85,-55.7"/>
</a>
</g>
</g>
<!-- Node12&#45;&gt;Node6 -->
<g id="edge14_Node000012_Node000006" class="edge">
<title>Node12&#45;&gt;Node6</title>
<g id="a_edge14_Node000012_Node000006"><a xlink:title=" ">
<path fill="none" stroke="#63b8ff" d="M129.33,-192.03C143.56,-182.34 160.31,-170.94 173.2,-162.16"/>
<polygon fill="#63b8ff" stroke="#63b8ff" points="127.16,-189.28 120.86,-197.8 131.1,-195.06 127.16,-189.28"/>
</a>
</g>
</g>
<!-- Node12&#45;&gt;Node8 -->
<g id="edge15_Node000012_Node000008" class="edge">
<title>Node12&#45;&gt;Node8</title>
<g id="a_edge15_Node000012_Node000008"><a xlink:title=" ">
<path fill="none" stroke="#63b8ff" d="M100,-187.68C100,-160.7 100,-118.11 100,-96.14"/>
<polygon fill="#63b8ff" stroke="#63b8ff" points="96.5,-187.84 100,-197.84 103.5,-187.84 96.5,-187.84"/>
</a>
</g>
</g>
<!-- Node15&#45;&gt;Node2 -->
<g id="edge19_Node000015_Node000002" class="edge">
<title>Node15&#45;&gt;Node2</title>
<g id="a_edge19_Node000015_Node000002"><a xlink:title=" ">
<path fill="none" stroke="#63b8ff" d="M794.75,-325.92C771.68,-315.8 743.34,-303.38 721.97,-294.01"/>
<polygon fill="#63b8ff" stroke="#63b8ff" points="793.4,-329.15 803.96,-329.95 796.21,-322.73 793.4,-329.15"/>
</a>
</g>
</g>
<!-- Node16 -->
<g id="Node000016" class="node">
<title>Node16</title>
<g id="a_Node000016"><a xlink:href="_list_proxy_8hpp.html" target="_top" xlink:title=" ">
<polygon fill="white" stroke="#666666" points="971,-294 805,-294 805,-264 971,-264 971,-294"/>
<text text-anchor="start" x="813" y="-282" font-family="Helvetica,sans-Serif" font-size="10.00">include/Thoth/Http</text>
<text text-anchor="middle" x="888" y="-271" font-family="Helvetica,sans-Serif" font-size="10.00">/NHeaders/Proxy/ListProxy.hpp</text>
</a>
</g>
</g>
<!-- Node15&#45;&gt;Node16 -->
<g id="edge20_Node000015_Node000016" class="edge">
<title>Node15&#45;&gt;Node16</title>
<g id="a_edge20_Node000015_Node000016"><a xlink:title=" ">
<path fill="none" stroke="#63b8ff" d="M854.03,-321.81C861.48,-312.64 869.9,-302.28 876.49,-294.16"/>
<polygon fill="#63b8ff" stroke="#63b8ff" points="851.13,-319.83 847.54,-329.8 856.56,-324.24 851.13,-319.83"/>
</a>
</g>
</g>
<!-- Node17 -->
<g id="Node000017" class="node">
<title>Node17</title>
<g id="a_Node000017"><a xlink:href="_value_proxy_8hpp.html" target="_top" xlink:title=" ">
<polygon fill="white" stroke="#666666" points="1165,-294 989,-294 989,-264 1165,-264 1165,-294"/>
<text text-anchor="start" x="997" y="-282" font-family="Helvetica,sans-Serif" font-size="10.00">include/Thoth/Http</text>
<text text-anchor="middle" x="1077" y="-271" font-family="Helvetica,sans-Serif" font-size="10.00">/NHeaders/Proxy/ValueProxy.hpp</text>
</a>
</g>
</g>
<!-- Node15&#45;&gt;Node17 -->
<g id="edge21_Node000015_Node000017" class="edge">
<title>Node15&#45;&gt;Node17</title>
<g id="a_edge21_Node000015_Node000017"><a xlink:title=" ">
<path fill="none" stroke="#63b8ff" d="M898.56,-327.39C937.58,-317.03 987.22,-303.84 1024.23,-294.01"/>
<polygon fill="#63b8ff" stroke="#63b8ff" points="897.66,-324.01 888.89,-329.95 899.45,-330.77 897.66,-324.01"/>
</a>
</g>
</g>
</g>
</svg>
