<?xml version="1.0" encoding="UTF-8" standalone="no"?>
<!DOCTYPE svg PUBLIC "-//W3C//DTD SVG 1.1//EN"
 "http://www.w3.org/Graphics/SVG/1.1/DTD/svg11.dtd">
<!-- Generated by graphviz version 2.43.0 (0)
 -->
<!-- Title: include/Thoth/NJson/StringRef.hpp Pages: 1 -->
<svg width="1598pt" height="775pt"
 viewBox="0.00 0.00 1597.75 775.00" xmlns="http://www.w3.org/2000/svg" xmlns:xlink="http://www.w3.org/1999/xlink">
<g id="graph0" class="graph" transform="scale(1 1) rotate(0) translate(4 771)">
<title>include/Thoth/NJson/StringRef.hpp</title>
<!-- Node1 -->
<g id="Node000001" class="node">
<title>Node1</title>
<g id="a_Node000001"><a xlink:title=" ">
<polygon fill="#999999" stroke="#666666" points="233.83,-767 120.83,-767 120.83,-737 233.83,-737 233.83,-767"/>
<text text-anchor="start" x="128.83" y="-755" font-family="Helvetica,sans-Serif" font-size="10.00">include/Thoth/NJson</text>
<text text-anchor="middle" x="177.33" y="-744" font-family="Helvetica,sans-Serif" font-size="10.00">/StringRef.hpp</text>
</a>
</g>
</g>
<!-- Node2 -->
<g id="Node000002" class="node">
<title>Node2</title>
<g id="a_Node000002"><a xlink:href="_definitions_8hpp.html" target="_top" xlink:title=" ">
<polygon fill="white" stroke="#666666" points="233.83,-701 120.83,-701 120.83,-671 233.83,-671 233.83,-701"/>
<text text-anchor="start" x="128.83" y="-689" font-family="Helvetica,sans-Serif" font-size="10.00">include/Thoth/NJson</text>
<text text-anchor="middle" x="177.33" y="-678" font-family="Helvetica,sans-Serif" font-size="10.00">/Definitions.hpp</text>
</a>
</g>
</g>
<!-- Node1&#45;&gt;Node2 -->
<g id="edge1_Node000001_Node000002" class="edge">
<title>Node1&#45;&gt;Node2</title>
<g id="a_edge1_Node000001_Node000002"><a xlink:title=" ">
<path fill="none" stroke="#63b8ff" d="M177.33,-726.54C177.33,-717.96 177.33,-708.61 177.33,-701.16"/>
<polygon fill="#63b8ff" stroke="#63b8ff" points="173.83,-726.8 177.33,-736.8 180.83,-726.8 173.83,-726.8"/>
</a>
</g>
</g>
<!-- Node3 -->
<g id="Node000003" class="node">
<title>Node3</title>
<g id="a_Node000003"><a xlink:href="_request_error_8hpp.html" target="_top" xlink:title=" ">
<polygon fill="white" stroke="#666666" points="189.83,-635 82.83,-635 82.83,-605 189.83,-605 189.83,-635"/>
<text text-anchor="start" x="90.83" y="-623" font-family="Helvetica,sans-Serif" font-size="10.00">include/Thoth/Http</text>
<text text-anchor="middle" x="136.33" y="-612" font-family="Helvetica,sans-Serif" font-size="10.00">/RequestError.hpp</text>
</a>
</g>
</g>
<!-- Node2&#45;&gt;Node3 -->
<g id="edge2_Node000002_Node000003" class="edge">
<title>Node2&#45;&gt;Node3</title>
<g id="a_edge2_Node000002_Node000003"><a xlink:title=" ">
<path fill="none" stroke="#63b8ff" d="M162.75,-662.24C156.97,-653.21 150.49,-643.11 145.4,-635.16"/>
<polygon fill="#63b8ff" stroke="#63b8ff" points="159.89,-664.26 168.23,-670.8 165.78,-660.49 159.89,-664.26"/>
</a>
</g>
</g>
<!-- Node25 -->
<g id="Node000025" class="node">
<title>Node25</title>
<g id="a_Node000025"><a xlink:href="_json_8hpp.html" target="_top" xlink:title=" ">
<polygon fill="white" stroke="#666666" points="308.83,-569 195.83,-569 195.83,-539 308.83,-539 308.83,-569"/>
<text text-anchor="start" x="203.83" y="-557" font-family="Helvetica,sans-Serif" font-size="10.00">include/Thoth/NJson</text>
<text text-anchor="middle" x="252.33" y="-546" font-family="Helvetica,sans-Serif" font-size="10.00">/Json.hpp</text>
</a>
</g>
</g>
<!-- Node2&#45;&gt;Node25 -->
<g id="edge34_Node000002_Node000025" class="edge">
<title>Node2&#45;&gt;Node25</title>
<g id="a_edge34_Node000002_Node000025"><a xlink:title=" ">
<path fill="none" stroke="#63b8ff" d="M190.54,-662.1C206.04,-635.23 231.27,-591.5 244.17,-569.14"/>
<polygon fill="#63b8ff" stroke="#63b8ff" points="187.46,-660.43 185.5,-670.84 193.53,-663.93 187.46,-660.43"/>
</a>
</g>
</g>
<!-- Node4 -->
<g id="Node000004" class="node">
<title>Node4</title>
<g id="a_Node000004"><a xlink:href="_client_8hpp.html" target="_top" xlink:title=" ">
<polygon fill="white" stroke="#666666" points="634.83,-30 527.83,-30 527.83,0 634.83,0 634.83,-30"/>
<text text-anchor="start" x="535.83" y="-18" font-family="Helvetica,sans-Serif" font-size="10.00">include/Thoth/Http</text>
<text text-anchor="middle" x="581.33" y="-7" font-family="Helvetica,sans-Serif" font-size="10.00">/Client.hpp</text>
</a>
</g>
</g>
<!-- Node3&#45;&gt;Node4 -->
<g id="edge3_Node000003_Node000004" class="edge">
<title>Node3&#45;&gt;Node4</title>
<g id="a_edge3_Node000003_Node000004"><a xlink:title=" ">
<path fill="none" stroke="#63b8ff" d="M72.92,-604.18C53.2,-596.66 33.05,-585.49 19.33,-569 -3.99,-540.99 1.33,-525.44 1.33,-489 1.33,-489 1.33,-489 1.33,-146 1.33,-38.68 384.22,-19.93 527.8,-16.68"/>
<polygon fill="#63b8ff" stroke="#63b8ff" points="71.94,-607.55 82.54,-607.58 74.28,-600.95 71.94,-607.55"/>
</a>
</g>
</g>
<!-- Node5 -->
<g id="Node000005" class="node">
<title>Node5</title>
<g id="a_Node000005"><a xlink:href="_query_params_8hpp.html" target="_top" xlink:title=" ">
<polygon fill="white" stroke="#666666" points="177.83,-569 28.83,-569 28.83,-539 177.83,-539 177.83,-569"/>
<text text-anchor="start" x="36.83" y="-557" font-family="Helvetica,sans-Serif" font-size="10.00">include/Thoth/Http</text>
<text text-anchor="middle" x="103.33" y="-546" font-family="Helvetica,sans-Serif" font-size="10.00">/Request/QueryParams.hpp</text>
</a>
</g>
</g>
<!-- Node3&#45;&gt;Node5 -->
<g id="edge4_Node000003_Node000005" class="edge">
<title>Node3&#45;&gt;Node5</title>
<g id="a_edge4_Node000003_Node000005"><a xlink:title=" ">
<path fill="none" stroke="#63b8ff" d="M124.3,-595.68C119.72,-586.79 114.64,-576.95 110.63,-569.16"/>
<polygon fill="#63b8ff" stroke="#63b8ff" points="121.31,-597.51 129,-604.8 127.53,-594.3 121.31,-597.51"/>
</a>
</g>
</g>
<!-- Node3&#45;&gt;Node25 -->
<g id="edge32_Node000003_Node000025" class="edge">
<title>Node3&#45;&gt;Node25</title>
<g id="a_edge32_Node000003_Node000025"><a xlink:title=" ">
<path fill="none" stroke="#63b8ff" d="M170.82,-599.97C188.83,-590.03 210.47,-578.09 226.93,-569.01"/>
<polygon fill="#63b8ff" stroke="#63b8ff" points="168.85,-597.06 161.79,-604.95 172.23,-603.19 168.85,-597.06"/>
</a>
</g>
</g>
<!-- Node6 -->
<g id="Node000006" class="node">
<title>Node6</title>
<g id="a_Node000006"><a xlink:href="_url_8hpp.html" target="_top" xlink:title=" ">
<polygon fill="white" stroke="#666666" points="1003.83,-503 896.83,-503 896.83,-473 1003.83,-473 1003.83,-503"/>
<text text-anchor="start" x="904.83" y="-491" font-family="Helvetica,sans-Serif" font-size="10.00">include/Thoth/Http</text>
<text text-anchor="middle" x="950.33" y="-480" font-family="Helvetica,sans-Serif" font-size="10.00">/Request/Url.hpp</text>
</a>
</g>
</g>
<!-- Node5&#45;&gt;Node6 -->
<g id="edge5_Node000005_Node000006" class="edge">
<title>Node5&#45;&gt;Node6</title>
<g id="a_edge5_Node000005_Node000006"><a xlink:title=" ">
<path fill="none" stroke="#63b8ff" d="M187.98,-538.88C459.48,-507.7 772.87,-494.81 896.43,-490.64"/>
<polygon fill="#63b8ff" stroke="#63b8ff" points="187.46,-535.42 177.93,-540.05 188.27,-542.37 187.46,-535.42"/>
</a>
</g>
</g>
<!-- Node7 -->
<g id="Node000007" class="node">
<title>Node7</title>
<g id="a_Node000007"><a xlink:href="_method_concept_8hpp.html" target="_top" xlink:title=" ">
<polygon fill="white" stroke="#666666" points="759.33,-365.5 565.33,-365.5 565.33,-335.5 759.33,-335.5 759.33,-365.5"/>
<text text-anchor="start" x="573.33" y="-353.5" font-family="Helvetica,sans-Serif" font-size="10.00">include/Thoth/Http</text>
<text text-anchor="middle" x="662.33" y="-342.5" font-family="Helvetica,sans-Serif" font-size="10.00">/Methods/_base/MethodConcept.hpp</text>
</a>
</g>
</g>
<!-- Node6&#45;&gt;Node7 -->
<g id="edge6_Node000006_Node000007" class="edge">
<title>Node6&#45;&gt;Node7</title>
<g id="a_edge6_Node000006_Node000007"><a xlink:title=" ">
<path fill="none" stroke="#63b8ff" d="M911.07,-468.53C852.78,-441.11 744.62,-390.22 692.27,-365.59"/>
<polygon fill="#63b8ff" stroke="#63b8ff" points="909.78,-471.79 920.32,-472.88 912.76,-465.46 909.78,-471.79"/>
</a>
</g>
</g>
<!-- Node11 -->
<g id="Node000011" class="node">
<title>Node11</title>
<g id="a_Node000011"><a xlink:href="_request_8hpp.html" target="_top" xlink:title=" ">
<polygon fill="white" stroke="#666666" points="1144.83,-228 1021.83,-228 1021.83,-198 1144.83,-198 1144.83,-228"/>
<text text-anchor="start" x="1029.83" y="-216" font-family="Helvetica,sans-Serif" font-size="10.00">include/Thoth/Http</text>
<text text-anchor="middle" x="1083.33" y="-205" font-family="Helvetica,sans-Serif" font-size="10.00">/Request/Request.hpp</text>
</a>
</g>
</g>
<!-- Node6&#45;&gt;Node11 -->
<g id="edge31_Node000006_Node000011" class="edge">
<title>Node6&#45;&gt;Node11</title>
<g id="a_edge31_Node000006_Node000011"><a xlink:title=" ">
<path fill="none" stroke="#63b8ff" d="M1014.33,-484.87C1157.51,-478.62 1496.61,-455.07 1566.33,-371 1596.68,-334.39 1598.18,-299.32 1566.33,-264 1538.59,-233.25 1268.86,-220.25 1144.98,-215.86"/>
<polygon fill="#63b8ff" stroke="#63b8ff" points="1013.8,-481.39 1003.95,-485.31 1014.09,-488.38 1013.8,-481.39"/>
</a>
</g>
</g>
<!-- Node20 -->
<g id="Node000020" class="node">
<title>Node20</title>
<g id="a_Node000020"><a xlink:href="_headers_8hpp.html" target="_top" xlink:title=" ">
<polygon fill="white" stroke="#666666" points="1112.33,-437 980.33,-437 980.33,-407 1112.33,-407 1112.33,-437"/>
<text text-anchor="start" x="988.33" y="-425" font-family="Helvetica,sans-Serif" font-size="10.00">include/Thoth/Http</text>
<text text-anchor="middle" x="1046.33" y="-414" font-family="Helvetica,sans-Serif" font-size="10.00">/NHeaders/Headers.hpp</text>
</a>
</g>
</g>
<!-- Node6&#45;&gt;Node20 -->
<g id="edge24_Node000006_Node000020" class="edge">
<title>Node6&#45;&gt;Node20</title>
<g id="a_edge24_Node000006_Node000020"><a xlink:title=" ">
<path fill="none" stroke="#63b8ff" d="M980.29,-467.03C994.81,-457.34 1011.92,-445.94 1025.08,-437.16"/>
<polygon fill="#63b8ff" stroke="#63b8ff" points="978.01,-464.34 971.63,-472.8 981.9,-470.16 978.01,-464.34"/>
</a>
</g>
</g>
<!-- Node8 -->
<g id="Node000008" class="node">
<title>Node8</title>
<g id="a_Node000008"><a xlink:href="_connect_method_8hpp.html" target="_top" xlink:title=" ">
<polygon fill="white" stroke="#666666" points="1383.33,-294 1221.33,-294 1221.33,-264 1383.33,-264 1383.33,-294"/>
<text text-anchor="start" x="1229.33" y="-282" font-family="Helvetica,sans-Serif" font-size="10.00">include/Thoth/Http</text>
<text text-anchor="middle" x="1302.33" y="-271" font-family="Helvetica,sans-Serif" font-size="10.00">/Methods/ConnectMethod.hpp</text>
</a>
</g>
</g>
<!-- Node7&#45;&gt;Node8 -->
<g id="edge7_Node000007_Node000008" class="edge">
<title>Node7&#45;&gt;Node8</title>
<g id="a_edge7_Node000007_Node000008"><a xlink:title=" ">
<path fill="none" stroke="#63b8ff" d="M742.89,-333.8C751.46,-332.4 760.06,-331.09 768.33,-330 964.6,-304.06 1015.72,-317.23 1212.33,-294 1215.16,-293.67 1218.03,-293.31 1220.93,-292.94"/>
<polygon fill="#63b8ff" stroke="#63b8ff" points="742.15,-330.38 732.87,-335.5 743.32,-337.28 742.15,-330.38"/>
</a>
</g>
</g>
<!-- Node9 -->
<g id="Node000009" class="node">
<title>Node9</title>
<g id="a_Node000009"><a xlink:href="_delete_method_8hpp.html" target="_top" xlink:title=" ">
<polygon fill="white" stroke="#666666" points="1556.83,-294 1401.83,-294 1401.83,-264 1556.83,-264 1556.83,-294"/>
<text text-anchor="start" x="1409.83" y="-282" font-family="Helvetica,sans-Serif" font-size="10.00">include/Thoth/Http</text>
<text text-anchor="middle" x="1479.33" y="-271" font-family="Helvetica,sans-Serif" font-size="10.00">/Methods/DeleteMethod.hpp</text>
</a>
</g>
</g>
<!-- Node7&#45;&gt;Node9 -->
<g id="edge8_Node000007_Node000009" class="edge">
<title>Node7&#45;&gt;Node9</title>
<g id="a_edge8_Node000007_Node000009"><a xlink:title=" ">
<path fill="none" stroke="#63b8ff" d="M741.75,-333.79C750.69,-332.35 759.69,-331.04 768.33,-330 1044.13,-296.81 1116.17,-324.11 1392.33,-294 1395.37,-293.67 1398.47,-293.3 1401.59,-292.91"/>
<polygon fill="#63b8ff" stroke="#63b8ff" points="740.99,-330.36 731.7,-335.46 742.14,-337.27 740.99,-330.36"/>
</a>
</g>
</g>
<!-- Node10 -->
<g id="Node000010" class="node">
<title>Node10</title>
<g id="a_Node000010"><a xlink:href="_get_method_8hpp.html" target="_top" xlink:title=" ">
<polygon fill="white" stroke="#666666" points="1203.33,-294 1063.33,-294 1063.33,-264 1203.33,-264 1203.33,-294"/>
<text text-anchor="start" x="1071.33" y="-282" font-family="Helvetica,sans-Serif" font-size="10.00">include/Thoth/Http</text>
<text text-anchor="middle" x="1133.33" y="-271" font-family="Helvetica,sans-Serif" font-size="10.00">/Methods/GetMethod.hpp</text>
</a>
</g>
</g>
<!-- Node7&#45;&gt;Node10 -->
<g id="edge9_Node000007_Node000010" class="edge">
<title>Node7&#45;&gt;Node10</title>
<g id="a_edge9_Node000007_Node000010"><a xlink:title=" ">
<path fill="none" stroke="#63b8ff" d="M745.59,-333.72C753.27,-332.41 760.94,-331.14 768.33,-330 894.93,-310.4 927.66,-313.18 1054.33,-294 1057.22,-293.56 1060.17,-293.1 1063.15,-292.63"/>
<polygon fill="#63b8ff" stroke="#63b8ff" points="744.76,-330.31 735.51,-335.48 745.96,-337.21 744.76,-330.31"/>
</a>
</g>
</g>
<!-- Node14 -->
<g id="Node000014" class="node">
<title>Node14</title>
<g id="a_Node000014"><a xlink:href="_head_method_8hpp.html" target="_top" xlink:title=" ">
<polygon fill="white" stroke="#666666" points="377.33,-294 229.33,-294 229.33,-264 377.33,-264 377.33,-294"/>
<text text-anchor="start" x="237.33" y="-282" font-family="Helvetica,sans-Serif" font-size="10.00">include/Thoth/Http</text>
<text text-anchor="middle" x="303.33" y="-271" font-family="Helvetica,sans-Serif" font-size="10.00">/Methods/HeadMethod.hpp</text>
</a>
</g>
</g>
<!-- Node7&#45;&gt;Node14 -->
<g id="edge16_Node000007_Node000014" class="edge">
<title>Node7&#45;&gt;Node14</title>
<g id="a_edge16_Node000007_Node000014"><a xlink:title=" ">
<path fill="none" stroke="#63b8ff" d="M579.61,-333.49C518.05,-321.57 434.84,-305.46 375.87,-294.04"/>
<polygon fill="#63b8ff" stroke="#63b8ff" points="579.2,-336.97 589.68,-335.44 580.53,-330.1 579.2,-336.97"/>
</a>
</g>
</g>
<!-- Node15 -->
<g id="Node000015" class="node">
<title>Node15</title>
<g id="a_Node000015"><a xlink:href="_options_method_8hpp.html" target="_top" xlink:title=" ">
<polygon fill="white" stroke="#666666" points="555.33,-294 395.33,-294 395.33,-264 555.33,-264 555.33,-294"/>
<text text-anchor="start" x="403.33" y="-282" font-family="Helvetica,sans-Serif" font-size="10.00">include/Thoth/Http</text>
<text text-anchor="middle" x="475.33" y="-271" font-family="Helvetica,sans-Serif" font-size="10.00">/Methods/OptionsMethod.hpp</text>
</a>
</g>
</g>
<!-- Node7&#45;&gt;Node15 -->
<g id="edge17_Node000007_Node000015" class="edge">
<title>Node7&#45;&gt;Node15</title>
<g id="a_edge17_Node000007_Node000015"><a xlink:title=" ">
<path fill="none" stroke="#63b8ff" d="M615.01,-331.92C583.45,-320.18 542.5,-304.97 513.11,-294.04"/>
<polygon fill="#63b8ff" stroke="#63b8ff" points="613.89,-335.23 624.49,-335.44 616.33,-328.67 613.89,-335.23"/>
</a>
</g>
</g>
<!-- Node16 -->
<g id="Node000016" class="node">
<title>Node16</title>
<g id="a_Node000016"><a xlink:href="_patch_method_8hpp.html" target="_top" xlink:title=" ">
<polygon fill="white" stroke="#666666" points="722.83,-294 573.83,-294 573.83,-264 722.83,-264 722.83,-294"/>
<text text-anchor="start" x="581.83" y="-282" font-family="Helvetica,sans-Serif" font-size="10.00">include/Thoth/Http</text>
<text text-anchor="middle" x="648.33" y="-271" font-family="Helvetica,sans-Serif" font-size="10.00">/Methods/PatchMethod.hpp</text>
</a>
</g>
</g>
<!-- Node7&#45;&gt;Node16 -->
<g id="edge18_Node000007_Node000016" class="edge">
<title>Node7&#45;&gt;Node16</title>
<g id="a_edge18_Node000007_Node000016"><a xlink:title=" ">
<path fill="none" stroke="#63b8ff" d="M657.51,-325.58C655.39,-315.06 652.98,-303.08 651.16,-294.04"/>
<polygon fill="#63b8ff" stroke="#63b8ff" points="654.09,-326.32 659.5,-335.44 660.95,-324.94 654.09,-326.32"/>
</a>
</g>
</g>
<!-- Node17 -->
<g id="Node000017" class="node">
<title>Node17</title>
<g id="a_Node000017"><a xlink:href="_post_method_8hpp.html" target="_top" xlink:title=" ">
<polygon fill="white" stroke="#666666" points="210.83,-294 67.83,-294 67.83,-264 210.83,-264 210.83,-294"/>
<text text-anchor="start" x="75.83" y="-282" font-family="Helvetica,sans-Serif" font-size="10.00">include/Thoth/Http</text>
<text text-anchor="middle" x="139.33" y="-271" font-family="Helvetica,sans-Serif" font-size="10.00">/Methods/PostMethod.hpp</text>
</a>
</g>
</g>
<!-- Node7&#45;&gt;Node17 -->
<g id="edge19_Node000007_Node000017" class="edge">
<title>Node7&#45;&gt;Node17</title>
<g id="a_edge19_Node000007_Node000017"><a xlink:title=" ">
<path fill="none" stroke="#63b8ff" d="M554.97,-337.43C465.35,-327.01 334.31,-311 220.33,-294 217.22,-293.54 214.05,-293.05 210.85,-292.55"/>
<polygon fill="#63b8ff" stroke="#63b8ff" points="554.81,-340.93 565.15,-338.61 555.62,-333.98 554.81,-340.93"/>
</a>
</g>
</g>
<!-- Node18 -->
<g id="Node000018" class="node">
<title>Node18</title>
<g id="a_Node000018"><a xlink:href="_put_method_8hpp.html" target="_top" xlink:title=" ">
<polygon fill="white" stroke="#666666" points="879.33,-294 741.33,-294 741.33,-264 879.33,-264 879.33,-294"/>
<text text-anchor="start" x="749.33" y="-282" font-family="Helvetica,sans-Serif" font-size="10.00">include/Thoth/Http</text>
<text text-anchor="middle" x="810.33" y="-271" font-family="Helvetica,sans-Serif" font-size="10.00">/Methods/PutMethod.hpp</text>
</a>
</g>
</g>
<!-- Node7&#45;&gt;Node18 -->
<g id="edge22_Node000007_Node000018" class="edge">
<title>Node7&#45;&gt;Node18</title>
<g id="a_edge22_Node000007_Node000018"><a xlink:title=" ">
<path fill="none" stroke="#63b8ff" d="M701.4,-331.15C726.15,-319.53 757.67,-304.73 780.42,-294.04"/>
<polygon fill="#63b8ff" stroke="#63b8ff" points="699.84,-328.02 692.28,-335.44 702.82,-334.35 699.84,-328.02"/>
</a>
</g>
</g>
<!-- Node19 -->
<g id="Node000019" class="node">
<title>Node19</title>
<g id="a_Node000019"><a xlink:href="_trace_method_8hpp.html" target="_top" xlink:title=" ">
<polygon fill="white" stroke="#666666" points="1045.33,-294 897.33,-294 897.33,-264 1045.33,-264 1045.33,-294"/>
<text text-anchor="start" x="905.33" y="-282" font-family="Helvetica,sans-Serif" font-size="10.00">include/Thoth/Http</text>
<text text-anchor="middle" x="971.33" y="-271" font-family="Helvetica,sans-Serif" font-size="10.00">/Methods/TraceMethod.hpp</text>
</a>
</g>
</g>
<!-- Node7&#45;&gt;Node19 -->
<g id="edge23_Node000007_Node000019" class="edge">
<title>Node7&#45;&gt;Node19</title>
<g id="a_edge23_Node000007_Node000019"><a xlink:title=" ">
<path fill="none" stroke="#63b8ff" d="M734.84,-333.19C787.69,-321.3 858.55,-305.37 908.89,-294.04"/>
<polygon fill="#63b8ff" stroke="#63b8ff" points="733.85,-329.83 724.86,-335.44 735.38,-336.66 733.85,-329.83"/>
</a>
</g>
</g>
<!-- Node10&#45;&gt;Node11 -->
<g id="edge10_Node000010_Node000011" class="edge">
<title>Node10&#45;&gt;Node11</title>
<g id="a_edge10_Node000010_Node000011"><a xlink:title=" ">
<path fill="none" stroke="#63b8ff" d="M1115.99,-255.81C1108.83,-246.64 1100.73,-236.28 1094.39,-228.16"/>
<polygon fill="#63b8ff" stroke="#63b8ff" points="1113.32,-258.07 1122.23,-263.8 1118.83,-253.76 1113.32,-258.07"/>
</a>
</g>
</g>
<!-- Node13 -->
<g id="Node000013" class="node">
<title>Node13</title>
<g id="a_Node000013"><a xlink:href="_response_8hpp.html" target="_top" xlink:title=" ">
<polygon fill="white" stroke="#666666" points="650.33,-96 512.33,-96 512.33,-66 650.33,-66 650.33,-96"/>
<text text-anchor="start" x="520.33" y="-84" font-family="Helvetica,sans-Serif" font-size="10.00">include/Thoth/Http</text>
<text text-anchor="middle" x="581.33" y="-73" font-family="Helvetica,sans-Serif" font-size="10.00">/Response/Response.hpp</text>
</a>
</g>
</g>
<!-- Node10&#45;&gt;Node13 -->
<g id="edge15_Node000010_Node000013" class="edge">
<title>Node10&#45;&gt;Node13</title>
<g id="a_edge15_Node000010_Node000013"><a xlink:title=" ">
<path fill="none" stroke="#63b8ff" d="M1083.94,-260.46C975.76,-222.05 719.69,-131.13 621.04,-96.1"/>
<polygon fill="#63b8ff" stroke="#63b8ff" points="1083.04,-263.86 1093.63,-263.9 1085.38,-257.26 1083.04,-263.86"/>
</a>
</g>
</g>
<!-- Node11&#45;&gt;Node4 -->
<g id="edge11_Node000011_Node000004" class="edge">
<title>Node11&#45;&gt;Node4</title>
<g id="a_edge11_Node000011_Node000004"><a xlink:title=" ">
<path fill="none" stroke="#63b8ff" d="M1037.82,-194.23C939.1,-155.69 706.98,-65.06 617.44,-30.1"/>
<polygon fill="#63b8ff" stroke="#63b8ff" points="1036.64,-197.53 1047.23,-197.9 1039.18,-191.01 1036.64,-197.53"/>
</a>
</g>
</g>
<!-- Node12 -->
<g id="Node000012" class="node">
<title>Node12</title>
<g id="a_Node000012"><a xlink:href="_response_head_8hpp.html" target="_top" xlink:title=" ">
<polygon fill="white" stroke="#666666" points="1165.33,-162 1001.33,-162 1001.33,-132 1165.33,-132 1165.33,-162"/>
<text text-anchor="start" x="1009.33" y="-150" font-family="Helvetica,sans-Serif" font-size="10.00">include/Thoth/Http</text>
<text text-anchor="middle" x="1083.33" y="-139" font-family="Helvetica,sans-Serif" font-size="10.00">/Response/ResponseHead.hpp</text>
</a>
</g>
</g>
<!-- Node11&#45;&gt;Node12 -->
<g id="edge12_Node000011_Node000012" class="edge">
<title>Node11&#45;&gt;Node12</title>
<g id="a_edge12_Node000011_Node000012"><a xlink:title=" ">
<path fill="none" stroke="#63b8ff" d="M1083.33,-187.54C1083.33,-178.96 1083.33,-169.61 1083.33,-162.16"/>
<polygon fill="#63b8ff" stroke="#63b8ff" points="1079.83,-187.8 1083.33,-197.8 1086.83,-187.8 1079.83,-187.8"/>
</a>
</g>
</g>
<!-- Node12&#45;&gt;Node13 -->
<g id="edge13_Node000012_Node000013" class="edge">
<title>Node12&#45;&gt;Node13</title>
<g id="a_edge13_Node000012_Node000013"><a xlink:title=" ">
<path fill="none" stroke="#63b8ff" d="M991.34,-134.27C892.92,-121.72 739.04,-102.11 650.45,-90.81"/>
<polygon fill="#63b8ff" stroke="#63b8ff" points="990.91,-137.75 1001.28,-135.54 991.8,-130.8 990.91,-137.75"/>
</a>
</g>
</g>
<!-- Node13&#45;&gt;Node4 -->
<g id="edge14_Node000013_Node000004" class="edge">
<title>Node13&#45;&gt;Node4</title>
<g id="a_edge14_Node000013_Node000004"><a xlink:title=" ">
<path fill="none" stroke="#63b8ff" d="M581.33,-55.54C581.33,-46.96 581.33,-37.61 581.33,-30.16"/>
<polygon fill="#63b8ff" stroke="#63b8ff" points="577.83,-55.8 581.33,-65.8 584.83,-55.8 577.83,-55.8"/>
</a>
</g>
</g>
<!-- Node17&#45;&gt;Node11 -->
<g id="edge20_Node000017_Node000011" class="edge">
<title>Node17&#45;&gt;Node11</title>
<g id="a_edge20_Node000017_Node000011"><a xlink:title=" ">
<path fill="none" stroke="#63b8ff" d="M221.21,-264C527.17,-229.36 881.29,-218.37 1021.65,-215.18"/>
<polygon fill="#63b8ff" stroke="#63b8ff" points="220.79,-260.52 211.26,-265.13 221.59,-267.47 220.79,-260.52"/>
</a>
</g>
</g>
<!-- Node17&#45;&gt;Node13 -->
<g id="edge21_Node000017_Node000013" class="edge">
<title>Node17&#45;&gt;Node13</title>
<g id="a_edge21_Node000017_Node000013"><a xlink:title=" ">
<path fill="none" stroke="#63b8ff" d="M180.46,-259.76C267.97,-220.96 471.01,-130.92 549.53,-96.1"/>
<polygon fill="#63b8ff" stroke="#63b8ff" points="178.84,-256.65 171.12,-263.9 181.68,-263.05 178.84,-256.65"/>
</a>
</g>
</g>
<!-- Node20&#45;&gt;Node7 -->
<g id="edge25_Node000020_Node000007" class="edge">
<title>Node20&#45;&gt;Node7</title>
<g id="a_edge25_Node000020_Node000007"><a xlink:title=" ">
<path fill="none" stroke="#63b8ff" d="M970.14,-407.38C914.27,-397.37 836.57,-383.41 768.33,-371 758.66,-369.24 748.5,-367.38 738.46,-365.54"/>
<polygon fill="#63b8ff" stroke="#63b8ff" points="969.86,-410.89 980.32,-409.2 971.09,-404 969.86,-410.89"/>
</a>
</g>
</g>
<!-- Node20&#45;&gt;Node12 -->
<g id="edge30_Node000020_Node000012" class="edge">
<title>Node20&#45;&gt;Node12</title>
<g id="a_edge30_Node000020_Node000012"><a xlink:title=" ">
<path fill="none" stroke="#63b8ff" d="M1122.47,-419.22C1259.7,-415.21 1537.08,-403.19 1566.33,-371 1598.31,-335.8 1595.77,-301.35 1566.33,-264 1517.31,-201.82 1290.11,-169.16 1165.56,-155.66"/>
<polygon fill="#63b8ff" stroke="#63b8ff" points="1122.33,-415.72 1112.43,-419.5 1122.53,-422.72 1122.33,-415.72"/>
</a>
</g>
</g>
<!-- Node21 -->
<g id="Node000021" class="node">
<title>Node21</title>
<g id="a_Node000021"><a xlink:href="_list_proxy_8hpp.html" target="_top" xlink:title=" ">
<polygon fill="white" stroke="#666666" points="1129.33,-365.5 963.33,-365.5 963.33,-335.5 1129.33,-335.5 1129.33,-365.5"/>
<text text-anchor="start" x="971.33" y="-353.5" font-family="Helvetica,sans-Serif" font-size="10.00">include/Thoth/Http</text>
<text text-anchor="middle" x="1046.33" y="-342.5" font-family="Helvetica,sans-Serif" font-size="10.00">/NHeaders/Proxy/ListProxy.hpp</text>
</a>
</g>
</g>
<!-- Node20&#45;&gt;Node21 -->
<g id="edge26_Node000020_Node000021" class="edge">
<title>Node20&#45;&gt;Node21</title>
<g id="a_edge26_Node000020_Node000021"><a xlink:title=" ">
<path fill="none" stroke="#63b8ff" d="M1046.33,-396.75C1046.33,-386.31 1046.33,-374.49 1046.33,-365.54"/>
<polygon fill="#63b8ff" stroke="#63b8ff" points="1042.83,-396.94 1046.33,-406.94 1049.83,-396.94 1042.83,-396.94"/>
</a>
</g>
</g>
<!-- Node22 -->
<g id="Node000022" class="node">
<title>Node22</title>
<g id="a_Node000022"><a xlink:href="_value_proxy_8hpp.html" target="_top" xlink:title=" ">
<polygon fill="white" stroke="#666666" points="1323.33,-365.5 1147.33,-365.5 1147.33,-335.5 1323.33,-335.5 1323.33,-365.5"/>
<text text-anchor="start" x="1155.33" y="-353.5" font-family="Helvetica,sans-Serif" font-size="10.00">include/Thoth/Http</text>
<text text-anchor="middle" x="1235.33" y="-342.5" font-family="Helvetica,sans-Serif" font-size="10.00">/NHeaders/Proxy/ValueProxy.hpp</text>
</a>
</g>
</g>
<!-- Node20&#45;&gt;Node22 -->
<g id="edge27_Node000020_Node000022" class="edge">
<title>Node20&#45;&gt;Node22</title>
<g id="a_edge27_Node000020_Node000022"><a xlink:title=" ">
<path fill="none" stroke="#63b8ff" d="M1094.15,-403.42C1126.05,-391.68 1167.44,-376.47 1197.14,-365.54"/>
<polygon fill="#63b8ff" stroke="#63b8ff" points="1092.75,-400.2 1084.58,-406.94 1095.17,-406.77 1092.75,-400.2"/>
</a>
</g>
</g>
<!-- Node23 -->
<g id="Node000023" class="node">
<title>Node23</title>
<g id="a_Node000023"><a xlink:href="_request_headers_8hpp.html" target="_top" xlink:title=" ">
<polygon fill="white" stroke="#666666" points="1556.83,-365.5 1341.83,-365.5 1341.83,-335.5 1556.83,-335.5 1556.83,-365.5"/>
<text text-anchor="start" x="1349.83" y="-353.5" font-family="Helvetica,sans-Serif" font-size="10.00">include/Thoth/Http</text>
<text text-anchor="middle" x="1449.33" y="-342.5" font-family="Helvetica,sans-Serif" font-size="10.00">/NHeaders/Request/RequestHeaders.hpp</text>
</a>
</g>
</g>
<!-- Node20&#45;&gt;Node23 -->
<g id="edge28_Node000020_Node000023" class="edge">
<title>Node20&#45;&gt;Node23</title>
<g id="a_edge28_Node000020_Node000023"><a xlink:title=" ">
<path fill="none" stroke="#63b8ff" d="M1122.51,-407.86C1192.59,-395.78 1296.19,-377.91 1367.88,-365.55"/>
<polygon fill="#63b8ff" stroke="#63b8ff" points="1121.68,-404.45 1112.42,-409.6 1122.87,-411.35 1121.68,-404.45"/>
</a>
</g>
</g>
<!-- Node24 -->
<g id="Node000024" class="node">
<title>Node24</title>
<g id="a_Node000024"><a xlink:href="_response_headers_8hpp.html" target="_top" xlink:title=" ">
<polygon fill="white" stroke="#666666" points="945.33,-371 777.33,-371 777.33,-330 945.33,-330 945.33,-371"/>
<text text-anchor="start" x="785.33" y="-359" font-family="Helvetica,sans-Serif" font-size="10.00">include/Thoth/Http</text>
<text text-anchor="start" x="785.33" y="-348" font-family="Helvetica,sans-Serif" font-size="10.00">/NHeaders/Response/Response</text>
<text text-anchor="middle" x="861.33" y="-337" font-family="Helvetica,sans-Serif" font-size="10.00">Headers.hpp</text>
</a>
</g>
</g>
<!-- Node20&#45;&gt;Node24 -->
<g id="edge29_Node000020_Node000024" class="edge">
<title>Node20&#45;&gt;Node24</title>
<g id="a_edge29_Node000020_Node000024"><a xlink:title=" ">
<path fill="none" stroke="#63b8ff" d="M999.2,-403.29C973.01,-393.46 940.37,-381.2 913.43,-371.07"/>
<polygon fill="#63b8ff" stroke="#63b8ff" points="998.3,-406.7 1008.89,-406.94 1000.76,-400.14 998.3,-406.7"/>
</a>
</g>
</g>
<!-- Node25&#45;&gt;Node13 -->
<g id="edge33_Node000025_Node000013" class="edge">
<title>Node25&#45;&gt;Node13</title>
<g id="a_edge33_Node000025_Node000013"><a xlink:title=" ">
<path fill="none" stroke="#63b8ff" d="M205.92,-535.24C143.26,-509.79 39.33,-461.73 39.33,-423 39.33,-423 39.33,-423 39.33,-212 39.33,-115.84 366.02,-90.63 512.13,-84.17"/>
<polygon fill="#63b8ff" stroke="#63b8ff" points="204.64,-538.5 215.23,-538.98 207.25,-532 204.64,-538.5"/>
</a>
</g>
</g>
</g>
</svg>
