<?xml version="1.0" encoding="UTF-8" standalone="no"?>
<!DOCTYPE svg PUBLIC "-//W3C//DTD SVG 1.1//EN"
 "http://www.w3.org/Graphics/SVG/1.1/DTD/svg11.dtd">
<!-- Generated by graphviz version 2.43.0 (0)
 -->
<!-- Title: include/Thoth/String/Utils.hpp Pages: 1 -->
<svg width="2140pt" height="577pt"
 viewBox="0.00 0.00 2140.00 577.00" xmlns="http://www.w3.org/2000/svg" xmlns:xlink="http://www.w3.org/1999/xlink">
<g id="graph0" class="graph" transform="scale(1 1) rotate(0) translate(4 573)">
<title>include/Thoth/String/Utils.hpp</title>
<!-- Node1 -->
<g id="Node000001" class="node">
<title>Node1</title>
<g id="a_Node000001"><a xlink:title=" ">
<polygon fill="#999999" stroke="#666666" points="615,-569 501,-569 501,-539 615,-539 615,-569"/>
<text text-anchor="start" x="509" y="-557" font-family="Helvetica,sans-Serif" font-size="10.00">include/Thoth/String</text>
<text text-anchor="middle" x="558" y="-546" font-family="Helvetica,sans-Serif" font-size="10.00">/Utils.hpp</text>
</a>
</g>
</g>
<!-- Node2 -->
<g id="Node000002" class="node">
<title>Node2</title>
<g id="a_Node000002"><a xlink:href="_http_2_n_headers_2_proxy_2__base_8hpp.html" target="_top" xlink:title=" ">
<polygon fill="white" stroke="#666666" points="633.5,-503 482.5,-503 482.5,-473 633.5,-473 633.5,-503"/>
<text text-anchor="start" x="490.5" y="-491" font-family="Helvetica,sans-Serif" font-size="10.00">include/Thoth/Http</text>
<text text-anchor="middle" x="558" y="-480" font-family="Helvetica,sans-Serif" font-size="10.00">/NHeaders/Proxy/_base.hpp</text>
</a>
</g>
</g>
<!-- Node1&#45;&gt;Node2 -->
<g id="edge1_Node000001_Node000002" class="edge">
<title>Node1&#45;&gt;Node2</title>
<g id="a_edge1_Node000001_Node000002"><a xlink:title=" ">
<path fill="none" stroke="#63b8ff" d="M558,-528.54C558,-519.96 558,-510.61 558,-503.16"/>
<polygon fill="#63b8ff" stroke="#63b8ff" points="554.5,-528.8 558,-538.8 561.5,-528.8 554.5,-528.8"/>
</a>
</g>
</g>
<!-- Node3 -->
<g id="Node000003" class="node">
<title>Node3</title>
<g id="a_Node000003"><a xlink:href="_headers_8hpp.html" target="_top" xlink:title=" ">
<polygon fill="white" stroke="#666666" points="624,-437 492,-437 492,-407 624,-407 624,-437"/>
<text text-anchor="start" x="500" y="-425" font-family="Helvetica,sans-Serif" font-size="10.00">include/Thoth/Http</text>
<text text-anchor="middle" x="558" y="-414" font-family="Helvetica,sans-Serif" font-size="10.00">/NHeaders/Headers.hpp</text>
</a>
</g>
</g>
<!-- Node2&#45;&gt;Node3 -->
<g id="edge2_Node000002_Node000003" class="edge">
<title>Node2&#45;&gt;Node3</title>
<g id="a_edge2_Node000002_Node000003"><a xlink:title=" ">
<path fill="none" stroke="#63b8ff" d="M558,-462.54C558,-453.96 558,-444.61 558,-437.16"/>
<polygon fill="#63b8ff" stroke="#63b8ff" points="554.5,-462.8 558,-472.8 561.5,-462.8 554.5,-462.8"/>
</a>
</g>
</g>
<!-- Node18 -->
<g id="Node000018" class="node">
<title>Node18</title>
<g id="a_Node000018"><a xlink:href="_list_proxy_8hpp.html" target="_top" xlink:title=" ">
<polygon fill="white" stroke="#666666" points="166,-365.5 0,-365.5 0,-335.5 166,-335.5 166,-365.5"/>
<text text-anchor="start" x="8" y="-353.5" font-family="Helvetica,sans-Serif" font-size="10.00">include/Thoth/Http</text>
<text text-anchor="middle" x="83" y="-342.5" font-family="Helvetica,sans-Serif" font-size="10.00">/NHeaders/Proxy/ListProxy.hpp</text>
</a>
</g>
</g>
<!-- Node2&#45;&gt;Node18 -->
<g id="edge26_Node000002_Node000018" class="edge">
<title>Node2&#45;&gt;Node18</title>
<g id="a_edge26_Node000002_Node000018"><a xlink:title=" ">
<path fill="none" stroke="#63b8ff" d="M498.8,-470.11C404.14,-443.11 220.42,-390.7 132.38,-365.59"/>
<polygon fill="#63b8ff" stroke="#63b8ff" points="497.93,-473.51 508.51,-472.88 499.85,-466.77 497.93,-473.51"/>
</a>
</g>
</g>
<!-- Node19 -->
<g id="Node000019" class="node">
<title>Node19</title>
<g id="a_Node000019"><a xlink:href="_value_proxy_8hpp.html" target="_top" xlink:title=" ">
<polygon fill="white" stroke="#666666" points="1428,-365.5 1252,-365.5 1252,-335.5 1428,-335.5 1428,-365.5"/>
<text text-anchor="start" x="1260" y="-353.5" font-family="Helvetica,sans-Serif" font-size="10.00">include/Thoth/Http</text>
<text text-anchor="middle" x="1340" y="-342.5" font-family="Helvetica,sans-Serif" font-size="10.00">/NHeaders/Proxy/ValueProxy.hpp</text>
</a>
</g>
</g>
<!-- Node2&#45;&gt;Node19 -->
<g id="edge27_Node000002_Node000019" class="edge">
<title>Node2&#45;&gt;Node19</title>
<g id="a_edge27_Node000002_Node000019"><a xlink:title=" ">
<path fill="none" stroke="#63b8ff" d="M643.54,-473.38C773.33,-452.51 1027.71,-410.86 1243,-371 1252.29,-369.28 1262.06,-367.4 1271.69,-365.51"/>
<polygon fill="#63b8ff" stroke="#63b8ff" points="642.97,-469.93 633.65,-474.97 644.08,-476.84 642.97,-469.93"/>
</a>
</g>
</g>
<!-- Node4 -->
<g id="Node000004" class="node">
<title>Node4</title>
<g id="a_Node000004"><a xlink:href="_method_concept_8hpp.html" target="_top" xlink:title=" ">
<polygon fill="white" stroke="#666666" points="1234,-365.5 1040,-365.5 1040,-335.5 1234,-335.5 1234,-365.5"/>
<text text-anchor="start" x="1048" y="-353.5" font-family="Helvetica,sans-Serif" font-size="10.00">include/Thoth/Http</text>
<text text-anchor="middle" x="1137" y="-342.5" font-family="Helvetica,sans-Serif" font-size="10.00">/Methods/_base/MethodConcept.hpp</text>
</a>
</g>
</g>
<!-- Node3&#45;&gt;Node4 -->
<g id="edge3_Node000003_Node000004" class="edge">
<title>Node3&#45;&gt;Node4</title>
<g id="a_edge3_Node000003_Node000004"><a xlink:title=" ">
<path fill="none" stroke="#63b8ff" d="M634.27,-411.84C738.52,-399.33 925.58,-376.88 1039.78,-363.17"/>
<polygon fill="#63b8ff" stroke="#63b8ff" points="633.65,-408.39 624.14,-413.06 634.48,-415.34 633.65,-408.39"/>
</a>
</g>
</g>
<!-- Node10 -->
<g id="Node000010" class="node">
<title>Node10</title>
<g id="a_Node000010"><a xlink:href="_response_head_8hpp.html" target="_top" xlink:title=" ">
<polygon fill="white" stroke="#666666" points="696,-162 532,-162 532,-132 696,-132 696,-162"/>
<text text-anchor="start" x="540" y="-150" font-family="Helvetica,sans-Serif" font-size="10.00">include/Thoth/Http</text>
<text text-anchor="middle" x="614" y="-139" font-family="Helvetica,sans-Serif" font-size="10.00">/Response/ResponseHead.hpp</text>
</a>
</g>
</g>
<!-- Node3&#45;&gt;Node10 -->
<g id="edge25_Node000003_Node000010" class="edge">
<title>Node3&#45;&gt;Node10</title>
<g id="a_edge25_Node000003_Node000010"><a xlink:title=" ">
<path fill="none" stroke="#63b8ff" d="M578.33,-399.05C584.78,-390.83 591.21,-381.05 595,-371 623.14,-296.48 618.39,-198.31 615.39,-162.15"/>
<polygon fill="#63b8ff" stroke="#63b8ff" points="575.43,-397.06 571.72,-406.98 580.81,-401.54 575.43,-397.06"/>
</a>
</g>
</g>
<!-- Node3&#45;&gt;Node18 -->
<g id="edge21_Node000003_Node000018" class="edge">
<title>Node3&#45;&gt;Node18</title>
<g id="a_edge21_Node000003_Node000018"><a xlink:title=" ">
<path fill="none" stroke="#63b8ff" d="M481.52,-412.82C404.02,-404.1 280.8,-389.09 175,-371 165.67,-369.4 155.84,-367.53 146.22,-365.59"/>
<polygon fill="#63b8ff" stroke="#63b8ff" points="481.35,-416.32 491.68,-413.95 482.13,-409.36 481.35,-416.32"/>
</a>
</g>
</g>
<!-- Node3&#45;&gt;Node19 -->
<g id="edge22_Node000003_Node000019" class="edge">
<title>Node3&#45;&gt;Node19</title>
<g id="a_edge22_Node000003_Node000019"><a xlink:title=" ">
<path fill="none" stroke="#63b8ff" d="M634.42,-418.55C761.32,-413.79 1023.29,-400.98 1243,-371 1253.72,-369.54 1265.04,-367.61 1276.01,-365.54"/>
<polygon fill="#63b8ff" stroke="#63b8ff" points="634.28,-415.06 624.41,-418.92 634.54,-422.05 634.28,-415.06"/>
</a>
</g>
</g>
<!-- Node20 -->
<g id="Node000020" class="node">
<title>Node20</title>
<g id="a_Node000020"><a xlink:href="_request_headers_8hpp.html" target="_top" xlink:title=" ">
<polygon fill="white" stroke="#666666" points="399.5,-365.5 184.5,-365.5 184.5,-335.5 399.5,-335.5 399.5,-365.5"/>
<text text-anchor="start" x="192.5" y="-353.5" font-family="Helvetica,sans-Serif" font-size="10.00">include/Thoth/Http</text>
<text text-anchor="middle" x="292" y="-342.5" font-family="Helvetica,sans-Serif" font-size="10.00">/NHeaders/Request/RequestHeaders.hpp</text>
</a>
</g>
</g>
<!-- Node3&#45;&gt;Node20 -->
<g id="edge23_Node000003_Node000020" class="edge">
<title>Node3&#45;&gt;Node20</title>
<g id="a_edge23_Node000003_Node000020"><a xlink:title=" ">
<path fill="none" stroke="#63b8ff" d="M494.44,-404.39C449.07,-392.54 388.72,-376.77 345.75,-365.54"/>
<polygon fill="#63b8ff" stroke="#63b8ff" points="493.61,-407.79 504.17,-406.94 495.38,-401.02 493.61,-407.79"/>
</a>
</g>
</g>
<!-- Node21 -->
<g id="Node000021" class="node">
<title>Node21</title>
<g id="a_Node000021"><a xlink:href="_response_headers_8hpp.html" target="_top" xlink:title=" ">
<polygon fill="white" stroke="#666666" points="586,-371 418,-371 418,-330 586,-330 586,-371"/>
<text text-anchor="start" x="426" y="-359" font-family="Helvetica,sans-Serif" font-size="10.00">include/Thoth/Http</text>
<text text-anchor="start" x="426" y="-348" font-family="Helvetica,sans-Serif" font-size="10.00">/NHeaders/Response/Response</text>
<text text-anchor="middle" x="502" y="-337" font-family="Helvetica,sans-Serif" font-size="10.00">Headers.hpp</text>
</a>
</g>
</g>
<!-- Node3&#45;&gt;Node21 -->
<g id="edge24_Node000003_Node000021" class="edge">
<title>Node3&#45;&gt;Node21</title>
<g id="a_edge24_Node000003_Node000021"><a xlink:title=" ">
<path fill="none" stroke="#63b8ff" d="M540.39,-399.14C533.14,-390.15 524.81,-379.81 517.77,-371.07"/>
<polygon fill="#63b8ff" stroke="#63b8ff" points="537.67,-401.34 546.67,-406.94 543.12,-396.95 537.67,-401.34"/>
</a>
</g>
</g>
<!-- Node5 -->
<g id="Node000005" class="node">
<title>Node5</title>
<g id="a_Node000005"><a xlink:href="_connect_method_8hpp.html" target="_top" xlink:title=" ">
<polygon fill="white" stroke="#666666" points="1800,-294 1638,-294 1638,-264 1800,-264 1800,-294"/>
<text text-anchor="start" x="1646" y="-282" font-family="Helvetica,sans-Serif" font-size="10.00">include/Thoth/Http</text>
<text text-anchor="middle" x="1719" y="-271" font-family="Helvetica,sans-Serif" font-size="10.00">/Methods/ConnectMethod.hpp</text>
</a>
</g>
</g>
<!-- Node4&#45;&gt;Node5 -->
<g id="edge4_Node000004_Node000005" class="edge">
<title>Node4&#45;&gt;Node5</title>
<g id="a_edge4_Node000004_Node000005"><a xlink:title=" ">
<path fill="none" stroke="#63b8ff" d="M1218.47,-333.76C1226.74,-332.39 1235.03,-331.1 1243,-330 1413.67,-306.39 1458.02,-315.25 1629,-294 1631.82,-293.65 1634.7,-293.28 1637.6,-292.89"/>
<polygon fill="#63b8ff" stroke="#63b8ff" points="1217.69,-330.34 1208.42,-335.47 1218.86,-337.24 1217.69,-330.34"/>
</a>
</g>
</g>
<!-- Node6 -->
<g id="Node000006" class="node">
<title>Node6</title>
<g id="a_Node000006"><a xlink:href="_delete_method_8hpp.html" target="_top" xlink:title=" ">
<polygon fill="white" stroke="#666666" points="1973.5,-294 1818.5,-294 1818.5,-264 1973.5,-264 1973.5,-294"/>
<text text-anchor="start" x="1826.5" y="-282" font-family="Helvetica,sans-Serif" font-size="10.00">include/Thoth/Http</text>
<text text-anchor="middle" x="1896" y="-271" font-family="Helvetica,sans-Serif" font-size="10.00">/Methods/DeleteMethod.hpp</text>
</a>
</g>
</g>
<!-- Node4&#45;&gt;Node6 -->
<g id="edge5_Node000004_Node000006" class="edge">
<title>Node4&#45;&gt;Node6</title>
<g id="a_edge5_Node000004_Node000006"><a xlink:title=" ">
<path fill="none" stroke="#63b8ff" d="M1216.64,-333.8C1225.51,-332.37 1234.43,-331.06 1243,-330 1493.17,-299.14 1558.5,-322.06 1809,-294 1812.04,-293.66 1815.14,-293.29 1818.26,-292.89"/>
<polygon fill="#63b8ff" stroke="#63b8ff" points="1215.95,-330.37 1206.67,-335.47 1217.11,-337.27 1215.95,-330.37"/>
</a>
</g>
</g>
<!-- Node7 -->
<g id="Node000007" class="node">
<title>Node7</title>
<g id="a_Node000007"><a xlink:href="_get_method_8hpp.html" target="_top" xlink:title=" ">
<polygon fill="white" stroke="#666666" points="2132,-294 1992,-294 1992,-264 2132,-264 2132,-294"/>
<text text-anchor="start" x="2000" y="-282" font-family="Helvetica,sans-Serif" font-size="10.00">include/Thoth/Http</text>
<text text-anchor="middle" x="2062" y="-271" font-family="Helvetica,sans-Serif" font-size="10.00">/Methods/GetMethod.hpp</text>
</a>
</g>
</g>
<!-- Node4&#45;&gt;Node7 -->
<g id="edge6_Node000004_Node000007" class="edge">
<title>Node4&#45;&gt;Node7</title>
<g id="a_edge6_Node000004_Node000007"><a xlink:title=" ">
<path fill="none" stroke="#63b8ff" d="M1215.7,-333.82C1224.88,-332.35 1234.13,-331.03 1243,-330 1570.09,-292.13 1655.79,-330.8 1983,-294 1985.91,-293.67 1988.87,-293.31 1991.86,-292.91"/>
<polygon fill="#63b8ff" stroke="#63b8ff" points="1215.08,-330.38 1205.79,-335.47 1216.23,-337.28 1215.08,-330.38"/>
</a>
</g>
</g>
<!-- Node12 -->
<g id="Node000012" class="node">
<title>Node12</title>
<g id="a_Node000012"><a xlink:href="_head_method_8hpp.html" target="_top" xlink:title=" ">
<polygon fill="white" stroke="#666666" points="952,-294 804,-294 804,-264 952,-264 952,-294"/>
<text text-anchor="start" x="812" y="-282" font-family="Helvetica,sans-Serif" font-size="10.00">include/Thoth/Http</text>
<text text-anchor="middle" x="878" y="-271" font-family="Helvetica,sans-Serif" font-size="10.00">/Methods/HeadMethod.hpp</text>
</a>
</g>
</g>
<!-- Node4&#45;&gt;Node12 -->
<g id="edge13_Node000004_Node000012" class="edge">
<title>Node4&#45;&gt;Node12</title>
<g id="a_edge13_Node000004_Node000012"><a xlink:title=" ">
<path fill="none" stroke="#63b8ff" d="M1074.83,-332.82C1030.69,-320.97 972.09,-305.25 930.33,-294.04"/>
<polygon fill="#63b8ff" stroke="#63b8ff" points="1074.02,-336.22 1084.59,-335.44 1075.84,-329.46 1074.02,-336.22"/>
</a>
</g>
</g>
<!-- Node13 -->
<g id="Node000013" class="node">
<title>Node13</title>
<g id="a_Node000013"><a xlink:href="_options_method_8hpp.html" target="_top" xlink:title=" ">
<polygon fill="white" stroke="#666666" points="1130,-294 970,-294 970,-264 1130,-264 1130,-294"/>
<text text-anchor="start" x="978" y="-282" font-family="Helvetica,sans-Serif" font-size="10.00">include/Thoth/Http</text>
<text text-anchor="middle" x="1050" y="-271" font-family="Helvetica,sans-Serif" font-size="10.00">/Methods/OptionsMethod.hpp</text>
</a>
</g>
</g>
<!-- Node4&#45;&gt;Node13 -->
<g id="edge14_Node000004_Node000013" class="edge">
<title>Node4&#45;&gt;Node13</title>
<g id="a_edge14_Node000004_Node000013"><a xlink:title=" ">
<path fill="none" stroke="#63b8ff" d="M1111.49,-329.13C1097.38,-317.85 1080.19,-304.12 1067.58,-294.04"/>
<polygon fill="#63b8ff" stroke="#63b8ff" points="1109.4,-331.93 1119.39,-335.44 1113.77,-326.46 1109.4,-331.93"/>
</a>
</g>
</g>
<!-- Node14 -->
<g id="Node000014" class="node">
<title>Node14</title>
<g id="a_Node000014"><a xlink:href="_patch_method_8hpp.html" target="_top" xlink:title=" ">
<polygon fill="white" stroke="#666666" points="1297.5,-294 1148.5,-294 1148.5,-264 1297.5,-264 1297.5,-294"/>
<text text-anchor="start" x="1156.5" y="-282" font-family="Helvetica,sans-Serif" font-size="10.00">include/Thoth/Http</text>
<text text-anchor="middle" x="1223" y="-271" font-family="Helvetica,sans-Serif" font-size="10.00">/Methods/PatchMethod.hpp</text>
</a>
</g>
</g>
<!-- Node4&#45;&gt;Node14 -->
<g id="edge15_Node000004_Node000014" class="edge">
<title>Node4&#45;&gt;Node14</title>
<g id="a_edge15_Node000004_Node000014"><a xlink:title=" ">
<path fill="none" stroke="#63b8ff" d="M1162.21,-329.13C1176.17,-317.85 1193.16,-304.12 1205.62,-294.04"/>
<polygon fill="#63b8ff" stroke="#63b8ff" points="1159.98,-326.43 1154.4,-335.44 1164.38,-331.87 1159.98,-326.43"/>
</a>
</g>
</g>
<!-- Node15 -->
<g id="Node000015" class="node">
<title>Node15</title>
<g id="a_Node000015"><a xlink:href="_post_method_8hpp.html" target="_top" xlink:title=" ">
<polygon fill="white" stroke="#666666" points="785.5,-294 642.5,-294 642.5,-264 785.5,-264 785.5,-294"/>
<text text-anchor="start" x="650.5" y="-282" font-family="Helvetica,sans-Serif" font-size="10.00">include/Thoth/Http</text>
<text text-anchor="middle" x="714" y="-271" font-family="Helvetica,sans-Serif" font-size="10.00">/Methods/PostMethod.hpp</text>
</a>
</g>
</g>
<!-- Node4&#45;&gt;Node15 -->
<g id="edge16_Node000004_Node000015" class="edge">
<title>Node4&#45;&gt;Node15</title>
<g id="a_edge16_Node000004_Node000015"><a xlink:title=" ">
<path fill="none" stroke="#63b8ff" d="M1039.19,-333.9C970.77,-322.92 877.27,-307.79 795,-294 791.9,-293.48 788.74,-292.95 785.55,-292.41"/>
<polygon fill="#63b8ff" stroke="#63b8ff" points="1038.67,-337.36 1049.1,-335.49 1039.78,-330.45 1038.67,-337.36"/>
</a>
</g>
</g>
<!-- Node16 -->
<g id="Node000016" class="node">
<title>Node16</title>
<g id="a_Node000016"><a xlink:href="_put_method_8hpp.html" target="_top" xlink:title=" ">
<polygon fill="white" stroke="#666666" points="1454,-294 1316,-294 1316,-264 1454,-264 1454,-294"/>
<text text-anchor="start" x="1324" y="-282" font-family="Helvetica,sans-Serif" font-size="10.00">include/Thoth/Http</text>
<text text-anchor="middle" x="1385" y="-271" font-family="Helvetica,sans-Serif" font-size="10.00">/Methods/PutMethod.hpp</text>
</a>
</g>
</g>
<!-- Node4&#45;&gt;Node16 -->
<g id="edge19_Node000004_Node000016" class="edge">
<title>Node4&#45;&gt;Node16</title>
<g id="a_edge19_Node000004_Node000016"><a xlink:title=" ">
<path fill="none" stroke="#63b8ff" d="M1197.06,-332.67C1239.26,-320.84 1295.07,-305.2 1334.89,-294.04"/>
<polygon fill="#63b8ff" stroke="#63b8ff" points="1195.87,-329.37 1187.19,-335.44 1197.76,-336.11 1195.87,-329.37"/>
</a>
</g>
</g>
<!-- Node17 -->
<g id="Node000017" class="node">
<title>Node17</title>
<g id="a_Node000017"><a xlink:href="_trace_method_8hpp.html" target="_top" xlink:title=" ">
<polygon fill="white" stroke="#666666" points="1620,-294 1472,-294 1472,-264 1620,-264 1620,-294"/>
<text text-anchor="start" x="1480" y="-282" font-family="Helvetica,sans-Serif" font-size="10.00">include/Thoth/Http</text>
<text text-anchor="middle" x="1546" y="-271" font-family="Helvetica,sans-Serif" font-size="10.00">/Methods/TraceMethod.hpp</text>
</a>
</g>
</g>
<!-- Node4&#45;&gt;Node17 -->
<g id="edge20_Node000004_Node000017" class="edge">
<title>Node4&#45;&gt;Node17</title>
<g id="a_edge20_Node000004_Node000017"><a xlink:title=" ">
<path fill="none" stroke="#63b8ff" d="M1222.44,-333.63C1229.39,-332.39 1236.31,-331.16 1243,-330 1340.62,-313.04 1365.26,-310.24 1463,-294 1465.88,-293.52 1468.82,-293.03 1471.79,-292.54"/>
<polygon fill="#63b8ff" stroke="#63b8ff" points="1221.47,-330.25 1212.25,-335.47 1222.71,-337.14 1221.47,-330.25"/>
</a>
</g>
</g>
<!-- Node8 -->
<g id="Node000008" class="node">
<title>Node8</title>
<g id="a_Node000008"><a xlink:href="_request_8hpp.html" target="_top" xlink:title=" ">
<polygon fill="white" stroke="#666666" points="877.5,-228 754.5,-228 754.5,-198 877.5,-198 877.5,-228"/>
<text text-anchor="start" x="762.5" y="-216" font-family="Helvetica,sans-Serif" font-size="10.00">include/Thoth/Http</text>
<text text-anchor="middle" x="816" y="-205" font-family="Helvetica,sans-Serif" font-size="10.00">/Request/Request.hpp</text>
</a>
</g>
</g>
<!-- Node7&#45;&gt;Node8 -->
<g id="edge7_Node000007_Node000008" class="edge">
<title>Node7&#45;&gt;Node8</title>
<g id="a_edge7_Node000007_Node000008"><a xlink:title=" ">
<path fill="none" stroke="#63b8ff" d="M1981.63,-263.98C1745.87,-239.63 1083.47,-220.94 877.71,-215.56"/>
<polygon fill="#63b8ff" stroke="#63b8ff" points="1981.54,-267.49 1991.86,-265.07 1982.29,-260.53 1981.54,-267.49"/>
</a>
</g>
</g>
<!-- Node11 -->
<g id="Node000011" class="node">
<title>Node11</title>
<g id="a_Node000011"><a xlink:href="_response_8hpp.html" target="_top" xlink:title=" ">
<polygon fill="white" stroke="#666666" points="790,-96 652,-96 652,-66 790,-66 790,-96"/>
<text text-anchor="start" x="660" y="-84" font-family="Helvetica,sans-Serif" font-size="10.00">include/Thoth/Http</text>
<text text-anchor="middle" x="721" y="-73" font-family="Helvetica,sans-Serif" font-size="10.00">/Response/Response.hpp</text>
</a>
</g>
</g>
<!-- Node7&#45;&gt;Node11 -->
<g id="edge12_Node000007_Node000011" class="edge">
<title>Node7&#45;&gt;Node11</title>
<g id="a_edge12_Node000007_Node000011"><a xlink:title=" ">
<path fill="none" stroke="#63b8ff" d="M1981.62,-263.81C1520.93,-189.96 979.33,-116.45 790.2,-91.18"/>
<polygon fill="#63b8ff" stroke="#63b8ff" points="1981.38,-267.31 1991.81,-265.44 1982.49,-260.4 1981.38,-267.31"/>
</a>
</g>
</g>
<!-- Node9 -->
<g id="Node000009" class="node">
<title>Node9</title>
<g id="a_Node000009"><a xlink:href="_client_8hpp.html" target="_top" xlink:title=" ">
<polygon fill="white" stroke="#666666" points="822.5,-30 715.5,-30 715.5,0 822.5,0 822.5,-30"/>
<text text-anchor="start" x="723.5" y="-18" font-family="Helvetica,sans-Serif" font-size="10.00">include/Thoth/Http</text>
<text text-anchor="middle" x="769" y="-7" font-family="Helvetica,sans-Serif" font-size="10.00">/Client.hpp</text>
</a>
</g>
</g>
<!-- Node8&#45;&gt;Node9 -->
<g id="edge8_Node000008_Node000009" class="edge">
<title>Node8&#45;&gt;Node9</title>
<g id="a_edge8_Node000008_Node000009"><a xlink:title=" ">
<path fill="none" stroke="#63b8ff" d="M816.27,-187.67C815.9,-158.12 813,-107.13 799,-66 794.56,-52.97 786.37,-39.67 779.67,-30.07"/>
<polygon fill="#63b8ff" stroke="#63b8ff" points="812.77,-187.9 816.3,-197.88 819.77,-187.87 812.77,-187.9"/>
</a>
</g>
</g>
<!-- Node8&#45;&gt;Node10 -->
<g id="edge9_Node000008_Node000010" class="edge">
<title>Node8&#45;&gt;Node10</title>
<g id="a_edge9_Node000008_Node000010"><a xlink:title=" ">
<path fill="none" stroke="#63b8ff" d="M761.89,-194.86C729.45,-184.58 688.73,-171.68 658.23,-162.01"/>
<polygon fill="#63b8ff" stroke="#63b8ff" points="761.08,-198.27 771.67,-197.95 763.19,-191.6 761.08,-198.27"/>
</a>
</g>
</g>
<!-- Node10&#45;&gt;Node11 -->
<g id="edge10_Node000010_Node000011" class="edge">
<title>Node10&#45;&gt;Node11</title>
<g id="a_edge10_Node000010_Node000011"><a xlink:title=" ">
<path fill="none" stroke="#63b8ff" d="M646.28,-126.69C662.79,-116.82 682.53,-105.01 697.57,-96.01"/>
<polygon fill="#63b8ff" stroke="#63b8ff" points="644.27,-123.82 637.48,-131.95 647.86,-129.83 644.27,-123.82"/>
</a>
</g>
</g>
<!-- Node11&#45;&gt;Node9 -->
<g id="edge11_Node000011_Node000009" class="edge">
<title>Node11&#45;&gt;Node9</title>
<g id="a_edge11_Node000011_Node000009"><a xlink:title=" ">
<path fill="none" stroke="#63b8ff" d="M737.86,-57.53C744.68,-48.43 752.35,-38.19 758.38,-30.16"/>
<polygon fill="#63b8ff" stroke="#63b8ff" points="734.85,-55.7 731.65,-65.8 740.45,-59.9 734.85,-55.7"/>
</a>
</g>
</g>
<!-- Node15&#45;&gt;Node8 -->
<g id="edge17_Node000015_Node000008" class="edge">
<title>Node15&#45;&gt;Node8</title>
<g id="a_edge17_Node000015_Node000008"><a xlink:title=" ">
<path fill="none" stroke="#63b8ff" d="M745.21,-258.42C760.86,-248.6 779.46,-236.93 793.67,-228.01"/>
<polygon fill="#63b8ff" stroke="#63b8ff" points="742.99,-255.68 736.38,-263.95 746.72,-261.6 742.99,-255.68"/>
</a>
</g>
</g>
<!-- Node15&#45;&gt;Node11 -->
<g id="edge18_Node000015_Node000011" class="edge">
<title>Node15&#45;&gt;Node11</title>
<g id="a_edge18_Node000015_Node000011"><a xlink:title=" ">
<path fill="none" stroke="#63b8ff" d="M714.86,-253.89C716.34,-212.58 719.3,-129.48 720.49,-96.23"/>
<polygon fill="#63b8ff" stroke="#63b8ff" points="711.36,-253.79 714.5,-263.9 718.36,-254.04 711.36,-253.79"/>
</a>
</g>
</g>
</g>
</svg>
