<?xml version="1.0" encoding="UTF-8" standalone="no"?>
<!DOCTYPE svg PUBLIC "-//W3C//DTD SVG 1.1//EN"
 "http://www.w3.org/Graphics/SVG/1.1/DTD/svg11.dtd">
<!-- Generated by graphviz version 2.43.0 (0)
 -->
<!-- Title: include/Thoth/NJson/StringRef.hpp Pages: 1 -->
<svg width="1592pt" height="632pt"
 viewBox="0.00 0.00 1592.00 632.00" xmlns="http://www.w3.org/2000/svg" xmlns:xlink="http://www.w3.org/1999/xlink">
<g id="graph0" class="graph" transform="scale(1 1) rotate(0) translate(4 628)">
<title>include/Thoth/NJson/StringRef.hpp</title>
<!-- Node1 -->
<g id="Node000001" class="node">
<title>Node1</title>
<g id="a_Node000001"><a xlink:title=" ">
<polygon fill="#999999" stroke="#666666" points="502.5,-624 389.5,-624 389.5,-594 502.5,-594 502.5,-624"/>
<text text-anchor="start" x="397.5" y="-612" font-family="Helvetica,sans-Serif" font-size="10.00">include/Thoth/NJson</text>
<text text-anchor="middle" x="446" y="-601" font-family="Helvetica,sans-Serif" font-size="10.00">/StringRef.hpp</text>
</a>
</g>
</g>
<!-- Node2 -->
<g id="Node000002" class="node">
<title>Node2</title>
<g id="a_Node000002"><a xlink:href="_definitions_8hpp.html" target="_top" xlink:title=" ">
<polygon fill="white" stroke="#666666" points="502.5,-558 389.5,-558 389.5,-528 502.5,-528 502.5,-558"/>
<text text-anchor="start" x="397.5" y="-546" font-family="Helvetica,sans-Serif" font-size="10.00">include/Thoth/NJson</text>
<text text-anchor="middle" x="446" y="-535" font-family="Helvetica,sans-Serif" font-size="10.00">/Definitions.hpp</text>
</a>
</g>
</g>
<!-- Node1&#45;&gt;Node2 -->
<g id="edge1_Node000001_Node000002" class="edge">
<title>Node1&#45;&gt;Node2</title>
<g id="a_edge1_Node000001_Node000002"><a xlink:title=" ">
<path fill="none" stroke="#63b8ff" d="M446,-583.54C446,-574.96 446,-565.61 446,-558.16"/>
<polygon fill="#63b8ff" stroke="#63b8ff" points="442.5,-583.8 446,-593.8 449.5,-583.8 442.5,-583.8"/>
</a>
</g>
</g>
<!-- Node3 -->
<g id="Node000003" class="node">
<title>Node3</title>
<g id="a_Node000003"><a xlink:href="_request_error_8hpp.html" target="_top" xlink:title=" ">
<polygon fill="white" stroke="#666666" points="458.5,-492 351.5,-492 351.5,-462 458.5,-462 458.5,-492"/>
<text text-anchor="start" x="359.5" y="-480" font-family="Helvetica,sans-Serif" font-size="10.00">include/Thoth/Http</text>
<text text-anchor="middle" x="405" y="-469" font-family="Helvetica,sans-Serif" font-size="10.00">/RequestError.hpp</text>
</a>
</g>
</g>
<!-- Node2&#45;&gt;Node3 -->
<g id="edge2_Node000002_Node000003" class="edge">
<title>Node2&#45;&gt;Node3</title>
<g id="a_edge2_Node000002_Node000003"><a xlink:title=" ">
<path fill="none" stroke="#63b8ff" d="M431.42,-519.24C425.64,-510.21 419.16,-500.11 414.07,-492.16"/>
<polygon fill="#63b8ff" stroke="#63b8ff" points="428.56,-521.26 436.9,-527.8 434.45,-517.49 428.56,-521.26"/>
</a>
</g>
</g>
<!-- Node19 -->
<g id="Node000019" class="node">
<title>Node19</title>
<g id="a_Node000019"><a xlink:href="_json_8hpp.html" target="_top" xlink:title=" ">
<polygon fill="white" stroke="#666666" points="577.5,-426 464.5,-426 464.5,-396 577.5,-396 577.5,-426"/>
<text text-anchor="start" x="472.5" y="-414" font-family="Helvetica,sans-Serif" font-size="10.00">include/Thoth/NJson</text>
<text text-anchor="middle" x="521" y="-403" font-family="Helvetica,sans-Serif" font-size="10.00">/Json.hpp</text>
</a>
</g>
</g>
<!-- Node2&#45;&gt;Node19 -->
<g id="edge26_Node000002_Node000019" class="edge">
<title>Node2&#45;&gt;Node19</title>
<g id="a_edge26_Node000002_Node000019"><a xlink:title=" ">
<path fill="none" stroke="#63b8ff" d="M459.21,-519.1C474.72,-492.23 499.94,-448.5 512.84,-426.14"/>
<polygon fill="#63b8ff" stroke="#63b8ff" points="456.13,-517.43 454.17,-527.84 462.2,-520.93 456.13,-517.43"/>
</a>
</g>
</g>
<!-- Node4 -->
<g id="Node000004" class="node">
<title>Node4</title>
<g id="a_Node000004"><a xlink:href="_client_8hpp.html" target="_top" xlink:title=" ">
<polygon fill="white" stroke="#666666" points="187.5,-30 80.5,-30 80.5,0 187.5,0 187.5,-30"/>
<text text-anchor="start" x="88.5" y="-18" font-family="Helvetica,sans-Serif" font-size="10.00">include/Thoth/Http</text>
<text text-anchor="middle" x="134" y="-7" font-family="Helvetica,sans-Serif" font-size="10.00">/Client.hpp</text>
</a>
</g>
</g>
<!-- Node3&#45;&gt;Node4 -->
<g id="edge3_Node000003_Node000004" class="edge">
<title>Node3&#45;&gt;Node4</title>
<g id="a_edge3_Node000003_Node000004"><a xlink:title=" ">
<path fill="none" stroke="#63b8ff" d="M341.21,-468.92C227.13,-454.46 0,-416.79 0,-346 0,-346 0,-346 0,-146 0,-89.6 61.9,-49.81 101.56,-30.11"/>
<polygon fill="#63b8ff" stroke="#63b8ff" points="340.86,-472.4 351.22,-470.16 341.73,-465.45 340.86,-472.4"/>
</a>
</g>
</g>
<!-- Node5 -->
<g id="Node000005" class="node">
<title>Node5</title>
<g id="a_Node000005"><a xlink:href="_query_params_8hpp.html" target="_top" xlink:title=" ">
<polygon fill="white" stroke="#666666" points="446.5,-426 297.5,-426 297.5,-396 446.5,-396 446.5,-426"/>
<text text-anchor="start" x="305.5" y="-414" font-family="Helvetica,sans-Serif" font-size="10.00">include/Thoth/Http</text>
<text text-anchor="middle" x="372" y="-403" font-family="Helvetica,sans-Serif" font-size="10.00">/Request/QueryParams.hpp</text>
</a>
</g>
</g>
<!-- Node3&#45;&gt;Node5 -->
<g id="edge4_Node000003_Node000005" class="edge">
<title>Node3&#45;&gt;Node5</title>
<g id="a_edge4_Node000003_Node000005"><a xlink:title=" ">
<path fill="none" stroke="#63b8ff" d="M392.98,-452.68C388.39,-443.79 383.32,-433.95 379.3,-426.16"/>
<polygon fill="#63b8ff" stroke="#63b8ff" points="389.98,-454.51 397.68,-461.8 396.2,-451.3 389.98,-454.51"/>
</a>
</g>
</g>
<!-- Node3&#45;&gt;Node19 -->
<g id="edge24_Node000003_Node000019" class="edge">
<title>Node3&#45;&gt;Node19</title>
<g id="a_edge24_Node000003_Node000019"><a xlink:title=" ">
<path fill="none" stroke="#63b8ff" d="M439.49,-456.97C457.5,-447.03 479.15,-435.09 495.6,-426.01"/>
<polygon fill="#63b8ff" stroke="#63b8ff" points="437.52,-454.06 430.46,-461.95 440.9,-460.19 437.52,-454.06"/>
</a>
</g>
</g>
<!-- Node6 -->
<g id="Node000006" class="node">
<title>Node6</title>
<g id="a_Node000006"><a xlink:href="_url_8hpp.html" target="_top" xlink:title=" ">
<polygon fill="white" stroke="#666666" points="425.5,-360 318.5,-360 318.5,-330 425.5,-330 425.5,-360"/>
<text text-anchor="start" x="326.5" y="-348" font-family="Helvetica,sans-Serif" font-size="10.00">include/Thoth/Http</text>
<text text-anchor="middle" x="372" y="-337" font-family="Helvetica,sans-Serif" font-size="10.00">/Request/Url.hpp</text>
</a>
</g>
</g>
<!-- Node5&#45;&gt;Node6 -->
<g id="edge5_Node000005_Node000006" class="edge">
<title>Node5&#45;&gt;Node6</title>
<g id="a_edge5_Node000005_Node000006"><a xlink:title=" ">
<path fill="none" stroke="#63b8ff" d="M372,-385.54C372,-376.96 372,-367.61 372,-360.16"/>
<polygon fill="#63b8ff" stroke="#63b8ff" points="368.5,-385.8 372,-395.8 375.5,-385.8 368.5,-385.8"/>
</a>
</g>
</g>
<!-- Node7 -->
<g id="Node000007" class="node">
<title>Node7</title>
<g id="a_Node000007"><a xlink:href="_method_concept_8hpp.html" target="_top" xlink:title=" ">
<polygon fill="white" stroke="#666666" points="821,-294 627,-294 627,-264 821,-264 821,-294"/>
<text text-anchor="start" x="635" y="-282" font-family="Helvetica,sans-Serif" font-size="10.00">include/Thoth/Http</text>
<text text-anchor="middle" x="724" y="-271" font-family="Helvetica,sans-Serif" font-size="10.00">/Methods/_base/MethodConcept.hpp</text>
</a>
</g>
</g>
<!-- Node6&#45;&gt;Node7 -->
<g id="edge6_Node000006_Node000007" class="edge">
<title>Node6&#45;&gt;Node7</title>
<g id="a_edge6_Node000006_Node000007"><a xlink:title=" ">
<path fill="none" stroke="#63b8ff" d="M435.84,-332.39C495.2,-321.6 583.74,-305.5 646.99,-294"/>
<polygon fill="#63b8ff" stroke="#63b8ff" points="435.06,-328.98 425.84,-334.21 436.31,-335.86 435.06,-328.98"/>
</a>
</g>
</g>
<!-- Node11 -->
<g id="Node000011" class="node">
<title>Node11</title>
<g id="a_Node000011"><a xlink:href="_request_8hpp.html" target="_top" xlink:title=" ">
<polygon fill="white" stroke="#666666" points="197.5,-162 74.5,-162 74.5,-132 197.5,-132 197.5,-162"/>
<text text-anchor="start" x="82.5" y="-150" font-family="Helvetica,sans-Serif" font-size="10.00">include/Thoth/Http</text>
<text text-anchor="middle" x="136" y="-139" font-family="Helvetica,sans-Serif" font-size="10.00">/Request/Request.hpp</text>
</a>
</g>
</g>
<!-- Node6&#45;&gt;Node11 -->
<g id="edge23_Node000006_Node000011" class="edge">
<title>Node6&#45;&gt;Node11</title>
<g id="a_edge23_Node000006_Node000011"><a xlink:title=" ">
<path fill="none" stroke="#63b8ff" d="M308.12,-341C233.65,-333.68 113.59,-309.15 57,-228 49.37,-217.06 50.57,-209.68 57,-198 65.92,-181.79 82.57,-170.1 98.28,-162.12"/>
<polygon fill="#63b8ff" stroke="#63b8ff" points="308.03,-344.51 318.31,-341.93 308.67,-337.54 308.03,-344.51"/>
</a>
</g>
</g>
<!-- Node8 -->
<g id="Node000008" class="node">
<title>Node8</title>
<g id="a_Node000008"><a xlink:href="_connect_method_8hpp.html" target="_top" xlink:title=" ">
<polygon fill="white" stroke="#666666" points="1382,-228 1220,-228 1220,-198 1382,-198 1382,-228"/>
<text text-anchor="start" x="1228" y="-216" font-family="Helvetica,sans-Serif" font-size="10.00">include/Thoth/Http</text>
<text text-anchor="middle" x="1301" y="-205" font-family="Helvetica,sans-Serif" font-size="10.00">/Methods/ConnectMethod.hpp</text>
</a>
</g>
</g>
<!-- Node7&#45;&gt;Node8 -->
<g id="edge7_Node000007_Node000008" class="edge">
<title>Node7&#45;&gt;Node8</title>
<g id="a_edge7_Node000007_Node000008"><a xlink:title=" ">
<path fill="none" stroke="#63b8ff" d="M831.18,-268.61C929.98,-259.57 1080.61,-244.82 1211,-228 1213.82,-227.64 1216.69,-227.25 1219.59,-226.86"/>
<polygon fill="#63b8ff" stroke="#63b8ff" points="830.83,-265.13 821.19,-269.52 831.47,-272.1 830.83,-265.13"/>
</a>
</g>
</g>
<!-- Node9 -->
<g id="Node000009" class="node">
<title>Node9</title>
<g id="a_Node000009"><a xlink:href="_delete_method_8hpp.html" target="_top" xlink:title=" ">
<polygon fill="white" stroke="#666666" points="1555.5,-228 1400.5,-228 1400.5,-198 1555.5,-198 1555.5,-228"/>
<text text-anchor="start" x="1408.5" y="-216" font-family="Helvetica,sans-Serif" font-size="10.00">include/Thoth/Http</text>
<text text-anchor="middle" x="1478" y="-205" font-family="Helvetica,sans-Serif" font-size="10.00">/Methods/DeleteMethod.hpp</text>
</a>
</g>
</g>
<!-- Node7&#45;&gt;Node9 -->
<g id="edge8_Node000007_Node000009" class="edge">
<title>Node7&#45;&gt;Node9</title>
<g id="a_edge8_Node000007_Node000009"><a xlink:title=" ">
<path fill="none" stroke="#63b8ff" d="M831.29,-272.76C963.31,-265.67 1194.16,-251.17 1391,-228 1394.04,-227.64 1397.13,-227.25 1400.26,-226.84"/>
<polygon fill="#63b8ff" stroke="#63b8ff" points="830.98,-269.27 821.18,-273.3 831.35,-276.26 830.98,-269.27"/>
</a>
</g>
</g>
<!-- Node10 -->
<g id="Node000010" class="node">
<title>Node10</title>
<g id="a_Node000010"><a xlink:href="_get_method_8hpp.html" target="_top" xlink:title=" ">
<polygon fill="white" stroke="#666666" points="206,-228 66,-228 66,-198 206,-198 206,-228"/>
<text text-anchor="start" x="74" y="-216" font-family="Helvetica,sans-Serif" font-size="10.00">include/Thoth/Http</text>
<text text-anchor="middle" x="136" y="-205" font-family="Helvetica,sans-Serif" font-size="10.00">/Methods/GetMethod.hpp</text>
</a>
</g>
</g>
<!-- Node7&#45;&gt;Node10 -->
<g id="edge9_Node000007_Node000010" class="edge">
<title>Node7&#45;&gt;Node10</title>
<g id="a_edge9_Node000007_Node000010"><a xlink:title=" ">
<path fill="none" stroke="#63b8ff" d="M616.51,-269.87C513.3,-261.5 353.12,-246.99 215,-228 212.1,-227.6 209.15,-227.17 206.17,-226.73"/>
<polygon fill="#63b8ff" stroke="#63b8ff" points="616.38,-273.38 626.63,-270.69 616.95,-266.4 616.38,-273.38"/>
</a>
</g>
</g>
<!-- Node13 -->
<g id="Node000013" class="node">
<title>Node13</title>
<g id="a_Node000013"><a xlink:href="_head_method_8hpp.html" target="_top" xlink:title=" ">
<polygon fill="white" stroke="#666666" points="372,-228 224,-228 224,-198 372,-198 372,-228"/>
<text text-anchor="start" x="232" y="-216" font-family="Helvetica,sans-Serif" font-size="10.00">include/Thoth/Http</text>
<text text-anchor="middle" x="298" y="-205" font-family="Helvetica,sans-Serif" font-size="10.00">/Methods/HeadMethod.hpp</text>
</a>
</g>
</g>
<!-- Node7&#45;&gt;Node13 -->
<g id="edge15_Node000007_Node000013" class="edge">
<title>Node7&#45;&gt;Node13</title>
<g id="a_edge15_Node000007_Node000013"><a xlink:title=" ">
<path fill="none" stroke="#63b8ff" d="M616.46,-262.95C548.82,-253.33 459.74,-240.38 381,-228 378.11,-227.55 375.17,-227.08 372.2,-226.6"/>
<polygon fill="#63b8ff" stroke="#63b8ff" points="616.31,-266.47 626.7,-264.41 617.3,-259.54 616.31,-266.47"/>
</a>
</g>
</g>
<!-- Node14 -->
<g id="Node000014" class="node">
<title>Node14</title>
<g id="a_Node000014"><a xlink:href="_options_method_8hpp.html" target="_top" xlink:title=" ">
<polygon fill="white" stroke="#666666" points="550,-228 390,-228 390,-198 550,-198 550,-228"/>
<text text-anchor="start" x="398" y="-216" font-family="Helvetica,sans-Serif" font-size="10.00">include/Thoth/Http</text>
<text text-anchor="middle" x="470" y="-205" font-family="Helvetica,sans-Serif" font-size="10.00">/Methods/OptionsMethod.hpp</text>
</a>
</g>
</g>
<!-- Node7&#45;&gt;Node14 -->
<g id="edge16_Node000007_Node000014" class="edge">
<title>Node7&#45;&gt;Node14</title>
<g id="a_edge16_Node000007_Node000014"><a xlink:title=" ">
<path fill="none" stroke="#63b8ff" d="M658.32,-261.45C617.17,-251.08 564.71,-237.86 525.61,-228.01"/>
<polygon fill="#63b8ff" stroke="#63b8ff" points="657.71,-264.91 668.26,-263.95 659.42,-258.12 657.71,-264.91"/>
</a>
</g>
</g>
<!-- Node15 -->
<g id="Node000015" class="node">
<title>Node15</title>
<g id="a_Node000015"><a xlink:href="_patch_method_8hpp.html" target="_top" xlink:title=" ">
<polygon fill="white" stroke="#666666" points="717.5,-228 568.5,-228 568.5,-198 717.5,-198 717.5,-228"/>
<text text-anchor="start" x="576.5" y="-216" font-family="Helvetica,sans-Serif" font-size="10.00">include/Thoth/Http</text>
<text text-anchor="middle" x="643" y="-205" font-family="Helvetica,sans-Serif" font-size="10.00">/Methods/PatchMethod.hpp</text>
</a>
</g>
</g>
<!-- Node7&#45;&gt;Node15 -->
<g id="edge17_Node000007_Node000015" class="edge">
<title>Node7&#45;&gt;Node15</title>
<g id="a_edge17_Node000007_Node000015"><a xlink:title=" ">
<path fill="none" stroke="#63b8ff" d="M698.03,-257.48C685.92,-247.91 671.82,-236.77 660.93,-228.16"/>
<polygon fill="#63b8ff" stroke="#63b8ff" points="696.01,-260.34 706.02,-263.8 700.35,-254.85 696.01,-260.34"/>
</a>
</g>
</g>
<!-- Node16 -->
<g id="Node000016" class="node">
<title>Node16</title>
<g id="a_Node000016"><a xlink:href="_post_method_8hpp.html" target="_top" xlink:title=" ">
<polygon fill="white" stroke="#666666" points="1201.5,-228 1058.5,-228 1058.5,-198 1201.5,-198 1201.5,-228"/>
<text text-anchor="start" x="1066.5" y="-216" font-family="Helvetica,sans-Serif" font-size="10.00">include/Thoth/Http</text>
<text text-anchor="middle" x="1130" y="-205" font-family="Helvetica,sans-Serif" font-size="10.00">/Methods/PostMethod.hpp</text>
</a>
</g>
</g>
<!-- Node7&#45;&gt;Node16 -->
<g id="edge18_Node000007_Node000016" class="edge">
<title>Node7&#45;&gt;Node16</title>
<g id="a_edge18_Node000007_Node000016"><a xlink:title=" ">
<path fill="none" stroke="#63b8ff" d="M828.36,-262.45C892.13,-252.82 975.33,-240.03 1049,-228 1052.1,-227.49 1055.26,-226.97 1058.46,-226.44"/>
<polygon fill="#63b8ff" stroke="#63b8ff" points="827.66,-259.01 818.29,-263.96 828.7,-265.93 827.66,-259.01"/>
</a>
</g>
</g>
<!-- Node17 -->
<g id="Node000017" class="node">
<title>Node17</title>
<g id="a_Node000017"><a xlink:href="_put_method_8hpp.html" target="_top" xlink:title=" ">
<polygon fill="white" stroke="#666666" points="874,-228 736,-228 736,-198 874,-198 874,-228"/>
<text text-anchor="start" x="744" y="-216" font-family="Helvetica,sans-Serif" font-size="10.00">include/Thoth/Http</text>
<text text-anchor="middle" x="805" y="-205" font-family="Helvetica,sans-Serif" font-size="10.00">/Methods/PutMethod.hpp</text>
</a>
</g>
</g>
<!-- Node7&#45;&gt;Node17 -->
<g id="edge21_Node000007_Node000017" class="edge">
<title>Node7&#45;&gt;Node17</title>
<g id="a_edge21_Node000007_Node000017"><a xlink:title=" ">
<path fill="none" stroke="#63b8ff" d="M749.97,-257.48C762.08,-247.91 776.18,-236.77 787.07,-228.16"/>
<polygon fill="#63b8ff" stroke="#63b8ff" points="747.65,-254.85 741.98,-263.8 751.99,-260.34 747.65,-254.85"/>
</a>
</g>
</g>
<!-- Node18 -->
<g id="Node000018" class="node">
<title>Node18</title>
<g id="a_Node000018"><a xlink:href="_trace_method_8hpp.html" target="_top" xlink:title=" ">
<polygon fill="white" stroke="#666666" points="1040,-228 892,-228 892,-198 1040,-198 1040,-228"/>
<text text-anchor="start" x="900" y="-216" font-family="Helvetica,sans-Serif" font-size="10.00">include/Thoth/Http</text>
<text text-anchor="middle" x="966" y="-205" font-family="Helvetica,sans-Serif" font-size="10.00">/Methods/TraceMethod.hpp</text>
</a>
</g>
</g>
<!-- Node7&#45;&gt;Node18 -->
<g id="edge22_Node000007_Node000018" class="edge">
<title>Node7&#45;&gt;Node18</title>
<g id="a_edge22_Node000007_Node000018"><a xlink:title=" ">
<path fill="none" stroke="#63b8ff" d="M786.82,-261.39C826,-251.03 875.85,-237.84 913.02,-228.01"/>
<polygon fill="#63b8ff" stroke="#63b8ff" points="785.88,-258.01 777.11,-263.95 787.67,-264.78 785.88,-258.01"/>
</a>
</g>
</g>
<!-- Node10&#45;&gt;Node11 -->
<g id="edge10_Node000010_Node000011" class="edge">
<title>Node10&#45;&gt;Node11</title>
<g id="a_edge10_Node000010_Node000011"><a xlink:title=" ">
<path fill="none" stroke="#63b8ff" d="M136,-187.54C136,-178.96 136,-169.61 136,-162.16"/>
<polygon fill="#63b8ff" stroke="#63b8ff" points="132.5,-187.8 136,-197.8 139.5,-187.8 132.5,-187.8"/>
</a>
</g>
</g>
<!-- Node12 -->
<g id="Node000012" class="node">
<title>Node12</title>
<g id="a_Node000012"><a xlink:href="_response_8hpp.html" target="_top" xlink:title=" ">
<polygon fill="white" stroke="#666666" points="300,-96 162,-96 162,-66 300,-66 300,-96"/>
<text text-anchor="start" x="170" y="-84" font-family="Helvetica,sans-Serif" font-size="10.00">include/Thoth/Http</text>
<text text-anchor="middle" x="231" y="-73" font-family="Helvetica,sans-Serif" font-size="10.00">/Response/Response.hpp</text>
</a>
</g>
</g>
<!-- Node10&#45;&gt;Node12 -->
<g id="edge14_Node000010_Node000012" class="edge">
<title>Node10&#45;&gt;Node12</title>
<g id="a_edge14_Node000010_Node000012"><a xlink:title=" ">
<path fill="none" stroke="#63b8ff" d="M172.33,-192.54C184.5,-184.49 197.19,-174.17 206,-162 220.51,-141.96 226.77,-113.26 229.34,-96.24"/>
<polygon fill="#63b8ff" stroke="#63b8ff" points="170.24,-189.72 163.63,-198 173.96,-195.65 170.24,-189.72"/>
</a>
</g>
</g>
<!-- Node11&#45;&gt;Node4 -->
<g id="edge11_Node000011_Node000004" class="edge">
<title>Node11&#45;&gt;Node4</title>
<g id="a_edge11_Node000011_Node000004"><a xlink:title=" ">
<path fill="none" stroke="#63b8ff" d="M135.63,-121.68C135.21,-94.7 134.56,-52.11 134.22,-30.14"/>
<polygon fill="#63b8ff" stroke="#63b8ff" points="132.13,-121.9 135.78,-131.84 139.13,-121.79 132.13,-121.9"/>
</a>
</g>
</g>
<!-- Node11&#45;&gt;Node12 -->
<g id="edge12_Node000011_Node000012" class="edge">
<title>Node11&#45;&gt;Node12</title>
<g id="a_edge12_Node000011_Node000012"><a xlink:title=" ">
<path fill="none" stroke="#63b8ff" d="M165.65,-126.03C180.02,-116.34 196.95,-104.94 209.98,-96.16"/>
<polygon fill="#63b8ff" stroke="#63b8ff" points="163.42,-123.31 157.08,-131.8 167.33,-129.11 163.42,-123.31"/>
</a>
</g>
</g>
<!-- Node12&#45;&gt;Node4 -->
<g id="edge13_Node000012_Node000004" class="edge">
<title>Node12&#45;&gt;Node4</title>
<g id="a_edge13_Node000012_Node000004"><a xlink:title=" ">
<path fill="none" stroke="#63b8ff" d="M200.73,-60.03C186.05,-50.34 168.77,-38.94 155.47,-30.16"/>
<polygon fill="#63b8ff" stroke="#63b8ff" points="199.2,-63.21 209.47,-65.8 203.05,-57.37 199.2,-63.21"/>
</a>
</g>
</g>
<!-- Node16&#45;&gt;Node11 -->
<g id="edge19_Node000016_Node000011" class="edge">
<title>Node16&#45;&gt;Node11</title>
<g id="a_edge19_Node000016_Node000011"><a xlink:title=" ">
<path fill="none" stroke="#63b8ff" d="M1047.96,-197.98C722.12,-161.61 343.67,-151.57 197.65,-148.9"/>
<polygon fill="#63b8ff" stroke="#63b8ff" points="1047.74,-201.48 1058.07,-199.12 1048.53,-194.52 1047.74,-201.48"/>
</a>
</g>
</g>
<!-- Node16&#45;&gt;Node12 -->
<g id="edge20_Node000016_Node000012" class="edge">
<title>Node16&#45;&gt;Node12</title>
<g id="a_edge20_Node000016_Node000012"><a xlink:title=" ">
<path fill="none" stroke="#63b8ff" d="M1048.38,-197.93C764.26,-153.39 439.36,-109.54 300.05,-91.07"/>
<polygon fill="#63b8ff" stroke="#63b8ff" points="1048.04,-201.42 1058.47,-199.52 1049.13,-194.51 1048.04,-201.42"/>
</a>
</g>
</g>
<!-- Node19&#45;&gt;Node12 -->
<g id="edge25_Node000019_Node000012" class="edge">
<title>Node19&#45;&gt;Node12</title>
<g id="a_edge25_Node000019_Node000012"><a xlink:title=" ">
<path fill="none" stroke="#63b8ff" d="M587.82,-408.88C820.91,-404.12 1584,-380.82 1584,-280 1584,-280 1584,-280 1584,-212 1584,-81.7 576.81,-79.47 300.42,-81.31"/>
<polygon fill="#63b8ff" stroke="#63b8ff" points="587.7,-405.39 577.78,-409.08 587.84,-412.38 587.7,-405.39"/>
</a>
</g>
</g>
</g>
</svg>
