<?xml version="1.0" encoding="UTF-8" standalone="no"?>
<!DOCTYPE svg PUBLIC "-//W3C//DTD SVG 1.1//EN"
 "http://www.w3.org/Graphics/SVG/1.1/DTD/svg11.dtd">
<!-- Generated by graphviz version 2.43.0 (0)
 -->
<!-- Title: include/Thoth/String/Utils.hpp Pages: 1 -->
<svg width="2054pt" height="643pt"
 viewBox="0.00 0.00 2054.01 643.00" xmlns="http://www.w3.org/2000/svg" xmlns:xlink="http://www.w3.org/1999/xlink">
<g id="graph0" class="graph" transform="scale(1 1) rotate(0) translate(4 639)">
<title>include/Thoth/String/Utils.hpp</title>
<!-- Node1 -->
<g id="Node000001" class="node">
<title>Node1</title>
<g id="a_Node000001"><a xlink:title=" ">
<polygon fill="#999999" stroke="#666666" points="1683.01,-635 1569.01,-635 1569.01,-605 1683.01,-605 1683.01,-635"/>
<text text-anchor="start" x="1577.01" y="-623" font-family="Helvetica,sans-Serif" font-size="10.00">include/Thoth/String</text>
<text text-anchor="middle" x="1626.01" y="-612" font-family="Helvetica,sans-Serif" font-size="10.00">/Utils.hpp</text>
</a>
</g>
</g>
<!-- Node2 -->
<g id="Node000002" class="node">
<title>Node2</title>
<g id="a_Node000002"><a xlink:href="_http_2_n_headers_2_proxy_2__base_8hpp.html" target="_top" xlink:title=" ">
<polygon fill="white" stroke="#666666" points="1742.51,-503 1591.51,-503 1591.51,-473 1742.51,-473 1742.51,-503"/>
<text text-anchor="start" x="1599.51" y="-491" font-family="Helvetica,sans-Serif" font-size="10.00">include/Thoth/Http</text>
<text text-anchor="middle" x="1667.01" y="-480" font-family="Helvetica,sans-Serif" font-size="10.00">/NHeaders/Proxy/_base.hpp</text>
</a>
</g>
</g>
<!-- Node1&#45;&gt;Node2 -->
<g id="edge1_Node000001_Node000002" class="edge">
<title>Node1&#45;&gt;Node2</title>
<g id="a_edge1_Node000001_Node000002"><a xlink:title=" ">
<path fill="none" stroke="#63b8ff" d="M1637.29,-595.74C1641.04,-587.43 1645.02,-577.92 1648.01,-569 1655.6,-546.4 1661.37,-519.24 1664.47,-503.09"/>
<polygon fill="#63b8ff" stroke="#63b8ff" points="1634.11,-594.29 1633.07,-604.83 1640.46,-597.24 1634.11,-594.29"/>
</a>
</g>
</g>
<!-- Node23 -->
<g id="Node000023" class="node">
<title>Node23</title>
<g id="a_Node000023"><a xlink:href="_scanner_8hpp.html" target="_top" xlink:title=" ">
<polygon fill="white" stroke="#666666" points="1639.01,-569 1531.01,-569 1531.01,-539 1639.01,-539 1639.01,-569"/>
<text text-anchor="start" x="1539.01" y="-557" font-family="Helvetica,sans-Serif" font-size="10.00">include/Thoth/Utils</text>
<text text-anchor="middle" x="1585.01" y="-546" font-family="Helvetica,sans-Serif" font-size="10.00">/Scanner.hpp</text>
</a>
</g>
</g>
<!-- Node1&#45;&gt;Node23 -->
<g id="edge33_Node000001_Node000023" class="edge">
<title>Node1&#45;&gt;Node23</title>
<g id="a_edge33_Node000001_Node000023"><a xlink:title=" ">
<path fill="none" stroke="#63b8ff" d="M1611.43,-596.24C1605.65,-587.21 1599.18,-577.11 1594.08,-569.16"/>
<polygon fill="#63b8ff" stroke="#63b8ff" points="1608.57,-598.26 1616.91,-604.8 1614.46,-594.49 1608.57,-598.26"/>
</a>
</g>
</g>
<!-- Node3 -->
<g id="Node000003" class="node">
<title>Node3</title>
<g id="a_Node000003"><a xlink:href="_headers_8hpp.html" target="_top" xlink:title=" ">
<polygon fill="white" stroke="#666666" points="1686.01,-437 1554.01,-437 1554.01,-407 1686.01,-407 1686.01,-437"/>
<text text-anchor="start" x="1562.01" y="-425" font-family="Helvetica,sans-Serif" font-size="10.00">include/Thoth/Http</text>
<text text-anchor="middle" x="1620.01" y="-414" font-family="Helvetica,sans-Serif" font-size="10.00">/NHeaders/Headers.hpp</text>
</a>
</g>
</g>
<!-- Node2&#45;&gt;Node3 -->
<g id="edge2_Node000002_Node000003" class="edge">
<title>Node2&#45;&gt;Node3</title>
<g id="a_edge2_Node000002_Node000003"><a xlink:title=" ">
<path fill="none" stroke="#63b8ff" d="M1650.51,-464.53C1643.82,-455.43 1636.31,-445.19 1630.41,-437.16"/>
<polygon fill="#63b8ff" stroke="#63b8ff" points="1647.84,-466.81 1656.58,-472.8 1653.48,-462.66 1647.84,-466.81"/>
</a>
</g>
</g>
<!-- Node19 -->
<g id="Node000019" class="node">
<title>Node19</title>
<g id="a_Node000019"><a xlink:href="_list_proxy_8hpp.html" target="_top" xlink:title=" ">
<polygon fill="white" stroke="#666666" points="2046.01,-371 1880.01,-371 1880.01,-341 2046.01,-341 2046.01,-371"/>
<text text-anchor="start" x="1888.01" y="-359" font-family="Helvetica,sans-Serif" font-size="10.00">include/Thoth/Http</text>
<text text-anchor="middle" x="1963.01" y="-348" font-family="Helvetica,sans-Serif" font-size="10.00">/NHeaders/Proxy/ListProxy.hpp</text>
</a>
</g>
</g>
<!-- Node2&#45;&gt;Node19 -->
<g id="edge31_Node000002_Node000019" class="edge">
<title>Node2&#45;&gt;Node19</title>
<g id="a_edge31_Node000002_Node000019"><a xlink:title=" ">
<path fill="none" stroke="#63b8ff" d="M1708.45,-468.8C1768.04,-442.63 1876.71,-394.9 1930.74,-371.17"/>
<polygon fill="#63b8ff" stroke="#63b8ff" points="1706.72,-465.74 1698.97,-472.96 1709.53,-472.15 1706.72,-465.74"/>
</a>
</g>
</g>
<!-- Node20 -->
<g id="Node000020" class="node">
<title>Node20</title>
<g id="a_Node000020"><a xlink:href="_value_proxy_8hpp.html" target="_top" xlink:title=" ">
<polygon fill="white" stroke="#666666" points="1862.01,-371 1686.01,-371 1686.01,-341 1862.01,-341 1862.01,-371"/>
<text text-anchor="start" x="1694.01" y="-359" font-family="Helvetica,sans-Serif" font-size="10.00">include/Thoth/Http</text>
<text text-anchor="middle" x="1774.01" y="-348" font-family="Helvetica,sans-Serif" font-size="10.00">/NHeaders/Proxy/ValueProxy.hpp</text>
</a>
</g>
</g>
<!-- Node2&#45;&gt;Node20 -->
<g id="edge32_Node000002_Node000020" class="edge">
<title>Node2&#45;&gt;Node20</title>
<g id="a_edge32_Node000002_Node000020"><a xlink:title=" ">
<path fill="none" stroke="#63b8ff" d="M1685.28,-464.8C1707.35,-437.99 1743.81,-393.7 1762.37,-371.14"/>
<polygon fill="#63b8ff" stroke="#63b8ff" points="1682.32,-462.89 1678.67,-472.84 1687.72,-467.34 1682.32,-462.89"/>
</a>
</g>
</g>
<!-- Node4 -->
<g id="Node000004" class="node">
<title>Node4</title>
<g id="a_Node000004"><a xlink:href="_file_output_range_8hpp.html" target="_top" xlink:title=" ">
<polygon fill="white" stroke="#666666" points="1699.01,-239 1541.01,-239 1541.01,-209 1699.01,-209 1699.01,-239"/>
<text text-anchor="start" x="1549.01" y="-227" font-family="Helvetica,sans-Serif" font-size="10.00">include/Thoth/Dsa/FileOutput</text>
<text text-anchor="middle" x="1620.01" y="-216" font-family="Helvetica,sans-Serif" font-size="10.00">Range.hpp</text>
</a>
</g>
</g>
<!-- Node3&#45;&gt;Node4 -->
<g id="edge3_Node000003_Node000004" class="edge">
<title>Node3&#45;&gt;Node4</title>
<g id="a_edge3_Node000003_Node000004"><a xlink:title=" ">
<path fill="none" stroke="#63b8ff" d="M1620.01,-396.89C1620.01,-355.58 1620.01,-272.48 1620.01,-239.23"/>
<polygon fill="#63b8ff" stroke="#63b8ff" points="1616.51,-396.9 1620.01,-406.9 1623.51,-396.9 1616.51,-396.9"/>
</a>
</g>
</g>
<!-- Node7 -->
<g id="Node000007" class="node">
<title>Node7</title>
<g id="a_Node000007"><a xlink:href="_method_concept_8hpp.html" target="_top" xlink:title=" ">
<polygon fill="white" stroke="#666666" points="1040.01,-371 846.01,-371 846.01,-341 1040.01,-341 1040.01,-371"/>
<text text-anchor="start" x="854.01" y="-359" font-family="Helvetica,sans-Serif" font-size="10.00">include/Thoth/Http</text>
<text text-anchor="middle" x="943.01" y="-348" font-family="Helvetica,sans-Serif" font-size="10.00">/Methods/_base/MethodConcept.hpp</text>
</a>
</g>
</g>
<!-- Node3&#45;&gt;Node7 -->
<g id="edge7_Node000003_Node000007" class="edge">
<title>Node3&#45;&gt;Node7</title>
<g id="a_edge7_Node000003_Node000007"><a xlink:title=" ">
<path fill="none" stroke="#63b8ff" d="M1543.72,-413.79C1420.02,-402.09 1175.87,-379.01 1040.01,-366.17"/>
<polygon fill="#63b8ff" stroke="#63b8ff" points="1543.58,-417.29 1553.86,-414.75 1544.24,-410.32 1543.58,-417.29"/>
</a>
</g>
</g>
<!-- Node12 -->
<g id="Node000012" class="node">
<title>Node12</title>
<g id="a_Node000012"><a xlink:href="_response_head_8hpp.html" target="_top" xlink:title=" ">
<polygon fill="white" stroke="#666666" points="1595.01,-167.5 1431.01,-167.5 1431.01,-137.5 1595.01,-137.5 1595.01,-167.5"/>
<text text-anchor="start" x="1439.01" y="-155.5" font-family="Helvetica,sans-Serif" font-size="10.00">include/Thoth/Http</text>
<text text-anchor="middle" x="1513.01" y="-144.5" font-family="Helvetica,sans-Serif" font-size="10.00">/Response/ResponseHead.hpp</text>
</a>
</g>
</g>
<!-- Node3&#45;&gt;Node12 -->
<g id="edge30_Node000003_Node000012" class="edge">
<title>Node3&#45;&gt;Node12</title>
<g id="a_edge30_Node000003_Node000012"><a xlink:title=" ">
<path fill="none" stroke="#63b8ff" d="M1606.61,-397.79C1587.56,-363.9 1552.67,-298.44 1532.01,-239 1523.52,-214.58 1517.93,-184.89 1515.13,-167.7"/>
<polygon fill="#63b8ff" stroke="#63b8ff" points="1603.78,-399.89 1611.76,-406.86 1609.87,-396.44 1603.78,-399.89"/>
</a>
</g>
</g>
<!-- Node3&#45;&gt;Node19 -->
<g id="edge24_Node000003_Node000019" class="edge">
<title>Node3&#45;&gt;Node19</title>
<g id="a_edge24_Node000003_Node000019"><a xlink:title=" ">
<path fill="none" stroke="#63b8ff" d="M1696.19,-406.79C1753.27,-396.13 1830.99,-381.63 1887.83,-371.03"/>
<polygon fill="#63b8ff" stroke="#63b8ff" points="1695.33,-403.39 1686.14,-408.66 1696.62,-410.27 1695.33,-403.39"/>
</a>
</g>
</g>
<!-- Node3&#45;&gt;Node20 -->
<g id="edge25_Node000003_Node000020" class="edge">
<title>Node3&#45;&gt;Node20</title>
<g id="a_edge25_Node000003_Node000020"><a xlink:title=" ">
<path fill="none" stroke="#63b8ff" d="M1663.19,-403.05C1687.59,-392.91 1717.64,-380.43 1740.29,-371.01"/>
<polygon fill="#63b8ff" stroke="#63b8ff" points="1661.7,-399.89 1653.81,-406.95 1664.38,-406.35 1661.7,-399.89"/>
</a>
</g>
</g>
<!-- Node21 -->
<g id="Node000021" class="node">
<title>Node21</title>
<g id="a_Node000021"><a xlink:href="_request_headers_8hpp.html" target="_top" xlink:title=" ">
<polygon fill="white" stroke="#666666" points="1553.51,-371 1338.51,-371 1338.51,-341 1553.51,-341 1553.51,-371"/>
<text text-anchor="start" x="1346.51" y="-359" font-family="Helvetica,sans-Serif" font-size="10.00">include/Thoth/Http</text>
<text text-anchor="middle" x="1446.01" y="-348" font-family="Helvetica,sans-Serif" font-size="10.00">/NHeaders/Request/RequestHeaders.hpp</text>
</a>
</g>
</g>
<!-- Node3&#45;&gt;Node21 -->
<g id="edge26_Node000003_Node000021" class="edge">
<title>Node3&#45;&gt;Node21</title>
<g id="a_edge26_Node000003_Node000021"><a xlink:title=" ">
<path fill="none" stroke="#63b8ff" d="M1572.31,-403.46C1544.56,-393.25 1510.04,-380.55 1484.11,-371.01"/>
<polygon fill="#63b8ff" stroke="#63b8ff" points="1571.23,-406.79 1581.83,-406.95 1573.65,-400.22 1571.23,-406.79"/>
</a>
</g>
</g>
<!-- Node22 -->
<g id="Node000022" class="node">
<title>Node22</title>
<g id="a_Node000022"><a xlink:href="_response_headers_8hpp.html" target="_top" xlink:title=" ">
<polygon fill="white" stroke="#666666" points="1824.01,-173 1656.01,-173 1656.01,-132 1824.01,-132 1824.01,-173"/>
<text text-anchor="start" x="1664.01" y="-161" font-family="Helvetica,sans-Serif" font-size="10.00">include/Thoth/Http</text>
<text text-anchor="start" x="1664.01" y="-150" font-family="Helvetica,sans-Serif" font-size="10.00">/NHeaders/Response/Response</text>
<text text-anchor="middle" x="1740.01" y="-139" font-family="Helvetica,sans-Serif" font-size="10.00">Headers.hpp</text>
</a>
</g>
</g>
<!-- Node3&#45;&gt;Node22 -->
<g id="edge28_Node000003_Node000022" class="edge">
<title>Node3&#45;&gt;Node22</title>
<g id="a_edge28_Node000003_Node000022"><a xlink:title=" ">
<path fill="none" stroke="#63b8ff" d="M1636.94,-398.31C1660.8,-365.15 1703.86,-300.65 1726.01,-239 1733.84,-217.2 1737.32,-190.69 1738.84,-173.02"/>
<polygon fill="#63b8ff" stroke="#63b8ff" points="1633.81,-396.66 1630.76,-406.81 1639.47,-400.79 1633.81,-396.66"/>
</a>
</g>
</g>
<!-- Node4&#45;&gt;Node4 -->
<g id="edge4_Node000004_Node000004" class="edge">
<title>Node4&#45;&gt;Node4</title>
<g id="a_edge4_Node000004_Node000004"><a xlink:title=" ">
<path fill="none" stroke="#63b8ff" d="M1709.17,-232.29C1714.08,-230.27 1717.01,-227.51 1717.01,-224 1717.01,-218.52 1709.88,-214.86 1699.17,-213.02"/>
<polygon fill="#63b8ff" stroke="#63b8ff" points="1707.92,-229 1699.17,-234.98 1709.74,-235.76 1707.92,-229"/>
</a>
</g>
</g>
<!-- Node5 -->
<g id="Node000005" class="node">
<title>Node5</title>
<g id="a_Node000005"><a xlink:href="_response_8hpp.html" target="_top" xlink:title=" ">
<polygon fill="white" stroke="#666666" points="1556.01,-96 1418.01,-96 1418.01,-66 1556.01,-66 1556.01,-96"/>
<text text-anchor="start" x="1426.01" y="-84" font-family="Helvetica,sans-Serif" font-size="10.00">include/Thoth/Http</text>
<text text-anchor="middle" x="1487.01" y="-73" font-family="Helvetica,sans-Serif" font-size="10.00">/Response/Response.hpp</text>
</a>
</g>
</g>
<!-- Node4&#45;&gt;Node5 -->
<g id="edge5_Node000004_Node000005" class="edge">
<title>Node4&#45;&gt;Node5</title>
<g id="a_edge5_Node000004_Node000005"><a xlink:title=" ">
<path fill="none" stroke="#63b8ff" d="M1621.74,-198.55C1621.86,-178.61 1618.9,-150.77 1604.01,-132 1590.42,-114.87 1569.85,-103.51 1549.72,-96.02"/>
<polygon fill="#63b8ff" stroke="#63b8ff" points="1618.24,-198.6 1621.42,-208.71 1625.24,-198.82 1618.24,-198.6"/>
</a>
</g>
</g>
<!-- Node6 -->
<g id="Node000006" class="node">
<title>Node6</title>
<g id="a_Node000006"><a xlink:href="_client_8hpp.html" target="_top" xlink:title=" ">
<polygon fill="white" stroke="#666666" points="1440.51,-30 1333.51,-30 1333.51,0 1440.51,0 1440.51,-30"/>
<text text-anchor="start" x="1341.51" y="-18" font-family="Helvetica,sans-Serif" font-size="10.00">include/Thoth/Http</text>
<text text-anchor="middle" x="1387.01" y="-7" font-family="Helvetica,sans-Serif" font-size="10.00">/Client.hpp</text>
</a>
</g>
</g>
<!-- Node5&#45;&gt;Node6 -->
<g id="edge6_Node000005_Node000006" class="edge">
<title>Node5&#45;&gt;Node6</title>
<g id="a_edge6_Node000005_Node000006"><a xlink:title=" ">
<path fill="none" stroke="#63b8ff" d="M1456.23,-60.3C1441.01,-50.56 1422.98,-39.02 1409.14,-30.16"/>
<polygon fill="#63b8ff" stroke="#63b8ff" points="1454.51,-63.35 1464.82,-65.8 1458.28,-57.46 1454.51,-63.35"/>
</a>
</g>
</g>
<!-- Node8 -->
<g id="Node000008" class="node">
<title>Node8</title>
<g id="a_Node000008"><a xlink:href="_connect_method_8hpp.html" target="_top" xlink:title=" ">
<polygon fill="white" stroke="#666666" points="1358.01,-305 1196.01,-305 1196.01,-275 1358.01,-275 1358.01,-305"/>
<text text-anchor="start" x="1204.01" y="-293" font-family="Helvetica,sans-Serif" font-size="10.00">include/Thoth/Http</text>
<text text-anchor="middle" x="1277.01" y="-282" font-family="Helvetica,sans-Serif" font-size="10.00">/Methods/ConnectMethod.hpp</text>
</a>
</g>
</g>
<!-- Node7&#45;&gt;Node8 -->
<g id="edge8_Node000007_Node000008" class="edge">
<title>Node7&#45;&gt;Node8</title>
<g id="a_edge8_Node000007_Node000008"><a xlink:title=" ">
<path fill="none" stroke="#63b8ff" d="M1026.3,-339.04C1080.86,-328.59 1151.5,-315.05 1203.88,-305.01"/>
<polygon fill="#63b8ff" stroke="#63b8ff" points="1025.47,-335.64 1016.31,-340.95 1026.79,-342.51 1025.47,-335.64"/>
</a>
</g>
</g>
<!-- Node9 -->
<g id="Node000009" class="node">
<title>Node9</title>
<g id="a_Node000009"><a xlink:href="_delete_method_8hpp.html" target="_top" xlink:title=" ">
<polygon fill="white" stroke="#666666" points="343.51,-305 188.51,-305 188.51,-275 343.51,-275 343.51,-305"/>
<text text-anchor="start" x="196.51" y="-293" font-family="Helvetica,sans-Serif" font-size="10.00">include/Thoth/Http</text>
<text text-anchor="middle" x="266.01" y="-282" font-family="Helvetica,sans-Serif" font-size="10.00">/Methods/DeleteMethod.hpp</text>
</a>
</g>
</g>
<!-- Node7&#45;&gt;Node9 -->
<g id="edge9_Node000007_Node000009" class="edge">
<title>Node7&#45;&gt;Node9</title>
<g id="a_edge9_Node000007_Node000009"><a xlink:title=" ">
<path fill="none" stroke="#63b8ff" d="M835.79,-348.34C717.37,-340.42 521.18,-325.63 353.01,-305 349.97,-304.63 346.88,-304.23 343.76,-303.81"/>
<polygon fill="#63b8ff" stroke="#63b8ff" points="835.73,-351.84 845.95,-349.02 836.2,-344.86 835.73,-351.84"/>
</a>
</g>
</g>
<!-- Node10 -->
<g id="Node000010" class="node">
<title>Node10</title>
<g id="a_Node000010"><a xlink:href="_get_method_8hpp.html" target="_top" xlink:title=" ">
<polygon fill="white" stroke="#666666" points="1516.01,-305 1376.01,-305 1376.01,-275 1516.01,-275 1516.01,-305"/>
<text text-anchor="start" x="1384.01" y="-293" font-family="Helvetica,sans-Serif" font-size="10.00">include/Thoth/Http</text>
<text text-anchor="middle" x="1446.01" y="-282" font-family="Helvetica,sans-Serif" font-size="10.00">/Methods/GetMethod.hpp</text>
</a>
</g>
</g>
<!-- Node7&#45;&gt;Node10 -->
<g id="edge10_Node000007_Node000010" class="edge">
<title>Node7&#45;&gt;Node10</title>
<g id="a_edge10_Node000007_Node000010"><a xlink:title=" ">
<path fill="none" stroke="#63b8ff" d="M1050.07,-344.11C1135.93,-334.96 1259.44,-320.86 1367.01,-305 1369.9,-304.57 1372.85,-304.12 1375.83,-303.65"/>
<polygon fill="#63b8ff" stroke="#63b8ff" points="1049.63,-340.64 1040.05,-345.18 1050.36,-347.6 1049.63,-340.64"/>
</a>
</g>
</g>
<!-- Node13 -->
<g id="Node000013" class="node">
<title>Node13</title>
<g id="a_Node000013"><a xlink:href="_head_method_8hpp.html" target="_top" xlink:title=" ">
<polygon fill="white" stroke="#666666" points="510.01,-305 362.01,-305 362.01,-275 510.01,-275 510.01,-305"/>
<text text-anchor="start" x="370.01" y="-293" font-family="Helvetica,sans-Serif" font-size="10.00">include/Thoth/Http</text>
<text text-anchor="middle" x="436.01" y="-282" font-family="Helvetica,sans-Serif" font-size="10.00">/Methods/HeadMethod.hpp</text>
</a>
</g>
</g>
<!-- Node7&#45;&gt;Node13 -->
<g id="edge16_Node000007_Node000013" class="edge">
<title>Node7&#45;&gt;Node13</title>
<g id="a_edge16_Node000007_Node000013"><a xlink:title=" ">
<path fill="none" stroke="#63b8ff" d="M835.99,-343.87C750.14,-334.58 626.64,-320.41 519.01,-305 516.12,-304.59 513.17,-304.15 510.19,-303.7"/>
<polygon fill="#63b8ff" stroke="#63b8ff" points="835.69,-347.36 846,-344.95 836.44,-340.4 835.69,-347.36"/>
</a>
</g>
</g>
<!-- Node14 -->
<g id="Node000014" class="node">
<title>Node14</title>
<g id="a_Node000014"><a xlink:href="_options_method_8hpp.html" target="_top" xlink:title=" ">
<polygon fill="white" stroke="#666666" points="688.01,-305 528.01,-305 528.01,-275 688.01,-275 688.01,-305"/>
<text text-anchor="start" x="536.01" y="-293" font-family="Helvetica,sans-Serif" font-size="10.00">include/Thoth/Http</text>
<text text-anchor="middle" x="608.01" y="-282" font-family="Helvetica,sans-Serif" font-size="10.00">/Methods/OptionsMethod.hpp</text>
</a>
</g>
</g>
<!-- Node7&#45;&gt;Node14 -->
<g id="edge17_Node000007_Node000014" class="edge">
<title>Node7&#45;&gt;Node14</title>
<g id="a_edge17_Node000007_Node000014"><a xlink:title=" ">
<path fill="none" stroke="#63b8ff" d="M859.47,-339.04C804.75,-328.59 733.9,-315.05 681.36,-305.01"/>
<polygon fill="#63b8ff" stroke="#63b8ff" points="859.01,-342.52 869.49,-340.95 860.33,-335.64 859.01,-342.52"/>
</a>
</g>
</g>
<!-- Node15 -->
<g id="Node000015" class="node">
<title>Node15</title>
<g id="a_Node000015"><a xlink:href="_patch_method_8hpp.html" target="_top" xlink:title=" ">
<polygon fill="white" stroke="#666666" points="855.51,-305 706.51,-305 706.51,-275 855.51,-275 855.51,-305"/>
<text text-anchor="start" x="714.51" y="-293" font-family="Helvetica,sans-Serif" font-size="10.00">include/Thoth/Http</text>
<text text-anchor="middle" x="781.01" y="-282" font-family="Helvetica,sans-Serif" font-size="10.00">/Methods/PatchMethod.hpp</text>
</a>
</g>
</g>
<!-- Node7&#45;&gt;Node15 -->
<g id="edge18_Node000007_Node000015" class="edge">
<title>Node7&#45;&gt;Node15</title>
<g id="a_edge18_Node000007_Node000015"><a xlink:title=" ">
<path fill="none" stroke="#63b8ff" d="M897.92,-337.19C872.2,-327.02 840.41,-314.47 816.48,-305.01"/>
<polygon fill="#63b8ff" stroke="#63b8ff" points="896.87,-340.54 907.46,-340.95 899.44,-334.03 896.87,-340.54"/>
</a>
</g>
</g>
<!-- Node16 -->
<g id="Node000016" class="node">
<title>Node16</title>
<g id="a_Node000016"><a xlink:href="_post_method_8hpp.html" target="_top" xlink:title=" ">
<polygon fill="white" stroke="#666666" points="170.51,-305 27.51,-305 27.51,-275 170.51,-275 170.51,-305"/>
<text text-anchor="start" x="35.51" y="-293" font-family="Helvetica,sans-Serif" font-size="10.00">include/Thoth/Http</text>
<text text-anchor="middle" x="99.01" y="-282" font-family="Helvetica,sans-Serif" font-size="10.00">/Methods/PostMethod.hpp</text>
</a>
</g>
</g>
<!-- Node7&#45;&gt;Node16 -->
<g id="edge19_Node000007_Node000016" class="edge">
<title>Node7&#45;&gt;Node16</title>
<g id="a_edge19_Node000007_Node000016"><a xlink:title=" ">
<path fill="none" stroke="#63b8ff" d="M835.91,-351.64C687.83,-346.16 412.36,-332.97 179.01,-305 176.35,-304.68 173.64,-304.33 170.91,-303.96"/>
<polygon fill="#63b8ff" stroke="#63b8ff" points="835.8,-355.13 845.92,-352 836.05,-348.14 835.8,-355.13"/>
</a>
</g>
</g>
<!-- Node17 -->
<g id="Node000017" class="node">
<title>Node17</title>
<g id="a_Node000017"><a xlink:href="_put_method_8hpp.html" target="_top" xlink:title=" ">
<polygon fill="white" stroke="#666666" points="1012.01,-305 874.01,-305 874.01,-275 1012.01,-275 1012.01,-305"/>
<text text-anchor="start" x="882.01" y="-293" font-family="Helvetica,sans-Serif" font-size="10.00">include/Thoth/Http</text>
<text text-anchor="middle" x="943.01" y="-282" font-family="Helvetica,sans-Serif" font-size="10.00">/Methods/PutMethod.hpp</text>
</a>
</g>
</g>
<!-- Node7&#45;&gt;Node17 -->
<g id="edge22_Node000007_Node000017" class="edge">
<title>Node7&#45;&gt;Node17</title>
<g id="a_edge22_Node000007_Node000017"><a xlink:title=" ">
<path fill="none" stroke="#63b8ff" d="M943.01,-330.54C943.01,-321.96 943.01,-312.61 943.01,-305.16"/>
<polygon fill="#63b8ff" stroke="#63b8ff" points="939.51,-330.8 943.01,-340.8 946.51,-330.8 939.51,-330.8"/>
</a>
</g>
</g>
<!-- Node18 -->
<g id="Node000018" class="node">
<title>Node18</title>
<g id="a_Node000018"><a xlink:href="_trace_method_8hpp.html" target="_top" xlink:title=" ">
<polygon fill="white" stroke="#666666" points="1178.01,-305 1030.01,-305 1030.01,-275 1178.01,-275 1178.01,-305"/>
<text text-anchor="start" x="1038.01" y="-293" font-family="Helvetica,sans-Serif" font-size="10.00">include/Thoth/Http</text>
<text text-anchor="middle" x="1104.01" y="-282" font-family="Helvetica,sans-Serif" font-size="10.00">/Methods/TraceMethod.hpp</text>
</a>
</g>
</g>
<!-- Node7&#45;&gt;Node18 -->
<g id="edge23_Node000007_Node000018" class="edge">
<title>Node7&#45;&gt;Node18</title>
<g id="a_edge23_Node000007_Node000018"><a xlink:title=" ">
<path fill="none" stroke="#63b8ff" d="M987.82,-337.19C1013.39,-327.02 1044.98,-314.47 1068.76,-305.01"/>
<polygon fill="#63b8ff" stroke="#63b8ff" points="986.34,-334.01 978.34,-340.95 988.93,-340.51 986.34,-334.01"/>
</a>
</g>
</g>
<!-- Node10&#45;&gt;Node5 -->
<g id="edge15_Node000010_Node000005" class="edge">
<title>Node10&#45;&gt;Node5</title>
<g id="a_edge15_Node000010_Node000005"><a xlink:title=" ">
<path fill="none" stroke="#63b8ff" d="M1434.15,-265.32C1419.95,-233.39 1400.58,-175.53 1422.01,-132 1429.62,-116.55 1444.56,-104.53 1458.2,-96.16"/>
<polygon fill="#63b8ff" stroke="#63b8ff" points="1431.14,-267.13 1438.53,-274.72 1437.48,-264.18 1431.14,-267.13"/>
</a>
</g>
</g>
<!-- Node11 -->
<g id="Node000011" class="node">
<title>Node11</title>
<g id="a_Node000011"><a xlink:href="_request_8hpp.html" target="_top" xlink:title=" ">
<polygon fill="white" stroke="#666666" points="1374.51,-239 1251.51,-239 1251.51,-209 1374.51,-209 1374.51,-239"/>
<text text-anchor="start" x="1259.51" y="-227" font-family="Helvetica,sans-Serif" font-size="10.00">include/Thoth/Http</text>
<text text-anchor="middle" x="1313.01" y="-216" font-family="Helvetica,sans-Serif" font-size="10.00">/Request/Request.hpp</text>
</a>
</g>
</g>
<!-- Node10&#45;&gt;Node11 -->
<g id="edge11_Node000010_Node000011" class="edge">
<title>Node10&#45;&gt;Node11</title>
<g id="a_edge11_Node000010_Node000011"><a xlink:title=" ">
<path fill="none" stroke="#63b8ff" d="M1407.59,-270.51C1386.73,-260.47 1361.35,-248.26 1342.13,-239.01"/>
<polygon fill="#63b8ff" stroke="#63b8ff" points="1406.29,-273.77 1416.82,-274.95 1409.33,-267.46 1406.29,-273.77"/>
</a>
</g>
</g>
<!-- Node11&#45;&gt;Node6 -->
<g id="edge12_Node000011_Node000006" class="edge">
<title>Node11&#45;&gt;Node6</title>
<g id="a_edge12_Node000011_Node000006"><a xlink:title=" ">
<path fill="none" stroke="#63b8ff" d="M1321.48,-199.31C1336.99,-155.92 1369.51,-64.96 1381.99,-30.05"/>
<polygon fill="#63b8ff" stroke="#63b8ff" points="1318.17,-198.18 1318.1,-208.77 1324.76,-200.53 1318.17,-198.18"/>
</a>
</g>
</g>
<!-- Node11&#45;&gt;Node12 -->
<g id="edge13_Node000011_Node000012" class="edge">
<title>Node11&#45;&gt;Node12</title>
<g id="a_edge13_Node000011_Node000012"><a xlink:title=" ">
<path fill="none" stroke="#63b8ff" d="M1363.18,-205.57C1397,-193.81 1441.03,-178.51 1472.6,-167.54"/>
<polygon fill="#63b8ff" stroke="#63b8ff" points="1361.78,-202.35 1353.48,-208.94 1364.08,-208.96 1361.78,-202.35"/>
</a>
</g>
</g>
<!-- Node12&#45;&gt;Node5 -->
<g id="edge14_Node000012_Node000005" class="edge">
<title>Node12&#45;&gt;Node5</title>
<g id="a_edge14_Node000012_Node000005"><a xlink:title=" ">
<path fill="none" stroke="#63b8ff" d="M1504.18,-127.9C1500.22,-117.31 1495.68,-105.18 1492.26,-96.04"/>
<polygon fill="#63b8ff" stroke="#63b8ff" points="1500.97,-129.3 1507.75,-137.44 1507.52,-126.84 1500.97,-129.3"/>
</a>
</g>
</g>
<!-- Node16&#45;&gt;Node5 -->
<g id="edge21_Node000016_Node000005" class="edge">
<title>Node16&#45;&gt;Node5</title>
<g id="a_edge21_Node000016_Node000005"><a xlink:title=" ">
<path fill="none" stroke="#63b8ff" d="M180.41,-274.8C659.57,-197.67 1224.01,-118.42 1417.78,-91.55"/>
<polygon fill="#63b8ff" stroke="#63b8ff" points="179.84,-271.34 170.52,-276.39 180.95,-278.25 179.84,-271.34"/>
</a>
</g>
</g>
<!-- Node16&#45;&gt;Node11 -->
<g id="edge20_Node000016_Node000011" class="edge">
<title>Node16&#45;&gt;Node11</title>
<g id="a_edge20_Node000016_Node000011"><a xlink:title=" ">
<path fill="none" stroke="#63b8ff" d="M181.14,-274.88C409.38,-251.44 1049.42,-232.29 1251.27,-226.67"/>
<polygon fill="#63b8ff" stroke="#63b8ff" points="180.48,-271.43 170.91,-275.97 181.22,-278.39 180.48,-271.43"/>
</a>
</g>
</g>
<!-- Node21&#45;&gt;Node11 -->
<g id="edge27_Node000021_Node000011" class="edge">
<title>Node21&#45;&gt;Node11</title>
<g id="a_edge27_Node000021_Node000011"><a xlink:title=" ">
<path fill="none" stroke="#63b8ff" d="M1486.42,-336.1C1514.1,-320.56 1542.83,-297.51 1525.01,-275 1506.5,-251.61 1430.3,-238.06 1374.54,-231.11"/>
<polygon fill="#63b8ff" stroke="#63b8ff" points="1484.69,-333.06 1477.53,-340.87 1488,-339.23 1484.69,-333.06"/>
</a>
</g>
</g>
<!-- Node22&#45;&gt;Node5 -->
<g id="edge29_Node000022_Node000005" class="edge">
<title>Node22&#45;&gt;Node5</title>
<g id="a_edge29_Node000022_Node000005"><a xlink:title=" ">
<path fill="none" stroke="#63b8ff" d="M1659.18,-129.3C1619.42,-118.37 1572.72,-105.54 1537.99,-96"/>
<polygon fill="#63b8ff" stroke="#63b8ff" points="1658.29,-132.68 1668.86,-131.96 1660.15,-125.93 1658.29,-132.68"/>
</a>
</g>
</g>
<!-- Node23&#45;&gt;Node2 -->
<g id="edge34_Node000023_Node000002" class="edge">
<title>Node23&#45;&gt;Node2</title>
<g id="a_edge34_Node000023_Node000002"><a xlink:title=" ">
<path fill="none" stroke="#63b8ff" d="M1611.3,-532.48C1623.56,-522.91 1637.83,-511.77 1648.86,-503.16"/>
<polygon fill="#63b8ff" stroke="#63b8ff" points="1608.94,-529.88 1603.21,-538.8 1613.25,-535.4 1608.94,-529.88"/>
</a>
</g>
</g>
<!-- Node24 -->
<g id="Node000024" class="node">
<title>Node24</title>
<g id="a_Node000024"><a xlink:href="_url_8hpp.html" target="_top" xlink:title=" ">
<polygon fill="white" stroke="#666666" points="1285.51,-503 1178.51,-503 1178.51,-473 1285.51,-473 1285.51,-503"/>
<text text-anchor="start" x="1186.51" y="-491" font-family="Helvetica,sans-Serif" font-size="10.00">include/Thoth/Http</text>
<text text-anchor="middle" x="1232.01" y="-480" font-family="Helvetica,sans-Serif" font-size="10.00">/Url/Url.hpp</text>
</a>
</g>
</g>
<!-- Node23&#45;&gt;Node24 -->
<g id="edge35_Node000023_Node000024" class="edge">
<title>Node23&#45;&gt;Node24</title>
<g id="a_edge35_Node000023_Node000024"><a xlink:title=" ">
<path fill="none" stroke="#63b8ff" d="M1520.55,-541.31C1453.16,-529.09 1348.61,-510.14 1285.59,-498.71"/>
<polygon fill="#63b8ff" stroke="#63b8ff" points="1520.16,-544.8 1530.63,-543.14 1521.41,-537.91 1520.16,-544.8"/>
</a>
</g>
</g>
<!-- Node24&#45;&gt;Node3 -->
<g id="edge37_Node000024_Node000003" class="edge">
<title>Node24&#45;&gt;Node3</title>
<g id="a_edge37_Node000024_Node000003"><a xlink:title=" ">
<path fill="none" stroke="#63b8ff" d="M1295.73,-476.49C1366.89,-464.75 1481.53,-445.84 1553.72,-433.93"/>
<polygon fill="#63b8ff" stroke="#63b8ff" points="1294.85,-473.09 1285.55,-478.17 1295.99,-479.99 1294.85,-473.09"/>
</a>
</g>
</g>
<!-- Node24&#45;&gt;Node7 -->
<g id="edge36_Node000024_Node000007" class="edge">
<title>Node24&#45;&gt;Node7</title>
<g id="a_edge36_Node000024_Node000007"><a xlink:title=" ">
<path fill="none" stroke="#63b8ff" d="M1191.55,-468.8C1133.37,-442.63 1027.27,-394.9 974.52,-371.17"/>
<polygon fill="#63b8ff" stroke="#63b8ff" points="1190.25,-472.05 1200.81,-472.96 1193.12,-465.67 1190.25,-472.05"/>
</a>
</g>
</g>
<!-- Node24&#45;&gt;Node11 -->
<g id="edge38_Node000024_Node000011" class="edge">
<title>Node24&#45;&gt;Node11</title>
<g id="a_edge38_Node000024_Node000011"><a xlink:title=" ">
<path fill="none" stroke="#63b8ff" d="M1168.02,-485.9C895.47,-480.15 -147.3,-446.82 18.01,-275 61.2,-230.11 999.13,-225.47 1251.14,-225.03"/>
<polygon fill="#63b8ff" stroke="#63b8ff" points="1168.08,-489.4 1178.15,-486.11 1168.22,-482.4 1168.08,-489.4"/>
</a>
</g>
</g>
</g>
</svg>
