<?xml version="1.0" encoding="UTF-8" standalone="no"?>
<!DOCTYPE svg PUBLIC "-//W3C//DTD SVG 1.1//EN"
 "http://www.w3.org/Graphics/SVG/1.1/DTD/svg11.dtd">
<!-- Generated by graphviz version 2.43.0 (0)
 -->
<!-- Title: include/Thoth/Http/Methods/TraceMethod.hpp Pages: 1 -->
<svg width="826pt" height="357pt"
 viewBox="0.00 0.00 825.66 357.00" xmlns="http://www.w3.org/2000/svg" xmlns:xlink="http://www.w3.org/1999/xlink">
<g id="graph0" class="graph" transform="scale(1 1) rotate(0) translate(4 353)">
<title>include/Thoth/Http/Methods/TraceMethod.hpp</title>
<!-- Node1 -->
<g id="Node000001" class="node">
<title>Node1</title>
<g id="a_Node000001"><a xlink:title=" ">
<polygon fill="#999999" stroke="#666666" points="421.5,-349 273.5,-349 273.5,-319 421.5,-319 421.5,-349"/>
<text text-anchor="start" x="281.5" y="-337" font-family="Helvetica,sans-Serif" font-size="10.00">include/Thoth/Http</text>
<text text-anchor="middle" x="347.5" y="-326" font-family="Helvetica,sans-Serif" font-size="10.00">/Methods/TraceMethod.hpp</text>
</a>
</g>
</g>
<!-- Node2 -->
<g id="Node000002" class="node">
<title>Node2</title>
<g id="a_Node000002"><a xlink:href="_method_concept_8hpp.html" target="_top" xlink:title=" ">
<polygon fill="white" stroke="#666666" points="422,-283 273,-283 273,-253 422,-253 422,-283"/>
<text text-anchor="start" x="281" y="-271" font-family="Helvetica,sans-Serif" font-size="10.00">Thoth/Http/Methods</text>
<text text-anchor="middle" x="347.5" y="-260" font-family="Helvetica,sans-Serif" font-size="10.00">/_base/MethodConcept.hpp</text>
</a>
</g>
</g>
<!-- Node1&#45;&gt;Node2 -->
<g id="edge1_Node000001_Node000002" class="edge">
<title>Node1&#45;&gt;Node2</title>
<g id="a_edge1_Node000001_Node000002"><a xlink:title=" ">
<path fill="none" stroke="#63b8ff" d="M347.5,-318.8C347.5,-311.34 347.5,-301.99 347.5,-293.41"/>
<polygon fill="#63b8ff" stroke="#63b8ff" points="351,-293.16 347.5,-283.16 344,-293.16 351,-293.16"/>
</a>
</g>
</g>
<!-- Node3 -->
<g id="Node000003" class="node">
<title>Node3</title>
<g id="a_Node000003"><a xlink:href="_status_code_enum_8hpp.html" target="_top" xlink:title=" ">
<polygon fill="white" stroke="#666666" points="329.5,-151 205.5,-151 205.5,-121 329.5,-121 329.5,-151"/>
<text text-anchor="start" x="213.5" y="-139" font-family="Helvetica,sans-Serif" font-size="10.00">Thoth/Http/Response</text>
<text text-anchor="middle" x="267.5" y="-128" font-family="Helvetica,sans-Serif" font-size="10.00">/StatusCodeEnum.hpp</text>
</a>
</g>
</g>
<!-- Node2&#45;&gt;Node3 -->
<g id="edge2_Node000002_Node000003" class="edge">
<title>Node2&#45;&gt;Node3</title>
<g id="a_edge2_Node000002_Node000003"><a xlink:title=" ">
<path fill="none" stroke="#63b8ff" d="M338.79,-252.84C325.02,-230.47 298.11,-186.74 281.58,-159.88"/>
<polygon fill="#63b8ff" stroke="#63b8ff" points="284.42,-157.82 276.2,-151.14 278.46,-161.49 284.42,-157.82"/>
</a>
</g>
</g>
<!-- Node6 -->
<g id="Node000006" class="node">
<title>Node6</title>
<g id="a_Node000006"><a xlink:href="_url_8hpp.html" target="_top" xlink:title=" ">
<polygon fill="white" stroke="#666666" points="233,-217 122,-217 122,-187 233,-187 233,-217"/>
<text text-anchor="start" x="130" y="-205" font-family="Helvetica,sans-Serif" font-size="10.00">Thoth/Http/Request</text>
<text text-anchor="middle" x="177.5" y="-194" font-family="Helvetica,sans-Serif" font-size="10.00">/Url.hpp</text>
</a>
</g>
</g>
<!-- Node2&#45;&gt;Node6 -->
<g id="edge5_Node000002_Node000006" class="edge">
<title>Node2&#45;&gt;Node6</title>
<g id="a_edge5_Node000002_Node000006"><a xlink:title=" ">
<path fill="none" stroke="#63b8ff" d="M310.19,-252.95C284.95,-243.45 251.41,-230.82 224.36,-220.64"/>
<polygon fill="#63b8ff" stroke="#63b8ff" points="225.31,-217.26 214.72,-217.01 222.85,-223.81 225.31,-217.26"/>
</a>
</g>
</g>
<!-- Node19 -->
<g id="Node000019" class="node">
<title>Node19</title>
<g id="a_Node000019"><a xlink:href="_headers_8hpp.html" target="_top" xlink:title=" ">
<polygon fill="white" stroke="#666666" points="462,-211.5 329,-211.5 329,-192.5 462,-192.5 462,-211.5"/>
<text text-anchor="middle" x="395.5" y="-199.5" font-family="Helvetica,sans-Serif" font-size="10.00">Thoth/Http/Headers.hpp</text>
</a>
</g>
</g>
<!-- Node2&#45;&gt;Node19 -->
<g id="edge22_Node000002_Node000019" class="edge">
<title>Node2&#45;&gt;Node19</title>
<g id="a_edge22_Node000002_Node000019"><a xlink:title=" ">
<path fill="none" stroke="#63b8ff" d="M358.15,-252.8C365.42,-243.11 375.07,-230.24 382.74,-220.01"/>
<polygon fill="#63b8ff" stroke="#63b8ff" points="385.67,-221.94 388.87,-211.84 380.07,-217.74 385.67,-221.94"/>
</a>
</g>
</g>
<!-- Node22 -->
<g id="Node000022" class="node">
<title>Node22</title>
<g id="a_Node000022"><a xlink:title=" ">
<polygon fill="#e0e0e0" stroke="#999999" points="553,-211.5 480,-211.5 480,-192.5 553,-192.5 553,-211.5"/>
<text text-anchor="middle" x="516.5" y="-199.5" font-family="Helvetica,sans-Serif" font-size="10.00">string_view</text>
</a>
</g>
</g>
<!-- Node2&#45;&gt;Node22 -->
<g id="edge30_Node000002_Node000022" class="edge">
<title>Node2&#45;&gt;Node22</title>
<g id="a_edge30_Node000002_Node000022"><a xlink:title=" ">
<path fill="none" stroke="#63b8ff" d="M384.59,-252.95C414.49,-241.63 456.1,-225.88 484.54,-215.1"/>
<polygon fill="#63b8ff" stroke="#63b8ff" points="485.9,-218.33 494.01,-211.52 483.42,-211.79 485.9,-218.33"/>
</a>
</g>
</g>
<!-- Node4 -->
<g id="Node000004" class="node">
<title>Node4</title>
<g id="a_Node000004"><a xlink:title=" ">
<polygon fill="#e0e0e0" stroke="#999999" points="193.5,-79.5 131.5,-79.5 131.5,-60.5 193.5,-60.5 193.5,-79.5"/>
<text text-anchor="middle" x="162.5" y="-67.5" font-family="Helvetica,sans-Serif" font-size="10.00">expected</text>
</a>
</g>
</g>
<!-- Node3&#45;&gt;Node4 -->
<g id="edge3_Node000003_Node000004" class="edge">
<title>Node3&#45;&gt;Node4</title>
<g id="a_edge3_Node000003_Node000004"><a xlink:title=" ">
<path fill="none" stroke="#63b8ff" d="M244.46,-120.95C226.94,-110.27 202.94,-95.65 185.44,-84.98"/>
<polygon fill="#63b8ff" stroke="#63b8ff" points="186.83,-81.73 176.47,-79.52 183.19,-87.71 186.83,-81.73"/>
</a>
</g>
</g>
<!-- Node5 -->
<g id="Node000005" class="node">
<title>Node5</title>
<g id="a_Node000005"><a xlink:title=" ">
<polygon fill="#e0e0e0" stroke="#999999" points="374.5,-79.5 318.5,-79.5 318.5,-60.5 374.5,-60.5 374.5,-79.5"/>
<text text-anchor="middle" x="346.5" y="-67.5" font-family="Helvetica,sans-Serif" font-size="10.00">optional</text>
</a>
</g>
</g>
<!-- Node3&#45;&gt;Node5 -->
<g id="edge4_Node000003_Node000005" class="edge">
<title>Node3&#45;&gt;Node5</title>
<g id="a_edge4_Node000003_Node000005"><a xlink:title=" ">
<path fill="none" stroke="#63b8ff" d="M285.03,-120.8C297.71,-110.53 314.82,-96.67 327.76,-86.18"/>
<polygon fill="#63b8ff" stroke="#63b8ff" points="330.02,-88.86 335.58,-79.84 325.61,-83.42 330.02,-88.86"/>
</a>
</g>
</g>
<!-- Node6&#45;&gt;Node4 -->
<g id="edge6_Node000006_Node000004" class="edge">
<title>Node6&#45;&gt;Node4</title>
<g id="a_edge6_Node000006_Node000004"><a xlink:title=" ">
<path fill="none" stroke="#63b8ff" d="M172.45,-186.77C169.2,-176.88 165.27,-163.31 163.5,-151 160.54,-130.42 160.7,-106.56 161.34,-90.29"/>
<polygon fill="#63b8ff" stroke="#63b8ff" points="164.86,-90.1 161.86,-79.94 157.87,-89.75 164.86,-90.1"/>
</a>
</g>
</g>
<!-- Node7 -->
<g id="Node000007" class="node">
<title>Node7</title>
<g id="a_Node000007"><a xlink:title=" ">
<polygon fill="#e0e0e0" stroke="#999999" points="300.5,-79.5 256.5,-79.5 256.5,-60.5 300.5,-60.5 300.5,-79.5"/>
<text text-anchor="middle" x="278.5" y="-67.5" font-family="Helvetica,sans-Serif" font-size="10.00">string</text>
</a>
</g>
</g>
<!-- Node6&#45;&gt;Node7 -->
<g id="edge7_Node000006_Node000007" class="edge">
<title>Node6&#45;&gt;Node7</title>
<g id="a_edge7_Node000006_Node000007"><a xlink:title=" ">
<path fill="none" stroke="#63b8ff" d="M177.65,-186.93C178.5,-169.81 182.15,-140.75 196.5,-121 209.07,-103.7 229.62,-91.18 247.01,-83"/>
<polygon fill="#63b8ff" stroke="#63b8ff" points="248.55,-86.15 256.27,-78.9 245.71,-79.75 248.55,-86.15"/>
</a>
</g>
</g>
<!-- Node8 -->
<g id="Node000008" class="node">
<title>Node8</title>
<g id="a_Node000008"><a xlink:href="_query_params_8hpp.html" target="_top" xlink:title=" ">
<polygon fill="white" stroke="#666666" points="535,-151 424,-151 424,-121 535,-121 535,-151"/>
<text text-anchor="start" x="432" y="-139" font-family="Helvetica,sans-Serif" font-size="10.00">Thoth/Http/Request</text>
<text text-anchor="middle" x="479.5" y="-128" font-family="Helvetica,sans-Serif" font-size="10.00">/QueryParams.hpp</text>
</a>
</g>
</g>
<!-- Node6&#45;&gt;Node8 -->
<g id="edge8_Node000006_Node000008" class="edge">
<title>Node6&#45;&gt;Node8</title>
<g id="a_edge8_Node000006_Node000008"><a xlink:title=" ">
<path fill="none" stroke="#63b8ff" d="M233.24,-189.19C284.35,-178.36 360.05,-162.31 414.01,-150.88"/>
<polygon fill="#63b8ff" stroke="#63b8ff" points="414.77,-154.3 423.83,-148.8 413.32,-147.45 414.77,-154.3"/>
</a>
</g>
</g>
<!-- Node18 -->
<g id="Node000018" class="node">
<title>Node18</title>
<g id="a_Node000018"><a xlink:title=" ">
<polygon fill="#e0e0e0" stroke="#999999" points="111,-151 0,-151 0,-121 111,-121 111,-151"/>
<text text-anchor="start" x="8" y="-139" font-family="Helvetica,sans-Serif" font-size="10.00">Thoth/Http/Request</text>
<text text-anchor="middle" x="55.5" y="-128" font-family="Helvetica,sans-Serif" font-size="10.00">/Url.tpp</text>
</a>
</g>
</g>
<!-- Node6&#45;&gt;Node18 -->
<g id="edge21_Node000006_Node000018" class="edge">
<title>Node6&#45;&gt;Node18</title>
<g id="a_edge21_Node000006_Node000018"><a xlink:title=" ">
<path fill="none" stroke="#63b8ff" d="M150.73,-186.95C133.25,-177.78 110.22,-165.71 91.19,-155.72"/>
<polygon fill="#63b8ff" stroke="#63b8ff" points="92.69,-152.56 82.21,-151.01 89.44,-158.76 92.69,-152.56"/>
</a>
</g>
</g>
<!-- Node8&#45;&gt;Node5 -->
<g id="edge9_Node000008_Node000005" class="edge">
<title>Node8&#45;&gt;Node5</title>
<g id="a_edge9_Node000008_Node000005"><a xlink:title=" ">
<path fill="none" stroke="#63b8ff" d="M450.31,-120.95C427.4,-109.93 395.75,-94.7 373.43,-83.96"/>
<polygon fill="#63b8ff" stroke="#63b8ff" points="374.73,-80.7 364.2,-79.52 371.69,-87.01 374.73,-80.7"/>
</a>
</g>
</g>
<!-- Node8&#45;&gt;Node7 -->
<g id="edge12_Node000008_Node000007" class="edge">
<title>Node8&#45;&gt;Node7</title>
<g id="a_edge12_Node000008_Node000007"><a xlink:title=" ">
<path fill="none" stroke="#63b8ff" d="M424.51,-120.9C390.92,-111.78 347.29,-99.01 309.5,-85 308.29,-84.55 307.05,-84.07 305.81,-83.58"/>
<polygon fill="#63b8ff" stroke="#63b8ff" points="306.93,-80.25 296.36,-79.57 304.2,-86.7 306.93,-80.25"/>
</a>
</g>
</g>
<!-- Node9 -->
<g id="Node000009" class="node">
<title>Node9</title>
<g id="a_Node000009"><a xlink:title=" ">
<polygon fill="#e0e0e0" stroke="#999999" points="769.5,-79.5 719.5,-79.5 719.5,-60.5 769.5,-60.5 769.5,-79.5"/>
<text text-anchor="middle" x="744.5" y="-67.5" font-family="Helvetica,sans-Serif" font-size="10.00">format</text>
</a>
</g>
</g>
<!-- Node8&#45;&gt;Node9 -->
<g id="edge10_Node000008_Node000009" class="edge">
<title>Node8&#45;&gt;Node9</title>
<g id="a_edge10_Node000008_Node000009"><a xlink:title=" ">
<path fill="none" stroke="#63b8ff" d="M535.11,-123.54C591.27,-111.82 674.08,-94.07 705.5,-85 707.77,-84.34 710.11,-83.62 712.45,-82.87"/>
<polygon fill="#63b8ff" stroke="#63b8ff" points="713.63,-86.16 721.97,-79.63 711.38,-79.54 713.63,-86.16"/>
</a>
</g>
</g>
<!-- Node10 -->
<g id="Node000010" class="node">
<title>Node10</title>
<g id="a_Node000010"><a xlink:title=" ">
<polygon fill="#e0e0e0" stroke="#999999" points="816,-19 769,-19 769,0 816,0 816,-19"/>
<text text-anchor="middle" x="792.5" y="-7" font-family="Helvetica,sans-Serif" font-size="10.00">vector</text>
</a>
</g>
</g>
<!-- Node8&#45;&gt;Node10 -->
<g id="edge11_Node000008_Node000010" class="edge">
<title>Node8&#45;&gt;Node10</title>
<g id="a_edge11_Node000008_Node000010"><a xlink:title=" ">
<path fill="none" stroke="#63b8ff" d="M535.17,-123.26C583.21,-112.64 648.55,-96.89 672.5,-85 691.77,-75.43 692.53,-66.84 710.5,-55 728.25,-43.3 749.35,-31.9 765.7,-23.57"/>
<polygon fill="#63b8ff" stroke="#63b8ff" points="767.36,-26.66 774.72,-19.04 764.21,-20.4 767.36,-26.66"/>
</a>
</g>
</g>
<!-- Node11 -->
<g id="Node000011" class="node">
<title>Node11</title>
<g id="a_Node000011"><a xlink:href="_linear_map_8hpp.html" target="_top" xlink:title=" ">
<polygon fill="white" stroke="#666666" points="663,-79.5 522,-79.5 522,-60.5 663,-60.5 663,-79.5"/>
<text text-anchor="middle" x="592.5" y="-67.5" font-family="Helvetica,sans-Serif" font-size="10.00">Thoth/Dsa/LinearMap.hpp</text>
</a>
</g>
</g>
<!-- Node8&#45;&gt;Node11 -->
<g id="edge13_Node000008_Node000011" class="edge">
<title>Node8&#45;&gt;Node11</title>
<g id="a_edge13_Node000008_Node000011"><a xlink:title=" ">
<path fill="none" stroke="#63b8ff" d="M504.3,-120.95C523.42,-110.13 549.7,-95.24 568.59,-84.54"/>
<polygon fill="#63b8ff" stroke="#63b8ff" points="570.49,-87.49 577.46,-79.52 567.04,-81.4 570.49,-87.49"/>
</a>
</g>
</g>
<!-- Node17 -->
<g id="Node000017" class="node">
<title>Node17</title>
<g id="a_Node000017"><a xlink:title=" ">
<polygon fill="#e0e0e0" stroke="#999999" points="504,-85 393,-85 393,-55 504,-55 504,-85"/>
<text text-anchor="start" x="401" y="-73" font-family="Helvetica,sans-Serif" font-size="10.00">Thoth/Http/Request</text>
<text text-anchor="middle" x="448.5" y="-62" font-family="Helvetica,sans-Serif" font-size="10.00">/QueryParams.tpp</text>
</a>
</g>
</g>
<!-- Node8&#45;&gt;Node17 -->
<g id="edge20_Node000008_Node000017" class="edge">
<title>Node8&#45;&gt;Node17</title>
<g id="a_edge20_Node000008_Node000017"><a xlink:title=" ">
<path fill="none" stroke="#63b8ff" d="M472.62,-120.8C468.85,-113.01 464.08,-103.16 459.77,-94.28"/>
<polygon fill="#63b8ff" stroke="#63b8ff" points="462.87,-92.64 455.36,-85.16 456.57,-95.69 462.87,-92.64"/>
</a>
</g>
</g>
<!-- Node11&#45;&gt;Node10 -->
<g id="edge14_Node000011_Node000010" class="edge">
<title>Node11&#45;&gt;Node10</title>
<g id="a_edge14_Node000011_Node000010"><a xlink:title=" ">
<path fill="none" stroke="#63b8ff" d="M621.58,-60.49C658.08,-49.82 720.55,-31.55 759.01,-20.3"/>
<polygon fill="#63b8ff" stroke="#63b8ff" points="760.09,-23.63 768.71,-17.46 758.13,-16.91 760.09,-23.63"/>
</a>
</g>
</g>
<!-- Node12 -->
<g id="Node000012" class="node">
<title>Node12</title>
<g id="a_Node000012"><a xlink:title=" ">
<polygon fill="#e0e0e0" stroke="#999999" points="751,-19 706,-19 706,0 751,0 751,-19"/>
<text text-anchor="middle" x="728.5" y="-7" font-family="Helvetica,sans-Serif" font-size="10.00">utility</text>
</a>
</g>
</g>
<!-- Node11&#45;&gt;Node12 -->
<g id="edge15_Node000011_Node000012" class="edge">
<title>Node11&#45;&gt;Node12</title>
<g id="a_edge15_Node000011_Node000012"><a xlink:title=" ">
<path fill="none" stroke="#63b8ff" d="M612.28,-60.49C635.14,-50.66 672.99,-34.38 699.26,-23.08"/>
<polygon fill="#63b8ff" stroke="#63b8ff" points="700.9,-26.18 708.7,-19.02 698.13,-19.75 700.9,-26.18"/>
</a>
</g>
</g>
<!-- Node13 -->
<g id="Node000013" class="node">
<title>Node13</title>
<g id="a_Node000013"><a xlink:title=" ">
<polygon fill="#e0e0e0" stroke="#999999" points="370.5,-19 310.5,-19 310.5,0 370.5,0 370.5,-19"/>
<text text-anchor="middle" x="340.5" y="-7" font-family="Helvetica,sans-Serif" font-size="10.00">concepts</text>
</a>
</g>
</g>
<!-- Node11&#45;&gt;Node13 -->
<g id="edge16_Node000011_Node000013" class="edge">
<title>Node11&#45;&gt;Node13</title>
<g id="a_edge16_Node000011_Node000013"><a xlink:title=" ">
<path fill="none" stroke="#63b8ff" d="M555.86,-60.49C509.21,-49.67 428.91,-31.02 380.65,-19.82"/>
<polygon fill="#63b8ff" stroke="#63b8ff" points="381.39,-16.4 370.86,-17.55 379.81,-23.22 381.39,-16.4"/>
</a>
</g>
</g>
<!-- Node14 -->
<g id="Node000014" class="node">
<title>Node14</title>
<g id="a_Node000014"><a xlink:title=" ">
<polygon fill="#e0e0e0" stroke="#999999" points="454,-19 389,-19 389,0 454,0 454,-19"/>
<text text-anchor="middle" x="421.5" y="-7" font-family="Helvetica,sans-Serif" font-size="10.00">functional</text>
</a>
</g>
</g>
<!-- Node11&#45;&gt;Node14 -->
<g id="edge17_Node000011_Node000014" class="edge">
<title>Node11&#45;&gt;Node14</title>
<g id="a_edge17_Node000011_Node000014"><a xlink:title=" ">
<path fill="none" stroke="#63b8ff" d="M567.64,-60.49C538.25,-50.44 489.19,-33.66 456.11,-22.34"/>
<polygon fill="#63b8ff" stroke="#63b8ff" points="456.99,-18.94 446.39,-19.02 454.72,-25.57 456.99,-18.94"/>
</a>
</g>
</g>
<!-- Node15 -->
<g id="Node000015" class="node">
<title>Node15</title>
<g id="a_Node000015"><a xlink:title=" ">
<polygon fill="#e0e0e0" stroke="#999999" points="531,-19 472,-19 472,0 531,0 531,-19"/>
<text text-anchor="middle" x="501.5" y="-7" font-family="Helvetica,sans-Serif" font-size="10.00">compare</text>
</a>
</g>
</g>
<!-- Node11&#45;&gt;Node15 -->
<g id="edge18_Node000011_Node000015" class="edge">
<title>Node11&#45;&gt;Node15</title>
<g id="a_edge18_Node000011_Node000015"><a xlink:title=" ">
<path fill="none" stroke="#63b8ff" d="M579.07,-60.37C564.42,-50.95 540.74,-35.73 523.4,-24.58"/>
<polygon fill="#63b8ff" stroke="#63b8ff" points="525.29,-21.63 514.98,-19.17 521.5,-27.52 525.29,-21.63"/>
</a>
</g>
</g>
<!-- Node16 -->
<g id="Node000016" class="node">
<title>Node16</title>
<g id="a_Node000016"><a xlink:title=" ">
<polygon fill="#e0e0e0" stroke="#999999" points="688,-19 549,-19 549,0 688,0 688,-19"/>
<text text-anchor="middle" x="618.5" y="-7" font-family="Helvetica,sans-Serif" font-size="10.00">Thoth/Dsa/LinearMap.tpp</text>
</a>
</g>
</g>
<!-- Node11&#45;&gt;Node16 -->
<g id="edge19_Node000011_Node000016" class="edge">
<title>Node11&#45;&gt;Node16</title>
<g id="a_edge19_Node000011_Node000016"><a xlink:title=" ">
<path fill="none" stroke="#63b8ff" d="M596.34,-60.37C600.06,-51.99 605.83,-39.01 610.55,-28.39"/>
<polygon fill="#63b8ff" stroke="#63b8ff" points="613.78,-29.73 614.65,-19.17 607.39,-26.88 613.78,-29.73"/>
</a>
</g>
</g>
<!-- Node19&#45;&gt;Node3 -->
<g id="edge23_Node000019_Node000003" class="edge">
<title>Node19&#45;&gt;Node3</title>
<g id="a_edge23_Node000019_Node000003"><a xlink:title=" ">
<path fill="none" stroke="#63b8ff" d="M378.24,-192.37C359.48,-182.99 328.94,-167.72 304.68,-155.59"/>
<polygon fill="#63b8ff" stroke="#63b8ff" points="306.24,-152.46 295.73,-151.12 303.11,-158.72 306.24,-152.46"/>
</a>
</g>
</g>
<!-- Node19&#45;&gt;Node5 -->
<g id="edge24_Node000019_Node000005" class="edge">
<title>Node19&#45;&gt;Node5</title>
<g id="a_edge24_Node000019_Node000005"><a xlink:title=" ">
<path fill="none" stroke="#63b8ff" d="M393.45,-192.43C389.78,-177.61 381.55,-146.34 371.5,-121 367.14,-110 361.26,-98.14 356.3,-88.73"/>
<polygon fill="#63b8ff" stroke="#63b8ff" points="359.23,-86.78 351.39,-79.64 353.07,-90.1 359.23,-86.78"/>
</a>
</g>
</g>
<!-- Node19&#45;&gt;Node7 -->
<g id="edge27_Node000019_Node000007" class="edge">
<title>Node19&#45;&gt;Node7</title>
<g id="a_edge27_Node000019_Node000007"><a xlink:title=" ">
<path fill="none" stroke="#63b8ff" d="M390.19,-192.04C380.82,-176.64 360.3,-144.51 338.5,-121 326.48,-108.04 311.15,-95.31 298.99,-85.94"/>
<polygon fill="#63b8ff" stroke="#63b8ff" points="300.88,-82.98 290.79,-79.76 296.66,-88.57 300.88,-82.98"/>
</a>
</g>
</g>
<!-- Node19&#45;&gt;Node9 -->
<g id="edge25_Node000019_Node000009" class="edge">
<title>Node19&#45;&gt;Node9</title>
<g id="a_edge25_Node000019_Node000009"><a xlink:title=" ">
<path fill="none" stroke="#63b8ff" d="M432.16,-192.48C463.24,-184.39 508.38,-170.54 544.5,-151 563.42,-140.76 563.38,-130.87 582.5,-121 633.11,-94.87 651.34,-102.63 705.5,-85 707.61,-84.31 709.78,-83.59 711.96,-82.84"/>
<polygon fill="#63b8ff" stroke="#63b8ff" points="713.19,-86.12 721.48,-79.52 710.89,-79.51 713.19,-86.12"/>
</a>
</g>
</g>
<!-- Node19&#45;&gt;Node10 -->
<g id="edge26_Node000019_Node000010" class="edge">
<title>Node19&#45;&gt;Node10</title>
<g id="a_edge26_Node000019_Node000010"><a xlink:title=" ">
<path fill="none" stroke="#63b8ff" d="M438.24,-192.44C448.76,-190.5 460.02,-188.55 470.5,-187 543.48,-176.22 751.25,-205.92 800.5,-151 830.86,-117.14 812.84,-58.24 800.75,-28.61"/>
<polygon fill="#63b8ff" stroke="#63b8ff" points="803.83,-26.92 796.66,-19.12 797.4,-29.69 803.83,-26.92"/>
</a>
</g>
</g>
<!-- Node20 -->
<g id="Node000020" class="node">
<title>Node20</title>
<g id="a_Node000020"><a xlink:title=" ">
<polygon fill="#e0e0e0" stroke="#999999" points="641.5,-145.5 591.5,-145.5 591.5,-126.5 641.5,-126.5 641.5,-145.5"/>
<text text-anchor="middle" x="616.5" y="-133.5" font-family="Helvetica,sans-Serif" font-size="10.00">ranges</text>
</a>
</g>
</g>
<!-- Node19&#45;&gt;Node20 -->
<g id="edge28_Node000019_Node000020" class="edge">
<title>Node19&#45;&gt;Node20</title>
<g id="a_edge28_Node000019_Node000020"><a xlink:title=" ">
<path fill="none" stroke="#63b8ff" d="M429.61,-192.46C466.35,-183.07 526.42,-167.16 577.5,-151 579.62,-150.33 581.79,-149.62 583.98,-148.88"/>
<polygon fill="#63b8ff" stroke="#63b8ff" points="585.2,-152.17 593.5,-145.59 582.91,-145.55 585.2,-152.17"/>
</a>
</g>
</g>
<!-- Node21 -->
<g id="Node000021" class="node">
<title>Node21</title>
<g id="a_Node000021"><a xlink:title=" ">
<polygon fill="#e0e0e0" stroke="#999999" points="791,-145.5 660,-145.5 660,-126.5 791,-126.5 791,-145.5"/>
<text text-anchor="middle" x="725.5" y="-133.5" font-family="Helvetica,sans-Serif" font-size="10.00">Thoth/Http/Headers.tpp</text>
</a>
</g>
</g>
<!-- Node19&#45;&gt;Node21 -->
<g id="edge29_Node000019_Node000021" class="edge">
<title>Node19&#45;&gt;Node21</title>
<g id="a_edge29_Node000019_Node000021"><a xlink:title=" ">
<path fill="none" stroke="#63b8ff" d="M439.66,-192.44C499.68,-180.8 606.91,-160 671.6,-147.45"/>
<polygon fill="#63b8ff" stroke="#63b8ff" points="672.45,-150.85 681.6,-145.51 671.12,-143.98 672.45,-150.85"/>
</a>
</g>
</g>
</g>
</svg>
