<?xml version="1.0" encoding="UTF-8" standalone="no"?>
<!DOCTYPE svg PUBLIC "-//W3C//DTD SVG 1.1//EN"
 "http://www.w3.org/Graphics/SVG/1.1/DTD/svg11.dtd">
<!-- Generated by graphviz version 2.43.0 (0)
 -->
<!-- Title: include/Thoth/Http/NHeaders/Headers/TransferEncodingEnum.hpp Pages: 1 -->
<svg width="1675pt" height="588pt"
 viewBox="0.00 0.00 1675.00 588.00" xmlns="http://www.w3.org/2000/svg" xmlns:xlink="http://www.w3.org/1999/xlink">
<g id="graph0" class="graph" transform="scale(1 1) rotate(0) translate(4 584)">
<title>include/Thoth/Http/NHeaders/Headers/TransferEncodingEnum.hpp</title>
<!-- Node1 -->
<g id="Node000001" class="node">
<title>Node1</title>
<g id="a_Node000001"><a xlink:title=" ">
<polygon fill="#999999" stroke="#666666" points="1140.5,-580 987.5,-580 987.5,-539 1140.5,-539 1140.5,-580"/>
<text text-anchor="start" x="995.5" y="-568" font-family="Helvetica,sans-Serif" font-size="10.00">include/Thoth/Http</text>
<text text-anchor="start" x="995.5" y="-557" font-family="Helvetica,sans-Serif" font-size="10.00">/NHeaders/Headers/Transfer</text>
<text text-anchor="middle" x="1064" y="-546" font-family="Helvetica,sans-Serif" font-size="10.00">EncodingEnum.hpp</text>
</a>
</g>
</g>
<!-- Node2 -->
<g id="Node000002" class="node">
<title>Node2</title>
<g id="a_Node000002"><a xlink:href="__pch_8hpp.html" target="_top" xlink:title=" ">
<polygon fill="white" stroke="#666666" points="1143,-503 985,-503 985,-473 1143,-473 1143,-503"/>
<text text-anchor="start" x="993" y="-491" font-family="Helvetica,sans-Serif" font-size="10.00">include/Thoth/Http</text>
<text text-anchor="middle" x="1064" y="-480" font-family="Helvetica,sans-Serif" font-size="10.00">/NHeaders/Headers/_pch.hpp</text>
</a>
</g>
</g>
<!-- Node1&#45;&gt;Node2 -->
<g id="edge1_Node000001_Node000002" class="edge">
<title>Node1&#45;&gt;Node2</title>
<g id="a_edge1_Node000001_Node000002"><a xlink:title=" ">
<path fill="none" stroke="#63b8ff" d="M1064,-528.66C1064,-519.76 1064,-510.42 1064,-503.04"/>
<polygon fill="#63b8ff" stroke="#63b8ff" points="1060.5,-528.77 1064,-538.77 1067.5,-528.77 1060.5,-528.77"/>
</a>
</g>
</g>
<!-- Node3 -->
<g id="Node000003" class="node">
<title>Node3</title>
<g id="a_Node000003"><a xlink:href="_headers_8hpp.html" target="_top" xlink:title=" ">
<polygon fill="white" stroke="#666666" points="1130,-437 998,-437 998,-407 1130,-407 1130,-437"/>
<text text-anchor="start" x="1006" y="-425" font-family="Helvetica,sans-Serif" font-size="10.00">include/Thoth/Http</text>
<text text-anchor="middle" x="1064" y="-414" font-family="Helvetica,sans-Serif" font-size="10.00">/NHeaders/Headers.hpp</text>
</a>
</g>
</g>
<!-- Node2&#45;&gt;Node3 -->
<g id="edge2_Node000002_Node000003" class="edge">
<title>Node2&#45;&gt;Node3</title>
<g id="a_edge2_Node000002_Node000003"><a xlink:title=" ">
<path fill="none" stroke="#63b8ff" d="M1064,-462.54C1064,-453.96 1064,-444.61 1064,-437.16"/>
<polygon fill="#63b8ff" stroke="#63b8ff" points="1060.5,-462.8 1064,-472.8 1067.5,-462.8 1060.5,-462.8"/>
</a>
</g>
</g>
<!-- Node4 -->
<g id="Node000004" class="node">
<title>Node4</title>
<g id="a_Node000004"><a xlink:href="_method_concept_8hpp.html" target="_top" xlink:title=" ">
<polygon fill="white" stroke="#666666" points="869,-365.5 675,-365.5 675,-335.5 869,-335.5 869,-365.5"/>
<text text-anchor="start" x="683" y="-353.5" font-family="Helvetica,sans-Serif" font-size="10.00">include/Thoth/Http</text>
<text text-anchor="middle" x="772" y="-342.5" font-family="Helvetica,sans-Serif" font-size="10.00">/Methods/_base/MethodConcept.hpp</text>
</a>
</g>
</g>
<!-- Node3&#45;&gt;Node4 -->
<g id="edge3_Node000003_Node000004" class="edge">
<title>Node3&#45;&gt;Node4</title>
<g id="a_edge3_Node000003_Node000004"><a xlink:title=" ">
<path fill="none" stroke="#63b8ff" d="M995.16,-404.62C945.26,-392.74 878.47,-376.84 831,-365.54"/>
<polygon fill="#63b8ff" stroke="#63b8ff" points="994.37,-408.02 1004.91,-406.94 995.99,-401.22 994.37,-408.02"/>
</a>
</g>
</g>
<!-- Node10 -->
<g id="Node000010" class="node">
<title>Node10</title>
<g id="a_Node000010"><a xlink:href="_response_head_8hpp.html" target="_top" xlink:title=" ">
<polygon fill="white" stroke="#666666" points="164,-162 0,-162 0,-132 164,-132 164,-162"/>
<text text-anchor="start" x="8" y="-150" font-family="Helvetica,sans-Serif" font-size="10.00">include/Thoth/Http</text>
<text text-anchor="middle" x="82" y="-139" font-family="Helvetica,sans-Serif" font-size="10.00">/Response/ResponseHead.hpp</text>
</a>
</g>
</g>
<!-- Node3&#45;&gt;Node10 -->
<g id="edge25_Node000003_Node000010" class="edge">
<title>Node3&#45;&gt;Node10</title>
<g id="a_edge25_Node000003_Node000010"><a xlink:title=" ">
<path fill="none" stroke="#63b8ff" d="M987.69,-416.24C770.97,-401.99 163.39,-356.77 101,-294 65.68,-258.47 73.31,-191.76 78.82,-162.45"/>
<polygon fill="#63b8ff" stroke="#63b8ff" points="987.5,-419.73 997.71,-416.89 987.96,-412.75 987.5,-419.73"/>
</a>
</g>
</g>
<!-- Node18 -->
<g id="Node000018" class="node">
<title>Node18</title>
<g id="a_Node000018"><a xlink:href="_list_proxy_8hpp.html" target="_top" xlink:title=" ">
<polygon fill="white" stroke="#666666" points="1053,-365.5 887,-365.5 887,-335.5 1053,-335.5 1053,-365.5"/>
<text text-anchor="start" x="895" y="-353.5" font-family="Helvetica,sans-Serif" font-size="10.00">include/Thoth/Http</text>
<text text-anchor="middle" x="970" y="-342.5" font-family="Helvetica,sans-Serif" font-size="10.00">/NHeaders/Proxy/ListProxy.hpp</text>
</a>
</g>
</g>
<!-- Node3&#45;&gt;Node18 -->
<g id="edge21_Node000003_Node000018" class="edge">
<title>Node3&#45;&gt;Node18</title>
<g id="a_edge21_Node000003_Node000018"><a xlink:title=" ">
<path fill="none" stroke="#63b8ff" d="M1036.87,-400.94C1021.54,-389.6 1002.75,-375.71 988.99,-365.54"/>
<polygon fill="#63b8ff" stroke="#63b8ff" points="1034.86,-403.8 1044.98,-406.94 1039.02,-398.18 1034.86,-403.8"/>
</a>
</g>
</g>
<!-- Node19 -->
<g id="Node000019" class="node">
<title>Node19</title>
<g id="a_Node000019"><a xlink:href="_value_proxy_8hpp.html" target="_top" xlink:title=" ">
<polygon fill="white" stroke="#666666" points="1247,-365.5 1071,-365.5 1071,-335.5 1247,-335.5 1247,-365.5"/>
<text text-anchor="start" x="1079" y="-353.5" font-family="Helvetica,sans-Serif" font-size="10.00">include/Thoth/Http</text>
<text text-anchor="middle" x="1159" y="-342.5" font-family="Helvetica,sans-Serif" font-size="10.00">/NHeaders/Proxy/ValueProxy.hpp</text>
</a>
</g>
</g>
<!-- Node3&#45;&gt;Node19 -->
<g id="edge22_Node000003_Node000019" class="edge">
<title>Node3&#45;&gt;Node19</title>
<g id="a_edge22_Node000003_Node000019"><a xlink:title=" ">
<path fill="none" stroke="#63b8ff" d="M1091.42,-400.94C1106.91,-389.6 1125.9,-375.71 1139.8,-365.54"/>
<polygon fill="#63b8ff" stroke="#63b8ff" points="1089.23,-398.21 1083.22,-406.94 1093.36,-403.86 1089.23,-398.21"/>
</a>
</g>
</g>
<!-- Node20 -->
<g id="Node000020" class="node">
<title>Node20</title>
<g id="a_Node000020"><a xlink:href="_request_headers_8hpp.html" target="_top" xlink:title=" ">
<polygon fill="white" stroke="#666666" points="1480.5,-365.5 1265.5,-365.5 1265.5,-335.5 1480.5,-335.5 1480.5,-365.5"/>
<text text-anchor="start" x="1273.5" y="-353.5" font-family="Helvetica,sans-Serif" font-size="10.00">include/Thoth/Http</text>
<text text-anchor="middle" x="1373" y="-342.5" font-family="Helvetica,sans-Serif" font-size="10.00">/NHeaders/Request/RequestHeaders.hpp</text>
</a>
</g>
</g>
<!-- Node3&#45;&gt;Node20 -->
<g id="edge23_Node000003_Node000020" class="edge">
<title>Node3&#45;&gt;Node20</title>
<g id="a_edge23_Node000003_Node000020"><a xlink:title=" ">
<path fill="none" stroke="#63b8ff" d="M1136.51,-404.69C1189.36,-392.8 1260.22,-376.87 1310.56,-365.54"/>
<polygon fill="#63b8ff" stroke="#63b8ff" points="1135.52,-401.33 1126.53,-406.94 1137.06,-408.16 1135.52,-401.33"/>
</a>
</g>
</g>
<!-- Node21 -->
<g id="Node000021" class="node">
<title>Node21</title>
<g id="a_Node000021"><a xlink:href="_response_headers_8hpp.html" target="_top" xlink:title=" ">
<polygon fill="white" stroke="#666666" points="1667,-371 1499,-371 1499,-330 1667,-330 1667,-371"/>
<text text-anchor="start" x="1507" y="-359" font-family="Helvetica,sans-Serif" font-size="10.00">include/Thoth/Http</text>
<text text-anchor="start" x="1507" y="-348" font-family="Helvetica,sans-Serif" font-size="10.00">/NHeaders/Response/Response</text>
<text text-anchor="middle" x="1583" y="-337" font-family="Helvetica,sans-Serif" font-size="10.00">Headers.hpp</text>
</a>
</g>
</g>
<!-- Node3&#45;&gt;Node21 -->
<g id="edge24_Node000003_Node000021" class="edge">
<title>Node3&#45;&gt;Node21</title>
<g id="a_edge24_Node000003_Node000021"><a xlink:title=" ">
<path fill="none" stroke="#63b8ff" d="M1140.44,-414.12C1225.92,-405.93 1368.35,-390.85 1490,-371 1492.93,-370.52 1495.91,-370.01 1498.91,-369.48"/>
<polygon fill="#63b8ff" stroke="#63b8ff" points="1139.93,-410.65 1130.3,-415.08 1140.59,-417.62 1139.93,-410.65"/>
</a>
</g>
</g>
<!-- Node5 -->
<g id="Node000005" class="node">
<title>Node5</title>
<g id="a_Node000005"><a xlink:href="_connect_method_8hpp.html" target="_top" xlink:title=" ">
<polygon fill="white" stroke="#666666" points="1268,-294 1106,-294 1106,-264 1268,-264 1268,-294"/>
<text text-anchor="start" x="1114" y="-282" font-family="Helvetica,sans-Serif" font-size="10.00">include/Thoth/Http</text>
<text text-anchor="middle" x="1187" y="-271" font-family="Helvetica,sans-Serif" font-size="10.00">/Methods/ConnectMethod.hpp</text>
</a>
</g>
</g>
<!-- Node4&#45;&gt;Node5 -->
<g id="edge4_Node000004_Node000005" class="edge">
<title>Node4&#45;&gt;Node5</title>
<g id="a_edge4_Node000004_Node000005"><a xlink:title=" ">
<path fill="none" stroke="#63b8ff" d="M857.43,-333.62C864.39,-332.38 871.31,-331.16 878,-330 955.24,-316.65 1043.55,-302.47 1105.92,-292.63"/>
<polygon fill="#63b8ff" stroke="#63b8ff" points="856.47,-330.24 847.24,-335.45 857.7,-337.13 856.47,-330.24"/>
</a>
</g>
</g>
<!-- Node6 -->
<g id="Node000006" class="node">
<title>Node6</title>
<g id="a_Node000006"><a xlink:href="_delete_method_8hpp.html" target="_top" xlink:title=" ">
<polygon fill="white" stroke="#666666" points="1441.5,-294 1286.5,-294 1286.5,-264 1441.5,-264 1441.5,-294"/>
<text text-anchor="start" x="1294.5" y="-282" font-family="Helvetica,sans-Serif" font-size="10.00">include/Thoth/Http</text>
<text text-anchor="middle" x="1364" y="-271" font-family="Helvetica,sans-Serif" font-size="10.00">/Methods/DeleteMethod.hpp</text>
</a>
</g>
</g>
<!-- Node4&#45;&gt;Node6 -->
<g id="edge5_Node000004_Node000006" class="edge">
<title>Node4&#45;&gt;Node6</title>
<g id="a_edge5_Node000004_Node000006"><a xlink:title=" ">
<path fill="none" stroke="#63b8ff" d="M852.99,-333.81C861.42,-332.41 869.87,-331.11 878,-330 1054.41,-305.87 1100.33,-316.16 1277,-294 1280.04,-293.62 1283.13,-293.21 1286.25,-292.79"/>
<polygon fill="#63b8ff" stroke="#63b8ff" points="852.4,-330.36 843.13,-335.49 853.57,-337.26 852.4,-330.36"/>
</a>
</g>
</g>
<!-- Node7 -->
<g id="Node000007" class="node">
<title>Node7</title>
<g id="a_Node000007"><a xlink:href="_get_method_8hpp.html" target="_top" xlink:title=" ">
<polygon fill="white" stroke="#666666" points="1600,-294 1460,-294 1460,-264 1600,-264 1600,-294"/>
<text text-anchor="start" x="1468" y="-282" font-family="Helvetica,sans-Serif" font-size="10.00">include/Thoth/Http</text>
<text text-anchor="middle" x="1530" y="-271" font-family="Helvetica,sans-Serif" font-size="10.00">/Methods/GetMethod.hpp</text>
</a>
</g>
</g>
<!-- Node4&#45;&gt;Node7 -->
<g id="edge6_Node000004_Node000007" class="edge">
<title>Node4&#45;&gt;Node7</title>
<g id="a_edge6_Node000004_Node000007"><a xlink:title=" ">
<path fill="none" stroke="#63b8ff" d="M851.64,-333.8C860.51,-332.36 869.43,-331.05 878,-330 1131.26,-298.86 1197.64,-324.31 1451,-294 1453.9,-293.65 1456.86,-293.27 1459.85,-292.85"/>
<polygon fill="#63b8ff" stroke="#63b8ff" points="850.95,-330.36 841.67,-335.46 852.11,-337.27 850.95,-330.36"/>
</a>
</g>
</g>
<!-- Node12 -->
<g id="Node000012" class="node">
<title>Node12</title>
<g id="a_Node000012"><a xlink:href="_head_method_8hpp.html" target="_top" xlink:title=" ">
<polygon fill="white" stroke="#666666" points="420,-294 272,-294 272,-264 420,-264 420,-294"/>
<text text-anchor="start" x="280" y="-282" font-family="Helvetica,sans-Serif" font-size="10.00">include/Thoth/Http</text>
<text text-anchor="middle" x="346" y="-271" font-family="Helvetica,sans-Serif" font-size="10.00">/Methods/HeadMethod.hpp</text>
</a>
</g>
</g>
<!-- Node4&#45;&gt;Node12 -->
<g id="edge13_Node000004_Node000012" class="edge">
<title>Node4&#45;&gt;Node12</title>
<g id="a_edge13_Node000004_Node000012"><a xlink:title=" ">
<path fill="none" stroke="#63b8ff" d="M674.27,-333.86C605.63,-322.84 511.68,-307.66 429,-294 426.12,-293.52 423.18,-293.04 420.21,-292.54"/>
<polygon fill="#63b8ff" stroke="#63b8ff" points="673.78,-337.33 684.21,-335.46 674.89,-330.42 673.78,-337.33"/>
</a>
</g>
</g>
<!-- Node13 -->
<g id="Node000013" class="node">
<title>Node13</title>
<g id="a_Node000013"><a xlink:href="_options_method_8hpp.html" target="_top" xlink:title=" ">
<polygon fill="white" stroke="#666666" points="598,-294 438,-294 438,-264 598,-264 598,-294"/>
<text text-anchor="start" x="446" y="-282" font-family="Helvetica,sans-Serif" font-size="10.00">include/Thoth/Http</text>
<text text-anchor="middle" x="518" y="-271" font-family="Helvetica,sans-Serif" font-size="10.00">/Methods/OptionsMethod.hpp</text>
</a>
</g>
</g>
<!-- Node4&#45;&gt;Node13 -->
<g id="edge14_Node000004_Node000013" class="edge">
<title>Node4&#45;&gt;Node13</title>
<g id="a_edge14_Node000004_Node000013"><a xlink:title=" ">
<path fill="none" stroke="#63b8ff" d="M710.76,-332.74C667.5,-320.91 610.19,-305.22 569.32,-294.04"/>
<polygon fill="#63b8ff" stroke="#63b8ff" points="710.03,-336.17 720.6,-335.44 711.88,-329.42 710.03,-336.17"/>
</a>
</g>
</g>
<!-- Node14 -->
<g id="Node000014" class="node">
<title>Node14</title>
<g id="a_Node000014"><a xlink:href="_patch_method_8hpp.html" target="_top" xlink:title=" ">
<polygon fill="white" stroke="#666666" points="765.5,-294 616.5,-294 616.5,-264 765.5,-264 765.5,-294"/>
<text text-anchor="start" x="624.5" y="-282" font-family="Helvetica,sans-Serif" font-size="10.00">include/Thoth/Http</text>
<text text-anchor="middle" x="691" y="-271" font-family="Helvetica,sans-Serif" font-size="10.00">/Methods/PatchMethod.hpp</text>
</a>
</g>
</g>
<!-- Node4&#45;&gt;Node14 -->
<g id="edge15_Node000004_Node000014" class="edge">
<title>Node4&#45;&gt;Node14</title>
<g id="a_edge15_Node000004_Node000014"><a xlink:title=" ">
<path fill="none" stroke="#63b8ff" d="M747.88,-328.81C734.81,-317.59 719,-304.02 707.37,-294.04"/>
<polygon fill="#63b8ff" stroke="#63b8ff" points="745.74,-331.58 755.61,-335.44 750.3,-326.27 745.74,-331.58"/>
</a>
</g>
</g>
<!-- Node15 -->
<g id="Node000015" class="node">
<title>Node15</title>
<g id="a_Node000015"><a xlink:href="_post_method_8hpp.html" target="_top" xlink:title=" ">
<polygon fill="white" stroke="#666666" points="253.5,-294 110.5,-294 110.5,-264 253.5,-264 253.5,-294"/>
<text text-anchor="start" x="118.5" y="-282" font-family="Helvetica,sans-Serif" font-size="10.00">include/Thoth/Http</text>
<text text-anchor="middle" x="182" y="-271" font-family="Helvetica,sans-Serif" font-size="10.00">/Methods/PostMethod.hpp</text>
</a>
</g>
</g>
<!-- Node4&#45;&gt;Node15 -->
<g id="edge16_Node000004_Node000015" class="edge">
<title>Node4&#45;&gt;Node15</title>
<g id="a_edge16_Node000004_Node000015"><a xlink:title=" ">
<path fill="none" stroke="#63b8ff" d="M664.55,-339.75C561.37,-329.93 401.22,-313.46 263,-294 259.89,-293.56 256.72,-293.1 253.52,-292.61"/>
<polygon fill="#63b8ff" stroke="#63b8ff" points="664.38,-343.25 674.67,-340.71 665.05,-336.28 664.38,-343.25"/>
</a>
</g>
</g>
<!-- Node16 -->
<g id="Node000016" class="node">
<title>Node16</title>
<g id="a_Node000016"><a xlink:href="_put_method_8hpp.html" target="_top" xlink:title=" ">
<polygon fill="white" stroke="#666666" points="922,-294 784,-294 784,-264 922,-264 922,-294"/>
<text text-anchor="start" x="792" y="-282" font-family="Helvetica,sans-Serif" font-size="10.00">include/Thoth/Http</text>
<text text-anchor="middle" x="853" y="-271" font-family="Helvetica,sans-Serif" font-size="10.00">/Methods/PutMethod.hpp</text>
</a>
</g>
</g>
<!-- Node4&#45;&gt;Node16 -->
<g id="edge19_Node000004_Node000016" class="edge">
<title>Node4&#45;&gt;Node16</title>
<g id="a_edge19_Node000004_Node000016"><a xlink:title=" ">
<path fill="none" stroke="#63b8ff" d="M796.12,-328.81C809.19,-317.59 825,-304.02 836.63,-294.04"/>
<polygon fill="#63b8ff" stroke="#63b8ff" points="793.7,-326.27 788.39,-335.44 798.26,-331.58 793.7,-326.27"/>
</a>
</g>
</g>
<!-- Node17 -->
<g id="Node000017" class="node">
<title>Node17</title>
<g id="a_Node000017"><a xlink:href="_trace_method_8hpp.html" target="_top" xlink:title=" ">
<polygon fill="white" stroke="#666666" points="1088,-294 940,-294 940,-264 1088,-264 1088,-294"/>
<text text-anchor="start" x="948" y="-282" font-family="Helvetica,sans-Serif" font-size="10.00">include/Thoth/Http</text>
<text text-anchor="middle" x="1014" y="-271" font-family="Helvetica,sans-Serif" font-size="10.00">/Methods/TraceMethod.hpp</text>
</a>
</g>
</g>
<!-- Node4&#45;&gt;Node17 -->
<g id="edge20_Node000004_Node000017" class="edge">
<title>Node4&#45;&gt;Node17</title>
<g id="a_edge20_Node000004_Node000017"><a xlink:title=" ">
<path fill="none" stroke="#63b8ff" d="M830.61,-332.67C871.79,-320.84 926.25,-305.2 965.1,-294.04"/>
<polygon fill="#63b8ff" stroke="#63b8ff" points="829.62,-329.31 820.97,-335.44 831.55,-336.04 829.62,-329.31"/>
</a>
</g>
</g>
<!-- Node8 -->
<g id="Node000008" class="node">
<title>Node8</title>
<g id="a_Node000008"><a xlink:href="_request_8hpp.html" target="_top" xlink:title=" ">
<polygon fill="white" stroke="#666666" points="345.5,-228 222.5,-228 222.5,-198 345.5,-198 345.5,-228"/>
<text text-anchor="start" x="230.5" y="-216" font-family="Helvetica,sans-Serif" font-size="10.00">include/Thoth/Http</text>
<text text-anchor="middle" x="284" y="-205" font-family="Helvetica,sans-Serif" font-size="10.00">/Request/Request.hpp</text>
</a>
</g>
</g>
<!-- Node7&#45;&gt;Node8 -->
<g id="edge7_Node000007_Node000008" class="edge">
<title>Node7&#45;&gt;Node8</title>
<g id="a_edge7_Node000007_Node000008"><a xlink:title=" ">
<path fill="none" stroke="#63b8ff" d="M1449.63,-263.98C1213.87,-239.63 551.47,-220.94 345.71,-215.56"/>
<polygon fill="#63b8ff" stroke="#63b8ff" points="1449.54,-267.49 1459.86,-265.07 1450.29,-260.53 1449.54,-267.49"/>
</a>
</g>
</g>
<!-- Node11 -->
<g id="Node000011" class="node">
<title>Node11</title>
<g id="a_Node000011"><a xlink:href="_response_8hpp.html" target="_top" xlink:title=" ">
<polygon fill="white" stroke="#666666" points="258,-96 120,-96 120,-66 258,-66 258,-96"/>
<text text-anchor="start" x="128" y="-84" font-family="Helvetica,sans-Serif" font-size="10.00">include/Thoth/Http</text>
<text text-anchor="middle" x="189" y="-73" font-family="Helvetica,sans-Serif" font-size="10.00">/Response/Response.hpp</text>
</a>
</g>
</g>
<!-- Node7&#45;&gt;Node11 -->
<g id="edge12_Node000007_Node000011" class="edge">
<title>Node7&#45;&gt;Node11</title>
<g id="a_edge12_Node000007_Node000011"><a xlink:title=" ">
<path fill="none" stroke="#63b8ff" d="M1449.62,-263.81C988.93,-189.96 447.33,-116.45 258.2,-91.18"/>
<polygon fill="#63b8ff" stroke="#63b8ff" points="1449.38,-267.31 1459.81,-265.44 1450.49,-260.4 1449.38,-267.31"/>
</a>
</g>
</g>
<!-- Node9 -->
<g id="Node000009" class="node">
<title>Node9</title>
<g id="a_Node000009"><a xlink:href="_client_8hpp.html" target="_top" xlink:title=" ">
<polygon fill="white" stroke="#666666" points="290.5,-30 183.5,-30 183.5,0 290.5,0 290.5,-30"/>
<text text-anchor="start" x="191.5" y="-18" font-family="Helvetica,sans-Serif" font-size="10.00">include/Thoth/Http</text>
<text text-anchor="middle" x="237" y="-7" font-family="Helvetica,sans-Serif" font-size="10.00">/Client.hpp</text>
</a>
</g>
</g>
<!-- Node8&#45;&gt;Node9 -->
<g id="edge8_Node000008_Node000009" class="edge">
<title>Node8&#45;&gt;Node9</title>
<g id="a_edge8_Node000008_Node000009"><a xlink:title=" ">
<path fill="none" stroke="#63b8ff" d="M284.27,-187.67C283.9,-158.12 281,-107.13 267,-66 262.56,-52.97 254.37,-39.67 247.67,-30.07"/>
<polygon fill="#63b8ff" stroke="#63b8ff" points="280.77,-187.9 284.3,-197.88 287.77,-187.87 280.77,-187.9"/>
</a>
</g>
</g>
<!-- Node8&#45;&gt;Node10 -->
<g id="edge9_Node000008_Node000010" class="edge">
<title>Node8&#45;&gt;Node10</title>
<g id="a_edge9_Node000008_Node000010"><a xlink:title=" ">
<path fill="none" stroke="#63b8ff" d="M229.89,-194.86C197.45,-184.58 156.73,-171.68 126.23,-162.01"/>
<polygon fill="#63b8ff" stroke="#63b8ff" points="229.08,-198.27 239.67,-197.95 231.19,-191.6 229.08,-198.27"/>
</a>
</g>
</g>
<!-- Node10&#45;&gt;Node11 -->
<g id="edge10_Node000010_Node000011" class="edge">
<title>Node10&#45;&gt;Node11</title>
<g id="a_edge10_Node000010_Node000011"><a xlink:title=" ">
<path fill="none" stroke="#63b8ff" d="M114.28,-126.69C130.79,-116.82 150.53,-105.01 165.57,-96.01"/>
<polygon fill="#63b8ff" stroke="#63b8ff" points="112.27,-123.82 105.48,-131.95 115.86,-129.83 112.27,-123.82"/>
</a>
</g>
</g>
<!-- Node11&#45;&gt;Node9 -->
<g id="edge11_Node000011_Node000009" class="edge">
<title>Node11&#45;&gt;Node9</title>
<g id="a_edge11_Node000011_Node000009"><a xlink:title=" ">
<path fill="none" stroke="#63b8ff" d="M205.86,-57.53C212.68,-48.43 220.35,-38.19 226.38,-30.16"/>
<polygon fill="#63b8ff" stroke="#63b8ff" points="202.85,-55.7 199.65,-65.8 208.45,-59.9 202.85,-55.7"/>
</a>
</g>
</g>
<!-- Node15&#45;&gt;Node8 -->
<g id="edge17_Node000015_Node000008" class="edge">
<title>Node15&#45;&gt;Node8</title>
<g id="a_edge17_Node000015_Node000008"><a xlink:title=" ">
<path fill="none" stroke="#63b8ff" d="M213.21,-258.42C228.86,-248.6 247.46,-236.93 261.67,-228.01"/>
<polygon fill="#63b8ff" stroke="#63b8ff" points="210.99,-255.68 204.38,-263.95 214.72,-261.6 210.99,-255.68"/>
</a>
</g>
</g>
<!-- Node15&#45;&gt;Node11 -->
<g id="edge18_Node000015_Node000011" class="edge">
<title>Node15&#45;&gt;Node11</title>
<g id="a_edge18_Node000015_Node000011"><a xlink:title=" ">
<path fill="none" stroke="#63b8ff" d="M182.86,-253.89C184.34,-212.58 187.3,-129.48 188.49,-96.23"/>
<polygon fill="#63b8ff" stroke="#63b8ff" points="179.36,-253.79 182.5,-263.9 186.36,-254.04 179.36,-253.79"/>
</a>
</g>
</g>
</g>
</svg>
