<?xml version="1.0" encoding="UTF-8" standalone="no"?>
<!DOCTYPE svg PUBLIC "-//W3C//DTD SVG 1.1//EN"
 "http://www.w3.org/Graphics/SVG/1.1/DTD/svg11.dtd">
<!-- Generated by graphviz version 2.43.0 (0)
 -->
<!-- Title: include/Thoth/Http/NHeaders/Headers/TransferEncodingEnum.hpp Pages: 1 -->
<svg width="2224pt" height="588pt"
 viewBox="0.00 0.00 2223.50 588.00" xmlns="http://www.w3.org/2000/svg" xmlns:xlink="http://www.w3.org/1999/xlink">
<g id="graph0" class="graph" transform="scale(1 1) rotate(0) translate(4 584)">
<title>include/Thoth/Http/NHeaders/Headers/TransferEncodingEnum.hpp</title>
<!-- Node1 -->
<g id="Node000001" class="node">
<title>Node1</title>
<g id="a_Node000001"><a xlink:title=" ">
<polygon fill="#999999" stroke="#666666" points="1866,-580 1713,-580 1713,-539 1866,-539 1866,-580"/>
<text text-anchor="start" x="1721" y="-568" font-family="Helvetica,sans-Serif" font-size="10.00">include/Thoth/Http</text>
<text text-anchor="start" x="1721" y="-557" font-family="Helvetica,sans-Serif" font-size="10.00">/NHeaders/Headers/Transfer</text>
<text text-anchor="middle" x="1789.5" y="-546" font-family="Helvetica,sans-Serif" font-size="10.00">EncodingEnum.hpp</text>
</a>
</g>
</g>
<!-- Node2 -->
<g id="Node000002" class="node">
<title>Node2</title>
<g id="a_Node000002"><a xlink:href="_headers_2__pch_8hpp.html" target="_top" xlink:title=" ">
<polygon fill="white" stroke="#666666" points="1868.5,-503 1710.5,-503 1710.5,-473 1868.5,-473 1868.5,-503"/>
<text text-anchor="start" x="1718.5" y="-491" font-family="Helvetica,sans-Serif" font-size="10.00">include/Thoth/Http</text>
<text text-anchor="middle" x="1789.5" y="-480" font-family="Helvetica,sans-Serif" font-size="10.00">/NHeaders/Headers/_pch.hpp</text>
</a>
</g>
</g>
<!-- Node1&#45;&gt;Node2 -->
<g id="edge1_Node000001_Node000002" class="edge">
<title>Node1&#45;&gt;Node2</title>
<g id="a_edge1_Node000001_Node000002"><a xlink:title=" ">
<path fill="none" stroke="#63b8ff" d="M1789.5,-528.66C1789.5,-519.76 1789.5,-510.42 1789.5,-503.04"/>
<polygon fill="#63b8ff" stroke="#63b8ff" points="1786,-528.77 1789.5,-538.77 1793,-528.77 1786,-528.77"/>
</a>
</g>
</g>
<!-- Node3 -->
<g id="Node000003" class="node">
<title>Node3</title>
<g id="a_Node000003"><a xlink:href="_headers_8hpp.html" target="_top" xlink:title=" ">
<polygon fill="white" stroke="#666666" points="1855.5,-437 1723.5,-437 1723.5,-407 1855.5,-407 1855.5,-437"/>
<text text-anchor="start" x="1731.5" y="-425" font-family="Helvetica,sans-Serif" font-size="10.00">include/Thoth/Http</text>
<text text-anchor="middle" x="1789.5" y="-414" font-family="Helvetica,sans-Serif" font-size="10.00">/NHeaders/Headers.hpp</text>
</a>
</g>
</g>
<!-- Node2&#45;&gt;Node3 -->
<g id="edge2_Node000002_Node000003" class="edge">
<title>Node2&#45;&gt;Node3</title>
<g id="a_edge2_Node000002_Node000003"><a xlink:title=" ">
<path fill="none" stroke="#63b8ff" d="M1789.5,-462.54C1789.5,-453.96 1789.5,-444.61 1789.5,-437.16"/>
<polygon fill="#63b8ff" stroke="#63b8ff" points="1786,-462.8 1789.5,-472.8 1793,-462.8 1786,-462.8"/>
</a>
</g>
</g>
<!-- Node4 -->
<g id="Node000004" class="node">
<title>Node4</title>
<g id="a_Node000004"><a xlink:href="_file_output_range_8hpp.html" target="_top" xlink:title=" ">
<polygon fill="white" stroke="#666666" points="1563.5,-239 1405.5,-239 1405.5,-209 1563.5,-209 1563.5,-239"/>
<text text-anchor="start" x="1413.5" y="-227" font-family="Helvetica,sans-Serif" font-size="10.00">include/Thoth/Dsa/FileOutput</text>
<text text-anchor="middle" x="1484.5" y="-216" font-family="Helvetica,sans-Serif" font-size="10.00">Range.hpp</text>
</a>
</g>
</g>
<!-- Node3&#45;&gt;Node4 -->
<g id="edge3_Node000003_Node000004" class="edge">
<title>Node3&#45;&gt;Node4</title>
<g id="a_edge3_Node000003_Node000004"><a xlink:title=" ">
<path fill="none" stroke="#63b8ff" d="M1794.01,-396.69C1798.47,-364.34 1800.75,-307.45 1769.5,-275 1741.71,-246.15 1637.91,-233.84 1563.61,-228.66"/>
<polygon fill="#63b8ff" stroke="#63b8ff" points="1790.53,-396.23 1792.45,-406.65 1797.45,-397.31 1790.53,-396.23"/>
</a>
</g>
</g>
<!-- Node7 -->
<g id="Node000007" class="node">
<title>Node7</title>
<g id="a_Node000007"><a xlink:href="_method_concept_8hpp.html" target="_top" xlink:title=" ">
<polygon fill="white" stroke="#666666" points="1200.5,-371 1006.5,-371 1006.5,-341 1200.5,-341 1200.5,-371"/>
<text text-anchor="start" x="1014.5" y="-359" font-family="Helvetica,sans-Serif" font-size="10.00">include/Thoth/Http</text>
<text text-anchor="middle" x="1103.5" y="-348" font-family="Helvetica,sans-Serif" font-size="10.00">/Methods/_base/MethodConcept.hpp</text>
</a>
</g>
</g>
<!-- Node3&#45;&gt;Node7 -->
<g id="edge7_Node000003_Node000007" class="edge">
<title>Node3&#45;&gt;Node7</title>
<g id="a_edge7_Node000003_Node000007"><a xlink:title=" ">
<path fill="none" stroke="#63b8ff" d="M1713.14,-413.88C1587.75,-402.18 1338.42,-378.92 1200.65,-366.06"/>
<polygon fill="#63b8ff" stroke="#63b8ff" points="1713.13,-417.39 1723.41,-414.83 1713.78,-410.42 1713.13,-417.39"/>
</a>
</g>
</g>
<!-- Node12 -->
<g id="Node000012" class="node">
<title>Node12</title>
<g id="a_Node000012"><a xlink:href="_response_head_8hpp.html" target="_top" xlink:title=" ">
<polygon fill="white" stroke="#666666" points="624.5,-167.5 460.5,-167.5 460.5,-137.5 624.5,-137.5 624.5,-167.5"/>
<text text-anchor="start" x="468.5" y="-155.5" font-family="Helvetica,sans-Serif" font-size="10.00">include/Thoth/Http</text>
<text text-anchor="middle" x="542.5" y="-144.5" font-family="Helvetica,sans-Serif" font-size="10.00">/Response/ResponseHead.hpp</text>
</a>
</g>
</g>
<!-- Node3&#45;&gt;Node12 -->
<g id="edge30_Node000003_Node000012" class="edge">
<title>Node3&#45;&gt;Node12</title>
<g id="a_edge30_Node000003_Node000012"><a xlink:title=" ">
<path fill="none" stroke="#63b8ff" d="M1713.32,-421.17C1418.13,-421.02 361.17,-412.93 262.5,-305 196.49,-232.8 355.61,-188.01 460.11,-167.25"/>
<polygon fill="#63b8ff" stroke="#63b8ff" points="1713.5,-424.67 1723.5,-421.17 1713.5,-417.67 1713.5,-424.67"/>
</a>
</g>
</g>
<!-- Node19 -->
<g id="Node000019" class="node">
<title>Node19</title>
<g id="a_Node000019"><a xlink:href="_list_proxy_8hpp.html" target="_top" xlink:title=" ">
<polygon fill="white" stroke="#666666" points="2021.5,-371 1855.5,-371 1855.5,-341 2021.5,-341 2021.5,-371"/>
<text text-anchor="start" x="1863.5" y="-359" font-family="Helvetica,sans-Serif" font-size="10.00">include/Thoth/Http</text>
<text text-anchor="middle" x="1938.5" y="-348" font-family="Helvetica,sans-Serif" font-size="10.00">/NHeaders/Proxy/ListProxy.hpp</text>
</a>
</g>
</g>
<!-- Node3&#45;&gt;Node19 -->
<g id="edge24_Node000003_Node000019" class="edge">
<title>Node3&#45;&gt;Node19</title>
<g id="a_edge24_Node000003_Node000019"><a xlink:title=" ">
<path fill="none" stroke="#63b8ff" d="M1831.59,-402.92C1855.14,-392.8 1884.06,-380.38 1905.88,-371.01"/>
<polygon fill="#63b8ff" stroke="#63b8ff" points="1830.01,-399.79 1822.2,-406.95 1832.77,-406.22 1830.01,-399.79"/>
</a>
</g>
</g>
<!-- Node20 -->
<g id="Node000020" class="node">
<title>Node20</title>
<g id="a_Node000020"><a xlink:href="_value_proxy_8hpp.html" target="_top" xlink:title=" ">
<polygon fill="white" stroke="#666666" points="2215.5,-371 2039.5,-371 2039.5,-341 2215.5,-341 2215.5,-371"/>
<text text-anchor="start" x="2047.5" y="-359" font-family="Helvetica,sans-Serif" font-size="10.00">include/Thoth/Http</text>
<text text-anchor="middle" x="2127.5" y="-348" font-family="Helvetica,sans-Serif" font-size="10.00">/NHeaders/Proxy/ValueProxy.hpp</text>
</a>
</g>
</g>
<!-- Node3&#45;&gt;Node20 -->
<g id="edge25_Node000003_Node000020" class="edge">
<title>Node3&#45;&gt;Node20</title>
<g id="a_edge25_Node000003_Node000020"><a xlink:title=" ">
<path fill="none" stroke="#63b8ff" d="M1865.76,-406.56C1921.87,-395.94 1997.74,-381.57 2053.35,-371.04"/>
<polygon fill="#63b8ff" stroke="#63b8ff" points="1865.05,-403.13 1855.87,-408.43 1866.35,-410.01 1865.05,-403.13"/>
</a>
</g>
</g>
<!-- Node21 -->
<g id="Node000021" class="node">
<title>Node21</title>
<g id="a_Node000021"><a xlink:href="_request_headers_8hpp.html" target="_top" xlink:title=" ">
<polygon fill="white" stroke="#666666" points="215,-371 0,-371 0,-341 215,-341 215,-371"/>
<text text-anchor="start" x="8" y="-359" font-family="Helvetica,sans-Serif" font-size="10.00">include/Thoth/Http</text>
<text text-anchor="middle" x="107.5" y="-348" font-family="Helvetica,sans-Serif" font-size="10.00">/NHeaders/Request/RequestHeaders.hpp</text>
</a>
</g>
</g>
<!-- Node3&#45;&gt;Node21 -->
<g id="edge26_Node000003_Node000021" class="edge">
<title>Node3&#45;&gt;Node21</title>
<g id="a_edge26_Node000003_Node000021"><a xlink:title=" ">
<path fill="none" stroke="#63b8ff" d="M1713.14,-420.77C1486.56,-419.62 798.41,-412.69 229.5,-371 224.82,-370.66 220.05,-370.27 215.23,-369.85"/>
<polygon fill="#63b8ff" stroke="#63b8ff" points="1713.24,-424.27 1723.25,-420.82 1713.27,-417.27 1713.24,-424.27"/>
</a>
</g>
</g>
<!-- Node22 -->
<g id="Node000022" class="node">
<title>Node22</title>
<g id="a_Node000022"><a xlink:href="_response_headers_8hpp.html" target="_top" xlink:title=" ">
<polygon fill="white" stroke="#666666" points="1233.5,-173 1065.5,-173 1065.5,-132 1233.5,-132 1233.5,-173"/>
<text text-anchor="start" x="1073.5" y="-161" font-family="Helvetica,sans-Serif" font-size="10.00">include/Thoth/Http</text>
<text text-anchor="start" x="1073.5" y="-150" font-family="Helvetica,sans-Serif" font-size="10.00">/NHeaders/Response/Response</text>
<text text-anchor="middle" x="1149.5" y="-139" font-family="Helvetica,sans-Serif" font-size="10.00">Headers.hpp</text>
</a>
</g>
</g>
<!-- Node3&#45;&gt;Node22 -->
<g id="edge28_Node000003_Node000022" class="edge">
<title>Node3&#45;&gt;Node22</title>
<g id="a_edge28_Node000003_Node000022"><a xlink:title=" ">
<path fill="none" stroke="#63b8ff" d="M1801.69,-397.38C1805.27,-389.24 1808.7,-379.92 1810.5,-371 1819.07,-328.44 1822.43,-306.45 1792.5,-275 1716.97,-195.63 1390.26,-166.89 1233.73,-157.54"/>
<polygon fill="#63b8ff" stroke="#63b8ff" points="1798.43,-396.08 1797.35,-406.61 1804.77,-399.05 1798.43,-396.08"/>
</a>
</g>
</g>
<!-- Node4&#45;&gt;Node4 -->
<g id="edge4_Node000004_Node000004" class="edge">
<title>Node4&#45;&gt;Node4</title>
<g id="a_edge4_Node000004_Node000004"><a xlink:title=" ">
<path fill="none" stroke="#63b8ff" d="M1573.66,-232.29C1578.57,-230.27 1581.5,-227.51 1581.5,-224 1581.5,-218.52 1574.37,-214.86 1563.66,-213.02"/>
<polygon fill="#63b8ff" stroke="#63b8ff" points="1572.41,-229 1563.66,-234.98 1574.23,-235.76 1572.41,-229"/>
</a>
</g>
</g>
<!-- Node5 -->
<g id="Node000005" class="node">
<title>Node5</title>
<g id="a_Node000005"><a xlink:href="_response_8hpp.html" target="_top" xlink:title=" ">
<polygon fill="white" stroke="#666666" points="955.5,-96 817.5,-96 817.5,-66 955.5,-66 955.5,-96"/>
<text text-anchor="start" x="825.5" y="-84" font-family="Helvetica,sans-Serif" font-size="10.00">include/Thoth/Http</text>
<text text-anchor="middle" x="886.5" y="-73" font-family="Helvetica,sans-Serif" font-size="10.00">/Response/Response.hpp</text>
</a>
</g>
</g>
<!-- Node4&#45;&gt;Node5 -->
<g id="edge5_Node000004_Node000005" class="edge">
<title>Node4&#45;&gt;Node5</title>
<g id="a_edge5_Node000004_Node000005"><a xlink:title=" ">
<path fill="none" stroke="#63b8ff" d="M1395.14,-222.22C1307.12,-219.22 1169.8,-208.53 1056.5,-173 998.52,-154.82 937.3,-116.68 906.58,-96.02"/>
<polygon fill="#63b8ff" stroke="#63b8ff" points="1395.25,-225.72 1405.35,-222.54 1395.47,-218.73 1395.25,-225.72"/>
</a>
</g>
</g>
<!-- Node6 -->
<g id="Node000006" class="node">
<title>Node6</title>
<g id="a_Node000006"><a xlink:href="_client_8hpp.html" target="_top" xlink:title=" ">
<polygon fill="white" stroke="#666666" points="782,-30 675,-30 675,0 782,0 782,-30"/>
<text text-anchor="start" x="683" y="-18" font-family="Helvetica,sans-Serif" font-size="10.00">include/Thoth/Http</text>
<text text-anchor="middle" x="728.5" y="-7" font-family="Helvetica,sans-Serif" font-size="10.00">/Client.hpp</text>
</a>
</g>
</g>
<!-- Node5&#45;&gt;Node6 -->
<g id="edge6_Node000005_Node000006" class="edge">
<title>Node5&#45;&gt;Node6</title>
<g id="a_edge6_Node000005_Node000006"><a xlink:title=" ">
<path fill="none" stroke="#63b8ff" d="M842.53,-62.19C817.44,-52.02 786.43,-39.47 763.09,-30.01"/>
<polygon fill="#63b8ff" stroke="#63b8ff" points="841.24,-65.44 851.83,-65.95 843.87,-58.96 841.24,-65.44"/>
</a>
</g>
</g>
<!-- Node8 -->
<g id="Node000008" class="node">
<title>Node8</title>
<g id="a_Node000008"><a xlink:href="_connect_method_8hpp.html" target="_top" xlink:title=" ">
<polygon fill="white" stroke="#666666" points="1599.5,-305 1437.5,-305 1437.5,-275 1599.5,-275 1599.5,-305"/>
<text text-anchor="start" x="1445.5" y="-293" font-family="Helvetica,sans-Serif" font-size="10.00">include/Thoth/Http</text>
<text text-anchor="middle" x="1518.5" y="-282" font-family="Helvetica,sans-Serif" font-size="10.00">/Methods/ConnectMethod.hpp</text>
</a>
</g>
</g>
<!-- Node7&#45;&gt;Node8 -->
<g id="edge8_Node000007_Node000008" class="edge">
<title>Node7&#45;&gt;Node8</title>
<g id="a_edge8_Node000007_Node000008"><a xlink:title=" ">
<path fill="none" stroke="#63b8ff" d="M1205.02,-339.43C1269.12,-329.58 1353.66,-316.58 1428.5,-305 1431.31,-304.56 1434.18,-304.12 1437.07,-303.67"/>
<polygon fill="#63b8ff" stroke="#63b8ff" points="1204.27,-336 1194.91,-340.98 1205.33,-342.92 1204.27,-336"/>
</a>
</g>
</g>
<!-- Node9 -->
<g id="Node000009" class="node">
<title>Node9</title>
<g id="a_Node000009"><a xlink:href="_delete_method_8hpp.html" target="_top" xlink:title=" ">
<polygon fill="white" stroke="#666666" points="427,-305 272,-305 272,-275 427,-275 427,-305"/>
<text text-anchor="start" x="280" y="-293" font-family="Helvetica,sans-Serif" font-size="10.00">include/Thoth/Http</text>
<text text-anchor="middle" x="349.5" y="-282" font-family="Helvetica,sans-Serif" font-size="10.00">/Methods/DeleteMethod.hpp</text>
</a>
</g>
</g>
<!-- Node7&#45;&gt;Node9 -->
<g id="edge9_Node000007_Node000009" class="edge">
<title>Node7&#45;&gt;Node9</title>
<g id="a_edge9_Node000007_Node000009"><a xlink:title=" ">
<path fill="none" stroke="#63b8ff" d="M996.21,-349.76C864.19,-342.67 633.34,-328.17 436.5,-305 433.46,-304.64 430.37,-304.25 427.24,-303.84"/>
<polygon fill="#63b8ff" stroke="#63b8ff" points="996.15,-353.26 1006.32,-350.3 996.52,-346.27 996.15,-353.26"/>
</a>
</g>
</g>
<!-- Node10 -->
<g id="Node000010" class="node">
<title>Node10</title>
<g id="a_Node000010"><a xlink:href="_get_method_8hpp.html" target="_top" xlink:title=" ">
<polygon fill="white" stroke="#666666" points="585.5,-305 445.5,-305 445.5,-275 585.5,-275 585.5,-305"/>
<text text-anchor="start" x="453.5" y="-293" font-family="Helvetica,sans-Serif" font-size="10.00">include/Thoth/Http</text>
<text text-anchor="middle" x="515.5" y="-282" font-family="Helvetica,sans-Serif" font-size="10.00">/Methods/GetMethod.hpp</text>
</a>
</g>
</g>
<!-- Node7&#45;&gt;Node10 -->
<g id="edge10_Node000007_Node000010" class="edge">
<title>Node7&#45;&gt;Node10</title>
<g id="a_edge10_Node000007_Node000010"><a xlink:title=" ">
<path fill="none" stroke="#63b8ff" d="M996.01,-346.87C892.8,-338.5 732.62,-323.99 594.5,-305 591.6,-304.6 588.65,-304.17 585.67,-303.73"/>
<polygon fill="#63b8ff" stroke="#63b8ff" points="995.88,-350.38 1006.13,-347.69 996.45,-343.4 995.88,-350.38"/>
</a>
</g>
</g>
<!-- Node13 -->
<g id="Node000013" class="node">
<title>Node13</title>
<g id="a_Node000013"><a xlink:href="_head_method_8hpp.html" target="_top" xlink:title=" ">
<polygon fill="white" stroke="#666666" points="751.5,-305 603.5,-305 603.5,-275 751.5,-275 751.5,-305"/>
<text text-anchor="start" x="611.5" y="-293" font-family="Helvetica,sans-Serif" font-size="10.00">include/Thoth/Http</text>
<text text-anchor="middle" x="677.5" y="-282" font-family="Helvetica,sans-Serif" font-size="10.00">/Methods/HeadMethod.hpp</text>
</a>
</g>
</g>
<!-- Node7&#45;&gt;Node13 -->
<g id="edge16_Node000007_Node000013" class="edge">
<title>Node7&#45;&gt;Node13</title>
<g id="a_edge16_Node000007_Node000013"><a xlink:title=" ">
<path fill="none" stroke="#63b8ff" d="M995.96,-339.95C928.32,-330.33 839.24,-317.38 760.5,-305 757.61,-304.55 754.67,-304.08 751.7,-303.6"/>
<polygon fill="#63b8ff" stroke="#63b8ff" points="995.81,-343.47 1006.2,-341.41 996.8,-336.54 995.81,-343.47"/>
</a>
</g>
</g>
<!-- Node14 -->
<g id="Node000014" class="node">
<title>Node14</title>
<g id="a_Node000014"><a xlink:href="_options_method_8hpp.html" target="_top" xlink:title=" ">
<polygon fill="white" stroke="#666666" points="929.5,-305 769.5,-305 769.5,-275 929.5,-275 929.5,-305"/>
<text text-anchor="start" x="777.5" y="-293" font-family="Helvetica,sans-Serif" font-size="10.00">include/Thoth/Http</text>
<text text-anchor="middle" x="849.5" y="-282" font-family="Helvetica,sans-Serif" font-size="10.00">/Methods/OptionsMethod.hpp</text>
</a>
</g>
</g>
<!-- Node7&#45;&gt;Node14 -->
<g id="edge17_Node000007_Node000014" class="edge">
<title>Node7&#45;&gt;Node14</title>
<g id="a_edge17_Node000007_Node000014"><a xlink:title=" ">
<path fill="none" stroke="#63b8ff" d="M1037.82,-338.45C996.67,-328.08 944.21,-314.86 905.11,-305.01"/>
<polygon fill="#63b8ff" stroke="#63b8ff" points="1037.21,-341.91 1047.76,-340.95 1038.92,-335.12 1037.21,-341.91"/>
</a>
</g>
</g>
<!-- Node15 -->
<g id="Node000015" class="node">
<title>Node15</title>
<g id="a_Node000015"><a xlink:href="_patch_method_8hpp.html" target="_top" xlink:title=" ">
<polygon fill="white" stroke="#666666" points="1097,-305 948,-305 948,-275 1097,-275 1097,-305"/>
<text text-anchor="start" x="956" y="-293" font-family="Helvetica,sans-Serif" font-size="10.00">include/Thoth/Http</text>
<text text-anchor="middle" x="1022.5" y="-282" font-family="Helvetica,sans-Serif" font-size="10.00">/Methods/PatchMethod.hpp</text>
</a>
</g>
</g>
<!-- Node7&#45;&gt;Node15 -->
<g id="edge18_Node000007_Node000015" class="edge">
<title>Node7&#45;&gt;Node15</title>
<g id="a_edge18_Node000007_Node000015"><a xlink:title=" ">
<path fill="none" stroke="#63b8ff" d="M1077.53,-334.48C1065.42,-324.91 1051.32,-313.77 1040.43,-305.16"/>
<polygon fill="#63b8ff" stroke="#63b8ff" points="1075.51,-337.34 1085.52,-340.8 1079.85,-331.85 1075.51,-337.34"/>
</a>
</g>
</g>
<!-- Node16 -->
<g id="Node000016" class="node">
<title>Node16</title>
<g id="a_Node000016"><a xlink:href="_post_method_8hpp.html" target="_top" xlink:title=" ">
<polygon fill="white" stroke="#666666" points="1761,-305 1618,-305 1618,-275 1761,-275 1761,-305"/>
<text text-anchor="start" x="1626" y="-293" font-family="Helvetica,sans-Serif" font-size="10.00">include/Thoth/Http</text>
<text text-anchor="middle" x="1689.5" y="-282" font-family="Helvetica,sans-Serif" font-size="10.00">/Methods/PostMethod.hpp</text>
</a>
</g>
</g>
<!-- Node7&#45;&gt;Node16 -->
<g id="edge19_Node000007_Node000016" class="edge">
<title>Node7&#45;&gt;Node16</title>
<g id="a_edge19_Node000007_Node000016"><a xlink:title=" ">
<path fill="none" stroke="#63b8ff" d="M1210.6,-346.66C1313,-338.15 1471.63,-323.58 1608.5,-305 1611.61,-304.58 1614.79,-304.12 1617.99,-303.65"/>
<polygon fill="#63b8ff" stroke="#63b8ff" points="1210.23,-343.18 1200.56,-347.49 1210.81,-350.16 1210.23,-343.18"/>
</a>
</g>
</g>
<!-- Node17 -->
<g id="Node000017" class="node">
<title>Node17</title>
<g id="a_Node000017"><a xlink:href="_put_method_8hpp.html" target="_top" xlink:title=" ">
<polygon fill="white" stroke="#666666" points="1253.5,-305 1115.5,-305 1115.5,-275 1253.5,-275 1253.5,-305"/>
<text text-anchor="start" x="1123.5" y="-293" font-family="Helvetica,sans-Serif" font-size="10.00">include/Thoth/Http</text>
<text text-anchor="middle" x="1184.5" y="-282" font-family="Helvetica,sans-Serif" font-size="10.00">/Methods/PutMethod.hpp</text>
</a>
</g>
</g>
<!-- Node7&#45;&gt;Node17 -->
<g id="edge22_Node000007_Node000017" class="edge">
<title>Node7&#45;&gt;Node17</title>
<g id="a_edge22_Node000007_Node000017"><a xlink:title=" ">
<path fill="none" stroke="#63b8ff" d="M1129.47,-334.48C1141.58,-324.91 1155.68,-313.77 1166.57,-305.16"/>
<polygon fill="#63b8ff" stroke="#63b8ff" points="1127.15,-331.85 1121.48,-340.8 1131.49,-337.34 1127.15,-331.85"/>
</a>
</g>
</g>
<!-- Node18 -->
<g id="Node000018" class="node">
<title>Node18</title>
<g id="a_Node000018"><a xlink:href="_trace_method_8hpp.html" target="_top" xlink:title=" ">
<polygon fill="white" stroke="#666666" points="1419.5,-305 1271.5,-305 1271.5,-275 1419.5,-275 1419.5,-305"/>
<text text-anchor="start" x="1279.5" y="-293" font-family="Helvetica,sans-Serif" font-size="10.00">include/Thoth/Http</text>
<text text-anchor="middle" x="1345.5" y="-282" font-family="Helvetica,sans-Serif" font-size="10.00">/Methods/TraceMethod.hpp</text>
</a>
</g>
</g>
<!-- Node7&#45;&gt;Node18 -->
<g id="edge23_Node000007_Node000018" class="edge">
<title>Node7&#45;&gt;Node18</title>
<g id="a_edge23_Node000007_Node000018"><a xlink:title=" ">
<path fill="none" stroke="#63b8ff" d="M1166.32,-338.39C1205.5,-328.03 1255.35,-314.84 1292.52,-305.01"/>
<polygon fill="#63b8ff" stroke="#63b8ff" points="1165.38,-335.01 1156.61,-340.95 1167.17,-341.78 1165.38,-335.01"/>
</a>
</g>
</g>
<!-- Node10&#45;&gt;Node5 -->
<g id="edge15_Node000010_Node000005" class="edge">
<title>Node10&#45;&gt;Node5</title>
<g id="a_edge15_Node000010_Node000005"><a xlink:title=" ">
<path fill="none" stroke="#63b8ff" d="M552.78,-270.27C570.9,-261.05 592.94,-249.64 612.5,-239 706.18,-188.05 815.67,-123.89 862.88,-96.01"/>
<polygon fill="#63b8ff" stroke="#63b8ff" points="551.02,-267.24 543.69,-274.89 554.19,-273.48 551.02,-267.24"/>
</a>
</g>
</g>
<!-- Node11 -->
<g id="Node000011" class="node">
<title>Node11</title>
<g id="a_Node000011"><a xlink:href="_request_8hpp.html" target="_top" xlink:title=" ">
<polygon fill="white" stroke="#666666" points="604,-239 481,-239 481,-209 604,-209 604,-239"/>
<text text-anchor="start" x="489" y="-227" font-family="Helvetica,sans-Serif" font-size="10.00">include/Thoth/Http</text>
<text text-anchor="middle" x="542.5" y="-216" font-family="Helvetica,sans-Serif" font-size="10.00">/Request/Request.hpp</text>
</a>
</g>
</g>
<!-- Node10&#45;&gt;Node11 -->
<g id="edge11_Node000010_Node000011" class="edge">
<title>Node10&#45;&gt;Node11</title>
<g id="a_edge11_Node000010_Node000011"><a xlink:title=" ">
<path fill="none" stroke="#63b8ff" d="M525.46,-265.39C529.17,-256.59 533.28,-246.86 536.52,-239.16"/>
<polygon fill="#63b8ff" stroke="#63b8ff" points="522.15,-264.22 521.49,-274.8 528.6,-266.94 522.15,-264.22"/>
</a>
</g>
</g>
<!-- Node11&#45;&gt;Node6 -->
<g id="edge12_Node000011_Node000006" class="edge">
<title>Node11&#45;&gt;Node6</title>
<g id="a_edge12_Node000011_Node000006"><a xlink:title=" ">
<path fill="none" stroke="#63b8ff" d="M586.88,-204.5C602.81,-196.42 620.12,-185.83 633.5,-173 678.8,-129.56 710.64,-60 722.91,-30.25"/>
<polygon fill="#63b8ff" stroke="#63b8ff" points="585.17,-201.44 577.71,-208.96 588.23,-207.74 585.17,-201.44"/>
</a>
</g>
</g>
<!-- Node11&#45;&gt;Node12 -->
<g id="edge13_Node000011_Node000012" class="edge">
<title>Node11&#45;&gt;Node12</title>
<g id="a_edge13_Node000011_Node000012"><a xlink:title=" ">
<path fill="none" stroke="#63b8ff" d="M542.5,-198.75C542.5,-188.31 542.5,-176.49 542.5,-167.54"/>
<polygon fill="#63b8ff" stroke="#63b8ff" points="539,-198.94 542.5,-208.94 546,-198.94 539,-198.94"/>
</a>
</g>
</g>
<!-- Node12&#45;&gt;Node5 -->
<g id="edge14_Node000012_Node000005" class="edge">
<title>Node12&#45;&gt;Node5</title>
<g id="a_edge14_Node000012_Node000005"><a xlink:title=" ">
<path fill="none" stroke="#63b8ff" d="M622.15,-135.41C681.19,-123.48 760.88,-107.38 817.28,-95.98"/>
<polygon fill="#63b8ff" stroke="#63b8ff" points="621.22,-132.02 612.11,-137.44 622.61,-138.89 621.22,-132.02"/>
</a>
</g>
</g>
<!-- Node16&#45;&gt;Node5 -->
<g id="edge21_Node000016_Node000005" class="edge">
<title>Node16&#45;&gt;Node5</title>
<g id="a_edge21_Node000016_Node000005"><a xlink:title=" ">
<path fill="none" stroke="#63b8ff" d="M1608.05,-274.98C1319.32,-229.54 1212.51,-314.75 962.5,-173 930.09,-154.62 905.52,-116.74 893.9,-96.12"/>
<polygon fill="#63b8ff" stroke="#63b8ff" points="1607.53,-278.44 1617.96,-276.58 1608.64,-271.53 1607.53,-278.44"/>
</a>
</g>
</g>
<!-- Node16&#45;&gt;Node11 -->
<g id="edge20_Node000016_Node000011" class="edge">
<title>Node16&#45;&gt;Node11</title>
<g id="a_edge20_Node000016_Node000011"><a xlink:title=" ">
<path fill="none" stroke="#63b8ff" d="M1607.37,-275.07C1471.35,-262.57 810.32,-235.67 604.05,-227.44"/>
<polygon fill="#63b8ff" stroke="#63b8ff" points="1607.28,-278.58 1617.58,-276.09 1607.97,-271.61 1607.28,-278.58"/>
</a>
</g>
</g>
<!-- Node21&#45;&gt;Node11 -->
<g id="edge27_Node000021_Node000011" class="edge">
<title>Node21&#45;&gt;Node11</title>
<g id="a_edge27_Node000021_Node000011"><a xlink:title=" ">
<path fill="none" stroke="#63b8ff" d="M138.25,-335.6C168.67,-317.27 217.14,-290.36 262.5,-275 335.34,-250.33 423.19,-237.17 480.83,-230.65"/>
<polygon fill="#63b8ff" stroke="#63b8ff" points="136.12,-332.8 129.41,-340.99 139.77,-338.77 136.12,-332.8"/>
</a>
</g>
</g>
<!-- Node22&#45;&gt;Node5 -->
<g id="edge29_Node000022_Node000005" class="edge">
<title>Node22&#45;&gt;Node5</title>
<g id="a_edge29_Node000022_Node000005"><a xlink:title=" ">
<path fill="none" stroke="#63b8ff" d="M1065.74,-129.37C1024.35,-118.43 975.67,-105.56 939.49,-96"/>
<polygon fill="#63b8ff" stroke="#63b8ff" points="1064.98,-132.78 1075.54,-131.96 1066.77,-126.02 1064.98,-132.78"/>
</a>
</g>
</g>
</g>
</svg>
