<?xml version="1.0" encoding="UTF-8" standalone="no"?>
<!DOCTYPE svg PUBLIC "-//W3C//DTD SVG 1.1//EN"
 "http://www.w3.org/Graphics/SVG/1.1/DTD/svg11.dtd">
<!-- Generated by graphviz version 2.43.0 (0)
 -->
<!-- Title: include/Thoth/Http/Methods/TraceMethod.hpp Pages: 1 -->
<svg width="1073pt" height="357pt"
 viewBox="0.00 0.00 1073.22 357.00" xmlns="http://www.w3.org/2000/svg" xmlns:xlink="http://www.w3.org/1999/xlink">
<g id="graph0" class="graph" transform="scale(1 1) rotate(0) translate(4 353)">
<title>include/Thoth/Http/Methods/TraceMethod.hpp</title>
<!-- Node1 -->
<g id="Node000001" class="node">
<title>Node1</title>
<g id="a_Node000001"><a xlink:title=" ">
<polygon fill="#999999" stroke="#666666" points="866.5,-349 718.5,-349 718.5,-319 866.5,-319 866.5,-349"/>
<text text-anchor="start" x="726.5" y="-337" font-family="Helvetica,sans-Serif" font-size="10.00">include/Thoth/Http</text>
<text text-anchor="middle" x="792.5" y="-326" font-family="Helvetica,sans-Serif" font-size="10.00">/Methods/TraceMethod.hpp</text>
</a>
</g>
</g>
<!-- Node2 -->
<g id="Node000002" class="node">
<title>Node2</title>
<g id="a_Node000002"><a xlink:href="_method_concept_8hpp.html" target="_top" xlink:title=" ">
<polygon fill="white" stroke="#666666" points="867,-283 718,-283 718,-253 867,-253 867,-283"/>
<text text-anchor="start" x="726" y="-271" font-family="Helvetica,sans-Serif" font-size="10.00">Thoth/Http/Methods</text>
<text text-anchor="middle" x="792.5" y="-260" font-family="Helvetica,sans-Serif" font-size="10.00">/_base/MethodConcept.hpp</text>
</a>
</g>
</g>
<!-- Node1&#45;&gt;Node2 -->
<g id="edge1_Node000001_Node000002" class="edge">
<title>Node1&#45;&gt;Node2</title>
<g id="a_edge1_Node000001_Node000002"><a xlink:title=" ">
<path fill="none" stroke="#63b8ff" d="M792.5,-318.8C792.5,-311.34 792.5,-301.99 792.5,-293.41"/>
<polygon fill="#63b8ff" stroke="#63b8ff" points="796,-293.16 792.5,-283.16 789,-293.16 796,-293.16"/>
</a>
</g>
</g>
<!-- Node3 -->
<g id="Node000003" class="node">
<title>Node3</title>
<g id="a_Node000003"><a xlink:href="_status_code_enum_8hpp.html" target="_top" xlink:title=" ">
<polygon fill="white" stroke="#666666" points="759.5,-151 635.5,-151 635.5,-121 759.5,-121 759.5,-151"/>
<text text-anchor="start" x="643.5" y="-139" font-family="Helvetica,sans-Serif" font-size="10.00">Thoth/Http/Response</text>
<text text-anchor="middle" x="697.5" y="-128" font-family="Helvetica,sans-Serif" font-size="10.00">/StatusCodeEnum.hpp</text>
</a>
</g>
</g>
<!-- Node2&#45;&gt;Node3 -->
<g id="edge2_Node000002_Node000003" class="edge">
<title>Node2&#45;&gt;Node3</title>
<g id="a_edge2_Node000002_Node000003"><a xlink:title=" ">
<path fill="none" stroke="#63b8ff" d="M782.15,-252.84C765.73,-230.37 733.57,-186.36 713.96,-159.53"/>
<polygon fill="#63b8ff" stroke="#63b8ff" points="716.56,-157.15 707.83,-151.14 710.91,-161.28 716.56,-157.15"/>
</a>
</g>
</g>
<!-- Node6 -->
<g id="Node000006" class="node">
<title>Node6</title>
<g id="a_Node000006"><a xlink:href="_url_8hpp.html" target="_top" xlink:title=" ">
<polygon fill="white" stroke="#666666" points="533,-217 422,-217 422,-187 533,-187 533,-217"/>
<text text-anchor="start" x="430" y="-205" font-family="Helvetica,sans-Serif" font-size="10.00">Thoth/Http/Request</text>
<text text-anchor="middle" x="477.5" y="-194" font-family="Helvetica,sans-Serif" font-size="10.00">/Url.hpp</text>
</a>
</g>
</g>
<!-- Node2&#45;&gt;Node6 -->
<g id="edge5_Node000002_Node000006" class="edge">
<title>Node2&#45;&gt;Node6</title>
<g id="a_edge5_Node000002_Node000006"><a xlink:title=" ">
<path fill="none" stroke="#63b8ff" d="M723.37,-252.95C669.69,-242.05 595.77,-227.03 543.02,-216.31"/>
<polygon fill="#63b8ff" stroke="#63b8ff" points="543.6,-212.86 533.1,-214.3 542.2,-219.72 543.6,-212.86"/>
</a>
</g>
</g>
<!-- Node19 -->
<g id="Node000019" class="node">
<title>Node19</title>
<g id="a_Node000019"><a xlink:href="_headers_8hpp.html" target="_top" xlink:title=" ">
<polygon fill="white" stroke="#666666" points="907,-211.5 774,-211.5 774,-192.5 907,-192.5 907,-211.5"/>
<text text-anchor="middle" x="840.5" y="-199.5" font-family="Helvetica,sans-Serif" font-size="10.00">Thoth/Http/Headers.hpp</text>
</a>
</g>
</g>
<!-- Node2&#45;&gt;Node19 -->
<g id="edge22_Node000002_Node000019" class="edge">
<title>Node2&#45;&gt;Node19</title>
<g id="a_edge22_Node000002_Node000019"><a xlink:title=" ">
<path fill="none" stroke="#63b8ff" d="M803.15,-252.8C810.42,-243.11 820.07,-230.24 827.74,-220.01"/>
<polygon fill="#63b8ff" stroke="#63b8ff" points="830.67,-221.94 833.87,-211.84 825.07,-217.74 830.67,-221.94"/>
</a>
</g>
</g>
<!-- Node22 -->
<g id="Node000022" class="node">
<title>Node22</title>
<g id="a_Node000022"><a xlink:title=" ">
<polygon fill="#e0e0e0" stroke="#999999" points="998,-211.5 925,-211.5 925,-192.5 998,-192.5 998,-211.5"/>
<text text-anchor="middle" x="961.5" y="-199.5" font-family="Helvetica,sans-Serif" font-size="10.00">string_view</text>
</a>
</g>
</g>
<!-- Node2&#45;&gt;Node22 -->
<g id="edge30_Node000002_Node000022" class="edge">
<title>Node2&#45;&gt;Node22</title>
<g id="a_edge30_Node000002_Node000022"><a xlink:title=" ">
<path fill="none" stroke="#63b8ff" d="M829.59,-252.95C859.49,-241.63 901.1,-225.88 929.54,-215.1"/>
<polygon fill="#63b8ff" stroke="#63b8ff" points="930.9,-218.33 939.01,-211.52 928.42,-211.79 930.9,-218.33"/>
</a>
</g>
</g>
<!-- Node4 -->
<g id="Node000004" class="node">
<title>Node4</title>
<g id="a_Node000004"><a xlink:title=" ">
<polygon fill="#e0e0e0" stroke="#999999" points="533.5,-79.5 471.5,-79.5 471.5,-60.5 533.5,-60.5 533.5,-79.5"/>
<text text-anchor="middle" x="502.5" y="-67.5" font-family="Helvetica,sans-Serif" font-size="10.00">expected</text>
</a>
</g>
</g>
<!-- Node3&#45;&gt;Node4 -->
<g id="edge3_Node000003_Node000004" class="edge">
<title>Node3&#45;&gt;Node4</title>
<g id="a_edge3_Node000003_Node000004"><a xlink:title=" ">
<path fill="none" stroke="#63b8ff" d="M652.97,-120.96C621.94,-111.09 579.62,-97.48 542.5,-85 540.4,-84.3 538.25,-83.56 536.08,-82.82"/>
<polygon fill="#63b8ff" stroke="#63b8ff" points="537.18,-79.5 526.58,-79.54 534.89,-86.11 537.18,-79.5"/>
</a>
</g>
</g>
<!-- Node5 -->
<g id="Node000005" class="node">
<title>Node5</title>
<g id="a_Node000005"><a xlink:title=" ">
<polygon fill="#e0e0e0" stroke="#999999" points="1003.5,-79.5 947.5,-79.5 947.5,-60.5 1003.5,-60.5 1003.5,-79.5"/>
<text text-anchor="middle" x="975.5" y="-67.5" font-family="Helvetica,sans-Serif" font-size="10.00">optional</text>
</a>
</g>
</g>
<!-- Node3&#45;&gt;Node5 -->
<g id="edge4_Node000003_Node000005" class="edge">
<title>Node3&#45;&gt;Node5</title>
<g id="a_edge4_Node000003_Node000005"><a xlink:title=" ">
<path fill="none" stroke="#63b8ff" d="M758.51,-120.95C813.04,-108.4 891.26,-90.39 937.37,-79.78"/>
<polygon fill="#63b8ff" stroke="#63b8ff" points="938.3,-83.16 947.26,-77.5 936.73,-76.33 938.3,-83.16"/>
</a>
</g>
</g>
<!-- Node6&#45;&gt;Node4 -->
<g id="edge6_Node000006_Node000004" class="edge">
<title>Node6&#45;&gt;Node4</title>
<g id="a_edge6_Node000006_Node000004"><a xlink:title=" ">
<path fill="none" stroke="#63b8ff" d="M470.82,-186.79C464.13,-170.53 455.84,-143.27 463.5,-121 467.89,-108.25 477,-96.25 485.32,-87.21"/>
<polygon fill="#63b8ff" stroke="#63b8ff" points="488.08,-89.39 492.58,-79.79 483.08,-84.49 488.08,-89.39"/>
</a>
</g>
</g>
<!-- Node7 -->
<g id="Node000007" class="node">
<title>Node7</title>
<g id="a_Node000007"><a xlink:title=" ">
<polygon fill="#e0e0e0" stroke="#999999" points="595.5,-79.5 551.5,-79.5 551.5,-60.5 595.5,-60.5 595.5,-79.5"/>
<text text-anchor="middle" x="573.5" y="-67.5" font-family="Helvetica,sans-Serif" font-size="10.00">string</text>
</a>
</g>
</g>
<!-- Node6&#45;&gt;Node7 -->
<g id="edge7_Node000006_Node000007" class="edge">
<title>Node6&#45;&gt;Node7</title>
<g id="a_edge7_Node000006_Node000007"><a xlink:title=" ">
<path fill="none" stroke="#63b8ff" d="M477.99,-186.7C479.22,-169.62 483.42,-140.85 497.5,-121 504.36,-111.32 529.34,-95.79 548.81,-84.6"/>
<polygon fill="#63b8ff" stroke="#63b8ff" points="550.57,-87.63 557.55,-79.65 547.12,-81.53 550.57,-87.63"/>
</a>
</g>
</g>
<!-- Node8 -->
<g id="Node000008" class="node">
<title>Node8</title>
<g id="a_Node000008"><a xlink:href="_query_params_8hpp.html" target="_top" xlink:title=" ">
<polygon fill="white" stroke="#666666" points="411,-151 300,-151 300,-121 411,-121 411,-151"/>
<text text-anchor="start" x="308" y="-139" font-family="Helvetica,sans-Serif" font-size="10.00">Thoth/Http/Request</text>
<text text-anchor="middle" x="355.5" y="-128" font-family="Helvetica,sans-Serif" font-size="10.00">/QueryParams.hpp</text>
</a>
</g>
</g>
<!-- Node6&#45;&gt;Node8 -->
<g id="edge8_Node000006_Node000008" class="edge">
<title>Node6&#45;&gt;Node8</title>
<g id="a_edge8_Node000006_Node000008"><a xlink:title=" ">
<path fill="none" stroke="#63b8ff" d="M450.73,-186.95C433.25,-177.78 410.22,-165.71 391.19,-155.72"/>
<polygon fill="#63b8ff" stroke="#63b8ff" points="392.69,-152.56 382.21,-151.01 389.44,-158.76 392.69,-152.56"/>
</a>
</g>
</g>
<!-- Node18 -->
<g id="Node000018" class="node">
<title>Node18</title>
<g id="a_Node000018"><a xlink:title=" ">
<polygon fill="#e0e0e0" stroke="#999999" points="617,-151 506,-151 506,-121 617,-121 617,-151"/>
<text text-anchor="start" x="514" y="-139" font-family="Helvetica,sans-Serif" font-size="10.00">Thoth/Http/Request</text>
<text text-anchor="middle" x="561.5" y="-128" font-family="Helvetica,sans-Serif" font-size="10.00">/Url.tpp</text>
</a>
</g>
</g>
<!-- Node6&#45;&gt;Node18 -->
<g id="edge21_Node000006_Node000018" class="edge">
<title>Node6&#45;&gt;Node18</title>
<g id="a_edge21_Node000006_Node000018"><a xlink:title=" ">
<path fill="none" stroke="#63b8ff" d="M496.14,-186.8C507.45,-178.18 522.08,-167.04 534.62,-157.48"/>
<polygon fill="#63b8ff" stroke="#63b8ff" points="537.08,-160.01 542.91,-151.16 532.83,-154.44 537.08,-160.01"/>
</a>
</g>
</g>
<!-- Node8&#45;&gt;Node4 -->
<g id="edge9_Node000008_Node000004" class="edge">
<title>Node8&#45;&gt;Node4</title>
<g id="a_edge9_Node000008_Node000004"><a xlink:title=" ">
<path fill="none" stroke="#63b8ff" d="M387.76,-120.95C413.43,-109.78 449.01,-94.29 473.72,-83.53"/>
<polygon fill="#63b8ff" stroke="#63b8ff" points="475.17,-86.72 482.94,-79.52 472.37,-80.3 475.17,-86.72"/>
</a>
</g>
</g>
<!-- Node8&#45;&gt;Node7 -->
<g id="edge12_Node000008_Node000007" class="edge">
<title>Node8&#45;&gt;Node7</title>
<g id="a_edge12_Node000008_Node000007"><a xlink:title=" ">
<path fill="none" stroke="#63b8ff" d="M411.05,-122.66C448.63,-113.7 499.14,-100.47 542.5,-85 543.89,-84.5 545.31,-83.97 546.73,-83.41"/>
<polygon fill="#63b8ff" stroke="#63b8ff" points="548.15,-86.61 556,-79.5 545.43,-80.16 548.15,-86.61"/>
</a>
</g>
</g>
<!-- Node9 -->
<g id="Node000009" class="node">
<title>Node9</title>
<g id="a_Node000009"><a xlink:title=" ">
<polygon fill="#e0e0e0" stroke="#999999" points="752.5,-79.5 702.5,-79.5 702.5,-60.5 752.5,-60.5 752.5,-79.5"/>
<text text-anchor="middle" x="727.5" y="-67.5" font-family="Helvetica,sans-Serif" font-size="10.00">format</text>
</a>
</g>
</g>
<!-- Node8&#45;&gt;Node9 -->
<g id="edge10_Node000008_Node000009" class="edge">
<title>Node8&#45;&gt;Node9</title>
<g id="a_edge10_Node000008_Node000009"><a xlink:title=" ">
<path fill="none" stroke="#63b8ff" d="M411.19,-125.42C488.76,-112.07 627.09,-88.28 692.01,-77.11"/>
<polygon fill="#63b8ff" stroke="#63b8ff" points="692.88,-80.51 702.15,-75.36 691.7,-73.61 692.88,-80.51"/>
</a>
</g>
</g>
<!-- Node10 -->
<g id="Node000010" class="node">
<title>Node10</title>
<g id="a_Node000010"><a xlink:title=" ">
<polygon fill="#e0e0e0" stroke="#999999" points="506,-19 459,-19 459,0 506,0 506,-19"/>
<text text-anchor="middle" x="482.5" y="-7" font-family="Helvetica,sans-Serif" font-size="10.00">vector</text>
</a>
</g>
</g>
<!-- Node8&#45;&gt;Node10 -->
<g id="edge11_Node000008_Node000010" class="edge">
<title>Node8&#45;&gt;Node10</title>
<g id="a_edge11_Node000008_Node000010"><a xlink:title=" ">
<path fill="none" stroke="#63b8ff" d="M344.97,-120.93C333.54,-103.81 318.78,-74.75 333.5,-55 337.06,-50.23 406.43,-30.91 449.24,-19.35"/>
<polygon fill="#63b8ff" stroke="#63b8ff" points="450.23,-22.71 458.98,-16.74 448.42,-15.95 450.23,-22.71"/>
</a>
</g>
</g>
<!-- Node11 -->
<g id="Node000011" class="node">
<title>Node11</title>
<g id="a_Node000011"><a xlink:href="_linear_map_8hpp.html" target="_top" xlink:title=" ">
<polygon fill="white" stroke="#666666" points="285,-79.5 144,-79.5 144,-60.5 285,-60.5 285,-79.5"/>
<text text-anchor="middle" x="214.5" y="-67.5" font-family="Helvetica,sans-Serif" font-size="10.00">Thoth/Dsa/LinearMap.hpp</text>
</a>
</g>
</g>
<!-- Node8&#45;&gt;Node11 -->
<g id="edge13_Node000008_Node000011" class="edge">
<title>Node8&#45;&gt;Node11</title>
<g id="a_edge13_Node000008_Node000011"><a xlink:title=" ">
<path fill="none" stroke="#63b8ff" d="M324.56,-120.95C300.05,-109.83 266.11,-94.42 242.42,-83.67"/>
<polygon fill="#63b8ff" stroke="#63b8ff" points="243.82,-80.46 233.26,-79.52 240.92,-86.84 243.82,-80.46"/>
</a>
</g>
</g>
<!-- Node17 -->
<g id="Node000017" class="node">
<title>Node17</title>
<g id="a_Node000017"><a xlink:title=" ">
<polygon fill="#e0e0e0" stroke="#999999" points="453,-85 342,-85 342,-55 453,-55 453,-85"/>
<text text-anchor="start" x="350" y="-73" font-family="Helvetica,sans-Serif" font-size="10.00">Thoth/Http/Request</text>
<text text-anchor="middle" x="397.5" y="-62" font-family="Helvetica,sans-Serif" font-size="10.00">/QueryParams.tpp</text>
</a>
</g>
</g>
<!-- Node8&#45;&gt;Node17 -->
<g id="edge20_Node000008_Node000017" class="edge">
<title>Node8&#45;&gt;Node17</title>
<g id="a_edge20_Node000008_Node000017"><a xlink:title=" ">
<path fill="none" stroke="#63b8ff" d="M364.82,-120.8C370.04,-112.84 376.67,-102.74 382.6,-93.71"/>
<polygon fill="#63b8ff" stroke="#63b8ff" points="385.64,-95.44 388.2,-85.16 379.79,-91.6 385.64,-95.44"/>
</a>
</g>
</g>
<!-- Node11&#45;&gt;Node10 -->
<g id="edge14_Node000011_Node000010" class="edge">
<title>Node11&#45;&gt;Node10</title>
<g id="a_edge14_Node000011_Node000010"><a xlink:title=" ">
<path fill="none" stroke="#63b8ff" d="M258.15,-60.44C303.49,-51.4 376.74,-36.37 448.64,-19.36"/>
<polygon fill="#63b8ff" stroke="#63b8ff" points="449.85,-22.67 458.77,-16.95 448.23,-15.86 449.85,-22.67"/>
</a>
</g>
</g>
<!-- Node12 -->
<g id="Node000012" class="node">
<title>Node12</title>
<g id="a_Node000012"><a xlink:title=" ">
<polygon fill="#e0e0e0" stroke="#999999" points="45,-19 0,-19 0,0 45,0 45,-19"/>
<text text-anchor="middle" x="22.5" y="-7" font-family="Helvetica,sans-Serif" font-size="10.00">utility</text>
</a>
</g>
</g>
<!-- Node11&#45;&gt;Node12 -->
<g id="edge15_Node000011_Node000012" class="edge">
<title>Node11&#45;&gt;Node12</title>
<g id="a_edge15_Node000011_Node000012"><a xlink:title=" ">
<path fill="none" stroke="#63b8ff" d="M186.58,-60.49C151.6,-49.83 91.76,-31.6 54.82,-20.35"/>
<polygon fill="#63b8ff" stroke="#63b8ff" points="55.64,-16.94 45.05,-17.37 53.6,-23.63 55.64,-16.94"/>
</a>
</g>
</g>
<!-- Node13 -->
<g id="Node000013" class="node">
<title>Node13</title>
<g id="a_Node000013"><a xlink:title=" ">
<polygon fill="#e0e0e0" stroke="#999999" points="123.5,-19 63.5,-19 63.5,0 123.5,0 123.5,-19"/>
<text text-anchor="middle" x="93.5" y="-7" font-family="Helvetica,sans-Serif" font-size="10.00">concepts</text>
</a>
</g>
</g>
<!-- Node11&#45;&gt;Node13 -->
<g id="edge16_Node000011_Node000013" class="edge">
<title>Node11&#45;&gt;Node13</title>
<g id="a_edge16_Node000011_Node000013"><a xlink:title=" ">
<path fill="none" stroke="#63b8ff" d="M196.91,-60.49C176.74,-50.75 143.48,-34.66 120.14,-23.38"/>
<polygon fill="#63b8ff" stroke="#63b8ff" points="121.64,-20.22 111.12,-19.02 118.6,-26.52 121.64,-20.22"/>
</a>
</g>
</g>
<!-- Node14 -->
<g id="Node000014" class="node">
<title>Node14</title>
<g id="a_Node000014"><a xlink:title=" ">
<polygon fill="#e0e0e0" stroke="#999999" points="207,-19 142,-19 142,0 207,0 207,-19"/>
<text text-anchor="middle" x="174.5" y="-7" font-family="Helvetica,sans-Serif" font-size="10.00">functional</text>
</a>
</g>
</g>
<!-- Node11&#45;&gt;Node14 -->
<g id="edge17_Node000011_Node000014" class="edge">
<title>Node11&#45;&gt;Node14</title>
<g id="a_edge17_Node000011_Node000014"><a xlink:title=" ">
<path fill="none" stroke="#63b8ff" d="M208.6,-60.37C202.75,-51.81 193.63,-38.47 186.29,-27.74"/>
<polygon fill="#63b8ff" stroke="#63b8ff" points="188.96,-25.45 180.43,-19.17 183.18,-29.4 188.96,-25.45"/>
</a>
</g>
</g>
<!-- Node15 -->
<g id="Node000015" class="node">
<title>Node15</title>
<g id="a_Node000015"><a xlink:title=" ">
<polygon fill="#e0e0e0" stroke="#999999" points="284,-19 225,-19 225,0 284,0 284,-19"/>
<text text-anchor="middle" x="254.5" y="-7" font-family="Helvetica,sans-Serif" font-size="10.00">compare</text>
</a>
</g>
</g>
<!-- Node11&#45;&gt;Node15 -->
<g id="edge18_Node000011_Node000015" class="edge">
<title>Node11&#45;&gt;Node15</title>
<g id="a_edge18_Node000011_Node000015"><a xlink:title=" ">
<path fill="none" stroke="#63b8ff" d="M220.4,-60.37C226.25,-51.81 235.37,-38.47 242.71,-27.74"/>
<polygon fill="#63b8ff" stroke="#63b8ff" points="245.82,-29.4 248.57,-19.17 240.04,-25.45 245.82,-29.4"/>
</a>
</g>
</g>
<!-- Node16 -->
<g id="Node000016" class="node">
<title>Node16</title>
<g id="a_Node000016"><a xlink:title=" ">
<polygon fill="#e0e0e0" stroke="#999999" points="441,-19 302,-19 302,0 441,0 441,-19"/>
<text text-anchor="middle" x="371.5" y="-7" font-family="Helvetica,sans-Serif" font-size="10.00">Thoth/Dsa/LinearMap.tpp</text>
</a>
</g>
</g>
<!-- Node11&#45;&gt;Node16 -->
<g id="edge19_Node000011_Node000016" class="edge">
<title>Node11&#45;&gt;Node16</title>
<g id="a_edge19_Node000011_Node000016"><a xlink:title=" ">
<path fill="none" stroke="#63b8ff" d="M237.33,-60.49C264.07,-50.53 308.58,-33.95 338.94,-22.63"/>
<polygon fill="#63b8ff" stroke="#63b8ff" points="340.49,-25.79 348.64,-19.02 338.05,-19.23 340.49,-25.79"/>
</a>
</g>
</g>
<!-- Node19&#45;&gt;Node3 -->
<g id="edge23_Node000019_Node000003" class="edge">
<title>Node19&#45;&gt;Node3</title>
<g id="a_edge23_Node000019_Node000003"><a xlink:title=" ">
<path fill="none" stroke="#63b8ff" d="M821.21,-192.37C800.07,-182.91 765.54,-167.45 738.33,-155.27"/>
<polygon fill="#63b8ff" stroke="#63b8ff" points="739.6,-152.01 729.04,-151.12 736.74,-158.4 739.6,-152.01"/>
</a>
</g>
</g>
<!-- Node19&#45;&gt;Node5 -->
<g id="edge24_Node000019_Node000005" class="edge">
<title>Node19&#45;&gt;Node5</title>
<g id="a_edge24_Node000019_Node000005"><a xlink:title=" ">
<path fill="none" stroke="#63b8ff" d="M887.65,-192.41C944.01,-181.67 1031.95,-163.22 1041.5,-151 1060.05,-127.27 1026.18,-100.39 1000.47,-84.62"/>
<polygon fill="#63b8ff" stroke="#63b8ff" points="1002.21,-81.58 991.82,-79.52 998.66,-87.61 1002.21,-81.58"/>
</a>
</g>
</g>
<!-- Node19&#45;&gt;Node7 -->
<g id="edge27_Node000019_Node000007" class="edge">
<title>Node19&#45;&gt;Node7</title>
<g id="a_edge27_Node000019_Node000007"><a xlink:title=" ">
<path fill="none" stroke="#63b8ff" d="M835.33,-192.5C824.87,-176.04 799.51,-139.78 768.5,-121 716.91,-89.76 646.26,-77.92 605.69,-73.52"/>
<polygon fill="#63b8ff" stroke="#63b8ff" points="605.87,-70.02 595.57,-72.51 605.17,-76.98 605.87,-70.02"/>
</a>
</g>
</g>
<!-- Node19&#45;&gt;Node9 -->
<g id="edge25_Node000019_Node000009" class="edge">
<title>Node19&#45;&gt;Node9</title>
<g id="a_edge25_Node000019_Node000009"><a xlink:title=" ">
<path fill="none" stroke="#63b8ff" d="M882.35,-192.42C933.89,-181.43 1015.75,-162.44 1024.5,-151 1032.6,-140.41 1033.11,-131.18 1024.5,-121 991.34,-81.79 834.23,-73.31 762.89,-71.49"/>
<polygon fill="#63b8ff" stroke="#63b8ff" points="762.68,-67.99 752.61,-71.26 762.53,-74.99 762.68,-67.99"/>
</a>
</g>
</g>
<!-- Node19&#45;&gt;Node10 -->
<g id="edge26_Node000019_Node000010" class="edge">
<title>Node19&#45;&gt;Node10</title>
<g id="a_edge26_Node000019_Node000010"><a xlink:title=" ">
<path fill="none" stroke="#63b8ff" d="M883.8,-192.45C945.54,-180.07 1052.05,-157.85 1057.5,-151 1086.36,-114.73 1021.84,-60.45 1012.5,-55 969.71,-30.04 626.21,-15.66 516.24,-11.66"/>
<polygon fill="#63b8ff" stroke="#63b8ff" points="516.17,-8.15 506.05,-11.29 515.92,-15.15 516.17,-8.15"/>
</a>
</g>
</g>
<!-- Node20 -->
<g id="Node000020" class="node">
<title>Node20</title>
<g id="a_Node000020"><a xlink:title=" ">
<polygon fill="#e0e0e0" stroke="#999999" points="865.5,-145.5 815.5,-145.5 815.5,-126.5 865.5,-126.5 865.5,-145.5"/>
<text text-anchor="middle" x="840.5" y="-133.5" font-family="Helvetica,sans-Serif" font-size="10.00">ranges</text>
</a>
</g>
</g>
<!-- Node19&#45;&gt;Node20 -->
<g id="edge28_Node000019_Node000020" class="edge">
<title>Node19&#45;&gt;Node20</title>
<g id="a_edge28_Node000019_Node000020"><a xlink:title=" ">
<path fill="none" stroke="#63b8ff" d="M840.5,-192.37C840.5,-183.16 840.5,-168.29 840.5,-156.27"/>
<polygon fill="#63b8ff" stroke="#63b8ff" points="844,-155.91 840.5,-145.91 837,-155.91 844,-155.91"/>
</a>
</g>
</g>
<!-- Node21 -->
<g id="Node000021" class="node">
<title>Node21</title>
<g id="a_Node000021"><a xlink:title=" ">
<polygon fill="#e0e0e0" stroke="#999999" points="1015,-145.5 884,-145.5 884,-126.5 1015,-126.5 1015,-145.5"/>
<text text-anchor="middle" x="949.5" y="-133.5" font-family="Helvetica,sans-Serif" font-size="10.00">Thoth/Http/Headers.tpp</text>
</a>
</g>
</g>
<!-- Node19&#45;&gt;Node21 -->
<g id="edge29_Node000019_Node000021" class="edge">
<title>Node19&#45;&gt;Node21</title>
<g id="a_edge29_Node000019_Node000021"><a xlink:title=" ">
<path fill="none" stroke="#63b8ff" d="M855.2,-192.37C873.32,-181.73 904.35,-163.51 925.84,-150.89"/>
<polygon fill="#63b8ff" stroke="#63b8ff" points="927.83,-153.78 934.68,-145.7 924.29,-147.74 927.83,-153.78"/>
</a>
</g>
</g>
</g>
</svg>
