<?xml version="1.0" encoding="UTF-8" standalone="no"?>
<!DOCTYPE svg PUBLIC "-//W3C//DTD SVG 1.1//EN"
 "http://www.w3.org/Graphics/SVG/1.1/DTD/svg11.dtd">
<!-- Generated by graphviz version 2.43.0 (0)
 -->
<!-- Title: include/Thoth/Http/Request/Url.hpp Pages: 1 -->
<svg width="682pt" height="225pt"
 viewBox="0.00 0.00 681.50 225.00" xmlns="http://www.w3.org/2000/svg" xmlns:xlink="http://www.w3.org/1999/xlink">
<g id="graph0" class="graph" transform="scale(1 1) rotate(0) translate(4 221)">
<title>include/Thoth/Http/Request/Url.hpp</title>
<!-- Node1 -->
<g id="Node000001" class="node">
<title>Node1</title>
<g id="a_Node000001"><a xlink:title=" ">
<polygon fill="#999999" stroke="#666666" points="185.5,-217 78.5,-217 78.5,-187 185.5,-187 185.5,-217"/>
<text text-anchor="start" x="86.5" y="-205" font-family="Helvetica,sans-Serif" font-size="10.00">include/Thoth/Http</text>
<text text-anchor="middle" x="132" y="-194" font-family="Helvetica,sans-Serif" font-size="10.00">/Request/Url.hpp</text>
</a>
</g>
</g>
<!-- Node2 -->
<g id="Node000002" class="node">
<title>Node2</title>
<g id="a_Node000002"><a xlink:title=" ">
<polygon fill="#e0e0e0" stroke="#999999" points="62,-145.5 0,-145.5 0,-126.5 62,-126.5 62,-145.5"/>
<text text-anchor="middle" x="31" y="-133.5" font-family="Helvetica,sans-Serif" font-size="10.00">expected</text>
</a>
</g>
</g>
<!-- Node1&#45;&gt;Node2 -->
<g id="edge1_Node000001_Node000002" class="edge">
<title>Node1&#45;&gt;Node2</title>
<g id="a_edge1_Node000001_Node000002"><a xlink:title=" ">
<path fill="none" stroke="#63b8ff" d="M109.58,-186.8C92.81,-176.17 69.99,-161.7 53.25,-151.1"/>
<polygon fill="#63b8ff" stroke="#63b8ff" points="54.98,-148.05 44.66,-145.66 51.24,-153.97 54.98,-148.05"/>
</a>
</g>
</g>
<!-- Node3 -->
<g id="Node000003" class="node">
<title>Node3</title>
<g id="a_Node000003"><a xlink:title=" ">
<polygon fill="#e0e0e0" stroke="#999999" points="57,-79.5 13,-79.5 13,-60.5 57,-60.5 57,-79.5"/>
<text text-anchor="middle" x="35" y="-67.5" font-family="Helvetica,sans-Serif" font-size="10.00">string</text>
</a>
</g>
</g>
<!-- Node1&#45;&gt;Node3 -->
<g id="edge2_Node000001_Node000003" class="edge">
<title>Node1&#45;&gt;Node3</title>
<g id="a_edge2_Node000001_Node000003"><a xlink:title=" ">
<path fill="none" stroke="#63b8ff" d="M121.43,-186.84C103.43,-162.71 66.87,-113.71 47.57,-87.85"/>
<polygon fill="#63b8ff" stroke="#63b8ff" points="50.31,-85.67 41.53,-79.75 44.7,-89.86 50.31,-85.67"/>
</a>
</g>
</g>
<!-- Node4 -->
<g id="Node000004" class="node">
<title>Node4</title>
<g id="a_Node000004"><a xlink:href="_query_params_8hpp.html" target="_top" xlink:title=" ">
<polygon fill="white" stroke="#666666" points="229.5,-151 118.5,-151 118.5,-121 229.5,-121 229.5,-151"/>
<text text-anchor="start" x="126.5" y="-139" font-family="Helvetica,sans-Serif" font-size="10.00">Thoth/Http/Request</text>
<text text-anchor="middle" x="174" y="-128" font-family="Helvetica,sans-Serif" font-size="10.00">/QueryParams.hpp</text>
</a>
</g>
</g>
<!-- Node1&#45;&gt;Node4 -->
<g id="edge3_Node000001_Node000004" class="edge">
<title>Node1&#45;&gt;Node4</title>
<g id="a_edge3_Node000001_Node000004"><a xlink:title=" ">
<path fill="none" stroke="#63b8ff" d="M141.32,-186.8C146.54,-178.84 153.17,-168.74 159.1,-159.71"/>
<polygon fill="#63b8ff" stroke="#63b8ff" points="162.14,-161.44 164.7,-151.16 156.29,-157.6 162.14,-161.44"/>
</a>
</g>
</g>
<!-- Node15 -->
<g id="Node000015" class="node">
<title>Node15</title>
<g id="a_Node000015"><a xlink:title=" ">
<polygon fill="#e0e0e0" stroke="#999999" points="358.5,-151 247.5,-151 247.5,-121 358.5,-121 358.5,-151"/>
<text text-anchor="start" x="255.5" y="-139" font-family="Helvetica,sans-Serif" font-size="10.00">Thoth/Http/Request</text>
<text text-anchor="middle" x="303" y="-128" font-family="Helvetica,sans-Serif" font-size="10.00">/Url.tpp</text>
</a>
</g>
</g>
<!-- Node1&#45;&gt;Node15 -->
<g id="edge16_Node000001_Node000015" class="edge">
<title>Node1&#45;&gt;Node15</title>
<g id="a_edge16_Node000001_Node000015"><a xlink:title=" ">
<path fill="none" stroke="#63b8ff" d="M169.53,-186.95C194.92,-177.45 228.66,-164.82 255.86,-154.64"/>
<polygon fill="#63b8ff" stroke="#63b8ff" points="257.42,-157.8 265.56,-151.01 254.97,-151.24 257.42,-157.8"/>
</a>
</g>
</g>
<!-- Node4&#45;&gt;Node3 -->
<g id="edge7_Node000004_Node000003" class="edge">
<title>Node4&#45;&gt;Node3</title>
<g id="a_edge7_Node000004_Node000003"><a xlink:title=" ">
<path fill="none" stroke="#63b8ff" d="M143.5,-120.95C119.44,-109.88 86.17,-94.56 62.84,-83.82"/>
<polygon fill="#63b8ff" stroke="#63b8ff" points="64.05,-80.52 53.5,-79.52 61.12,-86.88 64.05,-80.52"/>
</a>
</g>
</g>
<!-- Node5 -->
<g id="Node000005" class="node">
<title>Node5</title>
<g id="a_Node000005"><a xlink:title=" ">
<polygon fill="#e0e0e0" stroke="#999999" points="131,-79.5 75,-79.5 75,-60.5 131,-60.5 131,-79.5"/>
<text text-anchor="middle" x="103" y="-67.5" font-family="Helvetica,sans-Serif" font-size="10.00">optional</text>
</a>
</g>
</g>
<!-- Node4&#45;&gt;Node5 -->
<g id="edge4_Node000004_Node000005" class="edge">
<title>Node4&#45;&gt;Node5</title>
<g id="a_edge4_Node000004_Node000005"><a xlink:title=" ">
<path fill="none" stroke="#63b8ff" d="M158.24,-120.8C147.07,-110.72 132.06,-97.19 120.51,-86.78"/>
<polygon fill="#63b8ff" stroke="#63b8ff" points="122.58,-83.94 112.81,-79.84 117.9,-89.14 122.58,-83.94"/>
</a>
</g>
</g>
<!-- Node6 -->
<g id="Node000006" class="node">
<title>Node6</title>
<g id="a_Node000006"><a xlink:title=" ">
<polygon fill="#e0e0e0" stroke="#999999" points="199,-79.5 149,-79.5 149,-60.5 199,-60.5 199,-79.5"/>
<text text-anchor="middle" x="174" y="-67.5" font-family="Helvetica,sans-Serif" font-size="10.00">format</text>
</a>
</g>
</g>
<!-- Node4&#45;&gt;Node6 -->
<g id="edge5_Node000004_Node000006" class="edge">
<title>Node4&#45;&gt;Node6</title>
<g id="a_edge5_Node000004_Node000006"><a xlink:title=" ">
<path fill="none" stroke="#63b8ff" d="M174,-120.8C174,-111.7 174,-99.79 174,-89.9"/>
<polygon fill="#63b8ff" stroke="#63b8ff" points="177.5,-89.84 174,-79.84 170.5,-89.84 177.5,-89.84"/>
</a>
</g>
</g>
<!-- Node7 -->
<g id="Node000007" class="node">
<title>Node7</title>
<g id="a_Node000007"><a xlink:title=" ">
<polygon fill="#e0e0e0" stroke="#999999" points="214.5,-19 167.5,-19 167.5,0 214.5,0 214.5,-19"/>
<text text-anchor="middle" x="191" y="-7" font-family="Helvetica,sans-Serif" font-size="10.00">vector</text>
</a>
</g>
</g>
<!-- Node4&#45;&gt;Node7 -->
<g id="edge6_Node000004_Node000007" class="edge">
<title>Node4&#45;&gt;Node7</title>
<g id="a_edge6_Node000004_Node000007"><a xlink:title=" ">
<path fill="none" stroke="#63b8ff" d="M186.99,-120.92C194.74,-111.51 203.86,-98.44 208,-85 213.83,-66.04 207.06,-43.82 200.41,-28.61"/>
<polygon fill="#63b8ff" stroke="#63b8ff" points="203.44,-26.85 195.98,-19.33 197.13,-29.86 203.44,-26.85"/>
</a>
</g>
</g>
<!-- Node8 -->
<g id="Node000008" class="node">
<title>Node8</title>
<g id="a_Node000008"><a xlink:href="_linear_map_8hpp.html" target="_top" xlink:title=" ">
<polygon fill="white" stroke="#666666" points="396.5,-79.5 255.5,-79.5 255.5,-60.5 396.5,-60.5 396.5,-79.5"/>
<text text-anchor="middle" x="326" y="-67.5" font-family="Helvetica,sans-Serif" font-size="10.00">Thoth/Dsa/LinearMap.hpp</text>
</a>
</g>
</g>
<!-- Node4&#45;&gt;Node8 -->
<g id="edge8_Node000004_Node000008" class="edge">
<title>Node4&#45;&gt;Node8</title>
<g id="a_edge8_Node000004_Node000008"><a xlink:title=" ">
<path fill="none" stroke="#63b8ff" d="M207.36,-120.95C233.9,-109.78 270.69,-94.29 296.24,-83.53"/>
<polygon fill="#63b8ff" stroke="#63b8ff" points="297.91,-86.62 305.77,-79.52 295.2,-80.17 297.91,-86.62"/>
</a>
</g>
</g>
<!-- Node14 -->
<g id="Node000014" class="node">
<title>Node14</title>
<g id="a_Node000014"><a xlink:title=" ">
<polygon fill="#e0e0e0" stroke="#999999" points="525.5,-85 414.5,-85 414.5,-55 525.5,-55 525.5,-85"/>
<text text-anchor="start" x="422.5" y="-73" font-family="Helvetica,sans-Serif" font-size="10.00">Thoth/Http/Request</text>
<text text-anchor="middle" x="470" y="-62" font-family="Helvetica,sans-Serif" font-size="10.00">/QueryParams.tpp</text>
</a>
</g>
</g>
<!-- Node4&#45;&gt;Node14 -->
<g id="edge15_Node000004_Node000014" class="edge">
<title>Node4&#45;&gt;Node14</title>
<g id="a_edge15_Node000004_Node000014"><a xlink:title=" ">
<path fill="none" stroke="#63b8ff" d="M229.84,-122.77C232.6,-122.17 235.33,-121.58 238,-121 309.57,-105.5 329.74,-101.48 404.28,-85.37"/>
<polygon fill="#63b8ff" stroke="#63b8ff" points="405.12,-88.77 414.16,-83.23 403.64,-81.92 405.12,-88.77"/>
</a>
</g>
</g>
<!-- Node8&#45;&gt;Node7 -->
<g id="edge9_Node000008_Node000007" class="edge">
<title>Node8&#45;&gt;Node7</title>
<g id="a_edge9_Node000008_Node000007"><a xlink:title=" ">
<path fill="none" stroke="#63b8ff" d="M306.37,-60.49C283.67,-50.66 246.1,-34.38 220.03,-23.08"/>
<polygon fill="#63b8ff" stroke="#63b8ff" points="221.22,-19.78 210.65,-19.02 218.44,-26.2 221.22,-19.78"/>
</a>
</g>
</g>
<!-- Node9 -->
<g id="Node000009" class="node">
<title>Node9</title>
<g id="a_Node000009"><a xlink:title=" ">
<polygon fill="#e0e0e0" stroke="#999999" points="277.5,-19 232.5,-19 232.5,0 277.5,0 277.5,-19"/>
<text text-anchor="middle" x="255" y="-7" font-family="Helvetica,sans-Serif" font-size="10.00">utility</text>
</a>
</g>
</g>
<!-- Node8&#45;&gt;Node9 -->
<g id="edge10_Node000008_Node000009" class="edge">
<title>Node8&#45;&gt;Node9</title>
<g id="a_edge10_Node000008_Node000009"><a xlink:title=" ">
<path fill="none" stroke="#63b8ff" d="M315.52,-60.37C304.51,-51.3 286.96,-36.84 273.59,-25.82"/>
<polygon fill="#63b8ff" stroke="#63b8ff" points="275.46,-22.83 265.52,-19.17 271.01,-28.23 275.46,-22.83"/>
</a>
</g>
</g>
<!-- Node10 -->
<g id="Node000010" class="node">
<title>Node10</title>
<g id="a_Node000010"><a xlink:title=" ">
<polygon fill="#e0e0e0" stroke="#999999" points="356,-19 296,-19 296,0 356,0 356,-19"/>
<text text-anchor="middle" x="326" y="-7" font-family="Helvetica,sans-Serif" font-size="10.00">concepts</text>
</a>
</g>
</g>
<!-- Node8&#45;&gt;Node10 -->
<g id="edge11_Node000008_Node000010" class="edge">
<title>Node8&#45;&gt;Node10</title>
<g id="a_edge11_Node000008_Node000010"><a xlink:title=" ">
<path fill="none" stroke="#63b8ff" d="M326,-60.37C326,-52.25 326,-39.81 326,-29.39"/>
<polygon fill="#63b8ff" stroke="#63b8ff" points="329.5,-29.17 326,-19.17 322.5,-29.17 329.5,-29.17"/>
</a>
</g>
</g>
<!-- Node11 -->
<g id="Node000011" class="node">
<title>Node11</title>
<g id="a_Node000011"><a xlink:title=" ">
<polygon fill="#e0e0e0" stroke="#999999" points="439.5,-19 374.5,-19 374.5,0 439.5,0 439.5,-19"/>
<text text-anchor="middle" x="407" y="-7" font-family="Helvetica,sans-Serif" font-size="10.00">functional</text>
</a>
</g>
</g>
<!-- Node8&#45;&gt;Node11 -->
<g id="edge12_Node000008_Node000011" class="edge">
<title>Node8&#45;&gt;Node11</title>
<g id="a_edge12_Node000008_Node000011"><a xlink:title=" ">
<path fill="none" stroke="#63b8ff" d="M337.95,-60.37C350.75,-51.12 371.3,-36.28 386.65,-25.19"/>
<polygon fill="#63b8ff" stroke="#63b8ff" points="388.94,-27.86 395,-19.17 384.84,-22.18 388.94,-27.86"/>
</a>
</g>
</g>
<!-- Node12 -->
<g id="Node000012" class="node">
<title>Node12</title>
<g id="a_Node000012"><a xlink:title=" ">
<polygon fill="#e0e0e0" stroke="#999999" points="516.5,-19 457.5,-19 457.5,0 516.5,0 516.5,-19"/>
<text text-anchor="middle" x="487" y="-7" font-family="Helvetica,sans-Serif" font-size="10.00">compare</text>
</a>
</g>
</g>
<!-- Node8&#45;&gt;Node12 -->
<g id="edge13_Node000008_Node000012" class="edge">
<title>Node8&#45;&gt;Node12</title>
<g id="a_edge13_Node000008_Node000012"><a xlink:title=" ">
<path fill="none" stroke="#63b8ff" d="M349.41,-60.49C376.95,-50.49 422.87,-33.8 454.01,-22.49"/>
<polygon fill="#63b8ff" stroke="#63b8ff" points="455.36,-25.72 463.56,-19.02 452.97,-19.14 455.36,-25.72"/>
</a>
</g>
</g>
<!-- Node13 -->
<g id="Node000013" class="node">
<title>Node13</title>
<g id="a_Node000013"><a xlink:title=" ">
<polygon fill="#e0e0e0" stroke="#999999" points="673.5,-19 534.5,-19 534.5,0 673.5,0 673.5,-19"/>
<text text-anchor="middle" x="604" y="-7" font-family="Helvetica,sans-Serif" font-size="10.00">Thoth/Dsa/LinearMap.tpp</text>
</a>
</g>
</g>
<!-- Node8&#45;&gt;Node13 -->
<g id="edge14_Node000008_Node000013" class="edge">
<title>Node8&#45;&gt;Node13</title>
<g id="a_edge14_Node000008_Node000013"><a xlink:title=" ">
<path fill="none" stroke="#63b8ff" d="M366.42,-60.49C415.94,-50.07 499.84,-32.42 553.54,-21.12"/>
<polygon fill="#63b8ff" stroke="#63b8ff" points="554.46,-24.5 563.53,-19.02 553.02,-17.65 554.46,-24.5"/>
</a>
</g>
</g>
</g>
</svg>
