<?xml version="1.0" encoding="UTF-8" standalone="no"?>
<!DOCTYPE svg PUBLIC "-//W3C//DTD SVG 1.1//EN"
 "http://www.w3.org/Graphics/SVG/1.1/DTD/svg11.dtd">
<!-- Generated by graphviz version 2.43.0 (0)
 -->
<!-- Title: include/Thoth/Http/Url/Url.hpp Pages: 1 -->
<svg width="1510pt" height="346pt"
 viewBox="0.00 0.00 1510.00 346.00" xmlns="http://www.w3.org/2000/svg" xmlns:xlink="http://www.w3.org/1999/xlink">
<g id="graph0" class="graph" transform="scale(1 1) rotate(0) translate(4 342)">
<title>include/Thoth/Http/Url/Url.hpp</title>
<!-- Node1 -->
<g id="Node000001" class="node">
<title>Node1</title>
<g id="a_Node000001"><a xlink:title=" ">
<polygon fill="#999999" stroke="#666666" points="1089.5,-338 982.5,-338 982.5,-308 1089.5,-308 1089.5,-338"/>
<text text-anchor="start" x="990.5" y="-326" font-family="Helvetica,sans-Serif" font-size="10.00">include/Thoth/Http</text>
<text text-anchor="middle" x="1036" y="-315" font-family="Helvetica,sans-Serif" font-size="10.00">/Url/Url.hpp</text>
</a>
</g>
</g>
<!-- Node2 -->
<g id="Node000002" class="node">
<title>Node2</title>
<g id="a_Node000002"><a xlink:title=" ">
<polygon fill="#e0e0e0" stroke="#999999" points="702,-74 640,-74 640,-55 702,-55 702,-74"/>
<text text-anchor="middle" x="671" y="-62" font-family="Helvetica,sans-Serif" font-size="10.00">expected</text>
</a>
</g>
</g>
<!-- Node1&#45;&gt;Node2 -->
<g id="edge1_Node000001_Node000002" class="edge">
<title>Node1&#45;&gt;Node2</title>
<g id="a_edge1_Node000001_Node000002"><a xlink:title=" ">
<path fill="none" stroke="#63b8ff" d="M982.13,-319.21C938.15,-314.64 876.1,-302.75 831,-272 758.26,-222.4 774.23,-176.9 717,-110 708.26,-99.79 697.51,-89.29 688.6,-81.06"/>
<polygon fill="#63b8ff" stroke="#63b8ff" points="690.8,-78.33 681.05,-74.21 686.1,-83.52 690.8,-78.33"/>
</a>
</g>
</g>
<!-- Node3 -->
<g id="Node000003" class="node">
<title>Node3</title>
<g id="a_Node000003"><a xlink:title=" ">
<polygon fill="#e0e0e0" stroke="#999999" points="1188,-266.5 1120,-266.5 1120,-247.5 1188,-247.5 1188,-266.5"/>
<text text-anchor="middle" x="1154" y="-254.5" font-family="Helvetica,sans-Serif" font-size="10.00">filesystem</text>
</a>
</g>
</g>
<!-- Node1&#45;&gt;Node3 -->
<g id="edge2_Node000001_Node000003" class="edge">
<title>Node1&#45;&gt;Node3</title>
<g id="a_edge2_Node000001_Node000003"><a xlink:title=" ">
<path fill="none" stroke="#63b8ff" d="M1061.9,-307.95C1081.95,-297.08 1109.55,-282.11 1129.3,-271.4"/>
<polygon fill="#63b8ff" stroke="#63b8ff" points="1131.17,-274.36 1138.3,-266.52 1127.84,-268.21 1131.17,-274.36"/>
</a>
</g>
</g>
<!-- Node4 -->
<g id="Node000004" class="node">
<title>Node4</title>
<g id="a_Node000004"><a xlink:title=" ">
<polygon fill="#e0e0e0" stroke="#999999" points="69,-19 25,-19 25,0 69,0 69,-19"/>
<text text-anchor="middle" x="47" y="-7" font-family="Helvetica,sans-Serif" font-size="10.00">string</text>
</a>
</g>
</g>
<!-- Node1&#45;&gt;Node4 -->
<g id="edge3_Node000001_Node000004" class="edge">
<title>Node1&#45;&gt;Node4</title>
<g id="a_edge3_Node000001_Node000004"><a xlink:title=" ">
<path fill="none" stroke="#63b8ff" d="M982.48,-320.97C770.34,-316.21 0,-292.04 0,-192 0,-192 0,-192 0,-124 0,-87.4 21.12,-48.87 35.04,-27.44"/>
<polygon fill="#63b8ff" stroke="#63b8ff" points="37.97,-29.36 40.66,-19.11 32.17,-25.45 37.97,-29.36"/>
</a>
</g>
</g>
<!-- Node5 -->
<g id="Node000005" class="node">
<title>Node5</title>
<g id="a_Node000005"><a xlink:title=" ">
<polygon fill="#e0e0e0" stroke="#999999" points="1361.5,-272 1206.5,-272 1206.5,-242 1361.5,-242 1361.5,-272"/>
<text text-anchor="start" x="1214.5" y="-260" font-family="Helvetica,sans-Serif" font-size="10.00">Hermes/Endpoint/IpEndpoint</text>
<text text-anchor="middle" x="1284" y="-249" font-family="Helvetica,sans-Serif" font-size="10.00">/IpAddress.hpp</text>
</a>
</g>
</g>
<!-- Node1&#45;&gt;Node5 -->
<g id="edge4_Node000001_Node000005" class="edge">
<title>Node1&#45;&gt;Node5</title>
<g id="a_edge4_Node000001_Node000005"><a xlink:title=" ">
<path fill="none" stroke="#63b8ff" d="M1089.51,-308.19C1127.79,-298.31 1179.49,-284.97 1219.96,-274.53"/>
<polygon fill="#63b8ff" stroke="#63b8ff" points="1220.92,-277.89 1229.73,-272 1219.18,-271.11 1220.92,-277.89"/>
</a>
</g>
</g>
<!-- Node6 -->
<g id="Node000006" class="node">
<title>Node6</title>
<g id="a_Node000006"><a xlink:href="_query_params_8hpp.html" target="_top" xlink:title=" ">
<polygon fill="white" stroke="#666666" points="951.5,-272 840.5,-272 840.5,-242 951.5,-242 951.5,-272"/>
<text text-anchor="start" x="848.5" y="-260" font-family="Helvetica,sans-Serif" font-size="10.00">Thoth/Http/Request</text>
<text text-anchor="middle" x="896" y="-249" font-family="Helvetica,sans-Serif" font-size="10.00">/QueryParams.hpp</text>
</a>
</g>
</g>
<!-- Node1&#45;&gt;Node6 -->
<g id="edge5_Node000001_Node000006" class="edge">
<title>Node1&#45;&gt;Node6</title>
<g id="a_edge5_Node000001_Node000006"><a xlink:title=" ">
<path fill="none" stroke="#63b8ff" d="M1005.28,-307.95C984.85,-298.62 957.83,-286.27 935.77,-276.18"/>
<polygon fill="#63b8ff" stroke="#63b8ff" points="937.2,-272.99 926.65,-272.01 934.29,-279.35 937.2,-272.99"/>
</a>
</g>
</g>
<!-- Node29 -->
<g id="Node000029" class="node">
<title>Node29</title>
<g id="a_Node000029"><a xlink:href="_scanner_8hpp.html" target="_top" xlink:title=" ">
<polygon fill="white" stroke="#666666" points="1102,-266.5 970,-266.5 970,-247.5 1102,-247.5 1102,-266.5"/>
<text text-anchor="middle" x="1036" y="-254.5" font-family="Helvetica,sans-Serif" font-size="10.00">Thoth/Utils/Scanner.hpp</text>
</a>
</g>
</g>
<!-- Node1&#45;&gt;Node29 -->
<g id="edge40_Node000001_Node000029" class="edge">
<title>Node1&#45;&gt;Node29</title>
<g id="a_edge40_Node000001_Node000029"><a xlink:title=" ">
<path fill="none" stroke="#63b8ff" d="M1036,-307.8C1036,-298.7 1036,-286.79 1036,-276.9"/>
<polygon fill="#63b8ff" stroke="#63b8ff" points="1039.5,-276.84 1036,-266.84 1032.5,-276.84 1039.5,-276.84"/>
</a>
</g>
</g>
<!-- Node34 -->
<g id="Node000034" class="node">
<title>Node34</title>
<g id="a_Node000034"><a xlink:title=" ">
<polygon fill="#e0e0e0" stroke="#999999" points="1502,-266.5 1380,-266.5 1380,-247.5 1502,-247.5 1502,-266.5"/>
<text text-anchor="middle" x="1441" y="-254.5" font-family="Helvetica,sans-Serif" font-size="10.00">Thoth/Http/Url/Url.tpp</text>
</a>
</g>
</g>
<!-- Node1&#45;&gt;Node34 -->
<g id="edge48_Node000001_Node000034" class="edge">
<title>Node1&#45;&gt;Node34</title>
<g id="a_edge48_Node000001_Node000034"><a xlink:title=" ">
<path fill="none" stroke="#63b8ff" d="M1089.51,-314.84C1155.75,-305.79 1271.94,-289.29 1371,-272 1377.17,-270.92 1383.63,-269.73 1390.03,-268.5"/>
<polygon fill="#63b8ff" stroke="#63b8ff" points="1390.83,-271.91 1399.98,-266.56 1389.49,-265.04 1390.83,-271.91"/>
</a>
</g>
</g>
<!-- Node6&#45;&gt;Node2 -->
<g id="edge6_Node000006_Node000002" class="edge">
<title>Node6&#45;&gt;Node2</title>
<g id="a_edge6_Node000006_Node000002"><a xlink:title=" ">
<path fill="none" stroke="#63b8ff" d="M872.28,-241.94C858.79,-233 842.38,-220.42 831,-206 802.04,-169.3 822,-142.09 788,-110 776.43,-99.08 739.81,-86.09 710.58,-76.97"/>
<polygon fill="#63b8ff" stroke="#63b8ff" points="711.59,-73.62 701,-74.04 709.54,-80.31 711.59,-73.62"/>
</a>
</g>
</g>
<!-- Node6&#45;&gt;Node4 -->
<g id="edge9_Node000006_Node000004" class="edge">
<title>Node6&#45;&gt;Node4</title>
<g id="a_edge9_Node000006_Node000004"><a xlink:title=" ">
<path fill="none" stroke="#63b8ff" d="M840.34,-253.69C718.94,-247.19 422.68,-223.35 191,-140 134.09,-119.53 111.87,-119.48 72,-74 60.78,-61.21 54.28,-42.78 50.74,-29.07"/>
<polygon fill="#63b8ff" stroke="#63b8ff" points="54.14,-28.25 48.5,-19.29 47.32,-29.81 54.14,-28.25"/>
</a>
</g>
</g>
<!-- Node7 -->
<g id="Node000007" class="node">
<title>Node7</title>
<g id="a_Node000007"><a xlink:title=" ">
<polygon fill="#e0e0e0" stroke="#999999" points="1176,-134.5 1126,-134.5 1126,-115.5 1176,-115.5 1176,-134.5"/>
<text text-anchor="middle" x="1151" y="-122.5" font-family="Helvetica,sans-Serif" font-size="10.00">format</text>
</a>
</g>
</g>
<!-- Node6&#45;&gt;Node7 -->
<g id="edge7_Node000006_Node000007" class="edge">
<title>Node6&#45;&gt;Node7</title>
<g id="a_edge7_Node000006_Node000007"><a xlink:title=" ">
<path fill="none" stroke="#63b8ff" d="M934.58,-241.92C958.93,-232.62 990.79,-219.66 1018,-206 1058.75,-185.54 1103.74,-157.18 1129.56,-140.29"/>
<polygon fill="#63b8ff" stroke="#63b8ff" points="1131.73,-143.05 1138.16,-134.63 1127.88,-137.21 1131.73,-143.05"/>
</a>
</g>
</g>
<!-- Node8 -->
<g id="Node000008" class="node">
<title>Node8</title>
<g id="a_Node000008"><a xlink:title=" ">
<polygon fill="#e0e0e0" stroke="#999999" points="767.5,-74 720.5,-74 720.5,-55 767.5,-55 767.5,-74"/>
<text text-anchor="middle" x="744" y="-62" font-family="Helvetica,sans-Serif" font-size="10.00">vector</text>
</a>
</g>
</g>
<!-- Node6&#45;&gt;Node8 -->
<g id="edge8_Node000006_Node000008" class="edge">
<title>Node6&#45;&gt;Node8</title>
<g id="a_edge8_Node000006_Node000008"><a xlink:title=" ">
<path fill="none" stroke="#63b8ff" d="M924.05,-241.95C937.57,-233.54 952.46,-221.46 960,-206 965.85,-194.02 966.96,-187.37 960,-176 939.36,-142.26 832.75,-98.55 777.42,-77.66"/>
<polygon fill="#63b8ff" stroke="#63b8ff" points="778.31,-74.26 767.72,-74.03 775.86,-80.81 778.31,-74.26"/>
</a>
</g>
</g>
<!-- Node9 -->
<g id="Node000009" class="node">
<title>Node9</title>
<g id="a_Node000009"><a xlink:href="_linear_map_8hpp.html" target="_top" xlink:title=" ">
<polygon fill="white" stroke="#666666" points="1100.5,-134.5 959.5,-134.5 959.5,-115.5 1100.5,-115.5 1100.5,-134.5"/>
<text text-anchor="middle" x="1030" y="-122.5" font-family="Helvetica,sans-Serif" font-size="10.00">Thoth/Dsa/LinearMap.hpp</text>
</a>
</g>
</g>
<!-- Node6&#45;&gt;Node9 -->
<g id="edge10_Node000006_Node000009" class="edge">
<title>Node6&#45;&gt;Node9</title>
<g id="a_edge10_Node000006_Node000009"><a xlink:title=" ">
<path fill="none" stroke="#63b8ff" d="M938.16,-241.89C957.17,-233.82 978.72,-222.05 994,-206 1010.7,-188.46 1020.54,-161.85 1025.6,-144.2"/>
<polygon fill="#63b8ff" stroke="#63b8ff" points="1028.99,-145.09 1028.16,-134.53 1022.22,-143.31 1028.99,-145.09"/>
</a>
</g>
</g>
<!-- Node15 -->
<g id="Node000015" class="node">
<title>Node15</title>
<g id="a_Node000015"><a xlink:href="_request_error_8hpp.html" target="_top" xlink:title=" ">
<polygon fill="white" stroke="#666666" points="709.5,-200.5 554.5,-200.5 554.5,-181.5 709.5,-181.5 709.5,-200.5"/>
<text text-anchor="middle" x="632" y="-188.5" font-family="Helvetica,sans-Serif" font-size="10.00">Thoth/Http/RequestError.hpp</text>
</a>
</g>
</g>
<!-- Node6&#45;&gt;Node15 -->
<g id="edge17_Node000006_Node000015" class="edge">
<title>Node6&#45;&gt;Node15</title>
<g id="a_edge17_Node000006_Node000015"><a xlink:title=" ">
<path fill="none" stroke="#63b8ff" d="M840.33,-242.51C791.81,-230.74 722.33,-213.9 677.18,-202.95"/>
<polygon fill="#63b8ff" stroke="#63b8ff" points="677.92,-199.53 667.38,-200.58 676.27,-206.33 677.92,-199.53"/>
</a>
</g>
</g>
<!-- Node28 -->
<g id="Node000028" class="node">
<title>Node28</title>
<g id="a_Node000028"><a xlink:title=" ">
<polygon fill="#e0e0e0" stroke="#999999" points="951.5,-206 840.5,-206 840.5,-176 951.5,-176 951.5,-206"/>
<text text-anchor="start" x="848.5" y="-194" font-family="Helvetica,sans-Serif" font-size="10.00">Thoth/Http/Request</text>
<text text-anchor="middle" x="896" y="-183" font-family="Helvetica,sans-Serif" font-size="10.00">/QueryParams.tpp</text>
</a>
</g>
</g>
<!-- Node6&#45;&gt;Node28 -->
<g id="edge39_Node000006_Node000028" class="edge">
<title>Node6&#45;&gt;Node28</title>
<g id="a_edge39_Node000006_Node000028"><a xlink:title=" ">
<path fill="none" stroke="#63b8ff" d="M896,-241.8C896,-234.34 896,-224.99 896,-216.41"/>
<polygon fill="#63b8ff" stroke="#63b8ff" points="899.5,-216.16 896,-206.16 892.5,-216.16 899.5,-216.16"/>
</a>
</g>
</g>
<!-- Node9&#45;&gt;Node8 -->
<g id="edge11_Node000009_Node000008" class="edge">
<title>Node9&#45;&gt;Node8</title>
<g id="a_edge11_Node000009_Node000008"><a xlink:title=" ">
<path fill="none" stroke="#63b8ff" d="M981.58,-115.44C932.43,-106.53 853.93,-91.71 777.51,-74.24"/>
<polygon fill="#63b8ff" stroke="#63b8ff" points="778.25,-70.82 767.72,-71.99 776.68,-77.64 778.25,-70.82"/>
</a>
</g>
</g>
<!-- Node10 -->
<g id="Node000010" class="node">
<title>Node10</title>
<g id="a_Node000010"><a xlink:title=" ">
<polygon fill="#e0e0e0" stroke="#999999" points="1147.5,-74 1102.5,-74 1102.5,-55 1147.5,-55 1147.5,-74"/>
<text text-anchor="middle" x="1125" y="-62" font-family="Helvetica,sans-Serif" font-size="10.00">utility</text>
</a>
</g>
</g>
<!-- Node9&#45;&gt;Node10 -->
<g id="edge12_Node000009_Node000010" class="edge">
<title>Node9&#45;&gt;Node10</title>
<g id="a_edge12_Node000009_Node000010"><a xlink:title=" ">
<path fill="none" stroke="#63b8ff" d="M1044.02,-115.37C1059.31,-105.95 1084.03,-90.73 1102.14,-79.58"/>
<polygon fill="#63b8ff" stroke="#63b8ff" points="1104.25,-82.39 1110.92,-74.17 1100.57,-76.43 1104.25,-82.39"/>
</a>
</g>
</g>
<!-- Node11 -->
<g id="Node000011" class="node">
<title>Node11</title>
<g id="a_Node000011"><a xlink:title=" ">
<polygon fill="#e0e0e0" stroke="#999999" points="642,-19 582,-19 582,0 642,0 642,-19"/>
<text text-anchor="middle" x="612" y="-7" font-family="Helvetica,sans-Serif" font-size="10.00">concepts</text>
</a>
</g>
</g>
<!-- Node9&#45;&gt;Node11 -->
<g id="edge13_Node000009_Node000011" class="edge">
<title>Node9&#45;&gt;Node11</title>
<g id="a_edge13_Node000009_Node000011"><a xlink:title=" ">
<path fill="none" stroke="#63b8ff" d="M1077.8,-115.49C1124.56,-105.19 1184.97,-85.35 1157,-55 1139.91,-36.45 775.48,-18.03 652.28,-12.31"/>
<polygon fill="#63b8ff" stroke="#63b8ff" points="652.29,-8.8 642.14,-11.84 651.97,-15.8 652.29,-8.8"/>
</a>
</g>
</g>
<!-- Node12 -->
<g id="Node000012" class="node">
<title>Node12</title>
<g id="a_Node000012"><a xlink:title=" ">
<polygon fill="#e0e0e0" stroke="#999999" points="850.5,-74 785.5,-74 785.5,-55 850.5,-55 850.5,-74"/>
<text text-anchor="middle" x="818" y="-62" font-family="Helvetica,sans-Serif" font-size="10.00">functional</text>
</a>
</g>
</g>
<!-- Node9&#45;&gt;Node12 -->
<g id="edge14_Node000009_Node000012" class="edge">
<title>Node9&#45;&gt;Node12</title>
<g id="a_edge14_Node000009_Node000012"><a xlink:title=" ">
<path fill="none" stroke="#63b8ff" d="M999.17,-115.49C962.04,-105.25 899.55,-88 858.54,-76.69"/>
<polygon fill="#63b8ff" stroke="#63b8ff" points="859.43,-73.3 848.86,-74.02 857.57,-80.05 859.43,-73.3"/>
</a>
</g>
</g>
<!-- Node13 -->
<g id="Node000013" class="node">
<title>Node13</title>
<g id="a_Node000013"><a xlink:title=" ">
<polygon fill="#e0e0e0" stroke="#999999" points="927.5,-74 868.5,-74 868.5,-55 927.5,-55 927.5,-74"/>
<text text-anchor="middle" x="898" y="-62" font-family="Helvetica,sans-Serif" font-size="10.00">compare</text>
</a>
</g>
</g>
<!-- Node9&#45;&gt;Node13 -->
<g id="edge15_Node000009_Node000013" class="edge">
<title>Node9&#45;&gt;Node13</title>
<g id="a_edge15_Node000009_Node000013"><a xlink:title=" ">
<path fill="none" stroke="#63b8ff" d="M1010.81,-115.49C988.61,-105.66 951.88,-89.38 926.38,-78.08"/>
<polygon fill="#63b8ff" stroke="#63b8ff" points="927.78,-74.87 917.22,-74.02 924.94,-81.27 927.78,-74.87"/>
</a>
</g>
</g>
<!-- Node14 -->
<g id="Node000014" class="node">
<title>Node14</title>
<g id="a_Node000014"><a xlink:title=" ">
<polygon fill="#e0e0e0" stroke="#999999" points="1084.5,-74 945.5,-74 945.5,-55 1084.5,-55 1084.5,-74"/>
<text text-anchor="middle" x="1015" y="-62" font-family="Helvetica,sans-Serif" font-size="10.00">Thoth/Dsa/LinearMap.tpp</text>
</a>
</g>
</g>
<!-- Node9&#45;&gt;Node14 -->
<g id="edge16_Node000009_Node000014" class="edge">
<title>Node9&#45;&gt;Node14</title>
<g id="a_edge16_Node000009_Node000014"><a xlink:title=" ">
<path fill="none" stroke="#63b8ff" d="M1027.79,-115.37C1025.68,-107.16 1022.45,-94.54 1019.76,-84.05"/>
<polygon fill="#63b8ff" stroke="#63b8ff" points="1023.1,-82.98 1017.22,-74.17 1016.32,-84.72 1023.1,-82.98"/>
</a>
</g>
</g>
<!-- Node15&#45;&gt;Node8 -->
<g id="edge37_Node000015_Node000008" class="edge">
<title>Node15&#45;&gt;Node8</title>
<g id="a_edge37_Node000015_Node000008"><a xlink:title=" ">
<path fill="none" stroke="#63b8ff" d="M655.59,-181.38C674.58,-173.34 700.7,-159.62 717,-140 730.43,-123.84 737.45,-100.44 740.92,-84.19"/>
<polygon fill="#63b8ff" stroke="#63b8ff" points="744.38,-84.74 742.8,-74.27 737.5,-83.44 744.38,-84.74"/>
</a>
</g>
</g>
<!-- Node16 -->
<g id="Node000016" class="node">
<title>Node16</title>
<g id="a_Node000016"><a xlink:title=" ">
<polygon fill="#e0e0e0" stroke="#999999" points="537.5,-140 370.5,-140 370.5,-110 537.5,-110 537.5,-140"/>
<text text-anchor="start" x="378.5" y="-128" font-family="Helvetica,sans-Serif" font-size="10.00">Hermes/_base/ConnectionError</text>
<text text-anchor="middle" x="454" y="-117" font-family="Helvetica,sans-Serif" font-size="10.00">Enum.hpp</text>
</a>
</g>
</g>
<!-- Node15&#45;&gt;Node16 -->
<g id="edge18_Node000015_Node000016" class="edge">
<title>Node15&#45;&gt;Node16</title>
<g id="a_edge18_Node000015_Node000016"><a xlink:title=" ">
<path fill="none" stroke="#63b8ff" d="M607.99,-181.37C581.22,-171.74 537.19,-155.91 503.05,-143.64"/>
<polygon fill="#63b8ff" stroke="#63b8ff" points="503.85,-140.21 493.26,-140.12 501.49,-146.79 503.85,-140.21"/>
</a>
</g>
</g>
<!-- Node17 -->
<g id="Node000017" class="node">
<title>Node17</title>
<g id="a_Node000017"><a xlink:href="_definitions_8hpp.html" target="_top" xlink:title=" ">
<polygon fill="white" stroke="#666666" points="352,-134.5 200,-134.5 200,-115.5 352,-115.5 352,-134.5"/>
<text text-anchor="middle" x="276" y="-122.5" font-family="Helvetica,sans-Serif" font-size="10.00">Thoth/NJson/Definitions.hpp</text>
</a>
</g>
</g>
<!-- Node15&#45;&gt;Node17 -->
<g id="edge19_Node000015_Node000017" class="edge">
<title>Node15&#45;&gt;Node17</title>
<g id="a_edge19_Node000015_Node000017"><a xlink:title=" ">
<path fill="none" stroke="#63b8ff" d="M584.36,-181.44C519.35,-169.75 402.98,-148.83 333.29,-136.3"/>
<polygon fill="#63b8ff" stroke="#63b8ff" points="333.82,-132.84 323.36,-134.51 332.58,-139.73 333.82,-132.84"/>
</a>
</g>
</g>
<!-- Node27 -->
<g id="Node000027" class="node">
<title>Node27</title>
<g id="a_Node000027"><a xlink:title=" ">
<polygon fill="#e0e0e0" stroke="#999999" points="708,-134.5 556,-134.5 556,-115.5 708,-115.5 708,-134.5"/>
<text text-anchor="middle" x="632" y="-122.5" font-family="Helvetica,sans-Serif" font-size="10.00">Thoth/Http/RequestError.tpp</text>
</a>
</g>
</g>
<!-- Node15&#45;&gt;Node27 -->
<g id="edge38_Node000015_Node000027" class="edge">
<title>Node15&#45;&gt;Node27</title>
<g id="a_edge38_Node000015_Node000027"><a xlink:title=" ">
<path fill="none" stroke="#63b8ff" d="M632,-181.37C632,-172.16 632,-157.29 632,-145.27"/>
<polygon fill="#63b8ff" stroke="#63b8ff" points="635.5,-144.91 632,-134.91 628.5,-144.91 635.5,-144.91"/>
</a>
</g>
</g>
<!-- Node17&#45;&gt;Node2 -->
<g id="edge25_Node000017_Node000002" class="edge">
<title>Node17&#45;&gt;Node2</title>
<g id="a_edge25_Node000017_Node000002"><a xlink:title=" ">
<path fill="none" stroke="#63b8ff" d="M326.3,-115.47C337.7,-113.61 349.76,-111.69 361,-110 478.54,-92.34 508.67,-93.04 626,-74 627.1,-73.82 628.21,-73.64 629.33,-73.45"/>
<polygon fill="#63b8ff" stroke="#63b8ff" points="630.32,-76.83 639.57,-71.65 629.11,-69.93 630.32,-76.83"/>
</a>
</g>
</g>
<!-- Node17&#45;&gt;Node4 -->
<g id="edge23_Node000017_Node000004" class="edge">
<title>Node17&#45;&gt;Node4</title>
<g id="a_edge23_Node000017_Node000004"><a xlink:title=" ">
<path fill="none" stroke="#63b8ff" d="M205.31,-115.44C169.85,-108.54 127.63,-96.16 95,-74 77.91,-62.39 64.41,-42.69 56.14,-28.3"/>
<polygon fill="#63b8ff" stroke="#63b8ff" points="59.12,-26.46 51.26,-19.35 52.97,-29.81 59.12,-26.46"/>
</a>
</g>
</g>
<!-- Node17&#45;&gt;Node8 -->
<g id="edge22_Node000017_Node000008" class="edge">
<title>Node17&#45;&gt;Node8</title>
<g id="a_edge22_Node000017_Node000008"><a xlink:title=" ">
<path fill="none" stroke="#63b8ff" d="M324.47,-115.49C336.39,-113.55 349.14,-111.59 361,-110 512.82,-89.71 555.34,-101.09 710.41,-73.82"/>
<polygon fill="#63b8ff" stroke="#63b8ff" points="711.07,-77.26 720.3,-72.06 709.84,-70.37 711.07,-77.26"/>
</a>
</g>
</g>
<!-- Node17&#45;&gt;Node11 -->
<g id="edge26_Node000017_Node000011" class="edge">
<title>Node17&#45;&gt;Node11</title>
<g id="a_edge26_Node000017_Node000011"><a xlink:title=" ">
<path fill="none" stroke="#63b8ff" d="M327.23,-115.48C338.36,-113.66 350.07,-111.75 361,-110 412.52,-101.76 553.67,-108.28 593,-74 605.59,-63.02 610.01,-44.07 611.48,-29.72"/>
<polygon fill="#63b8ff" stroke="#63b8ff" points="614.99,-29.64 612.12,-19.44 608.01,-29.2 614.99,-29.64"/>
</a>
</g>
</g>
<!-- Node18 -->
<g id="Node000018" class="node">
<title>Node18</title>
<g id="a_Node000018"><a xlink:title=" ">
<polygon fill="#e0e0e0" stroke="#999999" points="374.5,-19 323.5,-19 323.5,0 374.5,0 374.5,-19"/>
<text text-anchor="middle" x="349" y="-7" font-family="Helvetica,sans-Serif" font-size="10.00">variant</text>
</a>
</g>
</g>
<!-- Node17&#45;&gt;Node18 -->
<g id="edge20_Node000017_Node000018" class="edge">
<title>Node17&#45;&gt;Node18</title>
<g id="a_edge20_Node000017_Node000018"><a xlink:title=" ">
<path fill="none" stroke="#63b8ff" d="M281.49,-115.47C293.43,-96.9 321.98,-52.51 337.86,-27.82"/>
<polygon fill="#63b8ff" stroke="#63b8ff" points="340.98,-29.43 343.45,-19.13 335.1,-25.65 340.98,-29.43"/>
</a>
</g>
</g>
<!-- Node19 -->
<g id="Node000019" class="node">
<title>Node19</title>
<g id="a_Node000019"><a xlink:title=" ">
<polygon fill="#e0e0e0" stroke="#999999" points="305,-19 247,-19 247,0 305,0 305,-19"/>
<text text-anchor="middle" x="276" y="-7" font-family="Helvetica,sans-Serif" font-size="10.00">memory</text>
</a>
</g>
</g>
<!-- Node17&#45;&gt;Node19 -->
<g id="edge21_Node000017_Node000019" class="edge">
<title>Node17&#45;&gt;Node19</title>
<g id="a_edge21_Node000017_Node000019"><a xlink:title=" ">
<path fill="none" stroke="#63b8ff" d="M276,-115.47C276,-97.23 276,-54.07 276,-29.14"/>
<polygon fill="#63b8ff" stroke="#63b8ff" points="279.5,-29.13 276,-19.13 272.5,-29.13 279.5,-29.13"/>
</a>
</g>
</g>
<!-- Node20 -->
<g id="Node000020" class="node">
<title>Node20</title>
<g id="a_Node000020"><a xlink:title=" ">
<polygon fill="#e0e0e0" stroke="#999999" points="526,-74 470,-74 470,-55 526,-55 526,-74"/>
<text text-anchor="middle" x="498" y="-62" font-family="Helvetica,sans-Serif" font-size="10.00">optional</text>
</a>
</g>
</g>
<!-- Node17&#45;&gt;Node20 -->
<g id="edge24_Node000017_Node000020" class="edge">
<title>Node17&#45;&gt;Node20</title>
<g id="a_edge24_Node000017_Node000020"><a xlink:title=" ">
<path fill="none" stroke="#63b8ff" d="M308.28,-115.49C348.58,-104.87 417.41,-86.74 460.15,-75.47"/>
<polygon fill="#63b8ff" stroke="#63b8ff" points="461.12,-78.84 469.9,-72.9 459.34,-72.07 461.12,-78.84"/>
</a>
</g>
</g>
<!-- Node21 -->
<g id="Node000021" class="node">
<title>Node21</title>
<g id="a_Node000021"><a xlink:title=" ">
<polygon fill="#e0e0e0" stroke="#999999" points="584,-74 544,-74 544,-55 584,-55 584,-74"/>
<text text-anchor="middle" x="564" y="-62" font-family="Helvetica,sans-Serif" font-size="10.00">span</text>
</a>
</g>
</g>
<!-- Node17&#45;&gt;Node21 -->
<g id="edge27_Node000017_Node000021" class="edge">
<title>Node17&#45;&gt;Node21</title>
<g id="a_edge27_Node000017_Node000021"><a xlink:title=" ">
<path fill="none" stroke="#63b8ff" d="M327.91,-115.46C378.27,-106.85 457,-92.51 533.93,-74.08"/>
<polygon fill="#63b8ff" stroke="#63b8ff" points="534.89,-77.45 543.78,-71.69 533.24,-70.64 534.89,-77.45"/>
</a>
</g>
</g>
<!-- Node22 -->
<g id="Node000022" class="node">
<title>Node22</title>
<g id="a_Node000022"><a xlink:href="_cow_8hpp.html" target="_top" xlink:title=" ">
<polygon fill="white" stroke="#666666" points="452,-74 342,-74 342,-55 452,-55 452,-74"/>
<text text-anchor="middle" x="397" y="-62" font-family="Helvetica,sans-Serif" font-size="10.00">Thoth/Dsa/Cow.hpp</text>
</a>
</g>
</g>
<!-- Node17&#45;&gt;Node22 -->
<g id="edge28_Node000017_Node000022" class="edge">
<title>Node17&#45;&gt;Node22</title>
<g id="a_edge28_Node000017_Node000022"><a xlink:title=" ">
<path fill="none" stroke="#63b8ff" d="M293.59,-115.49C313.76,-105.75 347.02,-89.66 370.36,-78.38"/>
<polygon fill="#63b8ff" stroke="#63b8ff" points="371.9,-81.52 379.38,-74.02 368.86,-75.22 371.9,-81.52"/>
</a>
</g>
</g>
<!-- Node24 -->
<g id="Node000024" class="node">
<title>Node24</title>
<g id="a_Node000024"><a xlink:href="_string_ref_8hpp.html" target="_top" xlink:title=" ">
<polygon fill="white" stroke="#666666" points="247.5,-74 104.5,-74 104.5,-55 247.5,-55 247.5,-74"/>
<text text-anchor="middle" x="176" y="-62" font-family="Helvetica,sans-Serif" font-size="10.00">Thoth/NJson/StringRef.hpp</text>
</a>
</g>
</g>
<!-- Node17&#45;&gt;Node24 -->
<g id="edge32_Node000017_Node000024" class="edge">
<title>Node17&#45;&gt;Node24</title>
<g id="a_edge32_Node000017_Node000024"><a xlink:title=" ">
<path fill="none" stroke="#63b8ff" d="M261.24,-115.37C245,-105.86 218.65,-90.45 199.54,-79.27"/>
<polygon fill="#63b8ff" stroke="#63b8ff" points="201.21,-76.2 190.82,-74.17 197.68,-82.24 201.21,-76.2"/>
</a>
</g>
</g>
<!-- Node22&#45;&gt;Node11 -->
<g id="edge29_Node000022_Node000011" class="edge">
<title>Node22&#45;&gt;Node11</title>
<g id="a_edge29_Node000022_Node000011"><a xlink:title=" ">
<path fill="none" stroke="#63b8ff" d="M431.54,-54.98C469.84,-45.54 531.54,-30.34 571.93,-20.38"/>
<polygon fill="#63b8ff" stroke="#63b8ff" points="572.84,-23.76 581.71,-17.97 571.17,-16.96 572.84,-23.76"/>
</a>
</g>
</g>
<!-- Node22&#45;&gt;Node18 -->
<g id="edge30_Node000022_Node000018" class="edge">
<title>Node22&#45;&gt;Node18</title>
<g id="a_edge30_Node000022_Node000018"><a xlink:title=" ">
<path fill="none" stroke="#63b8ff" d="M389.07,-54.75C382.15,-47.11 371.93,-35.82 363.55,-26.56"/>
<polygon fill="#63b8ff" stroke="#63b8ff" points="366.09,-24.15 356.78,-19.09 360.9,-28.85 366.09,-24.15"/>
</a>
</g>
</g>
<!-- Node23 -->
<g id="Node000023" class="node">
<title>Node23</title>
<g id="a_Node000023"><a xlink:title=" ">
<polygon fill="#e0e0e0" stroke="#999999" points="501,-19 393,-19 393,0 501,0 501,-19"/>
<text text-anchor="middle" x="447" y="-7" font-family="Helvetica,sans-Serif" font-size="10.00">Thoth/Dsa/Cow.tpp</text>
</a>
</g>
</g>
<!-- Node22&#45;&gt;Node23 -->
<g id="edge31_Node000022_Node000023" class="edge">
<title>Node22&#45;&gt;Node23</title>
<g id="a_edge31_Node000022_Node000023"><a xlink:title=" ">
<path fill="none" stroke="#63b8ff" d="M405.26,-54.75C412.46,-47.11 423.11,-35.82 431.85,-26.56"/>
<polygon fill="#63b8ff" stroke="#63b8ff" points="434.58,-28.76 438.9,-19.09 429.49,-23.96 434.58,-28.76"/>
</a>
</g>
</g>
<!-- Node24&#45;&gt;Node4 -->
<g id="edge35_Node000024_Node000004" class="edge">
<title>Node24&#45;&gt;Node4</title>
<g id="a_edge35_Node000024_Node000004"><a xlink:title=" ">
<path fill="none" stroke="#63b8ff" d="M155.27,-54.98C134.24,-46.34 101.45,-32.87 77.46,-23.02"/>
<polygon fill="#63b8ff" stroke="#63b8ff" points="78.68,-19.73 68.1,-19.17 76.02,-26.21 78.68,-19.73"/>
</a>
</g>
</g>
<!-- Node24&#45;&gt;Node19 -->
<g id="edge33_Node000024_Node000019" class="edge">
<title>Node24&#45;&gt;Node19</title>
<g id="a_edge33_Node000024_Node000019"><a xlink:title=" ">
<path fill="none" stroke="#63b8ff" d="M192.07,-54.98C207.86,-46.61 232.22,-33.7 250.63,-23.95"/>
<polygon fill="#63b8ff" stroke="#63b8ff" points="252.44,-26.95 259.64,-19.17 249.17,-20.76 252.44,-26.95"/>
</a>
</g>
</g>
<!-- Node25 -->
<g id="Node000025" class="node">
<title>Node25</title>
<g id="a_Node000025"><a xlink:title=" ">
<polygon fill="#e0e0e0" stroke="#999999" points="960.5,-19 887.5,-19 887.5,0 960.5,0 960.5,-19"/>
<text text-anchor="middle" x="924" y="-7" font-family="Helvetica,sans-Serif" font-size="10.00">string_view</text>
</a>
</g>
</g>
<!-- Node24&#45;&gt;Node25 -->
<g id="edge34_Node000024_Node000025" class="edge">
<title>Node24&#45;&gt;Node25</title>
<g id="a_edge34_Node000024_Node000025"><a xlink:title=" ">
<path fill="none" stroke="#63b8ff" d="M247.72,-58.42C399.59,-47.66 750.07,-22.82 877.02,-13.83"/>
<polygon fill="#63b8ff" stroke="#63b8ff" points="877.45,-17.31 887.18,-13.11 876.96,-10.32 877.45,-17.31"/>
</a>
</g>
</g>
<!-- Node26 -->
<g id="Node000026" class="node">
<title>Node26</title>
<g id="a_Node000026"><a xlink:title=" ">
<polygon fill="#e0e0e0" stroke="#999999" points="228.5,-19 87.5,-19 87.5,0 228.5,0 228.5,-19"/>
<text text-anchor="middle" x="158" y="-7" font-family="Helvetica,sans-Serif" font-size="10.00">Thoth/NJson/StringRef.tpp</text>
</a>
</g>
</g>
<!-- Node24&#45;&gt;Node26 -->
<g id="edge36_Node000024_Node000026" class="edge">
<title>Node24&#45;&gt;Node26</title>
<g id="a_edge36_Node000024_Node000026"><a xlink:title=" ">
<path fill="none" stroke="#63b8ff" d="M173.03,-54.75C170.64,-47.72 167.21,-37.62 164.23,-28.84"/>
<polygon fill="#63b8ff" stroke="#63b8ff" points="167.45,-27.43 160.92,-19.09 160.82,-29.68 167.45,-27.43"/>
</a>
</g>
</g>
<!-- Node30 -->
<g id="Node000030" class="node">
<title>Node30</title>
<g id="a_Node000030"><a xlink:href="_monostate_8hpp.html" target="_top" xlink:title=" ">
<polygon fill="white" stroke="#666666" points="1230,-200.5 1084,-200.5 1084,-181.5 1230,-181.5 1230,-200.5"/>
<text text-anchor="middle" x="1157" y="-188.5" font-family="Helvetica,sans-Serif" font-size="10.00">Thoth/Utils/Monostate.hpp</text>
</a>
</g>
</g>
<!-- Node29&#45;&gt;Node30 -->
<g id="edge41_Node000029_Node000030" class="edge">
<title>Node29&#45;&gt;Node30</title>
<g id="a_edge41_Node000029_Node000030"><a xlink:title=" ">
<path fill="none" stroke="#63b8ff" d="M1052.32,-247.37C1072.71,-236.59 1107.81,-218.02 1131.7,-205.38"/>
<polygon fill="#63b8ff" stroke="#63b8ff" points="1133.35,-208.47 1140.55,-200.7 1130.08,-202.28 1133.35,-208.47"/>
</a>
</g>
</g>
<!-- Node31 -->
<g id="Node000031" class="node">
<title>Node31</title>
<g id="a_Node000031"><a xlink:href="_string_2_utils_8hpp.html" target="_top" xlink:title=" ">
<polygon fill="white" stroke="#666666" points="1326,-74 1204,-74 1204,-55 1326,-55 1326,-74"/>
<text text-anchor="middle" x="1265" y="-62" font-family="Helvetica,sans-Serif" font-size="10.00">Thoth/String/Utils.hpp</text>
</a>
</g>
</g>
<!-- Node29&#45;&gt;Node31 -->
<g id="edge43_Node000029_Node000031" class="edge">
<title>Node29&#45;&gt;Node31</title>
<g id="a_edge43_Node000029_Node000031"><a xlink:title=" ">
<path fill="none" stroke="#63b8ff" d="M1081.81,-247.43C1138.28,-236.46 1228.17,-217.49 1239,-206 1270.4,-172.7 1270.05,-114.42 1267.4,-84.46"/>
<polygon fill="#63b8ff" stroke="#63b8ff" points="1270.84,-83.72 1266.29,-74.15 1263.88,-84.47 1270.84,-83.72"/>
</a>
</g>
</g>
<!-- Node30&#45;&gt;Node7 -->
<g id="edge42_Node000030_Node000007" class="edge">
<title>Node30&#45;&gt;Node7</title>
<g id="a_edge42_Node000030_Node000007"><a xlink:title=" ">
<path fill="none" stroke="#63b8ff" d="M1156.19,-181.37C1155.32,-172.07 1153.9,-156.98 1152.77,-144.9"/>
<polygon fill="#63b8ff" stroke="#63b8ff" points="1156.25,-144.53 1151.83,-134.91 1149.28,-145.19 1156.25,-144.53"/>
</a>
</g>
</g>
<!-- Node31&#45;&gt;Node4 -->
<g id="edge46_Node000031_Node000004" class="edge">
<title>Node31&#45;&gt;Node4</title>
<g id="a_edge46_Node000031_Node000004"><a xlink:title=" ">
<path fill="none" stroke="#63b8ff" d="M1203.92,-58.21C1188.61,-57.02 1172.21,-55.85 1157,-55 920.62,-41.76 331.02,-54.62 79.13,-18.73"/>
<polygon fill="#63b8ff" stroke="#63b8ff" points="79.62,-15.26 69.22,-17.26 78.6,-22.19 79.62,-15.26"/>
</a>
</g>
</g>
<!-- Node31&#45;&gt;Node25 -->
<g id="edge45_Node000031_Node000025" class="edge">
<title>Node31&#45;&gt;Node25</title>
<g id="a_edge45_Node000031_Node000025"><a xlink:title=" ">
<path fill="none" stroke="#63b8ff" d="M1210.21,-54.98C1143.87,-44.67 1033.27,-27.48 970.76,-17.77"/>
<polygon fill="#63b8ff" stroke="#63b8ff" points="971.21,-14.29 960.79,-16.22 970.13,-21.21 971.21,-14.29"/>
</a>
</g>
</g>
<!-- Node32 -->
<g id="Node000032" class="node">
<title>Node32</title>
<g id="a_Node000032"><a xlink:title=" ">
<polygon fill="#e0e0e0" stroke="#999999" points="1337,-19 1293,-19 1293,0 1337,0 1337,-19"/>
<text text-anchor="middle" x="1315" y="-7" font-family="Helvetica,sans-Serif" font-size="10.00">bitset</text>
</a>
</g>
</g>
<!-- Node31&#45;&gt;Node32 -->
<g id="edge44_Node000031_Node000032" class="edge">
<title>Node31&#45;&gt;Node32</title>
<g id="a_edge44_Node000031_Node000032"><a xlink:title=" ">
<path fill="none" stroke="#63b8ff" d="M1273.26,-54.75C1280.46,-47.11 1291.11,-35.82 1299.85,-26.56"/>
<polygon fill="#63b8ff" stroke="#63b8ff" points="1302.58,-28.76 1306.9,-19.09 1297.49,-23.96 1302.58,-28.76"/>
</a>
</g>
</g>
<!-- Node33 -->
<g id="Node000033" class="node">
<title>Node33</title>
<g id="a_Node000033"><a xlink:title=" ">
<polygon fill="#e0e0e0" stroke="#999999" points="1275,-19 1155,-19 1155,0 1275,0 1275,-19"/>
<text text-anchor="middle" x="1215" y="-7" font-family="Helvetica,sans-Serif" font-size="10.00">Thoth/String/Utils.tpp</text>
</a>
</g>
</g>
<!-- Node31&#45;&gt;Node33 -->
<g id="edge47_Node000031_Node000033" class="edge">
<title>Node31&#45;&gt;Node33</title>
<g id="a_edge47_Node000031_Node000033"><a xlink:title=" ">
<path fill="none" stroke="#63b8ff" d="M1256.74,-54.75C1249.54,-47.11 1238.89,-35.82 1230.15,-26.56"/>
<polygon fill="#63b8ff" stroke="#63b8ff" points="1232.51,-23.96 1223.1,-19.09 1227.42,-28.76 1232.51,-23.96"/>
</a>
</g>
</g>
</g>
</svg>
