<?xml version="1.0" encoding="UTF-8" standalone="no"?>
<!DOCTYPE svg PUBLIC "-//W3C//DTD SVG 1.1//EN"
 "http://www.w3.org/Graphics/SVG/1.1/DTD/svg11.dtd">
<!-- Generated by graphviz version 2.43.0 (0)
 -->
<!-- Title: include/Thoth/Http/Request/Url.hpp Pages: 1 -->
<svg width="1511pt" height="368pt"
 viewBox="0.00 0.00 1510.82 368.00" xmlns="http://www.w3.org/2000/svg" xmlns:xlink="http://www.w3.org/1999/xlink">
<g id="graph0" class="graph" transform="scale(1 1) rotate(0) translate(4 364)">
<title>include/Thoth/Http/Request/Url.hpp</title>
<!-- Node1 -->
<g id="Node000001" class="node">
<title>Node1</title>
<g id="a_Node000001"><a xlink:title=" ">
<polygon fill="#999999" stroke="#666666" points="341.82,-360 234.82,-360 234.82,-330 341.82,-330 341.82,-360"/>
<text text-anchor="start" x="242.82" y="-348" font-family="Helvetica,sans-Serif" font-size="10.00">include/Thoth/Http</text>
<text text-anchor="middle" x="288.32" y="-337" font-family="Helvetica,sans-Serif" font-size="10.00">/Request/Url.hpp</text>
</a>
</g>
</g>
<!-- Node2 -->
<g id="Node000002" class="node">
<title>Node2</title>
<g id="a_Node000002"><a xlink:href="_method_concept_8hpp.html" target="_top" xlink:title=" ">
<polygon fill="white" stroke="#666666" points="769.32,-294 575.32,-294 575.32,-264 769.32,-264 769.32,-294"/>
<text text-anchor="start" x="583.32" y="-282" font-family="Helvetica,sans-Serif" font-size="10.00">include/Thoth/Http</text>
<text text-anchor="middle" x="672.32" y="-271" font-family="Helvetica,sans-Serif" font-size="10.00">/Methods/_base/MethodConcept.hpp</text>
</a>
</g>
</g>
<!-- Node1&#45;&gt;Node2 -->
<g id="edge1_Node000001_Node000002" class="edge">
<title>Node1&#45;&gt;Node2</title>
<g id="a_edge1_Node000001_Node000002"><a xlink:title=" ">
<path fill="none" stroke="#63b8ff" d="M352.18,-333.36C416.82,-322.58 517.12,-305.87 588.2,-294.02"/>
<polygon fill="#63b8ff" stroke="#63b8ff" points="351.41,-329.94 342.12,-335.03 352.56,-336.84 351.41,-329.94"/>
</a>
</g>
</g>
<!-- Node6 -->
<g id="Node000006" class="node">
<title>Node6</title>
<g id="a_Node000006"><a xlink:href="_request_8hpp.html" target="_top" xlink:title=" ">
<polygon fill="white" stroke="#666666" points="145.82,-162 22.82,-162 22.82,-132 145.82,-132 145.82,-162"/>
<text text-anchor="start" x="30.82" y="-150" font-family="Helvetica,sans-Serif" font-size="10.00">include/Thoth/Http</text>
<text text-anchor="middle" x="84.32" y="-139" font-family="Helvetica,sans-Serif" font-size="10.00">/Request/Request.hpp</text>
</a>
</g>
</g>
<!-- Node1&#45;&gt;Node6 -->
<g id="edge18_Node000001_Node000006" class="edge">
<title>Node1&#45;&gt;Node6</title>
<g id="a_edge18_Node000001_Node000006"><a xlink:title=" ">
<path fill="none" stroke="#63b8ff" d="M224.71,-337.99C157.32,-327.85 54.07,-300.67 5.32,-228 -2.11,-216.93 -1.11,-209.68 5.32,-198 14.25,-181.79 30.89,-170.1 46.6,-162.12"/>
<polygon fill="#63b8ff" stroke="#63b8ff" points="224.4,-341.48 234.79,-339.42 225.39,-334.55 224.4,-341.48"/>
</a>
</g>
</g>
<!-- Node3 -->
<g id="Node000003" class="node">
<title>Node3</title>
<g id="a_Node000003"><a xlink:href="_connect_method_8hpp.html" target="_top" xlink:title=" ">
<polygon fill="white" stroke="#666666" points="1168.32,-228 1006.32,-228 1006.32,-198 1168.32,-198 1168.32,-228"/>
<text text-anchor="start" x="1014.32" y="-216" font-family="Helvetica,sans-Serif" font-size="10.00">include/Thoth/Http</text>
<text text-anchor="middle" x="1087.32" y="-205" font-family="Helvetica,sans-Serif" font-size="10.00">/Methods/ConnectMethod.hpp</text>
</a>
</g>
</g>
<!-- Node2&#45;&gt;Node3 -->
<g id="edge2_Node000002_Node000003" class="edge">
<title>Node2&#45;&gt;Node3</title>
<g id="a_edge2_Node000002_Node000003"><a xlink:title=" ">
<path fill="none" stroke="#63b8ff" d="M773.84,-262.43C837.94,-252.58 922.48,-239.58 997.32,-228 1000.13,-227.56 1003,-227.12 1005.89,-226.67"/>
<polygon fill="#63b8ff" stroke="#63b8ff" points="773.09,-259 763.74,-263.98 774.15,-265.92 773.09,-259"/>
</a>
</g>
</g>
<!-- Node4 -->
<g id="Node000004" class="node">
<title>Node4</title>
<g id="a_Node000004"><a xlink:href="_delete_method_8hpp.html" target="_top" xlink:title=" ">
<polygon fill="white" stroke="#666666" points="1341.82,-228 1186.82,-228 1186.82,-198 1341.82,-198 1341.82,-228"/>
<text text-anchor="start" x="1194.82" y="-216" font-family="Helvetica,sans-Serif" font-size="10.00">include/Thoth/Http</text>
<text text-anchor="middle" x="1264.32" y="-205" font-family="Helvetica,sans-Serif" font-size="10.00">/Methods/DeleteMethod.hpp</text>
</a>
</g>
</g>
<!-- Node2&#45;&gt;Node4 -->
<g id="edge3_Node000002_Node000004" class="edge">
<title>Node2&#45;&gt;Node4</title>
<g id="a_edge3_Node000002_Node000004"><a xlink:title=" ">
<path fill="none" stroke="#63b8ff" d="M779.37,-269.3C881.74,-260.54 1040.35,-245.79 1177.32,-228 1180.36,-227.61 1183.45,-227.19 1186.57,-226.75"/>
<polygon fill="#63b8ff" stroke="#63b8ff" points="779,-265.82 769.33,-270.16 779.59,-272.8 779,-265.82"/>
</a>
</g>
</g>
<!-- Node5 -->
<g id="Node000005" class="node">
<title>Node5</title>
<g id="a_Node000005"><a xlink:href="_get_method_8hpp.html" target="_top" xlink:title=" ">
<polygon fill="white" stroke="#666666" points="154.32,-228 14.32,-228 14.32,-198 154.32,-198 154.32,-228"/>
<text text-anchor="start" x="22.32" y="-216" font-family="Helvetica,sans-Serif" font-size="10.00">include/Thoth/Http</text>
<text text-anchor="middle" x="84.32" y="-205" font-family="Helvetica,sans-Serif" font-size="10.00">/Methods/GetMethod.hpp</text>
</a>
</g>
</g>
<!-- Node2&#45;&gt;Node5 -->
<g id="edge4_Node000002_Node000005" class="edge">
<title>Node2&#45;&gt;Node5</title>
<g id="a_edge4_Node000002_Node000005"><a xlink:title=" ">
<path fill="none" stroke="#63b8ff" d="M564.84,-269.87C461.62,-261.5 301.45,-246.99 163.32,-228 160.42,-227.6 157.47,-227.17 154.49,-226.73"/>
<polygon fill="#63b8ff" stroke="#63b8ff" points="564.71,-273.38 574.95,-270.69 565.27,-266.4 564.71,-273.38"/>
</a>
</g>
</g>
<!-- Node9 -->
<g id="Node000009" class="node">
<title>Node9</title>
<g id="a_Node000009"><a xlink:href="_head_method_8hpp.html" target="_top" xlink:title=" ">
<polygon fill="white" stroke="#666666" points="320.32,-228 172.32,-228 172.32,-198 320.32,-198 320.32,-228"/>
<text text-anchor="start" x="180.32" y="-216" font-family="Helvetica,sans-Serif" font-size="10.00">include/Thoth/Http</text>
<text text-anchor="middle" x="246.32" y="-205" font-family="Helvetica,sans-Serif" font-size="10.00">/Methods/HeadMethod.hpp</text>
</a>
</g>
</g>
<!-- Node2&#45;&gt;Node9 -->
<g id="edge10_Node000002_Node000009" class="edge">
<title>Node2&#45;&gt;Node9</title>
<g id="a_edge10_Node000002_Node000009"><a xlink:title=" ">
<path fill="none" stroke="#63b8ff" d="M564.78,-262.95C497.14,-253.33 408.06,-240.38 329.32,-228 326.43,-227.55 323.49,-227.08 320.52,-226.6"/>
<polygon fill="#63b8ff" stroke="#63b8ff" points="564.63,-266.47 575.03,-264.41 565.62,-259.54 564.63,-266.47"/>
</a>
</g>
</g>
<!-- Node10 -->
<g id="Node000010" class="node">
<title>Node10</title>
<g id="a_Node000010"><a xlink:href="_options_method_8hpp.html" target="_top" xlink:title=" ">
<polygon fill="white" stroke="#666666" points="498.32,-228 338.32,-228 338.32,-198 498.32,-198 498.32,-228"/>
<text text-anchor="start" x="346.32" y="-216" font-family="Helvetica,sans-Serif" font-size="10.00">include/Thoth/Http</text>
<text text-anchor="middle" x="418.32" y="-205" font-family="Helvetica,sans-Serif" font-size="10.00">/Methods/OptionsMethod.hpp</text>
</a>
</g>
</g>
<!-- Node2&#45;&gt;Node10 -->
<g id="edge11_Node000002_Node000010" class="edge">
<title>Node2&#45;&gt;Node10</title>
<g id="a_edge11_Node000002_Node000010"><a xlink:title=" ">
<path fill="none" stroke="#63b8ff" d="M606.64,-261.45C565.49,-251.08 513.03,-237.86 473.93,-228.01"/>
<polygon fill="#63b8ff" stroke="#63b8ff" points="606.03,-264.91 616.58,-263.95 607.74,-258.12 606.03,-264.91"/>
</a>
</g>
</g>
<!-- Node11 -->
<g id="Node000011" class="node">
<title>Node11</title>
<g id="a_Node000011"><a xlink:href="_patch_method_8hpp.html" target="_top" xlink:title=" ">
<polygon fill="white" stroke="#666666" points="665.82,-228 516.82,-228 516.82,-198 665.82,-198 665.82,-228"/>
<text text-anchor="start" x="524.82" y="-216" font-family="Helvetica,sans-Serif" font-size="10.00">include/Thoth/Http</text>
<text text-anchor="middle" x="591.32" y="-205" font-family="Helvetica,sans-Serif" font-size="10.00">/Methods/PatchMethod.hpp</text>
</a>
</g>
</g>
<!-- Node2&#45;&gt;Node11 -->
<g id="edge12_Node000002_Node000011" class="edge">
<title>Node2&#45;&gt;Node11</title>
<g id="a_edge12_Node000002_Node000011"><a xlink:title=" ">
<path fill="none" stroke="#63b8ff" d="M646.35,-257.48C634.24,-247.91 620.14,-236.77 609.25,-228.16"/>
<polygon fill="#63b8ff" stroke="#63b8ff" points="644.33,-260.34 654.35,-263.8 648.67,-254.85 644.33,-260.34"/>
</a>
</g>
</g>
<!-- Node12 -->
<g id="Node000012" class="node">
<title>Node12</title>
<g id="a_Node000012"><a xlink:href="_post_method_8hpp.html" target="_top" xlink:title=" ">
<polygon fill="white" stroke="#666666" points="1502.82,-228 1359.82,-228 1359.82,-198 1502.82,-198 1502.82,-228"/>
<text text-anchor="start" x="1367.82" y="-216" font-family="Helvetica,sans-Serif" font-size="10.00">include/Thoth/Http</text>
<text text-anchor="middle" x="1431.32" y="-205" font-family="Helvetica,sans-Serif" font-size="10.00">/Methods/PostMethod.hpp</text>
</a>
</g>
</g>
<!-- Node2&#45;&gt;Node12 -->
<g id="edge13_Node000002_Node000012" class="edge">
<title>Node2&#45;&gt;Node12</title>
<g id="a_edge13_Node000002_Node000012"><a xlink:title=" ">
<path fill="none" stroke="#63b8ff" d="M779.88,-273.4C914.03,-266.89 1150.25,-252.93 1351.32,-228 1353.98,-227.67 1356.68,-227.31 1359.41,-226.93"/>
<polygon fill="#63b8ff" stroke="#63b8ff" points="779.42,-269.91 769.6,-273.89 779.76,-276.91 779.42,-269.91"/>
</a>
</g>
</g>
<!-- Node13 -->
<g id="Node000013" class="node">
<title>Node13</title>
<g id="a_Node000013"><a xlink:href="_put_method_8hpp.html" target="_top" xlink:title=" ">
<polygon fill="white" stroke="#666666" points="822.32,-228 684.32,-228 684.32,-198 822.32,-198 822.32,-228"/>
<text text-anchor="start" x="692.32" y="-216" font-family="Helvetica,sans-Serif" font-size="10.00">include/Thoth/Http</text>
<text text-anchor="middle" x="753.32" y="-205" font-family="Helvetica,sans-Serif" font-size="10.00">/Methods/PutMethod.hpp</text>
</a>
</g>
</g>
<!-- Node2&#45;&gt;Node13 -->
<g id="edge16_Node000002_Node000013" class="edge">
<title>Node2&#45;&gt;Node13</title>
<g id="a_edge16_Node000002_Node000013"><a xlink:title=" ">
<path fill="none" stroke="#63b8ff" d="M698.3,-257.48C710.4,-247.91 724.5,-236.77 735.4,-228.16"/>
<polygon fill="#63b8ff" stroke="#63b8ff" points="695.97,-254.85 690.3,-263.8 700.31,-260.34 695.97,-254.85"/>
</a>
</g>
</g>
<!-- Node14 -->
<g id="Node000014" class="node">
<title>Node14</title>
<g id="a_Node000014"><a xlink:href="_trace_method_8hpp.html" target="_top" xlink:title=" ">
<polygon fill="white" stroke="#666666" points="988.32,-228 840.32,-228 840.32,-198 988.32,-198 988.32,-228"/>
<text text-anchor="start" x="848.32" y="-216" font-family="Helvetica,sans-Serif" font-size="10.00">include/Thoth/Http</text>
<text text-anchor="middle" x="914.32" y="-205" font-family="Helvetica,sans-Serif" font-size="10.00">/Methods/TraceMethod.hpp</text>
</a>
</g>
</g>
<!-- Node2&#45;&gt;Node14 -->
<g id="edge17_Node000002_Node000014" class="edge">
<title>Node2&#45;&gt;Node14</title>
<g id="a_edge17_Node000002_Node000014"><a xlink:title=" ">
<path fill="none" stroke="#63b8ff" d="M735.14,-261.39C774.32,-251.03 824.17,-237.84 861.34,-228.01"/>
<polygon fill="#63b8ff" stroke="#63b8ff" points="734.2,-258.01 725.43,-263.95 735.99,-264.78 734.2,-258.01"/>
</a>
</g>
</g>
<!-- Node5&#45;&gt;Node6 -->
<g id="edge5_Node000005_Node000006" class="edge">
<title>Node5&#45;&gt;Node6</title>
<g id="a_edge5_Node000005_Node000006"><a xlink:title=" ">
<path fill="none" stroke="#63b8ff" d="M84.32,-187.54C84.32,-178.96 84.32,-169.61 84.32,-162.16"/>
<polygon fill="#63b8ff" stroke="#63b8ff" points="80.82,-187.8 84.32,-197.8 87.82,-187.8 80.82,-187.8"/>
</a>
</g>
</g>
<!-- Node8 -->
<g id="Node000008" class="node">
<title>Node8</title>
<g id="a_Node000008"><a xlink:href="_response_8hpp.html" target="_top" xlink:title=" ">
<polygon fill="white" stroke="#666666" points="247.32,-96 109.32,-96 109.32,-66 247.32,-66 247.32,-96"/>
<text text-anchor="start" x="117.32" y="-84" font-family="Helvetica,sans-Serif" font-size="10.00">include/Thoth/Http</text>
<text text-anchor="middle" x="178.32" y="-73" font-family="Helvetica,sans-Serif" font-size="10.00">/Response/Response.hpp</text>
</a>
</g>
</g>
<!-- Node5&#45;&gt;Node8 -->
<g id="edge9_Node000005_Node000008" class="edge">
<title>Node5&#45;&gt;Node8</title>
<g id="a_edge9_Node000005_Node000008"><a xlink:title=" ">
<path fill="none" stroke="#63b8ff" d="M121.63,-192.56C133.89,-184.55 146.6,-174.26 155.32,-162 169.57,-141.98 175.04,-113.27 177.1,-96.24"/>
<polygon fill="#63b8ff" stroke="#63b8ff" points="119.51,-189.75 112.84,-197.98 123.19,-195.71 119.51,-189.75"/>
</a>
</g>
</g>
<!-- Node7 -->
<g id="Node000007" class="node">
<title>Node7</title>
<g id="a_Node000007"><a xlink:href="_client_8hpp.html" target="_top" xlink:title=" ">
<polygon fill="white" stroke="#666666" points="182.82,-30 75.82,-30 75.82,0 182.82,0 182.82,-30"/>
<text text-anchor="start" x="83.82" y="-18" font-family="Helvetica,sans-Serif" font-size="10.00">include/Thoth/Http</text>
<text text-anchor="middle" x="129.32" y="-7" font-family="Helvetica,sans-Serif" font-size="10.00">/Client.hpp</text>
</a>
</g>
</g>
<!-- Node6&#45;&gt;Node7 -->
<g id="edge6_Node000006_Node000007" class="edge">
<title>Node6&#45;&gt;Node7</title>
<g id="a_edge6_Node000006_Node000007"><a xlink:title=" ">
<path fill="none" stroke="#63b8ff" d="M87.1,-121.51C89.44,-105.37 93.52,-83.98 100.32,-66 105.15,-53.23 113.03,-39.92 119.36,-30.24"/>
<polygon fill="#63b8ff" stroke="#63b8ff" points="83.59,-121.37 85.75,-131.74 90.53,-122.28 83.59,-121.37"/>
</a>
</g>
</g>
<!-- Node6&#45;&gt;Node8 -->
<g id="edge7_Node000006_Node000008" class="edge">
<title>Node6&#45;&gt;Node8</title>
<g id="a_edge7_Node000006_Node000008"><a xlink:title=" ">
<path fill="none" stroke="#63b8ff" d="M113.66,-126.03C127.88,-116.34 144.63,-104.94 157.52,-96.16"/>
<polygon fill="#63b8ff" stroke="#63b8ff" points="111.48,-123.28 105.18,-131.8 115.42,-129.06 111.48,-123.28"/>
</a>
</g>
</g>
<!-- Node8&#45;&gt;Node7 -->
<g id="edge8_Node000008_Node000007" class="edge">
<title>Node8&#45;&gt;Node7</title>
<g id="a_edge8_Node000008_Node000007"><a xlink:title=" ">
<path fill="none" stroke="#63b8ff" d="M161.33,-57.81C154.31,-48.64 146.38,-38.28 140.17,-30.16"/>
<polygon fill="#63b8ff" stroke="#63b8ff" points="158.59,-59.98 167.45,-65.8 164.15,-55.73 158.59,-59.98"/>
</a>
</g>
</g>
<!-- Node12&#45;&gt;Node6 -->
<g id="edge14_Node000012_Node000006" class="edge">
<title>Node12&#45;&gt;Node6</title>
<g id="a_edge14_Node000012_Node000006"><a xlink:title=" ">
<path fill="none" stroke="#63b8ff" d="M1349.44,-197.91C1093.8,-172.12 363.11,-154.22 145.9,-149.34"/>
<polygon fill="#63b8ff" stroke="#63b8ff" points="1349.12,-201.4 1359.43,-198.95 1349.84,-194.44 1349.12,-201.4"/>
</a>
</g>
</g>
<!-- Node12&#45;&gt;Node8 -->
<g id="edge15_Node000012_Node000008" class="edge">
<title>Node12&#45;&gt;Node8</title>
<g id="a_edge15_Node000012_Node000008"><a xlink:title=" ">
<path fill="none" stroke="#63b8ff" d="M1349.42,-197.79C926.04,-140.29 427.82,-100.52 247.61,-87.03"/>
<polygon fill="#63b8ff" stroke="#63b8ff" points="1349.02,-201.27 1359.4,-199.15 1349.97,-194.33 1349.02,-201.27"/>
</a>
</g>
</g>
</g>
</svg>
