<?xml version="1.0" encoding="UTF-8" standalone="no"?>
<!DOCTYPE svg PUBLIC "-//W3C//DTD SVG 1.1//EN"
 "http://www.w3.org/Graphics/SVG/1.1/DTD/svg11.dtd">
<!-- Generated by graphviz version 2.43.0 (0)
 -->
<!-- Title: include/Thoth/Http/Url/Url.hpp Pages: 1 -->
<svg width="1319pt" height="346pt"
 viewBox="0.00 0.00 1319.19 346.00" xmlns="http://www.w3.org/2000/svg" xmlns:xlink="http://www.w3.org/1999/xlink">
<g id="graph0" class="graph" transform="scale(1 1) rotate(0) translate(4 342)">
<title>include/Thoth/Http/Url/Url.hpp</title>
<!-- Node1 -->
<g id="Node000001" class="node">
<title>Node1</title>
<g id="a_Node000001"><a xlink:title=" ">
<polygon fill="#999999" stroke="#666666" points="666.69,-338 559.69,-338 559.69,-308 666.69,-308 666.69,-338"/>
<text text-anchor="start" x="567.69" y="-326" font-family="Helvetica,sans-Serif" font-size="10.00">include/Thoth/Http</text>
<text text-anchor="middle" x="613.19" y="-315" font-family="Helvetica,sans-Serif" font-size="10.00">/Url/Url.hpp</text>
</a>
</g>
</g>
<!-- Node2 -->
<g id="Node000002" class="node">
<title>Node2</title>
<g id="a_Node000002"><a xlink:title=" ">
<polygon fill="#e0e0e0" stroke="#999999" points="521.19,-74 459.19,-74 459.19,-55 521.19,-55 521.19,-74"/>
<text text-anchor="middle" x="490.19" y="-62" font-family="Helvetica,sans-Serif" font-size="10.00">expected</text>
</a>
</g>
</g>
<!-- Node1&#45;&gt;Node2 -->
<g id="edge1_Node000001_Node000002" class="edge">
<title>Node1&#45;&gt;Node2</title>
<g id="a_edge1_Node000001_Node000002"><a xlink:title=" ">
<path fill="none" stroke="#63b8ff" d="M559.46,-317.72C499.59,-311.71 408.38,-298.4 387.19,-272 336.5,-208.87 430.01,-116.74 471.66,-80.72"/>
<polygon fill="#63b8ff" stroke="#63b8ff" points="474.1,-83.24 479.46,-74.11 469.57,-77.9 474.1,-83.24"/>
</a>
</g>
</g>
<!-- Node3 -->
<g id="Node000003" class="node">
<title>Node3</title>
<g id="a_Node000003"><a xlink:title=" ">
<polygon fill="#e0e0e0" stroke="#999999" points="464.19,-266.5 396.19,-266.5 396.19,-247.5 464.19,-247.5 464.19,-266.5"/>
<text text-anchor="middle" x="430.19" y="-254.5" font-family="Helvetica,sans-Serif" font-size="10.00">filesystem</text>
</a>
</g>
</g>
<!-- Node1&#45;&gt;Node3 -->
<g id="edge2_Node000001_Node000003" class="edge">
<title>Node1&#45;&gt;Node3</title>
<g id="a_edge2_Node000001_Node000003"><a xlink:title=" ">
<path fill="none" stroke="#63b8ff" d="M573.03,-307.95C540.37,-296.53 494.81,-280.6 463.99,-269.82"/>
<polygon fill="#63b8ff" stroke="#63b8ff" points="465.14,-266.51 454.54,-266.52 462.82,-273.12 465.14,-266.51"/>
</a>
</g>
</g>
<!-- Node4 -->
<g id="Node000004" class="node">
<title>Node4</title>
<g id="a_Node000004"><a xlink:title=" ">
<polygon fill="#e0e0e0" stroke="#999999" points="1126.19,-19 1082.19,-19 1082.19,0 1126.19,0 1126.19,-19"/>
<text text-anchor="middle" x="1104.19" y="-7" font-family="Helvetica,sans-Serif" font-size="10.00">string</text>
</a>
</g>
</g>
<!-- Node1&#45;&gt;Node4 -->
<g id="edge3_Node000001_Node000004" class="edge">
<title>Node1&#45;&gt;Node4</title>
<g id="a_edge3_Node000001_Node000004"><a xlink:title=" ">
<path fill="none" stroke="#63b8ff" d="M666.73,-320.62C804.62,-315.63 1161.19,-292.96 1161.19,-192 1161.19,-192 1161.19,-192 1161.19,-124 1161.19,-86.18 1135.61,-48.1 1118.72,-27.07"/>
<polygon fill="#63b8ff" stroke="#63b8ff" points="1121.21,-24.59 1112.11,-19.16 1115.83,-29.08 1121.21,-24.59"/>
</a>
</g>
</g>
<!-- Node5 -->
<g id="Node000005" class="node">
<title>Node5</title>
<g id="a_Node000005"><a xlink:title=" ">
<polygon fill="#e0e0e0" stroke="#999999" points="766.69,-272 611.69,-272 611.69,-242 766.69,-242 766.69,-272"/>
<text text-anchor="start" x="619.69" y="-260" font-family="Helvetica,sans-Serif" font-size="10.00">Hermes/Endpoint/IpEndpoint</text>
<text text-anchor="middle" x="689.19" y="-249" font-family="Helvetica,sans-Serif" font-size="10.00">/IpAddress.hpp</text>
</a>
</g>
</g>
<!-- Node1&#45;&gt;Node5 -->
<g id="edge4_Node000001_Node000005" class="edge">
<title>Node1&#45;&gt;Node5</title>
<g id="a_edge4_Node000001_Node000005"><a xlink:title=" ">
<path fill="none" stroke="#63b8ff" d="M630.05,-307.8C640.19,-299.26 653.26,-288.25 664.54,-278.75"/>
<polygon fill="#63b8ff" stroke="#63b8ff" points="666.97,-281.28 672.37,-272.16 662.46,-275.93 666.97,-281.28"/>
</a>
</g>
</g>
<!-- Node6 -->
<g id="Node000006" class="node">
<title>Node6</title>
<g id="a_Node000006"><a xlink:href="_query_params_8hpp.html" target="_top" xlink:title=" ">
<polygon fill="white" stroke="#666666" points="593.69,-272 482.69,-272 482.69,-242 593.69,-242 593.69,-272"/>
<text text-anchor="start" x="490.69" y="-260" font-family="Helvetica,sans-Serif" font-size="10.00">Thoth/Http/Request</text>
<text text-anchor="middle" x="538.19" y="-249" font-family="Helvetica,sans-Serif" font-size="10.00">/QueryParams.hpp</text>
</a>
</g>
</g>
<!-- Node1&#45;&gt;Node6 -->
<g id="edge5_Node000001_Node000006" class="edge">
<title>Node1&#45;&gt;Node6</title>
<g id="a_edge5_Node000001_Node000006"><a xlink:title=" ">
<path fill="none" stroke="#63b8ff" d="M596.54,-307.8C586.54,-299.26 573.64,-288.25 562.51,-278.75"/>
<polygon fill="#63b8ff" stroke="#63b8ff" points="564.66,-275.99 554.78,-272.16 560.12,-281.32 564.66,-275.99"/>
</a>
</g>
</g>
<!-- Node29 -->
<g id="Node000029" class="node">
<title>Node29</title>
<g id="a_Node000029"><a xlink:title=" ">
<polygon fill="#e0e0e0" stroke="#999999" points="1311.19,-266.5 1189.19,-266.5 1189.19,-247.5 1311.19,-247.5 1311.19,-266.5"/>
<text text-anchor="middle" x="1250.19" y="-254.5" font-family="Helvetica,sans-Serif" font-size="10.00">Thoth/Http/Url/Url.tpp</text>
</a>
</g>
</g>
<!-- Node1&#45;&gt;Node29 -->
<g id="edge40_Node000001_Node000029" class="edge">
<title>Node1&#45;&gt;Node29</title>
<g id="a_edge40_Node000001_Node000029"><a xlink:title=" ">
<path fill="none" stroke="#63b8ff" d="M666.85,-318.94C767.06,-312.85 989.35,-297.55 1175.19,-272 1182.67,-270.97 1190.54,-269.71 1198.25,-268.36"/>
<polygon fill="#63b8ff" stroke="#63b8ff" points="1199.03,-271.78 1208.25,-266.56 1197.79,-264.89 1199.03,-271.78"/>
</a>
</g>
</g>
<!-- Node6&#45;&gt;Node2 -->
<g id="edge6_Node000006_Node000002" class="edge">
<title>Node6&#45;&gt;Node2</title>
<g id="a_edge6_Node000006_Node000002"><a xlink:title=" ">
<path fill="none" stroke="#63b8ff" d="M524.84,-241.91C516.79,-232.51 507.16,-219.44 502.19,-206 486.86,-164.62 487.17,-111.86 488.69,-84.26"/>
<polygon fill="#63b8ff" stroke="#63b8ff" points="492.2,-84.29 489.38,-74.07 485.21,-83.82 492.2,-84.29"/>
</a>
</g>
</g>
<!-- Node6&#45;&gt;Node4 -->
<g id="edge9_Node000006_Node000004" class="edge">
<title>Node6&#45;&gt;Node4</title>
<g id="a_edge9_Node000006_Node000004"><a xlink:title=" ">
<path fill="none" stroke="#63b8ff" d="M594.01,-243.65C596.77,-243.08 599.51,-242.53 602.19,-242 799.11,-203.02 879.04,-256.96 1042.19,-140 1079.39,-113.33 1095.12,-58.29 1101.04,-29.3"/>
<polygon fill="#63b8ff" stroke="#63b8ff" points="1104.52,-29.74 1102.91,-19.26 1097.64,-28.46 1104.52,-29.74"/>
</a>
</g>
</g>
<!-- Node7 -->
<g id="Node000007" class="node">
<title>Node7</title>
<g id="a_Node000007"><a xlink:title=" ">
<polygon fill="#e0e0e0" stroke="#999999" points="455.19,-200.5 405.19,-200.5 405.19,-181.5 455.19,-181.5 455.19,-200.5"/>
<text text-anchor="middle" x="430.19" y="-188.5" font-family="Helvetica,sans-Serif" font-size="10.00">format</text>
</a>
</g>
</g>
<!-- Node6&#45;&gt;Node7 -->
<g id="edge7_Node000006_Node000007" class="edge">
<title>Node6&#45;&gt;Node7</title>
<g id="a_edge7_Node000006_Node000007"><a xlink:title=" ">
<path fill="none" stroke="#63b8ff" d="M514.49,-241.95C496.3,-231.18 471.33,-216.38 453.29,-205.69"/>
<polygon fill="#63b8ff" stroke="#63b8ff" points="454.95,-202.6 444.56,-200.52 451.38,-208.63 454.95,-202.6"/>
</a>
</g>
</g>
<!-- Node8 -->
<g id="Node000008" class="node">
<title>Node8</title>
<g id="a_Node000008"><a xlink:title=" ">
<polygon fill="#e0e0e0" stroke="#999999" points="440.69,-74 393.69,-74 393.69,-55 440.69,-55 440.69,-74"/>
<text text-anchor="middle" x="417.19" y="-62" font-family="Helvetica,sans-Serif" font-size="10.00">vector</text>
</a>
</g>
</g>
<!-- Node6&#45;&gt;Node8 -->
<g id="edge8_Node000006_Node000008" class="edge">
<title>Node6&#45;&gt;Node8</title>
<g id="a_edge8_Node000006_Node000008"><a xlink:title=" ">
<path fill="none" stroke="#63b8ff" d="M482.51,-243.4C447.35,-234.19 406.65,-220.77 396.19,-206 369.78,-168.71 392.59,-111.82 407.21,-83.22"/>
<polygon fill="#63b8ff" stroke="#63b8ff" points="410.49,-84.52 412.12,-74.05 404.31,-81.21 410.49,-84.52"/>
</a>
</g>
</g>
<!-- Node9 -->
<g id="Node000009" class="node">
<title>Node9</title>
<g id="a_Node000009"><a xlink:href="_linear_map_8hpp.html" target="_top" xlink:title=" ">
<polygon fill="white" stroke="#666666" points="336.69,-134.5 195.69,-134.5 195.69,-115.5 336.69,-115.5 336.69,-134.5"/>
<text text-anchor="middle" x="266.19" y="-122.5" font-family="Helvetica,sans-Serif" font-size="10.00">Thoth/Dsa/LinearMap.hpp</text>
</a>
</g>
</g>
<!-- Node6&#45;&gt;Node9 -->
<g id="edge10_Node000006_Node000009" class="edge">
<title>Node6&#45;&gt;Node9</title>
<g id="a_edge10_Node000006_Node000009"><a xlink:title=" ">
<path fill="none" stroke="#63b8ff" d="M482.51,-242.73C439.51,-231.99 383.95,-216.92 363.19,-206 331.02,-189.09 299.66,-160.33 281.67,-142.3"/>
<polygon fill="#63b8ff" stroke="#63b8ff" points="283.88,-139.55 274.39,-134.84 278.87,-144.44 283.88,-139.55"/>
</a>
</g>
</g>
<!-- Node15 -->
<g id="Node000015" class="node">
<title>Node15</title>
<g id="a_Node000015"><a xlink:href="_request_error_8hpp.html" target="_top" xlink:title=" ">
<polygon fill="white" stroke="#666666" points="795.69,-200.5 640.69,-200.5 640.69,-181.5 795.69,-181.5 795.69,-200.5"/>
<text text-anchor="middle" x="718.19" y="-188.5" font-family="Helvetica,sans-Serif" font-size="10.00">Thoth/Http/RequestError.hpp</text>
</a>
</g>
</g>
<!-- Node6&#45;&gt;Node15 -->
<g id="edge17_Node000006_Node000015" class="edge">
<title>Node6&#45;&gt;Node15</title>
<g id="a_edge17_Node000006_Node000015"><a xlink:title=" ">
<path fill="none" stroke="#63b8ff" d="M577.69,-241.95C609.67,-230.58 654.24,-214.74 684.54,-203.96"/>
<polygon fill="#63b8ff" stroke="#63b8ff" points="685.98,-207.17 694.23,-200.52 683.64,-200.57 685.98,-207.17"/>
</a>
</g>
</g>
<!-- Node28 -->
<g id="Node000028" class="node">
<title>Node28</title>
<g id="a_Node000028"><a xlink:title=" ">
<polygon fill="#e0e0e0" stroke="#999999" points="622.69,-206 511.69,-206 511.69,-176 622.69,-176 622.69,-206"/>
<text text-anchor="start" x="519.69" y="-194" font-family="Helvetica,sans-Serif" font-size="10.00">Thoth/Http/Request</text>
<text text-anchor="middle" x="567.19" y="-183" font-family="Helvetica,sans-Serif" font-size="10.00">/QueryParams.tpp</text>
</a>
</g>
</g>
<!-- Node6&#45;&gt;Node28 -->
<g id="edge39_Node000006_Node000028" class="edge">
<title>Node6&#45;&gt;Node28</title>
<g id="a_edge39_Node000006_Node000028"><a xlink:title=" ">
<path fill="none" stroke="#63b8ff" d="M544.62,-241.8C548.15,-234.01 552.62,-224.16 556.64,-215.28"/>
<polygon fill="#63b8ff" stroke="#63b8ff" points="559.83,-216.72 560.77,-206.16 553.45,-213.83 559.83,-216.72"/>
</a>
</g>
</g>
<!-- Node9&#45;&gt;Node8 -->
<g id="edge11_Node000009_Node000008" class="edge">
<title>Node9&#45;&gt;Node8</title>
<g id="a_edge11_Node000009_Node000008"><a xlink:title=" ">
<path fill="none" stroke="#63b8ff" d="M288.14,-115.49C313.86,-105.53 356.67,-88.95 385.87,-77.63"/>
<polygon fill="#63b8ff" stroke="#63b8ff" points="387.14,-80.89 395.2,-74.02 384.61,-74.37 387.14,-80.89"/>
</a>
</g>
</g>
<!-- Node10 -->
<g id="Node000010" class="node">
<title>Node10</title>
<g id="a_Node000010"><a xlink:title=" ">
<polygon fill="#e0e0e0" stroke="#999999" points="215.69,-74 170.69,-74 170.69,-55 215.69,-55 215.69,-74"/>
<text text-anchor="middle" x="193.19" y="-62" font-family="Helvetica,sans-Serif" font-size="10.00">utility</text>
</a>
</g>
</g>
<!-- Node9&#45;&gt;Node10 -->
<g id="edge12_Node000009_Node000010" class="edge">
<title>Node9&#45;&gt;Node10</title>
<g id="a_edge12_Node000009_Node000010"><a xlink:title=" ">
<path fill="none" stroke="#63b8ff" d="M255.41,-115.37C243.99,-106.21 225.71,-91.56 211.91,-80.51"/>
<polygon fill="#63b8ff" stroke="#63b8ff" points="213.99,-77.69 204,-74.17 209.62,-83.15 213.99,-77.69"/>
</a>
</g>
</g>
<!-- Node11 -->
<g id="Node000011" class="node">
<title>Node11</title>
<g id="a_Node000011"><a xlink:title=" ">
<polygon fill="#e0e0e0" stroke="#999999" points="502.19,-19 442.19,-19 442.19,0 502.19,0 502.19,-19"/>
<text text-anchor="middle" x="472.19" y="-7" font-family="Helvetica,sans-Serif" font-size="10.00">concepts</text>
</a>
</g>
</g>
<!-- Node9&#45;&gt;Node11 -->
<g id="edge13_Node000009_Node000011" class="edge">
<title>Node9&#45;&gt;Node11</title>
<g id="a_edge13_Node000009_Node000011"><a xlink:title=" ">
<path fill="none" stroke="#63b8ff" d="M195.5,-120.39C126.36,-115.21 28.06,-102.86 4.19,-74 -1.2,-67.49 -1.5,-61.25 4.19,-55 32.72,-23.63 323.37,-13.86 431.74,-11.3"/>
<polygon fill="#63b8ff" stroke="#63b8ff" points="432.03,-14.8 441.95,-11.07 431.87,-7.8 432.03,-14.8"/>
</a>
</g>
</g>
<!-- Node12 -->
<g id="Node000012" class="node">
<title>Node12</title>
<g id="a_Node000012"><a xlink:title=" ">
<polygon fill="#e0e0e0" stroke="#999999" points="298.69,-74 233.69,-74 233.69,-55 298.69,-55 298.69,-74"/>
<text text-anchor="middle" x="266.19" y="-62" font-family="Helvetica,sans-Serif" font-size="10.00">functional</text>
</a>
</g>
</g>
<!-- Node9&#45;&gt;Node12 -->
<g id="edge14_Node000009_Node000012" class="edge">
<title>Node9&#45;&gt;Node12</title>
<g id="a_edge14_Node000009_Node000012"><a xlink:title=" ">
<path fill="none" stroke="#63b8ff" d="M266.19,-115.37C266.19,-107.25 266.19,-94.81 266.19,-84.39"/>
<polygon fill="#63b8ff" stroke="#63b8ff" points="269.69,-84.17 266.19,-74.17 262.69,-84.17 269.69,-84.17"/>
</a>
</g>
</g>
<!-- Node13 -->
<g id="Node000013" class="node">
<title>Node13</title>
<g id="a_Node000013"><a xlink:title=" ">
<polygon fill="#e0e0e0" stroke="#999999" points="375.69,-74 316.69,-74 316.69,-55 375.69,-55 375.69,-74"/>
<text text-anchor="middle" x="346.19" y="-62" font-family="Helvetica,sans-Serif" font-size="10.00">compare</text>
</a>
</g>
</g>
<!-- Node9&#45;&gt;Node13 -->
<g id="edge15_Node000009_Node000013" class="edge">
<title>Node9&#45;&gt;Node13</title>
<g id="a_edge15_Node000009_Node000013"><a xlink:title=" ">
<path fill="none" stroke="#63b8ff" d="M277.99,-115.37C290.63,-106.12 310.93,-91.28 326.09,-80.19"/>
<polygon fill="#63b8ff" stroke="#63b8ff" points="328.33,-82.9 334.33,-74.17 324.2,-77.24 328.33,-82.9"/>
</a>
</g>
</g>
<!-- Node14 -->
<g id="Node000014" class="node">
<title>Node14</title>
<g id="a_Node000014"><a xlink:title=" ">
<polygon fill="#e0e0e0" stroke="#999999" points="152.69,-74 13.69,-74 13.69,-55 152.69,-55 152.69,-74"/>
<text text-anchor="middle" x="83.19" y="-62" font-family="Helvetica,sans-Serif" font-size="10.00">Thoth/Dsa/LinearMap.tpp</text>
</a>
</g>
</g>
<!-- Node9&#45;&gt;Node14 -->
<g id="edge16_Node000009_Node000014" class="edge">
<title>Node9&#45;&gt;Node14</title>
<g id="a_edge16_Node000009_Node000014"><a xlink:title=" ">
<path fill="none" stroke="#63b8ff" d="M239.58,-115.49C208,-105.4 155.18,-88.51 119.77,-77.19"/>
<polygon fill="#63b8ff" stroke="#63b8ff" points="120.42,-73.73 109.83,-74.02 118.29,-80.4 120.42,-73.73"/>
</a>
</g>
</g>
<!-- Node15&#45;&gt;Node8 -->
<g id="edge37_Node000015_Node000008" class="edge">
<title>Node15&#45;&gt;Node8</title>
<g id="a_edge37_Node000015_Node000008"><a xlink:title=" ">
<path fill="none" stroke="#63b8ff" d="M674.95,-181.42C624.37,-171.01 544,-153.23 516.19,-140 484.01,-124.7 452.03,-98.01 433.46,-81.08"/>
<polygon fill="#63b8ff" stroke="#63b8ff" points="435.62,-78.31 425.92,-74.06 430.85,-83.43 435.62,-78.31"/>
</a>
</g>
</g>
<!-- Node16 -->
<g id="Node000016" class="node">
<title>Node16</title>
<g id="a_Node000016"><a xlink:title=" ">
<polygon fill="#e0e0e0" stroke="#999999" points="692.69,-140 525.69,-140 525.69,-110 692.69,-110 692.69,-140"/>
<text text-anchor="start" x="533.69" y="-128" font-family="Helvetica,sans-Serif" font-size="10.00">Hermes/_base/ConnectionError</text>
<text text-anchor="middle" x="609.19" y="-117" font-family="Helvetica,sans-Serif" font-size="10.00">Enum.hpp</text>
</a>
</g>
</g>
<!-- Node15&#45;&gt;Node16 -->
<g id="edge18_Node000015_Node000016" class="edge">
<title>Node15&#45;&gt;Node16</title>
<g id="a_edge18_Node000015_Node000016"><a xlink:title=" ">
<path fill="none" stroke="#63b8ff" d="M703.49,-181.37C687.79,-172.16 662.42,-157.26 641.95,-145.24"/>
<polygon fill="#63b8ff" stroke="#63b8ff" points="643.62,-142.16 633.23,-140.12 640.08,-148.2 643.62,-142.16"/>
</a>
</g>
</g>
<!-- Node17 -->
<g id="Node000017" class="node">
<title>Node17</title>
<g id="a_Node000017"><a xlink:href="_definitions_8hpp.html" target="_top" xlink:title=" ">
<polygon fill="white" stroke="#666666" points="1033.19,-134.5 881.19,-134.5 881.19,-115.5 1033.19,-115.5 1033.19,-134.5"/>
<text text-anchor="middle" x="957.19" y="-122.5" font-family="Helvetica,sans-Serif" font-size="10.00">Thoth/NJson/Definitions.hpp</text>
</a>
</g>
</g>
<!-- Node15&#45;&gt;Node17 -->
<g id="edge19_Node000015_Node000017" class="edge">
<title>Node15&#45;&gt;Node17</title>
<g id="a_edge19_Node000015_Node000017"><a xlink:title=" ">
<path fill="none" stroke="#63b8ff" d="M750.42,-181.37C793.03,-169.96 868.21,-149.83 915.21,-137.24"/>
<polygon fill="#63b8ff" stroke="#63b8ff" points="916.33,-140.56 925.08,-134.6 914.52,-133.8 916.33,-140.56"/>
</a>
</g>
</g>
<!-- Node27 -->
<g id="Node000027" class="node">
<title>Node27</title>
<g id="a_Node000027"><a xlink:title=" ">
<polygon fill="#e0e0e0" stroke="#999999" points="863.19,-134.5 711.19,-134.5 711.19,-115.5 863.19,-115.5 863.19,-134.5"/>
<text text-anchor="middle" x="787.19" y="-122.5" font-family="Helvetica,sans-Serif" font-size="10.00">Thoth/Http/RequestError.tpp</text>
</a>
</g>
</g>
<!-- Node15&#45;&gt;Node27 -->
<g id="edge38_Node000015_Node000027" class="edge">
<title>Node15&#45;&gt;Node27</title>
<g id="a_edge38_Node000015_Node000027"><a xlink:title=" ">
<path fill="none" stroke="#63b8ff" d="M727.49,-181.37C738.34,-171.31 756.48,-154.48 769.93,-142.01"/>
<polygon fill="#63b8ff" stroke="#63b8ff" points="772.63,-144.27 777.59,-134.91 767.87,-139.14 772.63,-144.27"/>
</a>
</g>
</g>
<!-- Node17&#45;&gt;Node2 -->
<g id="edge25_Node000017_Node000002" class="edge">
<title>Node17&#45;&gt;Node2</title>
<g id="a_edge25_Node000017_Node000002"><a xlink:title=" ">
<path fill="none" stroke="#63b8ff" d="M908.26,-115.45C896.47,-113.53 883.89,-111.59 872.19,-110 722.92,-89.75 684.2,-96 535.19,-74 534.09,-73.84 532.97,-73.67 531.85,-73.49"/>
<polygon fill="#63b8ff" stroke="#63b8ff" points="532.05,-69.98 521.6,-71.77 530.88,-76.88 532.05,-69.98"/>
</a>
</g>
</g>
<!-- Node17&#45;&gt;Node4 -->
<g id="edge23_Node000017_Node000004" class="edge">
<title>Node17&#45;&gt;Node4</title>
<g id="a_edge23_Node000017_Node000004"><a xlink:title=" ">
<path fill="none" stroke="#63b8ff" d="M987.73,-115.48C1011.28,-107.7 1043.55,-94.29 1066.19,-74 1080.06,-61.56 1090.41,-42.84 1096.78,-28.94"/>
<polygon fill="#63b8ff" stroke="#63b8ff" points="1100.13,-30.01 1100.86,-19.44 1093.7,-27.24 1100.13,-30.01"/>
</a>
</g>
</g>
<!-- Node17&#45;&gt;Node8 -->
<g id="edge22_Node000017_Node000008" class="edge">
<title>Node17&#45;&gt;Node8</title>
<g id="a_edge22_Node000017_Node000008"><a xlink:title=" ">
<path fill="none" stroke="#63b8ff" d="M909.63,-115.49C897.45,-113.5 884.36,-111.52 872.19,-110 688.59,-87.08 637.49,-104.95 450.74,-73.78"/>
<polygon fill="#63b8ff" stroke="#63b8ff" points="451.32,-70.33 440.88,-72.11 450.15,-77.23 451.32,-70.33"/>
</a>
</g>
</g>
<!-- Node17&#45;&gt;Node11 -->
<g id="edge26_Node000017_Node000011" class="edge">
<title>Node17&#45;&gt;Node11</title>
<g id="a_edge26_Node000017_Node000011"><a xlink:title=" ">
<path fill="none" stroke="#63b8ff" d="M907.8,-115.48C896.14,-113.57 883.74,-111.63 872.19,-110 737.47,-90.94 695.94,-120.8 568.19,-74 538.03,-62.95 507.91,-40.75 489.66,-25.76"/>
<polygon fill="#63b8ff" stroke="#63b8ff" points="491.6,-22.82 481.7,-19.05 487.09,-28.17 491.6,-22.82"/>
</a>
</g>
</g>
<!-- Node18 -->
<g id="Node000018" class="node">
<title>Node18</title>
<g id="a_Node000018"><a xlink:title=" ">
<polygon fill="#e0e0e0" stroke="#999999" points="697.69,-19 646.69,-19 646.69,0 697.69,0 697.69,-19"/>
<text text-anchor="middle" x="672.19" y="-7" font-family="Helvetica,sans-Serif" font-size="10.00">variant</text>
</a>
</g>
</g>
<!-- Node17&#45;&gt;Node18 -->
<g id="edge20_Node000017_Node000018" class="edge">
<title>Node17&#45;&gt;Node18</title>
<g id="a_edge20_Node000017_Node000018"><a xlink:title=" ">
<path fill="none" stroke="#63b8ff" d="M903.53,-115.48C847.43,-105.94 763.66,-89.76 735.19,-74 714.26,-62.42 695.71,-41.78 684.25,-27.19"/>
<polygon fill="#63b8ff" stroke="#63b8ff" points="686.89,-24.88 678.07,-19.01 681.31,-29.1 686.89,-24.88"/>
</a>
</g>
</g>
<!-- Node19 -->
<g id="Node000019" class="node">
<title>Node19</title>
<g id="a_Node000019"><a xlink:title=" ">
<polygon fill="#e0e0e0" stroke="#999999" points="1024.19,-19 966.19,-19 966.19,0 1024.19,0 1024.19,-19"/>
<text text-anchor="middle" x="995.19" y="-7" font-family="Helvetica,sans-Serif" font-size="10.00">memory</text>
</a>
</g>
</g>
<!-- Node17&#45;&gt;Node19 -->
<g id="edge21_Node000017_Node000019" class="edge">
<title>Node17&#45;&gt;Node19</title>
<g id="a_edge21_Node000017_Node000019"><a xlink:title=" ">
<path fill="none" stroke="#63b8ff" d="M949.92,-115.17C939.79,-101.72 923.77,-75.49 934.19,-55 940.96,-41.68 953.78,-31.41 965.94,-24.1"/>
<polygon fill="#63b8ff" stroke="#63b8ff" points="967.93,-26.99 974.99,-19.09 964.54,-20.87 967.93,-26.99"/>
</a>
</g>
</g>
<!-- Node20 -->
<g id="Node000020" class="node">
<title>Node20</title>
<g id="a_Node000020"><a xlink:title=" ">
<polygon fill="#e0e0e0" stroke="#999999" points="999.19,-74 943.19,-74 943.19,-55 999.19,-55 999.19,-74"/>
<text text-anchor="middle" x="971.19" y="-62" font-family="Helvetica,sans-Serif" font-size="10.00">optional</text>
</a>
</g>
</g>
<!-- Node17&#45;&gt;Node20 -->
<g id="edge24_Node000017_Node000020" class="edge">
<title>Node17&#45;&gt;Node20</title>
<g id="a_edge24_Node000017_Node000020"><a xlink:title=" ">
<path fill="none" stroke="#63b8ff" d="M959.25,-115.37C961.22,-107.16 964.24,-94.54 966.75,-84.05"/>
<polygon fill="#63b8ff" stroke="#63b8ff" points="970.19,-84.71 969.11,-74.17 963.38,-83.08 970.19,-84.71"/>
</a>
</g>
</g>
<!-- Node21 -->
<g id="Node000021" class="node">
<title>Node21</title>
<g id="a_Node000021"><a xlink:title=" ">
<polygon fill="#e0e0e0" stroke="#999999" points="1057.19,-74 1017.19,-74 1017.19,-55 1057.19,-55 1057.19,-74"/>
<text text-anchor="middle" x="1037.19" y="-62" font-family="Helvetica,sans-Serif" font-size="10.00">span</text>
</a>
</g>
</g>
<!-- Node17&#45;&gt;Node21 -->
<g id="edge27_Node000017_Node000021" class="edge">
<title>Node17&#45;&gt;Node21</title>
<g id="a_edge27_Node000017_Node000021"><a xlink:title=" ">
<path fill="none" stroke="#63b8ff" d="M968.99,-115.37C981.63,-106.12 1001.93,-91.28 1017.09,-80.19"/>
<polygon fill="#63b8ff" stroke="#63b8ff" points="1019.33,-82.9 1025.33,-74.17 1015.2,-77.24 1019.33,-82.9"/>
</a>
</g>
</g>
<!-- Node22 -->
<g id="Node000022" class="node">
<title>Node22</title>
<g id="a_Node000022"><a xlink:href="_cow_8hpp.html" target="_top" xlink:title=" ">
<polygon fill="white" stroke="#666666" points="687.19,-74 577.19,-74 577.19,-55 687.19,-55 687.19,-74"/>
<text text-anchor="middle" x="632.19" y="-62" font-family="Helvetica,sans-Serif" font-size="10.00">Thoth/Dsa/Cow.hpp</text>
</a>
</g>
</g>
<!-- Node17&#45;&gt;Node22 -->
<g id="edge28_Node000017_Node000022" class="edge">
<title>Node17&#45;&gt;Node22</title>
<g id="a_edge28_Node000017_Node000022"><a xlink:title=" ">
<path fill="none" stroke="#63b8ff" d="M909.93,-115.49C851.56,-104.99 752.32,-87.12 689.62,-75.84"/>
<polygon fill="#63b8ff" stroke="#63b8ff" points="689.96,-72.34 679.5,-74.02 688.72,-79.23 689.96,-72.34"/>
</a>
</g>
</g>
<!-- Node24 -->
<g id="Node000024" class="node">
<title>Node24</title>
<g id="a_Node000024"><a xlink:href="_string_ref_8hpp.html" target="_top" xlink:title=" ">
<polygon fill="white" stroke="#666666" points="886.69,-74 743.69,-74 743.69,-55 886.69,-55 886.69,-74"/>
<text text-anchor="middle" x="815.19" y="-62" font-family="Helvetica,sans-Serif" font-size="10.00">Thoth/NJson/StringRef.hpp</text>
</a>
</g>
</g>
<!-- Node17&#45;&gt;Node24 -->
<g id="edge32_Node000017_Node000024" class="edge">
<title>Node17&#45;&gt;Node24</title>
<g id="a_edge32_Node000017_Node000024"><a xlink:title=" ">
<path fill="none" stroke="#63b8ff" d="M936.54,-115.49C912.56,-105.62 872.8,-89.23 845.36,-77.93"/>
<polygon fill="#63b8ff" stroke="#63b8ff" points="846.44,-74.59 835.86,-74.02 843.77,-81.06 846.44,-74.59"/>
</a>
</g>
</g>
<!-- Node22&#45;&gt;Node11 -->
<g id="edge29_Node000022_Node000011" class="edge">
<title>Node22&#45;&gt;Node11</title>
<g id="a_edge29_Node000022_Node000011"><a xlink:title=" ">
<path fill="none" stroke="#63b8ff" d="M606.48,-54.98C579.73,-46.13 537.66,-32.19 507.74,-22.28"/>
<polygon fill="#63b8ff" stroke="#63b8ff" points="508.69,-18.9 498.09,-19.08 506.49,-25.55 508.69,-18.9"/>
</a>
</g>
</g>
<!-- Node22&#45;&gt;Node18 -->
<g id="edge30_Node000022_Node000018" class="edge">
<title>Node22&#45;&gt;Node18</title>
<g id="a_edge30_Node000022_Node000018"><a xlink:title=" ">
<path fill="none" stroke="#63b8ff" d="M638.79,-54.75C644.44,-47.26 652.73,-36.28 659.64,-27.13"/>
<polygon fill="#63b8ff" stroke="#63b8ff" points="662.47,-29.18 665.7,-19.09 656.89,-24.96 662.47,-29.18"/>
</a>
</g>
</g>
<!-- Node23 -->
<g id="Node000023" class="node">
<title>Node23</title>
<g id="a_Node000023"><a xlink:title=" ">
<polygon fill="#e0e0e0" stroke="#999999" points="628.19,-19 520.19,-19 520.19,0 628.19,0 628.19,-19"/>
<text text-anchor="middle" x="574.19" y="-7" font-family="Helvetica,sans-Serif" font-size="10.00">Thoth/Dsa/Cow.tpp</text>
</a>
</g>
</g>
<!-- Node22&#45;&gt;Node23 -->
<g id="edge31_Node000022_Node000023" class="edge">
<title>Node22&#45;&gt;Node23</title>
<g id="a_edge31_Node000022_Node000023"><a xlink:title=" ">
<path fill="none" stroke="#63b8ff" d="M622.87,-54.98C614.38,-47.23 601.63,-35.58 591.3,-26.14"/>
<polygon fill="#63b8ff" stroke="#63b8ff" points="593.42,-23.33 583.67,-19.17 588.7,-28.5 593.42,-23.33"/>
</a>
</g>
</g>
<!-- Node24&#45;&gt;Node4 -->
<g id="edge35_Node000024_Node000004" class="edge">
<title>Node24&#45;&gt;Node4</title>
<g id="a_edge35_Node000024_Node000004"><a xlink:title=" ">
<path fill="none" stroke="#63b8ff" d="M861.62,-54.98C920.58,-44.17 1020.79,-25.79 1071.99,-16.4"/>
<polygon fill="#63b8ff" stroke="#63b8ff" points="1072.64,-19.84 1081.85,-14.6 1071.38,-12.96 1072.64,-19.84"/>
</a>
</g>
</g>
<!-- Node24&#45;&gt;Node19 -->
<g id="edge33_Node000024_Node000019" class="edge">
<title>Node24&#45;&gt;Node19</title>
<g id="a_edge33_Node000024_Node000019"><a xlink:title=" ">
<path fill="none" stroke="#63b8ff" d="M844.11,-54.98C874.46,-46.05 922.36,-31.94 956.07,-22.02"/>
<polygon fill="#63b8ff" stroke="#63b8ff" points="957.44,-25.26 966.04,-19.08 955.46,-18.55 957.44,-25.26"/>
</a>
</g>
</g>
<!-- Node25 -->
<g id="Node000025" class="node">
<title>Node25</title>
<g id="a_Node000025"><a xlink:title=" ">
<polygon fill="#e0e0e0" stroke="#999999" points="788.69,-19 715.69,-19 715.69,0 788.69,0 788.69,-19"/>
<text text-anchor="middle" x="752.19" y="-7" font-family="Helvetica,sans-Serif" font-size="10.00">string_view</text>
</a>
</g>
</g>
<!-- Node24&#45;&gt;Node25 -->
<g id="edge34_Node000024_Node000025" class="edge">
<title>Node24&#45;&gt;Node25</title>
<g id="a_edge34_Node000024_Node000025"><a xlink:title=" ">
<path fill="none" stroke="#63b8ff" d="M805.06,-54.98C795.75,-47.15 781.72,-35.34 770.45,-25.86"/>
<polygon fill="#63b8ff" stroke="#63b8ff" points="772.4,-22.93 762.49,-19.17 767.89,-28.29 772.4,-22.93"/>
</a>
</g>
</g>
<!-- Node26 -->
<g id="Node000026" class="node">
<title>Node26</title>
<g id="a_Node000026"><a xlink:title=" ">
<polygon fill="#e0e0e0" stroke="#999999" points="947.69,-19 806.69,-19 806.69,0 947.69,0 947.69,-19"/>
<text text-anchor="middle" x="877.19" y="-7" font-family="Helvetica,sans-Serif" font-size="10.00">Thoth/NJson/StringRef.tpp</text>
</a>
</g>
</g>
<!-- Node24&#45;&gt;Node26 -->
<g id="edge36_Node000024_Node000026" class="edge">
<title>Node24&#45;&gt;Node26</title>
<g id="a_edge36_Node000024_Node000026"><a xlink:title=" ">
<path fill="none" stroke="#63b8ff" d="M825.15,-54.98C834.31,-47.15 848.12,-35.34 859.21,-25.86"/>
<polygon fill="#63b8ff" stroke="#63b8ff" points="861.72,-28.33 867.04,-19.17 857.17,-23.01 861.72,-28.33"/>
</a>
</g>
</g>
</g>
</svg>
