<?xml version="1.0" encoding="UTF-8" standalone="no"?>
<!DOCTYPE svg PUBLIC "-//W3C//DTD SVG 1.1//EN"
 "http://www.w3.org/Graphics/SVG/1.1/DTD/svg11.dtd">
<!-- Generated by graphviz version 2.43.0 (0)
 -->
<!-- Title: include/Thoth/Http Pages: 1 -->
<svg width="324pt" height="361pt"
 viewBox="0.00 0.00 324.00 361.00" xmlns="http://www.w3.org/2000/svg" xmlns:xlink="http://www.w3.org/1999/xlink">
<g id="graph0" class="graph" transform="scale(1 1) rotate(0) translate(4 357)">
<title>include/Thoth/Http</title>
<g id="clust1" class="cluster">
<title>clusterdir_c6a74f695d865e6872ff805f8280c9af</title>
<g id="a_clust1"><a xlink:href="dir_c6a74f695d865e6872ff805f8280c9af.html" target="_top" xlink:title="Thoth">
<polygon fill="#daedff" stroke="#7f7f7f" stroke-dasharray="5,2" points="8,-8 8,-345 308,-345 308,-8 8,-8"/>
<text text-anchor="middle" x="158" y="-333" font-family="Helvetica,sans-Serif" font-size="10.00">Thoth</text>
</a>
</g>
</g>
<g id="clust2" class="cluster">
<title>clusterdir_41cc9e0bb4f1115e1fe2e2758d2bc168</title>
<g id="a_clust2"><a xlink:href="dir_41cc9e0bb4f1115e1fe2e2758d2bc168.html" target="_top">
<polygon fill="#daedff" stroke="#404040" stroke-width="2" points="84,-63 84,-318 226,-318 226,-63 84,-63"/>
</a>
</g>
</g>
<!-- dir_0548d2bb7dd208758f91f985569944be -->
<g id="node1" class="node">
<title>dir_0548d2bb7dd208758f91f985569944be</title>
<g id="a_node1"><a xlink:href="dir_0548d2bb7dd208758f91f985569944be.html" target="_top" xlink:title="NJson">
<polygon fill="#4ea9ff" stroke="#404040" points="204,-35 160,-35 160,-16 204,-16 204,-35"/>
<text text-anchor="middle" x="182" y="-23" font-family="Helvetica,sans-Serif" font-size="10.00">NJson</text>
</a>
</g>
</g>
<!-- dir_430990ec024f593b7bce39ce7b4461bb -->
<g id="node2" class="node">
<title>dir_430990ec024f593b7bce39ce7b4461bb</title>
<g id="a_node2"><a xlink:href="dir_430990ec024f593b7bce39ce7b4461bb.html" target="_top" xlink:title="String">
<polygon fill="#4ea9ff" stroke="#404040" points="279.5,-90 234.5,-90 234.5,-71 279.5,-71 279.5,-90"/>
<text text-anchor="middle" x="257" y="-78" font-family="Helvetica,sans-Serif" font-size="10.00">String</text>
</a>
</g>
</g>
<!-- dir_2d830115d85308f46eeefe3ce749e641 -->
<g id="node3" class="node">
<title>dir_2d830115d85308f46eeefe3ce749e641</title>
<g id="a_node3"><a xlink:href="dir_2d830115d85308f46eeefe3ce749e641.html" target="_top" xlink:title="Utils">
<polygon fill="#4ea9ff" stroke="red" points="75.5,-90 36.5,-90 36.5,-71 75.5,-71 75.5,-90"/>
<text text-anchor="middle" x="56" y="-78" font-family="Helvetica,sans-Serif" font-size="10.00">Utils</text>
</a>
</g>
</g>
<!-- dir_3c6a022a7e9432f24aa2201eb84947de -->
<g id="node4" class="node">
<title>dir_3c6a022a7e9432f24aa2201eb84947de</title>
<g id="a_node4"><a xlink:href="dir_3c6a022a7e9432f24aa2201eb84947de.html" target="_top" xlink:title="Dsa">
<polygon fill="#4ea9ff" stroke="#404040" points="124.5,-35 89.5,-35 89.5,-16 124.5,-16 124.5,-35"/>
<text text-anchor="middle" x="107" y="-23" font-family="Helvetica,sans-Serif" font-size="10.00">Dsa</text>
</a>
</g>
</g>
<!-- dir_41cc9e0bb4f1115e1fe2e2758d2bc168 -->
<g id="node5" class="node">
<title>dir_41cc9e0bb4f1115e1fe2e2758d2bc168</title>
<text text-anchor="middle" x="199" y="-298" font-family="Helvetica,sans-Serif" font-size="10.00">Http</text>
</g>
<!-- dir_41cc9e0bb4f1115e1fe2e2758d2bc168&#45;&gt;dir_0548d2bb7dd208758f91f985569944be -->
<g id="edge1" class="edge">
<title>dir_41cc9e0bb4f1115e1fe2e2758d2bc168&#45;&gt;dir_0548d2bb7dd208758f91f985569944be</title>
<g id="a_edge1"><a xlink:href="dir_000006_000010.html" target="_top">
<path fill="none" stroke="#63b8ff" d="M216.42,-290.86C245.07,-275.27 299,-239.54 299,-191.5 299,-191.5 299,-191.5 299,-134.5 299,-102.41 309.44,-87.74 289,-63 270.81,-40.99 238.75,-32.21 214.44,-28.73"/>
<polygon fill="#63b8ff" stroke="#63b8ff" points="214.58,-25.22 204.24,-27.5 213.75,-32.17 214.58,-25.22"/>
</a>
</g>
<g id="a_edge1&#45;headlabel"><a xlink:href="dir_000006_000010.html" target="_top" xlink:title="2">
<text text-anchor="middle" x="218.49" y="-20.33" font-family="Helvetica,sans-Serif" font-size="10.00" fill="#63b8ff">2</text>
</a>
</g>
</g>
<!-- dir_2e6b931faf85af8d43b2b55a026921d7 -->
<g id="node8" class="node">
<title>dir_2e6b931faf85af8d43b2b55a026921d7</title>
<g id="a_node8"><a xlink:href="dir_2e6b931faf85af8d43b2b55a026921d7.html" target="_top" xlink:title="Request">
<polygon fill="#4ea9ff" stroke="#404040" points="170,-255 114,-255 114,-236 170,-236 170,-255"/>
<text text-anchor="middle" x="142" y="-243" font-family="Helvetica,sans-Serif" font-size="10.00">Request</text>
</a>
</g>
</g>
<!-- dir_41cc9e0bb4f1115e1fe2e2758d2bc168&#45;&gt;dir_2e6b931faf85af8d43b2b55a026921d7 -->
<g id="edge3" class="edge">
<title>dir_41cc9e0bb4f1115e1fe2e2758d2bc168&#45;&gt;dir_2e6b931faf85af8d43b2b55a026921d7</title>
<g id="a_edge3"><a xlink:href="dir_000006_000014.html" target="_top">
<path fill="none" stroke="#63b8ff" d="M189.84,-290.98C181.5,-283.23 168.97,-271.58 158.82,-262.14"/>
<polygon fill="#63b8ff" stroke="#63b8ff" points="161.03,-259.42 151.32,-255.17 156.26,-264.54 161.03,-259.42"/>
</a>
</g>
<g id="a_edge3&#45;headlabel"><a xlink:href="dir_000006_000014.html" target="_top" xlink:title="4">
<text text-anchor="middle" x="165.6" y="-257.28" font-family="Helvetica,sans-Serif" font-size="10.00" fill="#63b8ff">4</text>
</a>
</g>
</g>
<!-- dir_2b930848939edf81047ea3b73a2c6d36 -->
<g id="node9" class="node">
<title>dir_2b930848939edf81047ea3b73a2c6d36</title>
<g id="a_node9"><a xlink:href="dir_2b930848939edf81047ea3b73a2c6d36.html" target="_top" xlink:title="Response">
<polygon fill="#4ea9ff" stroke="#404040" points="177,-90 113,-90 113,-71 177,-71 177,-90"/>
<text text-anchor="middle" x="145" y="-78" font-family="Helvetica,sans-Serif" font-size="10.00">Response</text>
</a>
</g>
</g>
<!-- dir_41cc9e0bb4f1115e1fe2e2758d2bc168&#45;&gt;dir_2b930848939edf81047ea3b73a2c6d36 -->
<g id="edge2" class="edge">
<title>dir_41cc9e0bb4f1115e1fe2e2758d2bc168&#45;&gt;dir_2b930848939edf81047ea3b73a2c6d36</title>
<g id="a_edge2"><a xlink:href="dir_000006_000016.html" target="_top">
<path fill="none" stroke="#63b8ff" d="M202.21,-290.93C211.55,-264.54 236.19,-182.87 207,-126 200.04,-112.44 186.81,-102.07 174.35,-94.78"/>
<polygon fill="#63b8ff" stroke="#63b8ff" points="175.98,-91.68 165.52,-90 172.65,-97.84 175.98,-91.68"/>
</a>
</g>
<g id="a_edge2&#45;headlabel"><a xlink:href="dir_000006_000016.html" target="_top" xlink:title="3">
<text text-anchor="middle" x="180.49" y="-88.39" font-family="Helvetica,sans-Serif" font-size="10.00" fill="#63b8ff">3</text>
</a>
</g>
</g>
<!-- dir_09d6a22b96cbdd451a8a41c9804b07f2 -->
<g id="node6" class="node">
<title>dir_09d6a22b96cbdd451a8a41c9804b07f2</title>
<g id="a_node6"><a xlink:href="dir_09d6a22b96cbdd451a8a41c9804b07f2.html" target="_top" xlink:title="Methods">
<polygon fill="#4ea9ff" stroke="#404040" points="171.5,-200 112.5,-200 112.5,-181 171.5,-181 171.5,-200"/>
<text text-anchor="middle" x="142" y="-188" font-family="Helvetica,sans-Serif" font-size="10.00">Methods</text>
</a>
</g>
</g>
<!-- dir_608161aafd2af5389d03134ffea49c9f -->
<g id="node7" class="node">
<title>dir_608161aafd2af5389d03134ffea49c9f</title>
<g id="a_node7"><a xlink:href="dir_608161aafd2af5389d03134ffea49c9f.html" target="_top" xlink:title="NHeaders">
<polygon fill="#4ea9ff" stroke="#404040" points="197.5,-145 132.5,-145 132.5,-126 197.5,-126 197.5,-145"/>
<text text-anchor="middle" x="165" y="-133" font-family="Helvetica,sans-Serif" font-size="10.00">NHeaders</text>
</a>
</g>
</g>
<!-- dir_09d6a22b96cbdd451a8a41c9804b07f2&#45;&gt;dir_608161aafd2af5389d03134ffea49c9f -->
<g id="edge6" class="edge">
<title>dir_09d6a22b96cbdd451a8a41c9804b07f2&#45;&gt;dir_608161aafd2af5389d03134ffea49c9f</title>
<g id="a_edge6"><a xlink:href="dir_000008_000009.html" target="_top">
<path fill="none" stroke="#63b8ff" d="M145.8,-180.75C148.91,-173.57 153.42,-163.18 157.29,-154.27"/>
<polygon fill="#63b8ff" stroke="#63b8ff" points="160.5,-155.66 161.27,-145.09 154.08,-152.87 160.5,-155.66"/>
</a>
</g>
<g id="a_edge6&#45;headlabel"><a xlink:href="dir_000008_000009.html" target="_top" xlink:title="1">
<text text-anchor="middle" x="161.68" y="-157.58" font-family="Helvetica,sans-Serif" font-size="10.00" fill="#63b8ff">1</text>
</a>
</g>
</g>
<!-- dir_09d6a22b96cbdd451a8a41c9804b07f2&#45;&gt;dir_2e6b931faf85af8d43b2b55a026921d7 -->
<g id="edge5" class="edge">
<title>dir_09d6a22b96cbdd451a8a41c9804b07f2&#45;&gt;dir_2e6b931faf85af8d43b2b55a026921d7</title>
<g id="a_edge5"><a xlink:href="dir_000008_000014.html" target="_top">
<path fill="none" stroke="#63b8ff" d="M147.13,-200.09C148.64,-206.99 149.09,-216.93 148.49,-225.66"/>
<polygon fill="#63b8ff" stroke="#63b8ff" points="145,-225.38 147.17,-235.75 151.94,-226.29 145,-225.38"/>
</a>
</g>
<g id="a_edge5&#45;headlabel"><a xlink:href="dir_000008_000014.html" target="_top" xlink:title="1">
<text text-anchor="middle" x="142.65" y="-218.94" font-family="Helvetica,sans-Serif" font-size="10.00" fill="#63b8ff">1</text>
</a>
</g>
</g>
<!-- dir_09d6a22b96cbdd451a8a41c9804b07f2&#45;&gt;dir_2b930848939edf81047ea3b73a2c6d36 -->
<g id="edge4" class="edge">
<title>dir_09d6a22b96cbdd451a8a41c9804b07f2&#45;&gt;dir_2b930848939edf81047ea3b73a2c6d36</title>
<g id="a_edge4"><a xlink:href="dir_000008_000016.html" target="_top">
<path fill="none" stroke="#63b8ff" d="M130.51,-180.96C120.35,-168.85 109.34,-145.95 114,-126 116.25,-116.37 120.91,-106.42 126.17,-98.39"/>
<polygon fill="#63b8ff" stroke="#63b8ff" points="129.08,-100.34 132.27,-90.24 123.48,-96.15 129.08,-100.34"/>
</a>
</g>
<g id="a_edge4&#45;headlabel"><a xlink:href="dir_000008_000016.html" target="_top" xlink:title="1">
<text text-anchor="middle" x="129.2" y="-102.42" font-family="Helvetica,sans-Serif" font-size="10.00" fill="#63b8ff">1</text>
</a>
</g>
</g>
<!-- dir_608161aafd2af5389d03134ffea49c9f&#45;&gt;dir_430990ec024f593b7bce39ce7b4461bb -->
<g id="edge9" class="edge">
<title>dir_608161aafd2af5389d03134ffea49c9f&#45;&gt;dir_430990ec024f593b7bce39ce7b4461bb</title>
<g id="a_edge9"><a xlink:href="dir_000009_000017.html" target="_top">
<path fill="none" stroke="#63b8ff" d="M179.78,-125.98C194.18,-117.69 216.31,-104.94 233.19,-95.22"/>
<polygon fill="#63b8ff" stroke="#63b8ff" points="235.03,-98.19 241.95,-90.17 231.54,-92.13 235.03,-98.19"/>
</a>
</g>
<g id="a_edge9&#45;headlabel"><a xlink:href="dir_000009_000017.html" target="_top" xlink:title="1">
<text text-anchor="middle" x="233.33" y="-99.95" font-family="Helvetica,sans-Serif" font-size="10.00" fill="#63b8ff">1</text>
</a>
</g>
</g>
<!-- dir_608161aafd2af5389d03134ffea49c9f&#45;&gt;dir_2d830115d85308f46eeefe3ce749e641 -->
<g id="edge10" class="edge">
<title>dir_608161aafd2af5389d03134ffea49c9f&#45;&gt;dir_2d830115d85308f46eeefe3ce749e641</title>
<g id="a_edge10"><a xlink:href="dir_000009_000019.html" target="_top">
<path fill="none" stroke="#63b8ff" d="M147.49,-125.98C130.03,-117.5 102.99,-104.35 82.83,-94.54"/>
<polygon fill="#63b8ff" stroke="#63b8ff" points="84.36,-91.4 73.83,-90.17 81.29,-97.69 84.36,-91.4"/>
</a>
</g>
<g id="a_edge10&#45;headlabel"><a xlink:href="dir_000009_000019.html" target="_top" xlink:title="1">
<text text-anchor="middle" x="88.83" y="-87.91" font-family="Helvetica,sans-Serif" font-size="10.00" fill="#63b8ff">1</text>
</a>
</g>
</g>
<!-- dir_608161aafd2af5389d03134ffea49c9f&#45;&gt;dir_2e6b931faf85af8d43b2b55a026921d7 -->
<g id="edge8" class="edge">
<title>dir_608161aafd2af5389d03134ffea49c9f&#45;&gt;dir_2e6b931faf85af8d43b2b55a026921d7</title>
<g id="a_edge8"><a xlink:href="dir_000009_000014.html" target="_top">
<path fill="none" stroke="#63b8ff" d="M176.25,-145.32C186,-157.77 195.98,-181.08 189,-200 184.85,-211.24 176.47,-221.56 167.74,-229.43"/>
<polygon fill="#63b8ff" stroke="#63b8ff" points="165.31,-226.9 159.75,-235.93 169.72,-232.34 165.31,-226.9"/>
</a>
</g>
<g id="a_edge8&#45;headlabel"><a xlink:href="dir_000009_000014.html" target="_top" xlink:title="1">
<text text-anchor="middle" x="166.31" y="-219.93" font-family="Helvetica,sans-Serif" font-size="10.00" fill="#63b8ff">1</text>
</a>
</g>
</g>
<!-- dir_608161aafd2af5389d03134ffea49c9f&#45;&gt;dir_2b930848939edf81047ea3b73a2c6d36 -->
<g id="edge7" class="edge">
<title>dir_608161aafd2af5389d03134ffea49c9f&#45;&gt;dir_2b930848939edf81047ea3b73a2c6d36</title>
<g id="a_edge7"><a xlink:href="dir_000009_000016.html" target="_top">
<path fill="none" stroke="#63b8ff" d="M156.53,-125.75C152.37,-118.72 148.13,-108.62 145.47,-99.84"/>
<polygon fill="#63b8ff" stroke="#63b8ff" points="148.86,-98.99 143.11,-90.09 142.05,-100.63 148.86,-98.99"/>
</a>
</g>
<g id="a_edge7&#45;headlabel"><a xlink:href="dir_000009_000016.html" target="_top" xlink:title="1">
<text text-anchor="middle" x="152.46" y="-99.32" font-family="Helvetica,sans-Serif" font-size="10.00" fill="#63b8ff">1</text>
</a>
</g>
</g>
<!-- dir_2e6b931faf85af8d43b2b55a026921d7&#45;&gt;dir_3c6a022a7e9432f24aa2201eb84947de -->
<g id="edge12" class="edge">
<title>dir_2e6b931faf85af8d43b2b55a026921d7&#45;&gt;dir_3c6a022a7e9432f24aa2201eb84947de</title>
<g id="a_edge12"><a xlink:href="dir_000014_000002.html" target="_top">
<path fill="none" stroke="#63b8ff" d="M131.72,-235.75C107.26,-214.11 46.19,-155.11 27,-90 23.61,-78.49 20.51,-73.09 27,-63 38.51,-45.1 61.21,-35.87 79.5,-31.18"/>
<polygon fill="#63b8ff" stroke="#63b8ff" points="80.38,-34.57 89.37,-28.96 78.85,-27.74 80.38,-34.57"/>
</a>
</g>
<g id="a_edge12&#45;headlabel"><a xlink:href="dir_000014_000002.html" target="_top" xlink:title="1">
<text text-anchor="middle" x="77.5" y="-35.62" font-family="Helvetica,sans-Serif" font-size="10.00" fill="#63b8ff">1</text>
</a>
</g>
</g>
<!-- dir_2e6b931faf85af8d43b2b55a026921d7&#45;&gt;dir_09d6a22b96cbdd451a8a41c9804b07f2 -->
<g id="edge11" class="edge">
<title>dir_2e6b931faf85af8d43b2b55a026921d7&#45;&gt;dir_09d6a22b96cbdd451a8a41c9804b07f2</title>
<g id="a_edge11"><a xlink:href="dir_000014_000008.html" target="_top">
<path fill="none" stroke="#63b8ff" d="M136.83,-235.75C135.34,-228.8 134.9,-218.85 135.52,-210.13"/>
<polygon fill="#63b8ff" stroke="#63b8ff" points="139.01,-210.47 136.87,-200.09 132.07,-209.53 139.01,-210.47"/>
</a>
</g>
<g id="a_edge11&#45;headlabel"><a xlink:href="dir_000014_000008.html" target="_top" xlink:title="2">
<text text-anchor="middle" x="141.34" y="-211.91" font-family="Helvetica,sans-Serif" font-size="10.00" fill="#63b8ff">2</text>
</a>
</g>
</g>
<!-- dir_2e6b931faf85af8d43b2b55a026921d7&#45;&gt;dir_608161aafd2af5389d03134ffea49c9f -->
<g id="edge13" class="edge">
<title>dir_2e6b931faf85af8d43b2b55a026921d7&#45;&gt;dir_608161aafd2af5389d03134ffea49c9f</title>
<g id="a_edge13"><a xlink:href="dir_000014_000009.html" target="_top">
<path fill="none" stroke="#63b8ff" d="M145.67,-235.93C152.93,-227.8 165.59,-214.68 171,-200 176.45,-185.22 171.55,-167.76 167.39,-154.89"/>
<polygon fill="#63b8ff" stroke="#63b8ff" points="170.7,-153.77 164.3,-145.32 164.04,-155.92 170.7,-153.77"/>
</a>
</g>
<g id="a_edge13&#45;headlabel"><a xlink:href="dir_000014_000009.html" target="_top" xlink:title="1">
<text text-anchor="middle" x="174.51" y="-153.82" font-family="Helvetica,sans-Serif" font-size="10.00" fill="#63b8ff">1</text>
</a>
</g>
</g>
<!-- dir_2b930848939edf81047ea3b73a2c6d36&#45;&gt;dir_0548d2bb7dd208758f91f985569944be -->
<g id="edge14" class="edge">
<title>dir_2b930848939edf81047ea3b73a2c6d36&#45;&gt;dir_0548d2bb7dd208758f91f985569944be</title>
<g id="a_edge14"><a xlink:href="dir_000016_000010.html" target="_top">
<path fill="none" stroke="#63b8ff" d="M151.11,-70.75C156.28,-63.34 163.85,-52.5 170.19,-43.41"/>
<polygon fill="#63b8ff" stroke="#63b8ff" points="173.15,-45.29 176,-35.09 167.41,-41.29 173.15,-45.29"/>
</a>
</g>
<g id="a_edge14&#45;headlabel"><a xlink:href="dir_000016_000010.html" target="_top" xlink:title="1">
<text text-anchor="middle" x="173.42" y="-47.36" font-family="Helvetica,sans-Serif" font-size="10.00" fill="#63b8ff">1</text>
</a>
</g>
</g>
<!-- dir_2b930848939edf81047ea3b73a2c6d36&#45;&gt;dir_3c6a022a7e9432f24aa2201eb84947de -->
<g id="edge17" class="edge">
<title>dir_2b930848939edf81047ea3b73a2c6d36&#45;&gt;dir_3c6a022a7e9432f24aa2201eb84947de</title>
<g id="a_edge17"><a xlink:href="dir_000016_000002.html" target="_top">
<path fill="none" stroke="#63b8ff" d="M138.73,-70.75C133.41,-63.34 125.64,-52.5 119.12,-43.41"/>
<polygon fill="#63b8ff" stroke="#63b8ff" points="121.83,-41.18 113.16,-35.09 116.14,-45.26 121.83,-41.18"/>
</a>
</g>
<g id="a_edge17&#45;headlabel"><a xlink:href="dir_000016_000002.html" target="_top" xlink:title="1">
<text text-anchor="middle" x="126.23" y="-39.94" font-family="Helvetica,sans-Serif" font-size="10.00" fill="#63b8ff">1</text>
</a>
</g>
</g>
<!-- dir_2b930848939edf81047ea3b73a2c6d36&#45;&gt;dir_09d6a22b96cbdd451a8a41c9804b07f2 -->
<g id="edge15" class="edge">
<title>dir_2b930848939edf81047ea3b73a2c6d36&#45;&gt;dir_09d6a22b96cbdd451a8a41c9804b07f2</title>
<g id="a_edge15"><a xlink:href="dir_000016_000008.html" target="_top">
<path fill="none" stroke="#63b8ff" d="M146.04,-90.24C142.75,-98.9 135.1,-112.74 132,-126 128.39,-141.43 134.16,-158.63 138.86,-171.23"/>
<polygon fill="#63b8ff" stroke="#63b8ff" points="135.71,-172.79 142.46,-180.96 142.28,-170.37 135.71,-172.79"/>
</a>
</g>
<g id="a_edge15&#45;headlabel"><a xlink:href="dir_000016_000008.html" target="_top" xlink:title="2">
<text text-anchor="middle" x="131.8" y="-167.91" font-family="Helvetica,sans-Serif" font-size="10.00" fill="#63b8ff">2</text>
</a>
</g>
</g>
<!-- dir_2b930848939edf81047ea3b73a2c6d36&#45;&gt;dir_608161aafd2af5389d03134ffea49c9f -->
<g id="edge18" class="edge">
<title>dir_2b930848939edf81047ea3b73a2c6d36&#45;&gt;dir_608161aafd2af5389d03134ffea49c9f</title>
<g id="a_edge18"><a xlink:href="dir_000016_000009.html" target="_top">
<path fill="none" stroke="#63b8ff" d="M153.37,-90.09C157.53,-97.06 161.78,-107.15 164.47,-115.95"/>
<polygon fill="#63b8ff" stroke="#63b8ff" points="161.09,-116.86 166.86,-125.75 167.89,-115.2 161.09,-116.86"/>
</a>
</g>
<g id="a_edge18&#45;headlabel"><a xlink:href="dir_000016_000009.html" target="_top" xlink:title="2">
<text text-anchor="middle" x="157.48" y="-111.54" font-family="Helvetica,sans-Serif" font-size="10.00" fill="#63b8ff">2</text>
</a>
</g>
</g>
<!-- dir_2b930848939edf81047ea3b73a2c6d36&#45;&gt;dir_2e6b931faf85af8d43b2b55a026921d7 -->
<g id="edge16" class="edge">
<title>dir_2b930848939edf81047ea3b73a2c6d36&#45;&gt;dir_2e6b931faf85af8d43b2b55a026921d7</title>
<g id="a_edge16"><a xlink:href="dir_000016_000014.html" target="_top">
<path fill="none" stroke="#63b8ff" d="M138.64,-90.3C132.6,-99.01 123.64,-112.88 118,-126 108,-149.28 106.36,-155.89 103,-181 101.88,-189.37 100.03,-192.1 103,-200 107.18,-211.11 115.52,-221.25 123.43,-229.04"/>
<polygon fill="#63b8ff" stroke="#63b8ff" points="121.28,-231.81 131.01,-235.99 126.01,-226.65 121.28,-231.81"/>
</a>
</g>
<g id="a_edge16&#45;headlabel"><a xlink:href="dir_000016_000014.html" target="_top" xlink:title="1">
<text text-anchor="middle" x="116.71" y="-228.98" font-family="Helvetica,sans-Serif" font-size="10.00" fill="#63b8ff">1</text>
</a>
</g>
</g>
</g>
</svg>
