<?xml version="1.0" encoding="UTF-8" standalone="no"?>
<!DOCTYPE svg PUBLIC "-//W3C//DTD SVG 1.1//EN"
 "http://www.w3.org/Graphics/SVG/1.1/DTD/svg11.dtd">
<!-- Generated by graphviz version 2.43.0 (0)
 -->
<!-- Title: include/Thoth/Http Pages: 1 -->
<svg width="180pt" height="306pt"
 viewBox="0.00 0.00 180.00 306.00" xmlns="http://www.w3.org/2000/svg" xmlns:xlink="http://www.w3.org/1999/xlink">
<g id="graph0" class="graph" transform="scale(1 1) rotate(0) translate(4 302)">
<title>include/Thoth/Http</title>
<g id="clust1" class="cluster">
<title>clusterdir_c6a74f695d865e6872ff805f8280c9af</title>
<g id="a_clust1"><a xlink:href="dir_c6a74f695d865e6872ff805f8280c9af.html" target="_top" xlink:title="Thoth">
<polygon fill="#daedff" stroke="#7f7f7f" stroke-dasharray="5,2" points="8,-8 8,-290 164,-290 164,-8 8,-8"/>
<text text-anchor="middle" x="86" y="-278" font-family="Helvetica,sans-Serif" font-size="10.00">Thoth</text>
</a>
</g>
</g>
<g id="clust2" class="cluster">
<title>clusterdir_41cc9e0bb4f1115e1fe2e2758d2bc168</title>
<g id="a_clust2"><a xlink:href="dir_41cc9e0bb4f1115e1fe2e2758d2bc168.html" target="_top">
<polygon fill="#daedff" stroke="#404040" stroke-width="2" points="28,-63 28,-263 144,-263 144,-63 28,-63"/>
</a>
</g>
</g>
<!-- dir_0548d2bb7dd208758f91f985569944be -->
<g id="node1" class="node">
<title>dir_0548d2bb7dd208758f91f985569944be</title>
<g id="a_node1"><a xlink:href="dir_0548d2bb7dd208758f91f985569944be.html" target="_top" xlink:title="NJson">
<polygon fill="#4ea9ff" stroke="#404040" points="132,-35 88,-35 88,-16 132,-16 132,-35"/>
<text text-anchor="middle" x="110" y="-23" font-family="Helvetica,sans-Serif" font-size="10.00">NJson</text>
</a>
</g>
</g>
<!-- dir_3c6a022a7e9432f24aa2201eb84947de -->
<g id="node2" class="node">
<title>dir_3c6a022a7e9432f24aa2201eb84947de</title>
<g id="a_node2"><a xlink:href="dir_3c6a022a7e9432f24aa2201eb84947de.html" target="_top" xlink:title="Dsa">
<polygon fill="#4ea9ff" stroke="#404040" points="63.5,-35 28.5,-35 28.5,-16 63.5,-16 63.5,-35"/>
<text text-anchor="middle" x="46" y="-23" font-family="Helvetica,sans-Serif" font-size="10.00">Dsa</text>
</a>
</g>
</g>
<!-- dir_41cc9e0bb4f1115e1fe2e2758d2bc168 -->
<g id="node3" class="node">
<title>dir_41cc9e0bb4f1115e1fe2e2758d2bc168</title>
<text text-anchor="middle" x="117" y="-243" font-family="Helvetica,sans-Serif" font-size="10.00">Http</text>
</g>
<!-- dir_41cc9e0bb4f1115e1fe2e2758d2bc168&#45;&gt;dir_0548d2bb7dd208758f91f985569944be -->
<g id="edge1" class="edge">
<title>dir_41cc9e0bb4f1115e1fe2e2758d2bc168&#45;&gt;dir_0548d2bb7dd208758f91f985569944be</title>
<g id="a_edge1"><a xlink:href="dir_000002_000005.html" target="_top">
<path fill="none" stroke="#63b8ff" d="M120.69,-235.89C131.53,-209.31 161.17,-126.53 139,-63 136.42,-55.61 131.65,-48.59 126.71,-42.72"/>
<polygon fill="#63b8ff" stroke="#63b8ff" points="128.95,-39.99 119.59,-35.03 123.82,-44.74 128.95,-39.99"/>
</a>
</g>
<g id="a_edge1&#45;headlabel"><a xlink:href="dir_000002_000005.html" target="_top" xlink:title="2">
<text text-anchor="middle" x="133.48" y="-38.2" font-family="Helvetica,sans-Serif" font-size="10.00" fill="#63b8ff">2</text>
</a>
</g>
</g>
<!-- dir_2e6b931faf85af8d43b2b55a026921d7 -->
<g id="node5" class="node">
<title>dir_2e6b931faf85af8d43b2b55a026921d7</title>
<g id="a_node5"><a xlink:href="dir_2e6b931faf85af8d43b2b55a026921d7.html" target="_top" xlink:title="Request">
<polygon fill="#4ea9ff" stroke="#404040" points="94,-200 38,-200 38,-181 94,-181 94,-200"/>
<text text-anchor="middle" x="66" y="-188" font-family="Helvetica,sans-Serif" font-size="10.00">Request</text>
</a>
</g>
</g>
<!-- dir_41cc9e0bb4f1115e1fe2e2758d2bc168&#45;&gt;dir_2e6b931faf85af8d43b2b55a026921d7 -->
<g id="edge3" class="edge">
<title>dir_41cc9e0bb4f1115e1fe2e2758d2bc168&#45;&gt;dir_2e6b931faf85af8d43b2b55a026921d7</title>
<g id="a_edge3"><a xlink:href="dir_000002_000007.html" target="_top">
<path fill="none" stroke="#63b8ff" d="M108.58,-235.75C101.23,-228.11 90.37,-216.82 81.46,-207.56"/>
<polygon fill="#63b8ff" stroke="#63b8ff" points="83.72,-204.87 74.26,-200.09 78.68,-209.72 83.72,-204.87"/>
</a>
</g>
<g id="a_edge3&#45;headlabel"><a xlink:href="dir_000002_000007.html" target="_top" xlink:title="3">
<text text-anchor="middle" x="88.26" y="-202.99" font-family="Helvetica,sans-Serif" font-size="10.00" fill="#63b8ff">3</text>
</a>
</g>
</g>
<!-- dir_2b930848939edf81047ea3b73a2c6d36 -->
<g id="node6" class="node">
<title>dir_2b930848939edf81047ea3b73a2c6d36</title>
<g id="a_node6"><a xlink:href="dir_2b930848939edf81047ea3b73a2c6d36.html" target="_top" xlink:title="Response">
<polygon fill="#4ea9ff" stroke="#404040" points="130,-90 66,-90 66,-71 130,-71 130,-90"/>
<text text-anchor="middle" x="98" y="-78" font-family="Helvetica,sans-Serif" font-size="10.00">Response</text>
</a>
</g>
</g>
<!-- dir_41cc9e0bb4f1115e1fe2e2758d2bc168&#45;&gt;dir_2b930848939edf81047ea3b73a2c6d36 -->
<g id="edge2" class="edge">
<title>dir_41cc9e0bb4f1115e1fe2e2758d2bc168&#45;&gt;dir_2b930848939edf81047ea3b73a2c6d36</title>
<g id="a_edge2"><a xlink:href="dir_000002_000008.html" target="_top">
<path fill="none" stroke="#63b8ff" d="M117.25,-235.8C117.67,-216.1 117.86,-166.62 111,-126 109.52,-117.27 106.92,-107.83 104.42,-99.89"/>
<polygon fill="#63b8ff" stroke="#63b8ff" points="107.68,-98.61 101.21,-90.22 101.04,-100.82 107.68,-98.61"/>
</a>
</g>
<g id="a_edge2&#45;headlabel"><a xlink:href="dir_000002_000008.html" target="_top" xlink:title="3">
<text text-anchor="middle" x="111.51" y="-98.62" font-family="Helvetica,sans-Serif" font-size="10.00" fill="#63b8ff">3</text>
</a>
</g>
</g>
<!-- dir_09d6a22b96cbdd451a8a41c9804b07f2 -->
<g id="node4" class="node">
<title>dir_09d6a22b96cbdd451a8a41c9804b07f2</title>
<g id="a_node4"><a xlink:href="dir_09d6a22b96cbdd451a8a41c9804b07f2.html" target="_top" xlink:title="Methods">
<polygon fill="#4ea9ff" stroke="#404040" points="95.5,-145 36.5,-145 36.5,-126 95.5,-126 95.5,-145"/>
<text text-anchor="middle" x="66" y="-133" font-family="Helvetica,sans-Serif" font-size="10.00">Methods</text>
</a>
</g>
</g>
<!-- dir_09d6a22b96cbdd451a8a41c9804b07f2&#45;&gt;dir_2e6b931faf85af8d43b2b55a026921d7 -->
<g id="edge5" class="edge">
<title>dir_09d6a22b96cbdd451a8a41c9804b07f2&#45;&gt;dir_2e6b931faf85af8d43b2b55a026921d7</title>
<g id="a_edge5"><a xlink:href="dir_000004_000007.html" target="_top">
<path fill="none" stroke="#63b8ff" d="M71.13,-145.09C72.64,-151.99 73.09,-161.93 72.49,-170.66"/>
<polygon fill="#63b8ff" stroke="#63b8ff" points="69,-170.38 71.17,-180.75 75.94,-171.29 69,-170.38"/>
</a>
</g>
<g id="a_edge5&#45;headlabel"><a xlink:href="dir_000004_000007.html" target="_top" xlink:title="1">
<text text-anchor="middle" x="66.65" y="-163.94" font-family="Helvetica,sans-Serif" font-size="10.00" fill="#63b8ff">1</text>
</a>
</g>
</g>
<!-- dir_09d6a22b96cbdd451a8a41c9804b07f2&#45;&gt;dir_2b930848939edf81047ea3b73a2c6d36 -->
<g id="edge4" class="edge">
<title>dir_09d6a22b96cbdd451a8a41c9804b07f2&#45;&gt;dir_2b930848939edf81047ea3b73a2c6d36</title>
<g id="a_edge4"><a xlink:href="dir_000004_000008.html" target="_top">
<path fill="none" stroke="#63b8ff" d="M66.12,-125.75C69.03,-118.26 75.28,-107.28 81.65,-98.13"/>
<polygon fill="#63b8ff" stroke="#63b8ff" points="84.48,-100.19 87.68,-90.09 78.88,-95.98 84.48,-100.19"/>
</a>
</g>
<g id="a_edge4&#45;headlabel"><a xlink:href="dir_000004_000008.html" target="_top" xlink:title="1">
<text text-anchor="middle" x="84.59" y="-102.27" font-family="Helvetica,sans-Serif" font-size="10.00" fill="#63b8ff">1</text>
</a>
</g>
</g>
<!-- dir_2e6b931faf85af8d43b2b55a026921d7&#45;&gt;dir_3c6a022a7e9432f24aa2201eb84947de -->
<g id="edge7" class="edge">
<title>dir_2e6b931faf85af8d43b2b55a026921d7&#45;&gt;dir_3c6a022a7e9432f24aa2201eb84947de</title>
<g id="a_edge7"><a xlink:href="dir_000007_000001.html" target="_top">
<path fill="none" stroke="#63b8ff" d="M55.01,-180.99C45.55,-172.9 32.57,-159.81 27,-145 14.16,-110.85 27.77,-67.98 37.66,-44.3"/>
<polygon fill="#63b8ff" stroke="#63b8ff" points="40.87,-45.69 41.7,-35.13 34.46,-42.86 40.87,-45.69"/>
</a>
</g>
<g id="a_edge7&#45;headlabel"><a xlink:href="dir_000007_000001.html" target="_top" xlink:title="1">
<text text-anchor="middle" x="42.01" y="-47.63" font-family="Helvetica,sans-Serif" font-size="10.00" fill="#63b8ff">1</text>
</a>
</g>
</g>
<!-- dir_2e6b931faf85af8d43b2b55a026921d7&#45;&gt;dir_09d6a22b96cbdd451a8a41c9804b07f2 -->
<g id="edge6" class="edge">
<title>dir_2e6b931faf85af8d43b2b55a026921d7&#45;&gt;dir_09d6a22b96cbdd451a8a41c9804b07f2</title>
<g id="a_edge6"><a xlink:href="dir_000007_000004.html" target="_top">
<path fill="none" stroke="#63b8ff" d="M60.83,-180.75C59.34,-173.8 58.9,-163.85 59.52,-155.13"/>
<polygon fill="#63b8ff" stroke="#63b8ff" points="63.01,-155.47 60.87,-145.09 56.07,-154.53 63.01,-155.47"/>
</a>
</g>
<g id="a_edge6&#45;headlabel"><a xlink:href="dir_000007_000004.html" target="_top" xlink:title="2">
<text text-anchor="middle" x="65.34" y="-156.91" font-family="Helvetica,sans-Serif" font-size="10.00" fill="#63b8ff">2</text>
</a>
</g>
</g>
<!-- dir_2b930848939edf81047ea3b73a2c6d36&#45;&gt;dir_0548d2bb7dd208758f91f985569944be -->
<g id="edge8" class="edge">
<title>dir_2b930848939edf81047ea3b73a2c6d36&#45;&gt;dir_0548d2bb7dd208758f91f985569944be</title>
<g id="a_edge8"><a xlink:href="dir_000008_000005.html" target="_top">
<path fill="none" stroke="#63b8ff" d="M99.98,-70.75C101.57,-63.72 103.86,-53.62 105.85,-44.84"/>
<polygon fill="#63b8ff" stroke="#63b8ff" points="109.26,-45.62 108.06,-35.09 102.43,-44.07 109.26,-45.62"/>
</a>
</g>
<g id="a_edge8&#45;headlabel"><a xlink:href="dir_000008_000005.html" target="_top" xlink:title="1">
<text text-anchor="middle" x="111.24" y="-47.25" font-family="Helvetica,sans-Serif" font-size="10.00" fill="#63b8ff">1</text>
</a>
</g>
</g>
<!-- dir_2b930848939edf81047ea3b73a2c6d36&#45;&gt;dir_3c6a022a7e9432f24aa2201eb84947de -->
<g id="edge11" class="edge">
<title>dir_2b930848939edf81047ea3b73a2c6d36&#45;&gt;dir_3c6a022a7e9432f24aa2201eb84947de</title>
<g id="a_edge11"><a xlink:href="dir_000008_000001.html" target="_top">
<path fill="none" stroke="#63b8ff" d="M89.41,-70.75C81.84,-63.03 70.62,-51.6 61.49,-42.28"/>
<polygon fill="#63b8ff" stroke="#63b8ff" points="63.93,-39.78 54.43,-35.09 58.93,-44.68 63.93,-39.78"/>
</a>
</g>
<g id="a_edge11&#45;headlabel"><a xlink:href="dir_000008_000001.html" target="_top" xlink:title="1">
<text text-anchor="middle" x="68.47" y="-37.85" font-family="Helvetica,sans-Serif" font-size="10.00" fill="#63b8ff">1</text>
</a>
</g>
</g>
<!-- dir_2b930848939edf81047ea3b73a2c6d36&#45;&gt;dir_09d6a22b96cbdd451a8a41c9804b07f2 -->
<g id="edge9" class="edge">
<title>dir_2b930848939edf81047ea3b73a2c6d36&#45;&gt;dir_09d6a22b96cbdd451a8a41c9804b07f2</title>
<g id="a_edge9"><a xlink:href="dir_000008_000004.html" target="_top">
<path fill="none" stroke="#63b8ff" d="M97.95,-90.09C95.08,-97.52 88.86,-108.5 82.49,-117.67"/>
<polygon fill="#63b8ff" stroke="#63b8ff" points="79.64,-115.64 76.45,-125.75 85.24,-119.84 79.64,-115.64"/>
</a>
</g>
<g id="a_edge9&#45;headlabel"><a xlink:href="dir_000008_000004.html" target="_top" xlink:title="2">
<text text-anchor="middle" x="79.52" y="-108.57" font-family="Helvetica,sans-Serif" font-size="10.00" fill="#63b8ff">2</text>
</a>
</g>
</g>
<!-- dir_2b930848939edf81047ea3b73a2c6d36&#45;&gt;dir_2e6b931faf85af8d43b2b55a026921d7 -->
<g id="edge10" class="edge">
<title>dir_2b930848939edf81047ea3b73a2c6d36&#45;&gt;dir_2e6b931faf85af8d43b2b55a026921d7</title>
<g id="a_edge10"><a xlink:href="dir_000008_000007.html" target="_top">
<path fill="none" stroke="#63b8ff" d="M101.1,-90.02C105.13,-102.5 110.9,-126.3 104,-145 99.94,-156.01 91.81,-166.14 84.1,-173.95"/>
<polygon fill="#63b8ff" stroke="#63b8ff" points="81.58,-171.52 76.71,-180.93 86.39,-176.61 81.58,-171.52"/>
</a>
</g>
<g id="a_edge10&#45;headlabel"><a xlink:href="dir_000008_000007.html" target="_top" xlink:title="1">
<text text-anchor="middle" x="82.25" y="-164.49" font-family="Helvetica,sans-Serif" font-size="10.00" fill="#63b8ff">1</text>
</a>
</g>
</g>
</g>
</svg>
