<?xml version="1.0" encoding="UTF-8" standalone="no"?>
<!DOCTYPE svg PUBLIC "-//W3C//DTD SVG 1.1//EN"
 "http://www.w3.org/Graphics/SVG/1.1/DTD/svg11.dtd">
<!-- Generated by graphviz version 2.43.0 (0)
 -->
<!-- Title: include/Thoth/Http Pages: 1 -->
<svg width="268pt" height="361pt"
 viewBox="0.00 0.00 268.00 361.00" xmlns="http://www.w3.org/2000/svg" xmlns:xlink="http://www.w3.org/1999/xlink">
<g id="graph0" class="graph" transform="scale(1 1) rotate(0) translate(4 357)">
<title>include/Thoth/Http</title>
<g id="clust1" class="cluster">
<title>clusterdir_c6a74f695d865e6872ff805f8280c9af</title>
<g id="a_clust1"><a xlink:href="dir_c6a74f695d865e6872ff805f8280c9af.html" target="_top" xlink:title="Thoth">
<polygon fill="#daedff" stroke="#7f7f7f" stroke-dasharray="5,2" points="8,-8 8,-345 252,-345 252,-8 8,-8"/>
<text text-anchor="middle" x="130" y="-333" font-family="Helvetica,sans-Serif" font-size="10.00">Thoth</text>
</a>
</g>
</g>
<g id="clust2" class="cluster">
<title>clusterdir_41cc9e0bb4f1115e1fe2e2758d2bc168</title>
<g id="a_clust2"><a xlink:href="dir_41cc9e0bb4f1115e1fe2e2758d2bc168.html" target="_top">
<polygon fill="#daedff" stroke="#404040" stroke-width="2" points="28,-63 28,-318 170,-318 170,-63 28,-63"/>
</a>
</g>
</g>
<!-- dir_0548d2bb7dd208758f91f985569944be -->
<g id="node1" class="node">
<title>dir_0548d2bb7dd208758f91f985569944be</title>
<g id="a_node1"><a xlink:href="dir_0548d2bb7dd208758f91f985569944be.html" target="_top" xlink:title="NJson">
<polygon fill="#4ea9ff" stroke="#404040" points="189,-35 145,-35 145,-16 189,-16 189,-35"/>
<text text-anchor="middle" x="167" y="-23" font-family="Helvetica,sans-Serif" font-size="10.00">NJson</text>
</a>
</g>
</g>
<!-- dir_430990ec024f593b7bce39ce7b4461bb -->
<g id="node2" class="node">
<title>dir_430990ec024f593b7bce39ce7b4461bb</title>
<g id="a_node2"><a xlink:href="dir_430990ec024f593b7bce39ce7b4461bb.html" target="_top" xlink:title="String">
<polygon fill="#4ea9ff" stroke="#404040" points="223.5,-90 178.5,-90 178.5,-71 223.5,-71 223.5,-90"/>
<text text-anchor="middle" x="201" y="-78" font-family="Helvetica,sans-Serif" font-size="10.00">String</text>
</a>
</g>
</g>
<!-- dir_3c6a022a7e9432f24aa2201eb84947de -->
<g id="node3" class="node">
<title>dir_3c6a022a7e9432f24aa2201eb84947de</title>
<g id="a_node3"><a xlink:href="dir_3c6a022a7e9432f24aa2201eb84947de.html" target="_top" xlink:title="Dsa">
<polygon fill="#4ea9ff" stroke="#404040" points="72.5,-35 37.5,-35 37.5,-16 72.5,-16 72.5,-35"/>
<text text-anchor="middle" x="55" y="-23" font-family="Helvetica,sans-Serif" font-size="10.00">Dsa</text>
</a>
</g>
</g>
<!-- dir_41cc9e0bb4f1115e1fe2e2758d2bc168 -->
<g id="node4" class="node">
<title>dir_41cc9e0bb4f1115e1fe2e2758d2bc168</title>
<text text-anchor="middle" x="106" y="-298" font-family="Helvetica,sans-Serif" font-size="10.00">Http</text>
</g>
<!-- dir_41cc9e0bb4f1115e1fe2e2758d2bc168&#45;&gt;dir_0548d2bb7dd208758f91f985569944be -->
<g id="edge1" class="edge">
<title>dir_41cc9e0bb4f1115e1fe2e2758d2bc168&#45;&gt;dir_0548d2bb7dd208758f91f985569944be</title>
<g id="a_edge1"><a xlink:href="dir_000004_000008.html" target="_top">
<path fill="none" stroke="#63b8ff" d="M125.05,-294.27C162.69,-282.63 243,-250.86 243,-191.5 243,-191.5 243,-191.5 243,-134.5 243,-102.41 251.18,-89.44 233,-63 224.78,-51.05 211.32,-42.61 198.69,-36.87"/>
<polygon fill="#63b8ff" stroke="#63b8ff" points="199.87,-33.58 189.3,-33.01 197.21,-40.05 199.87,-33.58"/>
</a>
</g>
<g id="a_edge1&#45;headlabel"><a xlink:href="dir_000004_000008.html" target="_top" xlink:title="2">
<text text-anchor="middle" x="204.28" y="-29.82" font-family="Helvetica,sans-Serif" font-size="10.00" fill="#63b8ff">2</text>
</a>
</g>
</g>
<!-- dir_2e6b931faf85af8d43b2b55a026921d7 -->
<g id="node7" class="node">
<title>dir_2e6b931faf85af8d43b2b55a026921d7</title>
<g id="a_node7"><a xlink:href="dir_2e6b931faf85af8d43b2b55a026921d7.html" target="_top" xlink:title="Request">
<polygon fill="#4ea9ff" stroke="#404040" points="134,-255 78,-255 78,-236 134,-236 134,-255"/>
<text text-anchor="middle" x="106" y="-243" font-family="Helvetica,sans-Serif" font-size="10.00">Request</text>
</a>
</g>
</g>
<!-- dir_41cc9e0bb4f1115e1fe2e2758d2bc168&#45;&gt;dir_2e6b931faf85af8d43b2b55a026921d7 -->
<g id="edge3" class="edge">
<title>dir_41cc9e0bb4f1115e1fe2e2758d2bc168&#45;&gt;dir_2e6b931faf85af8d43b2b55a026921d7</title>
<g id="a_edge3"><a xlink:href="dir_000004_000012.html" target="_top">
<path fill="none" stroke="#63b8ff" d="M106,-290.75C106,-283.8 106,-273.85 106,-265.13"/>
<polygon fill="#63b8ff" stroke="#63b8ff" points="109.5,-265.09 106,-255.09 102.5,-265.09 109.5,-265.09"/>
</a>
</g>
<g id="a_edge3&#45;headlabel"><a xlink:href="dir_000004_000012.html" target="_top" xlink:title="4">
<text text-anchor="middle" x="112.34" y="-266.18" font-family="Helvetica,sans-Serif" font-size="10.00" fill="#63b8ff">4</text>
</a>
</g>
</g>
<!-- dir_2b930848939edf81047ea3b73a2c6d36 -->
<g id="node8" class="node">
<title>dir_2b930848939edf81047ea3b73a2c6d36</title>
<g id="a_node8"><a xlink:href="dir_2b930848939edf81047ea3b73a2c6d36.html" target="_top" xlink:title="Response">
<polygon fill="#4ea9ff" stroke="#404040" points="109,-90 45,-90 45,-71 109,-71 109,-90"/>
<text text-anchor="middle" x="77" y="-78" font-family="Helvetica,sans-Serif" font-size="10.00">Response</text>
</a>
</g>
</g>
<!-- dir_41cc9e0bb4f1115e1fe2e2758d2bc168&#45;&gt;dir_2b930848939edf81047ea3b73a2c6d36 -->
<g id="edge2" class="edge">
<title>dir_41cc9e0bb4f1115e1fe2e2758d2bc168&#45;&gt;dir_2b930848939edf81047ea3b73a2c6d36</title>
<g id="a_edge2"><a xlink:href="dir_000004_000014.html" target="_top">
<path fill="none" stroke="#63b8ff" d="M96.51,-290.94C87.92,-282.62 75.63,-269.2 69,-255 44.66,-202.86 46.47,-182.37 58,-126 59.89,-116.74 63.79,-107.03 67.57,-99.04"/>
<polygon fill="#63b8ff" stroke="#63b8ff" points="70.74,-100.53 72.12,-90.02 64.49,-97.37 70.74,-100.53"/>
</a>
</g>
<g id="a_edge2&#45;headlabel"><a xlink:href="dir_000004_000014.html" target="_top" xlink:title="3">
<text text-anchor="middle" x="71.65" y="-102.52" font-family="Helvetica,sans-Serif" font-size="10.00" fill="#63b8ff">3</text>
</a>
</g>
</g>
<!-- dir_09d6a22b96cbdd451a8a41c9804b07f2 -->
<g id="node5" class="node">
<title>dir_09d6a22b96cbdd451a8a41c9804b07f2</title>
<g id="a_node5"><a xlink:href="dir_09d6a22b96cbdd451a8a41c9804b07f2.html" target="_top" xlink:title="Methods">
<polygon fill="#4ea9ff" stroke="#404040" points="135.5,-200 76.5,-200 76.5,-181 135.5,-181 135.5,-200"/>
<text text-anchor="middle" x="106" y="-188" font-family="Helvetica,sans-Serif" font-size="10.00">Methods</text>
</a>
</g>
</g>
<!-- dir_608161aafd2af5389d03134ffea49c9f -->
<g id="node6" class="node">
<title>dir_608161aafd2af5389d03134ffea49c9f</title>
<g id="a_node6"><a xlink:href="dir_608161aafd2af5389d03134ffea49c9f.html" target="_top" xlink:title="NHeaders">
<polygon fill="#4ea9ff" stroke="#404040" points="161.5,-145 96.5,-145 96.5,-126 161.5,-126 161.5,-145"/>
<text text-anchor="middle" x="129" y="-133" font-family="Helvetica,sans-Serif" font-size="10.00">NHeaders</text>
</a>
</g>
</g>
<!-- dir_09d6a22b96cbdd451a8a41c9804b07f2&#45;&gt;dir_608161aafd2af5389d03134ffea49c9f -->
<g id="edge6" class="edge">
<title>dir_09d6a22b96cbdd451a8a41c9804b07f2&#45;&gt;dir_608161aafd2af5389d03134ffea49c9f</title>
<g id="a_edge6"><a xlink:href="dir_000006_000007.html" target="_top">
<path fill="none" stroke="#63b8ff" d="M109.8,-180.75C112.91,-173.57 117.42,-163.18 121.29,-154.27"/>
<polygon fill="#63b8ff" stroke="#63b8ff" points="124.5,-155.66 125.27,-145.09 118.08,-152.87 124.5,-155.66"/>
</a>
</g>
<g id="a_edge6&#45;headlabel"><a xlink:href="dir_000006_000007.html" target="_top" xlink:title="1">
<text text-anchor="middle" x="125.68" y="-157.58" font-family="Helvetica,sans-Serif" font-size="10.00" fill="#63b8ff">1</text>
</a>
</g>
</g>
<!-- dir_09d6a22b96cbdd451a8a41c9804b07f2&#45;&gt;dir_2e6b931faf85af8d43b2b55a026921d7 -->
<g id="edge5" class="edge">
<title>dir_09d6a22b96cbdd451a8a41c9804b07f2&#45;&gt;dir_2e6b931faf85af8d43b2b55a026921d7</title>
<g id="a_edge5"><a xlink:href="dir_000006_000012.html" target="_top">
<path fill="none" stroke="#63b8ff" d="M111.13,-200.09C112.64,-206.99 113.09,-216.93 112.49,-225.66"/>
<polygon fill="#63b8ff" stroke="#63b8ff" points="109,-225.38 111.17,-235.75 115.94,-226.29 109,-225.38"/>
</a>
</g>
<g id="a_edge5&#45;headlabel"><a xlink:href="dir_000006_000012.html" target="_top" xlink:title="1">
<text text-anchor="middle" x="106.65" y="-218.94" font-family="Helvetica,sans-Serif" font-size="10.00" fill="#63b8ff">1</text>
</a>
</g>
</g>
<!-- dir_09d6a22b96cbdd451a8a41c9804b07f2&#45;&gt;dir_2b930848939edf81047ea3b73a2c6d36 -->
<g id="edge4" class="edge">
<title>dir_09d6a22b96cbdd451a8a41c9804b07f2&#45;&gt;dir_2b930848939edf81047ea3b73a2c6d36</title>
<g id="a_edge4"><a xlink:href="dir_000006_000014.html" target="_top">
<path fill="none" stroke="#63b8ff" d="M94.75,-180.87C88.21,-172.07 81.71,-157.92 78,-145 73.8,-130.38 71.24,-113.33 71.12,-100.58"/>
<polygon fill="#63b8ff" stroke="#63b8ff" points="74.63,-100.46 71.72,-90.28 67.64,-100.06 74.63,-100.46"/>
</a>
</g>
<g id="a_edge4&#45;headlabel"><a xlink:href="dir_000006_000014.html" target="_top" xlink:title="1">
<text text-anchor="middle" x="77.26" y="-101.72" font-family="Helvetica,sans-Serif" font-size="10.00" fill="#63b8ff">1</text>
</a>
</g>
</g>
<!-- dir_608161aafd2af5389d03134ffea49c9f&#45;&gt;dir_430990ec024f593b7bce39ce7b4461bb -->
<g id="edge9" class="edge">
<title>dir_608161aafd2af5389d03134ffea49c9f&#45;&gt;dir_430990ec024f593b7bce39ce7b4461bb</title>
<g id="a_edge9"><a xlink:href="dir_000007_000015.html" target="_top">
<path fill="none" stroke="#63b8ff" d="M140.57,-125.98C151.42,-118 167.88,-105.88 180.88,-96.31"/>
<polygon fill="#63b8ff" stroke="#63b8ff" points="183.24,-98.92 189.22,-90.17 179.09,-93.28 183.24,-98.92"/>
</a>
</g>
<g id="a_edge9&#45;headlabel"><a xlink:href="dir_000007_000015.html" target="_top" xlink:title="1">
<text text-anchor="middle" x="182.03" y="-100.83" font-family="Helvetica,sans-Serif" font-size="10.00" fill="#63b8ff">1</text>
</a>
</g>
</g>
<!-- dir_608161aafd2af5389d03134ffea49c9f&#45;&gt;dir_2e6b931faf85af8d43b2b55a026921d7 -->
<g id="edge8" class="edge">
<title>dir_608161aafd2af5389d03134ffea49c9f&#45;&gt;dir_2e6b931faf85af8d43b2b55a026921d7</title>
<g id="a_edge8"><a xlink:href="dir_000007_000012.html" target="_top">
<path fill="none" stroke="#63b8ff" d="M134.54,-145.32C141.61,-157.76 152.13,-181.06 145,-200 140.82,-211.11 132.48,-221.25 124.57,-229.04"/>
<polygon fill="#63b8ff" stroke="#63b8ff" points="121.99,-226.65 116.99,-235.99 126.72,-231.81 121.99,-226.65"/>
</a>
</g>
<g id="a_edge8&#45;headlabel"><a xlink:href="dir_000007_000012.html" target="_top" xlink:title="1">
<text text-anchor="middle" x="122.73" y="-219.63" font-family="Helvetica,sans-Serif" font-size="10.00" fill="#63b8ff">1</text>
</a>
</g>
</g>
<!-- dir_608161aafd2af5389d03134ffea49c9f&#45;&gt;dir_2b930848939edf81047ea3b73a2c6d36 -->
<g id="edge7" class="edge">
<title>dir_608161aafd2af5389d03134ffea49c9f&#45;&gt;dir_2b930848939edf81047ea3b73a2c6d36</title>
<g id="a_edge7"><a xlink:href="dir_000007_000014.html" target="_top">
<path fill="none" stroke="#63b8ff" d="M115.53,-125.98C106.48,-118.46 95.11,-107.26 86.88,-97.99"/>
<polygon fill="#63b8ff" stroke="#63b8ff" points="89.45,-95.61 80.36,-90.17 84.07,-100.09 89.45,-95.61"/>
</a>
</g>
<g id="a_edge7&#45;headlabel"><a xlink:href="dir_000007_000014.html" target="_top" xlink:title="1">
<text text-anchor="middle" x="93.93" y="-94.05" font-family="Helvetica,sans-Serif" font-size="10.00" fill="#63b8ff">1</text>
</a>
</g>
</g>
<!-- dir_2e6b931faf85af8d43b2b55a026921d7&#45;&gt;dir_3c6a022a7e9432f24aa2201eb84947de -->
<g id="edge11" class="edge">
<title>dir_2e6b931faf85af8d43b2b55a026921d7&#45;&gt;dir_3c6a022a7e9432f24aa2201eb84947de</title>
<g id="a_edge11"><a xlink:href="dir_000012_000002.html" target="_top">
<path fill="none" stroke="#63b8ff" d="M93.16,-235.82C82.34,-227.8 67.33,-214.91 59,-200 28.89,-146.1 21.33,-122.97 36,-63 37.61,-56.42 40.63,-49.71 43.8,-43.86"/>
<polygon fill="#63b8ff" stroke="#63b8ff" points="46.96,-45.41 49.05,-35.02 40.94,-41.84 46.96,-45.41"/>
</a>
</g>
<g id="a_edge11&#45;headlabel"><a xlink:href="dir_000012_000002.html" target="_top" xlink:title="1">
<text text-anchor="middle" x="47.56" y="-47.45" font-family="Helvetica,sans-Serif" font-size="10.00" fill="#63b8ff">1</text>
</a>
</g>
</g>
<!-- dir_2e6b931faf85af8d43b2b55a026921d7&#45;&gt;dir_09d6a22b96cbdd451a8a41c9804b07f2 -->
<g id="edge10" class="edge">
<title>dir_2e6b931faf85af8d43b2b55a026921d7&#45;&gt;dir_09d6a22b96cbdd451a8a41c9804b07f2</title>
<g id="a_edge10"><a xlink:href="dir_000012_000006.html" target="_top">
<path fill="none" stroke="#63b8ff" d="M100.83,-235.75C99.34,-228.8 98.9,-218.85 99.52,-210.13"/>
<polygon fill="#63b8ff" stroke="#63b8ff" points="103.01,-210.47 100.87,-200.09 96.07,-209.53 103.01,-210.47"/>
</a>
</g>
<g id="a_edge10&#45;headlabel"><a xlink:href="dir_000012_000006.html" target="_top" xlink:title="2">
<text text-anchor="middle" x="105.34" y="-211.91" font-family="Helvetica,sans-Serif" font-size="10.00" fill="#63b8ff">2</text>
</a>
</g>
</g>
<!-- dir_2b930848939edf81047ea3b73a2c6d36&#45;&gt;dir_0548d2bb7dd208758f91f985569944be -->
<g id="edge12" class="edge">
<title>dir_2b930848939edf81047ea3b73a2c6d36&#45;&gt;dir_0548d2bb7dd208758f91f985569944be</title>
<g id="a_edge12"><a xlink:href="dir_000014_000008.html" target="_top">
<path fill="none" stroke="#63b8ff" d="M91.46,-70.98C105.42,-62.77 126.79,-50.18 143.25,-40.49"/>
<polygon fill="#63b8ff" stroke="#63b8ff" points="145.44,-43.26 152.28,-35.17 141.88,-37.23 145.44,-43.26"/>
</a>
</g>
<g id="a_edge12&#45;headlabel"><a xlink:href="dir_000014_000008.html" target="_top" xlink:title="1">
<text text-anchor="middle" x="143.78" y="-45.03" font-family="Helvetica,sans-Serif" font-size="10.00" fill="#63b8ff">1</text>
</a>
</g>
</g>
<!-- dir_2b930848939edf81047ea3b73a2c6d36&#45;&gt;dir_3c6a022a7e9432f24aa2201eb84947de -->
<g id="edge15" class="edge">
<title>dir_2b930848939edf81047ea3b73a2c6d36&#45;&gt;dir_3c6a022a7e9432f24aa2201eb84947de</title>
<g id="a_edge15"><a xlink:href="dir_000014_000002.html" target="_top">
<path fill="none" stroke="#63b8ff" d="M73.37,-70.75C70.42,-63.65 66.17,-53.4 62.49,-44.56"/>
<polygon fill="#63b8ff" stroke="#63b8ff" points="65.63,-42.98 58.57,-35.09 59.17,-45.67 65.63,-42.98"/>
</a>
</g>
<g id="a_edge15&#45;headlabel"><a xlink:href="dir_000014_000002.html" target="_top" xlink:title="1">
<text text-anchor="middle" x="69.63" y="-42.71" font-family="Helvetica,sans-Serif" font-size="10.00" fill="#63b8ff">1</text>
</a>
</g>
</g>
<!-- dir_2b930848939edf81047ea3b73a2c6d36&#45;&gt;dir_09d6a22b96cbdd451a8a41c9804b07f2 -->
<g id="edge13" class="edge">
<title>dir_2b930848939edf81047ea3b73a2c6d36&#45;&gt;dir_09d6a22b96cbdd451a8a41c9804b07f2</title>
<g id="a_edge13"><a xlink:href="dir_000014_000006.html" target="_top">
<path fill="none" stroke="#63b8ff" d="M83.67,-90.28C87.82,-102.67 90.51,-125.91 96,-145 98.55,-153.88 102.42,-163.35 105.29,-171.25"/>
<polygon fill="#63b8ff" stroke="#63b8ff" points="101.98,-172.41 108.36,-180.87 108.65,-170.28 101.98,-172.41"/>
</a>
</g>
<g id="a_edge13&#45;headlabel"><a xlink:href="dir_000014_000006.html" target="_top" xlink:title="2">
<text text-anchor="middle" x="98.18" y="-167.35" font-family="Helvetica,sans-Serif" font-size="10.00" fill="#63b8ff">2</text>
</a>
</g>
</g>
<!-- dir_2b930848939edf81047ea3b73a2c6d36&#45;&gt;dir_608161aafd2af5389d03134ffea49c9f -->
<g id="edge16" class="edge">
<title>dir_2b930848939edf81047ea3b73a2c6d36&#45;&gt;dir_608161aafd2af5389d03134ffea49c9f</title>
<g id="a_edge16"><a xlink:href="dir_000014_000007.html" target="_top">
<path fill="none" stroke="#63b8ff" d="M90.56,-90.09C99.57,-97.6 110.88,-108.72 119.08,-117.96"/>
<polygon fill="#63b8ff" stroke="#63b8ff" points="116.48,-120.31 125.58,-125.75 121.86,-115.83 116.48,-120.31"/>
</a>
</g>
<g id="a_edge16&#45;headlabel"><a xlink:href="dir_000014_000007.html" target="_top" xlink:title="1">
<text text-anchor="middle" x="112" y="-116.87" font-family="Helvetica,sans-Serif" font-size="10.00" fill="#63b8ff">1</text>
</a>
</g>
</g>
<!-- dir_2b930848939edf81047ea3b73a2c6d36&#45;&gt;dir_2e6b931faf85af8d43b2b55a026921d7 -->
<g id="edge14" class="edge">
<title>dir_2b930848939edf81047ea3b73a2c6d36&#45;&gt;dir_2e6b931faf85af8d43b2b55a026921d7</title>
<g id="a_edge14"><a xlink:href="dir_000014_000012.html" target="_top">
<path fill="none" stroke="#63b8ff" d="M73.79,-90.18C66.89,-110.26 52.39,-161.16 67,-200 71.18,-211.11 79.52,-221.25 87.43,-229.04"/>
<polygon fill="#63b8ff" stroke="#63b8ff" points="85.28,-231.81 95.01,-235.99 90.01,-226.65 85.28,-231.81"/>
</a>
</g>
<g id="a_edge14&#45;headlabel"><a xlink:href="dir_000014_000012.html" target="_top" xlink:title="1">
<text text-anchor="middle" x="80.71" y="-228.98" font-family="Helvetica,sans-Serif" font-size="10.00" fill="#63b8ff">1</text>
</a>
</g>
</g>
</g>
</svg>
