<?xml version="1.0" encoding="UTF-8" standalone="no"?>
<!DOCTYPE svg PUBLIC "-//W3C//DTD SVG 1.1//EN"
 "http://www.w3.org/Graphics/SVG/1.1/DTD/svg11.dtd">
<!-- Generated by graphviz version 2.43.0 (0)
 -->
<!-- Title: include/Thoth/Http Pages: 1 -->
<svg width="308pt" height="361pt"
 viewBox="0.00 0.00 308.00 361.00" xmlns="http://www.w3.org/2000/svg" xmlns:xlink="http://www.w3.org/1999/xlink">
<g id="graph0" class="graph" transform="scale(1 1) rotate(0) translate(4 357)">
<title>include/Thoth/Http</title>
<g id="clust1" class="cluster">
<title>clusterdir_c6a74f695d865e6872ff805f8280c9af</title>
<g id="a_clust1"><a xlink:href="dir_c6a74f695d865e6872ff805f8280c9af.html" target="_top" xlink:title="Thoth">
<polygon fill="#daedff" stroke="#7f7f7f" stroke-dasharray="5,2" points="8,-8 8,-345 292,-345 292,-8 8,-8"/>
<text text-anchor="middle" x="150" y="-333" font-family="Helvetica,sans-Serif" font-size="10.00">Thoth</text>
</a>
</g>
</g>
<g id="clust2" class="cluster">
<title>clusterdir_41cc9e0bb4f1115e1fe2e2758d2bc168</title>
<g id="a_clust2"><a xlink:href="dir_41cc9e0bb4f1115e1fe2e2758d2bc168.html" target="_top">
<polygon fill="#daedff" stroke="#404040" stroke-width="2" points="28,-63 28,-318 210,-318 210,-63 28,-63"/>
</a>
</g>
</g>
<!-- dir_0548d2bb7dd208758f91f985569944be -->
<g id="node1" class="node">
<title>dir_0548d2bb7dd208758f91f985569944be</title>
<g id="a_node1"><a xlink:href="dir_0548d2bb7dd208758f91f985569944be.html" target="_top" xlink:title="NJson">
<polygon fill="#4ea9ff" stroke="#404040" points="257,-35 213,-35 213,-16 257,-16 257,-35"/>
<text text-anchor="middle" x="235" y="-23" font-family="Helvetica,sans-Serif" font-size="10.00">NJson</text>
</a>
</g>
</g>
<!-- dir_430990ec024f593b7bce39ce7b4461bb -->
<g id="node2" class="node">
<title>dir_430990ec024f593b7bce39ce7b4461bb</title>
<g id="a_node2"><a xlink:href="dir_430990ec024f593b7bce39ce7b4461bb.html" target="_top" xlink:title="String">
<polygon fill="#4ea9ff" stroke="#404040" points="263.5,-90 218.5,-90 218.5,-71 263.5,-71 263.5,-90"/>
<text text-anchor="middle" x="241" y="-78" font-family="Helvetica,sans-Serif" font-size="10.00">String</text>
</a>
</g>
</g>
<!-- dir_2d830115d85308f46eeefe3ce749e641 -->
<g id="node3" class="node">
<title>dir_2d830115d85308f46eeefe3ce749e641</title>
<g id="a_node3"><a xlink:href="dir_2d830115d85308f46eeefe3ce749e641.html" target="_top" xlink:title="Utils">
<polygon fill="#4ea9ff" stroke="red" points="168.5,-35 129.5,-35 129.5,-16 168.5,-16 168.5,-35"/>
<text text-anchor="middle" x="149" y="-23" font-family="Helvetica,sans-Serif" font-size="10.00">Utils</text>
</a>
</g>
</g>
<!-- dir_3c6a022a7e9432f24aa2201eb84947de -->
<g id="node4" class="node">
<title>dir_3c6a022a7e9432f24aa2201eb84947de</title>
<g id="a_node4"><a xlink:href="dir_3c6a022a7e9432f24aa2201eb84947de.html" target="_top" xlink:title="Dsa">
<polygon fill="#4ea9ff" stroke="#404040" points="91.5,-35 56.5,-35 56.5,-16 91.5,-16 91.5,-35"/>
<text text-anchor="middle" x="74" y="-23" font-family="Helvetica,sans-Serif" font-size="10.00">Dsa</text>
</a>
</g>
</g>
<!-- dir_41cc9e0bb4f1115e1fe2e2758d2bc168 -->
<g id="node5" class="node">
<title>dir_41cc9e0bb4f1115e1fe2e2758d2bc168</title>
<text text-anchor="middle" x="183" y="-298" font-family="Helvetica,sans-Serif" font-size="10.00">Http</text>
</g>
<!-- dir_41cc9e0bb4f1115e1fe2e2758d2bc168&#45;&gt;dir_0548d2bb7dd208758f91f985569944be -->
<g id="edge1" class="edge">
<title>dir_41cc9e0bb4f1115e1fe2e2758d2bc168&#45;&gt;dir_0548d2bb7dd208758f91f985569944be</title>
<g id="a_edge1"><a xlink:href="dir_000006_000010.html" target="_top">
<path fill="none" stroke="#63b8ff" d="M200.42,-290.86C229.07,-275.27 283,-239.54 283,-191.5 283,-191.5 283,-191.5 283,-134.5 283,-102.41 287.6,-91.58 273,-63 268.9,-54.98 262.34,-47.73 255.81,-41.85"/>
<polygon fill="#63b8ff" stroke="#63b8ff" points="257.68,-38.85 247.75,-35.17 253.21,-44.24 257.68,-38.85"/>
</a>
</g>
<g id="a_edge1&#45;headlabel"><a xlink:href="dir_000006_000010.html" target="_top" xlink:title="2">
<text text-anchor="middle" x="262.26" y="-36.46" font-family="Helvetica,sans-Serif" font-size="10.00" fill="#63b8ff">2</text>
</a>
</g>
</g>
<!-- dir_2e6b931faf85af8d43b2b55a026921d7 -->
<g id="node8" class="node">
<title>dir_2e6b931faf85af8d43b2b55a026921d7</title>
<g id="a_node8"><a xlink:href="dir_2e6b931faf85af8d43b2b55a026921d7.html" target="_top" xlink:title="Request">
<polygon fill="#4ea9ff" stroke="#404040" points="114,-255 58,-255 58,-236 114,-236 114,-255"/>
<text text-anchor="middle" x="86" y="-243" font-family="Helvetica,sans-Serif" font-size="10.00">Request</text>
</a>
</g>
</g>
<!-- dir_41cc9e0bb4f1115e1fe2e2758d2bc168&#45;&gt;dir_2e6b931faf85af8d43b2b55a026921d7 -->
<g id="edge3" class="edge">
<title>dir_41cc9e0bb4f1115e1fe2e2758d2bc168&#45;&gt;dir_2e6b931faf85af8d43b2b55a026921d7</title>
<g id="a_edge3"><a xlink:href="dir_000006_000014.html" target="_top">
<path fill="none" stroke="#63b8ff" d="M167.42,-290.98C152.23,-282.69 128.9,-269.94 111.1,-260.22"/>
<polygon fill="#63b8ff" stroke="#63b8ff" points="112.32,-256.89 101.87,-255.17 108.97,-263.04 112.32,-256.89"/>
</a>
</g>
<g id="a_edge3&#45;headlabel"><a xlink:href="dir_000006_000014.html" target="_top" xlink:title="3">
<text text-anchor="middle" x="116.84" y="-253.63" font-family="Helvetica,sans-Serif" font-size="10.00" fill="#63b8ff">3</text>
</a>
</g>
</g>
<!-- dir_2b930848939edf81047ea3b73a2c6d36 -->
<g id="node9" class="node">
<title>dir_2b930848939edf81047ea3b73a2c6d36</title>
<g id="a_node9"><a xlink:href="dir_2b930848939edf81047ea3b73a2c6d36.html" target="_top" xlink:title="Response">
<polygon fill="#4ea9ff" stroke="#404040" points="150,-90 86,-90 86,-71 150,-71 150,-90"/>
<text text-anchor="middle" x="118" y="-78" font-family="Helvetica,sans-Serif" font-size="10.00">Response</text>
</a>
</g>
</g>
<!-- dir_41cc9e0bb4f1115e1fe2e2758d2bc168&#45;&gt;dir_2b930848939edf81047ea3b73a2c6d36 -->
<g id="edge2" class="edge">
<title>dir_41cc9e0bb4f1115e1fe2e2758d2bc168&#45;&gt;dir_2b930848939edf81047ea3b73a2c6d36</title>
<g id="a_edge2"><a xlink:href="dir_000006_000016.html" target="_top">
<path fill="none" stroke="#63b8ff" d="M186.4,-290.83C196.27,-264.14 222.3,-181.74 191,-126 182.89,-111.56 167.99,-101.26 153.75,-94.22"/>
<polygon fill="#63b8ff" stroke="#63b8ff" points="155.12,-91 144.57,-90.06 152.23,-97.38 155.12,-91"/>
</a>
</g>
<g id="a_edge2&#45;headlabel"><a xlink:href="dir_000006_000016.html" target="_top" xlink:title="3">
<text text-anchor="middle" x="159.57" y="-87.4" font-family="Helvetica,sans-Serif" font-size="10.00" fill="#63b8ff">3</text>
</a>
</g>
</g>
<!-- dir_09d6a22b96cbdd451a8a41c9804b07f2 -->
<g id="node6" class="node">
<title>dir_09d6a22b96cbdd451a8a41c9804b07f2</title>
<g id="a_node6"><a xlink:href="dir_09d6a22b96cbdd451a8a41c9804b07f2.html" target="_top" xlink:title="Methods">
<polygon fill="#4ea9ff" stroke="#404040" points="115.5,-200 56.5,-200 56.5,-181 115.5,-181 115.5,-200"/>
<text text-anchor="middle" x="86" y="-188" font-family="Helvetica,sans-Serif" font-size="10.00">Methods</text>
</a>
</g>
</g>
<!-- dir_608161aafd2af5389d03134ffea49c9f -->
<g id="node7" class="node">
<title>dir_608161aafd2af5389d03134ffea49c9f</title>
<g id="a_node7"><a xlink:href="dir_608161aafd2af5389d03134ffea49c9f.html" target="_top" xlink:title="NHeaders">
<polygon fill="#4ea9ff" stroke="#404040" points="181.5,-145 116.5,-145 116.5,-126 181.5,-126 181.5,-145"/>
<text text-anchor="middle" x="149" y="-133" font-family="Helvetica,sans-Serif" font-size="10.00">NHeaders</text>
</a>
</g>
</g>
<!-- dir_09d6a22b96cbdd451a8a41c9804b07f2&#45;&gt;dir_608161aafd2af5389d03134ffea49c9f -->
<g id="edge5" class="edge">
<title>dir_09d6a22b96cbdd451a8a41c9804b07f2&#45;&gt;dir_608161aafd2af5389d03134ffea49c9f</title>
<g id="a_edge5"><a xlink:href="dir_000008_000009.html" target="_top">
<path fill="none" stroke="#63b8ff" d="M96.12,-180.98C105.44,-173.15 119.47,-161.34 130.74,-151.86"/>
<polygon fill="#63b8ff" stroke="#63b8ff" points="133.29,-154.29 138.69,-145.17 128.79,-148.93 133.29,-154.29"/>
</a>
</g>
<g id="a_edge5&#45;headlabel"><a xlink:href="dir_000008_000009.html" target="_top" xlink:title="1">
<text text-anchor="middle" x="132.37" y="-156.27" font-family="Helvetica,sans-Serif" font-size="10.00" fill="#63b8ff">1</text>
</a>
</g>
</g>
<!-- dir_09d6a22b96cbdd451a8a41c9804b07f2&#45;&gt;dir_2b930848939edf81047ea3b73a2c6d36 -->
<g id="edge4" class="edge">
<title>dir_09d6a22b96cbdd451a8a41c9804b07f2&#45;&gt;dir_2b930848939edf81047ea3b73a2c6d36</title>
<g id="a_edge4"><a xlink:href="dir_000008_000016.html" target="_top">
<path fill="none" stroke="#63b8ff" d="M79.67,-180.63C76.42,-168.13 76.96,-144.76 83,-126 86.18,-116.12 91.82,-106.05 97.87,-98"/>
<polygon fill="#63b8ff" stroke="#63b8ff" points="100.72,-100.05 104.51,-90.15 95.38,-95.53 100.72,-100.05"/>
</a>
</g>
<g id="a_edge4&#45;headlabel"><a xlink:href="dir_000008_000016.html" target="_top" xlink:title="1">
<text text-anchor="middle" x="100.57" y="-102.13" font-family="Helvetica,sans-Serif" font-size="10.00" fill="#63b8ff">1</text>
</a>
</g>
</g>
<!-- dir_f0d5f9c2813ecd5c8dcd2e2ff3dca0a2 -->
<g id="node10" class="node">
<title>dir_f0d5f9c2813ecd5c8dcd2e2ff3dca0a2</title>
<g id="a_node10"><a xlink:href="dir_f0d5f9c2813ecd5c8dcd2e2ff3dca0a2.html" target="_top" xlink:title="Url">
<polygon fill="#4ea9ff" stroke="#404040" points="67.5,-90 36.5,-90 36.5,-71 67.5,-71 67.5,-90"/>
<text text-anchor="middle" x="52" y="-78" font-family="Helvetica,sans-Serif" font-size="10.00">Url</text>
</a>
</g>
</g>
<!-- dir_09d6a22b96cbdd451a8a41c9804b07f2&#45;&gt;dir_f0d5f9c2813ecd5c8dcd2e2ff3dca0a2 -->
<g id="edge6" class="edge">
<title>dir_09d6a22b96cbdd451a8a41c9804b07f2&#45;&gt;dir_f0d5f9c2813ecd5c8dcd2e2ff3dca0a2</title>
<g id="a_edge6"><a xlink:href="dir_000008_000019.html" target="_top">
<path fill="none" stroke="#63b8ff" d="M83.22,-180.66C77.69,-163.09 65.21,-123.45 57.81,-99.95"/>
<polygon fill="#63b8ff" stroke="#63b8ff" points="61.07,-98.65 54.73,-90.16 54.39,-100.75 61.07,-98.65"/>
</a>
</g>
<g id="a_edge6&#45;headlabel"><a xlink:href="dir_000008_000019.html" target="_top" xlink:title="1">
<text text-anchor="middle" x="64.85" y="-98.72" font-family="Helvetica,sans-Serif" font-size="10.00" fill="#63b8ff">1</text>
</a>
</g>
</g>
<!-- dir_608161aafd2af5389d03134ffea49c9f&#45;&gt;dir_430990ec024f593b7bce39ce7b4461bb -->
<g id="edge9" class="edge">
<title>dir_608161aafd2af5389d03134ffea49c9f&#45;&gt;dir_430990ec024f593b7bce39ce7b4461bb</title>
<g id="a_edge9"><a xlink:href="dir_000009_000017.html" target="_top">
<path fill="none" stroke="#63b8ff" d="M163.78,-125.98C178.18,-117.69 200.31,-104.94 217.19,-95.22"/>
<polygon fill="#63b8ff" stroke="#63b8ff" points="219.03,-98.19 225.95,-90.17 215.54,-92.13 219.03,-98.19"/>
</a>
</g>
<g id="a_edge9&#45;headlabel"><a xlink:href="dir_000009_000017.html" target="_top" xlink:title="1">
<text text-anchor="middle" x="217.33" y="-99.95" font-family="Helvetica,sans-Serif" font-size="10.00" fill="#63b8ff">1</text>
</a>
</g>
</g>
<!-- dir_608161aafd2af5389d03134ffea49c9f&#45;&gt;dir_2d830115d85308f46eeefe3ce749e641 -->
<g id="edge10" class="edge">
<title>dir_608161aafd2af5389d03134ffea49c9f&#45;&gt;dir_2d830115d85308f46eeefe3ce749e641</title>
<g id="a_edge10"><a xlink:href="dir_000009_000020.html" target="_top">
<path fill="none" stroke="#63b8ff" d="M151.79,-125.7C155.7,-112.21 162.04,-85.61 159,-63 158.2,-57.05 156.7,-50.69 155.09,-44.98"/>
<polygon fill="#63b8ff" stroke="#63b8ff" points="158.33,-43.6 152.05,-35.07 151.64,-45.65 158.33,-43.6"/>
</a>
</g>
<g id="a_edge10&#45;headlabel"><a xlink:href="dir_000009_000020.html" target="_top" xlink:title="2">
<text text-anchor="middle" x="162.1" y="-43.7" font-family="Helvetica,sans-Serif" font-size="10.00" fill="#63b8ff">2</text>
</a>
</g>
</g>
<!-- dir_608161aafd2af5389d03134ffea49c9f&#45;&gt;dir_2b930848939edf81047ea3b73a2c6d36 -->
<g id="edge7" class="edge">
<title>dir_608161aafd2af5389d03134ffea49c9f&#45;&gt;dir_2b930848939edf81047ea3b73a2c6d36</title>
<g id="a_edge7"><a xlink:href="dir_000009_000016.html" target="_top">
<path fill="none" stroke="#63b8ff" d="M138.71,-125.75C132.97,-118.57 126.48,-108.18 121.98,-99.27"/>
<polygon fill="#63b8ff" stroke="#63b8ff" points="125.16,-97.8 117.89,-90.09 118.76,-100.65 125.16,-97.8"/>
</a>
</g>
<g id="a_edge7&#45;headlabel"><a xlink:href="dir_000009_000016.html" target="_top" xlink:title="1">
<text text-anchor="middle" x="129.21" y="-97.43" font-family="Helvetica,sans-Serif" font-size="10.00" fill="#63b8ff">1</text>
</a>
</g>
</g>
<!-- dir_608161aafd2af5389d03134ffea49c9f&#45;&gt;dir_f0d5f9c2813ecd5c8dcd2e2ff3dca0a2 -->
<g id="edge8" class="edge">
<title>dir_608161aafd2af5389d03134ffea49c9f&#45;&gt;dir_f0d5f9c2813ecd5c8dcd2e2ff3dca0a2</title>
<g id="a_edge8"><a xlink:href="dir_000009_000019.html" target="_top">
<path fill="none" stroke="#63b8ff" d="M133.42,-125.98C118.14,-117.64 94.62,-104.79 76.78,-95.04"/>
<polygon fill="#63b8ff" stroke="#63b8ff" points="78,-91.72 67.55,-89.99 74.64,-97.86 78,-91.72"/>
</a>
</g>
<g id="a_edge8&#45;headlabel"><a xlink:href="dir_000009_000019.html" target="_top" xlink:title="1">
<text text-anchor="middle" x="82.52" y="-88.45" font-family="Helvetica,sans-Serif" font-size="10.00" fill="#63b8ff">1</text>
</a>
</g>
</g>
<!-- dir_2e6b931faf85af8d43b2b55a026921d7&#45;&gt;dir_3c6a022a7e9432f24aa2201eb84947de -->
<g id="edge12" class="edge">
<title>dir_2e6b931faf85af8d43b2b55a026921d7&#45;&gt;dir_3c6a022a7e9432f24aa2201eb84947de</title>
<g id="a_edge12"><a xlink:href="dir_000014_000002.html" target="_top">
<path fill="none" stroke="#63b8ff" d="M72.35,-235.7C61.34,-227.78 46.49,-215.1 39,-200 17.14,-155.95 29.67,-139.11 27,-90 26.35,-78.02 21.72,-73.78 27,-63 31.52,-53.77 39.62,-46.2 47.84,-40.4"/>
<polygon fill="#63b8ff" stroke="#63b8ff" points="49.76,-43.33 56.3,-35 45.99,-37.43 49.76,-43.33"/>
</a>
</g>
<g id="a_edge12&#45;headlabel"><a xlink:href="dir_000014_000002.html" target="_top" xlink:title="1">
<text text-anchor="middle" x="48.25" y="-45.16" font-family="Helvetica,sans-Serif" font-size="10.00" fill="#63b8ff">1</text>
</a>
</g>
</g>
<!-- dir_2e6b931faf85af8d43b2b55a026921d7&#45;&gt;dir_09d6a22b96cbdd451a8a41c9804b07f2 -->
<g id="edge11" class="edge">
<title>dir_2e6b931faf85af8d43b2b55a026921d7&#45;&gt;dir_09d6a22b96cbdd451a8a41c9804b07f2</title>
<g id="a_edge11"><a xlink:href="dir_000014_000008.html" target="_top">
<path fill="none" stroke="#63b8ff" d="M86,-235.75C86,-228.8 86,-218.85 86,-210.13"/>
<polygon fill="#63b8ff" stroke="#63b8ff" points="89.5,-210.09 86,-200.09 82.5,-210.09 89.5,-210.09"/>
</a>
</g>
<g id="a_edge11&#45;headlabel"><a xlink:href="dir_000014_000008.html" target="_top" xlink:title="2">
<text text-anchor="middle" x="92.34" y="-211.18" font-family="Helvetica,sans-Serif" font-size="10.00" fill="#63b8ff">2</text>
</a>
</g>
</g>
<!-- dir_2e6b931faf85af8d43b2b55a026921d7&#45;&gt;dir_608161aafd2af5389d03134ffea49c9f -->
<g id="edge13" class="edge">
<title>dir_2e6b931faf85af8d43b2b55a026921d7&#45;&gt;dir_608161aafd2af5389d03134ffea49c9f</title>
<g id="a_edge13"><a xlink:href="dir_000014_000009.html" target="_top">
<path fill="none" stroke="#63b8ff" d="M101.77,-235.95C114.3,-228.27 131.15,-215.79 140,-200 147.58,-186.48 149.58,-168.89 149.82,-155.65"/>
<polygon fill="#63b8ff" stroke="#63b8ff" points="153.32,-155.3 149.68,-145.34 146.32,-155.39 153.32,-155.3"/>
</a>
</g>
<g id="a_edge13&#45;headlabel"><a xlink:href="dir_000014_000009.html" target="_top" xlink:title="1">
<text text-anchor="middle" x="156.21" y="-156.35" font-family="Helvetica,sans-Serif" font-size="10.00" fill="#63b8ff">1</text>
</a>
</g>
</g>
<!-- dir_2e6b931faf85af8d43b2b55a026921d7&#45;&gt;dir_f0d5f9c2813ecd5c8dcd2e2ff3dca0a2 -->
<g id="edge14" class="edge">
<title>dir_2e6b931faf85af8d43b2b55a026921d7&#45;&gt;dir_f0d5f9c2813ecd5c8dcd2e2ff3dca0a2</title>
<g id="a_edge14"><a xlink:href="dir_000014_000019.html" target="_top">
<path fill="none" stroke="#63b8ff" d="M67.97,-235.99C56.55,-227.9 43.57,-214.81 38,-200 25.36,-166.41 32.25,-123.62 40.78,-99.74"/>
<polygon fill="#63b8ff" stroke="#63b8ff" points="44.14,-100.77 44.75,-90.19 37.67,-98.08 44.14,-100.77"/>
</a>
</g>
<g id="a_edge14&#45;headlabel"><a xlink:href="dir_000014_000019.html" target="_top" xlink:title="1">
<text text-anchor="middle" x="45.38" y="-102.68" font-family="Helvetica,sans-Serif" font-size="10.00" fill="#63b8ff">1</text>
</a>
</g>
</g>
<!-- dir_2b930848939edf81047ea3b73a2c6d36&#45;&gt;dir_0548d2bb7dd208758f91f985569944be -->
<g id="edge15" class="edge">
<title>dir_2b930848939edf81047ea3b73a2c6d36&#45;&gt;dir_0548d2bb7dd208758f91f985569944be</title>
<g id="a_edge15"><a xlink:href="dir_000016_000010.html" target="_top">
<path fill="none" stroke="#63b8ff" d="M136.67,-70.91C142.24,-68.36 148.37,-65.56 154,-63 171.39,-55.1 190.92,-46.29 206.44,-39.32"/>
<polygon fill="#63b8ff" stroke="#63b8ff" points="208.31,-42.31 216,-35.02 205.44,-35.93 208.31,-42.31"/>
</a>
</g>
<g id="a_edge15&#45;headlabel"><a xlink:href="dir_000016_000010.html" target="_top" xlink:title="1">
<text text-anchor="middle" x="206.2" y="-43.87" font-family="Helvetica,sans-Serif" font-size="10.00" fill="#63b8ff">1</text>
</a>
</g>
</g>
<!-- dir_2b930848939edf81047ea3b73a2c6d36&#45;&gt;dir_3c6a022a7e9432f24aa2201eb84947de -->
<g id="edge18" class="edge">
<title>dir_2b930848939edf81047ea3b73a2c6d36&#45;&gt;dir_3c6a022a7e9432f24aa2201eb84947de</title>
<g id="a_edge18"><a xlink:href="dir_000016_000002.html" target="_top">
<path fill="none" stroke="#63b8ff" d="M110.73,-70.75C104.46,-63.18 95.21,-52.05 87.57,-42.84"/>
<polygon fill="#63b8ff" stroke="#63b8ff" points="90.21,-40.55 81.13,-35.09 84.83,-45.02 90.21,-40.55"/>
</a>
</g>
<g id="a_edge18&#45;headlabel"><a xlink:href="dir_000016_000002.html" target="_top" xlink:title="1">
<text text-anchor="middle" x="94.69" y="-39" font-family="Helvetica,sans-Serif" font-size="10.00" fill="#63b8ff">1</text>
</a>
</g>
</g>
<!-- dir_2b930848939edf81047ea3b73a2c6d36&#45;&gt;dir_09d6a22b96cbdd451a8a41c9804b07f2 -->
<g id="edge16" class="edge">
<title>dir_2b930848939edf81047ea3b73a2c6d36&#45;&gt;dir_09d6a22b96cbdd451a8a41c9804b07f2</title>
<g id="a_edge16"><a xlink:href="dir_000016_000008.html" target="_top">
<path fill="none" stroke="#63b8ff" d="M118.28,-90.15C114.22,-98.75 105.33,-112.54 101,-126 96.33,-140.51 94.95,-157.78 93.27,-170.64"/>
<polygon fill="#63b8ff" stroke="#63b8ff" points="89.79,-170.2 91.62,-180.63 96.7,-171.33 89.79,-170.2"/>
</a>
</g>
<g id="a_edge16&#45;headlabel"><a xlink:href="dir_000016_000008.html" target="_top" xlink:title="2">
<text text-anchor="middle" x="87.57" y="-163.69" font-family="Helvetica,sans-Serif" font-size="10.00" fill="#63b8ff">2</text>
</a>
</g>
</g>
<!-- dir_2b930848939edf81047ea3b73a2c6d36&#45;&gt;dir_608161aafd2af5389d03134ffea49c9f -->
<g id="edge19" class="edge">
<title>dir_2b930848939edf81047ea3b73a2c6d36&#45;&gt;dir_608161aafd2af5389d03134ffea49c9f</title>
<g id="a_edge19"><a xlink:href="dir_000016_000009.html" target="_top">
<path fill="none" stroke="#63b8ff" d="M128.15,-90.09C133.88,-97.22 140.39,-107.6 144.92,-116.53"/>
<polygon fill="#63b8ff" stroke="#63b8ff" points="141.77,-118.05 149.05,-125.75 148.15,-115.19 141.77,-118.05"/>
</a>
</g>
<g id="a_edge19&#45;headlabel"><a xlink:href="dir_000016_000009.html" target="_top" xlink:title="2">
<text text-anchor="middle" x="137.7" y="-113.43" font-family="Helvetica,sans-Serif" font-size="10.00" fill="#63b8ff">2</text>
</a>
</g>
</g>
<!-- dir_2b930848939edf81047ea3b73a2c6d36&#45;&gt;dir_2e6b931faf85af8d43b2b55a026921d7 -->
<g id="edge17" class="edge">
<title>dir_2b930848939edf81047ea3b73a2c6d36&#45;&gt;dir_2e6b931faf85af8d43b2b55a026921d7</title>
<g id="a_edge17"><a xlink:href="dir_000016_000014.html" target="_top">
<path fill="none" stroke="#63b8ff" d="M115.17,-90.25C112.45,-99.14 108.54,-113.36 107,-126 105.98,-134.38 105.06,-136.78 107,-145 112.91,-170.03 134.06,-175.93 125,-200 120.82,-211.11 112.48,-221.25 104.57,-229.04"/>
<polygon fill="#63b8ff" stroke="#63b8ff" points="101.99,-226.65 96.99,-235.99 106.72,-231.81 101.99,-226.65"/>
</a>
</g>
<g id="a_edge17&#45;headlabel"><a xlink:href="dir_000016_000014.html" target="_top" xlink:title="1">
<text text-anchor="middle" x="102.73" y="-219.63" font-family="Helvetica,sans-Serif" font-size="10.00" fill="#63b8ff">1</text>
</a>
</g>
</g>
<!-- dir_f0d5f9c2813ecd5c8dcd2e2ff3dca0a2&#45;&gt;dir_2d830115d85308f46eeefe3ce749e641 -->
<g id="edge20" class="edge">
<title>dir_f0d5f9c2813ecd5c8dcd2e2ff3dca0a2&#45;&gt;dir_2d830115d85308f46eeefe3ce749e641</title>
<g id="a_edge20"><a xlink:href="dir_000019_000020.html" target="_top">
<path fill="none" stroke="#63b8ff" d="M64.29,-70.99C68.28,-68.33 72.77,-65.46 77,-63 91.33,-54.67 107.79,-46.25 121.35,-39.59"/>
<polygon fill="#63b8ff" stroke="#63b8ff" points="123.17,-42.6 130.64,-35.09 120.12,-36.3 123.17,-42.6"/>
</a>
</g>
<g id="a_edge20&#45;headlabel"><a xlink:href="dir_000019_000020.html" target="_top" xlink:title="1">
<text text-anchor="middle" x="121.18" y="-44.22" font-family="Helvetica,sans-Serif" font-size="10.00" fill="#63b8ff">1</text>
</a>
</g>
</g>
<!-- dir_f0d5f9c2813ecd5c8dcd2e2ff3dca0a2&#45;&gt;dir_2e6b931faf85af8d43b2b55a026921d7 -->
<g id="edge21" class="edge">
<title>dir_f0d5f9c2813ecd5c8dcd2e2ff3dca0a2&#45;&gt;dir_2e6b931faf85af8d43b2b55a026921d7</title>
<g id="a_edge21"><a xlink:href="dir_000019_000014.html" target="_top">
<path fill="none" stroke="#63b8ff" d="M54.03,-90.19C52.82,-110.3 41.43,-161.26 56,-200 60.09,-210.87 68.18,-220.82 75.16,-228.55"/>
<polygon fill="#63b8ff" stroke="#63b8ff" points="72.69,-231.03 82.05,-235.99 77.82,-226.27 72.69,-231.03"/>
</a>
</g>
<g id="a_edge21&#45;headlabel"><a xlink:href="dir_000019_000014.html" target="_top" xlink:title="1">
<text text-anchor="middle" x="68.16" y="-227.83" font-family="Helvetica,sans-Serif" font-size="10.00" fill="#63b8ff">1</text>
</a>
</g>
</g>
</g>
</svg>
