<?xml version="1.0" encoding="UTF-8" standalone="no"?>
<!DOCTYPE svg PUBLIC "-//W3C//DTD SVG 1.1//EN"
 "http://www.w3.org/Graphics/SVG/1.1/DTD/svg11.dtd">
<!-- Generated by graphviz version 2.43.0 (0)
 -->
<!-- Title: include/Thoth/Http Pages: 1 -->
<svg width="368pt" height="416pt"
 viewBox="0.00 0.00 368.00 416.00" xmlns="http://www.w3.org/2000/svg" xmlns:xlink="http://www.w3.org/1999/xlink">
<g id="graph0" class="graph" transform="scale(1 1) rotate(0) translate(4 412)">
<title>include/Thoth/Http</title>
<g id="clust1" class="cluster">
<title>clusterdir_c6a74f695d865e6872ff805f8280c9af</title>
<g id="a_clust1"><a xlink:href="dir_c6a74f695d865e6872ff805f8280c9af.html" target="_top" xlink:title="Thoth">
<polygon fill="#daedff" stroke="#7f7f7f" stroke-dasharray="5,2" points="8,-8 8,-400 352,-400 352,-8 8,-8"/>
<text text-anchor="middle" x="180" y="-388" font-family="Helvetica,sans-Serif" font-size="10.00">Thoth</text>
</a>
</g>
</g>
<g id="clust2" class="cluster">
<title>clusterdir_41cc9e0bb4f1115e1fe2e2758d2bc168</title>
<g id="a_clust2"><a xlink:href="dir_41cc9e0bb4f1115e1fe2e2758d2bc168.html" target="_top">
<polygon fill="#daedff" stroke="#404040" stroke-width="2" points="88,-63 88,-373 274,-373 274,-63 88,-63"/>
</a>
</g>
</g>
<!-- dir_2d830115d85308f46eeefe3ce749e641 -->
<g id="node1" class="node">
<title>dir_2d830115d85308f46eeefe3ce749e641</title>
<g id="a_node1"><a xlink:href="dir_2d830115d85308f46eeefe3ce749e641.html" target="_top" xlink:title="Utils">
<polygon fill="#4ea9ff" stroke="red" points="321.5,-90 282.5,-90 282.5,-71 321.5,-71 321.5,-90"/>
<text text-anchor="middle" x="302" y="-78" font-family="Helvetica,sans-Serif" font-size="10.00">Utils</text>
</a>
</g>
</g>
<!-- dir_430990ec024f593b7bce39ce7b4461bb -->
<g id="node2" class="node">
<title>dir_430990ec024f593b7bce39ce7b4461bb</title>
<g id="a_node2"><a xlink:href="dir_430990ec024f593b7bce39ce7b4461bb.html" target="_top" xlink:title="String">
<polygon fill="#4ea9ff" stroke="#404040" points="343.5,-255 298.5,-255 298.5,-236 343.5,-236 343.5,-255"/>
<text text-anchor="middle" x="321" y="-243" font-family="Helvetica,sans-Serif" font-size="10.00">String</text>
</a>
</g>
</g>
<!-- dir_3c6a022a7e9432f24aa2201eb84947de -->
<g id="node3" class="node">
<title>dir_3c6a022a7e9432f24aa2201eb84947de</title>
<g id="a_node3"><a xlink:href="dir_3c6a022a7e9432f24aa2201eb84947de.html" target="_top" xlink:title="Dsa">
<polygon fill="#4ea9ff" stroke="#404040" points="118.5,-35 83.5,-35 83.5,-16 118.5,-16 118.5,-35"/>
<text text-anchor="middle" x="101" y="-23" font-family="Helvetica,sans-Serif" font-size="10.00">Dsa</text>
</a>
</g>
</g>
<!-- dir_0548d2bb7dd208758f91f985569944be -->
<g id="node4" class="node">
<title>dir_0548d2bb7dd208758f91f985569944be</title>
<g id="a_node4"><a xlink:href="dir_0548d2bb7dd208758f91f985569944be.html" target="_top" xlink:title="NJson">
<polygon fill="#4ea9ff" stroke="#404040" points="80,-200 36,-200 36,-181 80,-181 80,-200"/>
<text text-anchor="middle" x="58" y="-188" font-family="Helvetica,sans-Serif" font-size="10.00">NJson</text>
</a>
</g>
</g>
<!-- dir_41cc9e0bb4f1115e1fe2e2758d2bc168 -->
<g id="node5" class="node">
<title>dir_41cc9e0bb4f1115e1fe2e2758d2bc168</title>
<text text-anchor="middle" x="177" y="-353" font-family="Helvetica,sans-Serif" font-size="10.00">Http</text>
</g>
<!-- dir_608161aafd2af5389d03134ffea49c9f -->
<g id="node9" class="node">
<title>dir_608161aafd2af5389d03134ffea49c9f</title>
<g id="a_node9"><a xlink:href="dir_608161aafd2af5389d03134ffea49c9f.html" target="_top" xlink:title="NHeaders">
<polygon fill="#4ea9ff" stroke="#404040" points="265.5,-310 200.5,-310 200.5,-291 265.5,-291 265.5,-310"/>
<text text-anchor="middle" x="233" y="-298" font-family="Helvetica,sans-Serif" font-size="10.00">NHeaders</text>
</a>
</g>
</g>
<!-- dir_41cc9e0bb4f1115e1fe2e2758d2bc168&#45;&gt;dir_608161aafd2af5389d03134ffea49c9f -->
<g id="edge3" class="edge">
<title>dir_41cc9e0bb4f1115e1fe2e2758d2bc168&#45;&gt;dir_608161aafd2af5389d03134ffea49c9f</title>
<g id="a_edge3"><a xlink:href="dir_000009_000012.html" target="_top">
<path fill="none" stroke="#63b8ff" d="M186,-345.98C194.19,-338.23 206.51,-326.58 216.47,-317.14"/>
<polygon fill="#63b8ff" stroke="#63b8ff" points="218.98,-319.59 223.84,-310.17 214.17,-314.5 218.98,-319.59"/>
</a>
</g>
<g id="a_edge3&#45;headlabel"><a xlink:href="dir_000009_000012.html" target="_top" xlink:title="20">
<text text-anchor="middle" x="218.32" y="-321.62" font-family="Helvetica,sans-Serif" font-size="10.00" fill="#63b8ff">20</text>
</a>
</g>
</g>
<!-- dir_2e6b931faf85af8d43b2b55a026921d7 -->
<g id="node10" class="node">
<title>dir_2e6b931faf85af8d43b2b55a026921d7</title>
<g id="a_node10"><a xlink:href="dir_2e6b931faf85af8d43b2b55a026921d7.html" target="_top" xlink:title="Request">
<polygon fill="#4ea9ff" stroke="#404040" points="206,-90 150,-90 150,-71 206,-71 206,-90"/>
<text text-anchor="middle" x="178" y="-78" font-family="Helvetica,sans-Serif" font-size="10.00">Request</text>
</a>
</g>
</g>
<!-- dir_41cc9e0bb4f1115e1fe2e2758d2bc168&#45;&gt;dir_2e6b931faf85af8d43b2b55a026921d7 -->
<g id="edge2" class="edge">
<title>dir_41cc9e0bb4f1115e1fe2e2758d2bc168&#45;&gt;dir_2e6b931faf85af8d43b2b55a026921d7</title>
<g id="a_edge2"><a xlink:href="dir_000009_000017.html" target="_top">
<path fill="none" stroke="#63b8ff" d="M157.93,-348.32C141.14,-341.75 117.75,-329.56 107,-310 102.93,-302.6 106.13,-299.4 107,-291 114.76,-215.94 113.9,-193.81 147,-126 151.74,-116.29 158.46,-106.34 164.44,-98.32"/>
<polygon fill="#63b8ff" stroke="#63b8ff" points="167.37,-100.25 170.72,-90.19 161.83,-95.96 167.37,-100.25"/>
</a>
</g>
<g id="a_edge2&#45;headlabel"><a xlink:href="dir_000009_000017.html" target="_top" xlink:title="3">
<text text-anchor="middle" x="167.42" y="-102.33" font-family="Helvetica,sans-Serif" font-size="10.00" fill="#63b8ff">3</text>
</a>
</g>
</g>
<!-- dir_2b930848939edf81047ea3b73a2c6d36 -->
<g id="node11" class="node">
<title>dir_2b930848939edf81047ea3b73a2c6d36</title>
<g id="a_node11"><a xlink:href="dir_2b930848939edf81047ea3b73a2c6d36.html" target="_top" xlink:title="Response">
<polygon fill="#4ea9ff" stroke="#404040" points="200,-255 136,-255 136,-236 200,-236 200,-255"/>
<text text-anchor="middle" x="168" y="-243" font-family="Helvetica,sans-Serif" font-size="10.00">Response</text>
</a>
</g>
</g>
<!-- dir_41cc9e0bb4f1115e1fe2e2758d2bc168&#45;&gt;dir_2b930848939edf81047ea3b73a2c6d36 -->
<g id="edge1" class="edge">
<title>dir_41cc9e0bb4f1115e1fe2e2758d2bc168&#45;&gt;dir_2b930848939edf81047ea3b73a2c6d36</title>
<g id="a_edge1"><a xlink:href="dir_000009_000019.html" target="_top">
<path fill="none" stroke="#63b8ff" d="M176.26,-345.66C174.81,-328.17 171.53,-288.8 169.56,-265.27"/>
<polygon fill="#63b8ff" stroke="#63b8ff" points="173.04,-264.83 168.72,-255.16 166.06,-265.41 173.04,-264.83"/>
</a>
</g>
<g id="a_edge1&#45;headlabel"><a xlink:href="dir_000009_000019.html" target="_top" xlink:title="4">
<text text-anchor="middle" x="176.17" y="-265.68" font-family="Helvetica,sans-Serif" font-size="10.00" fill="#63b8ff">4</text>
</a>
</g>
</g>
<!-- dir_6d460459f27754ca35b4b479a204ef1f -->
<g id="node6" class="node">
<title>dir_6d460459f27754ca35b4b479a204ef1f</title>
<g id="a_node6"><a xlink:href="dir_6d460459f27754ca35b4b479a204ef1f.html" target="_top" xlink:title="_base">
<polygon fill="#4ea9ff" stroke="#404040" points="259.5,-365 214.5,-365 214.5,-346 259.5,-346 259.5,-365"/>
<text text-anchor="middle" x="237" y="-353" font-family="Helvetica,sans-Serif" font-size="10.00">_base</text>
</a>
</g>
</g>
<!-- dir_6d460459f27754ca35b4b479a204ef1f&#45;&gt;dir_608161aafd2af5389d03134ffea49c9f -->
<g id="edge4" class="edge">
<title>dir_6d460459f27754ca35b4b479a204ef1f&#45;&gt;dir_608161aafd2af5389d03134ffea49c9f</title>
<g id="a_edge4"><a xlink:href="dir_000000_000012.html" target="_top">
<path fill="none" stroke="#63b8ff" d="M236.34,-345.75C235.82,-338.8 235.06,-328.85 234.41,-320.13"/>
<polygon fill="#63b8ff" stroke="#63b8ff" points="237.89,-319.8 233.65,-310.09 230.91,-320.32 237.89,-319.8"/>
</a>
</g>
<g id="a_edge4&#45;headlabel"><a xlink:href="dir_000000_000012.html" target="_top" xlink:title="1">
<text text-anchor="middle" x="240.99" y="-320.67" font-family="Helvetica,sans-Serif" font-size="10.00" fill="#63b8ff">1</text>
</a>
</g>
</g>
<!-- dir_34181a9d08d1fd632c23cab62e0cd30c -->
<g id="node7" class="node">
<title>dir_34181a9d08d1fd632c23cab62e0cd30c</title>
<g id="a_node7"><a xlink:href="dir_34181a9d08d1fd632c23cab62e0cd30c.html" target="_top" xlink:title="Client">
<polygon fill="#4ea9ff" stroke="#404040" points="161.5,-310 116.5,-310 116.5,-291 161.5,-291 161.5,-310"/>
<text text-anchor="middle" x="139" y="-298" font-family="Helvetica,sans-Serif" font-size="10.00">Client</text>
</a>
</g>
</g>
<!-- dir_34181a9d08d1fd632c23cab62e0cd30c&#45;&gt;dir_2e6b931faf85af8d43b2b55a026921d7 -->
<g id="edge6" class="edge">
<title>dir_34181a9d08d1fd632c23cab62e0cd30c&#45;&gt;dir_2e6b931faf85af8d43b2b55a026921d7</title>
<g id="a_edge6"><a xlink:href="dir_000004_000017.html" target="_top">
<path fill="none" stroke="#63b8ff" d="M135.91,-290.77C132.95,-281.9 128.68,-267.69 127,-255 125.89,-246.63 126.09,-244.4 127,-236 132.53,-184.7 156.13,-127.95 169.2,-99.64"/>
<polygon fill="#63b8ff" stroke="#63b8ff" points="172.53,-100.8 173.64,-90.26 166.2,-97.81 172.53,-100.8"/>
</a>
</g>
<g id="a_edge6&#45;headlabel"><a xlink:href="dir_000004_000017.html" target="_top" xlink:title="1">
<text text-anchor="middle" x="173.56" y="-102.76" font-family="Helvetica,sans-Serif" font-size="10.00" fill="#63b8ff">1</text>
</a>
</g>
</g>
<!-- dir_34181a9d08d1fd632c23cab62e0cd30c&#45;&gt;dir_2b930848939edf81047ea3b73a2c6d36 -->
<g id="edge5" class="edge">
<title>dir_34181a9d08d1fd632c23cab62e0cd30c&#45;&gt;dir_2b930848939edf81047ea3b73a2c6d36</title>
<g id="a_edge5"><a xlink:href="dir_000004_000019.html" target="_top">
<path fill="none" stroke="#63b8ff" d="M143.79,-290.75C147.76,-283.49 153.53,-272.95 158.43,-263.98"/>
<polygon fill="#63b8ff" stroke="#63b8ff" points="161.57,-265.54 163.3,-255.09 155.43,-262.18 161.57,-265.54"/>
</a>
</g>
<g id="a_edge5&#45;headlabel"><a xlink:href="dir_000004_000019.html" target="_top" xlink:title="1">
<text text-anchor="middle" x="162.34" y="-267.56" font-family="Helvetica,sans-Serif" font-size="10.00" fill="#63b8ff">1</text>
</a>
</g>
</g>
<!-- dir_09d6a22b96cbdd451a8a41c9804b07f2 -->
<g id="node8" class="node">
<title>dir_09d6a22b96cbdd451a8a41c9804b07f2</title>
<g id="a_node8"><a xlink:href="dir_09d6a22b96cbdd451a8a41c9804b07f2.html" target="_top" xlink:title="Methods">
<polygon fill="#4ea9ff" stroke="#404040" points="207.5,-200 148.5,-200 148.5,-181 207.5,-181 207.5,-200"/>
<text text-anchor="middle" x="178" y="-188" font-family="Helvetica,sans-Serif" font-size="10.00">Methods</text>
</a>
</g>
</g>
<!-- dir_09d6a22b96cbdd451a8a41c9804b07f2&#45;&gt;dir_608161aafd2af5389d03134ffea49c9f -->
<g id="edge8" class="edge">
<title>dir_09d6a22b96cbdd451a8a41c9804b07f2&#45;&gt;dir_608161aafd2af5389d03134ffea49c9f</title>
<g id="a_edge8"><a xlink:href="dir_000011_000012.html" target="_top">
<path fill="none" stroke="#63b8ff" d="M185.1,-200.28C191.88,-208.97 202.07,-222.84 209,-236 216.73,-250.66 223.21,-268.38 227.48,-281.37"/>
<polygon fill="#63b8ff" stroke="#63b8ff" points="224.17,-282.52 230.52,-291 230.84,-280.41 224.17,-282.52"/>
</a>
</g>
<g id="a_edge8&#45;headlabel"><a xlink:href="dir_000011_000012.html" target="_top" xlink:title="1">
<text text-anchor="middle" x="220.38" y="-277.45" font-family="Helvetica,sans-Serif" font-size="10.00" fill="#63b8ff">1</text>
</a>
</g>
</g>
<!-- dir_09d6a22b96cbdd451a8a41c9804b07f2&#45;&gt;dir_2b930848939edf81047ea3b73a2c6d36 -->
<g id="edge7" class="edge">
<title>dir_09d6a22b96cbdd451a8a41c9804b07f2&#45;&gt;dir_2b930848939edf81047ea3b73a2c6d36</title>
<g id="a_edge7"><a xlink:href="dir_000011_000019.html" target="_top">
<path fill="none" stroke="#63b8ff" d="M181.51,-200.09C181.72,-207.06 180.26,-217.15 177.97,-225.95"/>
<polygon fill="#63b8ff" stroke="#63b8ff" points="174.55,-225.16 174.82,-235.75 181.21,-227.3 174.55,-225.16"/>
</a>
</g>
<g id="a_edge7&#45;headlabel"><a xlink:href="dir_000011_000019.html" target="_top" xlink:title="1">
<text text-anchor="middle" x="172.95" y="-218.36" font-family="Helvetica,sans-Serif" font-size="10.00" fill="#63b8ff">1</text>
</a>
</g>
</g>
<!-- dir_f0d5f9c2813ecd5c8dcd2e2ff3dca0a2 -->
<g id="node12" class="node">
<title>dir_f0d5f9c2813ecd5c8dcd2e2ff3dca0a2</title>
<g id="a_node12"><a xlink:href="dir_f0d5f9c2813ecd5c8dcd2e2ff3dca0a2.html" target="_top" xlink:title="Url">
<polygon fill="#4ea9ff" stroke="#404040" points="259.5,-145 228.5,-145 228.5,-126 259.5,-126 259.5,-145"/>
<text text-anchor="middle" x="244" y="-133" font-family="Helvetica,sans-Serif" font-size="10.00">Url</text>
</a>
</g>
</g>
<!-- dir_09d6a22b96cbdd451a8a41c9804b07f2&#45;&gt;dir_f0d5f9c2813ecd5c8dcd2e2ff3dca0a2 -->
<g id="edge9" class="edge">
<title>dir_09d6a22b96cbdd451a8a41c9804b07f2&#45;&gt;dir_f0d5f9c2813ecd5c8dcd2e2ff3dca0a2</title>
<g id="a_edge9"><a xlink:href="dir_000011_000022.html" target="_top">
<path fill="none" stroke="#63b8ff" d="M188.6,-180.98C198.46,-173.07 213.35,-161.11 225.22,-151.58"/>
<polygon fill="#63b8ff" stroke="#63b8ff" points="227.6,-154.16 233.2,-145.17 223.21,-148.7 227.6,-154.16"/>
</a>
</g>
<g id="a_edge9&#45;headlabel"><a xlink:href="dir_000011_000022.html" target="_top" xlink:title="1">
<text text-anchor="middle" x="226.57" y="-156.13" font-family="Helvetica,sans-Serif" font-size="10.00" fill="#63b8ff">1</text>
</a>
</g>
</g>
<!-- dir_608161aafd2af5389d03134ffea49c9f&#45;&gt;dir_2d830115d85308f46eeefe3ce749e641 -->
<g id="edge11" class="edge">
<title>dir_608161aafd2af5389d03134ffea49c9f&#45;&gt;dir_2d830115d85308f46eeefe3ce749e641</title>
<g id="a_edge11"><a xlink:href="dir_000012_000023.html" target="_top">
<path fill="none" stroke="#63b8ff" d="M236.58,-290.7C240.16,-281.78 245.74,-267.53 250,-255 269.03,-199.08 288.13,-131.81 296.95,-99.95"/>
<polygon fill="#63b8ff" stroke="#63b8ff" points="300.35,-100.81 299.63,-90.24 293.6,-98.95 300.35,-100.81"/>
</a>
</g>
<g id="a_edge11&#45;headlabel"><a xlink:href="dir_000012_000023.html" target="_top" xlink:title="4">
<text text-anchor="middle" x="302.13" y="-102.53" font-family="Helvetica,sans-Serif" font-size="10.00" fill="#63b8ff">4</text>
</a>
</g>
</g>
<!-- dir_608161aafd2af5389d03134ffea49c9f&#45;&gt;dir_430990ec024f593b7bce39ce7b4461bb -->
<g id="edge13" class="edge">
<title>dir_608161aafd2af5389d03134ffea49c9f&#45;&gt;dir_430990ec024f593b7bce39ce7b4461bb</title>
<g id="a_edge13"><a xlink:href="dir_000012_000020.html" target="_top">
<path fill="none" stroke="#63b8ff" d="M247.14,-290.98C260.79,-282.77 281.69,-270.18 297.78,-260.49"/>
<polygon fill="#63b8ff" stroke="#63b8ff" points="299.84,-263.33 306.6,-255.17 296.23,-257.33 299.84,-263.33"/>
</a>
</g>
<g id="a_edge13&#45;headlabel"><a xlink:href="dir_000012_000020.html" target="_top" xlink:title="1">
<text text-anchor="middle" x="298.23" y="-265.11" font-family="Helvetica,sans-Serif" font-size="10.00" fill="#63b8ff">1</text>
</a>
</g>
</g>
<!-- dir_608161aafd2af5389d03134ffea49c9f&#45;&gt;dir_2b930848939edf81047ea3b73a2c6d36 -->
<g id="edge10" class="edge">
<title>dir_608161aafd2af5389d03134ffea49c9f&#45;&gt;dir_2b930848939edf81047ea3b73a2c6d36</title>
<g id="a_edge10"><a xlink:href="dir_000012_000019.html" target="_top">
<path fill="none" stroke="#63b8ff" d="M217.44,-290.98C206.22,-283.23 191.56,-271.58 180.97,-262.14"/>
<polygon fill="#63b8ff" stroke="#63b8ff" points="183.19,-259.43 173.48,-255.17 178.41,-264.55 183.19,-259.43"/>
</a>
</g>
<g id="a_edge10&#45;headlabel"><a xlink:href="dir_000012_000019.html" target="_top" xlink:title="1">
<text text-anchor="middle" x="187.75" y="-257.3" font-family="Helvetica,sans-Serif" font-size="10.00" fill="#63b8ff">1</text>
</a>
</g>
</g>
<!-- dir_608161aafd2af5389d03134ffea49c9f&#45;&gt;dir_f0d5f9c2813ecd5c8dcd2e2ff3dca0a2 -->
<g id="edge12" class="edge">
<title>dir_608161aafd2af5389d03134ffea49c9f&#45;&gt;dir_f0d5f9c2813ecd5c8dcd2e2ff3dca0a2</title>
<g id="a_edge12"><a xlink:href="dir_000012_000022.html" target="_top">
<path fill="none" stroke="#63b8ff" d="M235.83,-290.75C238.55,-281.86 242.46,-267.64 244,-255 248.25,-220.06 246.82,-178.89 245.4,-155.43"/>
<polygon fill="#63b8ff" stroke="#63b8ff" points="248.88,-154.91 244.71,-145.17 241.89,-155.38 248.88,-154.91"/>
</a>
</g>
<g id="a_edge12&#45;headlabel"><a xlink:href="dir_000012_000022.html" target="_top" xlink:title="1">
<text text-anchor="middle" x="251.95" y="-155.81" font-family="Helvetica,sans-Serif" font-size="10.00" fill="#63b8ff">1</text>
</a>
</g>
</g>
<!-- dir_2e6b931faf85af8d43b2b55a026921d7&#45;&gt;dir_3c6a022a7e9432f24aa2201eb84947de -->
<g id="edge15" class="edge">
<title>dir_2e6b931faf85af8d43b2b55a026921d7&#45;&gt;dir_3c6a022a7e9432f24aa2201eb84947de</title>
<g id="a_edge15"><a xlink:href="dir_000017_000005.html" target="_top">
<path fill="none" stroke="#63b8ff" d="M165.63,-70.98C153.91,-62.92 136.08,-50.65 122.11,-41.03"/>
<polygon fill="#63b8ff" stroke="#63b8ff" points="123.82,-37.96 113.6,-35.17 119.85,-43.72 123.82,-37.96"/>
</a>
</g>
<g id="a_edge15&#45;headlabel"><a xlink:href="dir_000017_000005.html" target="_top" xlink:title="1">
<text text-anchor="middle" x="128.39" y="-35.16" font-family="Helvetica,sans-Serif" font-size="10.00" fill="#63b8ff">1</text>
</a>
</g>
</g>
<!-- dir_2e6b931faf85af8d43b2b55a026921d7&#45;&gt;dir_09d6a22b96cbdd451a8a41c9804b07f2 -->
<g id="edge14" class="edge">
<title>dir_2e6b931faf85af8d43b2b55a026921d7&#45;&gt;dir_09d6a22b96cbdd451a8a41c9804b07f2</title>
<g id="a_edge14"><a xlink:href="dir_000017_000011.html" target="_top">
<path fill="none" stroke="#63b8ff" d="M178,-90.16C178,-107.5 178,-146.84 178,-170.48"/>
<polygon fill="#63b8ff" stroke="#63b8ff" points="174.5,-170.66 178,-180.66 181.5,-170.66 174.5,-170.66"/>
</a>
</g>
<g id="a_edge14&#45;headlabel"><a xlink:href="dir_000017_000011.html" target="_top" xlink:title="2">
<text text-anchor="middle" x="171.66" y="-164.57" font-family="Helvetica,sans-Serif" font-size="10.00" fill="#63b8ff">2</text>
</a>
</g>
</g>
<!-- dir_2e6b931faf85af8d43b2b55a026921d7&#45;&gt;dir_608161aafd2af5389d03134ffea49c9f -->
<g id="edge16" class="edge">
<title>dir_2e6b931faf85af8d43b2b55a026921d7&#45;&gt;dir_608161aafd2af5389d03134ffea49c9f</title>
<g id="a_edge16"><a xlink:href="dir_000017_000012.html" target="_top">
<path fill="none" stroke="#63b8ff" d="M182.02,-90.07C189.82,-107.04 207,-146.27 216,-181 224.96,-215.58 229.55,-257.14 231.6,-280.72"/>
<polygon fill="#63b8ff" stroke="#63b8ff" points="228.12,-281.06 232.41,-290.75 235.1,-280.5 228.12,-281.06"/>
</a>
</g>
<g id="a_edge16&#45;headlabel"><a xlink:href="dir_000017_000012.html" target="_top" xlink:title="2">
<text text-anchor="middle" x="225" y="-275.21" font-family="Helvetica,sans-Serif" font-size="10.00" fill="#63b8ff">2</text>
</a>
</g>
</g>
<!-- dir_2e6b931faf85af8d43b2b55a026921d7&#45;&gt;dir_f0d5f9c2813ecd5c8dcd2e2ff3dca0a2 -->
<g id="edge17" class="edge">
<title>dir_2e6b931faf85af8d43b2b55a026921d7&#45;&gt;dir_f0d5f9c2813ecd5c8dcd2e2ff3dca0a2</title>
<g id="a_edge17"><a xlink:href="dir_000017_000022.html" target="_top">
<path fill="none" stroke="#63b8ff" d="M193.83,-90.09C205.16,-97.83 219.94,-109.41 230.67,-118.8"/>
<polygon fill="#63b8ff" stroke="#63b8ff" points="228.53,-121.58 238.27,-125.75 233.25,-116.42 228.53,-121.58"/>
</a>
</g>
<g id="a_edge17&#45;headlabel"><a xlink:href="dir_000017_000022.html" target="_top" xlink:title="2">
<text text-anchor="middle" x="223.96" y="-118.75" font-family="Helvetica,sans-Serif" font-size="10.00" fill="#63b8ff">2</text>
</a>
</g>
</g>
<!-- dir_2b930848939edf81047ea3b73a2c6d36&#45;&gt;dir_3c6a022a7e9432f24aa2201eb84947de -->
<g id="edge20" class="edge">
<title>dir_2b930848939edf81047ea3b73a2c6d36&#45;&gt;dir_3c6a022a7e9432f24aa2201eb84947de</title>
<g id="a_edge20"><a xlink:href="dir_000019_000005.html" target="_top">
<path fill="none" stroke="#63b8ff" d="M135.8,-244.53C102.44,-242.61 51.81,-233.85 27,-200 -10.84,-148.38 52.23,-74.46 84.18,-42.37"/>
<polygon fill="#63b8ff" stroke="#63b8ff" points="86.86,-44.65 91.56,-35.15 81.96,-39.65 86.86,-44.65"/>
</a>
</g>
<g id="a_edge20&#45;headlabel"><a xlink:href="dir_000019_000005.html" target="_top" xlink:title="1">
<text text-anchor="middle" x="86.28" y="-46.69" font-family="Helvetica,sans-Serif" font-size="10.00" fill="#63b8ff">1</text>
</a>
</g>
</g>
<!-- dir_2b930848939edf81047ea3b73a2c6d36&#45;&gt;dir_0548d2bb7dd208758f91f985569944be -->
<g id="edge18" class="edge">
<title>dir_2b930848939edf81047ea3b73a2c6d36&#45;&gt;dir_0548d2bb7dd208758f91f985569944be</title>
<g id="a_edge18"><a xlink:href="dir_000019_000013.html" target="_top">
<path fill="none" stroke="#63b8ff" d="M150.33,-235.98C132.71,-227.5 105.42,-214.35 85.07,-204.54"/>
<polygon fill="#63b8ff" stroke="#63b8ff" points="86.52,-201.36 75.99,-200.17 83.48,-207.66 86.52,-201.36"/>
</a>
</g>
<g id="a_edge18&#45;headlabel"><a xlink:href="dir_000019_000013.html" target="_top" xlink:title="1">
<text text-anchor="middle" x="90.99" y="-197.86" font-family="Helvetica,sans-Serif" font-size="10.00" fill="#63b8ff">1</text>
</a>
</g>
</g>
<!-- dir_2b930848939edf81047ea3b73a2c6d36&#45;&gt;dir_09d6a22b96cbdd451a8a41c9804b07f2 -->
<g id="edge19" class="edge">
<title>dir_2b930848939edf81047ea3b73a2c6d36&#45;&gt;dir_09d6a22b96cbdd451a8a41c9804b07f2</title>
<g id="a_edge19"><a xlink:href="dir_000019_000011.html" target="_top">
<path fill="none" stroke="#63b8ff" d="M164.48,-235.75C164.3,-228.72 165.78,-218.62 168.08,-209.84"/>
<polygon fill="#63b8ff" stroke="#63b8ff" points="171.49,-210.68 171.25,-200.09 164.83,-208.52 171.49,-210.68"/>
</a>
</g>
<g id="a_edge19&#45;headlabel"><a xlink:href="dir_000019_000011.html" target="_top" xlink:title="2">
<text text-anchor="middle" x="173.08" y="-212.48" font-family="Helvetica,sans-Serif" font-size="10.00" fill="#63b8ff">2</text>
</a>
</g>
</g>
<!-- dir_2b930848939edf81047ea3b73a2c6d36&#45;&gt;dir_608161aafd2af5389d03134ffea49c9f -->
<g id="edge21" class="edge">
<title>dir_2b930848939edf81047ea3b73a2c6d36&#45;&gt;dir_608161aafd2af5389d03134ffea49c9f</title>
<g id="a_edge21"><a xlink:href="dir_000019_000012.html" target="_top">
<path fill="none" stroke="#63b8ff" d="M183.66,-255.09C194.85,-262.83 209.41,-274.41 219.97,-283.8"/>
<polygon fill="#63b8ff" stroke="#63b8ff" points="217.73,-286.5 227.43,-290.75 222.5,-281.37 217.73,-286.5"/>
</a>
</g>
<g id="a_edge21&#45;headlabel"><a xlink:href="dir_000019_000012.html" target="_top" xlink:title="2">
<text text-anchor="middle" x="213.16" y="-283.62" font-family="Helvetica,sans-Serif" font-size="10.00" fill="#63b8ff">2</text>
</a>
</g>
</g>
<!-- dir_f0d5f9c2813ecd5c8dcd2e2ff3dca0a2&#45;&gt;dir_2d830115d85308f46eeefe3ce749e641 -->
<g id="edge22" class="edge">
<title>dir_f0d5f9c2813ecd5c8dcd2e2ff3dca0a2&#45;&gt;dir_2d830115d85308f46eeefe3ce749e641</title>
<g id="a_edge22"><a xlink:href="dir_000022_000023.html" target="_top">
<path fill="none" stroke="#63b8ff" d="M253.32,-125.98C261.81,-118.23 274.56,-106.58 284.88,-97.14"/>
<polygon fill="#63b8ff" stroke="#63b8ff" points="287.49,-99.5 292.51,-90.17 282.77,-94.33 287.49,-99.5"/>
</a>
</g>
<g id="a_edge22&#45;headlabel"><a xlink:href="dir_000022_000023.html" target="_top" xlink:title="1">
<text text-anchor="middle" x="286.75" y="-101.52" font-family="Helvetica,sans-Serif" font-size="10.00" fill="#63b8ff">1</text>
</a>
</g>
</g>
<!-- dir_f0d5f9c2813ecd5c8dcd2e2ff3dca0a2&#45;&gt;dir_2e6b931faf85af8d43b2b55a026921d7 -->
<g id="edge23" class="edge">
<title>dir_f0d5f9c2813ecd5c8dcd2e2ff3dca0a2&#45;&gt;dir_2e6b931faf85af8d43b2b55a026921d7</title>
<g id="a_edge23"><a xlink:href="dir_000022_000017.html" target="_top">
<path fill="none" stroke="#63b8ff" d="M228.28,-125.98C216.91,-118.23 202.03,-106.58 191.26,-97.14"/>
<polygon fill="#63b8ff" stroke="#63b8ff" points="193.39,-94.34 183.65,-90.17 188.66,-99.51 193.39,-94.34"/>
</a>
</g>
<g id="a_edge23&#45;headlabel"><a xlink:href="dir_000022_000017.html" target="_top" xlink:title="1">
<text text-anchor="middle" x="197.96" y="-92.18" font-family="Helvetica,sans-Serif" font-size="10.00" fill="#63b8ff">1</text>
</a>
</g>
</g>
</g>
</svg>
