<?xml version="1.0" encoding="UTF-8" standalone="no"?>
<!DOCTYPE svg PUBLIC "-//W3C//DTD SVG 1.1//EN"
 "http://www.w3.org/Graphics/SVG/1.1/DTD/svg11.dtd">
<!-- Generated by graphviz version 2.43.0 (0)
 -->
<!-- Title: include/Thoth Pages: 1 -->
<svg width="178pt" height="259pt"
 viewBox="0.00 0.00 178.00 259.00" xmlns="http://www.w3.org/2000/svg" xmlns:xlink="http://www.w3.org/1999/xlink">
<g id="graph0" class="graph" transform="scale(1 1) rotate(0) translate(4 255)">
<title>include/Thoth</title>
<g id="clust1" class="cluster">
<title>clusterdir_d44c64559bbebec7f509842c48db8b23</title>
<g id="a_clust1"><a xlink:href="dir_d44c64559bbebec7f509842c48db8b23.html" target="_top" xlink:title="include">
<polygon fill="#daedff" stroke="#404040" stroke-dasharray="5,2" points="8,-8 8,-243 162,-243 162,-8 8,-8"/>
<text text-anchor="middle" x="85" y="-231" font-family="Helvetica,sans-Serif" font-size="10.00">include</text>
</a>
</g>
</g>
<g id="clust2" class="cluster">
<title>clusterdir_c6a74f695d865e6872ff805f8280c9af</title>
<g id="a_clust2"><a xlink:href="dir_c6a74f695d865e6872ff805f8280c9af.html" target="_top">
<polygon fill="#daedff" stroke="#404040" stroke-width="2" points="16,-16 16,-216 154,-216 154,-16 16,-16"/>
</a>
</g>
</g>
<!-- dir_c6a74f695d865e6872ff805f8280c9af -->
<g id="node1" class="node">
<title>dir_c6a74f695d865e6872ff805f8280c9af</title>
<text text-anchor="middle" x="124" y="-196" font-family="Helvetica,sans-Serif" font-size="10.00">Thoth</text>
</g>
<!-- dir_3c6a022a7e9432f24aa2201eb84947de -->
<g id="node2" class="node">
<title>dir_3c6a022a7e9432f24aa2201eb84947de</title>
<g id="a_node2"><a xlink:href="dir_3c6a022a7e9432f24aa2201eb84947de.html" target="_top" xlink:title="Dsa">
<polygon fill="#4ea9ff" stroke="#404040" points="83.5,-208 48.5,-208 48.5,-189 83.5,-189 83.5,-208"/>
<text text-anchor="middle" x="66" y="-196" font-family="Helvetica,sans-Serif" font-size="10.00">Dsa</text>
</a>
</g>
</g>
<!-- dir_41cc9e0bb4f1115e1fe2e2758d2bc168 -->
<g id="node3" class="node">
<title>dir_41cc9e0bb4f1115e1fe2e2758d2bc168</title>
<g id="a_node3"><a xlink:href="dir_41cc9e0bb4f1115e1fe2e2758d2bc168.html" target="_top" xlink:title="Http">
<polygon fill="#4ea9ff" stroke="#404040" points="85,-153 47,-153 47,-134 85,-134 85,-153"/>
<text text-anchor="middle" x="66" y="-141" font-family="Helvetica,sans-Serif" font-size="10.00">Http</text>
</a>
</g>
</g>
<!-- dir_3c6a022a7e9432f24aa2201eb84947de&#45;&gt;dir_41cc9e0bb4f1115e1fe2e2758d2bc168 -->
<g id="edge1" class="edge">
<title>dir_3c6a022a7e9432f24aa2201eb84947de&#45;&gt;dir_41cc9e0bb4f1115e1fe2e2758d2bc168</title>
<g id="a_edge1"><a xlink:href="dir_000002_000006.html" target="_top">
<path fill="none" stroke="#63b8ff" d="M60.83,-188.75C59.34,-181.8 58.9,-171.85 59.52,-163.13"/>
<polygon fill="#63b8ff" stroke="#63b8ff" points="63.01,-163.47 60.87,-153.09 56.07,-162.53 63.01,-163.47"/>
</a>
</g>
<g id="a_edge1&#45;headlabel"><a xlink:href="dir_000002_000006.html" target="_top" xlink:title="1">
<text text-anchor="middle" x="65.34" y="-164.91" font-family="Helvetica,sans-Serif" font-size="10.00" fill="#63b8ff">1</text>
</a>
</g>
</g>
<!-- dir_41cc9e0bb4f1115e1fe2e2758d2bc168&#45;&gt;dir_3c6a022a7e9432f24aa2201eb84947de -->
<g id="edge5" class="edge">
<title>dir_41cc9e0bb4f1115e1fe2e2758d2bc168&#45;&gt;dir_3c6a022a7e9432f24aa2201eb84947de</title>
<g id="a_edge5"><a xlink:href="dir_000006_000002.html" target="_top">
<path fill="none" stroke="#63b8ff" d="M71.13,-153.09C72.64,-159.99 73.09,-169.93 72.49,-178.66"/>
<polygon fill="#63b8ff" stroke="#63b8ff" points="69,-178.38 71.17,-188.75 75.94,-179.29 69,-178.38"/>
</a>
</g>
<g id="a_edge5&#45;headlabel"><a xlink:href="dir_000006_000002.html" target="_top" xlink:title="2">
<text text-anchor="middle" x="66.65" y="-171.94" font-family="Helvetica,sans-Serif" font-size="10.00" fill="#63b8ff">2</text>
</a>
</g>
</g>
<!-- dir_0548d2bb7dd208758f91f985569944be -->
<g id="node4" class="node">
<title>dir_0548d2bb7dd208758f91f985569944be</title>
<g id="a_node4"><a xlink:href="dir_0548d2bb7dd208758f91f985569944be.html" target="_top" xlink:title="NJson">
<polygon fill="#4ea9ff" stroke="#404040" points="146,-98 102,-98 102,-79 146,-79 146,-98"/>
<text text-anchor="middle" x="124" y="-86" font-family="Helvetica,sans-Serif" font-size="10.00">NJson</text>
</a>
</g>
</g>
<!-- dir_41cc9e0bb4f1115e1fe2e2758d2bc168&#45;&gt;dir_0548d2bb7dd208758f91f985569944be -->
<g id="edge2" class="edge">
<title>dir_41cc9e0bb4f1115e1fe2e2758d2bc168&#45;&gt;dir_0548d2bb7dd208758f91f985569944be</title>
<g id="a_edge2"><a xlink:href="dir_000006_000010.html" target="_top">
<path fill="none" stroke="#63b8ff" d="M70.41,-133.75C77.4,-125.8 90.09,-113.91 101.49,-104.45"/>
<polygon fill="#63b8ff" stroke="#63b8ff" points="103.83,-107.06 109.47,-98.09 99.47,-101.59 103.83,-107.06"/>
</a>
</g>
<g id="a_edge2&#45;headlabel"><a xlink:href="dir_000006_000010.html" target="_top" xlink:title="2">
<text text-anchor="middle" x="102.8" y="-109.02" font-family="Helvetica,sans-Serif" font-size="10.00" fill="#63b8ff">2</text>
</a>
</g>
</g>
<!-- dir_430990ec024f593b7bce39ce7b4461bb -->
<g id="node5" class="node">
<title>dir_430990ec024f593b7bce39ce7b4461bb</title>
<g id="a_node5"><a xlink:href="dir_430990ec024f593b7bce39ce7b4461bb.html" target="_top" xlink:title="String">
<polygon fill="#4ea9ff" stroke="#404040" points="77.5,-43 32.5,-43 32.5,-24 77.5,-24 77.5,-43"/>
<text text-anchor="middle" x="55" y="-31" font-family="Helvetica,sans-Serif" font-size="10.00">String</text>
</a>
</g>
</g>
<!-- dir_41cc9e0bb4f1115e1fe2e2758d2bc168&#45;&gt;dir_430990ec024f593b7bce39ce7b4461bb -->
<g id="edge3" class="edge">
<title>dir_41cc9e0bb4f1115e1fe2e2758d2bc168&#45;&gt;dir_430990ec024f593b7bce39ce7b4461bb</title>
<g id="a_edge3"><a xlink:href="dir_000006_000017.html" target="_top">
<path fill="none" stroke="#63b8ff" d="M57.52,-133.85C49.95,-125.47 39.4,-112.01 35,-98 30.09,-82.36 36.76,-64.56 43.69,-51.79"/>
<polygon fill="#63b8ff" stroke="#63b8ff" points="46.74,-53.51 48.84,-43.13 40.72,-49.93 46.74,-53.51"/>
</a>
</g>
<g id="a_edge3&#45;headlabel"><a xlink:href="dir_000006_000017.html" target="_top" xlink:title="1">
<text text-anchor="middle" x="47.34" y="-55.55" font-family="Helvetica,sans-Serif" font-size="10.00" fill="#63b8ff">1</text>
</a>
</g>
</g>
<!-- dir_2d830115d85308f46eeefe3ce749e641 -->
<g id="node6" class="node">
<title>dir_2d830115d85308f46eeefe3ce749e641</title>
<g id="a_node6"><a xlink:href="dir_2d830115d85308f46eeefe3ce749e641.html" target="_top" xlink:title="Utils">
<polygon fill="#4ea9ff" stroke="#404040" points="83.5,-98 44.5,-98 44.5,-79 83.5,-79 83.5,-98"/>
<text text-anchor="middle" x="64" y="-86" font-family="Helvetica,sans-Serif" font-size="10.00">Utils</text>
</a>
</g>
</g>
<!-- dir_41cc9e0bb4f1115e1fe2e2758d2bc168&#45;&gt;dir_2d830115d85308f46eeefe3ce749e641 -->
<g id="edge4" class="edge">
<title>dir_41cc9e0bb4f1115e1fe2e2758d2bc168&#45;&gt;dir_2d830115d85308f46eeefe3ce749e641</title>
<g id="a_edge4"><a xlink:href="dir_000006_000020.html" target="_top">
<path fill="none" stroke="#63b8ff" d="M65.67,-133.75C65.41,-126.8 65.03,-116.85 64.7,-108.13"/>
<polygon fill="#63b8ff" stroke="#63b8ff" points="68.2,-107.95 64.32,-98.09 61.2,-108.21 68.2,-107.95"/>
</a>
</g>
<g id="a_edge4&#45;headlabel"><a xlink:href="dir_000006_000020.html" target="_top" xlink:title="3">
<text text-anchor="middle" x="71.17" y="-108.93" font-family="Helvetica,sans-Serif" font-size="10.00" fill="#63b8ff">3</text>
</a>
</g>
</g>
<!-- dir_0548d2bb7dd208758f91f985569944be&#45;&gt;dir_3c6a022a7e9432f24aa2201eb84947de -->
<g id="edge6" class="edge">
<title>dir_0548d2bb7dd208758f91f985569944be&#45;&gt;dir_3c6a022a7e9432f24aa2201eb84947de</title>
<g id="a_edge6"><a xlink:href="dir_000010_000002.html" target="_top">
<path fill="none" stroke="#63b8ff" d="M120.25,-98.29C114.86,-110.7 104.43,-133.97 94,-153 88.95,-162.2 82.79,-172.12 77.53,-180.25"/>
<polygon fill="#63b8ff" stroke="#63b8ff" points="74.47,-178.54 71.9,-188.82 80.31,-182.39 74.47,-178.54"/>
</a>
</g>
<g id="a_edge6&#45;headlabel"><a xlink:href="dir_000010_000002.html" target="_top" xlink:title="2">
<text text-anchor="middle" x="74.07" y="-171.48" font-family="Helvetica,sans-Serif" font-size="10.00" fill="#63b8ff">2</text>
</a>
</g>
</g>
<!-- dir_0548d2bb7dd208758f91f985569944be&#45;&gt;dir_41cc9e0bb4f1115e1fe2e2758d2bc168 -->
<g id="edge7" class="edge">
<title>dir_0548d2bb7dd208758f91f985569944be&#45;&gt;dir_41cc9e0bb4f1115e1fe2e2758d2bc168</title>
<g id="a_edge7"><a xlink:href="dir_000010_000006.html" target="_top">
<path fill="none" stroke="#63b8ff" d="M119.66,-98.17C112.67,-106.13 99.9,-118.11 88.44,-127.6"/>
<polygon fill="#63b8ff" stroke="#63b8ff" points="86.07,-125.01 80.43,-133.98 90.44,-130.49 86.07,-125.01"/>
</a>
</g>
<g id="a_edge7&#45;headlabel"><a xlink:href="dir_000010_000006.html" target="_top" xlink:title="1">
<text text-anchor="middle" x="87.11" y="-118.05" font-family="Helvetica,sans-Serif" font-size="10.00" fill="#63b8ff">1</text>
</a>
</g>
</g>
<!-- dir_2d830115d85308f46eeefe3ce749e641&#45;&gt;dir_430990ec024f593b7bce39ce7b4461bb -->
<g id="edge8" class="edge">
<title>dir_2d830115d85308f46eeefe3ce749e641&#45;&gt;dir_430990ec024f593b7bce39ce7b4461bb</title>
<g id="a_edge8"><a xlink:href="dir_000020_000017.html" target="_top">
<path fill="none" stroke="#63b8ff" d="M62.51,-78.75C61.33,-71.8 59.64,-61.85 58.16,-53.13"/>
<polygon fill="#63b8ff" stroke="#63b8ff" points="61.58,-52.36 56.46,-43.09 54.68,-53.53 61.58,-52.36"/>
</a>
</g>
<g id="a_edge8&#45;headlabel"><a xlink:href="dir_000020_000017.html" target="_top" xlink:title="1">
<text text-anchor="middle" x="64.98" y="-52.93" font-family="Helvetica,sans-Serif" font-size="10.00" fill="#63b8ff">1</text>
</a>
</g>
</g>
</g>
</svg>
