<?xml version="1.0" encoding="UTF-8" standalone="no"?>
<!DOCTYPE svg PUBLIC "-//W3C//DTD SVG 1.1//EN"
 "http://www.w3.org/Graphics/SVG/1.1/DTD/svg11.dtd">
<!-- Generated by graphviz version 2.43.0 (0)
 -->
<!-- Title: include/Thoth/Http Pages: 1 -->
<svg width="364pt" height="361pt"
 viewBox="0.00 0.00 364.00 361.00" xmlns="http://www.w3.org/2000/svg" xmlns:xlink="http://www.w3.org/1999/xlink">
<g id="graph0" class="graph" transform="scale(1 1) rotate(0) translate(4 357)">
<title>include/Thoth/Http</title>
<g id="clust1" class="cluster">
<title>clusterdir_c6a74f695d865e6872ff805f8280c9af</title>
<g id="a_clust1"><a xlink:href="dir_c6a74f695d865e6872ff805f8280c9af.html" target="_top" xlink:title="Thoth">
<polygon fill="#daedff" stroke="#7f7f7f" stroke-dasharray="5,2" points="8,-8 8,-345 348,-345 348,-8 8,-8"/>
<text text-anchor="middle" x="178" y="-333" font-family="Helvetica,sans-Serif" font-size="10.00">Thoth</text>
</a>
</g>
</g>
<g id="clust2" class="cluster">
<title>clusterdir_41cc9e0bb4f1115e1fe2e2758d2bc168</title>
<g id="a_clust2"><a xlink:href="dir_41cc9e0bb4f1115e1fe2e2758d2bc168.html" target="_top">
<polygon fill="#daedff" stroke="#404040" stroke-width="2" points="84,-63 84,-318 266,-318 266,-63 84,-63"/>
</a>
</g>
</g>
<!-- dir_0548d2bb7dd208758f91f985569944be -->
<g id="node1" class="node">
<title>dir_0548d2bb7dd208758f91f985569944be</title>
<g id="a_node1"><a xlink:href="dir_0548d2bb7dd208758f91f985569944be.html" target="_top" xlink:title="NJson">
<polygon fill="#4ea9ff" stroke="#404040" points="289,-35 245,-35 245,-16 289,-16 289,-35"/>
<text text-anchor="middle" x="267" y="-23" font-family="Helvetica,sans-Serif" font-size="10.00">NJson</text>
</a>
</g>
</g>
<!-- dir_430990ec024f593b7bce39ce7b4461bb -->
<g id="node2" class="node">
<title>dir_430990ec024f593b7bce39ce7b4461bb</title>
<g id="a_node2"><a xlink:href="dir_430990ec024f593b7bce39ce7b4461bb.html" target="_top" xlink:title="String">
<polygon fill="#4ea9ff" stroke="#404040" points="319.5,-90 274.5,-90 274.5,-71 319.5,-71 319.5,-90"/>
<text text-anchor="middle" x="297" y="-78" font-family="Helvetica,sans-Serif" font-size="10.00">String</text>
</a>
</g>
</g>
<!-- dir_2d830115d85308f46eeefe3ce749e641 -->
<g id="node3" class="node">
<title>dir_2d830115d85308f46eeefe3ce749e641</title>
<g id="a_node3"><a xlink:href="dir_2d830115d85308f46eeefe3ce749e641.html" target="_top" xlink:title="Utils">
<polygon fill="#4ea9ff" stroke="red" points="75.5,-90 36.5,-90 36.5,-71 75.5,-71 75.5,-90"/>
<text text-anchor="middle" x="56" y="-78" font-family="Helvetica,sans-Serif" font-size="10.00">Utils</text>
</a>
</g>
</g>
<!-- dir_3c6a022a7e9432f24aa2201eb84947de -->
<g id="node4" class="node">
<title>dir_3c6a022a7e9432f24aa2201eb84947de</title>
<g id="a_node4"><a xlink:href="dir_3c6a022a7e9432f24aa2201eb84947de.html" target="_top" xlink:title="Dsa">
<polygon fill="#4ea9ff" stroke="#404040" points="164.5,-35 129.5,-35 129.5,-16 164.5,-16 164.5,-35"/>
<text text-anchor="middle" x="147" y="-23" font-family="Helvetica,sans-Serif" font-size="10.00">Dsa</text>
</a>
</g>
</g>
<!-- dir_41cc9e0bb4f1115e1fe2e2758d2bc168 -->
<g id="node5" class="node">
<title>dir_41cc9e0bb4f1115e1fe2e2758d2bc168</title>
<text text-anchor="middle" x="239" y="-298" font-family="Helvetica,sans-Serif" font-size="10.00">Http</text>
</g>
<!-- dir_41cc9e0bb4f1115e1fe2e2758d2bc168&#45;&gt;dir_0548d2bb7dd208758f91f985569944be -->
<g id="edge1" class="edge">
<title>dir_41cc9e0bb4f1115e1fe2e2758d2bc168&#45;&gt;dir_0548d2bb7dd208758f91f985569944be</title>
<g id="a_edge1"><a xlink:href="dir_000006_000010.html" target="_top">
<path fill="none" stroke="#63b8ff" d="M256.42,-290.86C285.07,-275.27 339,-239.54 339,-191.5 339,-191.5 339,-191.5 339,-134.5 339,-102.41 346.82,-89.68 329,-63 321.68,-52.04 309.87,-43.92 298.51,-38.16"/>
<polygon fill="#63b8ff" stroke="#63b8ff" points="299.73,-34.86 289.18,-33.86 296.8,-41.22 299.73,-34.86"/>
</a>
</g>
<g id="a_edge1&#45;headlabel"><a xlink:href="dir_000006_000010.html" target="_top" xlink:title="2">
<text text-anchor="middle" x="304.18" y="-31.29" font-family="Helvetica,sans-Serif" font-size="10.00" fill="#63b8ff">2</text>
</a>
</g>
</g>
<!-- dir_2e6b931faf85af8d43b2b55a026921d7 -->
<g id="node8" class="node">
<title>dir_2e6b931faf85af8d43b2b55a026921d7</title>
<g id="a_node8"><a xlink:href="dir_2e6b931faf85af8d43b2b55a026921d7.html" target="_top" xlink:title="Request">
<polygon fill="#4ea9ff" stroke="#404040" points="158,-255 102,-255 102,-236 158,-236 158,-255"/>
<text text-anchor="middle" x="130" y="-243" font-family="Helvetica,sans-Serif" font-size="10.00">Request</text>
</a>
</g>
</g>
<!-- dir_41cc9e0bb4f1115e1fe2e2758d2bc168&#45;&gt;dir_2e6b931faf85af8d43b2b55a026921d7 -->
<g id="edge3" class="edge">
<title>dir_41cc9e0bb4f1115e1fe2e2758d2bc168&#45;&gt;dir_2e6b931faf85af8d43b2b55a026921d7</title>
<g id="a_edge3"><a xlink:href="dir_000006_000014.html" target="_top">
<path fill="none" stroke="#63b8ff" d="M221.49,-290.98C204.03,-282.5 176.99,-269.35 156.83,-259.54"/>
<polygon fill="#63b8ff" stroke="#63b8ff" points="158.36,-256.4 147.83,-255.17 155.29,-262.69 158.36,-256.4"/>
</a>
</g>
<g id="a_edge3&#45;headlabel"><a xlink:href="dir_000006_000014.html" target="_top" xlink:title="3">
<text text-anchor="middle" x="162.83" y="-252.91" font-family="Helvetica,sans-Serif" font-size="10.00" fill="#63b8ff">3</text>
</a>
</g>
</g>
<!-- dir_2b930848939edf81047ea3b73a2c6d36 -->
<g id="node9" class="node">
<title>dir_2b930848939edf81047ea3b73a2c6d36</title>
<g id="a_node9"><a xlink:href="dir_2b930848939edf81047ea3b73a2c6d36.html" target="_top" xlink:title="Response">
<polygon fill="#4ea9ff" stroke="#404040" points="249,-90 185,-90 185,-71 249,-71 249,-90"/>
<text text-anchor="middle" x="217" y="-78" font-family="Helvetica,sans-Serif" font-size="10.00">Response</text>
</a>
</g>
</g>
<!-- dir_41cc9e0bb4f1115e1fe2e2758d2bc168&#45;&gt;dir_2b930848939edf81047ea3b73a2c6d36 -->
<g id="edge2" class="edge">
<title>dir_41cc9e0bb4f1115e1fe2e2758d2bc168&#45;&gt;dir_2b930848939edf81047ea3b73a2c6d36</title>
<g id="a_edge2"><a xlink:href="dir_000006_000016.html" target="_top">
<path fill="none" stroke="#63b8ff" d="M239.77,-290.72C241.81,-265.05 246.38,-188.06 234,-126 232.2,-116.98 228.75,-107.39 225.43,-99.44"/>
<polygon fill="#63b8ff" stroke="#63b8ff" points="228.55,-97.82 221.29,-90.11 222.15,-100.67 228.55,-97.82"/>
</a>
</g>
<g id="a_edge2&#45;headlabel"><a xlink:href="dir_000006_000016.html" target="_top" xlink:title="3">
<text text-anchor="middle" x="232.6" y="-97.46" font-family="Helvetica,sans-Serif" font-size="10.00" fill="#63b8ff">3</text>
</a>
</g>
</g>
<!-- dir_09d6a22b96cbdd451a8a41c9804b07f2 -->
<g id="node6" class="node">
<title>dir_09d6a22b96cbdd451a8a41c9804b07f2</title>
<g id="a_node6"><a xlink:href="dir_09d6a22b96cbdd451a8a41c9804b07f2.html" target="_top" xlink:title="Methods">
<polygon fill="#4ea9ff" stroke="#404040" points="208.5,-200 149.5,-200 149.5,-181 208.5,-181 208.5,-200"/>
<text text-anchor="middle" x="179" y="-188" font-family="Helvetica,sans-Serif" font-size="10.00">Methods</text>
</a>
</g>
</g>
<!-- dir_608161aafd2af5389d03134ffea49c9f -->
<g id="node7" class="node">
<title>dir_608161aafd2af5389d03134ffea49c9f</title>
<g id="a_node7"><a xlink:href="dir_608161aafd2af5389d03134ffea49c9f.html" target="_top" xlink:title="NHeaders">
<polygon fill="#4ea9ff" stroke="#404040" points="197.5,-145 132.5,-145 132.5,-126 197.5,-126 197.5,-145"/>
<text text-anchor="middle" x="165" y="-133" font-family="Helvetica,sans-Serif" font-size="10.00">NHeaders</text>
</a>
</g>
</g>
<!-- dir_09d6a22b96cbdd451a8a41c9804b07f2&#45;&gt;dir_608161aafd2af5389d03134ffea49c9f -->
<g id="edge5" class="edge">
<title>dir_09d6a22b96cbdd451a8a41c9804b07f2&#45;&gt;dir_608161aafd2af5389d03134ffea49c9f</title>
<g id="a_edge5"><a xlink:href="dir_000008_000009.html" target="_top">
<path fill="none" stroke="#63b8ff" d="M176.69,-180.75C174.83,-173.72 172.16,-163.62 169.85,-154.84"/>
<polygon fill="#63b8ff" stroke="#63b8ff" points="173.21,-153.86 167.27,-145.09 166.44,-155.65 173.21,-153.86"/>
</a>
</g>
<g id="a_edge5&#45;headlabel"><a xlink:href="dir_000008_000009.html" target="_top" xlink:title="1">
<text text-anchor="middle" x="176.87" y="-154.11" font-family="Helvetica,sans-Serif" font-size="10.00" fill="#63b8ff">1</text>
</a>
</g>
</g>
<!-- dir_09d6a22b96cbdd451a8a41c9804b07f2&#45;&gt;dir_2b930848939edf81047ea3b73a2c6d36 -->
<g id="edge4" class="edge">
<title>dir_09d6a22b96cbdd451a8a41c9804b07f2&#45;&gt;dir_2b930848939edf81047ea3b73a2c6d36</title>
<g id="a_edge4"><a xlink:href="dir_000008_000016.html" target="_top">
<path fill="none" stroke="#63b8ff" d="M179.06,-180.87C183.46,-172.29 192.93,-158.5 198,-145 203.4,-130.61 205.88,-113.34 208.42,-100.44"/>
<polygon fill="#63b8ff" stroke="#63b8ff" points="211.9,-100.94 210.75,-90.41 205.08,-99.36 211.9,-100.94"/>
</a>
</g>
<g id="a_edge4&#45;headlabel"><a xlink:href="dir_000008_000016.html" target="_top" xlink:title="1">
<text text-anchor="middle" x="213.85" y="-102.59" font-family="Helvetica,sans-Serif" font-size="10.00" fill="#63b8ff">1</text>
</a>
</g>
</g>
<!-- dir_f0d5f9c2813ecd5c8dcd2e2ff3dca0a2 -->
<g id="node10" class="node">
<title>dir_f0d5f9c2813ecd5c8dcd2e2ff3dca0a2</title>
<g id="a_node10"><a xlink:href="dir_f0d5f9c2813ecd5c8dcd2e2ff3dca0a2.html" target="_top" xlink:title="Url">
<polygon fill="#4ea9ff" stroke="#404040" points="126.5,-90 95.5,-90 95.5,-71 126.5,-71 126.5,-90"/>
<text text-anchor="middle" x="111" y="-78" font-family="Helvetica,sans-Serif" font-size="10.00">Url</text>
</a>
</g>
</g>
<!-- dir_09d6a22b96cbdd451a8a41c9804b07f2&#45;&gt;dir_f0d5f9c2813ecd5c8dcd2e2ff3dca0a2 -->
<g id="edge6" class="edge">
<title>dir_09d6a22b96cbdd451a8a41c9804b07f2&#45;&gt;dir_f0d5f9c2813ecd5c8dcd2e2ff3dca0a2</title>
<g id="a_edge6"><a xlink:href="dir_000008_000019.html" target="_top">
<path fill="none" stroke="#63b8ff" d="M162.84,-180.98C149.96,-173.32 132.56,-160.84 123,-145 114.93,-131.63 112.09,-114.02 111.17,-100.74"/>
<polygon fill="#63b8ff" stroke="#63b8ff" points="114.66,-100.26 110.79,-90.4 107.66,-100.52 114.66,-100.26"/>
</a>
</g>
<g id="a_edge6&#45;headlabel"><a xlink:href="dir_000008_000019.html" target="_top" xlink:title="1">
<text text-anchor="middle" x="117.63" y="-101.24" font-family="Helvetica,sans-Serif" font-size="10.00" fill="#63b8ff">1</text>
</a>
</g>
</g>
<!-- dir_608161aafd2af5389d03134ffea49c9f&#45;&gt;dir_430990ec024f593b7bce39ce7b4461bb -->
<g id="edge9" class="edge">
<title>dir_608161aafd2af5389d03134ffea49c9f&#45;&gt;dir_430990ec024f593b7bce39ce7b4461bb</title>
<g id="a_edge9"><a xlink:href="dir_000009_000017.html" target="_top">
<path fill="none" stroke="#63b8ff" d="M186.21,-125.98C207.73,-117.34 241.28,-103.87 265.83,-94.02"/>
<polygon fill="#63b8ff" stroke="#63b8ff" points="267.43,-97.14 275.41,-90.17 264.82,-90.65 267.43,-97.14"/>
</a>
</g>
<g id="a_edge9&#45;headlabel"><a xlink:href="dir_000009_000017.html" target="_top" xlink:title="1">
<text text-anchor="middle" x="265.15" y="-98.62" font-family="Helvetica,sans-Serif" font-size="10.00" fill="#63b8ff">1</text>
</a>
</g>
</g>
<!-- dir_608161aafd2af5389d03134ffea49c9f&#45;&gt;dir_2d830115d85308f46eeefe3ce749e641 -->
<g id="edge10" class="edge">
<title>dir_608161aafd2af5389d03134ffea49c9f&#45;&gt;dir_2d830115d85308f46eeefe3ce749e641</title>
<g id="a_edge10"><a xlink:href="dir_000009_000020.html" target="_top">
<path fill="none" stroke="#63b8ff" d="M147.49,-125.98C130.03,-117.5 102.99,-104.35 82.83,-94.54"/>
<polygon fill="#63b8ff" stroke="#63b8ff" points="84.36,-91.4 73.83,-90.17 81.29,-97.69 84.36,-91.4"/>
</a>
</g>
<g id="a_edge10&#45;headlabel"><a xlink:href="dir_000009_000020.html" target="_top" xlink:title="1">
<text text-anchor="middle" x="88.83" y="-87.91" font-family="Helvetica,sans-Serif" font-size="10.00" fill="#63b8ff">1</text>
</a>
</g>
</g>
<!-- dir_608161aafd2af5389d03134ffea49c9f&#45;&gt;dir_2b930848939edf81047ea3b73a2c6d36 -->
<g id="edge7" class="edge">
<title>dir_608161aafd2af5389d03134ffea49c9f&#45;&gt;dir_2b930848939edf81047ea3b73a2c6d36</title>
<g id="a_edge7"><a xlink:href="dir_000009_000016.html" target="_top">
<path fill="none" stroke="#63b8ff" d="M168.42,-125.75C174.45,-117.88 185.63,-106.14 195.89,-96.73"/>
<polygon fill="#63b8ff" stroke="#63b8ff" points="198.24,-99.32 203.44,-90.09 193.62,-94.06 198.24,-99.32"/>
</a>
</g>
<g id="a_edge7&#45;headlabel"><a xlink:href="dir_000009_000016.html" target="_top" xlink:title="1">
<text text-anchor="middle" x="197.41" y="-101.32" font-family="Helvetica,sans-Serif" font-size="10.00" fill="#63b8ff">1</text>
</a>
</g>
</g>
<!-- dir_608161aafd2af5389d03134ffea49c9f&#45;&gt;dir_f0d5f9c2813ecd5c8dcd2e2ff3dca0a2 -->
<g id="edge8" class="edge">
<title>dir_608161aafd2af5389d03134ffea49c9f&#45;&gt;dir_f0d5f9c2813ecd5c8dcd2e2ff3dca0a2</title>
<g id="a_edge8"><a xlink:href="dir_000009_000019.html" target="_top">
<path fill="none" stroke="#63b8ff" d="M156.08,-125.75C148.22,-118.03 136.57,-106.6 127.08,-97.28"/>
<polygon fill="#63b8ff" stroke="#63b8ff" points="129.34,-94.6 119.75,-90.09 124.44,-99.59 129.34,-94.6"/>
</a>
</g>
<g id="a_edge8&#45;headlabel"><a xlink:href="dir_000009_000019.html" target="_top" xlink:title="1">
<text text-anchor="middle" x="133.89" y="-92.59" font-family="Helvetica,sans-Serif" font-size="10.00" fill="#63b8ff">1</text>
</a>
</g>
</g>
<!-- dir_2e6b931faf85af8d43b2b55a026921d7&#45;&gt;dir_3c6a022a7e9432f24aa2201eb84947de -->
<g id="edge12" class="edge">
<title>dir_2e6b931faf85af8d43b2b55a026921d7&#45;&gt;dir_3c6a022a7e9432f24aa2201eb84947de</title>
<g id="a_edge12"><a xlink:href="dir_000014_000002.html" target="_top">
<path fill="none" stroke="#63b8ff" d="M117.86,-235.73C81.92,-208.68 -18.73,-124.71 27,-63 48.04,-34.61 90.62,-27.55 118.98,-26.18"/>
<polygon fill="#63b8ff" stroke="#63b8ff" points="119.18,-29.67 129.08,-25.9 118.99,-22.68 119.18,-29.67"/>
</a>
</g>
<g id="a_edge12&#45;headlabel"><a xlink:href="dir_000014_000002.html" target="_top" xlink:title="1">
<text text-anchor="middle" x="115.66" y="-30.11" font-family="Helvetica,sans-Serif" font-size="10.00" fill="#63b8ff">1</text>
</a>
</g>
</g>
<!-- dir_2e6b931faf85af8d43b2b55a026921d7&#45;&gt;dir_09d6a22b96cbdd451a8a41c9804b07f2 -->
<g id="edge11" class="edge">
<title>dir_2e6b931faf85af8d43b2b55a026921d7&#45;&gt;dir_09d6a22b96cbdd451a8a41c9804b07f2</title>
<g id="a_edge11"><a xlink:href="dir_000014_000008.html" target="_top">
<path fill="none" stroke="#63b8ff" d="M138.09,-235.75C145.16,-228.11 155.59,-216.82 164.15,-207.56"/>
<polygon fill="#63b8ff" stroke="#63b8ff" points="166.84,-209.81 171.06,-200.09 161.7,-205.06 166.84,-209.81"/>
</a>
</g>
<g id="a_edge11&#45;headlabel"><a xlink:href="dir_000014_000008.html" target="_top" xlink:title="2">
<text text-anchor="middle" x="166.49" y="-211.87" font-family="Helvetica,sans-Serif" font-size="10.00" fill="#63b8ff">2</text>
</a>
</g>
</g>
<!-- dir_2e6b931faf85af8d43b2b55a026921d7&#45;&gt;dir_608161aafd2af5389d03134ffea49c9f -->
<g id="edge13" class="edge">
<title>dir_2e6b931faf85af8d43b2b55a026921d7&#45;&gt;dir_608161aafd2af5389d03134ffea49c9f</title>
<g id="a_edge13"><a xlink:href="dir_000014_000009.html" target="_top">
<path fill="none" stroke="#63b8ff" d="M130.41,-235.63C131.2,-223.14 133.49,-199.77 140,-181 143.26,-171.6 148.48,-161.88 153.3,-153.93"/>
<polygon fill="#63b8ff" stroke="#63b8ff" points="156.41,-155.57 158.83,-145.26 150.5,-151.8 156.41,-155.57"/>
</a>
</g>
<g id="a_edge13&#45;headlabel"><a xlink:href="dir_000014_000009.html" target="_top" xlink:title="1">
<text text-anchor="middle" x="156.87" y="-157.63" font-family="Helvetica,sans-Serif" font-size="10.00" fill="#63b8ff">1</text>
</a>
</g>
</g>
<!-- dir_2e6b931faf85af8d43b2b55a026921d7&#45;&gt;dir_f0d5f9c2813ecd5c8dcd2e2ff3dca0a2 -->
<g id="edge14" class="edge">
<title>dir_2e6b931faf85af8d43b2b55a026921d7&#45;&gt;dir_f0d5f9c2813ecd5c8dcd2e2ff3dca0a2</title>
<g id="a_edge14"><a xlink:href="dir_000014_000019.html" target="_top">
<path fill="none" stroke="#63b8ff" d="M122.84,-235.78C114.94,-218.56 106.31,-178.89 103,-145 101.54,-130.05 101.35,-113.02 102.85,-100.36"/>
<polygon fill="#63b8ff" stroke="#63b8ff" points="106.36,-100.62 104.72,-90.15 99.48,-99.36 106.36,-100.62"/>
</a>
</g>
<g id="a_edge14&#45;headlabel"><a xlink:href="dir_000014_000019.html" target="_top" xlink:title="1">
<text text-anchor="middle" x="108.51" y="-102.17" font-family="Helvetica,sans-Serif" font-size="10.00" fill="#63b8ff">1</text>
</a>
</g>
</g>
<!-- dir_2b930848939edf81047ea3b73a2c6d36&#45;&gt;dir_0548d2bb7dd208758f91f985569944be -->
<g id="edge15" class="edge">
<title>dir_2b930848939edf81047ea3b73a2c6d36&#45;&gt;dir_0548d2bb7dd208758f91f985569944be</title>
<g id="a_edge15"><a xlink:href="dir_000016_000010.html" target="_top">
<path fill="none" stroke="#63b8ff" d="M225.26,-70.75C232.46,-63.11 243.11,-51.82 251.85,-42.56"/>
<polygon fill="#63b8ff" stroke="#63b8ff" points="254.58,-44.76 258.9,-35.09 249.49,-39.96 254.58,-44.76"/>
</a>
</g>
<g id="a_edge15&#45;headlabel"><a xlink:href="dir_000016_000010.html" target="_top" xlink:title="1">
<text text-anchor="middle" x="254.18" y="-46.83" font-family="Helvetica,sans-Serif" font-size="10.00" fill="#63b8ff">1</text>
</a>
</g>
</g>
<!-- dir_2b930848939edf81047ea3b73a2c6d36&#45;&gt;dir_3c6a022a7e9432f24aa2201eb84947de -->
<g id="edge18" class="edge">
<title>dir_2b930848939edf81047ea3b73a2c6d36&#45;&gt;dir_3c6a022a7e9432f24aa2201eb84947de</title>
<g id="a_edge18"><a xlink:href="dir_000016_000002.html" target="_top">
<path fill="none" stroke="#63b8ff" d="M205.75,-70.98C195.2,-63 179.2,-50.88 166.56,-41.31"/>
<polygon fill="#63b8ff" stroke="#63b8ff" points="168.54,-38.42 158.45,-35.17 164.31,-44 168.54,-38.42"/>
</a>
</g>
<g id="a_edge18&#45;headlabel"><a xlink:href="dir_000016_000002.html" target="_top" xlink:title="1">
<text text-anchor="middle" x="173.12" y="-35.82" font-family="Helvetica,sans-Serif" font-size="10.00" fill="#63b8ff">1</text>
</a>
</g>
</g>
<!-- dir_2b930848939edf81047ea3b73a2c6d36&#45;&gt;dir_09d6a22b96cbdd451a8a41c9804b07f2 -->
<g id="edge16" class="edge">
<title>dir_2b930848939edf81047ea3b73a2c6d36&#45;&gt;dir_09d6a22b96cbdd451a8a41c9804b07f2</title>
<g id="a_edge16"><a xlink:href="dir_000016_000008.html" target="_top">
<path fill="none" stroke="#63b8ff" d="M222.7,-90.41C225.09,-102.97 222.98,-126.4 216,-145 212.24,-155.02 206.05,-165.2 199.58,-173.29"/>
<polygon fill="#63b8ff" stroke="#63b8ff" points="196.87,-171.07 192.83,-180.87 202.09,-175.73 196.87,-171.07"/>
</a>
</g>
<g id="a_edge16&#45;headlabel"><a xlink:href="dir_000016_000008.html" target="_top" xlink:title="2">
<text text-anchor="middle" x="197.14" y="-164" font-family="Helvetica,sans-Serif" font-size="10.00" fill="#63b8ff">2</text>
</a>
</g>
</g>
<!-- dir_2b930848939edf81047ea3b73a2c6d36&#45;&gt;dir_608161aafd2af5389d03134ffea49c9f -->
<g id="edge19" class="edge">
<title>dir_2b930848939edf81047ea3b73a2c6d36&#45;&gt;dir_608161aafd2af5389d03134ffea49c9f</title>
<g id="a_edge19"><a xlink:href="dir_000016_000009.html" target="_top">
<path fill="none" stroke="#63b8ff" d="M213.64,-90.17C207.61,-98.06 196.36,-109.87 186.06,-119.32"/>
<polygon fill="#63b8ff" stroke="#63b8ff" points="183.68,-116.76 178.47,-125.98 188.29,-122.02 183.68,-116.76"/>
</a>
</g>
<g id="a_edge19&#45;headlabel"><a xlink:href="dir_000016_000009.html" target="_top" xlink:title="2">
<text text-anchor="middle" x="184.51" y="-109.75" font-family="Helvetica,sans-Serif" font-size="10.00" fill="#63b8ff">2</text>
</a>
</g>
</g>
<!-- dir_2b930848939edf81047ea3b73a2c6d36&#45;&gt;dir_2e6b931faf85af8d43b2b55a026921d7 -->
<g id="edge17" class="edge">
<title>dir_2b930848939edf81047ea3b73a2c6d36&#45;&gt;dir_2e6b931faf85af8d43b2b55a026921d7</title>
<g id="a_edge17"><a xlink:href="dir_000016_000014.html" target="_top">
<path fill="none" stroke="#63b8ff" d="M219.92,-90.06C226.43,-110.76 239.88,-164.42 218,-200 207.05,-217.8 186.54,-228.74 168.07,-235.32"/>
<polygon fill="#63b8ff" stroke="#63b8ff" points="166.81,-232.05 158.38,-238.46 168.97,-238.71 166.81,-232.05"/>
</a>
</g>
<g id="a_edge17&#45;headlabel"><a xlink:href="dir_000016_000014.html" target="_top" xlink:title="1">
<text text-anchor="middle" x="169.36" y="-225.74" font-family="Helvetica,sans-Serif" font-size="10.00" fill="#63b8ff">1</text>
</a>
</g>
</g>
<!-- dir_f0d5f9c2813ecd5c8dcd2e2ff3dca0a2&#45;&gt;dir_2e6b931faf85af8d43b2b55a026921d7 -->
<g id="edge20" class="edge">
<title>dir_f0d5f9c2813ecd5c8dcd2e2ff3dca0a2&#45;&gt;dir_2e6b931faf85af8d43b2b55a026921d7</title>
<g id="a_edge20"><a xlink:href="dir_000019_000014.html" target="_top">
<path fill="none" stroke="#63b8ff" d="M116.67,-90.15C119.35,-102.4 119.09,-125.47 121,-145 123.77,-173.33 130.25,-205.7 132.35,-225.62"/>
<polygon fill="#63b8ff" stroke="#63b8ff" points="128.87,-226.03 133.01,-235.78 135.85,-225.58 128.87,-226.03"/>
</a>
</g>
<g id="a_edge20&#45;headlabel"><a xlink:href="dir_000019_000014.html" target="_top" xlink:title="1">
<text text-anchor="middle" x="125.8" y="-220.13" font-family="Helvetica,sans-Serif" font-size="10.00" fill="#63b8ff">1</text>
</a>
</g>
</g>
</g>
</svg>
