<?xml version="1.0" encoding="UTF-8" standalone="no"?>
<!DOCTYPE svg PUBLIC "-//W3C//DTD SVG 1.1//EN"
 "http://www.w3.org/Graphics/SVG/1.1/DTD/svg11.dtd">
<!-- Generated by graphviz version 2.43.0 (0)
 -->
<!-- Title: Graphical Class Hierarchy Pages: 1 -->
<svg width="287pt" height="86pt"
 viewBox="0.00 0.00 287.00 86.00" xmlns="http://www.w3.org/2000/svg" xmlns:xlink="http://www.w3.org/1999/xlink">
<g id="graph0" class="graph" transform="scale(1 1) rotate(0) translate(4 82)">
<title>Graphical Class Hierarchy</title>
<!-- Node0 -->
<g id="Node000000" class="node">
<title>Node0</title>
<g id="a_Node000000"><a xlink:href="struct_thoth_1_1_http_1_1_headers.html" target="_top" xlink:title="This class stores the headers from HTTP.">
<polygon fill="white" stroke="#666666" points="118,-48.5 0,-48.5 0,-29.5 118,-29.5 118,-48.5"/>
<text text-anchor="middle" x="59" y="-36.5" font-family="Helvetica,sans-Serif" font-size="10.00">Thoth::Http::Headers</text>
</a>
</g>
</g>
<!-- Node1 -->
<g id="Node000001" class="node">
<title>Node1</title>
<g id="a_Node000001"><a xlink:href="struct_thoth_1_1_http_1_1_n_headers_1_1_request_headers.html" target="_top" xlink:title="Represents the collection of HTTP headers associated with a request. Based on modern HTTP RFCs and in...">
<polygon fill="white" stroke="#666666" points="279,-78 154,-78 154,-48 279,-48 279,-78"/>
<text text-anchor="start" x="162" y="-66" font-family="Helvetica,sans-Serif" font-size="10.00">Thoth::Http::NHeaders</text>
<text text-anchor="middle" x="216.5" y="-55" font-family="Helvetica,sans-Serif" font-size="10.00">::RequestHeaders</text>
</a>
</g>
</g>
<!-- Node0&#45;&gt;Node1 -->
<g id="edge2_Node000000_Node000001" class="edge">
<title>Node0&#45;&gt;Node1</title>
<g id="a_edge2_Node000000_Node000001"><a xlink:title=" ">
<path fill="none" stroke="#63b8ff" d="M128.28,-49.54C136.83,-50.86 145.53,-52.2 153.97,-53.5"/>
<polygon fill="#63b8ff" stroke="#63b8ff" points="128.76,-46.07 118.34,-48 127.69,-52.99 128.76,-46.07"/>
</a>
</g>
</g>
<!-- Node2 -->
<g id="Node000002" class="node">
<title>Node2</title>
<g id="a_Node000002"><a xlink:href="struct_thoth_1_1_http_1_1_n_headers_1_1_response_headers.html" target="_top" xlink:title=" ">
<polygon fill="white" stroke="#666666" points="279,-30 154,-30 154,0 279,0 279,-30"/>
<text text-anchor="start" x="162" y="-18" font-family="Helvetica,sans-Serif" font-size="10.00">Thoth::Http::NHeaders</text>
<text text-anchor="middle" x="216.5" y="-7" font-family="Helvetica,sans-Serif" font-size="10.00">::ResponseHeaders</text>
</a>
</g>
</g>
<!-- Node0&#45;&gt;Node2 -->
<g id="edge3_Node000000_Node000002" class="edge">
<title>Node0&#45;&gt;Node2</title>
<g id="a_edge3_Node000000_Node000002"><a xlink:title=" ">
<path fill="none" stroke="#63b8ff" d="M128.28,-28.46C136.83,-27.14 145.53,-25.8 153.97,-24.5"/>
<polygon fill="#63b8ff" stroke="#63b8ff" points="127.69,-25.01 118.34,-30 128.76,-31.93 127.69,-25.01"/>
</a>
</g>
</g>
</g>
</svg>
