<?xml version="1.0" encoding="UTF-8" standalone="no"?>
<!DOCTYPE svg PUBLIC "-//W3C//DTD SVG 1.1//EN"
 "http://www.w3.org/Graphics/SVG/1.1/DTD/svg11.dtd">
<!-- Generated by graphviz version 2.43.0 (0)
 -->
<!-- Title: Graphical Class Hierarchy Pages: 1 -->
<svg width="327pt" height="64pt"
 viewBox="0.00 0.00 327.00 64.00" xmlns="http://www.w3.org/2000/svg" xmlns:xlink="http://www.w3.org/1999/xlink">
<g id="graph0" class="graph" transform="scale(1 1) rotate(0) translate(4 60)">
<title>Graphical Class Hierarchy</title>
<!-- Node0 -->
<g id="Node000000" class="node">
<title>Node0</title>
<g id="a_Node000000"><a xlink:href="struct_thoth_1_1_http_1_1_headers.html" target="_top" xlink:title="This class stores the headers from HTTP.">
<polygon fill="white" stroke="#666666" points="118,-37 0,-37 0,-18 118,-18 118,-37"/>
<text text-anchor="middle" x="59" y="-25" font-family="Helvetica,sans-Serif" font-size="10.00">Thoth::Http::Headers</text>
</a>
</g>
</g>
<!-- Node1 -->
<g id="Node000001" class="node">
<title>Node1</title>
<g id="a_Node000001"><a xlink:href="struct_thoth_1_1_http_1_1_request_headers.html" target="_top" xlink:title="Represents the collection of HTTP headers associated with a request. Based on modern HTTP RFCs and in...">
<polygon fill="white" stroke="#666666" points="315.5,-56 157.5,-56 157.5,-37 315.5,-37 315.5,-56"/>
<text text-anchor="middle" x="236.5" y="-44" font-family="Helvetica,sans-Serif" font-size="10.00">Thoth::Http::RequestHeaders</text>
</a>
</g>
</g>
<!-- Node0&#45;&gt;Node1 -->
<g id="edge2_Node000000_Node000001" class="edge">
<title>Node0&#45;&gt;Node1</title>
<g id="a_edge2_Node000000_Node000001"><a xlink:title=" ">
<path fill="none" stroke="#63b8ff" d="M128.54,-34.92C137.98,-35.94 147.73,-37 157.33,-38.04"/>
<polygon fill="#63b8ff" stroke="#63b8ff" points="128.76,-31.42 118.44,-33.83 128,-38.38 128.76,-31.42"/>
</a>
</g>
</g>
<!-- Node2 -->
<g id="Node000002" class="node">
<title>Node2</title>
<g id="a_Node000002"><a xlink:href="struct_thoth_1_1_http_1_1_response_headers.html" target="_top" xlink:title=" ">
<polygon fill="white" stroke="#666666" points="319,-19 154,-19 154,0 319,0 319,-19"/>
<text text-anchor="middle" x="236.5" y="-7" font-family="Helvetica,sans-Serif" font-size="10.00">Thoth::Http::ResponseHeaders</text>
</a>
</g>
</g>
<!-- Node0&#45;&gt;Node2 -->
<g id="edge3_Node000000_Node000002" class="edge">
<title>Node0&#45;&gt;Node2</title>
<g id="a_edge3_Node000000_Node000002"><a xlink:title=" ">
<path fill="none" stroke="#63b8ff" d="M128.46,-20.48C136.79,-19.62 145.37,-18.74 153.87,-17.87"/>
<polygon fill="#63b8ff" stroke="#63b8ff" points="128.03,-17 118.44,-21.51 128.74,-23.97 128.03,-17"/>
</a>
</g>
</g>
</g>
</svg>
