<?xml version="1.0" encoding="UTF-8" standalone="no"?>
<!DOCTYPE svg PUBLIC "-//W3C//DTD SVG 1.1//EN"
 "http://www.w3.org/Graphics/SVG/1.1/DTD/svg11.dtd">
<!-- Generated by graphviz version 2.43.0 (0)
 -->
<!-- Title: Thoth::Http::Headers Pages: 1 -->
<svg width="350pt" height="82pt"
 viewBox="0.00 0.00 349.50 82.00" xmlns="http://www.w3.org/2000/svg" xmlns:xlink="http://www.w3.org/1999/xlink">
<g id="graph0" class="graph" transform="scale(1 1) rotate(0) translate(4 78)">
<title>Thoth::Http::Headers</title>
<!-- Node1 -->
<g id="Node000001" class="node">
<title>Node1</title>
<g id="a_Node000001"><a xlink:title="This class stores the headers from HTTP.">
<polygon fill="#999999" stroke="#666666" points="228,-74 110,-74 110,-55 228,-55 228,-74"/>
<text text-anchor="middle" x="169" y="-62" font-family="Helvetica,sans-Serif" font-size="10.00">Thoth::Http::Headers</text>
</a>
</g>
</g>
<!-- Node2 -->
<g id="Node000002" class="node">
<title>Node2</title>
<g id="a_Node000002"><a xlink:href="struct_thoth_1_1_http_1_1_request_headers.html" target="_top" xlink:title="Represents the collection of HTTP headers associated with a request. Based on modern HTTP RFCs and in...">
<polygon fill="white" stroke="#666666" points="158,-19 0,-19 0,0 158,0 158,-19"/>
<text text-anchor="middle" x="79" y="-7" font-family="Helvetica,sans-Serif" font-size="10.00">Thoth::Http::RequestHeaders</text>
</a>
</g>
</g>
<!-- Node1&#45;&gt;Node2 -->
<g id="edge1_Node000001_Node000002" class="edge">
<title>Node1&#45;&gt;Node2</title>
<g id="a_edge1_Node000001_Node000002"><a xlink:title=" ">
<path fill="none" stroke="#63b8ff" d="M145.56,-49.7C129.16,-40.04 107.77,-27.44 93.72,-19.17"/>
<polygon fill="#63b8ff" stroke="#63b8ff" points="144.15,-52.93 154.54,-54.98 147.7,-46.89 144.15,-52.93"/>
</a>
</g>
</g>
<!-- Node3 -->
<g id="Node000003" class="node">
<title>Node3</title>
<g id="a_Node000003"><a xlink:href="struct_thoth_1_1_http_1_1_response_headers.html" target="_top" xlink:title=" ">
<polygon fill="white" stroke="#666666" points="341.5,-19 176.5,-19 176.5,0 341.5,0 341.5,-19"/>
<text text-anchor="middle" x="259" y="-7" font-family="Helvetica,sans-Serif" font-size="10.00">Thoth::Http::ResponseHeaders</text>
</a>
</g>
</g>
<!-- Node1&#45;&gt;Node3 -->
<g id="edge2_Node000001_Node000003" class="edge">
<title>Node1&#45;&gt;Node3</title>
<g id="a_edge2_Node000001_Node000003"><a xlink:title=" ">
<path fill="none" stroke="#63b8ff" d="M192.44,-49.7C208.84,-40.04 230.23,-27.44 244.28,-19.17"/>
<polygon fill="#63b8ff" stroke="#63b8ff" points="190.3,-46.89 183.46,-54.98 193.85,-52.93 190.3,-46.89"/>
</a>
</g>
</g>
</g>
</svg>
