<?xml version="1.0" encoding="UTF-8" standalone="no"?>
<!DOCTYPE svg PUBLIC "-//W3C//DTD SVG 1.1//EN"
 "http://www.w3.org/Graphics/SVG/1.1/DTD/svg11.dtd">
<!-- Generated by graphviz version 2.43.0 (0)
 -->
<!-- Title: Thoth::Http::Headers Pages: 1 -->
<svg width="276pt" height="93pt"
 viewBox="0.00 0.00 276.00 93.00" xmlns="http://www.w3.org/2000/svg" xmlns:xlink="http://www.w3.org/1999/xlink">
<g id="graph0" class="graph" transform="scale(1 1) rotate(0) translate(4 89)">
<title>Thoth::Http::Headers</title>
<!-- Node1 -->
<g id="Node000001" class="node">
<title>Node1</title>
<g id="a_Node000001"><a xlink:title="This class stores the headers from HTTP.">
<polygon fill="#999999" stroke="#666666" points="192.5,-85 74.5,-85 74.5,-66 192.5,-66 192.5,-85"/>
<text text-anchor="middle" x="133.5" y="-73" font-family="Helvetica,sans-Serif" font-size="10.00">Thoth::Http::Headers</text>
</a>
</g>
</g>
<!-- Node2 -->
<g id="Node000002" class="node">
<title>Node2</title>
<g id="a_Node000002"><a xlink:href="struct_thoth_1_1_http_1_1_n_headers_1_1_request_headers.html" target="_top" xlink:title="Represents the collection of HTTP headers associated with a request. Based on modern HTTP RFCs and in...">
<polygon fill="white" stroke="#666666" points="125,-30 0,-30 0,0 125,0 125,-30"/>
<text text-anchor="start" x="8" y="-18" font-family="Helvetica,sans-Serif" font-size="10.00">Thoth::Http::NHeaders</text>
<text text-anchor="middle" x="62.5" y="-7" font-family="Helvetica,sans-Serif" font-size="10.00">::RequestHeaders</text>
</a>
</g>
</g>
<!-- Node1&#45;&gt;Node2 -->
<g id="edge1_Node000001_Node000002" class="edge">
<title>Node1&#45;&gt;Node2</title>
<g id="a_edge1_Node000001_Node000002"><a xlink:title=" ">
<path fill="none" stroke="#63b8ff" d="M115.3,-59.5C104.32,-50.45 90.41,-39 79.63,-30.11"/>
<polygon fill="#63b8ff" stroke="#63b8ff" points="113.08,-62.21 123.02,-65.87 117.53,-56.81 113.08,-62.21"/>
</a>
</g>
</g>
<!-- Node3 -->
<g id="Node000003" class="node">
<title>Node3</title>
<g id="a_Node000003"><a xlink:href="struct_thoth_1_1_http_1_1_n_headers_1_1_response_headers.html" target="_top" xlink:title=" ">
<polygon fill="white" stroke="#666666" points="268,-30 143,-30 143,0 268,0 268,-30"/>
<text text-anchor="start" x="151" y="-18" font-family="Helvetica,sans-Serif" font-size="10.00">Thoth::Http::NHeaders</text>
<text text-anchor="middle" x="205.5" y="-7" font-family="Helvetica,sans-Serif" font-size="10.00">::ResponseHeaders</text>
</a>
</g>
</g>
<!-- Node1&#45;&gt;Node3 -->
<g id="edge2_Node000001_Node000003" class="edge">
<title>Node1&#45;&gt;Node3</title>
<g id="a_edge2_Node000001_Node000003"><a xlink:title=" ">
<path fill="none" stroke="#63b8ff" d="M151.96,-59.5C163.1,-50.45 177.19,-39 188.13,-30.11"/>
<polygon fill="#63b8ff" stroke="#63b8ff" points="149.68,-56.85 144.12,-65.87 154.09,-62.28 149.68,-56.85"/>
</a>
</g>
</g>
</g>
</svg>
