<?xml version="1.0" encoding="UTF-8" standalone="no"?>
<!DOCTYPE svg PUBLIC "-//W3C//DTD SVG 1.1//EN"
 "http://www.w3.org/Graphics/SVG/1.1/DTD/svg11.dtd">
<!-- Generated by graphviz version 2.43.0 (0)
 -->
<!-- Title: include/Thoth/Http/Headers.hpp Pages: 1 -->
<svg width="1516pt" height="302pt"
 viewBox="0.00 0.00 1515.84 302.00" xmlns="http://www.w3.org/2000/svg" xmlns:xlink="http://www.w3.org/1999/xlink">
<g id="graph0" class="graph" transform="scale(1 1) rotate(0) translate(4 298)">
<title>include/Thoth/Http/Headers.hpp</title>
<!-- Node1 -->
<g id="Node000001" class="node">
<title>Node1</title>
<g id="a_Node000001"><a xlink:title=" ">
<polygon fill="#999999" stroke="#666666" points="347.34,-294 240.34,-294 240.34,-264 347.34,-264 347.34,-294"/>
<text text-anchor="start" x="248.34" y="-282" font-family="Helvetica,sans-Serif" font-size="10.00">include/Thoth/Http</text>
<text text-anchor="middle" x="293.84" y="-271" font-family="Helvetica,sans-Serif" font-size="10.00">/Headers.hpp</text>
</a>
</g>
</g>
<!-- Node2 -->
<g id="Node000002" class="node">
<title>Node2</title>
<g id="a_Node000002"><a xlink:href="_method_concept_8hpp.html" target="_top" xlink:title=" ">
<polygon fill="white" stroke="#666666" points="776.84,-228 582.84,-228 582.84,-198 776.84,-198 776.84,-228"/>
<text text-anchor="start" x="590.84" y="-216" font-family="Helvetica,sans-Serif" font-size="10.00">include/Thoth/Http</text>
<text text-anchor="middle" x="679.84" y="-205" font-family="Helvetica,sans-Serif" font-size="10.00">/Methods/_base/MethodConcept.hpp</text>
</a>
</g>
</g>
<!-- Node1&#45;&gt;Node2 -->
<g id="edge1_Node000001_Node000002" class="edge">
<title>Node1&#45;&gt;Node2</title>
<g id="a_edge1_Node000001_Node000002"><a xlink:title=" ">
<path fill="none" stroke="#63b8ff" d="M357.61,-267.43C422.51,-256.67 523.49,-239.92 595.09,-228.05"/>
<polygon fill="#63b8ff" stroke="#63b8ff" points="356.8,-264.01 347.51,-269.1 357.95,-270.92 356.8,-264.01"/>
</a>
</g>
</g>
<!-- Node8 -->
<g id="Node000008" class="node">
<title>Node8</title>
<g id="a_Node000008"><a xlink:href="_response_8hpp.html" target="_top" xlink:title=" ">
<polygon fill="white" stroke="#666666" points="158.84,-30 20.84,-30 20.84,0 158.84,0 158.84,-30"/>
<text text-anchor="start" x="28.84" y="-18" font-family="Helvetica,sans-Serif" font-size="10.00">include/Thoth/Http</text>
<text text-anchor="middle" x="89.84" y="-7" font-family="Helvetica,sans-Serif" font-size="10.00">/Response/Response.hpp</text>
</a>
</g>
</g>
<!-- Node1&#45;&gt;Node8 -->
<g id="edge17_Node000001_Node000008" class="edge">
<title>Node1&#45;&gt;Node8</title>
<g id="a_edge17_Node000001_Node000008"><a xlink:title=" ">
<path fill="none" stroke="#63b8ff" d="M230.09,-272.18C162.24,-262.19 58.04,-235.15 8.84,-162 -22.22,-115.82 38.87,-56.79 71.36,-30.15"/>
<polygon fill="#63b8ff" stroke="#63b8ff" points="229.85,-275.68 240.24,-273.58 230.81,-268.74 229.85,-275.68"/>
</a>
</g>
</g>
<!-- Node3 -->
<g id="Node000003" class="node">
<title>Node3</title>
<g id="a_Node000003"><a xlink:href="_connect_method_8hpp.html" target="_top" xlink:title=" ">
<polygon fill="white" stroke="#666666" points="1175.84,-162 1013.84,-162 1013.84,-132 1175.84,-132 1175.84,-162"/>
<text text-anchor="start" x="1021.84" y="-150" font-family="Helvetica,sans-Serif" font-size="10.00">include/Thoth/Http</text>
<text text-anchor="middle" x="1094.84" y="-139" font-family="Helvetica,sans-Serif" font-size="10.00">/Methods/ConnectMethod.hpp</text>
</a>
</g>
</g>
<!-- Node2&#45;&gt;Node3 -->
<g id="edge2_Node000002_Node000003" class="edge">
<title>Node2&#45;&gt;Node3</title>
<g id="a_edge2_Node000002_Node000003"><a xlink:title=" ">
<path fill="none" stroke="#63b8ff" d="M781.36,-196.43C845.46,-186.58 930,-173.58 1004.84,-162 1007.65,-161.56 1010.51,-161.12 1013.4,-160.67"/>
<polygon fill="#63b8ff" stroke="#63b8ff" points="780.6,-193 771.25,-197.98 781.67,-199.92 780.6,-193"/>
</a>
</g>
</g>
<!-- Node4 -->
<g id="Node000004" class="node">
<title>Node4</title>
<g id="a_Node000004"><a xlink:href="_delete_method_8hpp.html" target="_top" xlink:title=" ">
<polygon fill="white" stroke="#666666" points="1349.34,-162 1194.34,-162 1194.34,-132 1349.34,-132 1349.34,-162"/>
<text text-anchor="start" x="1202.34" y="-150" font-family="Helvetica,sans-Serif" font-size="10.00">include/Thoth/Http</text>
<text text-anchor="middle" x="1271.84" y="-139" font-family="Helvetica,sans-Serif" font-size="10.00">/Methods/DeleteMethod.hpp</text>
</a>
</g>
</g>
<!-- Node2&#45;&gt;Node4 -->
<g id="edge3_Node000002_Node000004" class="edge">
<title>Node2&#45;&gt;Node4</title>
<g id="a_edge3_Node000002_Node000004"><a xlink:title=" ">
<path fill="none" stroke="#63b8ff" d="M786.89,-203.3C889.26,-194.54 1047.86,-179.79 1184.84,-162 1187.87,-161.61 1190.96,-161.19 1194.08,-160.75"/>
<polygon fill="#63b8ff" stroke="#63b8ff" points="786.52,-199.82 776.85,-204.16 787.11,-206.8 786.52,-199.82"/>
</a>
</g>
</g>
<!-- Node5 -->
<g id="Node000005" class="node">
<title>Node5</title>
<g id="a_Node000005"><a xlink:href="_get_method_8hpp.html" target="_top" xlink:title=" ">
<polygon fill="white" stroke="#666666" points="1507.84,-162 1367.84,-162 1367.84,-132 1507.84,-132 1507.84,-162"/>
<text text-anchor="start" x="1375.84" y="-150" font-family="Helvetica,sans-Serif" font-size="10.00">include/Thoth/Http</text>
<text text-anchor="middle" x="1437.84" y="-139" font-family="Helvetica,sans-Serif" font-size="10.00">/Methods/GetMethod.hpp</text>
</a>
</g>
</g>
<!-- Node2&#45;&gt;Node5 -->
<g id="edge4_Node000002_Node000005" class="edge">
<title>Node2&#45;&gt;Node5</title>
<g id="a_edge4_Node000002_Node000005"><a xlink:title=" ">
<path fill="none" stroke="#63b8ff" d="M787.12,-207.48C921.23,-201.06 1157.65,-187.17 1358.84,-162 1361.74,-161.64 1364.7,-161.24 1367.68,-160.81"/>
<polygon fill="#63b8ff" stroke="#63b8ff" points="786.67,-204 776.84,-207.97 787,-210.99 786.67,-204"/>
</a>
</g>
</g>
<!-- Node9 -->
<g id="Node000009" class="node">
<title>Node9</title>
<g id="a_Node000009"><a xlink:href="_head_method_8hpp.html" target="_top" xlink:title=" ">
<polygon fill="white" stroke="#666666" points="327.84,-162 179.84,-162 179.84,-132 327.84,-132 327.84,-162"/>
<text text-anchor="start" x="187.84" y="-150" font-family="Helvetica,sans-Serif" font-size="10.00">include/Thoth/Http</text>
<text text-anchor="middle" x="253.84" y="-139" font-family="Helvetica,sans-Serif" font-size="10.00">/Methods/HeadMethod.hpp</text>
</a>
</g>
</g>
<!-- Node2&#45;&gt;Node9 -->
<g id="edge9_Node000002_Node000009" class="edge">
<title>Node2&#45;&gt;Node9</title>
<g id="a_edge9_Node000002_Node000009"><a xlink:title=" ">
<path fill="none" stroke="#63b8ff" d="M572.3,-196.95C504.66,-187.33 415.58,-174.38 336.84,-162 333.95,-161.55 331.01,-161.08 328.04,-160.6"/>
<polygon fill="#63b8ff" stroke="#63b8ff" points="572.15,-200.47 582.54,-198.41 573.13,-193.54 572.15,-200.47"/>
</a>
</g>
</g>
<!-- Node10 -->
<g id="Node000010" class="node">
<title>Node10</title>
<g id="a_Node000010"><a xlink:href="_options_method_8hpp.html" target="_top" xlink:title=" ">
<polygon fill="white" stroke="#666666" points="505.84,-162 345.84,-162 345.84,-132 505.84,-132 505.84,-162"/>
<text text-anchor="start" x="353.84" y="-150" font-family="Helvetica,sans-Serif" font-size="10.00">include/Thoth/Http</text>
<text text-anchor="middle" x="425.84" y="-139" font-family="Helvetica,sans-Serif" font-size="10.00">/Methods/OptionsMethod.hpp</text>
</a>
</g>
</g>
<!-- Node2&#45;&gt;Node10 -->
<g id="edge10_Node000002_Node000010" class="edge">
<title>Node2&#45;&gt;Node10</title>
<g id="a_edge10_Node000002_Node000010"><a xlink:title=" ">
<path fill="none" stroke="#63b8ff" d="M614.16,-195.45C573,-185.08 520.54,-171.86 481.45,-162.01"/>
<polygon fill="#63b8ff" stroke="#63b8ff" points="613.54,-198.91 624.1,-197.95 615.25,-192.12 613.54,-198.91"/>
</a>
</g>
</g>
<!-- Node11 -->
<g id="Node000011" class="node">
<title>Node11</title>
<g id="a_Node000011"><a xlink:href="_patch_method_8hpp.html" target="_top" xlink:title=" ">
<polygon fill="white" stroke="#666666" points="673.34,-162 524.34,-162 524.34,-132 673.34,-132 673.34,-162"/>
<text text-anchor="start" x="532.34" y="-150" font-family="Helvetica,sans-Serif" font-size="10.00">include/Thoth/Http</text>
<text text-anchor="middle" x="598.84" y="-139" font-family="Helvetica,sans-Serif" font-size="10.00">/Methods/PatchMethod.hpp</text>
</a>
</g>
</g>
<!-- Node2&#45;&gt;Node11 -->
<g id="edge11_Node000002_Node000011" class="edge">
<title>Node2&#45;&gt;Node11</title>
<g id="a_edge11_Node000002_Node000011"><a xlink:title=" ">
<path fill="none" stroke="#63b8ff" d="M653.86,-191.48C641.76,-181.91 627.66,-170.77 616.76,-162.16"/>
<polygon fill="#63b8ff" stroke="#63b8ff" points="651.85,-194.34 661.86,-197.8 656.18,-188.85 651.85,-194.34"/>
</a>
</g>
</g>
<!-- Node12 -->
<g id="Node000012" class="node">
<title>Node12</title>
<g id="a_Node000012"><a xlink:href="_post_method_8hpp.html" target="_top" xlink:title=" ">
<polygon fill="white" stroke="#666666" points="161.34,-162 18.34,-162 18.34,-132 161.34,-132 161.34,-162"/>
<text text-anchor="start" x="26.34" y="-150" font-family="Helvetica,sans-Serif" font-size="10.00">include/Thoth/Http</text>
<text text-anchor="middle" x="89.84" y="-139" font-family="Helvetica,sans-Serif" font-size="10.00">/Methods/PostMethod.hpp</text>
</a>
</g>
</g>
<!-- Node2&#45;&gt;Node12 -->
<g id="edge12_Node000002_Node000012" class="edge">
<title>Node2&#45;&gt;Node12</title>
<g id="a_edge12_Node000002_Node000012"><a xlink:title=" ">
<path fill="none" stroke="#63b8ff" d="M572.37,-203.74C469.17,-195.27 309,-180.7 170.84,-162 167.73,-161.58 164.55,-161.13 161.35,-160.65"/>
<polygon fill="#63b8ff" stroke="#63b8ff" points="572.24,-207.24 582.49,-204.57 572.81,-200.27 572.24,-207.24"/>
</a>
</g>
</g>
<!-- Node13 -->
<g id="Node000013" class="node">
<title>Node13</title>
<g id="a_Node000013"><a xlink:href="_put_method_8hpp.html" target="_top" xlink:title=" ">
<polygon fill="white" stroke="#666666" points="829.84,-162 691.84,-162 691.84,-132 829.84,-132 829.84,-162"/>
<text text-anchor="start" x="699.84" y="-150" font-family="Helvetica,sans-Serif" font-size="10.00">include/Thoth/Http</text>
<text text-anchor="middle" x="760.84" y="-139" font-family="Helvetica,sans-Serif" font-size="10.00">/Methods/PutMethod.hpp</text>
</a>
</g>
</g>
<!-- Node2&#45;&gt;Node13 -->
<g id="edge15_Node000002_Node000013" class="edge">
<title>Node2&#45;&gt;Node13</title>
<g id="a_edge15_Node000002_Node000013"><a xlink:title=" ">
<path fill="none" stroke="#63b8ff" d="M705.81,-191.48C717.92,-181.91 732.02,-170.77 742.91,-162.16"/>
<polygon fill="#63b8ff" stroke="#63b8ff" points="703.49,-188.85 697.81,-197.8 707.83,-194.34 703.49,-188.85"/>
</a>
</g>
</g>
<!-- Node14 -->
<g id="Node000014" class="node">
<title>Node14</title>
<g id="a_Node000014"><a xlink:href="_trace_method_8hpp.html" target="_top" xlink:title=" ">
<polygon fill="white" stroke="#666666" points="995.84,-162 847.84,-162 847.84,-132 995.84,-132 995.84,-162"/>
<text text-anchor="start" x="855.84" y="-150" font-family="Helvetica,sans-Serif" font-size="10.00">include/Thoth/Http</text>
<text text-anchor="middle" x="921.84" y="-139" font-family="Helvetica,sans-Serif" font-size="10.00">/Methods/TraceMethod.hpp</text>
</a>
</g>
</g>
<!-- Node2&#45;&gt;Node14 -->
<g id="edge16_Node000002_Node000014" class="edge">
<title>Node2&#45;&gt;Node14</title>
<g id="a_edge16_Node000002_Node000014"><a xlink:title=" ">
<path fill="none" stroke="#63b8ff" d="M742.66,-195.39C781.84,-185.03 831.69,-171.84 868.85,-162.01"/>
<polygon fill="#63b8ff" stroke="#63b8ff" points="741.72,-192.01 732.95,-197.95 743.51,-198.78 741.72,-192.01"/>
</a>
</g>
</g>
<!-- Node6 -->
<g id="Node000006" class="node">
<title>Node6</title>
<g id="a_Node000006"><a xlink:href="_request_8hpp.html" target="_top" xlink:title=" ">
<polygon fill="white" stroke="#666666" points="266.34,-96 143.34,-96 143.34,-66 266.34,-66 266.34,-96"/>
<text text-anchor="start" x="151.34" y="-84" font-family="Helvetica,sans-Serif" font-size="10.00">include/Thoth/Http</text>
<text text-anchor="middle" x="204.84" y="-73" font-family="Helvetica,sans-Serif" font-size="10.00">/Request/Request.hpp</text>
</a>
</g>
</g>
<!-- Node5&#45;&gt;Node6 -->
<g id="edge5_Node000005_Node000006" class="edge">
<title>Node5&#45;&gt;Node6</title>
<g id="a_edge5_Node000005_Node000006"><a xlink:title=" ">
<path fill="none" stroke="#63b8ff" d="M1357.59,-131.99C1124.64,-107.87 470.87,-89.05 266.58,-83.6"/>
<polygon fill="#63b8ff" stroke="#63b8ff" points="1357.38,-135.49 1367.7,-133.07 1358.12,-128.53 1357.38,-135.49"/>
</a>
</g>
</g>
<!-- Node5&#45;&gt;Node8 -->
<g id="edge8_Node000005_Node000008" class="edge">
<title>Node5&#45;&gt;Node8</title>
<g id="a_edge8_Node000005_Node000008"><a xlink:title=" ">
<path fill="none" stroke="#63b8ff" d="M1357.53,-131.9C830.76,-63.4 691.82,-98.61 168.84,-30 165.66,-29.58 162.42,-29.13 159.15,-28.65"/>
<polygon fill="#63b8ff" stroke="#63b8ff" points="1357.31,-135.4 1367.68,-133.23 1358.22,-128.46 1357.31,-135.4"/>
</a>
</g>
</g>
<!-- Node7 -->
<g id="Node000007" class="node">
<title>Node7</title>
<g id="a_Node000007"><a xlink:href="_client_8hpp.html" target="_top" xlink:title=" ">
<polygon fill="white" stroke="#666666" points="284.34,-30 177.34,-30 177.34,0 284.34,0 284.34,-30"/>
<text text-anchor="start" x="185.34" y="-18" font-family="Helvetica,sans-Serif" font-size="10.00">include/Thoth/Http</text>
<text text-anchor="middle" x="230.84" y="-7" font-family="Helvetica,sans-Serif" font-size="10.00">/Client.hpp</text>
</a>
</g>
</g>
<!-- Node6&#45;&gt;Node7 -->
<g id="edge6_Node000006_Node000007" class="edge">
<title>Node6&#45;&gt;Node7</title>
<g id="a_edge6_Node000006_Node000007"><a xlink:title=" ">
<path fill="none" stroke="#63b8ff" d="M214.43,-56.39C218.01,-47.59 221.96,-37.86 225.08,-30.16"/>
<polygon fill="#63b8ff" stroke="#63b8ff" points="211.13,-55.21 210.61,-65.8 217.61,-57.85 211.13,-55.21"/>
</a>
</g>
</g>
<!-- Node6&#45;&gt;Node8 -->
<g id="edge7_Node000006_Node000008" class="edge">
<title>Node6&#45;&gt;Node8</title>
<g id="a_edge7_Node000006_Node000008"><a xlink:title=" ">
<path fill="none" stroke="#63b8ff" d="M170.64,-60.97C152.79,-51.03 131.33,-39.09 115.02,-30.01"/>
<polygon fill="#63b8ff" stroke="#63b8ff" points="169.16,-64.15 179.6,-65.95 172.56,-58.03 169.16,-64.15"/>
</a>
</g>
</g>
<!-- Node12&#45;&gt;Node6 -->
<g id="edge13_Node000012_Node000006" class="edge">
<title>Node12&#45;&gt;Node6</title>
<g id="a_edge13_Node000012_Node000006"><a xlink:title=" ">
<path fill="none" stroke="#63b8ff" d="M124.04,-126.97C141.89,-117.03 163.34,-105.09 179.66,-96.01"/>
<polygon fill="#63b8ff" stroke="#63b8ff" points="122.11,-124.03 115.08,-131.95 125.52,-130.15 122.11,-124.03"/>
</a>
</g>
</g>
<!-- Node12&#45;&gt;Node8 -->
<g id="edge14_Node000012_Node000008" class="edge">
<title>Node12&#45;&gt;Node8</title>
<g id="a_edge14_Node000012_Node000008"><a xlink:title=" ">
<path fill="none" stroke="#63b8ff" d="M89.84,-121.68C89.84,-94.7 89.84,-52.11 89.84,-30.14"/>
<polygon fill="#63b8ff" stroke="#63b8ff" points="86.34,-121.84 89.84,-131.84 93.34,-121.84 86.34,-121.84"/>
</a>
</g>
</g>
</g>
</svg>
