<?xml version="1.0" encoding="UTF-8" standalone="no"?>
<!DOCTYPE svg PUBLIC "-//W3C//DTD SVG 1.1//EN"
 "http://www.w3.org/Graphics/SVG/1.1/DTD/svg11.dtd">
<!-- Generated by graphviz version 2.43.0 (0)
 -->
<!-- Title: include/Thoth/NJson/Json.hpp Pages: 1 -->
<svg width="814pt" height="148pt"
 viewBox="0.00 0.00 814.00 148.00" xmlns="http://www.w3.org/2000/svg" xmlns:xlink="http://www.w3.org/1999/xlink">
<g id="graph0" class="graph" transform="scale(1 1) rotate(0) translate(4 144)">
<title>include/Thoth/NJson/Json.hpp</title>
<!-- Node1 -->
<g id="Node000001" class="node">
<title>Node1</title>
<g id="a_Node000001"><a xlink:title=" ">
<polygon fill="#999999" stroke="#666666" points="408,-140 295,-140 295,-110 408,-110 408,-140"/>
<text text-anchor="start" x="303" y="-128" font-family="Helvetica,sans-Serif" font-size="10.00">include/Thoth/NJson</text>
<text text-anchor="middle" x="351.5" y="-117" font-family="Helvetica,sans-Serif" font-size="10.00">/Json.hpp</text>
</a>
</g>
</g>
<!-- Node2 -->
<g id="Node000002" class="node">
<title>Node2</title>
<g id="a_Node000002"><a xlink:title=" ">
<polygon fill="#e0e0e0" stroke="#999999" points="51,-19 0,-19 0,0 51,0 51,-19"/>
<text text-anchor="middle" x="25.5" y="-7" font-family="Helvetica,sans-Serif" font-size="10.00">variant</text>
</a>
</g>
</g>
<!-- Node1&#45;&gt;Node2 -->
<g id="edge1_Node000001_Node000002" class="edge">
<title>Node1&#45;&gt;Node2</title>
<g id="a_edge1_Node000001_Node000002"><a xlink:title=" ">
<path fill="none" stroke="#63b8ff" d="M294.82,-119.22C223.25,-112.31 105.03,-97.68 68.5,-74 51.78,-63.16 39.91,-43.29 32.94,-28.65"/>
<polygon fill="#63b8ff" stroke="#63b8ff" points="35.97,-26.86 28.73,-19.13 29.57,-29.69 35.97,-26.86"/>
</a>
</g>
</g>
<!-- Node3 -->
<g id="Node000003" class="node">
<title>Node3</title>
<g id="a_Node000003"><a xlink:title=" ">
<polygon fill="#e0e0e0" stroke="#999999" points="331.5,-19 273.5,-19 273.5,0 331.5,0 331.5,-19"/>
<text text-anchor="middle" x="302.5" y="-7" font-family="Helvetica,sans-Serif" font-size="10.00">memory</text>
</a>
</g>
</g>
<!-- Node1&#45;&gt;Node3 -->
<g id="edge2_Node000001_Node000003" class="edge">
<title>Node1&#45;&gt;Node3</title>
<g id="a_edge2_Node000001_Node000003"><a xlink:title=" ">
<path fill="none" stroke="#63b8ff" d="M338.25,-109.79C330.16,-100.34 320.29,-87.26 314.5,-74 308.25,-59.69 305.25,-42.16 303.81,-29.15"/>
<polygon fill="#63b8ff" stroke="#63b8ff" points="307.28,-28.72 302.91,-19.07 300.31,-29.35 307.28,-28.72"/>
</a>
</g>
</g>
<!-- Node4 -->
<g id="Node000004" class="node">
<title>Node4</title>
<g id="a_Node000004"><a xlink:title=" ">
<polygon fill="#e0e0e0" stroke="#999999" points="538,-74 491,-74 491,-55 538,-55 538,-74"/>
<text text-anchor="middle" x="514.5" y="-62" font-family="Helvetica,sans-Serif" font-size="10.00">vector</text>
</a>
</g>
</g>
<!-- Node1&#45;&gt;Node4 -->
<g id="edge3_Node000001_Node000004" class="edge">
<title>Node1&#45;&gt;Node4</title>
<g id="a_edge3_Node000001_Node000004"><a xlink:title=" ">
<path fill="none" stroke="#63b8ff" d="M390.54,-109.99C418.27,-100.04 455.09,-86.82 481.38,-77.39"/>
<polygon fill="#63b8ff" stroke="#63b8ff" points="482.67,-80.64 490.9,-73.97 480.31,-74.05 482.67,-80.64"/>
</a>
</g>
</g>
<!-- Node5 -->
<g id="Node000005" class="node">
<title>Node5</title>
<g id="a_Node000005"><a xlink:title=" ">
<polygon fill="#e0e0e0" stroke="#999999" points="393.5,-19 349.5,-19 349.5,0 393.5,0 393.5,-19"/>
<text text-anchor="middle" x="371.5" y="-7" font-family="Helvetica,sans-Serif" font-size="10.00">string</text>
</a>
</g>
</g>
<!-- Node1&#45;&gt;Node5 -->
<g id="edge4_Node000001_Node000005" class="edge">
<title>Node1&#45;&gt;Node5</title>
<g id="a_edge4_Node000001_Node000005"><a xlink:title=" ">
<path fill="none" stroke="#63b8ff" d="M337.8,-109.98C325.91,-96.02 311.86,-74.01 320.5,-55 326.12,-42.63 337.07,-32.36 347.39,-24.81"/>
<polygon fill="#63b8ff" stroke="#63b8ff" points="349.46,-27.63 355.77,-19.12 345.53,-21.84 349.46,-27.63"/>
</a>
</g>
</g>
<!-- Node6 -->
<g id="Node000006" class="node">
<title>Node6</title>
<g id="a_Node000006"><a xlink:title=" ">
<polygon fill="#e0e0e0" stroke="#999999" points="612.5,-74 556.5,-74 556.5,-55 612.5,-55 612.5,-74"/>
<text text-anchor="middle" x="584.5" y="-62" font-family="Helvetica,sans-Serif" font-size="10.00">optional</text>
</a>
</g>
</g>
<!-- Node1&#45;&gt;Node6 -->
<g id="edge5_Node000001_Node000006" class="edge">
<title>Node1&#45;&gt;Node6</title>
<g id="a_edge5_Node000001_Node000006"><a xlink:title=" ">
<path fill="none" stroke="#63b8ff" d="M407.31,-109.99C450.26,-99.2 508.47,-84.59 546.26,-75.1"/>
<polygon fill="#63b8ff" stroke="#63b8ff" points="547.5,-78.4 556.34,-72.57 545.79,-71.61 547.5,-78.4"/>
</a>
</g>
</g>
<!-- Node7 -->
<g id="Node000007" class="node">
<title>Node7</title>
<g id="a_Node000007"><a xlink:title=" ">
<polygon fill="#e0e0e0" stroke="#999999" points="255.5,-19 195.5,-19 195.5,0 255.5,0 255.5,-19"/>
<text text-anchor="middle" x="225.5" y="-7" font-family="Helvetica,sans-Serif" font-size="10.00">concepts</text>
</a>
</g>
</g>
<!-- Node1&#45;&gt;Node7 -->
<g id="edge6_Node000001_Node000007" class="edge">
<title>Node1&#45;&gt;Node7</title>
<g id="a_edge6_Node000001_Node000007"><a xlink:title=" ">
<path fill="none" stroke="#63b8ff" d="M335.8,-109.85C312.09,-88.5 267.32,-48.17 242.74,-26.03"/>
<polygon fill="#63b8ff" stroke="#63b8ff" points="245.01,-23.36 235.24,-19.27 240.32,-28.56 245.01,-23.36"/>
</a>
</g>
</g>
<!-- Node8 -->
<g id="Node000008" class="node">
<title>Node8</title>
<g id="a_Node000008"><a xlink:title=" ">
<polygon fill="#e0e0e0" stroke="#999999" points="670.5,-74 630.5,-74 630.5,-55 670.5,-55 670.5,-74"/>
<text text-anchor="middle" x="650.5" y="-62" font-family="Helvetica,sans-Serif" font-size="10.00">span</text>
</a>
</g>
</g>
<!-- Node1&#45;&gt;Node8 -->
<g id="edge7_Node000001_Node000008" class="edge">
<title>Node1&#45;&gt;Node8</title>
<g id="a_edge7_Node000001_Node000008"><a xlink:title=" ">
<path fill="none" stroke="#63b8ff" d="M408.22,-115.23C460.85,-106.69 541.51,-92.63 620.21,-74.11"/>
<polygon fill="#63b8ff" stroke="#63b8ff" points="621.37,-77.43 630.29,-71.71 619.75,-70.62 621.37,-77.43"/>
</a>
</g>
</g>
<!-- Node9 -->
<g id="Node000009" class="node">
<title>Node9</title>
<g id="a_Node000009"><a xlink:href="_cow_8hpp.html" target="_top" xlink:title=" ">
<polygon fill="white" stroke="#666666" points="187.5,-74 77.5,-74 77.5,-55 187.5,-55 187.5,-74"/>
<text text-anchor="middle" x="132.5" y="-62" font-family="Helvetica,sans-Serif" font-size="10.00">Thoth/Dsa/Cow.hpp</text>
</a>
</g>
</g>
<!-- Node1&#45;&gt;Node9 -->
<g id="edge8_Node000001_Node000009" class="edge">
<title>Node1&#45;&gt;Node9</title>
<g id="a_edge8_Node000001_Node000009"><a xlink:title=" ">
<path fill="none" stroke="#63b8ff" d="M299.04,-109.99C260.92,-99.8 210,-86.2 174.54,-76.73"/>
<polygon fill="#63b8ff" stroke="#63b8ff" points="175.09,-73.25 164.52,-74.05 173.28,-80.02 175.09,-73.25"/>
</a>
</g>
</g>
<!-- Node11 -->
<g id="Node000011" class="node">
<title>Node11</title>
<g id="a_Node000011"><a xlink:href="_string_ref_8hpp.html" target="_top" xlink:title=" ">
<polygon fill="white" stroke="#666666" points="473,-74 330,-74 330,-55 473,-55 473,-74"/>
<text text-anchor="middle" x="401.5" y="-62" font-family="Helvetica,sans-Serif" font-size="10.00">Thoth/NJson/StringRef.hpp</text>
</a>
</g>
</g>
<!-- Node1&#45;&gt;Node11 -->
<g id="edge12_Node000001_Node000011" class="edge">
<title>Node1&#45;&gt;Node11</title>
<g id="a_edge12_Node000001_Node000011"><a xlink:title=" ">
<path fill="none" stroke="#63b8ff" d="M363.6,-109.84C370.79,-101.43 379.93,-90.74 387.43,-81.96"/>
<polygon fill="#63b8ff" stroke="#63b8ff" points="390.17,-84.14 394.01,-74.27 384.85,-79.59 390.17,-84.14"/>
</a>
</g>
</g>
<!-- Node14 -->
<g id="Node000014" class="node">
<title>Node14</title>
<g id="a_Node000014"><a xlink:title=" ">
<polygon fill="#e0e0e0" stroke="#999999" points="806,-74 689,-74 689,-55 806,-55 806,-74"/>
<text text-anchor="middle" x="747.5" y="-62" font-family="Helvetica,sans-Serif" font-size="10.00">Thoth/NJson/Json.tpp</text>
</a>
</g>
</g>
<!-- Node1&#45;&gt;Node14 -->
<g id="edge17_Node000001_Node000014" class="edge">
<title>Node1&#45;&gt;Node14</title>
<g id="a_edge17_Node000001_Node000014"><a xlink:title=" ">
<path fill="none" stroke="#63b8ff" d="M408.24,-115.62C479.98,-105.02 603.34,-86.8 679.88,-75.49"/>
<polygon fill="#63b8ff" stroke="#63b8ff" points="680.52,-78.93 689.9,-74.01 679.5,-72.01 680.52,-78.93"/>
</a>
</g>
</g>
<!-- Node9&#45;&gt;Node2 -->
<g id="edge10_Node000009_Node000002" class="edge">
<title>Node9&#45;&gt;Node2</title>
<g id="a_edge10_Node000009_Node000002"><a xlink:title=" ">
<path fill="none" stroke="#63b8ff" d="M115.31,-54.98C98.25,-46.54 71.87,-33.47 52.1,-23.68"/>
<polygon fill="#63b8ff" stroke="#63b8ff" points="53.52,-20.47 43,-19.17 50.41,-26.75 53.52,-20.47"/>
</a>
</g>
</g>
<!-- Node9&#45;&gt;Node7 -->
<g id="edge9_Node000009_Node000007" class="edge">
<title>Node9&#45;&gt;Node7</title>
<g id="a_edge9_Node000009_Node000007"><a xlink:title=" ">
<path fill="none" stroke="#63b8ff" d="M147.44,-54.98C162,-46.69 184.37,-33.94 201.43,-24.22"/>
<polygon fill="#63b8ff" stroke="#63b8ff" points="203.33,-27.16 210.29,-19.17 199.86,-21.08 203.33,-27.16"/>
</a>
</g>
</g>
<!-- Node10 -->
<g id="Node000010" class="node">
<title>Node10</title>
<g id="a_Node000010"><a xlink:title=" ">
<polygon fill="#e0e0e0" stroke="#999999" points="177.5,-19 69.5,-19 69.5,0 177.5,0 177.5,-19"/>
<text text-anchor="middle" x="123.5" y="-7" font-family="Helvetica,sans-Serif" font-size="10.00">Thoth/Dsa/Cow.tpp</text>
</a>
</g>
</g>
<!-- Node9&#45;&gt;Node10 -->
<g id="edge11_Node000009_Node000010" class="edge">
<title>Node9&#45;&gt;Node10</title>
<g id="a_edge11_Node000009_Node000010"><a xlink:title=" ">
<path fill="none" stroke="#63b8ff" d="M131.01,-54.75C129.83,-47.8 128.14,-37.85 126.66,-29.13"/>
<polygon fill="#63b8ff" stroke="#63b8ff" points="130.08,-28.36 124.96,-19.09 123.18,-29.53 130.08,-28.36"/>
</a>
</g>
</g>
<!-- Node11&#45;&gt;Node3 -->
<g id="edge13_Node000011_Node000003" class="edge">
<title>Node11&#45;&gt;Node3</title>
<g id="a_edge13_Node000011_Node000003"><a xlink:title=" ">
<path fill="none" stroke="#63b8ff" d="M385.59,-54.98C369.95,-46.61 345.84,-33.7 327.62,-23.95"/>
<polygon fill="#63b8ff" stroke="#63b8ff" points="329.16,-20.8 318.7,-19.17 325.86,-26.98 329.16,-20.8"/>
</a>
</g>
</g>
<!-- Node11&#45;&gt;Node5 -->
<g id="edge15_Node000011_Node000005" class="edge">
<title>Node11&#45;&gt;Node5</title>
<g id="a_edge15_Node000011_Node000005"><a xlink:title=" ">
<path fill="none" stroke="#63b8ff" d="M396.55,-54.75C392.44,-47.49 386.47,-36.95 381.4,-27.98"/>
<polygon fill="#63b8ff" stroke="#63b8ff" points="384.33,-26.07 376.36,-19.09 378.24,-29.52 384.33,-26.07"/>
</a>
</g>
</g>
<!-- Node12 -->
<g id="Node000012" class="node">
<title>Node12</title>
<g id="a_Node000012"><a xlink:title=" ">
<polygon fill="#e0e0e0" stroke="#999999" points="644,-19 571,-19 571,0 644,0 644,-19"/>
<text text-anchor="middle" x="607.5" y="-7" font-family="Helvetica,sans-Serif" font-size="10.00">string_view</text>
</a>
</g>
</g>
<!-- Node11&#45;&gt;Node12 -->
<g id="edge14_Node000011_Node000012" class="edge">
<title>Node11&#45;&gt;Node12</title>
<g id="a_edge14_Node000011_Node000012"><a xlink:title=" ">
<path fill="none" stroke="#63b8ff" d="M434.6,-54.98C469.78,-45.93 525.57,-31.58 564.22,-21.64"/>
<polygon fill="#63b8ff" stroke="#63b8ff" points="565.33,-24.96 574.14,-19.08 563.59,-18.18 565.33,-24.96"/>
</a>
</g>
</g>
<!-- Node13 -->
<g id="Node000013" class="node">
<title>Node13</title>
<g id="a_Node000013"><a xlink:title=" ">
<polygon fill="#e0e0e0" stroke="#999999" points="553,-19 412,-19 412,0 553,0 553,-19"/>
<text text-anchor="middle" x="482.5" y="-7" font-family="Helvetica,sans-Serif" font-size="10.00">Thoth/NJson/StringRef.tpp</text>
</a>
</g>
</g>
<!-- Node11&#45;&gt;Node13 -->
<g id="edge16_Node000011_Node000013" class="edge">
<title>Node11&#45;&gt;Node13</title>
<g id="a_edge16_Node000011_Node000013"><a xlink:title=" ">
<path fill="none" stroke="#63b8ff" d="M414.51,-54.98C426.96,-46.84 445.96,-34.41 460.71,-24.76"/>
<polygon fill="#63b8ff" stroke="#63b8ff" points="462.8,-27.57 469.25,-19.17 458.96,-21.72 462.8,-27.57"/>
</a>
</g>
</g>
</g>
</svg>
