<?xml version="1.0" encoding="UTF-8" standalone="no"?>
<!DOCTYPE svg PUBLIC "-//W3C//DTD SVG 1.1//EN"
 "http://www.w3.org/Graphics/SVG/1.1/DTD/svg11.dtd">
<!-- Generated by graphviz version 2.43.0 (0)
 -->
<!-- Title: include/Thoth/Http/Request/Request.hpp Pages: 1 -->
<svg width="777pt" height="423pt"
 viewBox="0.00 0.00 776.62 423.00" xmlns="http://www.w3.org/2000/svg" xmlns:xlink="http://www.w3.org/1999/xlink">
<g id="graph0" class="graph" transform="scale(1 1) rotate(0) translate(4 419)">
<title>include/Thoth/Http/Request/Request.hpp</title>
<!-- Node1 -->
<g id="Node000001" class="node">
<title>Node1</title>
<g id="a_Node000001"><a xlink:title=" ">
<polygon fill="#999999" stroke="#666666" points="376.12,-415 253.12,-415 253.12,-385 376.12,-385 376.12,-415"/>
<text text-anchor="start" x="261.12" y="-403" font-family="Helvetica,sans-Serif" font-size="10.00">include/Thoth/Http</text>
<text text-anchor="middle" x="314.62" y="-392" font-family="Helvetica,sans-Serif" font-size="10.00">/Request/Request.hpp</text>
</a>
</g>
</g>
<!-- Node2 -->
<g id="Node000002" class="node">
<title>Node2</title>
<g id="a_Node000002"><a xlink:title=" ">
<polygon fill="#e0e0e0" stroke="#999999" points="201.12,-343.5 26.12,-343.5 26.12,-324.5 201.12,-324.5 201.12,-343.5"/>
<text text-anchor="middle" x="113.62" y="-331.5" font-family="Helvetica,sans-Serif" font-size="10.00">Hermes/Socket/ClientSocket.hpp</text>
</a>
</g>
</g>
<!-- Node1&#45;&gt;Node2 -->
<g id="edge1_Node000001_Node000002" class="edge">
<title>Node1&#45;&gt;Node2</title>
<g id="a_edge1_Node000001_Node000002"><a xlink:title=" ">
<path fill="none" stroke="#63b8ff" d="M270.51,-384.95C234.48,-373.48 184.16,-357.46 150.31,-346.68"/>
<polygon fill="#63b8ff" stroke="#63b8ff" points="150.96,-343.22 140.37,-343.52 148.83,-349.89 150.96,-343.22"/>
</a>
</g>
</g>
<!-- Node3 -->
<g id="Node000003" class="node">
<title>Node3</title>
<g id="a_Node000003"><a xlink:href="_url_8hpp.html" target="_top" xlink:title=" ">
<polygon fill="white" stroke="#666666" points="285.12,-217 174.12,-217 174.12,-187 285.12,-187 285.12,-217"/>
<text text-anchor="start" x="182.12" y="-205" font-family="Helvetica,sans-Serif" font-size="10.00">Thoth/Http/Request</text>
<text text-anchor="middle" x="229.62" y="-194" font-family="Helvetica,sans-Serif" font-size="10.00">/Url.hpp</text>
</a>
</g>
</g>
<!-- Node1&#45;&gt;Node3 -->
<g id="edge2_Node000001_Node000003" class="edge">
<title>Node1&#45;&gt;Node3</title>
<g id="a_edge2_Node000001_Node000003"><a xlink:title=" ">
<path fill="none" stroke="#63b8ff" d="M286.87,-384.92C273.08,-376.43 257.49,-364.29 248.62,-349 226.56,-311 225.56,-258.21 227.28,-227.62"/>
<polygon fill="#63b8ff" stroke="#63b8ff" points="230.79,-227.65 228,-217.42 223.81,-227.15 230.79,-227.65"/>
</a>
</g>
</g>
<!-- Node18 -->
<g id="Node000018" class="node">
<title>Node18</title>
<g id="a_Node000018"><a xlink:href="_get_method_8hpp.html" target="_top" xlink:title=" ">
<polygon fill="white" stroke="#666666" points="502.12,-349 389.12,-349 389.12,-319 502.12,-319 502.12,-349"/>
<text text-anchor="start" x="397.12" y="-337" font-family="Helvetica,sans-Serif" font-size="10.00">Thoth/Http/Methods</text>
<text text-anchor="middle" x="445.62" y="-326" font-family="Helvetica,sans-Serif" font-size="10.00">/GetMethod.hpp</text>
</a>
</g>
</g>
<!-- Node1&#45;&gt;Node18 -->
<g id="edge19_Node000001_Node000018" class="edge">
<title>Node1&#45;&gt;Node18</title>
<g id="a_edge19_Node000001_Node000018"><a xlink:title=" ">
<path fill="none" stroke="#63b8ff" d="M343.37,-384.95C362.31,-375.7 387.31,-363.49 407.85,-353.45"/>
<polygon fill="#63b8ff" stroke="#63b8ff" points="409.49,-356.55 416.94,-349.01 406.42,-350.26 409.49,-356.55"/>
</a>
</g>
</g>
<!-- Node26 -->
<g id="Node000026" class="node">
<title>Node26</title>
<g id="a_Node000026"><a xlink:href="_post_method_8hpp.html" target="_top" xlink:title=" ">
<polygon fill="white" stroke="#666666" points="371.12,-349 258.12,-349 258.12,-319 371.12,-319 371.12,-349"/>
<text text-anchor="start" x="266.12" y="-337" font-family="Helvetica,sans-Serif" font-size="10.00">Thoth/Http/Methods</text>
<text text-anchor="middle" x="314.62" y="-326" font-family="Helvetica,sans-Serif" font-size="10.00">/PostMethod.hpp</text>
</a>
</g>
</g>
<!-- Node1&#45;&gt;Node26 -->
<g id="edge34_Node000001_Node000026" class="edge">
<title>Node1&#45;&gt;Node26</title>
<g id="a_edge34_Node000001_Node000026"><a xlink:title=" ">
<path fill="none" stroke="#63b8ff" d="M314.62,-384.8C314.62,-377.34 314.62,-367.99 314.62,-359.41"/>
<polygon fill="#63b8ff" stroke="#63b8ff" points="318.12,-359.16 314.62,-349.16 311.12,-359.16 318.12,-359.16"/>
</a>
</g>
</g>
<!-- Node27 -->
<g id="Node000027" class="node">
<title>Node27</title>
<g id="a_Node000027"><a xlink:title=" ">
<polygon fill="#e0e0e0" stroke="#999999" points="631.12,-349 520.12,-349 520.12,-319 631.12,-319 631.12,-349"/>
<text text-anchor="start" x="528.12" y="-337" font-family="Helvetica,sans-Serif" font-size="10.00">Thoth/Http/Request</text>
<text text-anchor="middle" x="575.62" y="-326" font-family="Helvetica,sans-Serif" font-size="10.00">/Request.tpp</text>
</a>
</g>
</g>
<!-- Node1&#45;&gt;Node27 -->
<g id="edge36_Node000001_Node000027" class="edge">
<title>Node1&#45;&gt;Node27</title>
<g id="a_edge36_Node000001_Node000027"><a xlink:title=" ">
<path fill="none" stroke="#63b8ff" d="M371.9,-384.95C412.6,-374.97 467.36,-361.55 509.85,-351.13"/>
<polygon fill="#63b8ff" stroke="#63b8ff" points="510.94,-354.46 519.82,-348.68 509.27,-347.67 510.94,-354.46"/>
</a>
</g>
</g>
<!-- Node4 -->
<g id="Node000004" class="node">
<title>Node4</title>
<g id="a_Node000004"><a xlink:title=" ">
<polygon fill="#e0e0e0" stroke="#999999" points="79.62,-79.5 35.62,-79.5 35.62,-60.5 79.62,-60.5 79.62,-79.5"/>
<text text-anchor="middle" x="57.62" y="-67.5" font-family="Helvetica,sans-Serif" font-size="10.00">string</text>
</a>
</g>
</g>
<!-- Node3&#45;&gt;Node4 -->
<g id="edge3_Node000003_Node000004" class="edge">
<title>Node3&#45;&gt;Node4</title>
<g id="a_edge3_Node000003_Node000004"><a xlink:title=" ">
<path fill="none" stroke="#63b8ff" d="M173.96,-196.4C114.61,-190.21 26.33,-176.85 5.62,-151 -11.59,-129.53 15.43,-102.24 36.52,-85.72"/>
<polygon fill="#63b8ff" stroke="#63b8ff" points="38.86,-88.34 44.77,-79.55 34.67,-82.74 38.86,-88.34"/>
</a>
</g>
</g>
<!-- Node5 -->
<g id="Node000005" class="node">
<title>Node5</title>
<g id="a_Node000005"><a xlink:href="_query_params_8hpp.html" target="_top" xlink:title=" ">
<polygon fill="white" stroke="#666666" points="294.12,-151 183.12,-151 183.12,-121 294.12,-121 294.12,-151"/>
<text text-anchor="start" x="191.12" y="-139" font-family="Helvetica,sans-Serif" font-size="10.00">Thoth/Http/Request</text>
<text text-anchor="middle" x="238.62" y="-128" font-family="Helvetica,sans-Serif" font-size="10.00">/QueryParams.hpp</text>
</a>
</g>
</g>
<!-- Node3&#45;&gt;Node5 -->
<g id="edge4_Node000003_Node000005" class="edge">
<title>Node3&#45;&gt;Node5</title>
<g id="a_edge4_Node000003_Node000005"><a xlink:title=" ">
<path fill="none" stroke="#63b8ff" d="M231.62,-186.8C232.68,-179.26 234.01,-169.78 235.23,-161.13"/>
<polygon fill="#63b8ff" stroke="#63b8ff" points="238.7,-161.55 236.63,-151.16 231.77,-160.58 238.7,-161.55"/>
</a>
</g>
</g>
<!-- Node17 -->
<g id="Node000017" class="node">
<title>Node17</title>
<g id="a_Node000017"><a xlink:title=" ">
<polygon fill="#e0e0e0" stroke="#999999" points="126.12,-151 15.12,-151 15.12,-121 126.12,-121 126.12,-151"/>
<text text-anchor="start" x="23.12" y="-139" font-family="Helvetica,sans-Serif" font-size="10.00">Thoth/Http/Request</text>
<text text-anchor="middle" x="70.62" y="-128" font-family="Helvetica,sans-Serif" font-size="10.00">/Url.tpp</text>
</a>
</g>
</g>
<!-- Node3&#45;&gt;Node17 -->
<g id="edge18_Node000003_Node000017" class="edge">
<title>Node3&#45;&gt;Node17</title>
<g id="a_edge18_Node000003_Node000017"><a xlink:title=" ">
<path fill="none" stroke="#63b8ff" d="M194.73,-186.95C171.22,-177.49 140.02,-164.93 114.78,-154.78"/>
<polygon fill="#63b8ff" stroke="#63b8ff" points="116.01,-151.5 105.43,-151.01 113.4,-157.99 116.01,-151.5"/>
</a>
</g>
</g>
<!-- Node5&#45;&gt;Node4 -->
<g id="edge8_Node000005_Node000004" class="edge">
<title>Node5&#45;&gt;Node4</title>
<g id="a_edge8_Node000005_Node000004"><a xlink:title=" ">
<path fill="none" stroke="#63b8ff" d="M192.56,-120.99C162.66,-111.57 123,-98.45 88.62,-85 87.44,-84.54 86.25,-84.06 85.04,-83.56"/>
<polygon fill="#63b8ff" stroke="#63b8ff" points="86.41,-80.34 75.85,-79.61 83.65,-86.77 86.41,-80.34"/>
</a>
</g>
</g>
<!-- Node6 -->
<g id="Node000006" class="node">
<title>Node6</title>
<g id="a_Node000006"><a xlink:title=" ">
<polygon fill="#e0e0e0" stroke="#999999" points="662.62,-79.5 606.62,-79.5 606.62,-60.5 662.62,-60.5 662.62,-79.5"/>
<text text-anchor="middle" x="634.62" y="-67.5" font-family="Helvetica,sans-Serif" font-size="10.00">optional</text>
</a>
</g>
</g>
<!-- Node5&#45;&gt;Node6 -->
<g id="edge5_Node000005_Node000006" class="edge">
<title>Node5&#45;&gt;Node6</title>
<g id="a_edge5_Node000005_Node000006"><a xlink:title=" ">
<path fill="none" stroke="#63b8ff" d="M294.24,-122.75C297.41,-122.14 300.55,-121.55 303.62,-121 415.43,-101.03 444.48,-103.04 556.62,-85 569.57,-82.92 583.68,-80.45 596.31,-78.16"/>
<polygon fill="#63b8ff" stroke="#63b8ff" points="597.29,-81.54 606.5,-76.3 596.03,-74.65 597.29,-81.54"/>
</a>
</g>
</g>
<!-- Node7 -->
<g id="Node000007" class="node">
<title>Node7</title>
<g id="a_Node000007"><a xlink:title=" ">
<polygon fill="#e0e0e0" stroke="#999999" points="547.62,-79.5 497.62,-79.5 497.62,-60.5 547.62,-60.5 547.62,-79.5"/>
<text text-anchor="middle" x="522.62" y="-67.5" font-family="Helvetica,sans-Serif" font-size="10.00">format</text>
</a>
</g>
</g>
<!-- Node5&#45;&gt;Node7 -->
<g id="edge6_Node000005_Node000007" class="edge">
<title>Node5&#45;&gt;Node7</title>
<g id="a_edge6_Node000005_Node000007"><a xlink:title=" ">
<path fill="none" stroke="#63b8ff" d="M294.28,-122.98C297.44,-122.31 300.57,-121.64 303.62,-121 380.89,-104.69 401.16,-104.75 477.62,-85 480.97,-84.13 484.44,-83.17 487.9,-82.17"/>
<polygon fill="#63b8ff" stroke="#63b8ff" points="488.94,-85.51 497.51,-79.29 486.93,-78.81 488.94,-85.51"/>
</a>
</g>
</g>
<!-- Node8 -->
<g id="Node000008" class="node">
<title>Node8</title>
<g id="a_Node000008"><a xlink:title=" ">
<polygon fill="#e0e0e0" stroke="#999999" points="603.12,-19 556.12,-19 556.12,0 603.12,0 603.12,-19"/>
<text text-anchor="middle" x="579.62" y="-7" font-family="Helvetica,sans-Serif" font-size="10.00">vector</text>
</a>
</g>
</g>
<!-- Node5&#45;&gt;Node8 -->
<g id="edge7_Node000005_Node000008" class="edge">
<title>Node5&#45;&gt;Node8</title>
<g id="a_edge7_Node000005_Node000008"><a xlink:title=" ">
<path fill="none" stroke="#63b8ff" d="M294.43,-122.32C342.67,-111.06 408.5,-94.89 433.62,-85 459.53,-74.8 463.88,-67.79 488.62,-55 509.71,-44.1 533.86,-32.32 551.98,-23.62"/>
<polygon fill="#63b8ff" stroke="#63b8ff" points="553.86,-26.6 561.37,-19.13 550.84,-20.29 553.86,-26.6"/>
</a>
</g>
</g>
<!-- Node9 -->
<g id="Node000009" class="node">
<title>Node9</title>
<g id="a_Node000009"><a xlink:title=" ">
<polygon fill="#e0e0e0" stroke="#999999" points="135.62,-79.5 97.62,-79.5 97.62,-60.5 135.62,-60.5 135.62,-79.5"/>
<text text-anchor="middle" x="116.62" y="-67.5" font-family="Helvetica,sans-Serif" font-size="10.00">map</text>
</a>
</g>
</g>
<!-- Node5&#45;&gt;Node9 -->
<g id="edge9_Node000005_Node000009" class="edge">
<title>Node5&#45;&gt;Node9</title>
<g id="a_edge9_Node000005_Node000009"><a xlink:title=" ">
<path fill="none" stroke="#63b8ff" d="M211.85,-120.95C191.02,-110.03 162.31,-94.97 141.88,-84.25"/>
<polygon fill="#63b8ff" stroke="#63b8ff" points="143.34,-81.06 132.85,-79.52 140.08,-87.26 143.34,-81.06"/>
</a>
</g>
</g>
<!-- Node10 -->
<g id="Node000010" class="node">
<title>Node10</title>
<g id="a_Node000010"><a xlink:href="_linear_map_8hpp.html" target="_top" xlink:title=" ">
<polygon fill="white" stroke="#666666" points="424.12,-79.5 283.12,-79.5 283.12,-60.5 424.12,-60.5 424.12,-79.5"/>
<text text-anchor="middle" x="353.62" y="-67.5" font-family="Helvetica,sans-Serif" font-size="10.00">Thoth/Dsa/LinearMap.hpp</text>
</a>
</g>
</g>
<!-- Node5&#45;&gt;Node10 -->
<g id="edge10_Node000005_Node000010" class="edge">
<title>Node5&#45;&gt;Node10</title>
<g id="a_edge10_Node000005_Node000010"><a xlink:title=" ">
<path fill="none" stroke="#63b8ff" d="M263.86,-120.95C283.4,-110.08 310.3,-95.11 329.55,-84.4"/>
<polygon fill="#63b8ff" stroke="#63b8ff" points="331.28,-87.44 338.31,-79.52 327.87,-81.32 331.28,-87.44"/>
</a>
</g>
</g>
<!-- Node16 -->
<g id="Node000016" class="node">
<title>Node16</title>
<g id="a_Node000016"><a xlink:title=" ">
<polygon fill="#e0e0e0" stroke="#999999" points="265.12,-85 154.12,-85 154.12,-55 265.12,-55 265.12,-85"/>
<text text-anchor="start" x="162.12" y="-73" font-family="Helvetica,sans-Serif" font-size="10.00">Thoth/Http/Request</text>
<text text-anchor="middle" x="209.62" y="-62" font-family="Helvetica,sans-Serif" font-size="10.00">/QueryParams.tpp</text>
</a>
</g>
</g>
<!-- Node5&#45;&gt;Node16 -->
<g id="edge17_Node000005_Node000016" class="edge">
<title>Node5&#45;&gt;Node16</title>
<g id="a_edge17_Node000005_Node000016"><a xlink:title=" ">
<path fill="none" stroke="#63b8ff" d="M232.18,-120.8C228.65,-113.01 224.19,-103.16 220.17,-94.28"/>
<polygon fill="#63b8ff" stroke="#63b8ff" points="223.35,-92.83 216.04,-85.16 216.98,-95.72 223.35,-92.83"/>
</a>
</g>
</g>
<!-- Node10&#45;&gt;Node8 -->
<g id="edge11_Node000010_Node000008" class="edge">
<title>Node10&#45;&gt;Node8</title>
<g id="a_edge11_Node000010_Node000008"><a xlink:title=" ">
<path fill="none" stroke="#63b8ff" d="M386.94,-60.49C423.63,-51.1 484.66,-35.44 546.01,-19.41"/>
<polygon fill="#63b8ff" stroke="#63b8ff" points="547.07,-22.75 555.86,-16.83 545.3,-15.98 547.07,-22.75"/>
</a>
</g>
</g>
<!-- Node11 -->
<g id="Node000011" class="node">
<title>Node11</title>
<g id="a_Node000011"><a xlink:title=" ">
<polygon fill="#e0e0e0" stroke="#999999" points="142.12,-19 97.12,-19 97.12,0 142.12,0 142.12,-19"/>
<text text-anchor="middle" x="119.62" y="-7" font-family="Helvetica,sans-Serif" font-size="10.00">utility</text>
</a>
</g>
</g>
<!-- Node10&#45;&gt;Node11 -->
<g id="edge12_Node000010_Node000011" class="edge">
<title>Node10&#45;&gt;Node11</title>
<g id="a_edge12_Node000010_Node000011"><a xlink:title=" ">
<path fill="none" stroke="#63b8ff" d="M318.18,-60.42C279.78,-51.08 216.45,-35.56 152.23,-19.12"/>
<polygon fill="#63b8ff" stroke="#63b8ff" points="152.89,-15.68 142.33,-16.58 151.15,-22.46 152.89,-15.68"/>
</a>
</g>
</g>
<!-- Node12 -->
<g id="Node000012" class="node">
<title>Node12</title>
<g id="a_Node000012"><a xlink:title=" ">
<polygon fill="#e0e0e0" stroke="#999999" points="220.62,-19 160.62,-19 160.62,0 220.62,0 220.62,-19"/>
<text text-anchor="middle" x="190.62" y="-7" font-family="Helvetica,sans-Serif" font-size="10.00">concepts</text>
</a>
</g>
</g>
<!-- Node10&#45;&gt;Node12 -->
<g id="edge13_Node000010_Node000012" class="edge">
<title>Node10&#45;&gt;Node12</title>
<g id="a_edge13_Node000010_Node000012"><a xlink:title=" ">
<path fill="none" stroke="#63b8ff" d="M329.92,-60.49C302.03,-50.49 255.55,-33.8 224.02,-22.49"/>
<polygon fill="#63b8ff" stroke="#63b8ff" points="224.94,-19.1 214.35,-19.02 222.58,-25.69 224.94,-19.1"/>
</a>
</g>
</g>
<!-- Node13 -->
<g id="Node000013" class="node">
<title>Node13</title>
<g id="a_Node000013"><a xlink:title=" ">
<polygon fill="#e0e0e0" stroke="#999999" points="304.12,-19 239.12,-19 239.12,0 304.12,0 304.12,-19"/>
<text text-anchor="middle" x="271.62" y="-7" font-family="Helvetica,sans-Serif" font-size="10.00">functional</text>
</a>
</g>
</g>
<!-- Node10&#45;&gt;Node13 -->
<g id="edge14_Node000010_Node000013" class="edge">
<title>Node10&#45;&gt;Node13</title>
<g id="a_edge14_Node000010_Node000013"><a xlink:title=" ">
<path fill="none" stroke="#63b8ff" d="M341.52,-60.37C328.56,-51.12 307.76,-36.28 292.21,-25.19"/>
<polygon fill="#63b8ff" stroke="#63b8ff" points="293.94,-22.13 283.77,-19.17 289.88,-27.82 293.94,-22.13"/>
</a>
</g>
</g>
<!-- Node14 -->
<g id="Node000014" class="node">
<title>Node14</title>
<g id="a_Node000014"><a xlink:title=" ">
<polygon fill="#e0e0e0" stroke="#999999" points="381.12,-19 322.12,-19 322.12,0 381.12,0 381.12,-19"/>
<text text-anchor="middle" x="351.62" y="-7" font-family="Helvetica,sans-Serif" font-size="10.00">compare</text>
</a>
</g>
</g>
<!-- Node10&#45;&gt;Node14 -->
<g id="edge15_Node000010_Node000014" class="edge">
<title>Node10&#45;&gt;Node14</title>
<g id="a_edge15_Node000010_Node000014"><a xlink:title=" ">
<path fill="none" stroke="#63b8ff" d="M353.32,-60.37C353.05,-52.25 352.62,-39.81 352.26,-29.39"/>
<polygon fill="#63b8ff" stroke="#63b8ff" points="355.75,-29.04 351.91,-19.17 348.76,-29.28 355.75,-29.04"/>
</a>
</g>
</g>
<!-- Node15 -->
<g id="Node000015" class="node">
<title>Node15</title>
<g id="a_Node000015"><a xlink:title=" ">
<polygon fill="#e0e0e0" stroke="#999999" points="538.12,-19 399.12,-19 399.12,0 538.12,0 538.12,-19"/>
<text text-anchor="middle" x="468.62" y="-7" font-family="Helvetica,sans-Serif" font-size="10.00">Thoth/Dsa/LinearMap.tpp</text>
</a>
</g>
</g>
<!-- Node10&#45;&gt;Node15 -->
<g id="edge16_Node000010_Node000015" class="edge">
<title>Node10&#45;&gt;Node15</title>
<g id="a_edge16_Node000010_Node000015"><a xlink:title=" ">
<path fill="none" stroke="#63b8ff" d="M370.59,-60.37C389.53,-50.73 420.4,-35.03 442.44,-23.81"/>
<polygon fill="#63b8ff" stroke="#63b8ff" points="444.25,-26.82 451.58,-19.17 441.08,-20.58 444.25,-26.82"/>
</a>
</g>
</g>
<!-- Node19 -->
<g id="Node000019" class="node">
<title>Node19</title>
<g id="a_Node000019"><a xlink:href="_method_concept_8hpp.html" target="_top" xlink:title=" ">
<polygon fill="white" stroke="#666666" points="511.12,-283 362.12,-283 362.12,-253 511.12,-253 511.12,-283"/>
<text text-anchor="start" x="370.12" y="-271" font-family="Helvetica,sans-Serif" font-size="10.00">Thoth/Http/Methods</text>
<text text-anchor="middle" x="436.62" y="-260" font-family="Helvetica,sans-Serif" font-size="10.00">/_base/MethodConcept.hpp</text>
</a>
</g>
</g>
<!-- Node18&#45;&gt;Node19 -->
<g id="edge20_Node000018_Node000019" class="edge">
<title>Node18&#45;&gt;Node19</title>
<g id="a_edge20_Node000018_Node000019"><a xlink:title=" ">
<path fill="none" stroke="#63b8ff" d="M443.62,-318.8C442.56,-311.26 441.23,-301.78 440.01,-293.13"/>
<polygon fill="#63b8ff" stroke="#63b8ff" points="443.47,-292.58 438.61,-283.16 436.54,-293.55 443.47,-292.58"/>
</a>
</g>
</g>
<!-- Node19&#45;&gt;Node3 -->
<g id="edge24_Node000019_Node000003" class="edge">
<title>Node19&#45;&gt;Node3</title>
<g id="a_edge24_Node000019_Node000003"><a xlink:title=" ">
<path fill="none" stroke="#63b8ff" d="M391.19,-252.95C359.78,-243.24 317.81,-230.27 284.53,-219.98"/>
<polygon fill="#63b8ff" stroke="#63b8ff" points="285.53,-216.62 274.94,-217.01 283.46,-223.31 285.53,-216.62"/>
</a>
</g>
</g>
<!-- Node20 -->
<g id="Node000020" class="node">
<title>Node20</title>
<g id="a_Node000020"><a xlink:href="_status_code_enum_8hpp.html" target="_top" xlink:title=" ">
<polygon fill="white" stroke="#666666" points="768.62,-151 644.62,-151 644.62,-121 768.62,-121 768.62,-151"/>
<text text-anchor="start" x="652.62" y="-139" font-family="Helvetica,sans-Serif" font-size="10.00">Thoth/Http/Response</text>
<text text-anchor="middle" x="706.62" y="-128" font-family="Helvetica,sans-Serif" font-size="10.00">/StatusCodeEnum.hpp</text>
</a>
</g>
</g>
<!-- Node19&#45;&gt;Node20 -->
<g id="edge21_Node000019_Node000020" class="edge">
<title>Node19&#45;&gt;Node20</title>
<g id="a_edge21_Node000019_Node000020"><a xlink:title=" ">
<path fill="none" stroke="#63b8ff" d="M511.36,-254.24C544.9,-246.54 584.15,-234.69 616.62,-217 644.32,-201.91 670.63,-176.82 687.57,-158.75"/>
<polygon fill="#63b8ff" stroke="#63b8ff" points="690.49,-160.75 694.66,-151.01 685.33,-156.02 690.49,-160.75"/>
</a>
</g>
</g>
<!-- Node22 -->
<g id="Node000022" class="node">
<title>Node22</title>
<g id="a_Node000022"><a xlink:href="_headers_8hpp.html" target="_top" xlink:title=" ">
<polygon fill="white" stroke="#666666" points="607.12,-211.5 474.12,-211.5 474.12,-192.5 607.12,-192.5 607.12,-211.5"/>
<text text-anchor="middle" x="540.62" y="-199.5" font-family="Helvetica,sans-Serif" font-size="10.00">Thoth/Http/Headers.hpp</text>
</a>
</g>
</g>
<!-- Node19&#45;&gt;Node22 -->
<g id="edge25_Node000019_Node000022" class="edge">
<title>Node19&#45;&gt;Node22</title>
<g id="a_edge25_Node000019_Node000022"><a xlink:title=" ">
<path fill="none" stroke="#63b8ff" d="M459.44,-252.95C476.8,-242.27 500.56,-227.65 517.89,-216.98"/>
<polygon fill="#63b8ff" stroke="#63b8ff" points="520.1,-219.74 526.78,-211.52 516.43,-213.78 520.1,-219.74"/>
</a>
</g>
</g>
<!-- Node25 -->
<g id="Node000025" class="node">
<title>Node25</title>
<g id="a_Node000025"><a xlink:title=" ">
<polygon fill="#e0e0e0" stroke="#999999" points="456.12,-211.5 383.12,-211.5 383.12,-192.5 456.12,-192.5 456.12,-211.5"/>
<text text-anchor="middle" x="419.62" y="-199.5" font-family="Helvetica,sans-Serif" font-size="10.00">string_view</text>
</a>
</g>
</g>
<!-- Node19&#45;&gt;Node25 -->
<g id="edge33_Node000019_Node000025" class="edge">
<title>Node19&#45;&gt;Node25</title>
<g id="a_edge33_Node000019_Node000025"><a xlink:title=" ">
<path fill="none" stroke="#63b8ff" d="M432.85,-252.8C430.4,-243.6 427.2,-231.53 424.55,-221.58"/>
<polygon fill="#63b8ff" stroke="#63b8ff" points="427.92,-220.61 421.97,-211.84 421.15,-222.41 427.92,-220.61"/>
</a>
</g>
</g>
<!-- Node20&#45;&gt;Node6 -->
<g id="edge23_Node000020_Node000006" class="edge">
<title>Node20&#45;&gt;Node6</title>
<g id="a_edge23_Node000020_Node000006"><a xlink:title=" ">
<path fill="none" stroke="#63b8ff" d="M690.64,-120.8C679.3,-110.72 664.09,-97.19 652.37,-86.78"/>
<polygon fill="#63b8ff" stroke="#63b8ff" points="654.37,-83.87 644.57,-79.84 649.72,-89.1 654.37,-83.87"/>
</a>
</g>
</g>
<!-- Node21 -->
<g id="Node000021" class="node">
<title>Node21</title>
<g id="a_Node000021"><a xlink:title=" ">
<polygon fill="#e0e0e0" stroke="#999999" points="742.62,-79.5 680.62,-79.5 680.62,-60.5 742.62,-60.5 742.62,-79.5"/>
<text text-anchor="middle" x="711.62" y="-67.5" font-family="Helvetica,sans-Serif" font-size="10.00">expected</text>
</a>
</g>
</g>
<!-- Node20&#45;&gt;Node21 -->
<g id="edge22_Node000020_Node000021" class="edge">
<title>Node20&#45;&gt;Node21</title>
<g id="a_edge22_Node000020_Node000021"><a xlink:title=" ">
<path fill="none" stroke="#63b8ff" d="M707.73,-120.8C708.44,-111.7 709.37,-99.79 710.14,-89.9"/>
<polygon fill="#63b8ff" stroke="#63b8ff" points="713.64,-90.09 710.93,-79.84 706.66,-89.54 713.64,-90.09"/>
</a>
</g>
</g>
<!-- Node22&#45;&gt;Node4 -->
<g id="edge30_Node000022_Node000004" class="edge">
<title>Node22&#45;&gt;Node4</title>
<g id="a_edge30_Node000022_Node000004"><a xlink:title=" ">
<path fill="none" stroke="#63b8ff" d="M497.47,-192.47C487.06,-190.55 475.96,-188.6 465.62,-187 336.4,-166.99 294.6,-200.61 173.62,-151 153.39,-142.7 152.47,-133.63 134.62,-121 116.73,-108.34 95.85,-94.86 80.35,-85.09"/>
<polygon fill="#63b8ff" stroke="#63b8ff" points="81.8,-81.87 71.47,-79.53 78.09,-87.8 81.8,-81.87"/>
</a>
</g>
</g>
<!-- Node22&#45;&gt;Node6 -->
<g id="edge27_Node000022_Node000006" class="edge">
<title>Node22&#45;&gt;Node6</title>
<g id="a_edge27_Node000022_Node000006"><a xlink:title=" ">
<path fill="none" stroke="#63b8ff" d="M551.57,-192.29C562.85,-182.94 580.43,-167.22 592.62,-151 607.29,-131.47 619.65,-106.11 627.08,-89.23"/>
<polygon fill="#63b8ff" stroke="#63b8ff" points="630.34,-90.51 631.05,-79.94 623.9,-87.76 630.34,-90.51"/>
</a>
</g>
</g>
<!-- Node22&#45;&gt;Node7 -->
<g id="edge28_Node000022_Node000007" class="edge">
<title>Node22&#45;&gt;Node7</title>
<g id="a_edge28_Node000022_Node000007"><a xlink:title=" ">
<path fill="none" stroke="#63b8ff" d="M539.44,-192.47C536.57,-171.73 529.16,-118.24 525.2,-89.66"/>
<polygon fill="#63b8ff" stroke="#63b8ff" points="528.67,-89.16 523.83,-79.73 521.73,-90.12 528.67,-89.16"/>
</a>
</g>
</g>
<!-- Node22&#45;&gt;Node8 -->
<g id="edge29_Node000022_Node000008" class="edge">
<title>Node22&#45;&gt;Node8</title>
<g id="a_edge29_Node000022_Node000008"><a xlink:title=" ">
<path fill="none" stroke="#63b8ff" d="M542.4,-192.32C548.33,-163.31 567.58,-69.3 575.82,-29.06"/>
<polygon fill="#63b8ff" stroke="#63b8ff" points="579.25,-29.73 577.83,-19.23 572.4,-28.33 579.25,-29.73"/>
</a>
</g>
</g>
<!-- Node22&#45;&gt;Node20 -->
<g id="edge26_Node000022_Node000020" class="edge">
<title>Node22&#45;&gt;Node20</title>
<g id="a_edge26_Node000022_Node000020"><a xlink:title=" ">
<path fill="none" stroke="#63b8ff" d="M563.01,-192.37C587.87,-182.78 628.69,-167.05 660.46,-154.8"/>
<polygon fill="#63b8ff" stroke="#63b8ff" points="661.93,-157.98 670.01,-151.12 659.42,-151.45 661.93,-157.98"/>
</a>
</g>
</g>
<!-- Node23 -->
<g id="Node000023" class="node">
<title>Node23</title>
<g id="a_Node000023"><a xlink:title=" ">
<polygon fill="#e0e0e0" stroke="#999999" points="362.62,-145.5 312.62,-145.5 312.62,-126.5 362.62,-126.5 362.62,-145.5"/>
<text text-anchor="middle" x="337.62" y="-133.5" font-family="Helvetica,sans-Serif" font-size="10.00">ranges</text>
</a>
</g>
</g>
<!-- Node22&#45;&gt;Node23 -->
<g id="edge31_Node000022_Node000023" class="edge">
<title>Node22&#45;&gt;Node23</title>
<g id="a_edge31_Node000022_Node000023"><a xlink:title=" ">
<path fill="none" stroke="#63b8ff" d="M508.76,-192.45C474.76,-183.12 419.47,-167.3 372.62,-151 371,-150.44 369.35,-149.85 367.69,-149.23"/>
<polygon fill="#63b8ff" stroke="#63b8ff" points="368.82,-145.92 358.23,-145.61 366.31,-152.45 368.82,-145.92"/>
</a>
</g>
</g>
<!-- Node24 -->
<g id="Node000024" class="node">
<title>Node24</title>
<g id="a_Node000024"><a xlink:title=" ">
<polygon fill="#e0e0e0" stroke="#999999" points="512.12,-145.5 381.12,-145.5 381.12,-126.5 512.12,-126.5 512.12,-145.5"/>
<text text-anchor="middle" x="446.62" y="-133.5" font-family="Helvetica,sans-Serif" font-size="10.00">Thoth/Http/Headers.tpp</text>
</a>
</g>
</g>
<!-- Node22&#45;&gt;Node24 -->
<g id="edge32_Node000022_Node000024" class="edge">
<title>Node22&#45;&gt;Node24</title>
<g id="a_edge32_Node000022_Node000024"><a xlink:title=" ">
<path fill="none" stroke="#63b8ff" d="M527.94,-192.37C512.52,-181.87 486.27,-164 467.77,-151.4"/>
<polygon fill="#63b8ff" stroke="#63b8ff" points="469.63,-148.43 459.4,-145.7 465.69,-154.22 469.63,-148.43"/>
</a>
</g>
</g>
<!-- Node26&#45;&gt;Node19 -->
<g id="edge35_Node000026_Node000019" class="edge">
<title>Node26&#45;&gt;Node19</title>
<g id="a_edge35_Node000026_Node000019"><a xlink:title=" ">
<path fill="none" stroke="#63b8ff" d="M341.39,-318.95C358.87,-309.78 381.9,-297.71 400.93,-287.72"/>
<polygon fill="#63b8ff" stroke="#63b8ff" points="402.68,-290.76 409.91,-283.01 399.43,-284.56 402.68,-290.76"/>
</a>
</g>
</g>
</g>
</svg>
