<?xml version="1.0" encoding="UTF-8" standalone="no"?>
<!DOCTYPE svg PUBLIC "-//W3C//DTD SVG 1.1//EN"
 "http://www.w3.org/Graphics/SVG/1.1/DTD/svg11.dtd">
<!-- Generated by graphviz version 2.43.0 (0)
 -->
<!-- Title: include/Thoth/Http/Response/Response.hpp Pages: 1 -->
<svg width="1533pt" height="489pt"
 viewBox="0.00 0.00 1533.45 489.00" xmlns="http://www.w3.org/2000/svg" xmlns:xlink="http://www.w3.org/1999/xlink">
<g id="graph0" class="graph" transform="scale(1 1) rotate(0) translate(4 485)">
<title>include/Thoth/Http/Response/Response.hpp</title>
<!-- Node1 -->
<g id="Node000001" class="node">
<title>Node1</title>
<g id="a_Node000001"><a xlink:title=" ">
<polygon fill="#999999" stroke="#666666" points="623,-481 485,-481 485,-451 623,-451 623,-481"/>
<text text-anchor="start" x="493" y="-469" font-family="Helvetica,sans-Serif" font-size="10.00">include/Thoth/Http</text>
<text text-anchor="middle" x="554" y="-458" font-family="Helvetica,sans-Serif" font-size="10.00">/Response/Response.hpp</text>
</a>
</g>
</g>
<!-- Node2 -->
<g id="Node000002" class="node">
<title>Node2</title>
<g id="a_Node000002"><a xlink:href="_status_code_enum_8hpp.html" target="_top" xlink:title=" ">
<polygon fill="white" stroke="#666666" points="124,-151 0,-151 0,-121 124,-121 124,-151"/>
<text text-anchor="start" x="8" y="-139" font-family="Helvetica,sans-Serif" font-size="10.00">Thoth/Http/Response</text>
<text text-anchor="middle" x="62" y="-128" font-family="Helvetica,sans-Serif" font-size="10.00">/StatusCodeEnum.hpp</text>
</a>
</g>
</g>
<!-- Node1&#45;&gt;Node2 -->
<g id="edge1_Node000001_Node000002" class="edge">
<title>Node1&#45;&gt;Node2</title>
<g id="a_edge1_Node000001_Node000002"><a xlink:title=" ">
<path fill="none" stroke="#63b8ff" d="M484.98,-459.36C359.31,-447.18 106,-412.95 106,-335 106,-335 106,-335 106,-267 106,-227.91 87.93,-185.54 74.95,-160.14"/>
<polygon fill="#63b8ff" stroke="#63b8ff" points="78.04,-158.49 70.28,-151.28 71.85,-161.76 78.04,-158.49"/>
</a>
</g>
</g>
<!-- Node5 -->
<g id="Node000005" class="node">
<title>Node5</title>
<g id="a_Node000005"><a xlink:href="_post_method_8hpp.html" target="_top" xlink:title=" ">
<polygon fill="white" stroke="#666666" points="479.5,-349 366.5,-349 366.5,-319 479.5,-319 479.5,-349"/>
<text text-anchor="start" x="374.5" y="-337" font-family="Helvetica,sans-Serif" font-size="10.00">Thoth/Http/Methods</text>
<text text-anchor="middle" x="423" y="-326" font-family="Helvetica,sans-Serif" font-size="10.00">/PostMethod.hpp</text>
</a>
</g>
</g>
<!-- Node1&#45;&gt;Node5 -->
<g id="edge4_Node000001_Node000005" class="edge">
<title>Node1&#45;&gt;Node5</title>
<g id="a_edge4_Node000001_Node000005"><a xlink:title=" ">
<path fill="none" stroke="#63b8ff" d="M539.73,-450.84C516.8,-428.08 471.58,-383.21 444.65,-356.49"/>
<polygon fill="#63b8ff" stroke="#63b8ff" points="446.81,-353.7 437.25,-349.14 441.88,-358.67 446.81,-353.7"/>
</a>
</g>
</g>
<!-- Node21 -->
<g id="Node000021" class="node">
<title>Node21</title>
<g id="a_Node000021"><a xlink:href="_headers_8hpp.html" target="_top" xlink:title=" ">
<polygon fill="white" stroke="#666666" points="436.5,-211.5 303.5,-211.5 303.5,-192.5 436.5,-192.5 436.5,-211.5"/>
<text text-anchor="middle" x="370" y="-199.5" font-family="Helvetica,sans-Serif" font-size="10.00">Thoth/Http/Headers.hpp</text>
</a>
</g>
</g>
<!-- Node1&#45;&gt;Node21 -->
<g id="edge41_Node000001_Node000021" class="edge">
<title>Node1&#45;&gt;Node21</title>
<g id="a_edge41_Node000001_Node000021"><a xlink:title=" ">
<path fill="none" stroke="#63b8ff" d="M503.18,-450.95C455.87,-434.87 388.12,-403.44 357,-349 333.6,-308.07 350.88,-249.93 362.21,-220.91"/>
<polygon fill="#63b8ff" stroke="#63b8ff" points="365.46,-222.21 366.03,-211.63 358.99,-219.54 365.46,-222.21"/>
</a>
</g>
</g>
<!-- Node25 -->
<g id="Node000025" class="node">
<title>Node25</title>
<g id="a_Node000025"><a xlink:href="_get_method_8hpp.html" target="_top" xlink:title=" ">
<polygon fill="white" stroke="#666666" points="610.5,-349 497.5,-349 497.5,-319 610.5,-319 610.5,-349"/>
<text text-anchor="start" x="505.5" y="-337" font-family="Helvetica,sans-Serif" font-size="10.00">Thoth/Http/Methods</text>
<text text-anchor="middle" x="554" y="-326" font-family="Helvetica,sans-Serif" font-size="10.00">/GetMethod.hpp</text>
</a>
</g>
</g>
<!-- Node1&#45;&gt;Node25 -->
<g id="edge33_Node000001_Node000025" class="edge">
<title>Node1&#45;&gt;Node25</title>
<g id="a_edge33_Node000001_Node000025"><a xlink:title=" ">
<path fill="none" stroke="#63b8ff" d="M554,-450.84C554,-428.86 554,-386.27 554,-359.3"/>
<polygon fill="#63b8ff" stroke="#63b8ff" points="557.5,-359.14 554,-349.14 550.5,-359.14 557.5,-359.14"/>
</a>
</g>
</g>
<!-- Node26 -->
<g id="Node000026" class="node">
<title>Node26</title>
<g id="a_Node000026"><a xlink:href="_request_8hpp.html" target="_top" xlink:title=" ">
<polygon fill="white" stroke="#666666" points="716.5,-415 605.5,-415 605.5,-385 716.5,-385 716.5,-415"/>
<text text-anchor="start" x="613.5" y="-403" font-family="Helvetica,sans-Serif" font-size="10.00">Thoth/Http/Request</text>
<text text-anchor="middle" x="661" y="-392" font-family="Helvetica,sans-Serif" font-size="10.00">/Request.hpp</text>
</a>
</g>
</g>
<!-- Node1&#45;&gt;Node26 -->
<g id="edge35_Node000001_Node000026" class="edge">
<title>Node1&#45;&gt;Node26</title>
<g id="a_edge35_Node000001_Node000026"><a xlink:title=" ">
<path fill="none" stroke="#63b8ff" d="M577.48,-450.95C592.53,-441.95 612.27,-430.14 628.78,-420.27"/>
<polygon fill="#63b8ff" stroke="#63b8ff" points="630.79,-423.15 637.57,-415.01 627.19,-417.14 630.79,-423.15"/>
</a>
</g>
</g>
<!-- Node29 -->
<g id="Node000029" class="node">
<title>Node29</title>
<g id="a_Node000029"><a xlink:href="_json_8hpp.html" target="_top" xlink:title=" ">
<polygon fill="white" stroke="#666666" points="1193.5,-211.5 1074.5,-211.5 1074.5,-192.5 1193.5,-192.5 1193.5,-211.5"/>
<text text-anchor="middle" x="1134" y="-199.5" font-family="Helvetica,sans-Serif" font-size="10.00">Thoth/NJson/Json.hpp</text>
</a>
</g>
</g>
<!-- Node1&#45;&gt;Node29 -->
<g id="edge42_Node000001_Node000029" class="edge">
<title>Node1&#45;&gt;Node29</title>
<g id="a_edge42_Node000001_Node000029"><a xlink:title=" ">
<path fill="none" stroke="#63b8ff" d="M623.05,-456.92C710.94,-444.32 865.25,-414.3 981,-349 1042.12,-314.52 1097.26,-250.14 1121.28,-219.73"/>
<polygon fill="#63b8ff" stroke="#63b8ff" points="1124.09,-221.82 1127.46,-211.78 1118.56,-217.53 1124.09,-221.82"/>
</a>
</g>
</g>
<!-- Node38 -->
<g id="Node000038" class="node">
<title>Node38</title>
<g id="a_Node000038"><a xlink:title=" ">
<polygon fill="#e0e0e0" stroke="#999999" points="1147.5,-415 1028.5,-415 1028.5,-385 1147.5,-385 1147.5,-415"/>
<text text-anchor="start" x="1036.5" y="-403" font-family="Helvetica,sans-Serif" font-size="10.00">Thoth/Http/Response</text>
<text text-anchor="middle" x="1088" y="-392" font-family="Helvetica,sans-Serif" font-size="10.00">/Response.tpp</text>
</a>
</g>
</g>
<!-- Node1&#45;&gt;Node38 -->
<g id="edge60_Node000001_Node000038" class="edge">
<title>Node1&#45;&gt;Node38</title>
<g id="a_edge60_Node000001_Node000038"><a xlink:title=" ">
<path fill="none" stroke="#63b8ff" d="M623.19,-459.19C713.39,-451.22 875.94,-435.53 1014,-415 1015.45,-414.78 1016.92,-414.56 1018.41,-414.33"/>
<polygon fill="#63b8ff" stroke="#63b8ff" points="1018.99,-417.78 1028.29,-412.71 1017.86,-410.87 1018.99,-417.78"/>
</a>
</g>
</g>
<!-- Node3 -->
<g id="Node000003" class="node">
<title>Node3</title>
<g id="a_Node000003"><a xlink:title=" ">
<polygon fill="#e0e0e0" stroke="#999999" points="93,-79.5 31,-79.5 31,-60.5 93,-60.5 93,-79.5"/>
<text text-anchor="middle" x="62" y="-67.5" font-family="Helvetica,sans-Serif" font-size="10.00">expected</text>
</a>
</g>
</g>
<!-- Node2&#45;&gt;Node3 -->
<g id="edge2_Node000002_Node000003" class="edge">
<title>Node2&#45;&gt;Node3</title>
<g id="a_edge2_Node000002_Node000003"><a xlink:title=" ">
<path fill="none" stroke="#63b8ff" d="M62,-120.8C62,-111.7 62,-99.79 62,-89.9"/>
<polygon fill="#63b8ff" stroke="#63b8ff" points="65.5,-89.84 62,-79.84 58.5,-89.84 65.5,-89.84"/>
</a>
</g>
</g>
<!-- Node4 -->
<g id="Node000004" class="node">
<title>Node4</title>
<g id="a_Node000004"><a xlink:title=" ">
<polygon fill="#e0e0e0" stroke="#999999" points="246,-79.5 190,-79.5 190,-60.5 246,-60.5 246,-79.5"/>
<text text-anchor="middle" x="218" y="-67.5" font-family="Helvetica,sans-Serif" font-size="10.00">optional</text>
</a>
</g>
</g>
<!-- Node2&#45;&gt;Node4 -->
<g id="edge3_Node000002_Node000004" class="edge">
<title>Node2&#45;&gt;Node4</title>
<g id="a_edge3_Node000002_Node000004"><a xlink:title=" ">
<path fill="none" stroke="#63b8ff" d="M96.23,-120.95C123.59,-109.73 161.57,-94.15 187.81,-83.39"/>
<polygon fill="#63b8ff" stroke="#63b8ff" points="189.32,-86.55 197.24,-79.52 186.66,-80.07 189.32,-86.55"/>
</a>
</g>
</g>
<!-- Node6 -->
<g id="Node000006" class="node">
<title>Node6</title>
<g id="a_Node000006"><a xlink:href="_method_concept_8hpp.html" target="_top" xlink:title=" ">
<polygon fill="white" stroke="#666666" points="571.5,-283 422.5,-283 422.5,-253 571.5,-253 571.5,-283"/>
<text text-anchor="start" x="430.5" y="-271" font-family="Helvetica,sans-Serif" font-size="10.00">Thoth/Http/Methods</text>
<text text-anchor="middle" x="497" y="-260" font-family="Helvetica,sans-Serif" font-size="10.00">/_base/MethodConcept.hpp</text>
</a>
</g>
</g>
<!-- Node5&#45;&gt;Node6 -->
<g id="edge5_Node000005_Node000006" class="edge">
<title>Node5&#45;&gt;Node6</title>
<g id="a_edge5_Node000005_Node000006"><a xlink:title=" ">
<path fill="none" stroke="#63b8ff" d="M439.42,-318.8C449.29,-310.26 462.02,-299.25 473,-289.75"/>
<polygon fill="#63b8ff" stroke="#63b8ff" points="475.35,-292.35 480.62,-283.16 470.77,-287.06 475.35,-292.35"/>
</a>
</g>
</g>
<!-- Node6&#45;&gt;Node2 -->
<g id="edge6_Node000006_Node000002" class="edge">
<title>Node6&#45;&gt;Node2</title>
<g id="a_edge6_Node000006_Node000002"><a xlink:title=" ">
<path fill="none" stroke="#63b8ff" d="M433.51,-252.92C393.29,-243.62 340.3,-230.66 294,-217 229.14,-197.87 155.53,-171.71 108.95,-154.59"/>
<polygon fill="#63b8ff" stroke="#63b8ff" points="110.03,-151.26 99.44,-151.08 107.61,-157.83 110.03,-151.26"/>
</a>
</g>
</g>
<!-- Node7 -->
<g id="Node000007" class="node">
<title>Node7</title>
<g id="a_Node000007"><a xlink:href="_url_8hpp.html" target="_top" xlink:title=" ">
<polygon fill="white" stroke="#666666" points="791.5,-217 680.5,-217 680.5,-187 791.5,-187 791.5,-217"/>
<text text-anchor="start" x="688.5" y="-205" font-family="Helvetica,sans-Serif" font-size="10.00">Thoth/Http/Request</text>
<text text-anchor="middle" x="736" y="-194" font-family="Helvetica,sans-Serif" font-size="10.00">/Url.hpp</text>
</a>
</g>
</g>
<!-- Node6&#45;&gt;Node7 -->
<g id="edge7_Node000006_Node000007" class="edge">
<title>Node6&#45;&gt;Node7</title>
<g id="a_edge7_Node000006_Node000007"><a xlink:title=" ">
<path fill="none" stroke="#63b8ff" d="M549.45,-252.95C586.03,-243.16 635,-230.05 673.59,-219.71"/>
<polygon fill="#63b8ff" stroke="#63b8ff" points="674.92,-222.98 683.67,-217.01 673.11,-216.22 674.92,-222.98"/>
</a>
</g>
</g>
<!-- Node6&#45;&gt;Node21 -->
<g id="edge24_Node000006_Node000021" class="edge">
<title>Node6&#45;&gt;Node21</title>
<g id="a_edge24_Node000006_Node000021"><a xlink:title=" ">
<path fill="none" stroke="#63b8ff" d="M469.13,-252.95C447.35,-241.98 417.3,-226.83 396.01,-216.11"/>
<polygon fill="#63b8ff" stroke="#63b8ff" points="397.41,-212.89 386.9,-211.52 394.26,-219.14 397.41,-212.89"/>
</a>
</g>
</g>
<!-- Node24 -->
<g id="Node000024" class="node">
<title>Node24</title>
<g id="a_Node000024"><a xlink:title=" ">
<polygon fill="#e0e0e0" stroke="#999999" points="889.5,-79.5 816.5,-79.5 816.5,-60.5 889.5,-60.5 889.5,-79.5"/>
<text text-anchor="middle" x="853" y="-67.5" font-family="Helvetica,sans-Serif" font-size="10.00">string_view</text>
</a>
</g>
</g>
<!-- Node6&#45;&gt;Node24 -->
<g id="edge32_Node000006_Node000024" class="edge">
<title>Node6&#45;&gt;Node24</title>
<g id="a_edge32_Node000006_Node000024"><a xlink:title=" ">
<path fill="none" stroke="#63b8ff" d="M571.73,-263.28C650.28,-257.92 767.08,-245.33 801,-217 839.81,-184.59 849.66,-121.09 852.16,-89.61"/>
<polygon fill="#63b8ff" stroke="#63b8ff" points="855.65,-89.77 852.78,-79.57 848.67,-89.34 855.65,-89.77"/>
</a>
</g>
</g>
<!-- Node8 -->
<g id="Node000008" class="node">
<title>Node8</title>
<g id="a_Node000008"><a xlink:title=" ">
<polygon fill="#e0e0e0" stroke="#999999" points="798,-79.5 754,-79.5 754,-60.5 798,-60.5 798,-79.5"/>
<text text-anchor="middle" x="776" y="-67.5" font-family="Helvetica,sans-Serif" font-size="10.00">string</text>
</a>
</g>
</g>
<!-- Node7&#45;&gt;Node8 -->
<g id="edge8_Node000007_Node000008" class="edge">
<title>Node7&#45;&gt;Node8</title>
<g id="a_edge8_Node000007_Node000008"><a xlink:title=" ">
<path fill="none" stroke="#63b8ff" d="M764.81,-186.84C778.45,-178.47 793.39,-166.45 801,-151 811.1,-130.48 799.38,-105.01 788.82,-88.39"/>
<polygon fill="#63b8ff" stroke="#63b8ff" points="791.44,-86.03 782.91,-79.74 785.66,-89.97 791.44,-86.03"/>
</a>
</g>
</g>
<!-- Node9 -->
<g id="Node000009" class="node">
<title>Node9</title>
<g id="a_Node000009"><a xlink:href="_query_params_8hpp.html" target="_top" xlink:title=" ">
<polygon fill="white" stroke="#666666" points="623.5,-151 512.5,-151 512.5,-121 623.5,-121 623.5,-151"/>
<text text-anchor="start" x="520.5" y="-139" font-family="Helvetica,sans-Serif" font-size="10.00">Thoth/Http/Request</text>
<text text-anchor="middle" x="568" y="-128" font-family="Helvetica,sans-Serif" font-size="10.00">/QueryParams.hpp</text>
</a>
</g>
</g>
<!-- Node7&#45;&gt;Node9 -->
<g id="edge9_Node000007_Node000009" class="edge">
<title>Node7&#45;&gt;Node9</title>
<g id="a_edge9_Node000007_Node000009"><a xlink:title=" ">
<path fill="none" stroke="#63b8ff" d="M699.13,-186.95C674.18,-177.45 641.04,-164.82 614.31,-154.64"/>
<polygon fill="#63b8ff" stroke="#63b8ff" points="615.37,-151.3 604.78,-151.01 612.88,-157.84 615.37,-151.3"/>
</a>
</g>
</g>
<!-- Node20 -->
<g id="Node000020" class="node">
<title>Node20</title>
<g id="a_Node000020"><a xlink:title=" ">
<polygon fill="#e0e0e0" stroke="#999999" points="791.5,-151 680.5,-151 680.5,-121 791.5,-121 791.5,-151"/>
<text text-anchor="start" x="688.5" y="-139" font-family="Helvetica,sans-Serif" font-size="10.00">Thoth/Http/Request</text>
<text text-anchor="middle" x="736" y="-128" font-family="Helvetica,sans-Serif" font-size="10.00">/Url.tpp</text>
</a>
</g>
</g>
<!-- Node7&#45;&gt;Node20 -->
<g id="edge23_Node000007_Node000020" class="edge">
<title>Node7&#45;&gt;Node20</title>
<g id="a_edge23_Node000007_Node000020"><a xlink:title=" ">
<path fill="none" stroke="#63b8ff" d="M736,-186.8C736,-179.34 736,-169.99 736,-161.41"/>
<polygon fill="#63b8ff" stroke="#63b8ff" points="739.5,-161.16 736,-151.16 732.5,-161.16 739.5,-161.16"/>
</a>
</g>
</g>
<!-- Node9&#45;&gt;Node4 -->
<g id="edge10_Node000009_Node000004" class="edge">
<title>Node9&#45;&gt;Node4</title>
<g id="a_edge10_Node000009_Node000004"><a xlink:title=" ">
<path fill="none" stroke="#63b8ff" d="M512.36,-127.5C435.91,-116.96 302.46,-97.63 255,-85 252.7,-84.39 250.35,-83.69 248,-82.93"/>
<polygon fill="#63b8ff" stroke="#63b8ff" points="249.1,-79.61 238.5,-79.6 246.78,-86.21 249.1,-79.61"/>
</a>
</g>
</g>
<!-- Node9&#45;&gt;Node8 -->
<g id="edge13_Node000009_Node000008" class="edge">
<title>Node9&#45;&gt;Node8</title>
<g id="a_edge13_Node000009_Node000008"><a xlink:title=" ">
<path fill="none" stroke="#63b8ff" d="M620.69,-120.98C654.92,-111.55 700.39,-98.43 740,-85 741.66,-84.44 743.35,-83.84 745.06,-83.23"/>
<polygon fill="#63b8ff" stroke="#63b8ff" points="746.65,-86.38 754.79,-79.6 744.2,-79.82 746.65,-86.38"/>
</a>
</g>
</g>
<!-- Node10 -->
<g id="Node000010" class="node">
<title>Node10</title>
<g id="a_Node000010"><a xlink:title=" ">
<polygon fill="#e0e0e0" stroke="#999999" points="314,-79.5 264,-79.5 264,-60.5 314,-60.5 314,-79.5"/>
<text text-anchor="middle" x="289" y="-67.5" font-family="Helvetica,sans-Serif" font-size="10.00">format</text>
</a>
</g>
</g>
<!-- Node9&#45;&gt;Node10 -->
<g id="edge11_Node000009_Node000010" class="edge">
<title>Node9&#45;&gt;Node10</title>
<g id="a_edge11_Node000009_Node000010"><a xlink:title=" ">
<path fill="none" stroke="#63b8ff" d="M512.28,-126.72C462.13,-118.54 386.74,-104.44 323,-85 321.32,-84.49 319.61,-83.92 317.89,-83.33"/>
<polygon fill="#63b8ff" stroke="#63b8ff" points="318.78,-79.92 308.19,-79.64 316.29,-86.46 318.78,-79.92"/>
</a>
</g>
</g>
<!-- Node11 -->
<g id="Node000011" class="node">
<title>Node11</title>
<g id="a_Node000011"><a xlink:title=" ">
<polygon fill="#e0e0e0" stroke="#999999" points="716.5,-19 669.5,-19 669.5,0 716.5,0 716.5,-19"/>
<text text-anchor="middle" x="693" y="-7" font-family="Helvetica,sans-Serif" font-size="10.00">vector</text>
</a>
</g>
</g>
<!-- Node9&#45;&gt;Node11 -->
<g id="edge12_Node000009_Node000011" class="edge">
<title>Node9&#45;&gt;Node11</title>
<g id="a_edge12_Node000009_Node000011"><a xlink:title=" ">
<path fill="none" stroke="#63b8ff" d="M623.63,-121.95C657.8,-112.68 696.9,-99.37 707,-85 718.78,-68.24 711.06,-44.31 703.19,-28.13"/>
<polygon fill="#63b8ff" stroke="#63b8ff" points="706.23,-26.39 698.45,-19.19 700.04,-29.67 706.23,-26.39"/>
</a>
</g>
</g>
<!-- Node12 -->
<g id="Node000012" class="node">
<title>Node12</title>
<g id="a_Node000012"><a xlink:title=" ">
<polygon fill="#e0e0e0" stroke="#999999" points="568,-79.5 530,-79.5 530,-60.5 568,-60.5 568,-79.5"/>
<text text-anchor="middle" x="549" y="-67.5" font-family="Helvetica,sans-Serif" font-size="10.00">map</text>
</a>
</g>
</g>
<!-- Node9&#45;&gt;Node12 -->
<g id="edge14_Node000009_Node000012" class="edge">
<title>Node9&#45;&gt;Node12</title>
<g id="a_edge14_Node000009_Node000012"><a xlink:title=" ">
<path fill="none" stroke="#63b8ff" d="M563.78,-120.8C561.05,-111.6 557.47,-99.53 554.52,-89.58"/>
<polygon fill="#63b8ff" stroke="#63b8ff" points="557.83,-88.43 551.63,-79.84 551.12,-90.43 557.83,-88.43"/>
</a>
</g>
</g>
<!-- Node13 -->
<g id="Node000013" class="node">
<title>Node13</title>
<g id="a_Node000013"><a xlink:href="_linear_map_8hpp.html" target="_top" xlink:title=" ">
<polygon fill="white" stroke="#666666" points="473.5,-79.5 332.5,-79.5 332.5,-60.5 473.5,-60.5 473.5,-79.5"/>
<text text-anchor="middle" x="403" y="-67.5" font-family="Helvetica,sans-Serif" font-size="10.00">Thoth/Dsa/LinearMap.hpp</text>
</a>
</g>
</g>
<!-- Node9&#45;&gt;Node13 -->
<g id="edge15_Node000009_Node000013" class="edge">
<title>Node9&#45;&gt;Node13</title>
<g id="a_edge15_Node000009_Node000013"><a xlink:title=" ">
<path fill="none" stroke="#63b8ff" d="M531.79,-120.95C502.73,-109.68 462.33,-94.01 434.57,-83.25"/>
<polygon fill="#63b8ff" stroke="#63b8ff" points="435.55,-79.87 424.96,-79.52 433.02,-86.4 435.55,-79.87"/>
</a>
</g>
</g>
<!-- Node19 -->
<g id="Node000019" class="node">
<title>Node19</title>
<g id="a_Node000019"><a xlink:title=" ">
<polygon fill="#e0e0e0" stroke="#999999" points="697.5,-85 586.5,-85 586.5,-55 697.5,-55 697.5,-85"/>
<text text-anchor="start" x="594.5" y="-73" font-family="Helvetica,sans-Serif" font-size="10.00">Thoth/Http/Request</text>
<text text-anchor="middle" x="642" y="-62" font-family="Helvetica,sans-Serif" font-size="10.00">/QueryParams.tpp</text>
</a>
</g>
</g>
<!-- Node9&#45;&gt;Node19 -->
<g id="edge22_Node000009_Node000019" class="edge">
<title>Node9&#45;&gt;Node19</title>
<g id="a_edge22_Node000009_Node000019"><a xlink:title=" ">
<path fill="none" stroke="#63b8ff" d="M584.42,-120.8C594.29,-112.26 607.02,-101.25 618,-91.75"/>
<polygon fill="#63b8ff" stroke="#63b8ff" points="620.35,-94.35 625.62,-85.16 615.77,-89.06 620.35,-94.35"/>
</a>
</g>
</g>
<!-- Node13&#45;&gt;Node11 -->
<g id="edge16_Node000013_Node000011" class="edge">
<title>Node13&#45;&gt;Node11</title>
<g id="a_edge16_Node000013_Node000011"><a xlink:title=" ">
<path fill="none" stroke="#63b8ff" d="M445.17,-60.49C503.19,-48.79 606.48,-27.95 659.53,-17.25"/>
<polygon fill="#63b8ff" stroke="#63b8ff" points="660.33,-20.66 669.44,-15.25 658.94,-13.8 660.33,-20.66"/>
</a>
</g>
</g>
<!-- Node14 -->
<g id="Node000014" class="node">
<title>Node14</title>
<g id="a_Node000014"><a xlink:title=" ">
<polygon fill="#e0e0e0" stroke="#999999" points="480.5,-19 435.5,-19 435.5,0 480.5,0 480.5,-19"/>
<text text-anchor="middle" x="458" y="-7" font-family="Helvetica,sans-Serif" font-size="10.00">utility</text>
</a>
</g>
</g>
<!-- Node13&#45;&gt;Node14 -->
<g id="edge17_Node000013_Node000014" class="edge">
<title>Node13&#45;&gt;Node14</title>
<g id="a_edge17_Node000013_Node000014"><a xlink:title=" ">
<path fill="none" stroke="#63b8ff" d="M411.12,-60.37C419.4,-51.55 432.47,-37.66 442.7,-26.77"/>
<polygon fill="#63b8ff" stroke="#63b8ff" points="445.55,-28.85 449.85,-19.17 440.45,-24.06 445.55,-28.85"/>
</a>
</g>
</g>
<!-- Node15 -->
<g id="Node000015" class="node">
<title>Node15</title>
<g id="a_Node000015"><a xlink:title=" ">
<polygon fill="#e0e0e0" stroke="#999999" points="1335,-19 1275,-19 1275,0 1335,0 1335,-19"/>
<text text-anchor="middle" x="1305" y="-7" font-family="Helvetica,sans-Serif" font-size="10.00">concepts</text>
</a>
</g>
</g>
<!-- Node13&#45;&gt;Node15 -->
<g id="edge18_Node000013_Node000015" class="edge">
<title>Node13&#45;&gt;Node15</title>
<g id="a_edge18_Node000013_Node000015"><a xlink:title=" ">
<path fill="none" stroke="#63b8ff" d="M468.77,-60.47C485.76,-58.47 504.05,-56.49 521,-55 805.14,-30.1 1148.49,-16.18 1264.49,-11.92"/>
<polygon fill="#63b8ff" stroke="#63b8ff" points="1264.82,-15.41 1274.68,-11.55 1264.56,-8.42 1264.82,-15.41"/>
</a>
</g>
</g>
<!-- Node16 -->
<g id="Node000016" class="node">
<title>Node16</title>
<g id="a_Node000016"><a xlink:title=" ">
<polygon fill="#e0e0e0" stroke="#999999" points="563.5,-19 498.5,-19 498.5,0 563.5,0 563.5,-19"/>
<text text-anchor="middle" x="531" y="-7" font-family="Helvetica,sans-Serif" font-size="10.00">functional</text>
</a>
</g>
</g>
<!-- Node13&#45;&gt;Node16 -->
<g id="edge19_Node000013_Node000016" class="edge">
<title>Node13&#45;&gt;Node16</title>
<g id="a_edge19_Node000013_Node000016"><a xlink:title=" ">
<path fill="none" stroke="#63b8ff" d="M421.61,-60.49C443.04,-50.7 478.44,-34.52 503.15,-23.23"/>
<polygon fill="#63b8ff" stroke="#63b8ff" points="504.72,-26.36 512.37,-19.02 501.82,-19.99 504.72,-26.36"/>
</a>
</g>
</g>
<!-- Node17 -->
<g id="Node000017" class="node">
<title>Node17</title>
<g id="a_Node000017"><a xlink:title=" ">
<polygon fill="#e0e0e0" stroke="#999999" points="260.5,-19 201.5,-19 201.5,0 260.5,0 260.5,-19"/>
<text text-anchor="middle" x="231" y="-7" font-family="Helvetica,sans-Serif" font-size="10.00">compare</text>
</a>
</g>
</g>
<!-- Node13&#45;&gt;Node17 -->
<g id="edge20_Node000013_Node000017" class="edge">
<title>Node13&#45;&gt;Node17</title>
<g id="a_edge20_Node000013_Node000017"><a xlink:title=" ">
<path fill="none" stroke="#63b8ff" d="M377.99,-60.49C348.44,-50.44 299.09,-33.66 265.81,-22.34"/>
<polygon fill="#63b8ff" stroke="#63b8ff" points="266.63,-18.92 256.04,-19.02 264.38,-25.55 266.63,-18.92"/>
</a>
</g>
</g>
<!-- Node18 -->
<g id="Node000018" class="node">
<title>Node18</title>
<g id="a_Node000018"><a xlink:title=" ">
<polygon fill="#e0e0e0" stroke="#999999" points="417.5,-19 278.5,-19 278.5,0 417.5,0 417.5,-19"/>
<text text-anchor="middle" x="348" y="-7" font-family="Helvetica,sans-Serif" font-size="10.00">Thoth/Dsa/LinearMap.tpp</text>
</a>
</g>
</g>
<!-- Node13&#45;&gt;Node18 -->
<g id="edge21_Node000013_Node000018" class="edge">
<title>Node13&#45;&gt;Node18</title>
<g id="a_edge21_Node000013_Node000018"><a xlink:title=" ">
<path fill="none" stroke="#63b8ff" d="M394.88,-60.37C386.6,-51.55 373.53,-37.66 363.3,-26.77"/>
<polygon fill="#63b8ff" stroke="#63b8ff" points="365.55,-24.06 356.15,-19.17 360.45,-28.85 365.55,-24.06"/>
</a>
</g>
</g>
<!-- Node21&#45;&gt;Node2 -->
<g id="edge25_Node000021_Node000002" class="edge">
<title>Node21&#45;&gt;Node2</title>
<g id="a_edge25_Node000021_Node000002"><a xlink:title=" ">
<path fill="none" stroke="#63b8ff" d="M328.78,-192.44C279.09,-182.11 194.73,-164.58 134.17,-152"/>
<polygon fill="#63b8ff" stroke="#63b8ff" points="134.78,-148.55 124.28,-149.94 133.36,-155.4 134.78,-148.55"/>
</a>
</g>
</g>
<!-- Node21&#45;&gt;Node4 -->
<g id="edge26_Node000021_Node000004" class="edge">
<title>Node21&#45;&gt;Node4</title>
<g id="a_edge26_Node000021_Node000004"><a xlink:title=" ">
<path fill="none" stroke="#63b8ff" d="M370.3,-192.35C370.38,-176.27 368.27,-141.54 350,-121 349.94,-120.94 289.14,-97.92 250.09,-83.14"/>
<polygon fill="#63b8ff" stroke="#63b8ff" points="251.27,-79.85 240.68,-79.58 248.79,-86.39 251.27,-79.85"/>
</a>
</g>
</g>
<!-- Node21&#45;&gt;Node8 -->
<g id="edge29_Node000021_Node000008" class="edge">
<title>Node21&#45;&gt;Node8</title>
<g id="a_edge29_Node000021_Node000008"><a xlink:title=" ">
<path fill="none" stroke="#63b8ff" d="M436.52,-196.66C491.01,-191.16 569.1,-178.79 632,-151 652.33,-142.02 653.01,-132.54 672,-121 695.8,-106.55 724.41,-93.05 745.6,-83.73"/>
<polygon fill="#63b8ff" stroke="#63b8ff" points="747.27,-86.82 755.05,-79.63 744.49,-80.4 747.27,-86.82"/>
</a>
</g>
</g>
<!-- Node21&#45;&gt;Node10 -->
<g id="edge27_Node000021_Node000010" class="edge">
<title>Node21&#45;&gt;Node10</title>
<g id="a_edge27_Node000021_Node000010"><a xlink:title=" ">
<path fill="none" stroke="#63b8ff" d="M375.07,-192.36C383.43,-176.89 397.85,-143.93 384,-121 380.12,-114.57 343.46,-96.41 316.84,-83.85"/>
<polygon fill="#63b8ff" stroke="#63b8ff" points="318.1,-80.57 307.56,-79.5 315.13,-86.91 318.1,-80.57"/>
</a>
</g>
</g>
<!-- Node21&#45;&gt;Node11 -->
<g id="edge28_Node000021_Node000011" class="edge">
<title>Node21&#45;&gt;Node11</title>
<g id="a_edge28_Node000021_Node000011"><a xlink:title=" ">
<path fill="none" stroke="#63b8ff" d="M377.75,-192.44C403.54,-164.12 486.8,-74.17 521,-55 565.08,-30.29 623.18,-18.98 659.31,-14.04"/>
<polygon fill="#63b8ff" stroke="#63b8ff" points="659.85,-17.5 669.33,-12.76 658.96,-10.56 659.85,-17.5"/>
</a>
</g>
</g>
<!-- Node22 -->
<g id="Node000022" class="node">
<title>Node22</title>
<g id="a_Node000022"><a xlink:title=" ">
<polygon fill="#e0e0e0" stroke="#999999" points="192,-145.5 142,-145.5 142,-126.5 192,-126.5 192,-145.5"/>
<text text-anchor="middle" x="167" y="-133.5" font-family="Helvetica,sans-Serif" font-size="10.00">ranges</text>
</a>
</g>
</g>
<!-- Node21&#45;&gt;Node22 -->
<g id="edge30_Node000021_Node000022" class="edge">
<title>Node21&#45;&gt;Node22</title>
<g id="a_edge30_Node000021_Node000022"><a xlink:title=" ">
<path fill="none" stroke="#63b8ff" d="M337.6,-192.48C303.35,-183.23 247.89,-167.54 201,-151 199.57,-150.5 198.11,-149.96 196.65,-149.42"/>
<polygon fill="#63b8ff" stroke="#63b8ff" points="197.59,-146.03 187,-145.64 195.04,-152.54 197.59,-146.03"/>
</a>
</g>
</g>
<!-- Node23 -->
<g id="Node000023" class="node">
<title>Node23</title>
<g id="a_Node000023"><a xlink:title=" ">
<polygon fill="#e0e0e0" stroke="#999999" points="341.5,-145.5 210.5,-145.5 210.5,-126.5 341.5,-126.5 341.5,-145.5"/>
<text text-anchor="middle" x="276" y="-133.5" font-family="Helvetica,sans-Serif" font-size="10.00">Thoth/Http/Headers.tpp</text>
</a>
</g>
</g>
<!-- Node21&#45;&gt;Node23 -->
<g id="edge31_Node000021_Node000023" class="edge">
<title>Node21&#45;&gt;Node23</title>
<g id="a_edge31_Node000021_Node000023"><a xlink:title=" ">
<path fill="none" stroke="#63b8ff" d="M357.32,-192.37C341.91,-181.87 315.65,-164 297.15,-151.4"/>
<polygon fill="#63b8ff" stroke="#63b8ff" points="299.01,-148.43 288.78,-145.7 295.07,-154.22 299.01,-148.43"/>
</a>
</g>
</g>
<!-- Node25&#45;&gt;Node6 -->
<g id="edge34_Node000025_Node000006" class="edge">
<title>Node25&#45;&gt;Node6</title>
<g id="a_edge34_Node000025_Node000006"><a xlink:title=" ">
<path fill="none" stroke="#63b8ff" d="M541.35,-318.8C534.04,-310.59 524.7,-300.1 516.48,-290.87"/>
<polygon fill="#63b8ff" stroke="#63b8ff" points="518.88,-288.3 509.61,-283.16 513.65,-292.96 518.88,-288.3"/>
</a>
</g>
</g>
<!-- Node26&#45;&gt;Node5 -->
<g id="edge39_Node000026_Node000005" class="edge">
<title>Node26&#45;&gt;Node5</title>
<g id="a_edge39_Node000026_Node000005"><a xlink:title=" ">
<path fill="none" stroke="#63b8ff" d="M608.77,-384.95C572.34,-375.16 523.57,-362.05 485.15,-351.71"/>
<polygon fill="#63b8ff" stroke="#63b8ff" points="485.67,-348.23 475.11,-349.01 483.86,-354.99 485.67,-348.23"/>
</a>
</g>
</g>
<!-- Node26&#45;&gt;Node7 -->
<g id="edge37_Node000026_Node000007" class="edge">
<title>Node26&#45;&gt;Node7</title>
<g id="a_edge37_Node000026_Node000007"><a xlink:title=" ">
<path fill="none" stroke="#63b8ff" d="M705.2,-384.85C721.98,-377.08 739.37,-365.55 749,-349 771.31,-310.66 757.21,-256.85 745.94,-226.41"/>
<polygon fill="#63b8ff" stroke="#63b8ff" points="749.18,-225.08 742.29,-217.03 742.66,-227.62 749.18,-225.08"/>
</a>
</g>
</g>
<!-- Node26&#45;&gt;Node25 -->
<g id="edge38_Node000026_Node000025" class="edge">
<title>Node26&#45;&gt;Node25</title>
<g id="a_edge38_Node000026_Node000025"><a xlink:title=" ">
<path fill="none" stroke="#63b8ff" d="M637.52,-384.95C622.47,-375.95 602.73,-364.14 586.22,-354.27"/>
<polygon fill="#63b8ff" stroke="#63b8ff" points="587.81,-351.14 577.43,-349.01 584.21,-357.15 587.81,-351.14"/>
</a>
</g>
</g>
<!-- Node27 -->
<g id="Node000027" class="node">
<title>Node27</title>
<g id="a_Node000027"><a xlink:title=" ">
<polygon fill="#e0e0e0" stroke="#999999" points="971.5,-343.5 796.5,-343.5 796.5,-324.5 971.5,-324.5 971.5,-343.5"/>
<text text-anchor="middle" x="884" y="-331.5" font-family="Helvetica,sans-Serif" font-size="10.00">Hermes/Socket/ClientSocket.hpp</text>
</a>
</g>
</g>
<!-- Node26&#45;&gt;Node27 -->
<g id="edge36_Node000026_Node000027" class="edge">
<title>Node26&#45;&gt;Node27</title>
<g id="a_edge36_Node000026_Node000027"><a xlink:title=" ">
<path fill="none" stroke="#63b8ff" d="M709.94,-384.95C750.25,-373.38 806.7,-357.18 844.26,-346.41"/>
<polygon fill="#63b8ff" stroke="#63b8ff" points="845.68,-349.64 854.32,-343.52 843.74,-342.91 845.68,-349.64"/>
</a>
</g>
</g>
<!-- Node28 -->
<g id="Node000028" class="node">
<title>Node28</title>
<g id="a_Node000028"><a xlink:title=" ">
<polygon fill="#e0e0e0" stroke="#999999" points="739.5,-349 628.5,-349 628.5,-319 739.5,-319 739.5,-349"/>
<text text-anchor="start" x="636.5" y="-337" font-family="Helvetica,sans-Serif" font-size="10.00">Thoth/Http/Request</text>
<text text-anchor="middle" x="684" y="-326" font-family="Helvetica,sans-Serif" font-size="10.00">/Request.tpp</text>
</a>
</g>
</g>
<!-- Node26&#45;&gt;Node28 -->
<g id="edge40_Node000026_Node000028" class="edge">
<title>Node26&#45;&gt;Node28</title>
<g id="a_edge40_Node000026_Node000028"><a xlink:title=" ">
<path fill="none" stroke="#63b8ff" d="M666.1,-384.8C668.84,-377.17 672.29,-367.57 675.43,-358.84"/>
<polygon fill="#63b8ff" stroke="#63b8ff" points="678.82,-359.76 678.91,-349.16 672.23,-357.39 678.82,-359.76"/>
</a>
</g>
</g>
<!-- Node29&#45;&gt;Node4 -->
<g id="edge47_Node000029_Node000004" class="edge">
<title>Node29&#45;&gt;Node4</title>
<g id="a_edge47_Node000029_Node000004"><a xlink:title=" ">
<path fill="none" stroke="#63b8ff" d="M1074.4,-199.86C961.92,-196.93 710.97,-186.61 503,-151 446.79,-141.37 309.3,-102.45 255,-85 253.09,-84.39 251.13,-83.73 249.16,-83.05"/>
<polygon fill="#63b8ff" stroke="#63b8ff" points="249.99,-79.62 239.39,-79.52 247.61,-86.21 249.99,-79.62"/>
</a>
</g>
</g>
<!-- Node29&#45;&gt;Node8 -->
<g id="edge46_Node000029_Node000008" class="edge">
<title>Node29&#45;&gt;Node8</title>
<g id="a_edge46_Node000029_Node000008"><a xlink:title=" ">
<path fill="none" stroke="#63b8ff" d="M1075.7,-192.42C1030.98,-184.71 968.27,-171.41 916,-151 870.98,-133.42 823.01,-103.17 796.54,-85.33"/>
<polygon fill="#63b8ff" stroke="#63b8ff" points="798.35,-82.33 788.12,-79.58 794.41,-88.11 798.35,-82.33"/>
</a>
</g>
</g>
<!-- Node29&#45;&gt;Node11 -->
<g id="edge45_Node000029_Node000011" class="edge">
<title>Node29&#45;&gt;Node11</title>
<g id="a_edge45_Node000029_Node000011"><a xlink:title=" ">
<path fill="none" stroke="#63b8ff" d="M1135.47,-192.12C1139.97,-163.62 1152.19,-75.12 1134,-55 1106.8,-24.91 825.25,-14.2 726.78,-11.36"/>
<polygon fill="#63b8ff" stroke="#63b8ff" points="726.6,-7.85 716.5,-11.07 726.4,-14.85 726.6,-7.85"/>
</a>
</g>
</g>
<!-- Node29&#45;&gt;Node15 -->
<g id="edge48_Node000029_Node000015" class="edge">
<title>Node29&#45;&gt;Node15</title>
<g id="a_edge48_Node000029_Node000015"><a xlink:title=" ">
<path fill="none" stroke="#63b8ff" d="M1193.64,-197.39C1295.08,-190.64 1492.3,-174.61 1513,-151 1568.84,-87.31 1420,-39.35 1345.08,-19.94"/>
<polygon fill="#63b8ff" stroke="#63b8ff" points="1345.59,-16.45 1335.03,-17.39 1343.87,-23.24 1345.59,-16.45"/>
</a>
</g>
</g>
<!-- Node30 -->
<g id="Node000030" class="node">
<title>Node30</title>
<g id="a_Node000030"><a xlink:title=" ">
<polygon fill="#e0e0e0" stroke="#999999" points="1262.5,-79.5 1211.5,-79.5 1211.5,-60.5 1262.5,-60.5 1262.5,-79.5"/>
<text text-anchor="middle" x="1237" y="-67.5" font-family="Helvetica,sans-Serif" font-size="10.00">variant</text>
</a>
</g>
</g>
<!-- Node29&#45;&gt;Node30 -->
<g id="edge43_Node000029_Node000030" class="edge">
<title>Node29&#45;&gt;Node30</title>
<g id="a_edge43_Node000029_Node000030"><a xlink:title=" ">
<path fill="none" stroke="#63b8ff" d="M1154.5,-192.47C1171.87,-184.24 1196.25,-170.22 1211,-151 1224.93,-132.85 1231.55,-106.95 1234.59,-89.58"/>
<polygon fill="#63b8ff" stroke="#63b8ff" points="1238.07,-89.99 1236.11,-79.57 1231.14,-88.93 1238.07,-89.99"/>
</a>
</g>
</g>
<!-- Node31 -->
<g id="Node000031" class="node">
<title>Node31</title>
<g id="a_Node000031"><a xlink:title=" ">
<polygon fill="#e0e0e0" stroke="#999999" points="1125,-79.5 1067,-79.5 1067,-60.5 1125,-60.5 1125,-79.5"/>
<text text-anchor="middle" x="1096" y="-67.5" font-family="Helvetica,sans-Serif" font-size="10.00">memory</text>
</a>
</g>
</g>
<!-- Node29&#45;&gt;Node31 -->
<g id="edge44_Node000029_Node000031" class="edge">
<title>Node29&#45;&gt;Node31</title>
<g id="a_edge44_Node000029_Node000031"><a xlink:title=" ">
<path fill="none" stroke="#63b8ff" d="M1131.51,-192.47C1125.44,-171.73 1109.81,-118.24 1101.46,-89.66"/>
<polygon fill="#63b8ff" stroke="#63b8ff" points="1104.72,-88.35 1098.55,-79.73 1098,-90.31 1104.72,-88.35"/>
</a>
</g>
</g>
<!-- Node32 -->
<g id="Node000032" class="node">
<title>Node32</title>
<g id="a_Node000032"><a xlink:title=" ">
<polygon fill="#e0e0e0" stroke="#999999" points="1202,-145.5 1162,-145.5 1162,-126.5 1202,-126.5 1202,-145.5"/>
<text text-anchor="middle" x="1182" y="-133.5" font-family="Helvetica,sans-Serif" font-size="10.00">span</text>
</a>
</g>
</g>
<!-- Node29&#45;&gt;Node32 -->
<g id="edge49_Node000029_Node000032" class="edge">
<title>Node29&#45;&gt;Node32</title>
<g id="a_edge49_Node000029_Node000032"><a xlink:title=" ">
<path fill="none" stroke="#63b8ff" d="M1140.47,-192.37C1147.8,-182.59 1159.93,-166.42 1169.19,-154.08"/>
<polygon fill="#63b8ff" stroke="#63b8ff" points="1172.12,-156.01 1175.32,-145.91 1166.52,-151.81 1172.12,-156.01"/>
</a>
</g>
</g>
<!-- Node33 -->
<g id="Node000033" class="node">
<title>Node33</title>
<g id="a_Node000033"><a xlink:href="_cow_8hpp.html" target="_top" xlink:title=" ">
<polygon fill="white" stroke="#666666" points="1368,-145.5 1258,-145.5 1258,-126.5 1368,-126.5 1368,-145.5"/>
<text text-anchor="middle" x="1313" y="-133.5" font-family="Helvetica,sans-Serif" font-size="10.00">Thoth/Dsa/Cow.hpp</text>
</a>
</g>
</g>
<!-- Node29&#45;&gt;Node33 -->
<g id="edge50_Node000029_Node000033" class="edge">
<title>Node29&#45;&gt;Node33</title>
<g id="a_edge50_Node000029_Node000033"><a xlink:title=" ">
<path fill="none" stroke="#63b8ff" d="M1158.14,-192.37C1189.32,-181.22 1243.77,-161.75 1279.1,-149.12"/>
<polygon fill="#63b8ff" stroke="#63b8ff" points="1280.72,-152.26 1288.96,-145.6 1278.36,-145.67 1280.72,-152.26"/>
</a>
</g>
</g>
<!-- Node35 -->
<g id="Node000035" class="node">
<title>Node35</title>
<g id="a_Node000035"><a xlink:href="_string_ref_8hpp.html" target="_top" xlink:title=" ">
<polygon fill="white" stroke="#666666" points="1067.5,-145.5 924.5,-145.5 924.5,-126.5 1067.5,-126.5 1067.5,-145.5"/>
<text text-anchor="middle" x="996" y="-133.5" font-family="Helvetica,sans-Serif" font-size="10.00">Thoth/NJson/StringRef.hpp</text>
</a>
</g>
</g>
<!-- Node29&#45;&gt;Node35 -->
<g id="edge54_Node000029_Node000035" class="edge">
<title>Node29&#45;&gt;Node35</title>
<g id="a_edge54_Node000029_Node000035"><a xlink:title=" ">
<path fill="none" stroke="#63b8ff" d="M1115.39,-192.37C1091.93,-181.49 1051.39,-162.69 1024.14,-150.05"/>
<polygon fill="#63b8ff" stroke="#63b8ff" points="1025.3,-146.73 1014.76,-145.7 1022.36,-153.08 1025.3,-146.73"/>
</a>
</g>
</g>
<!-- Node37 -->
<g id="Node000037" class="node">
<title>Node37</title>
<g id="a_Node000037"><a xlink:title=" ">
<polygon fill="#e0e0e0" stroke="#999999" points="1503.5,-145.5 1386.5,-145.5 1386.5,-126.5 1503.5,-126.5 1503.5,-145.5"/>
<text text-anchor="middle" x="1445" y="-133.5" font-family="Helvetica,sans-Serif" font-size="10.00">Thoth/NJson/Json.tpp</text>
</a>
</g>
</g>
<!-- Node29&#45;&gt;Node37 -->
<g id="edge59_Node000029_Node000037" class="edge">
<title>Node29&#45;&gt;Node37</title>
<g id="a_edge59_Node000029_Node000037"><a xlink:title=" ">
<path fill="none" stroke="#63b8ff" d="M1175.62,-192.44C1232.06,-180.82 1332.82,-160.09 1393.82,-147.53"/>
<polygon fill="#63b8ff" stroke="#63b8ff" points="1394.54,-150.96 1403.63,-145.51 1393.13,-144.1 1394.54,-150.96"/>
</a>
</g>
</g>
<!-- Node33&#45;&gt;Node15 -->
<g id="edge51_Node000033_Node000015" class="edge">
<title>Node33&#45;&gt;Node15</title>
<g id="a_edge51_Node000033_Node000015"><a xlink:title=" ">
<path fill="none" stroke="#63b8ff" d="M1312.45,-126.44C1311.17,-106.54 1307.97,-56.76 1306.21,-29.35"/>
<polygon fill="#63b8ff" stroke="#63b8ff" points="1309.69,-28.87 1305.55,-19.12 1302.7,-29.32 1309.69,-28.87"/>
</a>
</g>
</g>
<!-- Node33&#45;&gt;Node30 -->
<g id="edge52_Node000033_Node000030" class="edge">
<title>Node33&#45;&gt;Node30</title>
<g id="a_edge52_Node000033_Node000030"><a xlink:title=" ">
<path fill="none" stroke="#63b8ff" d="M1302.75,-126.37C1290.69,-116.21 1270.44,-99.16 1255.59,-86.65"/>
<polygon fill="#63b8ff" stroke="#63b8ff" points="1257.48,-83.67 1247.57,-79.91 1252.97,-89.02 1257.48,-83.67"/>
</a>
</g>
</g>
<!-- Node34 -->
<g id="Node000034" class="node">
<title>Node34</title>
<g id="a_Node000034"><a xlink:title=" ">
<polygon fill="#e0e0e0" stroke="#999999" points="1441,-79.5 1333,-79.5 1333,-60.5 1441,-60.5 1441,-79.5"/>
<text text-anchor="middle" x="1387" y="-67.5" font-family="Helvetica,sans-Serif" font-size="10.00">Thoth/Dsa/Cow.tpp</text>
</a>
</g>
</g>
<!-- Node33&#45;&gt;Node34 -->
<g id="edge53_Node000033_Node000034" class="edge">
<title>Node33&#45;&gt;Node34</title>
<g id="a_edge53_Node000033_Node000034"><a xlink:title=" ">
<path fill="none" stroke="#63b8ff" d="M1322.98,-126.37C1334.72,-116.21 1354.44,-99.16 1368.9,-86.65"/>
<polygon fill="#63b8ff" stroke="#63b8ff" points="1371.43,-89.09 1376.7,-79.91 1366.85,-83.8 1371.43,-89.09"/>
</a>
</g>
</g>
<!-- Node35&#45;&gt;Node8 -->
<g id="edge57_Node000035_Node000008" class="edge">
<title>Node35&#45;&gt;Node8</title>
<g id="a_edge57_Node000035_Node000008"><a xlink:title=" ">
<path fill="none" stroke="#63b8ff" d="M956.95,-126.45C918.56,-117.62 858.53,-102.66 808,-85 806.6,-84.51 805.18,-83.99 803.76,-83.45"/>
<polygon fill="#63b8ff" stroke="#63b8ff" points="805,-80.17 794.42,-79.63 802.35,-86.65 805,-80.17"/>
</a>
</g>
</g>
<!-- Node35&#45;&gt;Node24 -->
<g id="edge56_Node000035_Node000024" class="edge">
<title>Node35&#45;&gt;Node24</title>
<g id="a_edge56_Node000035_Node000024"><a xlink:title=" ">
<path fill="none" stroke="#63b8ff" d="M976.71,-126.37C952.3,-115.44 910.03,-96.52 881.79,-83.88"/>
<polygon fill="#63b8ff" stroke="#63b8ff" points="882.99,-80.59 872.44,-79.7 880.13,-86.98 882.99,-80.59"/>
</a>
</g>
</g>
<!-- Node35&#45;&gt;Node31 -->
<g id="edge55_Node000035_Node000031" class="edge">
<title>Node35&#45;&gt;Node31</title>
<g id="a_edge55_Node000035_Node000031"><a xlink:title=" ">
<path fill="none" stroke="#63b8ff" d="M1009.49,-126.37C1025.96,-115.82 1054.07,-97.84 1073.76,-85.23"/>
<polygon fill="#63b8ff" stroke="#63b8ff" points="1075.87,-88.04 1082.41,-79.7 1072.1,-82.14 1075.87,-88.04"/>
</a>
</g>
</g>
<!-- Node36 -->
<g id="Node000036" class="node">
<title>Node36</title>
<g id="a_Node000036"><a xlink:title=" ">
<polygon fill="#e0e0e0" stroke="#999999" points="1048.5,-79.5 907.5,-79.5 907.5,-60.5 1048.5,-60.5 1048.5,-79.5"/>
<text text-anchor="middle" x="978" y="-67.5" font-family="Helvetica,sans-Serif" font-size="10.00">Thoth/NJson/StringRef.tpp</text>
</a>
</g>
</g>
<!-- Node35&#45;&gt;Node36 -->
<g id="edge58_Node000035_Node000036" class="edge">
<title>Node35&#45;&gt;Node36</title>
<g id="a_edge58_Node000035_Node000036"><a xlink:title=" ">
<path fill="none" stroke="#63b8ff" d="M993.57,-126.37C990.96,-117.07 986.71,-101.98 983.32,-89.9"/>
<polygon fill="#63b8ff" stroke="#63b8ff" points="986.58,-88.58 980.5,-79.91 979.84,-90.48 986.58,-88.58"/>
</a>
</g>
</g>
</g>
</svg>
