<?xml version="1.0" encoding="UTF-8" standalone="no"?>
<!DOCTYPE svg PUBLIC "-//W3C//DTD SVG 1.1//EN"
 "http://www.w3.org/Graphics/SVG/1.1/DTD/svg11.dtd">
<!-- Generated by graphviz version 2.43.0 (0)
 -->
<!-- Title: include/Thoth/Http/Methods/TraceMethod.hpp Pages: 1 -->
<svg width="989pt" height="357pt"
 viewBox="0.00 0.00 988.50 357.00" xmlns="http://www.w3.org/2000/svg" xmlns:xlink="http://www.w3.org/1999/xlink">
<g id="graph0" class="graph" transform="scale(1 1) rotate(0) translate(4 353)">
<title>include/Thoth/Http/Methods/TraceMethod.hpp</title>
<!-- Node1 -->
<g id="Node000001" class="node">
<title>Node1</title>
<g id="a_Node000001"><a xlink:title=" ">
<polygon fill="#999999" stroke="#666666" points="746.5,-349 598.5,-349 598.5,-319 746.5,-319 746.5,-349"/>
<text text-anchor="start" x="606.5" y="-337" font-family="Helvetica,sans-Serif" font-size="10.00">include/Thoth/Http</text>
<text text-anchor="middle" x="672.5" y="-326" font-family="Helvetica,sans-Serif" font-size="10.00">/Methods/TraceMethod.hpp</text>
</a>
</g>
</g>
<!-- Node2 -->
<g id="Node000002" class="node">
<title>Node2</title>
<g id="a_Node000002"><a xlink:href="_method_concept_8hpp.html" target="_top" xlink:title=" ">
<polygon fill="white" stroke="#666666" points="747,-283 598,-283 598,-253 747,-253 747,-283"/>
<text text-anchor="start" x="606" y="-271" font-family="Helvetica,sans-Serif" font-size="10.00">Thoth/Http/Methods</text>
<text text-anchor="middle" x="672.5" y="-260" font-family="Helvetica,sans-Serif" font-size="10.00">/_base/MethodConcept.hpp</text>
</a>
</g>
</g>
<!-- Node1&#45;&gt;Node2 -->
<g id="edge1_Node000001_Node000002" class="edge">
<title>Node1&#45;&gt;Node2</title>
<g id="a_edge1_Node000001_Node000002"><a xlink:title=" ">
<path fill="none" stroke="#63b8ff" d="M672.5,-318.8C672.5,-311.34 672.5,-301.99 672.5,-293.41"/>
<polygon fill="#63b8ff" stroke="#63b8ff" points="676,-293.16 672.5,-283.16 669,-293.16 676,-293.16"/>
</a>
</g>
</g>
<!-- Node3 -->
<g id="Node000003" class="node">
<title>Node3</title>
<g id="a_Node000003"><a xlink:href="_status_code_enum_8hpp.html" target="_top" xlink:title=" ">
<polygon fill="white" stroke="#666666" points="980.5,-151 856.5,-151 856.5,-121 980.5,-121 980.5,-151"/>
<text text-anchor="start" x="864.5" y="-139" font-family="Helvetica,sans-Serif" font-size="10.00">Thoth/Http/Response</text>
<text text-anchor="middle" x="918.5" y="-128" font-family="Helvetica,sans-Serif" font-size="10.00">/StatusCodeEnum.hpp</text>
</a>
</g>
</g>
<!-- Node2&#45;&gt;Node3 -->
<g id="edge2_Node000002_Node000003" class="edge">
<title>Node2&#45;&gt;Node3</title>
<g id="a_edge2_Node000002_Node000003"><a xlink:title=" ">
<path fill="none" stroke="#63b8ff" d="M680.74,-252.9C691.98,-234.92 713.8,-204.12 740.5,-187 758.39,-175.53 805.38,-162.55 846.59,-152.69"/>
<polygon fill="#63b8ff" stroke="#63b8ff" points="847.44,-156.09 856.37,-150.39 845.83,-149.28 847.44,-156.09"/>
</a>
</g>
</g>
<!-- Node6 -->
<g id="Node000006" class="node">
<title>Node6</title>
<g id="a_Node000006"><a xlink:href="_url_8hpp.html" target="_top" xlink:title=" ">
<polygon fill="white" stroke="#666666" points="395,-217 284,-217 284,-187 395,-187 395,-217"/>
<text text-anchor="start" x="292" y="-205" font-family="Helvetica,sans-Serif" font-size="10.00">Thoth/Http/Request</text>
<text text-anchor="middle" x="339.5" y="-194" font-family="Helvetica,sans-Serif" font-size="10.00">/Url.hpp</text>
</a>
</g>
</g>
<!-- Node2&#45;&gt;Node6 -->
<g id="edge5_Node000002_Node000006" class="edge">
<title>Node2&#45;&gt;Node6</title>
<g id="a_edge5_Node000002_Node000006"><a xlink:title=" ">
<path fill="none" stroke="#63b8ff" d="M599.42,-252.95C541.48,-241.82 461.21,-226.39 405.26,-215.64"/>
<polygon fill="#63b8ff" stroke="#63b8ff" points="405.59,-212.14 395.11,-213.69 404.27,-219.01 405.59,-212.14"/>
</a>
</g>
</g>
<!-- Node20 -->
<g id="Node000020" class="node">
<title>Node20</title>
<g id="a_Node000020"><a xlink:href="_headers_8hpp.html" target="_top" xlink:title=" ">
<polygon fill="white" stroke="#666666" points="692,-211.5 559,-211.5 559,-192.5 692,-192.5 692,-211.5"/>
<text text-anchor="middle" x="625.5" y="-199.5" font-family="Helvetica,sans-Serif" font-size="10.00">Thoth/Http/Headers.hpp</text>
</a>
</g>
</g>
<!-- Node2&#45;&gt;Node20 -->
<g id="edge22_Node000002_Node000020" class="edge">
<title>Node2&#45;&gt;Node20</title>
<g id="a_edge22_Node000002_Node000020"><a xlink:title=" ">
<path fill="none" stroke="#63b8ff" d="M662.07,-252.8C654.96,-243.11 645.5,-230.24 637.99,-220.01"/>
<polygon fill="#63b8ff" stroke="#63b8ff" points="640.74,-217.83 632,-211.84 635.09,-221.98 640.74,-217.83"/>
</a>
</g>
</g>
<!-- Node23 -->
<g id="Node000023" class="node">
<title>Node23</title>
<g id="a_Node000023"><a xlink:title=" ">
<polygon fill="#e0e0e0" stroke="#999999" points="822,-211.5 749,-211.5 749,-192.5 822,-192.5 822,-211.5"/>
<text text-anchor="middle" x="785.5" y="-199.5" font-family="Helvetica,sans-Serif" font-size="10.00">string_view</text>
</a>
</g>
</g>
<!-- Node2&#45;&gt;Node23 -->
<g id="edge30_Node000002_Node000023" class="edge">
<title>Node2&#45;&gt;Node23</title>
<g id="a_edge30_Node000002_Node000023"><a xlink:title=" ">
<path fill="none" stroke="#63b8ff" d="M697.3,-252.95C716.42,-242.13 742.7,-227.24 761.59,-216.54"/>
<polygon fill="#63b8ff" stroke="#63b8ff" points="763.49,-219.49 770.46,-211.52 760.04,-213.4 763.49,-219.49"/>
</a>
</g>
</g>
<!-- Node4 -->
<g id="Node000004" class="node">
<title>Node4</title>
<g id="a_Node000004"><a xlink:title=" ">
<polygon fill="#e0e0e0" stroke="#999999" points="949.5,-79.5 887.5,-79.5 887.5,-60.5 949.5,-60.5 949.5,-79.5"/>
<text text-anchor="middle" x="918.5" y="-67.5" font-family="Helvetica,sans-Serif" font-size="10.00">expected</text>
</a>
</g>
</g>
<!-- Node3&#45;&gt;Node4 -->
<g id="edge3_Node000003_Node000004" class="edge">
<title>Node3&#45;&gt;Node4</title>
<g id="a_edge3_Node000003_Node000004"><a xlink:title=" ">
<path fill="none" stroke="#63b8ff" d="M918.5,-120.8C918.5,-111.7 918.5,-99.79 918.5,-89.9"/>
<polygon fill="#63b8ff" stroke="#63b8ff" points="922,-89.84 918.5,-79.84 915,-89.84 922,-89.84"/>
</a>
</g>
</g>
<!-- Node5 -->
<g id="Node000005" class="node">
<title>Node5</title>
<g id="a_Node000005"><a xlink:title=" ">
<polygon fill="#e0e0e0" stroke="#999999" points="856.5,-79.5 800.5,-79.5 800.5,-60.5 856.5,-60.5 856.5,-79.5"/>
<text text-anchor="middle" x="828.5" y="-67.5" font-family="Helvetica,sans-Serif" font-size="10.00">optional</text>
</a>
</g>
</g>
<!-- Node3&#45;&gt;Node5 -->
<g id="edge4_Node000003_Node000005" class="edge">
<title>Node3&#45;&gt;Node5</title>
<g id="a_edge4_Node000003_Node000005"><a xlink:title=" ">
<path fill="none" stroke="#63b8ff" d="M898.53,-120.8C883.86,-110.37 863.99,-96.24 849.16,-85.69"/>
<polygon fill="#63b8ff" stroke="#63b8ff" points="850.85,-82.6 840.68,-79.66 846.8,-88.31 850.85,-82.6"/>
</a>
</g>
</g>
<!-- Node7 -->
<g id="Node000007" class="node">
<title>Node7</title>
<g id="a_Node000007"><a xlink:title=" ">
<polygon fill="#e0e0e0" stroke="#999999" points="97.5,-79.5 53.5,-79.5 53.5,-60.5 97.5,-60.5 97.5,-79.5"/>
<text text-anchor="middle" x="75.5" y="-67.5" font-family="Helvetica,sans-Serif" font-size="10.00">string</text>
</a>
</g>
</g>
<!-- Node6&#45;&gt;Node7 -->
<g id="edge6_Node000006_Node000007" class="edge">
<title>Node6&#45;&gt;Node7</title>
<g id="a_edge6_Node000006_Node000007"><a xlink:title=" ">
<path fill="none" stroke="#63b8ff" d="M286.36,-186.96C257.51,-178.37 221.68,-166.13 191.5,-151 154.43,-132.41 115.6,-103.37 93.59,-85.86"/>
<polygon fill="#63b8ff" stroke="#63b8ff" points="95.74,-83.1 85.75,-79.55 91.34,-88.55 95.74,-83.1"/>
</a>
</g>
</g>
<!-- Node8 -->
<g id="Node000008" class="node">
<title>Node8</title>
<g id="a_Node000008"><a xlink:href="_query_params_8hpp.html" target="_top" xlink:title=" ">
<polygon fill="white" stroke="#666666" points="479,-151 368,-151 368,-121 479,-121 479,-151"/>
<text text-anchor="start" x="376" y="-139" font-family="Helvetica,sans-Serif" font-size="10.00">Thoth/Http/Request</text>
<text text-anchor="middle" x="423.5" y="-128" font-family="Helvetica,sans-Serif" font-size="10.00">/QueryParams.hpp</text>
</a>
</g>
</g>
<!-- Node6&#45;&gt;Node8 -->
<g id="edge7_Node000006_Node000008" class="edge">
<title>Node6&#45;&gt;Node8</title>
<g id="a_edge7_Node000006_Node000008"><a xlink:title=" ">
<path fill="none" stroke="#63b8ff" d="M358.14,-186.8C369.45,-178.18 384.08,-167.04 396.62,-157.48"/>
<polygon fill="#63b8ff" stroke="#63b8ff" points="399.08,-160.01 404.91,-151.16 394.83,-154.44 399.08,-160.01"/>
</a>
</g>
</g>
<!-- Node19 -->
<g id="Node000019" class="node">
<title>Node19</title>
<g id="a_Node000019"><a xlink:title=" ">
<polygon fill="#e0e0e0" stroke="#999999" points="311,-151 200,-151 200,-121 311,-121 311,-151"/>
<text text-anchor="start" x="208" y="-139" font-family="Helvetica,sans-Serif" font-size="10.00">Thoth/Http/Request</text>
<text text-anchor="middle" x="255.5" y="-128" font-family="Helvetica,sans-Serif" font-size="10.00">/Url.tpp</text>
</a>
</g>
</g>
<!-- Node6&#45;&gt;Node19 -->
<g id="edge21_Node000006_Node000019" class="edge">
<title>Node6&#45;&gt;Node19</title>
<g id="a_edge21_Node000006_Node000019"><a xlink:title=" ">
<path fill="none" stroke="#63b8ff" d="M320.86,-186.8C309.55,-178.18 294.92,-167.04 282.38,-157.48"/>
<polygon fill="#63b8ff" stroke="#63b8ff" points="284.17,-154.44 274.09,-151.16 279.92,-160.01 284.17,-154.44"/>
</a>
</g>
</g>
<!-- Node8&#45;&gt;Node5 -->
<g id="edge8_Node000008_Node000005" class="edge">
<title>Node8&#45;&gt;Node5</title>
<g id="a_edge8_Node000008_Node000005"><a xlink:title=" ">
<path fill="none" stroke="#63b8ff" d="M479.39,-126.17C562.95,-112.96 718.28,-88.42 790.17,-77.06"/>
<polygon fill="#63b8ff" stroke="#63b8ff" points="790.82,-80.5 800.15,-75.48 789.73,-73.58 790.82,-80.5"/>
</a>
</g>
</g>
<!-- Node8&#45;&gt;Node7 -->
<g id="edge11_Node000008_Node000007" class="edge">
<title>Node8&#45;&gt;Node7</title>
<g id="a_edge11_Node000008_Node000007"><a xlink:title=" ">
<path fill="none" stroke="#63b8ff" d="M367.77,-123.58C362.95,-122.67 358.14,-121.8 353.5,-121 244.18,-102.12 212.98,-116.13 106.5,-85 104.86,-84.52 103.2,-83.97 101.54,-83.38"/>
<polygon fill="#63b8ff" stroke="#63b8ff" points="102.81,-80.11 92.23,-79.58 100.17,-86.6 102.81,-80.11"/>
</a>
</g>
</g>
<!-- Node9 -->
<g id="Node000009" class="node">
<title>Node9</title>
<g id="a_Node000009"><a xlink:title=" ">
<polygon fill="#e0e0e0" stroke="#999999" points="548.5,-79.5 498.5,-79.5 498.5,-60.5 548.5,-60.5 548.5,-79.5"/>
<text text-anchor="middle" x="523.5" y="-67.5" font-family="Helvetica,sans-Serif" font-size="10.00">format</text>
</a>
</g>
</g>
<!-- Node8&#45;&gt;Node9 -->
<g id="edge9_Node000008_Node000009" class="edge">
<title>Node8&#45;&gt;Node9</title>
<g id="a_edge9_Node000008_Node000009"><a xlink:title=" ">
<path fill="none" stroke="#63b8ff" d="M445.69,-120.8C462.3,-110.17 484.9,-95.7 501.47,-85.1"/>
<polygon fill="#63b8ff" stroke="#63b8ff" points="503.44,-88 509.97,-79.66 499.66,-82.1 503.44,-88"/>
</a>
</g>
</g>
<!-- Node10 -->
<g id="Node000010" class="node">
<title>Node10</title>
<g id="a_Node000010"><a xlink:title=" ">
<polygon fill="#e0e0e0" stroke="#999999" points="506,-19 459,-19 459,0 506,0 506,-19"/>
<text text-anchor="middle" x="482.5" y="-7" font-family="Helvetica,sans-Serif" font-size="10.00">vector</text>
</a>
</g>
</g>
<!-- Node8&#45;&gt;Node10 -->
<g id="edge10_Node000008_Node000010" class="edge">
<title>Node8&#45;&gt;Node10</title>
<g id="a_edge10_Node000008_Node000010"><a xlink:title=" ">
<path fill="none" stroke="#63b8ff" d="M432.04,-120.79C437.83,-110.91 445.5,-97.35 451.5,-85 460.57,-66.34 469.52,-44.35 475.45,-29.11"/>
<polygon fill="#63b8ff" stroke="#63b8ff" points="478.88,-29.95 479.2,-19.36 472.34,-27.44 478.88,-29.95"/>
</a>
</g>
</g>
<!-- Node11 -->
<g id="Node000011" class="node">
<title>Node11</title>
<g id="a_Node000011"><a xlink:title=" ">
<polygon fill="#e0e0e0" stroke="#999999" points="442.5,-79.5 404.5,-79.5 404.5,-60.5 442.5,-60.5 442.5,-79.5"/>
<text text-anchor="middle" x="423.5" y="-67.5" font-family="Helvetica,sans-Serif" font-size="10.00">map</text>
</a>
</g>
</g>
<!-- Node8&#45;&gt;Node11 -->
<g id="edge12_Node000008_Node000011" class="edge">
<title>Node8&#45;&gt;Node11</title>
<g id="a_edge12_Node000008_Node000011"><a xlink:title=" ">
<path fill="none" stroke="#63b8ff" d="M423.5,-120.8C423.5,-111.7 423.5,-99.79 423.5,-89.9"/>
<polygon fill="#63b8ff" stroke="#63b8ff" points="427,-89.84 423.5,-79.84 420,-89.84 427,-89.84"/>
</a>
</g>
</g>
<!-- Node12 -->
<g id="Node000012" class="node">
<title>Node12</title>
<g id="a_Node000012"><a xlink:href="_linear_map_8hpp.html" target="_top" xlink:title=" ">
<polygon fill="white" stroke="#666666" points="257,-79.5 116,-79.5 116,-60.5 257,-60.5 257,-79.5"/>
<text text-anchor="middle" x="186.5" y="-67.5" font-family="Helvetica,sans-Serif" font-size="10.00">Thoth/Dsa/LinearMap.hpp</text>
</a>
</g>
</g>
<!-- Node8&#45;&gt;Node12 -->
<g id="edge13_Node000008_Node000012" class="edge">
<title>Node8&#45;&gt;Node12</title>
<g id="a_edge13_Node000008_Node000012"><a xlink:title=" ">
<path fill="none" stroke="#63b8ff" d="M371.49,-120.95C328.28,-109.29 267.63,-92.91 227.72,-82.13"/>
<polygon fill="#63b8ff" stroke="#63b8ff" points="228.61,-78.75 218.04,-79.52 226.78,-85.5 228.61,-78.75"/>
</a>
</g>
</g>
<!-- Node18 -->
<g id="Node000018" class="node">
<title>Node18</title>
<g id="a_Node000018"><a xlink:title=" ">
<polygon fill="#e0e0e0" stroke="#999999" points="386,-85 275,-85 275,-55 386,-55 386,-85"/>
<text text-anchor="start" x="283" y="-73" font-family="Helvetica,sans-Serif" font-size="10.00">Thoth/Http/Request</text>
<text text-anchor="middle" x="330.5" y="-62" font-family="Helvetica,sans-Serif" font-size="10.00">/QueryParams.tpp</text>
</a>
</g>
</g>
<!-- Node8&#45;&gt;Node18 -->
<g id="edge20_Node000008_Node000018" class="edge">
<title>Node8&#45;&gt;Node18</title>
<g id="a_edge20_Node000008_Node000018"><a xlink:title=" ">
<path fill="none" stroke="#63b8ff" d="M402.86,-120.8C390.1,-112.01 373.52,-100.61 359.46,-90.93"/>
<polygon fill="#63b8ff" stroke="#63b8ff" points="361.3,-87.95 351.08,-85.16 357.34,-93.72 361.3,-87.95"/>
</a>
</g>
</g>
<!-- Node12&#45;&gt;Node10 -->
<g id="edge14_Node000012_Node000010" class="edge">
<title>Node12&#45;&gt;Node10</title>
<g id="a_edge14_Node000012_Node000010"><a xlink:title=" ">
<path fill="none" stroke="#63b8ff" d="M233.81,-60.47C294.17,-49.51 396.22,-30.74 448.93,-19.21"/>
<polygon fill="#63b8ff" stroke="#63b8ff" points="449.79,-22.6 458.78,-17 448.26,-15.77 449.79,-22.6"/>
</a>
</g>
</g>
<!-- Node13 -->
<g id="Node000013" class="node">
<title>Node13</title>
<g id="a_Node000013"><a xlink:title=" ">
<polygon fill="#e0e0e0" stroke="#999999" points="45,-19 0,-19 0,0 45,0 45,-19"/>
<text text-anchor="middle" x="22.5" y="-7" font-family="Helvetica,sans-Serif" font-size="10.00">utility</text>
</a>
</g>
</g>
<!-- Node12&#45;&gt;Node13 -->
<g id="edge15_Node000012_Node000013" class="edge">
<title>Node12&#45;&gt;Node13</title>
<g id="a_edge15_Node000012_Node000013"><a xlink:title=" ">
<path fill="none" stroke="#63b8ff" d="M162.65,-60.49C134.2,-50.34 86.49,-33.32 54.75,-22.01"/>
<polygon fill="#63b8ff" stroke="#63b8ff" points="55.65,-18.61 45.06,-18.55 53.3,-25.2 55.65,-18.61"/>
</a>
</g>
</g>
<!-- Node14 -->
<g id="Node000014" class="node">
<title>Node14</title>
<g id="a_Node000014"><a xlink:title=" ">
<polygon fill="#e0e0e0" stroke="#999999" points="123.5,-19 63.5,-19 63.5,0 123.5,0 123.5,-19"/>
<text text-anchor="middle" x="93.5" y="-7" font-family="Helvetica,sans-Serif" font-size="10.00">concepts</text>
</a>
</g>
</g>
<!-- Node12&#45;&gt;Node14 -->
<g id="edge16_Node000012_Node000014" class="edge">
<title>Node12&#45;&gt;Node14</title>
<g id="a_edge16_Node000012_Node000014"><a xlink:title=" ">
<path fill="none" stroke="#63b8ff" d="M172.78,-60.37C157.8,-50.95 133.61,-35.73 115.88,-24.58"/>
<polygon fill="#63b8ff" stroke="#63b8ff" points="117.61,-21.53 107.28,-19.17 113.88,-27.45 117.61,-21.53"/>
</a>
</g>
</g>
<!-- Node15 -->
<g id="Node000015" class="node">
<title>Node15</title>
<g id="a_Node000015"><a xlink:title=" ">
<polygon fill="#e0e0e0" stroke="#999999" points="207,-19 142,-19 142,0 207,0 207,-19"/>
<text text-anchor="middle" x="174.5" y="-7" font-family="Helvetica,sans-Serif" font-size="10.00">functional</text>
</a>
</g>
</g>
<!-- Node12&#45;&gt;Node15 -->
<g id="edge17_Node000012_Node000015" class="edge">
<title>Node12&#45;&gt;Node15</title>
<g id="a_edge17_Node000012_Node000015"><a xlink:title=" ">
<path fill="none" stroke="#63b8ff" d="M184.73,-60.37C183.05,-52.16 180.46,-39.54 178.31,-29.05"/>
<polygon fill="#63b8ff" stroke="#63b8ff" points="181.72,-28.26 176.28,-19.17 174.86,-29.67 181.72,-28.26"/>
</a>
</g>
</g>
<!-- Node16 -->
<g id="Node000016" class="node">
<title>Node16</title>
<g id="a_Node000016"><a xlink:title=" ">
<polygon fill="#e0e0e0" stroke="#999999" points="284,-19 225,-19 225,0 284,0 284,-19"/>
<text text-anchor="middle" x="254.5" y="-7" font-family="Helvetica,sans-Serif" font-size="10.00">compare</text>
</a>
</g>
</g>
<!-- Node12&#45;&gt;Node16 -->
<g id="edge18_Node000012_Node000016" class="edge">
<title>Node12&#45;&gt;Node16</title>
<g id="a_edge18_Node000012_Node000016"><a xlink:title=" ">
<path fill="none" stroke="#63b8ff" d="M196.53,-60.37C207.08,-51.3 223.89,-36.84 236.69,-25.82"/>
<polygon fill="#63b8ff" stroke="#63b8ff" points="239.13,-28.34 244.43,-19.17 234.56,-23.04 239.13,-28.34"/>
</a>
</g>
</g>
<!-- Node17 -->
<g id="Node000017" class="node">
<title>Node17</title>
<g id="a_Node000017"><a xlink:title=" ">
<polygon fill="#e0e0e0" stroke="#999999" points="441,-19 302,-19 302,0 441,0 441,-19"/>
<text text-anchor="middle" x="371.5" y="-7" font-family="Helvetica,sans-Serif" font-size="10.00">Thoth/Dsa/LinearMap.tpp</text>
</a>
</g>
</g>
<!-- Node12&#45;&gt;Node17 -->
<g id="edge19_Node000012_Node000017" class="edge">
<title>Node12&#45;&gt;Node17</title>
<g id="a_edge19_Node000012_Node000017"><a xlink:title=" ">
<path fill="none" stroke="#63b8ff" d="M213.4,-60.49C245.46,-50.36 299.18,-33.37 334.98,-22.05"/>
<polygon fill="#63b8ff" stroke="#63b8ff" points="336.09,-25.37 344.57,-19.02 333.98,-18.69 336.09,-25.37"/>
</a>
</g>
</g>
<!-- Node20&#45;&gt;Node3 -->
<g id="edge23_Node000020_Node000003" class="edge">
<title>Node20&#45;&gt;Node3</title>
<g id="a_edge23_Node000020_Node000003"><a xlink:title=" ">
<path fill="none" stroke="#63b8ff" d="M664.71,-192.44C710.98,-182.33 788.84,-165.32 846.15,-152.8"/>
<polygon fill="#63b8ff" stroke="#63b8ff" points="847.21,-156.15 856.24,-150.6 845.72,-149.31 847.21,-156.15"/>
</a>
</g>
</g>
<!-- Node20&#45;&gt;Node5 -->
<g id="edge24_Node000020_Node000005" class="edge">
<title>Node20&#45;&gt;Node5</title>
<g id="a_edge24_Node000020_Node000005"><a xlink:title=" ">
<path fill="none" stroke="#63b8ff" d="M665.21,-192.47C716.2,-181.17 799.37,-161.46 809.5,-151 825.22,-134.77 828.76,-108.04 829.18,-89.99"/>
<polygon fill="#63b8ff" stroke="#63b8ff" points="832.68,-89.78 829.11,-79.81 825.68,-89.83 832.68,-89.78"/>
</a>
</g>
</g>
<!-- Node20&#45;&gt;Node7 -->
<g id="edge27_Node000020_Node000007" class="edge">
<title>Node20&#45;&gt;Node7</title>
<g id="a_edge27_Node000020_Node000007"><a xlink:title=" ">
<path fill="none" stroke="#63b8ff" d="M558.99,-197.14C503.57,-191.93 423.62,-179.69 359.5,-151 339.54,-142.07 340.55,-129.74 320.5,-121 232.09,-82.45 198.77,-113.08 106.5,-85 104.87,-84.5 103.21,-83.94 101.55,-83.33"/>
<polygon fill="#63b8ff" stroke="#63b8ff" points="102.83,-80.07 92.25,-79.51 100.17,-86.55 102.83,-80.07"/>
</a>
</g>
</g>
<!-- Node20&#45;&gt;Node9 -->
<g id="edge25_Node000020_Node000009" class="edge">
<title>Node20&#45;&gt;Node9</title>
<g id="a_edge25_Node000020_Node000009"><a xlink:title=" ">
<path fill="none" stroke="#63b8ff" d="M609.55,-192.36C594.66,-183.61 572.67,-168.85 558.5,-151 543.81,-132.5 534.03,-106.87 528.63,-89.65"/>
<polygon fill="#63b8ff" stroke="#63b8ff" points="531.89,-88.32 525.71,-79.71 525.17,-90.29 531.89,-88.32"/>
</a>
</g>
</g>
<!-- Node20&#45;&gt;Node10 -->
<g id="edge26_Node000020_Node000010" class="edge">
<title>Node20&#45;&gt;Node10</title>
<g id="a_edge26_Node000020_Node000010"><a xlink:title=" ">
<path fill="none" stroke="#63b8ff" d="M618.5,-192.22C611.04,-182.56 599.28,-166.36 591.5,-151 571.05,-110.62 586.24,-89.97 557.5,-55 546.22,-41.28 529.53,-30.79 514.76,-23.45"/>
<polygon fill="#63b8ff" stroke="#63b8ff" points="515.95,-20.14 505.4,-19.08 512.98,-26.48 515.95,-20.14"/>
</a>
</g>
</g>
<!-- Node21 -->
<g id="Node000021" class="node">
<title>Node21</title>
<g id="a_Node000021"><a xlink:title=" ">
<polygon fill="#e0e0e0" stroke="#999999" points="650.5,-145.5 600.5,-145.5 600.5,-126.5 650.5,-126.5 650.5,-145.5"/>
<text text-anchor="middle" x="625.5" y="-133.5" font-family="Helvetica,sans-Serif" font-size="10.00">ranges</text>
</a>
</g>
</g>
<!-- Node20&#45;&gt;Node21 -->
<g id="edge28_Node000020_Node000021" class="edge">
<title>Node20&#45;&gt;Node21</title>
<g id="a_edge28_Node000020_Node000021"><a xlink:title=" ">
<path fill="none" stroke="#63b8ff" d="M625.5,-192.37C625.5,-183.16 625.5,-168.29 625.5,-156.27"/>
<polygon fill="#63b8ff" stroke="#63b8ff" points="629,-155.91 625.5,-145.91 622,-155.91 629,-155.91"/>
</a>
</g>
</g>
<!-- Node22 -->
<g id="Node000022" class="node">
<title>Node22</title>
<g id="a_Node000022"><a xlink:title=" ">
<polygon fill="#e0e0e0" stroke="#999999" points="800,-145.5 669,-145.5 669,-126.5 800,-126.5 800,-145.5"/>
<text text-anchor="middle" x="734.5" y="-133.5" font-family="Helvetica,sans-Serif" font-size="10.00">Thoth/Http/Headers.tpp</text>
</a>
</g>
</g>
<!-- Node20&#45;&gt;Node22 -->
<g id="edge29_Node000020_Node000022" class="edge">
<title>Node20&#45;&gt;Node22</title>
<g id="a_edge29_Node000020_Node000022"><a xlink:title=" ">
<path fill="none" stroke="#63b8ff" d="M640.2,-192.37C658.32,-181.73 689.35,-163.51 710.84,-150.89"/>
<polygon fill="#63b8ff" stroke="#63b8ff" points="712.83,-153.78 719.68,-145.7 709.29,-147.74 712.83,-153.78"/>
</a>
</g>
</g>
</g>
</svg>
